<svg xmlns="http://www.w3.org/2000/svg" xmlns:xlink="http://www.w3.org/1999/xlink" width="299.382" height="97.932" viewBox="0 0 299.382 97.932"><defs><style>.a{fill:none;}.b{clip-path:url(#a);}.c{fill:url(#b);}.d{fill:url(#c);}.e{fill:url(#d);}.f{fill:url(#e);}.g{fill:#f9f9f9;}.h{fill:#fbfbfb;}</style><clipPath id="a"><path class="a" d="M177.43,353.269l-13.5-7.794-26.039-15.035c-1.446-.835-2.886-.33-2.886,1.415V393.11c0,1.308,1.03,1.871,2.286,1.147l26.639-15.382,13.5-7.794,12.976-7.49c1.522-.88,1.376-2.086.092-2.778S177.43,353.269,177.43,353.269Z" transform="translate(-135.006 -330.047)"/></clipPath><linearGradient id="b" x1="0.5" x2="0.5" y2="1" gradientUnits="objectBoundingBox"><stop offset="0" stop-color="#316199"/><stop offset="0.278" stop-color="#4c839c"/><stop offset="0.764" stop-color="#79baa2"/><stop offset="1" stop-color="#8bd0a5"/></linearGradient><linearGradient id="c" y1="0.5" x2="1" y2="0.5" gradientUnits="objectBoundingBox"><stop offset="0" stop-color="#5dbc91"/><stop offset="1" stop-color="#daef7e"/></linearGradient><linearGradient id="d" x1="0.5" x2="0.5" y2="1" gradientUnits="objectBoundingBox"><stop offset="0" stop-color="#f91b1c"/><stop offset="0.358" stop-color="#c61e48"/><stop offset="0.79" stop-color="#8f2179"/><stop offset="1" stop-color="#7a238d"/></linearGradient><linearGradient id="e" x1="0.5" x2="0.5" y2="1" gradientUnits="objectBoundingBox"><stop offset="0" stop-color="#fa6c61"/><stop offset="0.113" stop-color="#fa775f"/><stop offset="0.711" stop-color="#fdae57"/><stop offset="1" stop-color="#fec455"/></linearGradient></defs><path d="M396.023,380.77a13.234,13.234,0,0,1-13.231,13.236H109.876A13.237,13.237,0,0,1,96.641,380.77V309.309a13.236,13.236,0,0,1,13.235-13.235H382.791a13.234,13.234,0,0,1,13.231,13.235Z" transform="translate(-96.641 -296.074)"/><g transform="translate(22.456 19.885)"><g class="b"><path class="c" d="M135.006,328.285V394.6l33.442-33.159Z" transform="translate(-135.006 -329.317)"/><path class="d" d="M177.43,352.367l-13.5-7.794-28.925-16.7v.241l33.442,33.16Z" transform="translate(-135.006 -329.146)"/><path class="e" d="M135.006,418.1v.241l28.925-16.7,13.5-7.793-8.982-8.906Z" transform="translate(-135.006 -352.809)"/><path class="f" d="M201.122,369.721l-8.982,8.907,8.982,8.906,15.427-8.906Z" transform="translate(-158.698 -346.499)"/></g></g><g transform="translate(224.019 37.244)"><path class="g" d="M488.342,392.923a8.34,8.34,0,0,1-3.44-.695,6.483,6.483,0,0,1-2.614-2.138h-.211a25.929,25.929,0,0,1,.211,3.2v7.936h-2.92V373.284h2.375l.4,2.64h.141a6.79,6.79,0,0,1,2.623-2.287,7.966,7.966,0,0,1,3.431-.7,7.128,7.128,0,0,1,5.922,2.622q2.085,2.622,2.086,7.356,0,4.752-2.119,7.383A7.146,7.146,0,0,1,488.342,392.923Zm-.423-17.509a5.176,5.176,0,0,0-4.275,1.637q-1.32,1.637-1.356,5.209v.651q0,4.065,1.356,5.816a5.154,5.154,0,0,0,4.346,1.75,4.521,4.521,0,0,0,3.917-2.023,9.6,9.6,0,0,0,1.416-5.579,9.242,9.242,0,0,0-1.416-5.534A4.662,4.662,0,0,0,487.919,375.413Z" transform="translate(-479.368 -365.189)"/><path class="g" d="M517.865,387.084h-2.921V359.7h2.921Z" transform="translate(-494.12 -359.703)"/><path class="g" d="M539.2,392.6l-.581-2.745h-.141A8.092,8.092,0,0,1,535.6,392.3a8.74,8.74,0,0,1-3.58.643,6.444,6.444,0,0,1-4.5-1.478,5.389,5.389,0,0,1-1.628-4.206q0-5.841,9.344-6.124l3.274-.106v-1.2a4.884,4.884,0,0,0-.978-3.352,4.013,4.013,0,0,0-3.123-1.083,12.719,12.719,0,0,0-5.455,1.479l-.9-2.235a13.727,13.727,0,0,1,3.124-1.214,13.523,13.523,0,0,1,3.4-.44,7.348,7.348,0,0,1,5.112,1.531q1.662,1.532,1.662,4.91V392.6Zm-6.6-2.058a5.934,5.934,0,0,0,4.285-1.5,5.538,5.538,0,0,0,1.558-4.189V383.11l-2.923.122a10.627,10.627,0,0,0-5.024,1.084,3.263,3.263,0,0,0-1.539,2.982,3.005,3.005,0,0,0,.959,2.41A3.976,3.976,0,0,0,532.6,390.537Z" transform="translate(-498.662 -365.214)"/><path class="g" d="M555.222,373.533h3.131l4.224,11a42.022,42.022,0,0,1,1.726,5.438h.141q.228-.9.958-3.072t4.777-13.365h3.134l-8.289,21.962a10.956,10.956,0,0,1-2.878,4.621,6.12,6.12,0,0,1-4.038,1.362,11.817,11.817,0,0,1-2.64-.3v-2.34a10.2,10.2,0,0,0,2.165.211q3.01,0,4.294-3.38L563,392.927Z" transform="translate(-510.823 -365.438)"/></g><g transform="translate(90.851 35.087)"><path class="g" d="M391.59,375.566a6.8,6.8,0,0,1,2.863,5.446c0,2.983-1.695,4.4-3.389,5.727a2.838,2.838,0,0,0-1.13,1.979,2.212,2.212,0,0,0,1.05,1.734l1.453,1.127c1.775,1.493,3.387,2.866,3.387,5.65,0,3.792-3.671,7.623-10.608,7.623-5.85,0-8.673-2.783-8.673-5.77a5.8,5.8,0,0,1,3.106-4.921c2.5-1.533,5.89-1.733,7.7-1.857a4.221,4.221,0,0,1-1.211-2.74,3.641,3.641,0,0,1,.4-1.576c-.445.042-.889.081-1.292.081a6.378,6.378,0,0,1-6.7-6.332,7.257,7.257,0,0,1,2.581-5.406,11,11,0,0,1,7.224-2.22h8.309l-2.582,1.453Zm-2.865,17.912a6.257,6.257,0,0,0-.927-.042,16.142,16.142,0,0,0-4.237.649c-.887.32-3.47,1.289-3.47,4.154s2.785,4.923,7.1,4.923c3.871,0,5.93-1.859,5.93-4.358C393.123,396.742,391.792,395.657,388.725,393.478Zm1.171-7.665a4.081,4.081,0,0,0,1.006-2.946c0-2.9-1.734-7.421-5.081-7.421A3.768,3.768,0,0,0,383,376.777a4.66,4.66,0,0,0-.888,2.985c0,2.7,1.573,7.18,5.044,7.18A4.13,4.13,0,0,0,389.9,385.812Z" transform="translate(-303.561 -363.522)"/><path class="g" d="M351.9,392.427a9.5,9.5,0,0,1-9.826-9.507c0-5.276,4.309-9.785,10.433-9.785a9.415,9.415,0,0,1,9.624,9.5A9.841,9.841,0,0,1,351.9,392.427Zm5.034-3.262a7.286,7.286,0,0,0,1.21-4.472c0-3.545-1.691-10.31-6.686-10.31a5.61,5.61,0,0,0-3.624,1.371,6.094,6.094,0,0,0-1.854,4.915c0,3.984,1.974,10.547,6.848,10.547A5.144,5.144,0,0,0,356.933,389.165Z" transform="translate(-289.267 -363.117)"/><path class="g" d="M314.6,392.427a9.5,9.5,0,0,1-9.828-9.507c0-5.276,4.31-9.785,10.433-9.785a9.415,9.415,0,0,1,9.624,9.5A9.841,9.841,0,0,1,314.6,392.427Zm5.035-3.262a7.3,7.3,0,0,0,1.209-4.472c0-3.545-1.692-10.31-6.687-10.31a5.612,5.612,0,0,0-3.624,1.371,6.094,6.094,0,0,0-1.853,4.915c0,3.984,1.973,10.547,6.848,10.547A5.148,5.148,0,0,0,319.639,389.165Z" transform="translate(-273.801 -363.117)"/><path class="g" d="M279.754,385.337l-5.791,1.336a42.913,42.913,0,0,1-6.68.687c-11.177,0-15.427-8.22-15.427-14.659,0-7.854,6.032-15.141,16.359-15.141a23.309,23.309,0,0,1,6.194.85,15.788,15.788,0,0,1,5.345,2.51l-3.362,3.2-1.416.322,1.012-1.62a11.573,11.573,0,0,0-8.665-3.8c-6.4,0-11.218,4.861-11.218,11.946,0,7.61,5.508,14.778,14.333,14.778a12.059,12.059,0,0,0,5.143-1.013V378.21l-6.113.324,3.237-1.743h8.585l-1.051,1.012a.946.946,0,0,0-.406.647c-.042.365-.08,1.541-.08,1.945Z" transform="translate(-251.856 -356.658)"/><path class="g" d="M418.022,383.532c-1.337-.122-1.617-.363-1.617-1.944V358.669c.008-.087.014-.177.022-.261.163-1.416.567-1.659,1.824-2.389h-5.793l-3.038,1.458h3.1v.018l0-.015v25c0,.808-.16.931-1.092,2.145h7.168l1.5-.889C419.4,383.652,418.711,383.612,418.022,383.532Z" transform="translate(-317.194 -356.019)"/><path class="g" d="M441.867,391.01c-.441.242-.883.525-1.324.724a9.365,9.365,0,0,1-3.9.764,8.594,8.594,0,0,1-5.349-1.569,10.407,10.407,0,0,1-4.1-8.485,9.114,9.114,0,0,1,9.209-9.288,7.817,7.817,0,0,1,4.144,1.127,6.657,6.657,0,0,1,2.811,3.979l-9.448,3.822-3.1.241c1,5.107,4.462,8.08,8.284,8.08A10.391,10.391,0,0,0,444,389Zm-3.778-11.984c.762-.281,1.165-.523,1.165-1.085,0-1.607-1.809-3.458-3.982-3.458-1.61,0-4.624,1.247-4.624,5.589,0,.684.08,1.407.122,2.133Z" transform="translate(-324.563 -363.125)"/><g transform="translate(119.986 10.031)"><path class="g" d="M458.046,373.431v2.653h-.322v-2.653h-.878v-.275h2.077v.275Z" transform="translate(-456.846 -373.156)"/><path class="g" d="M463.509,376.084v-2.678h-.015l-.818,2.678h-.252l-.825-2.678h-.01v2.678H461.3v-2.928h.5l.746,2.367h.01l.735-2.367h.509v2.928Z" transform="translate(-458.692 -373.156)"/></g></g><g transform="translate(90.92 19.729)"><path class="h" d="M259.947,338.289h-2.012a13.35,13.35,0,0,0-.572-2.352h-2.9a12.154,12.154,0,0,0-.591,2.352h-1.892q0-.245,1.468-4.024a31.64,31.64,0,0,0,1.469-4.162h2.376a34.746,34.746,0,0,0,1.33,4.1A35.926,35.926,0,0,1,259.947,338.289Zm-2.9-3.552a35.582,35.582,0,0,1-1.075-3.509h-.1q0,.246-1.113,3.509Z" transform="translate(-251.974 -329.914)"/><path class="h" d="M274.667,338.289h-1.553a15.307,15.307,0,0,0-1.729-2.722,15,15,0,0,1-2.062-3.553h-.1a22.156,22.156,0,0,1,.157,2.49q0,1.553.088,3.785H267.92q.095-1.949.094-4.282,0-2.3-.094-3.9h1.868a11.83,11.83,0,0,0,1.553,2.659,15.659,15.659,0,0,1,1.9,3.352h.094a23.867,23.867,0,0,1-.15-2.515q0-1.7-.088-3.5h1.572q-.089,1.559-.088,3.9Q274.579,336.372,274.667,338.289Z" transform="translate(-258.586 -329.914)"/><path class="h" d="M290.117,333.886A4.637,4.637,0,0,1,288.972,337a4,4,0,0,1-3.206,1.333q-.931,0-2.565-.076.082-1.9.082-4.282,0-2.288-.082-3.9h1.1q.27,0,.8-.019t.7-.019a4.239,4.239,0,0,1,3.292,1.132A3.913,3.913,0,0,1,290.117,333.886Zm-1.717.27a3.029,3.029,0,0,0-.7-2.034,2.669,2.669,0,0,0-2.15-.826,6.663,6.663,0,0,0-.742.056q.063,1.258.063,2.628,0,1.5.063,2.98a4.166,4.166,0,0,0,.818.082,2.376,2.376,0,0,0,2-.84A3.239,3.239,0,0,0,288.4,334.156Z" transform="translate(-264.923 -329.887)"/><path class="h" d="M304.678,338.262h-1.861a12.347,12.347,0,0,0-1.119-2.748,1.466,1.466,0,0,0-1.257-.522q-.365,0-.7.006,0,1.616.057,3.263h-1.748q.082-1.9.081-4.282,0-2.288-.081-3.9h1.088q.189,0,.789-.019t1.11-.019q2.886,0,2.886,1.974a2.215,2.215,0,0,1-1.648,2.182v.094a1.964,1.964,0,0,1,1.113.99A21.886,21.886,0,0,1,304.678,338.262Zm-2.358-5.785q0-1.251-1.61-1.251a5.482,5.482,0,0,0-1.044.088q.069.975.07,2.54.345.012.585.012Q302.32,333.867,302.32,332.478Z" transform="translate(-271.081 -329.887)"/><path class="h" d="M319.1,333.911a4.516,4.516,0,0,1-1.182,3.2,3.837,3.837,0,0,1-2.924,1.27,3.694,3.694,0,0,1-2.779-1.167,4.106,4.106,0,0,1-1.119-2.964,4.513,4.513,0,0,1,1.182-3.2,3.835,3.835,0,0,1,2.924-1.27,3.7,3.7,0,0,1,2.779,1.164A4.1,4.1,0,0,1,319.1,333.911Zm-1.735.182a3.245,3.245,0,0,0-.673-2.131,2.071,2.071,0,0,0-1.66-.818,1.917,1.917,0,0,0-1.559.824,3.287,3.287,0,0,0-.642,2.081,3.238,3.238,0,0,0,.676,2.128,2.071,2.071,0,0,0,1.657.821,1.915,1.915,0,0,0,1.559-.827A3.29,3.29,0,0,0,317.366,334.093Z" transform="translate(-276.491 -329.78)"/><path class="h" d="M329.584,338.289H327.8q.082-1.949.082-4.282,0-2.3-.082-3.9h1.779q-.082,1.584-.081,3.9Q329.5,336.379,329.584,338.289Z" transform="translate(-283.419 -329.914)"/><path class="h" d="M341.515,333.886A4.636,4.636,0,0,1,340.371,337a4,4,0,0,1-3.206,1.333q-.931,0-2.565-.076.082-1.9.082-4.282,0-2.288-.082-3.9h1.1q.27,0,.8-.019t.7-.019a4.239,4.239,0,0,1,3.292,1.132A3.915,3.915,0,0,1,341.515,333.886Zm-1.716.27a3.032,3.032,0,0,0-.7-2.034,2.67,2.67,0,0,0-2.15-.826,6.654,6.654,0,0,0-.742.056q.063,1.258.063,2.628,0,1.5.063,2.98a4.166,4.166,0,0,0,.818.082,2.376,2.376,0,0,0,2-.84A3.239,3.239,0,0,0,339.8,334.156Z" transform="translate(-286.237 -329.887)"/><path class="h" d="M361.423,338.289h-2.012a13.259,13.259,0,0,0-.573-2.352h-2.9a12.132,12.132,0,0,0-.591,2.352H353.45q0-.245,1.468-4.024a31.578,31.578,0,0,0,1.468-4.162h2.376a34.7,34.7,0,0,0,1.33,4.1A36.076,36.076,0,0,1,361.423,338.289Zm-2.9-3.552a35.705,35.705,0,0,1-1.076-3.509h-.1q0,.246-1.113,3.509Z" transform="translate(-294.054 -329.914)"/><path class="h" d="M375.37,332.22a2.451,2.451,0,0,1-1.117,2.22,4.964,4.964,0,0,1-2.738.716q-.3,0-.421-.012,0,1.182.069,3.119H369.4q.082-1.817.082-4.282,0-2.263-.082-3.9h1.095q.232,0,.893-.019t1.144-.019a3.6,3.6,0,0,1,2.018.541A1.829,1.829,0,0,1,375.37,332.22Zm-1.622.345q0-1.345-1.786-1.345a5.027,5.027,0,0,0-.943.094q.069,1.188.069,2.691c.1.009.227.013.365.013Q373.747,334.018,373.747,332.565Z" transform="translate(-300.666 -329.887)"/><path class="h" d="M388.253,332.22a2.452,2.452,0,0,1-1.116,2.22,4.968,4.968,0,0,1-2.739.716c-.2,0-.337,0-.421-.012q0,1.182.069,3.119H382.28q.082-1.817.082-4.282,0-2.263-.082-3.9h1.094q.233,0,.893-.019t1.144-.019a3.6,3.6,0,0,1,2.018.541A1.829,1.829,0,0,1,388.253,332.22Zm-1.622.345q0-1.345-1.786-1.345a5.026,5.026,0,0,0-.943.094q.069,1.188.069,2.691c.1.009.227.013.365.013Q386.631,334.018,386.631,332.565Z" transform="translate(-306.009 -329.887)"/><path class="h" d="M407.879,333.911a4.514,4.514,0,0,1-1.182,3.2,3.835,3.835,0,0,1-2.924,1.27,3.694,3.694,0,0,1-2.779-1.167,4.108,4.108,0,0,1-1.119-2.964,4.515,4.515,0,0,1,1.182-3.2,3.837,3.837,0,0,1,2.924-1.27,3.7,3.7,0,0,1,2.779,1.164A4.106,4.106,0,0,1,407.879,333.911Zm-1.736.182a3.242,3.242,0,0,0-.673-2.131,2.07,2.07,0,0,0-1.659-.818,1.918,1.918,0,0,0-1.56.824,3.287,3.287,0,0,0-.641,2.081,3.238,3.238,0,0,0,.676,2.128,2.07,2.07,0,0,0,1.656.821,1.913,1.913,0,0,0,1.559-.827A3.286,3.286,0,0,0,406.144,334.093Z" transform="translate(-313.305 -329.78)"/><path class="h" d="M423.33,338.289h-1.553a15.307,15.307,0,0,0-1.729-2.722,15.007,15.007,0,0,1-2.063-3.553h-.1a22.29,22.29,0,0,1,.157,2.49q0,1.553.088,3.785h-1.547q.094-1.949.094-4.282,0-2.3-.094-3.9h1.867A11.847,11.847,0,0,0,420,332.762a15.659,15.659,0,0,1,1.9,3.352H422a23.732,23.732,0,0,1-.151-2.515q0-1.7-.088-3.5h1.572q-.088,1.559-.088,3.9Q423.243,336.372,423.33,338.289Z" transform="translate(-320.234 -329.914)"/></g></svg>