<svg xmlns="http://www.w3.org/2000/svg" width="243.674" height="62" viewBox="0 0 243.674 62"><defs><style>.a{fill:#fff;}</style></defs><g transform="translate(-87.614 -138.665)"><path class="a" d="M456.014,208.383H442.877v-1.544q0-13.084-.006-26.168a21.663,21.663,0,0,0-.137-2.479c-.4-3.428-2.309-5.665-5.248-6.193-3.833-.687-6.985.664-8.593,3.7a14.909,14.909,0,0,0-1.53,6.96c-.07,8.024-.051,16.048-.065,24.073,0,.514,0,1.028,0,1.62H414.333v-1.505q0-13.28-.013-26.561a13.858,13.858,0,0,0-.292-2.98c-.768-3.426-2.521-4.988-5.963-5.441a7.36,7.36,0,0,0-7.622,3.711,16.281,16.281,0,0,0-1.632,7.853c-.04,7.763-.014,15.527-.014,23.289v1.627H385.734V162.477h11.18c-.07,3.5-1.658,6.412-3.444,9.4H398.9c.428-1.162.792-2.373,1.307-3.515,2.348-5.208,6.551-7.706,12.226-7.324a12.079,12.079,0,0,1,10.626,8.92c.6,2.012.6,1.929,2.75,2.043a2.234,2.234,0,0,0,2.636-1.7c1.791-4.577,4.87-7.97,9.9-9.006,7.919-1.632,15.029,3.006,16.933,11.043a26.886,26.886,0,0,1,.744,5.946c.075,9.681.034,19.364.033,29.046C456.058,207.631,456.034,207.93,456.014,208.383Z" transform="translate(-124.783 -9.337)"/><path class="a" d="M125.058,171.882c-1.794-3.011-3.712-5.742-3.824-9.316h11.832v45.883H121.28c-.008-3.543,1.955-6.248,3.731-9.254-1.723,0-3.273-.052-4.814.041-.339.02-.713.513-.959.867a41.711,41.711,0,0,1-3.619,5.246c-3.6,3.772-8.071,5.442-13.282,4.3a13.834,13.834,0,0,1-7.32-4.815,28.941,28.941,0,0,1,.624-39.336c7.464-7.929,17.059-4.15,21.186,1.525.918,1.263,1.6,2.7,2.493,3.98a2.134,2.134,0,0,0,1.377.841C122.069,171.955,123.457,171.882,125.058,171.882ZM98.9,186.173c.095.958.168,2.618.442,4.245.47,2.8,1.415,5.422,3.667,7.318a10.358,10.358,0,0,0,16.174-4.222,22.693,22.693,0,0,0,1.185-11.315,14.837,14.837,0,0,0-2.329-6.859,9.734,9.734,0,0,0-9.376-4.306,9.126,9.126,0,0,0-8.155,5.639C99.228,179.476,98.984,182.46,98.9,186.173Z" transform="translate(0 -9.337)"/><path class="a" d="M330.156,163.474h13.082v45.891H331.106c.3-3.888,2.179-7.057,4.3-10.424-1.817,0-3.444-.052-5.06.049-.284.018-.619.641-.777,1.045A18.884,18.884,0,0,1,325,207.117c-4.191,3.924-9.13,4.761-14.459,3.054-5.2-1.667-7.892-5.659-9-10.791a25.231,25.231,0,0,1-.516-5.189c-.047-9.683-.023-19.366-.023-29.048v-1.631h13.183v1.558q0,13.216.008,26.431a15.313,15.313,0,0,0,.191,2.733c.486,2.648,1.668,4.827,4.509,5.51a7.747,7.747,0,0,0,8.2-2.395,13.291,13.291,0,0,0,2.9-7.974c.18-2.3.145-4.616.153-6.925.018-5.8.006-11.6.006-17.4Z" transform="translate(-89.314 -10.384)"/><path class="a" d="M190.6,163.042v10.212c0,3.794-.017,7.589.006,11.383.017,2.8,1.184,3.979,4,4.012,3.269.038,6.539.009,9.909.009v10.471c-1.433,0-2.821,0-4.209,0-3.971-.012-7.944.047-11.911-.059-6.235-.167-10.77-4.411-10.825-10.645-.146-16.526-.049-33.055-.049-49.688h13.04v14.277h13.934v10.029Z" transform="translate(-37.618 -0.03)"/><path class="a" d="M243.76,176.6a3.892,3.892,0,0,0,.508.106c1.483-.005,3.3.5,4.35-.178.926-.6.968-2.525,1.458-3.844a36.692,36.692,0,0,1,1.5-3.614,12.392,12.392,0,0,1,10.7-7.094c1.635-.14,3.293-.022,5.015-.022V175.24c-2.277,0-4.493-.092-6.7.017-7.438.37-11.1,3.8-11.5,11.329-.359,6.741-.23,13.508-.315,20.265-.008.6,0,1.2,0,1.891H235.736V162.855h11.74A30.875,30.875,0,0,1,243.76,176.6Z" transform="translate(-61.999 -9.727)"/><path class="a" d="M138.481,138.665v8.77H100.575v-8.77Z" transform="translate(-5.425)"/></g></svg>