<svg xmlns="http://www.w3.org/2000/svg" width="50" height="50" viewBox="0 0 50 50"><g transform="translate(1 1)"><g transform="translate(-1 -1)"><path d="M41.677,6.323a25,25,0,1,0,0,35.355A25,25,0,0,0,41.677,6.323ZM38.731,38.731a20.833,20.833,0,1,1,0-29.462A20.832,20.832,0,0,1,38.731,38.731Z" transform="translate(1 1)"/><path d="M164.388,143.77a2.083,2.083,0,0,0-2.946,0l-7.366,7.366-7.366-7.366a2.083,2.083,0,0,0-2.946,2.946l7.366,7.366-7.363,7.363a2.083,2.083,0,1,0,2.946,2.946l7.363-7.363,7.365,7.365a2.083,2.083,0,0,0,2.946-2.946l-7.365-7.365,7.366-7.366A2.083,2.083,0,0,0,164.388,143.77Z" transform="translate(-129.076 -129.082)"/></g></g></svg>