<svg xmlns="http://www.w3.org/2000/svg" width="305.369" height="99.89" viewBox="0 0 305.369 99.89"><defs><style>.a{fill:#fff;}</style></defs><g transform="translate(0 0)"><path d="M402.01,1022.215a13.5,13.5,0,0,1-13.5,13.5H110.14a13.5,13.5,0,0,1-13.5-13.5V949.324a13.5,13.5,0,0,1,13.5-13.5H388.514a13.5,13.5,0,0,1,13.5,13.5Z" transform="translate(-96.641 -935.825)"/><g transform="translate(20.484 15.529)"><path class="a" d="M190.785,1024.269a49.474,49.474,0,0,1-4.471,8.349c-2.9,4.422-7,9.927-12.069,9.974-4.508.042-5.665-2.934-11.781-2.9s-7.393,2.952-11.9,2.911c-5.071-.047-8.95-5.019-11.855-9.44-8.121-12.363-8.969-26.871-3.961-34.584,3.56-5.482,9.174-8.69,14.454-8.69,5.376,0,8.755,2.948,13.2,2.948,4.311,0,6.939-2.953,13.153-2.953,4.7,0,9.675,2.557,13.222,6.982C177.155,1003.234,179.043,1019.832,190.785,1024.269Z" transform="translate(-131.637 -973.771)"/><g transform="translate(28.429)"><path class="a" d="M190.98,973.53a15.088,15.088,0,0,0,3.35-11.175,16.3,16.3,0,0,0-10.523,5.66c-2.286,2.779-4.174,6.9-3.439,10.9C184.4,979.04,188.561,976.636,190.98,973.53Z" transform="translate(-180.207 -962.355)"/></g></g><g transform="translate(92.739 15.676)"><g transform="translate(0 23.929)"><path class="a" d="M266.715,1004.42l-11.633,34.244h5.328l3.473-10.515h11.264l3.572,10.515h5.475l-11.684-34.244Zm2.76,5.63c.393,1.528.817,3.116,1.361,4.831l3.135,9.08h-8.923l3.092-9.139C268.612,1013.34,269.059,1011.74,269.476,1010.05Z" transform="translate(-255.082 -1003.874)"/><path class="a" d="M321.2,1019.586a9.694,9.694,0,0,0-8.237,3.952l-.207-3.406h-4.739l.028.436c.14,2.122.2,4.457.2,7.81v26.395h5.181v-12.318a9.1,9.1,0,0,0,7.082,3.043,10.681,10.681,0,0,0,7.85-3.338c2.27-2.4,3.466-5.846,3.466-9.965a13.782,13.782,0,0,0-3.01-9.1A9.858,9.858,0,0,0,321.2,1019.586Zm-1.291,4.289c4.619,0,6.686,4.279,6.686,8.518,0,5.468-2.637,8.865-6.882,8.865a6.281,6.281,0,0,1-6.1-4.808,6.608,6.608,0,0,1-.184-1.677v-4.166a7.8,7.8,0,0,1,.164-1.279c.026-.142.054-.283.074-.42A6.56,6.56,0,0,1,319.905,1023.875Z" transform="translate(-277.032 -1010.163)"/><path class="a" d="M366.777,1019.586a9.7,9.7,0,0,0-8.237,3.952l-.207-3.406H353.6l.026.436c.14,2.124.2,4.457.2,7.81v26.395H359v-12.318a9.094,9.094,0,0,0,7.08,3.043,10.7,10.7,0,0,0,7.854-3.338c2.266-2.4,3.465-5.846,3.465-9.965a13.784,13.784,0,0,0-3.012-9.1A9.854,9.854,0,0,0,366.777,1019.586Zm-1.289,4.289c4.616,0,6.684,4.279,6.684,8.518,0,5.468-2.639,8.865-6.882,8.865a6.281,6.281,0,0,1-6.1-4.808,6.615,6.615,0,0,1-.183-1.677v-4.166a7.692,7.692,0,0,1,.165-1.283c.026-.14.052-.279.075-.416A6.557,6.557,0,0,1,365.487,1023.875Z" transform="translate(-295.933 -1010.163)"/><path class="a" d="M424.48,1018.543c-4.835-1.872-6.385-3.345-6.385-6.066,0-2.291,1.82-4.6,5.889-4.6a11.773,11.773,0,0,1,6.082,1.527l.439.271,1.462-4.324-.289-.169a15.016,15.016,0,0,0-7.545-1.693c-6.607,0-11.222,3.9-11.222,9.483,0,4.5,2.89,7.65,9.094,9.905,4.4,1.644,6.034,3.327,6.034,6.213,0,3.267-2.525,5.294-6.586,5.294a14.179,14.179,0,0,1-7.468-2.118l-.45-.288-1.391,4.424.256.169a17.746,17.746,0,0,0,8.756,2.251c8.9,0,12.062-5.43,12.062-10.079C433.218,1023.949,430.688,1020.993,424.48,1018.543Z" transform="translate(-320.212 -1003.488)"/><path class="a" d="M457.847,1010.439l-5.082,1.595v4.3h-3.72v4.141h3.72v12.684c0,3.066.587,5.215,1.794,6.573a6.642,6.642,0,0,0,5.013,1.968,12.208,12.208,0,0,0,4-.618l.29-.1-.248-4.148-.5.153a7.8,7.8,0,0,1-2.41.279c-2.008,0-2.865-1.27-2.865-4.252v-12.535h6.25v-4.141h-6.25Z" transform="translate(-335.514 -1006.37)"/><path class="a" d="M487.973,1019.586c-7.249,0-12.311,5.411-12.311,13.154,0,7.512,4.9,12.757,11.915,12.757h.048c5.93,0,12.311-4.131,12.311-13.2a13.089,13.089,0,0,0-3.3-9.164A11.529,11.529,0,0,0,487.973,1019.586Zm-.15,4.09c4.661,0,6.783,4.544,6.783,8.768,0,5.194-2.9,8.963-6.881,8.963h-.05c-3.929,0-6.781-3.707-6.781-8.813C480.894,1028.156,483.037,1023.676,487.823,1023.676Z" transform="translate(-346.551 -1010.163)"/><path class="a" d="M535.107,1019.827l-.311-.079a4.99,4.99,0,0,0-1.288-.162,7.391,7.391,0,0,0-6.5,4.171l-.152-3.625h-4.649l.03.436c.138,2.051.2,4.353.2,7.461l-.048,16.925h5.181v-13.2a13.356,13.356,0,0,1,.143-2.008c.584-3.171,2.725-5.221,5.451-5.221a13.254,13.254,0,0,1,1.39.087l.554.057Z" transform="translate(-365.854 -1010.163)"/><path class="a" d="M555.845,1019.5c-6.9,0-11.714,5.511-11.714,13.4,0,7.6,4.792,12.51,12.21,12.51a19.87,19.87,0,0,0,8.2-1.574l.312-.141-1-3.861-.432.175a16.057,16.057,0,0,1-6.491,1.161c-2.251,0-7.442-.742-7.76-7.512l16.723.05.067-.331a11.509,11.509,0,0,0,.156-2.162C566.123,1025.813,563.431,1019.5,555.845,1019.5Zm-.345,3.942a5.113,5.113,0,0,1,3.8,1.451,7.374,7.374,0,0,1,1.785,4.823H549.272C549.753,1026.726,551.625,1023.444,555.5,1023.444Z" transform="translate(-374.944 -1010.129)"/></g><path class="a" d="M255.082,964.217a37.759,37.759,0,0,1,4.969-.336c3.34,0,5.719.673,7.295,2a7.092,7.092,0,0,1,2.565,5.843,8.2,8.2,0,0,1-2.592,6.3c-1.71,1.515-4.489,2.333-7.989,2.333a35.929,35.929,0,0,1-4.249-.193Zm2.352,14.356a16.677,16.677,0,0,0,2.351.1c4.969.023,7.668-2.5,7.668-6.877.027-3.872-2.378-6.252-7.294-6.252a14.769,14.769,0,0,0-2.725.216Z" transform="translate(-255.082 -963.135)"/><path class="a" d="M290.263,983.607a5.842,5.842,0,0,1-6.2-5.987c0-3.9,2.859-6.18,6.412-6.18,3.714,0,6.225,2.428,6.225,5.963,0,4.328-3.339,6.2-6.411,6.2Zm.08-1.587c2.244,0,3.928-1.9,3.928-4.545,0-1.971-1.1-4.448-3.874-4.448-2.753,0-3.955,2.309-3.955,4.521,0,2.549,1.6,4.472,3.874,4.472Z" transform="translate(-267.1 -966.27)"/><path class="a" d="M310.306,971.891l1.737,5.892c.347,1.3.695,2.525.935,3.727h.08c.294-1.179.721-2.429,1.149-3.7l2.111-5.916h1.978l2,5.819c.48,1.371.855,2.621,1.148,3.8h.08a32.2,32.2,0,0,1,.989-3.775l1.843-5.843h2.326l-4.168,11.638h-2.138l-1.977-5.554a38.128,38.128,0,0,1-1.15-3.847H317.2A31.968,31.968,0,0,1,316.023,978l-2.083,5.53H311.8l-3.9-11.638Z" transform="translate(-276.984 -966.457)"/><path class="a" d="M343.936,974.854c0-1.226-.027-2.188-.108-3.15h2.085l.133,1.9h.054a4.9,4.9,0,0,1,4.275-2.164c1.79,0,4.568.961,4.568,4.953v6.949h-2.349v-6.708c0-1.876-.776-3.462-2.994-3.462a3.354,3.354,0,0,0-3.152,2.164,2.849,2.849,0,0,0-.161.986v7.021h-2.351Z" transform="translate(-291.883 -966.27)"/><path class="a" d="M369.346,962.607H371.7v17.072h-2.351Z" transform="translate(-302.465 -962.607)"/><path class="a" d="M384.63,983.607a5.842,5.842,0,0,1-6.2-5.987c0-3.9,2.857-6.18,6.412-6.18,3.713,0,6.224,2.428,6.224,5.963,0,4.328-3.34,6.2-6.412,6.2Zm.079-1.587c2.245,0,3.929-1.9,3.929-4.545,0-1.971-1.1-4.448-3.874-4.448-2.753,0-3.956,2.309-3.956,4.521,0,2.549,1.6,4.472,3.875,4.472Z" transform="translate(-306.232 -966.27)"/><path class="a" d="M413.483,980.553a17.541,17.541,0,0,0,.188,2.788h-2.112l-.214-1.466h-.079a4.972,4.972,0,0,1-3.954,1.731c-2.618,0-3.954-1.659-3.954-3.343,0-2.813,2.778-4.352,7.774-4.328v-.24c0-.962-.293-2.717-2.938-2.693a6.748,6.748,0,0,0-3.393.865l-.535-1.418a9.108,9.108,0,0,1,4.276-1.01c3.981,0,4.942,2.428,4.942,4.761Zm-2.3-3.15c-2.565-.048-5.477.361-5.477,2.62a1.966,1.966,0,0,0,2.191,2.021,3.26,3.26,0,0,0,3.179-1.949,1.942,1.942,0,0,0,.108-.673Z" transform="translate(-316.568 -966.27)"/><path class="a" d="M437.6,962.607v14.067c0,1.034.029,2.212.107,3.006H435.6l-.107-2.019h-.054a4.838,4.838,0,0,1-4.382,2.285c-3.127,0-5.558-2.381-5.558-5.916-.027-3.9,2.673-6.251,5.8-6.251a4.447,4.447,0,0,1,3.9,1.755h.053v-6.926Zm-2.351,10.171a3.523,3.523,0,0,0-.107-.913,3.4,3.4,0,0,0-3.393-2.429c-2.432,0-3.875,1.923-3.875,4.473,0,2.38,1.31,4.327,3.821,4.327a3.5,3.5,0,0,0,3.446-2.524,3.3,3.3,0,0,0,.107-.914Z" transform="translate(-325.748 -962.607)"/><path class="a" d="M467.119,983.607a5.842,5.842,0,0,1-6.2-5.987c0-3.9,2.86-6.18,6.412-6.18,3.716,0,6.226,2.428,6.226,5.963,0,4.328-3.34,6.2-6.411,6.2Zm.081-1.587c2.244,0,3.927-1.9,3.927-4.545,0-1.971-1.094-4.448-3.873-4.448-2.753,0-3.954,2.309-3.954,4.521,0,2.549,1.6,4.472,3.874,4.472Z" transform="translate(-340.438 -966.27)"/><path class="a" d="M487.506,974.854c0-1.226-.027-2.188-.108-3.15h2.084l.135,1.9h.053a4.9,4.9,0,0,1,4.275-2.164c1.79,0,4.57.961,4.57,4.953v6.949h-2.352v-6.708c0-1.876-.774-3.462-2.993-3.462a3.358,3.358,0,0,0-3.153,2.164,2.864,2.864,0,0,0-.16.986v7.021h-2.351Z" transform="translate(-351.418 -966.27)"/><path class="a" d="M524.386,967.127v2.789h3.366v1.611h-3.366V977.8c0,1.442.455,2.26,1.764,2.26a4.838,4.838,0,0,0,1.363-.145l.107,1.611a7.062,7.062,0,0,1-2.084.289,3.561,3.561,0,0,1-2.539-.89,4.225,4.225,0,0,1-.908-3.055v-6.348h-2v-1.611h2v-2.14Z" transform="translate(-364.972 -964.481)"/><path class="a" d="M537.705,962.607h2.351v7.262h.054a3.991,3.991,0,0,1,1.684-1.491,4.962,4.962,0,0,1,2.4-.6c1.735,0,4.515.961,4.515,4.977v6.925h-2.351v-6.684c0-1.9-.775-3.462-2.993-3.462a3.379,3.379,0,0,0-3.153,2.116,2.328,2.328,0,0,0-.161,1.01v7.021h-2.351Z" transform="translate(-372.279 -962.607)"/><path class="a" d="M563.714,977.866c.055,2.862,2.059,4.041,4.409,4.041a9.8,9.8,0,0,0,3.582-.578l.427,1.491a11.563,11.563,0,0,1-4.329.746c-3.956,0-6.36-2.381-6.36-5.867,0-3.535,2.326-6.3,6.091-6.3,4.223,0,5.317,3.342,5.317,5.483a4.888,4.888,0,0,1-.079,1.009Zm6.869-1.515a3.123,3.123,0,0,0-3.234-3.439,3.66,3.66,0,0,0-3.607,3.439Z" transform="translate(-382.122 -966.252)"/></g></g></svg>