<svg xmlns="http://www.w3.org/2000/svg" width="644.496" height="76.52" viewBox="0 0 644.496 76.52">
  <g id="Group_516" data-name="Group 516" transform="translate(0)">
    <g id="Group_515" data-name="Group 515" transform="translate(0 0)">
      <g id="Group_513" data-name="Group 513">
        <g id="Group_511" data-name="Group 511">
          <g id="Group_510" data-name="Group 510">
            <path id="Path_1166" data-name="Path 1166" d="M631.108,168.391c.032-11.064,7.644-23,16.091-23.76a15.189,15.189,0,0,1,8.168,2.037c3.653,2.172,5.555,5.684,6.983,8.542h5.379c-1.792-2.6-3.855-6.007-3.855-9.145h11.565v44.827H663.874c0-3.139,2.063-6.544,3.855-9.145H662.35c-1.429,2.858-3.332,6.373-6.986,8.544a15.189,15.189,0,0,1-8.165,2.036C638.733,191.561,631.076,179.539,631.108,168.391Zm7.266-27.883V131.9h37.065v8.608Zm24.872,27.97c0-9.5-4.392-14.166-10.668-14.166-5.917,0-10.489,3.676-10.489,14.166s4.571,14.165,10.489,14.165C658.854,182.643,663.246,177.981,663.246,168.478Z" transform="translate(-631.108 -131.9)" fill="#dd4d0e"/>
            <path id="Path_1167" data-name="Path 1167" d="M700.8,190.8c-7.262,0-11.386-4.751-11.386-11.744v-23.4h0v-9.683h0V131.9h12.73v14.075h13.627v9.683H702.141v21.068c0,2.689,1.166,3.943,3.945,3.943h9.682V190.8Z" transform="translate(-638.48 -131.9)" fill="#dd4d0e"/>
            <path id="Path_1168" data-name="Path 1168" d="M727.1,192.709V147.882h11.476a29.154,29.154,0,0,1-3.855,13.628H740.1c1.973-9.234,5.648-14.524,15.151-14.524a21.324,21.324,0,0,1,2.69.089v13.09a49.212,49.212,0,0,0-4.931-.271c-9.144,0-13.178,3.5-13.178,15.6v17.213Z" transform="translate(-643.245 -133.808)" fill="#dd4d0e"/>
            <path id="Path_1169" data-name="Path 1169" d="M769.541,178.225V148.012h12.73v27.256c0,6.007,2.6,8.425,6.724,8.425,6.546,0,8.965-6.095,8.965-13.537V148.012h12.731v44.827H798.857c.089-3.048,1.883-6.813,4.3-10.309h-5.468c-2.152,6.364-6.725,11.744-14.166,11.744C775.009,194.274,769.541,188,769.541,178.225Z" transform="translate(-648.612 -133.937)" fill="#dd4d0e"/>
            <path id="Path_1170" data-name="Path 1170" d="M824.38,192.644V147.817h10.937c0,2.87-1.7,6.815-3.585,9.325h5.648c1.434-6.1,5.2-10.669,12.013-10.669,5.379,0,10.489,3.407,11.834,10.669h4.214c2.241-7.084,7.261-10.669,12.82-10.669,8.068,0,14.614,5.558,14.614,17.033v29.137H880.143V165.391c0-6.007-2.78-8.428-6.993-8.428-8.069,0-8.249,8.337-8.249,12.819v22.862h-12.55V165.391c0-6.007-2.779-8.428-6.993-8.428-8.069,0-8.248,8.337-8.248,12.819v22.862Z" transform="translate(-655.546 -133.743)" fill="#dd4d0e"/>
          </g>
        </g>
        <g id="Group_512" data-name="Group 512" transform="translate(260.976 19.368)">
          <line id="Line_50" data-name="Line 50" x2="34.729" y2="34.729" fill="none" stroke="#dd4d0e" stroke-width="2"/>
          <line id="Line_51" data-name="Line 51" y1="34.729" x2="34.729" fill="none" stroke="#dd4d0e" stroke-width="2"/>
        </g>
      </g>
      <g id="Group_514" data-name="Group 514" transform="translate(324.116 6.439)">
        <path id="Path_1171" data-name="Path 1171" d="M1122.7,163.585h5.585V162.54q0-10.691,0-21.382c0-1.242,0-1.247,1.211-1.247q8.236,0,16.474,0a17.989,17.989,0,0,1,10.119,2.7,13.419,13.419,0,0,1,2.324,20.492c-.117.114-.22.24-.406.445h25.452c-.315-.338-.579-.625-.847-.91a12.345,12.345,0,0,1-3.419-8.419,13.2,13.2,0,0,1,3.235-9.581,14.64,14.64,0,0,1,8.9-4.756,29.861,29.861,0,0,1,4.478-.33c5.3-.038,10.6-.016,15.9-.015,1.2,0,1.23.031,1.23,1.259q0,10.855,0,21.71v1.012a1.923,1.923,0,0,0,.4.1c1.5.007,3.006-.009,4.509.015.485.008.67-.154.7-.646a25.092,25.092,0,0,1,20.459-22.962,31.646,31.646,0,0,1,18.168,1.285c8.512,3.34,13.834,9.551,15.717,18.457a25.009,25.009,0,0,1-18.131,29.386,31.191,31.191,0,0,1-21.176-1.3,24.474,24.474,0,0,1-12.985-12.674,22.01,22.01,0,0,1-1.889-6.719c-.046-.428-.192-.63-.654-.625-1.664.018-3.328.007-5.122.007v.99q0,9.872,0,19.743c0,1.2-.031,1.227-1.261,1.228h-7.13c-1.186,0-1.224-.038-1.224-1.261q0-9.462,0-18.924v-.915c-4.411-.7-8.171.176-10.667,4.072-1.762,2.75-3.395,5.585-5.012,8.424-1.456,2.556-2.823,5.163-4.205,7.76a1.492,1.492,0,0,1-1.514.857c-2.841-.033-5.682-.009-8.523-.017-.888,0-.968-.173-.552-.952q3.286-6.164,6.562-12.334c1.629-3.05,3.266-6.095,5.915-8.619h-29.536c3.794,3.585,5.718,8.233,8.091,12.6q2.284,4.2,4.577,8.395c.114.208.2.428.356.757a9.894,9.894,0,0,1-1.041.122c-2.841.008-5.683-.01-8.523.015a1.379,1.379,0,0,1-1.386-.78c-1.673-3.091-3.35-6.179-5.057-9.25a43.594,43.594,0,0,0-5.215-8.094,8.033,8.033,0,0,0-6.844-3c-.543.038-1.092,0-1.639.007-1.36.012-1.247-.155-1.248,1.211q-.005,9.257,0,18.515c0,.218-.008.437,0,.655a.614.614,0,0,1-.692.714c-2.733.005-5.464,0-8.2.006-.488,0-.689-.245-.683-.708,0-.245,0-.491,0-.737q0-9.666,0-19.334v-1.1h-5.716c-.382,1.568-.642,3.184-1.167,4.708-2.974,8.634-8.923,14.271-17.711,16.587-9.709,2.558-18.913,1.316-26.985-5.04a23.248,23.248,0,0,1-8.814-15.712,24.837,24.837,0,0,1,7.386-21.686,24.551,24.551,0,0,1,13.412-6.845,31.858,31.858,0,0,1,17.771,1.427c8.488,3.388,13.665,9.629,15.662,18.518C1122.392,161.064,1122.5,162.313,1122.7,163.585Zm-9.876,1.37c-.111-1.138-.162-2.286-.344-3.413a15.7,15.7,0,0,0-6.321-10.587c-4.628-3.383-9.865-4.021-15.339-2.969a15.541,15.541,0,0,0-10.589,7.041,18.033,18.033,0,0,0-2.367,13.42,15.76,15.76,0,0,0,10.262,12.455,19.5,19.5,0,0,0,9.713,1.082,16.707,16.707,0,0,0,14.986-17.028Zm150.811.025c-.112-1.192-.147-2.4-.352-3.575a15.785,15.785,0,0,0-6.223-10.392c-4.634-3.423-9.894-4.073-15.4-3.037a15.556,15.556,0,0,0-9.942,6.093,17.8,17.8,0,0,0-3.025,14.432,15.7,15.7,0,0,0,10.151,12.357,19.549,19.549,0,0,0,9.785,1.126,16.7,16.7,0,0,0,15.01-17ZM1203.29,147c-.347-.016-.615-.04-.884-.038-2.209.024-4.419.027-6.627.083-3.908.1-6.375,2.41-6.706,6.237a6.622,6.622,0,0,0,5.257,7.383,11.441,11.441,0,0,0,2.49.322c2.145.045,4.29.015,6.47.015Zm-65.377,14.189c1.68,0,3.261.025,4.841-.008a19.055,19.055,0,0,0,3.819-.22c4.65-1.062,6.127-4.363,5.513-8.4-.553-3.638-3.526-4.974-6.267-5.163-2.311-.159-4.637-.065-6.954-.141-.773-.025-1.03.181-1.022.99.04,4.01.017,8.02.02,12.03C1137.864,160.54,1137.891,160.808,1137.913,161.188Z" transform="translate(-1010.42 -139.271)" fill="#dd4d0e"/>
        <path id="Path_1172" data-name="Path 1172" d="M1042.308,154.784c-.731.87-1.469,1.734-2.189,2.612q-5.845,7.119-11.685,14.242c-.854,1.039-1.677,1.033-2.56-.039q-6.063-7.365-12.112-14.74c-.577-.7-1.169-1.4-1.754-2.091l-.237.1c-.017.391-.051.781-.051,1.171q0,16.259,0,32.516c0,1.311,0,1.312-1.33,1.313q-3.525,0-7.048,0c-1.172,0-1.2-.024-1.2-1.181q0-9.461,0-18.92,0-14.211,0-28.421c0-1.339,0-1.34,1.364-1.34,2.1,0,4.207.013,6.309-.008a1.844,1.844,0,0,1,1.557.719q7.221,8.693,14.463,17.367c.43.515.846,1.044,1.344,1.661,1.4-1.668,2.713-3.226,4.018-4.791q5.9-7.075,11.783-14.163a1.937,1.937,0,0,1,1.671-.8c2.184.038,4.37.031,6.555,0,.737-.01,1,.251,1,1q-.024,23.916,0,47.832c0,.786-.268,1.057-1.047,1.047-2.512-.032-5.026-.008-7.539-.014-.971,0-1.049-.09-1.049-1.1q0-16.463,0-32.926v-.947Z" transform="translate(-1002.139 -139.361)" fill="#dd4d0e"/>
        <path id="Path_1173" data-name="Path 1173" d="M1336.351,170.988l-5.888,7.064q-4.953,5.944-9.9,11.894a1.813,1.813,0,0,1-1.545.73c-2.158-.03-4.315-.01-6.473-.011-1.1,0-1.15-.04-1.15-1.151q0-14.579,0-29.158,0-9.091,0-18.182c0-1.276.011-1.283,1.265-1.284h7.047c1.249,0,1.266.019,1.266,1.3v33.549l.2.1a5.532,5.532,0,0,0,.6-.542q4.093-4.956,8.173-9.921l5.259-6.383c.816-.99,1.6-1.006,2.429,0q4.922,5.971,9.824,11.956,1.871,2.276,3.765,4.535a5.637,5.637,0,0,0,.6.5v-1.116q0-16.34,0-32.679c0-1.278.018-1.3,1.272-1.3h7.047c1.293,0,1.3.011,1.3,1.346v16.626q0,15.275,0,30.549c0,1.217-.036,1.254-1.232,1.254-2.131,0-4.261-.021-6.391.013a1.912,1.912,0,0,1-1.631-.742q-7.4-8.913-14.822-17.812C1337.076,171.772,1336.757,171.44,1336.351,170.988Z" transform="translate(-1041.242 -139.475)" fill="#dd4d0e"/>
        <path id="Path_1174" data-name="Path 1174" d="M1362.944,214.884a2.311,2.311,0,0,0,3.405,2.29c.147-.064.255-.23.4-.272a5.108,5.108,0,0,1,.752-.111c-.074.273-.062.634-.236.808a3.367,3.367,0,0,1-5.132-1.035c-.551-1.206-.487-3.791.734-4.9a3.045,3.045,0,0,1,2.994-.794,2.772,2.772,0,0,1,1.946,2.117,5.419,5.419,0,0,1,.12.557c.2,1.042-.034,1.332-1.1,1.335C1365.552,214.887,1364.277,214.884,1362.944,214.884Zm.129-.971h3.587c.185-1.274-.405-2.1-1.505-2.182C1363.911,211.643,1363.1,212.44,1363.073,213.914Z" transform="translate(-1047.616 -148.31)" fill="#dd4d0e"/>
        <path id="Path_1175" data-name="Path 1175" d="M1162.477,214.884a2.1,2.1,0,0,0,1.074,2.27,2.323,2.323,0,0,0,2.483-.1c.046-.029.084-.087.131-.094.266-.039.534-.066.8-.1-.09.273-.1.644-.286.806a3.379,3.379,0,0,1-5.276-1.579,4.982,4.982,0,0,1,.209-3.436,3.166,3.166,0,0,1,3.642-1.794,3.093,3.093,0,0,1,2.127,3.292c-.052.632-.423.743-.948.738C1165.129,214.877,1163.823,214.884,1162.477,214.884Zm.04-1a2.126,2.126,0,0,0,.352.072c.922.008,1.844,0,2.766.017.632.013.735-.272.57-.818a1.769,1.769,0,0,0-2.132-1.4A2.011,2.011,0,0,0,1162.517,213.887Z" transform="translate(-1022.25 -148.31)" fill="#dd4d0e"/>
        <path id="Path_1176" data-name="Path 1176" d="M1044.273,214.6a3.591,3.591,0,0,1,2.537-3.738c2.152-.488,3.959.964,4.146,3.331a3.726,3.726,0,0,1-2.2,3.98C1046.318,218.985,1044.259,217.345,1044.273,214.6Zm5.5.235c-.026-.51-.02-.812-.06-1.109a2.154,2.154,0,0,0-1.939-1.989,1.957,1.957,0,0,0-2.156,1.6,8.179,8.179,0,0,0,0,2.505,1.949,1.949,0,0,0,1.756,1.578,1.894,1.894,0,0,0,2.153-1.357A7.435,7.435,0,0,0,1049.768,214.83Z" transform="translate(-1007.466 -148.31)" fill="#dd4d0e"/>
        <path id="Path_1177" data-name="Path 1177" d="M1209.161,216.2a5.532,5.532,0,0,1-.41.935,2.9,2.9,0,0,1-3.026,1.164,2.816,2.816,0,0,1-2.312-1.852,4.741,4.741,0,0,1,.16-4.1,3.076,3.076,0,0,1,5.28-.231c.073.114.186.242.179.357a5.672,5.672,0,0,1-.145.789c-.269-.118-.648-.163-.785-.37-.39-.589-.765-1.11-1.556-1.164a1.917,1.917,0,0,0-2.229,1.838,13.05,13.05,0,0,0,0,1.958,2.1,2.1,0,0,0,1.384,1.85,1.951,1.951,0,0,0,2.274-.865C1208.342,215.989,1208.342,215.989,1209.161,216.2Z" transform="translate(-1027.539 -148.306)" fill="#dd4d0e"/>
        <path id="Path_1178" data-name="Path 1178" d="M1002.695,214.6c.071-1.178.04-2.29,1.087-3.147,1.467-1.2,4.017-.755,4.663.916.1.252-.067.6-.11.909-.276-.145-.687-.22-.8-.446a1.838,1.838,0,0,0-1.994-1.09,1.662,1.662,0,0,0-1.631,1.461,10.33,10.33,0,0,0,.029,2.884,1.594,1.594,0,0,0,1.478,1.326,1.992,1.992,0,0,0,2.06-.858c.167-.242.586-.308.89-.454-.031.335.056.75-.11.991a3.052,3.052,0,0,1-5.092-.147A7.74,7.74,0,0,1,1002.695,214.6Z" transform="translate(-1002.209 -148.311)" fill="#dd4d0e"/>
        <path id="Path_1179" data-name="Path 1179" d="M1323.445,216.411q.744-2.276,1.489-4.553c.076-.231.1-.541.267-.664a1.28,1.28,0,0,1,.79-.178.8.8,0,0,1,.153.6q-1.093,3.111-2.26,6.193a.812.812,0,0,1-.6.393.7.7,0,0,1-.541-.363q-1.182-3.162-2.292-6.351a.711.711,0,0,1,.189-.5c.267.038.652.076.757.255a7.773,7.773,0,0,1,.556,1.436c.427,1.25.846,2.5,1.267,3.755Z" transform="translate(-1042.386 -148.339)" fill="#dd4d0e"/>
        <path id="Path_1180" data-name="Path 1180" d="M1246.728,210.335l1.211.712-1.2.8c0,1.384-.032,3.016.035,4.646.01.235.492.451.754.677.182.156.363.314.544.47-.194.146-.373.388-.584.419a1.461,1.461,0,0,1-1.865-1.347,28.1,28.1,0,0,1-.115-3.018c-.015-.679,0-1.357,0-1.861l-1.222-.793,1.024-.591.2.129a4.08,4.08,0,0,1,.025-1.105c.073-.25.376-.433.577-.646.2.211.505.391.585.642A2.528,2.528,0,0,1,1246.728,210.335Z" transform="translate(-1032.757 -148.066)" fill="#dd4d0e"/>
        <path id="Path_1181" data-name="Path 1181" d="M1125.685,212.687q0,2.124,0,4.248c0,.428,0,.847-.6.859s-.626-.4-.626-.832q0-4.37,0-8.741c0-.425.027-.881.595-.881.613,0,.629.479.628.936Q1125.683,210.482,1125.685,212.687Z" transform="translate(-1017.605 -147.877)" fill="#dd4d0e"/>
        <path id="Path_1182" data-name="Path 1182" d="M1088.458,212.552c0,1.472.007,2.943-.005,4.415,0,.366.059.809-.527.824s-.641-.369-.64-.818q.005-4.374,0-8.748c0-.438.046-.869.6-.886.616-.019.563.485.567.881C1088.466,209.663,1088.458,211.108,1088.458,212.552Z" transform="translate(-1012.905 -147.877)" fill="#dd4d0e"/>
        <path id="Path_1183" data-name="Path 1183" d="M1283.948,214.543c0-.952-.04-1.907.024-2.855.018-.266.339-.511.521-.766.176.26.5.518.506.783q.065,2.895,0,5.793c-.005.249-.34.489-.522.734-.177-.25-.488-.492-.5-.751C1283.911,216.5,1283.948,215.522,1283.948,214.543Z" transform="translate(-1037.77 -148.33)" fill="#dd4d0e"/>
        <path id="Path_1184" data-name="Path 1184" d="M1285.464,208.53c-.482.275-.757.56-.971.52s-.4-.393-.592-.609c.208-.176.416-.49.625-.491C1284.762,207.948,1285,208.227,1285.464,208.53Z" transform="translate(-1037.765 -147.955)" fill="#dd4d0e"/>
      </g>
    </g>
  </g>
</svg>
