<svg xmlns="http://www.w3.org/2000/svg" width="62.336" height="55.459" viewBox="0 0 62.336 55.459"><defs><style>.a{fill:#fff;}</style></defs><path class="a" d="M31.168,55.46a3.655,3.655,0,0,1-2.41-.906c-2.518-2.2-4.946-4.271-7.088-6.1l-.011-.01c-6.28-5.352-11.7-9.974-15.477-14.526C1.965,28.832,0,24.006,0,18.734A19.483,19.483,0,0,1,4.945,5.427,16.763,16.763,0,0,1,17.414,0a15.68,15.68,0,0,1,9.794,3.381,20.039,20.039,0,0,1,3.96,4.135,20.04,20.04,0,0,1,3.96-4.135A15.68,15.68,0,0,1,44.923,0,16.763,16.763,0,0,1,57.392,5.427a19.483,19.483,0,0,1,4.945,13.307c0,5.272-1.964,10.1-6.182,15.187-3.773,4.553-9.2,9.175-15.475,14.526-2.146,1.828-4.578,3.9-7.1,6.108a3.658,3.658,0,0,1-2.409.9ZM17.414,3.652A13.151,13.151,0,0,0,7.629,7.9,15.849,15.849,0,0,0,3.651,18.734c0,4.434,1.648,8.4,5.343,12.858,3.571,4.309,8.883,8.836,15.033,14.077l.011.01c2.15,1.832,4.588,3.91,7.124,6.128,2.552-2.222,4.993-4.3,7.148-6.138,6.15-5.241,11.461-9.767,15.032-14.076,3.694-4.458,5.342-8.424,5.342-12.858A15.849,15.849,0,0,0,54.707,7.9a13.15,13.15,0,0,0-9.784-4.251,12.111,12.111,0,0,0-7.561,2.618,17.719,17.719,0,0,0-4.214,4.876,2.3,2.3,0,0,1-3.96,0,17.7,17.7,0,0,0-4.214-4.876,12.11,12.11,0,0,0-7.56-2.618Zm0,0" transform="translate(0 0)"/></svg>