<svg xmlns="http://www.w3.org/2000/svg" width="55.458" height="55.459" viewBox="0 0 55.458 55.459"><defs><style>.a{fill:#fff;}</style></defs><g transform="translate(0 -0.001)"><path class="a" d="M31.775,18.5H4.044A4.049,4.049,0,0,0,0,22.544v4.622A4.049,4.049,0,0,0,4.044,31.21H31.775a4.049,4.049,0,0,0,4.044-4.044V22.544A4.049,4.049,0,0,0,31.775,18.5Zm.578,8.666a.578.578,0,0,1-.578.578H4.044a.578.578,0,0,1-.578-.578V22.544a.578.578,0,0,1,.578-.578H31.775a.578.578,0,0,1,.578.578Z" transform="translate(0 24.25)"/><path class="a" d="M30.863,21.832a16.04,16.04,0,0,0,2.574-4.051c.016,0,.032,0,.046,0a4.01,4.01,0,0,0,2.847-1.179l1.622-1.62a4.031,4.031,0,0,0,0-5.7L29.842,1.18a4.028,4.028,0,0,0-5.694,0L22.526,2.8a4,4,0,0,0-1.174,2.877,11.028,11.028,0,0,0-1.779.945,36.591,36.591,0,0,0-9.452,9.456,10.688,10.688,0,0,0-.941,1.768A4.021,4.021,0,0,0,6.3,19.022l-1.62,1.625a4.022,4.022,0,0,0,0,5.694l8.111,8.111a4.028,4.028,0,0,0,5.694,0l1.622-1.622a4.009,4.009,0,0,0,1.174-2.889,11.161,11.161,0,0,0,1.77-.927,24.411,24.411,0,0,0,2.267-1.668C31.159,34.147,39.5,43.319,41,44.819c1.326,1.326,3.062,2.565,4.915,2.565a4.729,4.729,0,0,0,3.39-1.576,4.811,4.811,0,0,0,1.544-2.953c.171-1.7-.682-3.5-2.533-5.352-1.479-1.486-10.63-9.812-17.452-15.67ZM24.975,5.251,26.6,3.629a.563.563,0,0,1,.795,0L35.5,11.74a.562.562,0,0,1,0,.795l-1.622,1.62a.566.566,0,0,1-.795,0L24.975,6.044a.564.564,0,0,1,0-.793ZM17.657,30.378,16.034,32a.568.568,0,0,1-.793,0L7.13,23.889a.556.556,0,0,1-.164-.4.564.564,0,0,1,.164-.4l1.622-1.622a.563.563,0,0,1,.795,0l8.111,8.111a.561.561,0,0,1,0,.793Zm2.147-3.55-7.5-7.5C12.917,16.808,20.31,9.413,22.828,8.8l7.5,7.5C29.722,18.8,22.32,26.216,19.8,26.828Zm27.054,16.53c-.511.513-1.211,1.2-3.406-.991-1.3-1.3-9.535-10.325-15.555-17.341.1-.1.527-.518.633-.626,7.039,6.038,16.052,14.268,17.336,15.55,1.47,1.47,1.562,2.276,1.534,2.556A1.485,1.485,0,0,1,46.857,43.358Z" transform="translate(4.588 0)"/></g></svg>