<svg xmlns="http://www.w3.org/2000/svg" width="34.872" height="34.873" viewBox="0 0 34.872 34.873"><g transform="translate(0)"><path d="M19.98,18.5H2.543A2.546,2.546,0,0,0,0,21.043v2.906a2.546,2.546,0,0,0,2.543,2.543H19.98a2.546,2.546,0,0,0,2.543-2.543V21.043A2.546,2.546,0,0,0,19.98,18.5Zm.363,5.449a.363.363,0,0,1-.363.363H2.543a.363.363,0,0,1-.363-.363V21.043a.363.363,0,0,1,.363-.363H19.98a.363.363,0,0,1,.363.363Z" transform="translate(0 8.381)"/><path d="M20.706,13.728a10.086,10.086,0,0,0,1.619-2.547c.01,0,.02,0,.029,0a2.521,2.521,0,0,0,1.79-.741l1.02-1.019a2.535,2.535,0,0,0,0-3.582l-5.1-5.1a2.533,2.533,0,0,0-3.58,0l-1.02,1.02a2.517,2.517,0,0,0-.738,1.809,6.935,6.935,0,0,0-1.119.594,23.008,23.008,0,0,0-5.943,5.946,6.721,6.721,0,0,0-.591,1.112,2.528,2.528,0,0,0-1.811.738L4.243,12.983a2.529,2.529,0,0,0,0,3.58l5.1,5.1a2.533,2.533,0,0,0,3.58,0l1.02-1.02a2.521,2.521,0,0,0,.738-1.816,7.018,7.018,0,0,0,1.113-.583A15.351,15.351,0,0,0,17.22,17.2c3.672,4.276,8.918,10.044,9.859,10.987A4.7,4.7,0,0,0,30.17,29.8,2.974,2.974,0,0,0,32.3,28.8a3.025,3.025,0,0,0,.971-1.857,4.313,4.313,0,0,0-1.593-3.365c-.93-.934-6.684-6.17-10.974-9.853ZM17,3.3l1.02-1.02a.354.354,0,0,1,.5,0l5.1,5.1a.353.353,0,0,1,0,.5L22.6,8.9a.356.356,0,0,1-.5,0L17,3.8a.354.354,0,0,1,0-.5ZM12.4,19.1l-1.02,1.02a.357.357,0,0,1-.5,0l-5.1-5.1a.35.35,0,0,1-.1-.248.355.355,0,0,1,.1-.25L6.8,13.5a.354.354,0,0,1,.5,0l5.1,5.1a.353.353,0,0,1,0,.5Zm1.35-2.232L9.035,12.153c.387-1.584,5.035-6.234,6.619-6.62L20.37,10.25c-.382,1.575-5.036,6.235-6.619,6.62ZM30.763,27.264c-.321.323-.761.756-2.142-.623-.815-.815-6-6.492-9.781-10.9.065-.064.331-.325.4-.394,4.426,3.8,10.093,8.971,10.9,9.778.924.924.982,1.431.965,1.607A.934.934,0,0,1,30.763,27.264Z" transform="translate(1.586 -0.001)"/></g></svg>