<svg xmlns="http://www.w3.org/2000/svg" width="31.333" height="42.217" viewBox="0 0 31.333 42.217"><defs><style>.a{fill:#020202;}</style></defs><g transform="translate(-0.5)"><path class="a" d="M40.5,52.368A12.368,12.368,0,1,0,52.868,40,12.382,12.382,0,0,0,40.5,52.368ZM52.868,41.649A10.719,10.719,0,1,1,42.149,52.368,10.731,10.731,0,0,1,52.868,41.649Zm0,0" transform="translate(-36.702 -36.702)"/><path class="a" d="M95.154,99.4l3.2,3.149-.735,4.426a.825.825,0,0,0,1.193.867l3.982-2.068,3.982,2.068a.825.825,0,0,0,1.193-.867l-.735-4.426,3.2-3.149a.824.824,0,0,0-.456-1.4l-4.436-.668-2.007-4.014a.824.824,0,0,0-1.475,0l-2.007,4.014L95.611,98a.824.824,0,0,0-.456,1.4Zm5.561-.5a.825.825,0,0,0,.615-.446l1.461-2.922,1.461,2.922a.825.825,0,0,0,.615.446l3.228.486-2.326,2.292a.826.826,0,0,0-.235.723l.535,3.221-2.9-1.5a.824.824,0,0,0-.76,0l-2.9,1.5.535-3.221a.824.824,0,0,0-.235-.723l-2.326-2.292Zm0,0" transform="translate(-86.624 -85.203)"/><path class="a" d="M182.149.825A.825.825,0,1,1,181.325,0,.824.824,0,0,1,182.149.825Zm0,0" transform="translate(-165.158)"/><path class="a" d="M12.28,5.607A15.668,15.668,0,0,0,5.657,32.4L.69,41.159a.825.825,0,0,0,.885,1.214L7.216,41.2,9.2,46.789a.824.824,0,0,0,1.494.132L16.166,37.3l5.474,9.624a.824.824,0,0,0,.716.417l.073,0a.826.826,0,0,0,.7-.546L25.117,41.2l5.641,1.171a.825.825,0,0,0,.885-1.214L26.675,32.4a15.668,15.668,0,0,0-6.623-26.8.825.825,0,0,0-.408,1.6,14.017,14.017,0,1,1-6.956,0,.825.825,0,1,0-.408-1.6ZM10.15,44.539,8.53,39.972a.825.825,0,0,0-.945-.532l-4.562.947,3.931-6.929a15.7,15.7,0,0,0,7.829,2.933Zm14.6-5.1a.825.825,0,0,0-.945.532l-1.62,4.566-4.634-8.147a15.7,15.7,0,0,0,7.829-2.933l3.931,6.929Zm0,0" transform="translate(0 -5.121)"/></g></svg>