<svg xmlns="http://www.w3.org/2000/svg" width="24" height="19" viewBox="0 0 24 19">
    <path fill="#000" fill-rule="evenodd" d="M.288 1.822C.192 1.71.12 1.592.072 1.47.024 1.348 0 1.207 0 1.045 0 .899.024.76.072.632.12.502.192.389.288.292.384.194.496.122.625.072.753.025.889 0 1.033 0h21.934c.144 0 .28.024.408.073.129.048.24.121.337.219.096.097.168.21.216.34.048.13.072.267.072.413 0 .162-.024.303-.072.425-.048.121-.12.239-.216.352-.096.097-.208.17-.337.219-.128.049-.264.073-.408.073H1.033c-.144 0-.28-.024-.408-.073-.129-.049-.24-.122-.337-.219zm23.424 6.925c.096.097.168.21.216.34.048.13.072.267.072.413 0 .146-.024.283-.072.413-.048.13-.12.243-.216.34-.096.097-.208.17-.337.219-.128.048-.264.073-.408.073H1.033c-.144 0-.28-.025-.408-.073-.129-.049-.24-.122-.337-.219-.096-.097-.168-.21-.216-.34C.024 9.783 0 9.646 0 9.5c0-.146.024-.283.072-.413.048-.13.12-.243.216-.34.096-.097.208-.17.337-.219.128-.048.264-.073.408-.073h21.934c.144 0 .28.025.408.073.129.049.24.122.337.219zm0 8.43c.096.098.168.211.216.34.048.13.072.268.072.414 0 .162-.024.304-.072.425-.048.122-.12.24-.216.352-.096.098-.208.17-.337.22-.128.048-.264.072-.408.072H1.033c-.144 0-.28-.024-.408-.073-.129-.048-.24-.121-.337-.219-.096-.113-.168-.23-.216-.352-.048-.121-.072-.263-.072-.425 0-.146.024-.284.072-.413.048-.13.12-.243.216-.34.096-.097.208-.17.337-.219.128-.049.264-.073.408-.073h21.934c.144 0 .28.024.408.073.129.049.24.122.337.219z"/>
</svg>
