<svg xmlns="http://www.w3.org/2000/svg" width="32.036" height="32.036" viewBox="0 0 32.036 32.036"><g transform="translate(0 0)"><g transform="translate(17.27 0)"><path d="M285.761,0h-4.755A5.011,5.011,0,0,0,276,5.006V9.761a5.011,5.011,0,0,0,5.006,5.006h4.755a5.011,5.011,0,0,0,5.006-5.006V5.006A5.011,5.011,0,0,0,285.761,0Zm2.5,9.761a2.506,2.506,0,0,1-2.5,2.5h-4.755a2.506,2.506,0,0,1-2.5-2.5V5.006a2.506,2.506,0,0,1,2.5-2.5h4.755a2.506,2.506,0,0,1,2.5,2.5Z" transform="translate(-276 0)"/></g><g transform="translate(0 0)"><path d="M9.761,0H5.006A5.011,5.011,0,0,0,0,5.006V9.761a5.011,5.011,0,0,0,5.006,5.006H9.761a5.011,5.011,0,0,0,5.006-5.006V5.006A5.011,5.011,0,0,0,9.761,0Zm2.5,9.761a2.506,2.506,0,0,1-2.5,2.5H5.006a2.506,2.506,0,0,1-2.5-2.5V5.006a2.506,2.506,0,0,1,2.5-2.5H9.761a2.506,2.506,0,0,1,2.5,2.5Z" transform="translate(0 0)"/></g><g transform="translate(0 17.27)"><path d="M9.761,276H5.006A5.011,5.011,0,0,0,0,281.006v4.755a5.011,5.011,0,0,0,5.006,5.006H9.761a5.011,5.011,0,0,0,5.006-5.006v-4.755A5.011,5.011,0,0,0,9.761,276Zm2.5,9.761a2.506,2.506,0,0,1-2.5,2.5H5.006a2.506,2.506,0,0,1-2.5-2.5v-4.755a2.506,2.506,0,0,1,2.5-2.5H9.761a2.506,2.506,0,0,1,2.5,2.5Z" transform="translate(0 -276)"/></g><g transform="translate(17.27 17.27)"><path d="M289.515,284.51a1.251,1.251,0,0,0-1.251,1.251,2.506,2.506,0,0,1-2.5,2.5h-4.755a2.506,2.506,0,0,1-2.5-2.5v-4.755a2.506,2.506,0,0,1,2.5-2.5h4.755a2.5,2.5,0,0,1,2.295,1.5,1.251,1.251,0,1,0,2.293-1,5.007,5.007,0,0,0-4.588-3h-4.755A5.011,5.011,0,0,0,276,281.006v4.755a5.011,5.011,0,0,0,5.006,5.006h4.755a5.011,5.011,0,0,0,5.006-5.006A1.251,1.251,0,0,0,289.515,284.51Z" transform="translate(-276 -276)"/></g></g></svg>