<svg xmlns="http://www.w3.org/2000/svg" width="38" height="38" viewBox="0 0 38 38"><defs><style>.a{fill:#b2cad6;}</style></defs><g transform="translate(-1287.698 -1743.698)"><circle class="a" cx="19" cy="19" r="19" transform="translate(1287.698 1743.698)"/><g transform="translate(1299.109 1752.292)"><path d="M100.181,164.633a6.522,6.522,0,0,1-1.283-3.127h3.971v15.4H98.913a6.122,6.122,0,0,1,1.252-3.106c-.578,0-1.1-.018-1.616.014-.114.007-.239.172-.322.291a14,14,0,0,1-1.215,1.761,4.541,4.541,0,0,1-4.458,1.443,4.643,4.643,0,0,1-2.457-1.616,9.713,9.713,0,0,1,.209-13.2,4.509,4.509,0,0,1,7.11.512c.308.424.537.905.837,1.336a.716.716,0,0,0,.462.282C99.178,164.657,99.644,164.633,100.181,164.633Zm-8.78,4.8c.032.321.056.879.148,1.425a3.882,3.882,0,0,0,1.231,2.456,3.477,3.477,0,0,0,5.429-1.417,7.616,7.616,0,0,0,.4-3.8,4.98,4.98,0,0,0-.782-2.3,3.267,3.267,0,0,0-3.147-1.445,3.063,3.063,0,0,0-2.737,1.893A7.875,7.875,0,0,0,91.4,169.43Z" transform="translate(-87.614 -156.618)"/><path d="M113.3,138.665v2.944H100.575v-2.944Z" transform="translate(-98.046 -138.665)"/></g></g></svg>