<svg xmlns="http://www.w3.org/2000/svg" width="32.571" height="38.193" viewBox="0 0 32.571 38.193"><g transform="translate(-37.681 0)"><g transform="translate(37.681 0)"><g transform="translate(0 0)"><path d="M69.661,6.595A63.532,63.532,0,0,1,54.375.111a.8.8,0,0,0-.817,0A61.792,61.792,0,0,1,38.272,6.595a.8.8,0,0,0-.591.775v8.209a23.616,23.616,0,0,0,7.171,17.254c3.522,3.451,7.625,5.36,9.114,5.36s5.592-1.909,9.114-5.36a23.616,23.616,0,0,0,7.171-17.254V7.37A.8.8,0,0,0,69.661,6.595Zm-1.016,8.984a22.041,22.041,0,0,1-6.689,16.107c-3.464,3.394-7.167,4.9-7.99,4.9s-4.526-1.507-7.99-4.9a22.041,22.041,0,0,1-6.689-16.107V7.98A63.273,63.273,0,0,0,53.967,1.734,65.275,65.275,0,0,0,68.645,7.979Z" transform="translate(-37.681 0)"/><path d="M86.31,99.452A.8.8,0,0,0,85.268,99c-1.435.566-2.908,1.086-4.378,1.547a.8.8,0,0,0-.563.767v3.1a.8.8,0,1,0,1.607,0V101.9c1.319-.427,2.636-.9,3.924-1.406A.8.8,0,0,0,86.31,99.452Z" transform="translate(-77.146 -91.562)"/><path d="M171.008,87.817a.8.8,0,0,0,.322-.068l.015-.006a.8.8,0,1,0-.649-1.47l-.013.006a.8.8,0,0,0,.325,1.538Z" transform="translate(-160.317 -79.774)"/><path d="M309.372,345.659a.8.8,0,0,0-1.112.233,19.553,19.553,0,0,1-2.309,2.884,20.519,20.519,0,0,1-2.3,2.05.8.8,0,1,0,.974,1.278,22.147,22.147,0,0,0,2.485-2.211,21.141,21.141,0,0,0,2.5-3.122A.8.8,0,0,0,309.372,345.659Z" transform="translate(-283.514 -319.753)"/><path d="M277.011,432.076l-.046.027a.8.8,0,1,0,.8,1.39l.053-.031a.8.8,0,1,0-.812-1.386Z" transform="translate(-258.744 -399.743)"/><path d="M127.28,160.523a2.613,2.613,0,0,0-3.695,3.695l4.744,4.744a2.613,2.613,0,0,0,3.695,0l9.9-9.9a2.613,2.613,0,0,0-3.695-3.695l-8.056,8.056Zm12.089-4.023a1.006,1.006,0,1,1,1.422,1.422l-9.9,9.9a1.006,1.006,0,0,1-1.422,0l-4.744-4.744a1.006,1.006,0,0,1,1.422-1.422l3.465,3.465a.8.8,0,0,0,1.136,0Z" transform="translate(-116.47 -143.067)"/></g></g></g></svg>