<svg xmlns="http://www.w3.org/2000/svg" width="39.621" height="39.602" viewBox="0 0 39.621 39.602">
  <g id="wallet" transform="translate(0 -0.121)">
    <path id="Path_1134" data-name="Path 1134" d="M37.3,19.089V14.418a4.261,4.261,0,0,0-4.1-4.252V7.3A2.712,2.712,0,0,0,30.49,4.59H23.033L22.07,1.914A2.708,2.708,0,0,0,18.6.286L5.064,5.21A2.709,2.709,0,0,0,3.447,8.687l.544,1.484A4.261,4.261,0,0,0,0,14.418V35.467a4.261,4.261,0,0,0,4.256,4.256H33.043A4.261,4.261,0,0,0,37.3,35.467V30.641a2.712,2.712,0,0,0,2.322-2.68V21.77A2.712,2.712,0,0,0,37.3,19.089Zm0,8.871a.387.387,0,0,1-.387.387H30.722a3.482,3.482,0,0,1,0-6.965h6.191a.387.387,0,0,1,.387.387ZM5.627,7.889a.387.387,0,0,1,.231-.5L19.389,2.467a.387.387,0,0,1,.5.233l.68,1.891h-.523A2.712,2.712,0,0,0,17.334,7.3v2.863H6.46ZM30.877,7.3v2.863H19.656V7.3a.387.387,0,0,1,.387-.387H30.49A.387.387,0,0,1,30.877,7.3Zm2.167,30.1H4.256a1.937,1.937,0,0,1-1.935-1.935V14.418a1.937,1.937,0,0,1,1.935-1.935H33.043a1.937,1.937,0,0,1,1.935,1.935v4.643H30.722a5.8,5.8,0,0,0,0,11.608h4.256v4.8A1.937,1.937,0,0,1,33.043,37.4Z" transform="translate(0 0)" fill="#fff"/>
    <circle id="Ellipse_41" data-name="Ellipse 41" cx="1.161" cy="1.161" r="1.161" transform="translate(29.561 23.704)" fill="#fff"/>
  </g>
</svg>
