<svg xmlns="http://www.w3.org/2000/svg" width="287.15" height="77.071" viewBox="0 0 287.15 77.071">
  <g id="Group_531" data-name="Group 531" transform="translate(-77.523 -2014.869)">
    <g id="Group_529" data-name="Group 529" transform="translate(149.241 2014.869)">
      <path id="Path_1230" data-name="Path 1230" d="M291.712,2144.175v.836h-8.68v-14h-13.42v14h-8.719V2113.16h15.476q7.007,0,11.028,1.812t4.021,6.749q0,4.181-2.946,6.092a17.794,17.794,0,0,1-8.2,2.349c.621.1,11.442.085,11.442.085Zm-15.463-14.851a7.128,7.128,0,0,0,5.036-1.712q1.852-1.711,1.852-5.893t-1.852-5.892a7.128,7.128,0,0,0-5.036-1.712h-6.637v15.209Z" transform="translate(-251.616 -2069.744)"/>
      <path id="Path_1231" data-name="Path 1231" d="M286.155,2016.673l-8.162,31.851H268.2l-4.937-16.875-4.134,16.875h-9.96s-8.826-31.028-9.277-31.851h9.795c.053.982,7.883,30.419,7.883,30.419l5.056-18.952-3.7-11.467h9.794l7.883,30.419,7.8-30.419Z" transform="translate(-239.89 -2015.876)"/>
      <path id="Path_1232" data-name="Path 1232" d="M354.068,2046.343a16.077,16.077,0,0,1,0-29.482,25.923,25.923,0,0,1,19.927,0,16.115,16.115,0,0,1,6.927,5.773,17.206,17.206,0,0,1,0,17.957,15.983,15.983,0,0,1-6.927,5.753,26.169,26.169,0,0,1-19.927,0Zm15.866-1.115a12.748,12.748,0,0,0,3.523-5.694,27.831,27.831,0,0,0,0-15.866,12.749,12.749,0,0,0-3.523-5.713,9.216,9.216,0,0,0-11.786,0,12.741,12.741,0,0,0-3.523,5.713,27.831,27.831,0,0,0,0,15.866,12.74,12.74,0,0,0,3.523,5.694,9.217,9.217,0,0,0,11.786,0Z" transform="translate(-298.367 -2014.869)"/>
      <path id="Path_1233" data-name="Path 1233" d="M440.54,2016.673h9.953l15.487,29.821-.2-29.821h1.792v31.851H457.62L442.132,2018.7l.2,29.821H440.54Z" transform="translate(-351.912 -2015.876)"/>
      <path id="Path_1234" data-name="Path 1234" d="M511.568,2016.673h15.958q8.48,0,13.238,3.981t4.758,11.945q0,7.724-4.758,11.825t-13.238,4.1H511.568Zm22.587,27.054q2.528-3.842,2.528-11.128,0-7.524-2.508-11.248a7.914,7.914,0,0,0-6.928-3.723h-6.961v29.94h6.961A7.867,7.867,0,0,0,534.155,2043.726Z" transform="translate(-391.567 -2015.876)"/>
      <path id="Path_1235" data-name="Path 1235" d="M618.8,2018.494H605.181v12.432h9.874v1.752h-9.874v12.292l13.616-.069v3.623H596.462v-31.851h22.344Z" transform="translate(-438.963 -2015.876)"/>
      <path id="Path_1236" data-name="Path 1236" d="M688.666,2047.688v.835h-8.68v-14h-13.42v14h-8.719v-31.851h15.476q7.007,0,11.028,1.812t4.021,6.748q0,4.181-2.946,6.092a17.794,17.794,0,0,1-8.2,2.349c.621.1,11.442.085,11.442.085ZM673.2,2032.837a7.128,7.128,0,0,0,5.036-1.712q1.852-1.712,1.852-5.893t-1.852-5.892a7.131,7.131,0,0,0-5.036-1.712h-6.637v15.209Z" transform="translate(-473.234 -2015.876)"/>
      <path id="Path_1237" data-name="Path 1237" d="M349.216,2142.831a16.077,16.077,0,0,1,0-29.482,25.921,25.921,0,0,1,19.927,0,16.115,16.115,0,0,1,6.927,5.773,17.2,17.2,0,0,1,0,17.956,15.984,15.984,0,0,1-6.927,5.753,26.173,26.173,0,0,1-19.927,0Zm15.866-1.115a12.747,12.747,0,0,0,3.523-5.694,27.83,27.83,0,0,0,0-15.866,12.751,12.751,0,0,0-3.523-5.713,9.215,9.215,0,0,0-11.786,0,12.748,12.748,0,0,0-3.523,5.713,27.84,27.84,0,0,0,0,15.866,12.743,12.743,0,0,0,3.523,5.694,9.217,9.217,0,0,0,11.786,0Z" transform="translate(-295.658 -2068.738)"/>
      <path id="Path_1238" data-name="Path 1238" d="M446.384,2142.831a16.076,16.076,0,0,1,0-29.482,23.955,23.955,0,0,1,9.755-1.99h49.606a23.717,23.717,0,0,1,9.68,1.99,16.119,16.119,0,0,1,6.928,5.773,17.207,17.207,0,0,1,0,17.956,15.988,15.988,0,0,1-6.928,5.753,23.731,23.731,0,0,1-9.267,1.963c-.221,0-49.558.007-49.782.007s-.434,0-.648-.007A23.941,23.941,0,0,1,446.384,2142.831Zm64.981-1.115a12.743,12.743,0,0,0,3.524-5.694,27.83,27.83,0,0,0,0-15.866,12.748,12.748,0,0,0-3.524-5.713,8.4,8.4,0,0,0-5.637-2.128c-.078,0-49.272,0-49.351,0s-.183,0-.274,0a8.433,8.433,0,0,0-5.638,2.127,12.744,12.744,0,0,0-3.523,5.713,27.831,27.831,0,0,0,0,15.866,12.739,12.739,0,0,0,3.523,5.694,8.342,8.342,0,0,0,5.271,2.113q.315.018.641.017c.225,0,49.561-.007,49.78-.019A8.3,8.3,0,0,0,511.365,2141.716Z" transform="translate(-349.907 -2068.738)"/>
      <path id="Path_1239" data-name="Path 1239" d="M644.422,2113.161h9.755l9.4,21.659,8.68-21.659h8.919v31.852h-8.68v-29.94l-12.024,30.737h-1.513l-12.581-30.538v29.741h-1.951Z" transform="translate(-465.739 -2069.745)"/>
    </g>
    <g id="Group_530" data-name="Group 530" transform="translate(77.523 2015.673)">
      <path id="Path_1240" data-name="Path 1240" d="M77.523,2062.72c.046-13.953,9.646-29.008,20.3-29.97,4.959-.442,9.669,2.2,10.3,2.569,4.61,2.739,7.008,7.17,8.808,10.779h6.79c-2.266-3.282-4.865-7.582-4.865-11.539h14.589v56.54H118.853c0-3.958,2.6-8.257,4.865-11.532h-6.79c-1.8,3.6-4.2,8.032-8.808,10.772-.621.372-5.347,3.018-10.3,2.568-10.678-.962-20.34-16.125-20.3-30.187m9.172-46.026h46.747v10.857H86.7Zm31.367,46.134c0-11.981-5.541-17.864-13.456-17.864-7.465,0-13.231,4.632-13.231,17.864s5.766,17.864,13.231,17.864c7.915,0,13.456-5.883,13.456-17.864" transform="translate(-77.523 -2016.693)"/>
      <rect id="Rectangle_950" data-name="Rectangle 950" width="55.912" height="76.267" transform="translate(0.004)" fill="none"/>
    </g>
  </g>
</svg>
