<?xml version="1.0" standalone="no"?>
<!DOCTYPE svg PUBLIC "-//W3C//DTD SVG 1.1//EN" "http://www.w3.org/Graphics/SVG/1.1/DTD/svg11.dtd" >
<svg xmlns="http://www.w3.org/2000/svg" xmlns:xlink="http://www.w3.org/1999/xlink" version="1.1">
<metadata>
Created by FontForge 20201107 at Wed Jul 29 18:55:23 2020
 By Jimmy Wärting
Copyright 2020 The Anybody Project Authors https:github.comEtcetera-Type-CoAnybody
</metadata>
<defs>
<font id="Anybody-ExtraExpandedMedium" horiz-adv-x="2216" >
  <font-face 
    font-family="Anybody"
    font-weight="500"
    font-stretch="extra-expanded"
    units-per-em="2000"
    panose-1="0 0 0 0 0 0 0 0 0 0"
    ascent="1600"
    descent="-400"
    x-height="1170"
    cap-height="1350"
    bbox="-403 -540 4012 1990"
    underline-thickness="90"
    underline-position="-255"
    stemh="192"
    stemv="295"
    unicode-range="U+000D-FB02"
  />
<missing-glyph horiz-adv-x="640" 
d="M100 146v1042h348v-1042h-348zM126 172h296v990h-296v-990zM202 564l-20 20l75 76l-75 76l20 20l75 -76l75 76l20 -20l-75 -76l75 -76l-20 -20l-75 76zM202 902l-20 20l75 76l-75 76l20 20l75 -76l75 76l20 -20l-75 -76l75 -76l-20 -20l-75 76zM202 226l-20 20l75 76
l-75 76l20 20l75 -76l75 76l20 -20l-75 -76l75 -76l-20 -20l-75 76z" />
    <glyph glyph-name="f_f" unicode="ff" horiz-adv-x="2994" 
d="M461 0v978h-413v192h413c1 154 77 261 228 323c152 62 395 93 729 93h51v-180h-71c-242 0 -410 -18 -505 -55c-94 -36 -141 -97 -142 -181h579v-192h-579v-978h-290zM1908 0v978h-413v192h413c1 154 77 261 228 323c152 62 395 93 729 93h51v-180h-71
c-242 0 -410 -18 -505 -55c-94 -36 -141 -97 -142 -181h579v-192h-579v-978h-290z" />
    <glyph glyph-name="f_f_i" unicode="ffi" horiz-adv-x="3730" 
d="M461 0v978h-413v192h413c1 154 77 261 228 323c152 62 395 93 729 93h51v-180h-71c-242 0 -410 -18 -505 -55c-94 -36 -141 -97 -142 -181h579v-192h-579v-978h-290zM1908 0v978h-413v192h413c1 154 77 261 228 323c152 62 395 93 729 93h51v-180h-71
c-242 0 -410 -18 -505 -55c-94 -36 -141 -97 -142 -181h579v-192h-579v-978h-290zM3175 0v1172h291v-1172h-291zM3175 1531h291v-216h-291v216z" />
    <glyph glyph-name="f_f_l" unicode="ffl" horiz-adv-x="3699" 
d="M461 0v978h-413v192h413c1 154 77 261 228 323c152 62 395 93 729 93h51v-180h-71c-242 0 -410 -18 -505 -55c-94 -36 -141 -97 -142 -181h579v-192h-579v-978h-290zM1908 0v978h-413v192h413c1 154 77 261 228 323c152 62 395 93 729 93h51v-180h-71
c-242 0 -410 -18 -505 -55c-94 -36 -141 -97 -142 -181h579v-192h-579v-978h-290zM3175 0v1570h291v-1570h-291z" />
    <glyph glyph-name="fi" unicode="fi" horiz-adv-x="2283" 
d="M461 0v978h-413v192h413c1 154 77 261 228 323c152 62 395 93 729 93h51v-180h-71c-242 0 -410 -18 -505 -55c-94 -36 -141 -97 -142 -181h579v-192h-579v-978h-290zM1728 0v1172h291v-1172h-291zM1728 1531h291v-216h-291v216z" />
    <glyph glyph-name="fl" unicode="fl" horiz-adv-x="2252" 
d="M461 0v978h-413v192h413c1 154 77 261 228 323c152 62 395 93 729 93h51v-180h-71c-242 0 -410 -18 -505 -55c-94 -36 -141 -97 -142 -181h579v-192h-579v-978h-290zM1728 0v1570h291v-1570h-291z" />
    <glyph glyph-name=".notdef" horiz-adv-x="640" 
d="M100 146v1042h348v-1042h-348zM126 172h296v990h-296v-990zM202 564l-20 20l75 76l-75 76l20 20l75 -76l75 76l20 -20l-75 -76l75 -76l-20 -20l-75 76zM202 902l-20 20l75 76l-75 76l20 20l75 -76l75 76l20 -20l-75 -76l75 -76l-20 -20l-75 76zM202 226l-20 20l75 76
l-75 76l20 20l75 -76l75 76l20 -20l-75 -76l75 -76l-20 -20l-75 76z" />
    <glyph glyph-name="A" unicode="A" horiz-adv-x="2259" 
d="M109 0l809 1354h428l806 -1354h-309l-215 351h-993l-216 -351h-310zM715 533h834l-416 674h-1z" />
    <glyph glyph-name="Aacute" unicode="&#xc1;" horiz-adv-x="2259" 
d="M109 0l809 1354h428l806 -1354h-309l-215 351h-993l-216 -351h-310zM715 533h834l-416 674h-1zM907 1402l233 195h210l-300 -195h-143z" />
    <glyph glyph-name="Abreve" unicode="&#x102;" horiz-adv-x="2259" 
d="M109 0l809 1354h428l806 -1354h-309l-215 351h-993l-216 -351h-310zM715 533h834l-416 674h-1zM1129 1403c-183 0 -312 96 -312 199h142c0 -50 52 -104 170 -104c129 0 171 54 171 104h141c0 -103 -117 -199 -312 -199z" />
    <glyph glyph-name="uni1EAE" unicode="&#x1eae;" horiz-adv-x="2259" 
d="M109 0l809 1354h428l806 -1354h-309l-215 351h-993l-216 -351h-310zM715 533h834l-416 674h-1zM1129 1403c-183 0 -312 96 -312 199h142c0 -50 52 -104 170 -104c129 0 171 54 171 104h141c0 -103 -117 -199 -312 -199zM907 1654l233 195h210l-300 -195h-143z" />
    <glyph glyph-name="uni1EB6" unicode="&#x1eb6;" horiz-adv-x="2259" 
d="M109 0l809 1354h428l806 -1354h-309l-215 351h-993l-216 -351h-310zM715 533h834l-416 674h-1zM1129 1403c-183 0 -312 96 -312 199h142c0 -50 52 -104 170 -104c129 0 171 54 171 104h141c0 -103 -117 -199 -312 -199zM1129 -298c-52 0 -93 41 -93 93c0 51 41 92 93 92
c51 0 92 -41 92 -92c0 -52 -41 -93 -92 -93z" />
    <glyph glyph-name="uni1EB0" unicode="&#x1eb0;" horiz-adv-x="2259" 
d="M109 0l809 1354h428l806 -1354h-309l-215 351h-993l-216 -351h-310zM715 533h834l-416 674h-1zM1129 1403c-183 0 -312 96 -312 199h142c0 -50 52 -104 170 -104c129 0 171 54 171 104h141c0 -103 -117 -199 -312 -199zM1207 1664l-300 195h208l235 -195h-143z" />
    <glyph glyph-name="uni1EB2" unicode="&#x1eb2;" horiz-adv-x="2259" 
d="M109 0l809 1354h428l806 -1354h-309l-215 351h-993l-216 -351h-310zM715 533h834l-416 674h-1zM953 1975c368 0 533 -18 533 -119c0 -97 -173 -121 -309 -121v-69h-105v138c156 0 266 7 266 42c0 41 -118 43 -385 43v86zM1129 1403c-183 0 -312 96 -312 199h142
c0 -50 52 -104 170 -104c129 0 171 54 171 104h141c0 -103 -117 -199 -312 -199z" />
    <glyph glyph-name="uni1EB4" unicode="&#x1eb4;" horiz-adv-x="2259" 
d="M109 0l809 1354h428l806 -1354h-309l-215 351h-993l-216 -351h-310zM715 533h834l-416 674h-1zM1304 1703c-175 0 -206 101 -324 101c-83 0 -117 -53 -120 -83h-151c5 46 42 201 265 201c164 0 182 -100 319 -100c76 0 112 55 114 84h151c-2 -40 -34 -203 -254 -203z
M1129 1403c-183 0 -312 96 -312 199h142c0 -50 52 -104 170 -104c129 0 171 54 171 104h141c0 -103 -117 -199 -312 -199z" />
    <glyph glyph-name="uni01CD" unicode="&#x1cd;" horiz-adv-x="2259" 
d="M109 0l809 1354h428l806 -1354h-309l-215 351h-993l-216 -351h-310zM715 533h834l-416 674h-1zM1033 1398l-334 214h196l235 -156l231 156h198l-336 -214h-190z" />
    <glyph glyph-name="Acircumflex" unicode="&#xc2;" horiz-adv-x="2259" 
d="M109 0l809 1354h428l806 -1354h-309l-215 351h-993l-216 -351h-310zM715 533h834l-416 674h-1zM699 1403l334 214h190l336 -214h-198l-232 156l-234 -156h-196z" />
    <glyph glyph-name="uni1EA4" unicode="&#x1ea4;" horiz-adv-x="2259" 
d="M109 0l809 1354h428l806 -1354h-309l-215 351h-993l-216 -351h-310zM715 533h834l-416 674h-1zM699 1403l334 214h190l336 -214h-198l-232 156l-234 -156h-196zM907 1669l233 195h210l-300 -195h-143z" />
    <glyph glyph-name="uni1EAC" unicode="&#x1eac;" horiz-adv-x="2259" 
d="M109 0l809 1354h428l806 -1354h-309l-215 351h-993l-216 -351h-310zM715 533h834l-416 674h-1zM699 1403l334 214h190l336 -214h-198l-232 156l-234 -156h-196zM1129 -298c-52 0 -93 41 -93 93c0 51 41 92 93 92c51 0 92 -41 92 -92c0 -52 -41 -93 -92 -93z" />
    <glyph glyph-name="uni1EA6" unicode="&#x1ea6;" horiz-adv-x="2259" 
d="M109 0l809 1354h428l806 -1354h-309l-215 351h-993l-216 -351h-310zM715 533h834l-416 674h-1zM699 1403l334 214h190l336 -214h-198l-232 156l-234 -156h-196zM1207 1679l-300 195h208l235 -195h-143z" />
    <glyph glyph-name="uni1EA8" unicode="&#x1ea8;" horiz-adv-x="2259" 
d="M109 0l809 1354h428l806 -1354h-309l-215 351h-993l-216 -351h-310zM715 533h834l-416 674h-1zM953 1990c368 0 533 -18 533 -119c0 -97 -173 -121 -309 -121v-69h-105v138c156 0 266 7 266 42c0 41 -118 43 -385 43v86zM699 1403l334 214h190l336 -214h-198l-232 156
l-234 -156h-196z" />
    <glyph glyph-name="uni1EAA" unicode="&#x1eaa;" horiz-adv-x="2259" 
d="M109 0l809 1354h428l806 -1354h-309l-215 351h-993l-216 -351h-310zM715 533h834l-416 674h-1zM1304 1718c-175 0 -206 101 -324 101c-83 0 -117 -53 -120 -83h-151c5 46 42 201 265 201c164 0 182 -100 319 -100c76 0 112 55 114 84h151c-2 -40 -34 -203 -254 -203z
M699 1403l334 214h190l336 -214h-198l-232 156l-234 -156h-196z" />
    <glyph glyph-name="uni0200" unicode="&#x200;" horiz-adv-x="2259" 
d="M109 0l809 1354h428l806 -1354h-309l-215 351h-993l-216 -351h-310zM715 533h834l-416 674h-1zM1041 1422l-300 195h208l235 -195h-143zM1373 1422l-300 195h208l235 -195h-143z" />
    <glyph glyph-name="Adieresis" unicode="&#xc4;" horiz-adv-x="2259" 
d="M109 0l809 1354h428l806 -1354h-309l-215 351h-993l-216 -351h-310zM715 533h834l-416 674h-1zM887 1426c-52 0 -94 42 -94 94s42 94 94 94s94 -42 94 -94s-42 -94 -94 -94zM1363 1426c-52 0 -94 42 -94 94s42 94 94 94s94 -42 94 -94s-42 -94 -94 -94z" />
    <glyph glyph-name="uni1EA0" unicode="&#x1ea0;" horiz-adv-x="2259" 
d="M109 0l809 1354h428l806 -1354h-309l-215 351h-993l-216 -351h-310zM715 533h834l-416 674h-1zM1129 -298c-52 0 -93 41 -93 93c0 51 41 92 93 92c51 0 92 -41 92 -92c0 -52 -41 -93 -92 -93z" />
    <glyph glyph-name="Agrave" unicode="&#xc0;" horiz-adv-x="2259" 
d="M109 0l809 1354h428l806 -1354h-309l-215 351h-993l-216 -351h-310zM715 533h834l-416 674h-1zM1207 1412l-300 195h208l235 -195h-143z" />
    <glyph glyph-name="uni1EA2" unicode="&#x1ea2;" horiz-adv-x="2259" 
d="M109 0l809 1354h428l806 -1354h-309l-215 351h-993l-216 -351h-310zM715 533h834l-416 674h-1zM953 1723c368 0 533 -18 533 -119c0 -97 -173 -121 -309 -121v-69h-105v138c156 0 266 7 266 42c0 41 -118 43 -385 43v86z" />
    <glyph glyph-name="uni0202" unicode="&#x202;" horiz-adv-x="2259" 
d="M109 0l809 1354h428l806 -1354h-309l-215 351h-993l-216 -351h-310zM715 533h834l-416 674h-1zM1128 1636c183 0 312 -96 312 -199h-142c0 50 -52 104 -170 104c-129 0 -171 -54 -171 -104h-141c0 103 117 199 312 199z" />
    <glyph glyph-name="Amacron" unicode="&#x100;" horiz-adv-x="2259" 
d="M109 0l809 1354h428l806 -1354h-309l-215 351h-993l-216 -351h-310zM715 533h834l-416 674h-1zM655 1483v109h947v-109h-947z" />
    <glyph glyph-name="Aogonek" unicode="&#x104;" horiz-adv-x="2259" 
d="M109 0l809 1354h428l806 -1354c-25 -25 -76 -108 -76 -158c0 -42 30 -73 106 -73c72 0 168 22 206 37l4 -136c-33 -14 -149 -36 -258 -36c-119 0 -221 44 -221 159c0 95 59 174 96 207h-166l-215 351h-993l-216 -351h-310zM715 533h834l-416 674h-1z" />
    <glyph glyph-name="Aring" unicode="&#xc5;" horiz-adv-x="2259" 
d="M109 0l809 1354h428l806 -1354h-309l-215 351h-993l-216 -351h-310zM715 533h834l-416 674h-1zM1129 1393c-88 0 -154 67 -154 154c0 86 66 153 154 153s154 -67 154 -153c0 -87 -66 -154 -154 -154zM1129 1498c26 0 48 22 48 49s-22 47 -48 47c-27 0 -48 -20 -48 -47
s21 -49 48 -49z" />
    <glyph glyph-name="Aringacute" unicode="&#x1fa;" horiz-adv-x="2259" 
d="M109 0l809 1354h428l806 -1354h-309l-215 351h-993l-216 -351h-310zM715 533h834l-416 674h-1zM1129 1376c-88 0 -154 67 -154 154c0 86 66 153 154 153s154 -67 154 -153c0 -87 -66 -154 -154 -154zM907 1735l233 195h210l-300 -195h-143zM1129 1481c26 0 48 22 48 49
s-22 47 -48 47c-27 0 -48 -20 -48 -47s21 -49 48 -49z" />
    <glyph glyph-name="Atilde" unicode="&#xc3;" horiz-adv-x="2259" 
d="M109 0l809 1354h428l806 -1354h-309l-215 351h-993l-216 -351h-310zM715 533h834l-416 674h-1zM1304 1451c-175 0 -206 101 -324 101c-83 0 -117 -53 -120 -83h-151c5 46 42 201 265 201c164 0 182 -100 319 -100c76 0 112 55 114 84h151c-2 -40 -34 -203 -254 -203z" />
    <glyph glyph-name="AE" unicode="&#xc6;" horiz-adv-x="3276" 
d="M109 0l1271 1350h1710v-192h-1265v-381h1180v-179h-1180v-406h1265v-192h-1559v344h-785l-327 -344h-310zM926 532h605v634z" />
    <glyph glyph-name="AEacute" unicode="&#x1fc;" horiz-adv-x="3276" 
d="M109 0l1271 1350h1710v-192h-1265v-381h1180v-179h-1180v-406h1265v-192h-1559v344h-785l-327 -344h-310zM926 532h605v634zM1407 1402l233 195h210l-300 -195h-143z" />
    <glyph glyph-name="B" unicode="B" horiz-adv-x="2087" 
d="M145 0v1350h1164c190 0 325 -26 403 -79s117 -133 117 -240c0 -105 -36 -185 -108 -240s-148 -84 -229 -88c88 -4 175 -30 262 -79s130 -134 130 -253c0 -123 -39 -215 -118 -277c-79 -63 -208 -94 -387 -94h-1234zM439 192h884c92 0 159 18 202 53s64 90 64 166
c0 74 -26 127 -78 159s-137 48 -257 48h-815v-426zM439 776h785c108 0 186 18 234 53c48 36 72 86 72 150c0 61 -20 107 -60 136s-108 43 -205 43h-826v-382z" />
    <glyph glyph-name="C" unicode="C" horiz-adv-x="2092" 
d="M1020 -9c-286 0 -513 61 -683 182c-170 122 -255 290 -255 504c0 213 85 381 255 503s397 183 683 183c282 0 500 -55 655 -163c154 -109 232 -227 232 -354h-301c0 68 -52 139 -156 213s-249 112 -435 112c-190 0 -342 -45 -458 -134s-174 -209 -174 -360
s58 -271 174 -360s269 -134 458 -134c185 0 330 38 435 114c104 76 156 148 156 217h301c0 -127 -78 -246 -232 -357c-155 -111 -373 -166 -655 -166z" />
    <glyph glyph-name="Cacute" unicode="&#x106;" horiz-adv-x="2092" 
d="M1020 -9c-286 0 -513 61 -683 182c-170 122 -255 290 -255 504c0 213 85 381 255 503s397 183 683 183c282 0 500 -55 655 -163c154 -109 232 -227 232 -354h-301c0 68 -52 139 -156 213s-249 112 -435 112c-190 0 -342 -45 -458 -134s-174 -209 -174 -360
s58 -271 174 -360s269 -134 458 -134c185 0 330 38 435 114c104 76 156 148 156 217h301c0 -127 -78 -246 -232 -357c-155 -111 -373 -166 -655 -166zM783 1402l233 195h210l-300 -195h-143z" />
    <glyph glyph-name="Ccaron" unicode="&#x10c;" horiz-adv-x="2092" 
d="M1020 -9c-286 0 -513 61 -683 182c-170 122 -255 290 -255 504c0 213 85 381 255 503s397 183 683 183c282 0 500 -55 655 -163c154 -109 232 -227 232 -354h-301c0 68 -52 139 -156 213s-249 112 -435 112c-190 0 -342 -45 -458 -134s-174 -209 -174 -360
s58 -271 174 -360s269 -134 458 -134c185 0 330 38 435 114c104 76 156 148 156 217h301c0 -127 -78 -246 -232 -357c-155 -111 -373 -166 -655 -166zM909 1398l-334 214h196l235 -156l231 156h198l-336 -214h-190z" />
    <glyph glyph-name="Ccedilla" unicode="&#xc7;" horiz-adv-x="2092" 
d="M1065 -349c-78 0 -154 9 -229 25l45 123c49 -12 113 -23 188 -23c110 0 167 23 167 63c0 30 -30 42 -83 42c-49 0 -107 -19 -145 -36l-105 12l47 135c-253 9 -458 70 -613 181c-170 122 -255 290 -255 504c0 213 85 381 255 503s397 183 683 183c282 0 500 -55 655 -163
c154 -109 232 -227 232 -354h-301c0 68 -52 139 -156 213s-249 112 -435 112c-190 0 -342 -45 -458 -134s-174 -209 -174 -360s58 -271 174 -360s269 -134 458 -134c185 0 330 38 435 114c104 76 156 148 156 217h301c0 -127 -78 -246 -232 -357
c-146 -104 -348 -159 -607 -165l-36 -87c46 26 127 45 202 45c108 0 189 -39 189 -119c0 -124 -184 -180 -358 -180z" />
    <glyph glyph-name="uni1E08" unicode="&#x1e08;" horiz-adv-x="2092" 
d="M1065 -349c-78 0 -154 9 -229 25l45 123c49 -12 113 -23 188 -23c110 0 167 23 167 63c0 30 -30 42 -83 42c-49 0 -107 -19 -145 -36l-105 12l47 135c-253 9 -458 70 -613 181c-170 122 -255 290 -255 504c0 213 85 381 255 503s397 183 683 183c282 0 500 -55 655 -163
c154 -109 232 -227 232 -354h-301c0 68 -52 139 -156 213s-249 112 -435 112c-190 0 -342 -45 -458 -134s-174 -209 -174 -360s58 -271 174 -360s269 -134 458 -134c185 0 330 38 435 114c104 76 156 148 156 217h301c0 -127 -78 -246 -232 -357
c-146 -104 -348 -159 -607 -165l-36 -87c46 26 127 45 202 45c108 0 189 -39 189 -119c0 -124 -184 -180 -358 -180zM783 1402l233 195h210l-300 -195h-143z" />
    <glyph glyph-name="Ccircumflex" unicode="&#x108;" horiz-adv-x="2092" 
d="M1020 -9c-286 0 -513 61 -683 182c-170 122 -255 290 -255 504c0 213 85 381 255 503s397 183 683 183c282 0 500 -55 655 -163c154 -109 232 -227 232 -354h-301c0 68 -52 139 -156 213s-249 112 -435 112c-190 0 -342 -45 -458 -134s-174 -209 -174 -360
s58 -271 174 -360s269 -134 458 -134c185 0 330 38 435 114c104 76 156 148 156 217h301c0 -127 -78 -246 -232 -357c-155 -111 -373 -166 -655 -166zM575 1403l334 214h190l336 -214h-198l-232 156l-234 -156h-196z" />
    <glyph glyph-name="Cdotaccent" unicode="&#x10a;" horiz-adv-x="2092" 
d="M1020 -9c-286 0 -513 61 -683 182c-170 122 -255 290 -255 504c0 213 85 381 255 503s397 183 683 183c282 0 500 -55 655 -163c154 -109 232 -227 232 -354h-301c0 68 -52 139 -156 213s-249 112 -435 112c-190 0 -342 -45 -458 -134s-174 -209 -174 -360
s58 -271 174 -360s269 -134 458 -134c185 0 330 38 435 114c104 76 156 148 156 217h301c0 -127 -78 -246 -232 -357c-155 -111 -373 -166 -655 -166zM1005 1419c-52 0 -93 41 -93 93c0 51 41 92 93 92c51 0 92 -41 92 -92c0 -52 -41 -93 -92 -93z" />
    <glyph glyph-name="D" unicode="D" horiz-adv-x="2043" 
d="M145 0v1350h942c248 0 445 -53 593 -159s222 -278 222 -515s-74 -409 -222 -516s-346 -160 -593 -160h-942zM439 192h580c189 0 334 37 436 112c101 75 152 199 152 372s-51 296 -152 371c-102 74 -247 111 -436 111h-580v-966z" />
    <glyph glyph-name="uni01C4" unicode="&#x1c4;" horiz-adv-x="3957" 
d="M145 0v1350h942c248 0 445 -53 593 -159s222 -278 222 -515s-74 -409 -222 -516s-346 -160 -593 -160h-942zM439 192h580c189 0 334 37 436 112c101 75 152 199 152 372s-51 296 -152 371c-102 74 -247 111 -436 111h-580v-966zM2154 0v206l1219 952h-1204v192h1563v-196
l-1219 -960h1269v-194h-1628zM2904 1398l-334 214h196l235 -156l231 156h198l-336 -214h-190z" />
    <glyph glyph-name="Eth" unicode="&#xd0;" horiz-adv-x="2062" 
d="M-65 580v193h229v577h942c248 0 445 -53 593 -159s222 -278 222 -515s-74 -409 -222 -516s-346 -160 -593 -160h-942v580h-229zM458 192h580c189 0 334 37 436 112c101 75 152 199 152 372s-51 296 -152 371c-102 74 -247 111 -436 111h-580v-385h387v-193h-387v-388z
" />
    <glyph glyph-name="Dcaron" unicode="&#x10e;" horiz-adv-x="2043" 
d="M145 0v1350h942c248 0 445 -53 593 -159s222 -278 222 -515s-74 -409 -222 -516s-346 -160 -593 -160h-942zM439 192h580c189 0 334 37 436 112c101 75 152 199 152 372s-51 296 -152 371c-102 74 -247 111 -436 111h-580v-966zM888 1398l-334 214h197l234 -156l232 156
h197l-336 -214h-190z" />
    <glyph glyph-name="Dcroat" unicode="&#x110;" horiz-adv-x="2062" 
d="M164 0v580h-229v193h229v577h942c248 0 445 -53 593 -159s222 -278 222 -515s-74 -409 -222 -516s-346 -160 -593 -160h-942zM458 192h580c189 0 334 37 436 112c101 75 152 199 152 372s-51 296 -152 371c-102 74 -247 111 -436 111h-580v-385h387v-193h-387v-388z" />
    <glyph glyph-name="uni1E0C" unicode="&#x1e0c;" horiz-adv-x="2043" 
d="M145 0v1350h942c248 0 445 -53 593 -159s222 -278 222 -515s-74 -409 -222 -516s-346 -160 -593 -160h-942zM439 192h580c189 0 334 37 436 112c101 75 152 199 152 372s-51 296 -152 371c-102 74 -247 111 -436 111h-580v-966zM1010 -298c-52 0 -93 41 -93 93
c0 51 41 92 93 92c51 0 92 -41 92 -92c0 -52 -41 -93 -92 -93z" />
    <glyph glyph-name="uni1E0E" unicode="&#x1e0e;" horiz-adv-x="2043" 
d="M145 0v1350h942c248 0 445 -53 593 -159s222 -278 222 -515s-74 -409 -222 -516s-346 -160 -593 -160h-942zM439 192h580c189 0 334 37 436 112c101 75 152 199 152 372s-51 296 -152 371c-102 74 -247 111 -436 111h-580v-966zM536 -245v109h947v-109h-947z" />
    <glyph glyph-name="uni01C5" unicode="&#x1c5;" horiz-adv-x="3736" 
d="M145 0v1350h942c248 0 445 -53 593 -159s222 -278 222 -515s-74 -409 -222 -516s-346 -160 -593 -160h-942zM439 192h580c189 0 334 37 436 112c101 75 152 199 152 372s-51 296 -152 371c-102 74 -247 111 -436 111h-580v-966zM2166 0v198l1037 780h-1033v192h1380v-199
l-1018 -779h1036v-192h-1402zM2769 1218l-334 214h197l234 -156l232 156h197l-336 -214h-190z" />
    <glyph glyph-name="E" unicode="E" horiz-adv-x="1883" 
d="M138 0v1350h1559v-192h-1265v-381h1180v-179h-1180v-406h1265v-192h-1559z" />
    <glyph glyph-name="Eacute" unicode="&#xc9;" horiz-adv-x="1883" 
d="M138 0v1350h1559v-192h-1265v-381h1180v-179h-1180v-406h1265v-192h-1559zM705 1402l233 195h210l-300 -195h-143z" />
    <glyph glyph-name="Ebreve" unicode="&#x114;" horiz-adv-x="1883" 
d="M138 0v1350h1559v-192h-1265v-381h1180v-179h-1180v-406h1265v-192h-1559zM927 1403c-183 0 -312 96 -312 199h142c0 -50 52 -104 170 -104c129 0 171 54 171 104h141c0 -103 -117 -199 -312 -199z" />
    <glyph glyph-name="Ecaron" unicode="&#x11a;" horiz-adv-x="1883" 
d="M138 0v1350h1559v-192h-1265v-381h1180v-179h-1180v-406h1265v-192h-1559zM831 1398l-334 214h196l235 -156l231 156h198l-336 -214h-190z" />
    <glyph glyph-name="uni1E1C" unicode="&#x1e1c;" horiz-adv-x="1883" 
d="M138 0v1350h1559v-192h-1265v-381h1180v-179h-1180v-406h1265v-192h-703l-40 -95c46 26 127 45 202 45c108 0 189 -39 189 -119c0 -124 -184 -180 -358 -180c-78 0 -154 9 -229 25l45 123c49 -12 113 -23 188 -23c110 0 167 23 167 63c0 30 -30 42 -83 42
c-49 0 -107 -19 -145 -36l-105 12l50 143h-737zM927 1403c-183 0 -312 96 -312 199h142c0 -50 52 -104 170 -104c129 0 171 54 171 104h141c0 -103 -117 -199 -312 -199z" />
    <glyph glyph-name="Ecircumflex" unicode="&#xca;" horiz-adv-x="1883" 
d="M138 0v1350h1559v-192h-1265v-381h1180v-179h-1180v-406h1265v-192h-1559zM497 1403l334 214h190l336 -214h-198l-232 156l-234 -156h-196z" />
    <glyph glyph-name="uni1EBE" unicode="&#x1ebe;" horiz-adv-x="1883" 
d="M138 0v1350h1559v-192h-1265v-381h1180v-179h-1180v-406h1265v-192h-1559zM497 1403l334 214h190l336 -214h-198l-232 156l-234 -156h-196zM705 1669l233 195h210l-300 -195h-143z" />
    <glyph glyph-name="uni1EC6" unicode="&#x1ec6;" horiz-adv-x="1883" 
d="M138 0v1350h1559v-192h-1265v-381h1180v-179h-1180v-406h1265v-192h-1559zM497 1403l334 214h190l336 -214h-198l-232 156l-234 -156h-196zM927 -298c-52 0 -93 41 -93 93c0 51 41 92 93 92c51 0 92 -41 92 -92c0 -52 -41 -93 -92 -93z" />
    <glyph glyph-name="uni1EC0" unicode="&#x1ec0;" horiz-adv-x="1883" 
d="M138 0v1350h1559v-192h-1265v-381h1180v-179h-1180v-406h1265v-192h-1559zM497 1403l334 214h190l336 -214h-198l-232 156l-234 -156h-196zM1005 1679l-300 195h208l235 -195h-143z" />
    <glyph glyph-name="uni1EC2" unicode="&#x1ec2;" horiz-adv-x="1883" 
d="M138 0v1350h1559v-192h-1265v-381h1180v-179h-1180v-406h1265v-192h-1559zM751 1990c368 0 533 -18 533 -119c0 -97 -173 -121 -309 -121v-69h-105v138c156 0 266 7 266 42c0 41 -118 43 -385 43v86zM497 1403l334 214h190l336 -214h-198l-232 156l-234 -156h-196z" />
    <glyph glyph-name="uni1EC4" unicode="&#x1ec4;" horiz-adv-x="1883" 
d="M138 0v1350h1559v-192h-1265v-381h1180v-179h-1180v-406h1265v-192h-1559zM1102 1718c-175 0 -206 101 -324 101c-83 0 -117 -53 -120 -83h-151c5 46 42 201 265 201c164 0 182 -100 319 -100c76 0 112 55 114 84h151c-2 -40 -34 -203 -254 -203zM497 1403l334 214h190
l336 -214h-198l-232 156l-234 -156h-196z" />
    <glyph glyph-name="uni0204" unicode="&#x204;" horiz-adv-x="1883" 
d="M138 0v1350h1559v-192h-1265v-381h1180v-179h-1180v-406h1265v-192h-1559zM839 1422l-300 195h208l235 -195h-143zM1171 1422l-300 195h208l235 -195h-143z" />
    <glyph glyph-name="Edieresis" unicode="&#xcb;" horiz-adv-x="1883" 
d="M138 0v1350h1559v-192h-1265v-381h1180v-179h-1180v-406h1265v-192h-1559zM685 1426c-52 0 -94 42 -94 94s42 94 94 94s94 -42 94 -94s-42 -94 -94 -94zM1161 1426c-52 0 -94 42 -94 94s42 94 94 94s94 -42 94 -94s-42 -94 -94 -94z" />
    <glyph glyph-name="Edotaccent" unicode="&#x116;" horiz-adv-x="1883" 
d="M138 0v1350h1559v-192h-1265v-381h1180v-179h-1180v-406h1265v-192h-1559zM927 1419c-52 0 -93 41 -93 93c0 51 41 92 93 92c51 0 92 -41 92 -92c0 -52 -41 -93 -92 -93z" />
    <glyph glyph-name="uni1EB8" unicode="&#x1eb8;" horiz-adv-x="1883" 
d="M138 0v1350h1559v-192h-1265v-381h1180v-179h-1180v-406h1265v-192h-1559zM927 -298c-52 0 -93 41 -93 93c0 51 41 92 93 92c51 0 92 -41 92 -92c0 -52 -41 -93 -92 -93z" />
    <glyph glyph-name="Egrave" unicode="&#xc8;" horiz-adv-x="1883" 
d="M138 0v1350h1559v-192h-1265v-381h1180v-179h-1180v-406h1265v-192h-1559zM1005 1412l-300 195h208l235 -195h-143z" />
    <glyph glyph-name="uni1EBA" unicode="&#x1eba;" horiz-adv-x="1883" 
d="M138 0v1350h1559v-192h-1265v-381h1180v-179h-1180v-406h1265v-192h-1559zM751 1723c368 0 533 -18 533 -119c0 -97 -173 -121 -309 -121v-69h-105v138c156 0 266 7 266 42c0 41 -118 43 -385 43v86z" />
    <glyph glyph-name="uni0206" unicode="&#x206;" horiz-adv-x="1883" 
d="M138 0v1350h1559v-192h-1265v-381h1180v-179h-1180v-406h1265v-192h-1559zM926 1636c183 0 312 -96 312 -199h-142c0 50 -52 104 -170 104c-129 0 -171 -54 -171 -104h-141c0 103 117 199 312 199z" />
    <glyph glyph-name="Emacron" unicode="&#x112;" horiz-adv-x="1883" 
d="M138 0v1350h1559v-192h-1265v-381h1180v-179h-1180v-406h1265v-192h-1559zM453 1483v109h947v-109h-947z" />
    <glyph glyph-name="uni1E16" unicode="&#x1e16;" horiz-adv-x="1883" 
d="M138 0v1350h1559v-192h-1265v-381h1180v-179h-1180v-406h1265v-192h-1559zM453 1483v109h947v-109h-947zM705 1644l233 195h210l-300 -195h-143z" />
    <glyph glyph-name="uni1E14" unicode="&#x1e14;" horiz-adv-x="1883" 
d="M138 0v1350h1559v-192h-1265v-381h1180v-179h-1180v-406h1265v-192h-1559zM453 1483v109h947v-109h-947zM1005 1654l-300 195h208l235 -195h-143z" />
    <glyph glyph-name="Eogonek" unicode="&#x118;" horiz-adv-x="1883" 
d="M138 0v1350h1559v-192h-1265v-381h1180v-179h-1180v-406h1265v-192h-484c-25 -25 -76 -108 -76 -158c0 -42 30 -73 106 -73c72 0 168 22 206 37l4 -136c-33 -14 -149 -36 -258 -36c-119 0 -221 44 -221 159c0 95 59 174 96 207h-932z" />
    <glyph glyph-name="uni1EBC" unicode="&#x1ebc;" horiz-adv-x="1883" 
d="M138 0v1350h1559v-192h-1265v-381h1180v-179h-1180v-406h1265v-192h-1559zM1102 1451c-175 0 -206 101 -324 101c-83 0 -117 -53 -120 -83h-151c5 46 42 201 265 201c164 0 182 -100 319 -100c76 0 112 55 114 84h151c-2 -40 -34 -203 -254 -203z" />
    <glyph glyph-name="F" unicode="F" horiz-adv-x="1738" 
d="M143 0v1350h1465v-192h-1171v-450h1067v-179h-1067v-529h-294z" />
    <glyph glyph-name="G" unicode="G" horiz-adv-x="2155" 
d="M1028 -8c-287 0 -512 61 -674 184s-243 290 -243 500c0 211 83 378 249 501c165 124 391 186 678 186c263 0 476 -51 639 -151s244 -219 244 -357h-295c-4 74 -54 145 -152 214c-98 68 -243 103 -435 103c-200 0 -355 -46 -465 -138c-110 -91 -165 -211 -165 -358
s55 -266 165 -357s265 -136 466 -136c193 0 334 33 425 98c88 64 136 147 143 249h-526v160h839v-690h-214l-12 303c-103 -207 -326 -311 -667 -311z" />
    <glyph glyph-name="Gbreve" unicode="&#x11e;" horiz-adv-x="2155" 
d="M1028 -8c-287 0 -512 61 -674 184s-243 290 -243 500c0 211 83 378 249 501c165 124 391 186 678 186c263 0 476 -51 639 -151s244 -219 244 -357h-295c-4 74 -54 145 -152 214c-98 68 -243 103 -435 103c-200 0 -355 -46 -465 -138c-110 -91 -165 -211 -165 -358
s55 -266 165 -357s265 -136 466 -136c193 0 334 33 425 98c88 64 136 147 143 249h-526v160h839v-690h-214l-12 303c-103 -207 -326 -311 -667 -311zM1052 1403c-183 0 -312 96 -312 199h142c0 -50 52 -104 170 -104c129 0 171 54 171 104h141c0 -103 -117 -199 -312 -199z
" />
    <glyph glyph-name="Gcaron" unicode="&#x1e6;" horiz-adv-x="2155" 
d="M1028 -8c-287 0 -512 61 -674 184s-243 290 -243 500c0 211 83 378 249 501c165 124 391 186 678 186c263 0 476 -51 639 -151s244 -219 244 -357h-295c-4 74 -54 145 -152 214c-98 68 -243 103 -435 103c-200 0 -355 -46 -465 -138c-110 -91 -165 -211 -165 -358
s55 -266 165 -357s265 -136 466 -136c193 0 334 33 425 98c88 64 136 147 143 249h-526v160h839v-690h-214l-12 303c-103 -207 -326 -311 -667 -311zM956 1398l-334 214h196l235 -156l231 156h198l-336 -214h-190z" />
    <glyph glyph-name="Gcircumflex" unicode="&#x11c;" horiz-adv-x="2155" 
d="M1028 -8c-287 0 -512 61 -674 184s-243 290 -243 500c0 211 83 378 249 501c165 124 391 186 678 186c263 0 476 -51 639 -151s244 -219 244 -357h-295c-4 74 -54 145 -152 214c-98 68 -243 103 -435 103c-200 0 -355 -46 -465 -138c-110 -91 -165 -211 -165 -358
s55 -266 165 -357s265 -136 466 -136c193 0 334 33 425 98c88 64 136 147 143 249h-526v160h839v-690h-214l-12 303c-103 -207 -326 -311 -667 -311zM622 1403l334 214h190l336 -214h-198l-232 156l-234 -156h-196z" />
    <glyph glyph-name="uni0122" unicode="&#x122;" horiz-adv-x="2155" 
d="M1028 -8c-287 0 -512 61 -674 184s-243 290 -243 500c0 211 83 378 249 501c165 124 391 186 678 186c263 0 476 -51 639 -151s244 -219 244 -357h-295c-4 74 -54 145 -152 214c-98 68 -243 103 -435 103c-200 0 -355 -46 -465 -138c-110 -91 -165 -211 -165 -358
s55 -266 165 -357s265 -136 466 -136c193 0 334 33 425 98c88 64 136 147 143 249h-526v160h839v-690h-214l-12 303c-103 -207 -326 -311 -667 -311zM876 -373l121 331h170l-182 -331h-109z" />
    <glyph glyph-name="Gdotaccent" unicode="&#x120;" horiz-adv-x="2155" 
d="M1028 -8c-287 0 -512 61 -674 184s-243 290 -243 500c0 211 83 378 249 501c165 124 391 186 678 186c263 0 476 -51 639 -151s244 -219 244 -357h-295c-4 74 -54 145 -152 214c-98 68 -243 103 -435 103c-200 0 -355 -46 -465 -138c-110 -91 -165 -211 -165 -358
s55 -266 165 -357s265 -136 466 -136c193 0 334 33 425 98c88 64 136 147 143 249h-526v160h839v-690h-214l-12 303c-103 -207 -326 -311 -667 -311zM1052 1419c-52 0 -93 41 -93 93c0 51 41 92 93 92c51 0 92 -41 92 -92c0 -52 -41 -93 -92 -93z" />
    <glyph glyph-name="uni1E20" unicode="&#x1e20;" horiz-adv-x="2155" 
d="M1028 -8c-287 0 -512 61 -674 184s-243 290 -243 500c0 211 83 378 249 501c165 124 391 186 678 186c263 0 476 -51 639 -151s244 -219 244 -357h-295c-4 74 -54 145 -152 214c-98 68 -243 103 -435 103c-200 0 -355 -46 -465 -138c-110 -91 -165 -211 -165 -358
s55 -266 165 -357s265 -136 466 -136c193 0 334 33 425 98c88 64 136 147 143 249h-526v160h839v-690h-214l-12 303c-103 -207 -326 -311 -667 -311zM578 1483v109h947v-109h-947z" />
    <glyph glyph-name="H" unicode="H" horiz-adv-x="2081" 
d="M145 0v1350h294v-582h1114v582h294v-1350h-294v576h-1114v-576h-294z" />
    <glyph glyph-name="Hbar" unicode="&#x126;" horiz-adv-x="1990" 
d="M58 1027v108h87v215h294v-215h1114v215h294v-215h87v-108h-87v-1027h-294v576h-1114v-576h-294v1027h-87zM1553 1027h-1114v-259h1114v259z" />
    <glyph glyph-name="uni1E2A" unicode="&#x1e2a;" horiz-adv-x="2081" 
d="M145 0v1350h294v-582h1114v582h294v-1350h-294v576h-1114v-576h-294zM1032 -295c-183 0 -312 96 -312 199h142c0 -50 52 -104 170 -104c129 0 171 54 171 104h141c0 -103 -117 -199 -312 -199z" />
    <glyph glyph-name="Hcircumflex" unicode="&#x124;" horiz-adv-x="2081" 
d="M145 0v1350h294v-582h1114v582h294v-1350h-294v576h-1114v-576h-294zM602 1403l334 214h190l336 -214h-198l-232 156l-234 -156h-196z" />
    <glyph glyph-name="uni1E24" unicode="&#x1e24;" horiz-adv-x="2081" 
d="M145 0v1350h294v-582h1114v582h294v-1350h-294v576h-1114v-576h-294zM1032 -298c-52 0 -93 41 -93 93c0 51 41 92 93 92c51 0 92 -41 92 -92c0 -52 -41 -93 -92 -93z" />
    <glyph glyph-name="I" unicode="I" horiz-adv-x="862" 
d="M253 0v1350h291v-1350h-291z" />
    <glyph glyph-name="Iacute" unicode="&#xcd;" horiz-adv-x="862" 
d="M253 0v1350h291v-1350h-291zM177 1402l233 195h210l-300 -195h-143z" />
    <glyph glyph-name="Ibreve" unicode="&#x12c;" horiz-adv-x="862" 
d="M253 0v1350h291v-1350h-291zM398 1403c-183 0 -312 96 -312 199h142c0 -50 52 -104 170 -104c129 0 171 54 171 104h141c0 -103 -117 -199 -312 -199z" />
    <glyph glyph-name="uni01CF" unicode="&#x1cf;" horiz-adv-x="862" 
d="M253 0v1350h291v-1350h-291zM302 1398l-334 214h197l234 -156l232 156h197l-336 -214h-190z" />
    <glyph glyph-name="Icircumflex" unicode="&#xce;" horiz-adv-x="862" 
d="M253 0v1350h291v-1350h-291zM-32 1403l334 214h190l336 -214h-197l-232 156l-234 -156h-197z" />
    <glyph glyph-name="uni0208" unicode="&#x208;" horiz-adv-x="862" 
d="M253 0v1350h291v-1350h-291zM311 1422l-300 195h208l235 -195h-143zM642 1422l-300 195h208l235 -195h-143z" />
    <glyph glyph-name="Idieresis" unicode="&#xcf;" horiz-adv-x="862" 
d="M253 0v1350h291v-1350h-291zM157 1426c-52 0 -94 42 -94 94s42 94 94 94s94 -42 94 -94s-42 -94 -94 -94zM633 1426c-52 0 -94 42 -94 94s42 94 94 94s94 -42 94 -94s-42 -94 -94 -94z" />
    <glyph glyph-name="uni1E2E" unicode="&#x1e2e;" horiz-adv-x="862" 
d="M253 0v1350h291v-1350h-291zM177 1667l233 195h210l-300 -195h-143zM157 1426c-52 0 -94 42 -94 94s42 94 94 94s94 -42 94 -94s-42 -94 -94 -94zM633 1426c-52 0 -94 42 -94 94s42 94 94 94s94 -42 94 -94s-42 -94 -94 -94z" />
    <glyph glyph-name="Idotaccent" unicode="&#x130;" horiz-adv-x="862" 
d="M253 0v1350h291v-1350h-291zM399 1419c-52 0 -93 41 -93 93c0 51 41 92 93 92c51 0 92 -41 92 -92c0 -52 -41 -93 -92 -93z" />
    <glyph glyph-name="uni1ECA" unicode="&#x1eca;" horiz-adv-x="862" 
d="M253 0v1350h291v-1350h-291zM399 -298c-52 0 -93 41 -93 93c0 51 41 92 93 92c51 0 92 -41 92 -92c0 -52 -41 -93 -92 -93z" />
    <glyph glyph-name="Igrave" unicode="&#xcc;" horiz-adv-x="862" 
d="M253 0v1350h291v-1350h-291zM477 1412l-300 195h208l235 -195h-143z" />
    <glyph glyph-name="uni1EC8" unicode="&#x1ec8;" horiz-adv-x="862" 
d="M253 0v1350h291v-1350h-291zM223 1723c368 0 533 -18 533 -119c0 -97 -174 -121 -310 -121v-69h-104v138c155 0 265 7 265 42c0 41 -117 43 -384 43v86z" />
    <glyph glyph-name="uni020A" unicode="&#x20a;" horiz-adv-x="862" 
d="M253 0v1350h291v-1350h-291zM398 1636c183 0 312 -96 312 -199h-142c0 50 -52 104 -170 104c-129 0 -171 -54 -171 -104h-141c0 103 117 199 312 199z" />
    <glyph glyph-name="Imacron" unicode="&#x12a;" horiz-adv-x="862" 
d="M253 0v1350h291v-1350h-291zM-75 1483v109h947v-109h-947z" />
    <glyph glyph-name="Iogonek" unicode="&#x12e;" horiz-adv-x="862" 
d="M253 0v1350h291v-1350c-25 -25 -76 -108 -76 -158c0 -42 30 -73 106 -73c72 0 168 22 206 37l4 -136c-33 -14 -149 -36 -258 -36c-119 0 -221 44 -221 159c0 95 59 174 96 207h-148z" />
    <glyph glyph-name="Itilde" unicode="&#x128;" horiz-adv-x="862" 
d="M253 0v1350h291v-1350h-291zM574 1451c-175 0 -207 101 -325 101c-83 0 -117 -53 -119 -83h-151c4 46 42 201 265 201c163 0 182 -100 318 -100c77 0 112 55 115 84h151c-3 -40 -34 -203 -254 -203z" />
    <glyph glyph-name="J" unicode="J" horiz-adv-x="1995" 
d="M925 -16c-274 0 -479 49 -614 149c-136 99 -203 252 -203 457v33h295v-19c0 -146 40 -254 120 -324s214 -104 402 -104c187 0 322 34 404 104c81 70 122 181 122 332v738h294v-763c0 -198 -68 -348 -204 -450c-137 -102 -342 -153 -616 -153z" />
    <glyph glyph-name="J.ss01" horiz-adv-x="1995" 
d="M113 1350h1632v-763c0 -198 -68 -348 -204 -450c-137 -102 -342 -153 -616 -153s-479 49 -614 149c-136 99 -203 252 -203 457v33h295v-19c0 -146 40 -254 120 -324s214 -104 402 -104c187 0 322 34 404 104c81 70 122 181 122 332v546h-1338v192z" />
    <glyph glyph-name="Jcircumflex" unicode="&#x134;" horiz-adv-x="1995" 
d="M925 -16c-274 0 -479 49 -614 149c-136 99 -203 252 -203 457v33h295v-19c0 -146 40 -254 120 -324s214 -104 402 -104c187 0 322 34 404 104c81 70 122 181 122 332v738h294v-763c0 -198 -68 -348 -204 -450c-137 -102 -342 -153 -616 -153zM1177 1403l334 214h190
l336 -214h-197l-232 156l-234 -156h-197z" />
    <glyph glyph-name="K" unicode="K" horiz-adv-x="1840" 
d="M145 0v1350h293v-608l954 608h358l-1040 -676l1045 -674h-358l-959 607v-607h-293z" />
    <glyph glyph-name="uni0136" unicode="&#x136;" horiz-adv-x="1840" 
d="M145 0v1350h293v-608l954 608h358l-1040 -676l1045 -674h-358l-959 607v-607h-293zM718 -373l121 330h170l-182 -330h-109z" />
    <glyph glyph-name="L" unicode="L" horiz-adv-x="1651" 
d="M145 0v1350h294v-1158h1056v-192h-1350z" />
    <glyph glyph-name="uni01C7" unicode="&#x1c7;" horiz-adv-x="3646" 
d="M2575 -16c-274 0 -479 49 -614 149c-135 99 -203 252 -203 457v33h295v-19c0 -146 40 -254 120 -324s214 -104 402 -104s322 34 404 104s123 181 123 332v738h294v-763c0 -198 -69 -348 -205 -450s-342 -153 -616 -153zM145 0v1350h294v-1158h1056v-192h-1350z" />
    <glyph glyph-name="Lacute" unicode="&#x139;" horiz-adv-x="1651" 
d="M145 0v1350h294v-1158h1056v-192h-1350zM603 1402l233 195h210l-300 -195h-143z" />
    <glyph glyph-name="Lcaron" unicode="&#x13d;" horiz-adv-x="1517" 
d="M145 0v1350h294v-1158h1056v-192h-1350zM1370 1007l111 341h191l-131 -341h-171z" />
    <glyph glyph-name="uni013B" unicode="&#x13b;" horiz-adv-x="1651" 
d="M145 0v1350h294v-1158h1056v-192h-1350zM649 -373l121 330h170l-182 -330h-109z" />
    <glyph glyph-name="Ldot" unicode="&#x13f;" horiz-adv-x="1653" 
d="M145 0v1350h294v-1158h1056v-192h-1350zM981 828h262v-232h-262v232z" />
    <glyph glyph-name="uni1E36" unicode="&#x1e36;" horiz-adv-x="1651" 
d="M145 0v1350h294v-1158h1056v-192h-1350zM825 -298c-52 0 -93 41 -93 93c0 51 41 92 93 92c51 0 92 -41 92 -92c0 -52 -41 -93 -92 -93z" />
    <glyph glyph-name="uni01C8" unicode="&#x1c8;" horiz-adv-x="2454" 
d="M145 0v1350h294v-1158h1056v-192h-1350zM1422 -460v190c151 0 269 26 352 80s125 148 125 283v1079h290v-1075c0 -206 -65 -351 -196 -433c-131 -83 -322 -124 -571 -124zM1899 1531h290v-216h-290v216z" />
    <glyph glyph-name="uni1E3A" unicode="&#x1e3a;" horiz-adv-x="1651" 
d="M145 0v1350h294v-1158h1056v-192h-1350zM351 -245v109h947v-109h-947z" />
    <glyph glyph-name="Lslash" unicode="&#x141;" horiz-adv-x="1792" 
d="M62 356l-63 155l249 135v704h294v-544l347 189l63 -155l-410 -223v-425h1056v-192h-1350v457z" />
    <glyph glyph-name="M" unicode="M" horiz-adv-x="2562" 
d="M145 0v1350h478l614 -1092l614 1092h478v-1350h-291v1154h-2l-620 -1088h-358l-620 1088h-2v-1154h-291z" />
    <glyph glyph-name="uni1E42" unicode="&#x1e42;" horiz-adv-x="2562" 
d="M145 0v1350h478l614 -1092l614 1092h478v-1350h-291v1154h-2l-620 -1088h-358l-620 1088h-2v-1154h-291zM1241 -298c-52 0 -93 41 -93 93c0 51 41 92 93 92c51 0 92 -41 92 -92c0 -52 -41 -93 -92 -93z" />
    <glyph glyph-name="N" unicode="N" horiz-adv-x="2267" 
d="M145 0v1350h487l1107 -1187v1187h294v-1350h-475l-1119 1200v-1200h-294z" />
    <glyph glyph-name="uni01CA" unicode="&#x1ca;" horiz-adv-x="4262" 
d="M145 0v1350h487l1107 -1187v1187h294v-1350h-475l-1119 1200v-1200h-294zM3191 -16c-274 0 -479 49 -614 149c-135 99 -203 252 -203 457v33h295v-19c0 -146 40 -254 120 -324s214 -104 402 -104s322 34 404 104s123 181 123 332v738h294v-763c0 -198 -69 -348 -205 -450
s-342 -153 -616 -153z" />
    <glyph glyph-name="Nacute" unicode="&#x143;" horiz-adv-x="2267" 
d="M145 0v1350h487l1107 -1187v1187h294v-1350h-475l-1119 1200v-1200h-294zM894 1402l233 195h210l-300 -195h-143z" />
    <glyph glyph-name="Ncaron" unicode="&#x147;" horiz-adv-x="2267" 
d="M145 0v1350h487l1107 -1187v1187h294v-1350h-475l-1119 1200v-1200h-294zM1019 1398l-334 214h197l234 -156l232 156h197l-336 -214h-190z" />
    <glyph glyph-name="uni0145" unicode="&#x145;" horiz-adv-x="2267" 
d="M145 0v1350h487l1107 -1187v1187h294v-1350h-475l-1119 1200v-1200h-294zM940 -373l121 330h170l-182 -330h-109z" />
    <glyph glyph-name="uni1E44" unicode="&#x1e44;" horiz-adv-x="2267" 
d="M145 0v1350h487l1107 -1187v1187h294v-1350h-475l-1119 1200v-1200h-294zM1116 1419c-52 0 -93 41 -93 93c0 51 41 92 93 92c51 0 92 -41 92 -92c0 -52 -41 -93 -92 -93z" />
    <glyph glyph-name="uni1E46" unicode="&#x1e46;" horiz-adv-x="2267" 
d="M145 0v1350h487l1107 -1187v1187h294v-1350h-475l-1119 1200v-1200h-294zM1116 -298c-52 0 -93 41 -93 93c0 51 41 92 93 92c51 0 92 -41 92 -92c0 -52 -41 -93 -92 -93z" />
    <glyph glyph-name="Eng" unicode="&#x14a;" horiz-adv-x="2267" 
d="M1231 -476v185c420 0 496 115 496 291h-169l-1119 1200v-1200h-294v1350h487l1107 -1187v1187h294v-1350h-1c0 -350 -291 -476 -801 -476z" />
    <glyph glyph-name="uni01CB" unicode="&#x1cb;" horiz-adv-x="3070" 
d="M145 0v1350h487l1107 -1187v1187h294v-1350h-475l-1119 1200v-1200h-294zM2038 -460v190c151 0 269 26 352 80s125 148 125 283v1079h290v-1075c0 -206 -65 -351 -196 -433c-131 -83 -322 -124 -571 -124zM2515 1531h290v-216h-290v216z" />
    <glyph glyph-name="uni1E48" unicode="&#x1e48;" horiz-adv-x="2267" 
d="M145 0v1350h487l1107 -1187v1187h294v-1350h-475l-1119 1200v-1200h-294zM642 -245v109h947v-109h-947z" />
    <glyph glyph-name="Ntilde" unicode="&#xd1;" horiz-adv-x="2267" 
d="M145 0v1350h487l1107 -1187v1187h294v-1350h-475l-1119 1200v-1200h-294zM1291 1451c-175 0 -207 101 -325 101c-83 0 -117 -53 -119 -83h-151c4 46 42 201 265 201c163 0 182 -100 318 -100c77 0 112 55 115 84h151c-3 -40 -34 -203 -254 -203z" />
    <glyph glyph-name="O" unicode="O" 
d="M1093 -12c-287 0 -522 58 -706 175c-184 116 -276 287 -276 512s92 396 276 513c183 116 419 175 706 175s523 -59 707 -175c184 -117 276 -288 276 -513s-92 -396 -276 -512c-184 -117 -420 -175 -707 -175zM1093 180c203 0 368 42 496 127c128 84 192 207 192 368
c0 162 -64 285 -192 369s-293 127 -496 127c-202 0 -367 -43 -495 -127s-192 -207 -192 -369c0 -161 64 -284 192 -368c128 -85 293 -127 495 -127z" />
    <glyph glyph-name="Oacute" unicode="&#xd3;" 
d="M1093 -12c-287 0 -522 58 -706 175c-184 116 -276 287 -276 512s92 396 276 513c183 116 419 175 706 175s523 -59 707 -175c184 -117 276 -288 276 -513s-92 -396 -276 -512c-184 -117 -420 -175 -707 -175zM1093 180c203 0 368 42 496 127c128 84 192 207 192 368
c0 162 -64 285 -192 369s-293 127 -496 127c-202 0 -367 -43 -495 -127s-192 -207 -192 -369c0 -161 64 -284 192 -368c128 -85 293 -127 495 -127zM874 1402l233 195h210l-300 -195h-143z" />
    <glyph glyph-name="Obreve" unicode="&#x14e;" 
d="M1093 -12c-287 0 -522 58 -706 175c-184 116 -276 287 -276 512s92 396 276 513c183 116 419 175 706 175s523 -59 707 -175c184 -117 276 -288 276 -513s-92 -396 -276 -512c-184 -117 -420 -175 -707 -175zM1093 180c203 0 368 42 496 127c128 84 192 207 192 368
c0 162 -64 285 -192 369s-293 127 -496 127c-202 0 -367 -43 -495 -127s-192 -207 -192 -369c0 -161 64 -284 192 -368c128 -85 293 -127 495 -127zM1095 1403c-183 0 -312 96 -312 199h142c0 -50 52 -104 170 -104c129 0 171 54 171 104h141c0 -103 -117 -199 -312 -199z
" />
    <glyph glyph-name="uni01D1" unicode="&#x1d1;" 
d="M1093 -12c-287 0 -522 58 -706 175c-184 116 -276 287 -276 512s92 396 276 513c183 116 419 175 706 175s523 -59 707 -175c184 -117 276 -288 276 -513s-92 -396 -276 -512c-184 -117 -420 -175 -707 -175zM1093 180c203 0 368 42 496 127c128 84 192 207 192 368
c0 162 -64 285 -192 369s-293 127 -496 127c-202 0 -367 -43 -495 -127s-192 -207 -192 -369c0 -161 64 -284 192 -368c128 -85 293 -127 495 -127zM999 1398l-334 214h197l234 -156l232 156h197l-336 -214h-190z" />
    <glyph glyph-name="Ocircumflex" unicode="&#xd4;" 
d="M1093 -12c-287 0 -522 58 -706 175c-184 116 -276 287 -276 512s92 396 276 513c183 116 419 175 706 175s523 -59 707 -175c184 -117 276 -288 276 -513s-92 -396 -276 -512c-184 -117 -420 -175 -707 -175zM1093 180c203 0 368 42 496 127c128 84 192 207 192 368
c0 162 -64 285 -192 369s-293 127 -496 127c-202 0 -367 -43 -495 -127s-192 -207 -192 -369c0 -161 64 -284 192 -368c128 -85 293 -127 495 -127zM665 1403l334 214h190l336 -214h-197l-232 156l-234 -156h-197z" />
    <glyph glyph-name="uni1ED0" unicode="&#x1ed0;" 
d="M1093 -12c-287 0 -522 58 -706 175c-184 116 -276 287 -276 512s92 396 276 513c183 116 419 175 706 175s523 -59 707 -175c184 -117 276 -288 276 -513s-92 -396 -276 -512c-184 -117 -420 -175 -707 -175zM1093 180c203 0 368 42 496 127c128 84 192 207 192 368
c0 162 -64 285 -192 369s-293 127 -496 127c-202 0 -367 -43 -495 -127s-192 -207 -192 -369c0 -161 64 -284 192 -368c128 -85 293 -127 495 -127zM665 1403l334 214h190l336 -214h-197l-232 156l-234 -156h-197zM874 1669l233 195h210l-300 -195h-143z" />
    <glyph glyph-name="uni1ED8" unicode="&#x1ed8;" 
d="M1093 -12c-287 0 -522 58 -706 175c-184 116 -276 287 -276 512s92 396 276 513c183 116 419 175 706 175s523 -59 707 -175c184 -117 276 -288 276 -513s-92 -396 -276 -512c-184 -117 -420 -175 -707 -175zM1093 180c203 0 368 42 496 127c128 84 192 207 192 368
c0 162 -64 285 -192 369s-293 127 -496 127c-202 0 -367 -43 -495 -127s-192 -207 -192 -369c0 -161 64 -284 192 -368c128 -85 293 -127 495 -127zM665 1403l334 214h190l336 -214h-197l-232 156l-234 -156h-197zM1096 -298c-52 0 -93 41 -93 93c0 51 41 92 93 92
c51 0 92 -41 92 -92c0 -52 -41 -93 -92 -93z" />
    <glyph glyph-name="uni1ED2" unicode="&#x1ed2;" 
d="M1093 -12c-287 0 -522 58 -706 175c-184 116 -276 287 -276 512s92 396 276 513c183 116 419 175 706 175s523 -59 707 -175c184 -117 276 -288 276 -513s-92 -396 -276 -512c-184 -117 -420 -175 -707 -175zM1093 180c203 0 368 42 496 127c128 84 192 207 192 368
c0 162 -64 285 -192 369s-293 127 -496 127c-202 0 -367 -43 -495 -127s-192 -207 -192 -369c0 -161 64 -284 192 -368c128 -85 293 -127 495 -127zM665 1403l334 214h190l336 -214h-197l-232 156l-234 -156h-197zM1174 1679l-300 195h208l235 -195h-143z" />
    <glyph glyph-name="uni1ED4" unicode="&#x1ed4;" 
d="M1093 -12c-287 0 -522 58 -706 175c-184 116 -276 287 -276 512s92 396 276 513c183 116 419 175 706 175s523 -59 707 -175c184 -117 276 -288 276 -513s-92 -396 -276 -512c-184 -117 -420 -175 -707 -175zM1093 180c203 0 368 42 496 127c128 84 192 207 192 368
c0 162 -64 285 -192 369s-293 127 -496 127c-202 0 -367 -43 -495 -127s-192 -207 -192 -369c0 -161 64 -284 192 -368c128 -85 293 -127 495 -127zM920 1990c368 0 533 -18 533 -119c0 -97 -174 -121 -310 -121v-69h-104v138c155 0 265 7 265 42c0 41 -117 43 -384 43v86z
M665 1403l334 214h190l336 -214h-197l-232 156l-234 -156h-197z" />
    <glyph glyph-name="uni1ED6" unicode="&#x1ed6;" 
d="M1093 -12c-287 0 -522 58 -706 175c-184 116 -276 287 -276 512s92 396 276 513c183 116 419 175 706 175s523 -59 707 -175c184 -117 276 -288 276 -513s-92 -396 -276 -512c-184 -117 -420 -175 -707 -175zM1093 180c203 0 368 42 496 127c128 84 192 207 192 368
c0 162 -64 285 -192 369s-293 127 -496 127c-202 0 -367 -43 -495 -127s-192 -207 -192 -369c0 -161 64 -284 192 -368c128 -85 293 -127 495 -127zM1271 1718c-175 0 -207 101 -325 101c-83 0 -117 -53 -119 -83h-151c4 46 42 201 265 201c163 0 182 -100 318 -100
c77 0 112 55 115 84h151c-3 -40 -34 -203 -254 -203zM665 1403l334 214h190l336 -214h-197l-232 156l-234 -156h-197z" />
    <glyph glyph-name="uni020C" unicode="&#x20c;" 
d="M1093 -12c-287 0 -522 58 -706 175c-184 116 -276 287 -276 512s92 396 276 513c183 116 419 175 706 175s523 -59 707 -175c184 -117 276 -288 276 -513s-92 -396 -276 -512c-184 -117 -420 -175 -707 -175zM1093 180c203 0 368 42 496 127c128 84 192 207 192 368
c0 162 -64 285 -192 369s-293 127 -496 127c-202 0 -367 -43 -495 -127s-192 -207 -192 -369c0 -161 64 -284 192 -368c128 -85 293 -127 495 -127zM1008 1422l-300 195h208l235 -195h-143zM1339 1422l-300 195h208l235 -195h-143z" />
    <glyph glyph-name="Odieresis" unicode="&#xd6;" 
d="M1093 -12c-287 0 -522 58 -706 175c-184 116 -276 287 -276 512s92 396 276 513c183 116 419 175 706 175s523 -59 707 -175c184 -117 276 -288 276 -513s-92 -396 -276 -512c-184 -117 -420 -175 -707 -175zM1093 180c203 0 368 42 496 127c128 84 192 207 192 368
c0 162 -64 285 -192 369s-293 127 -496 127c-202 0 -367 -43 -495 -127s-192 -207 -192 -369c0 -161 64 -284 192 -368c128 -85 293 -127 495 -127zM854 1426c-52 0 -94 42 -94 94s42 94 94 94s94 -42 94 -94s-42 -94 -94 -94zM1330 1426c-52 0 -94 42 -94 94s42 94 94 94
s94 -42 94 -94s-42 -94 -94 -94z" />
    <glyph glyph-name="uni022A" unicode="&#x22a;" 
d="M1093 -12c-287 0 -522 58 -706 175c-184 116 -276 287 -276 512s92 396 276 513c183 116 419 175 706 175s523 -59 707 -175c184 -117 276 -288 276 -513s-92 -396 -276 -512c-184 -117 -420 -175 -707 -175zM1093 180c203 0 368 42 496 127c128 84 192 207 192 368
c0 162 -64 285 -192 369s-293 127 -496 127c-202 0 -367 -43 -495 -127s-192 -207 -192 -369c0 -161 64 -284 192 -368c128 -85 293 -127 495 -127zM622 1748v109h947v-109h-947zM854 1426c-52 0 -94 42 -94 94s42 94 94 94s94 -42 94 -94s-42 -94 -94 -94zM1330 1426
c-52 0 -94 42 -94 94s42 94 94 94s94 -42 94 -94s-42 -94 -94 -94z" />
    <glyph glyph-name="uni0230" unicode="&#x230;" 
d="M1093 -12c-287 0 -522 58 -706 175c-184 116 -276 287 -276 512s92 396 276 513c183 116 419 175 706 175s523 -59 707 -175c184 -117 276 -288 276 -513s-92 -396 -276 -512c-184 -117 -420 -175 -707 -175zM1093 180c203 0 368 42 496 127c128 84 192 207 192 368
c0 162 -64 285 -192 369s-293 127 -496 127c-202 0 -367 -43 -495 -127s-192 -207 -192 -369c0 -161 64 -284 192 -368c128 -85 293 -127 495 -127zM622 1737v109h947v-109h-947zM1096 1419c-52 0 -93 41 -93 93c0 51 41 92 93 92c51 0 92 -41 92 -92c0 -52 -41 -93 -92 -93
z" />
    <glyph glyph-name="uni1ECC" unicode="&#x1ecc;" 
d="M1093 -12c-287 0 -522 58 -706 175c-184 116 -276 287 -276 512s92 396 276 513c183 116 419 175 706 175s523 -59 707 -175c184 -117 276 -288 276 -513s-92 -396 -276 -512c-184 -117 -420 -175 -707 -175zM1093 180c203 0 368 42 496 127c128 84 192 207 192 368
c0 162 -64 285 -192 369s-293 127 -496 127c-202 0 -367 -43 -495 -127s-192 -207 -192 -369c0 -161 64 -284 192 -368c128 -85 293 -127 495 -127zM1096 -298c-52 0 -93 41 -93 93c0 51 41 92 93 92c51 0 92 -41 92 -92c0 -52 -41 -93 -92 -93z" />
    <glyph glyph-name="Ograve" unicode="&#xd2;" 
d="M1093 -12c-287 0 -522 58 -706 175c-184 116 -276 287 -276 512s92 396 276 513c183 116 419 175 706 175s523 -59 707 -175c184 -117 276 -288 276 -513s-92 -396 -276 -512c-184 -117 -420 -175 -707 -175zM1093 180c203 0 368 42 496 127c128 84 192 207 192 368
c0 162 -64 285 -192 369s-293 127 -496 127c-202 0 -367 -43 -495 -127s-192 -207 -192 -369c0 -161 64 -284 192 -368c128 -85 293 -127 495 -127zM1174 1412l-300 195h208l235 -195h-143z" />
    <glyph glyph-name="uni1ECE" unicode="&#x1ece;" 
d="M1093 -12c-287 0 -522 58 -706 175c-184 116 -276 287 -276 512s92 396 276 513c183 116 419 175 706 175s523 -59 707 -175c184 -117 276 -288 276 -513s-92 -396 -276 -512c-184 -117 -420 -175 -707 -175zM1093 180c203 0 368 42 496 127c128 84 192 207 192 368
c0 162 -64 285 -192 369s-293 127 -496 127c-202 0 -367 -43 -495 -127s-192 -207 -192 -369c0 -161 64 -284 192 -368c128 -85 293 -127 495 -127zM920 1723c368 0 533 -18 533 -119c0 -97 -174 -121 -310 -121v-69h-104v138c155 0 265 7 265 42c0 41 -117 43 -384 43v86z
" />
    <glyph glyph-name="Ohorn" unicode="&#x1a0;" 
d="M1093 -12c-287 0 -522 58 -706 175c-184 116 -276 287 -276 512s92 396 276 513c183 116 419 175 706 175c252 0 464 -45 636 -135c234 3 331 39 331 177h179c0 -157 -134 -241 -370 -267c138 -114 207 -268 207 -463c0 -225 -92 -396 -276 -512
c-184 -117 -420 -175 -707 -175zM1093 180c203 0 368 42 496 127c128 84 192 207 192 368c0 162 -64 285 -192 369s-293 127 -496 127c-202 0 -367 -43 -495 -127s-192 -207 -192 -369c0 -161 64 -284 192 -368c128 -85 293 -127 495 -127z" />
    <glyph glyph-name="uni1EDA" unicode="&#x1eda;" 
d="M1093 -12c-287 0 -522 58 -706 175c-184 116 -276 287 -276 512s92 396 276 513c183 116 419 175 706 175c252 0 464 -45 636 -135c234 3 331 39 331 177h179c0 -157 -134 -241 -370 -267c138 -114 207 -268 207 -463c0 -225 -92 -396 -276 -512
c-184 -117 -420 -175 -707 -175zM1093 180c203 0 368 42 496 127c128 84 192 207 192 368c0 162 -64 285 -192 369s-293 127 -496 127c-202 0 -367 -43 -495 -127s-192 -207 -192 -369c0 -161 64 -284 192 -368c128 -85 293 -127 495 -127zM874 1402l233 195h210l-300 -195
h-143z" />
    <glyph glyph-name="uni1EE2" unicode="&#x1ee2;" 
d="M1093 -12c-287 0 -522 58 -706 175c-184 116 -276 287 -276 512s92 396 276 513c183 116 419 175 706 175c252 0 464 -45 636 -135c234 3 331 39 331 177h179c0 -157 -134 -241 -370 -267c138 -114 207 -268 207 -463c0 -225 -92 -396 -276 -512
c-184 -117 -420 -175 -707 -175zM1093 180c203 0 368 42 496 127c128 84 192 207 192 368c0 162 -64 285 -192 369s-293 127 -496 127c-202 0 -367 -43 -495 -127s-192 -207 -192 -369c0 -161 64 -284 192 -368c128 -85 293 -127 495 -127zM1096 -298c-52 0 -93 41 -93 93
c0 51 41 92 93 92c51 0 92 -41 92 -92c0 -52 -41 -93 -92 -93z" />
    <glyph glyph-name="uni1EDC" unicode="&#x1edc;" 
d="M1093 -12c-287 0 -522 58 -706 175c-184 116 -276 287 -276 512s92 396 276 513c183 116 419 175 706 175c252 0 464 -45 636 -135c234 3 331 39 331 177h179c0 -157 -134 -241 -370 -267c138 -114 207 -268 207 -463c0 -225 -92 -396 -276 -512
c-184 -117 -420 -175 -707 -175zM1093 180c203 0 368 42 496 127c128 84 192 207 192 368c0 162 -64 285 -192 369s-293 127 -496 127c-202 0 -367 -43 -495 -127s-192 -207 -192 -369c0 -161 64 -284 192 -368c128 -85 293 -127 495 -127zM1174 1412l-300 195h208l235 -195
h-143z" />
    <glyph glyph-name="uni1EDE" unicode="&#x1ede;" 
d="M1093 -12c-287 0 -522 58 -706 175c-184 116 -276 287 -276 512s92 396 276 513c183 116 419 175 706 175c252 0 464 -45 636 -135c234 3 331 39 331 177h179c0 -157 -134 -241 -370 -267c138 -114 207 -268 207 -463c0 -225 -92 -396 -276 -512
c-184 -117 -420 -175 -707 -175zM1093 180c203 0 368 42 496 127c128 84 192 207 192 368c0 162 -64 285 -192 369s-293 127 -496 127c-202 0 -367 -43 -495 -127s-192 -207 -192 -369c0 -161 64 -284 192 -368c128 -85 293 -127 495 -127zM920 1723c368 0 533 -18 533 -119
c0 -97 -174 -121 -310 -121v-69h-104v138c155 0 265 7 265 42c0 41 -117 43 -384 43v86z" />
    <glyph glyph-name="uni1EE0" unicode="&#x1ee0;" 
d="M1093 -12c-287 0 -522 58 -706 175c-184 116 -276 287 -276 512s92 396 276 513c183 116 419 175 706 175c252 0 464 -45 636 -135c234 3 331 39 331 177h179c0 -157 -134 -241 -370 -267c138 -114 207 -268 207 -463c0 -225 -92 -396 -276 -512
c-184 -117 -420 -175 -707 -175zM1093 180c203 0 368 42 496 127c128 84 192 207 192 368c0 162 -64 285 -192 369s-293 127 -496 127c-202 0 -367 -43 -495 -127s-192 -207 -192 -369c0 -161 64 -284 192 -368c128 -85 293 -127 495 -127zM1271 1451
c-175 0 -207 101 -325 101c-83 0 -117 -53 -119 -83h-151c4 46 42 201 265 201c163 0 182 -100 318 -100c77 0 112 55 115 84h151c-3 -40 -34 -203 -254 -203z" />
    <glyph glyph-name="Ohungarumlaut" unicode="&#x150;" 
d="M1093 -12c-287 0 -522 58 -706 175c-184 116 -276 287 -276 512s92 396 276 513c183 116 419 175 706 175s523 -59 707 -175c184 -117 276 -288 276 -513s-92 -396 -276 -512c-184 -117 -420 -175 -707 -175zM1093 180c203 0 368 42 496 127c128 84 192 207 192 368
c0 162 -64 285 -192 369s-293 127 -496 127c-202 0 -367 -43 -495 -127s-192 -207 -192 -369c0 -161 64 -284 192 -368c128 -85 293 -127 495 -127zM1102 1430l202 182h198l-273 -182h-127zM689 1430l200 182h190l-263 -182h-127z" />
    <glyph glyph-name="uni020E" unicode="&#x20e;" 
d="M1093 -12c-287 0 -522 58 -706 175c-184 116 -276 287 -276 512s92 396 276 513c183 116 419 175 706 175s523 -59 707 -175c184 -117 276 -288 276 -513s-92 -396 -276 -512c-184 -117 -420 -175 -707 -175zM1093 180c203 0 368 42 496 127c128 84 192 207 192 368
c0 162 -64 285 -192 369s-293 127 -496 127c-202 0 -367 -43 -495 -127s-192 -207 -192 -369c0 -161 64 -284 192 -368c128 -85 293 -127 495 -127zM1095 1636c183 0 312 -96 312 -199h-142c0 50 -52 104 -170 104c-129 0 -171 -54 -171 -104h-141c0 103 117 199 312 199z
" />
    <glyph glyph-name="Omacron" unicode="&#x14c;" 
d="M1093 -12c-287 0 -522 58 -706 175c-184 116 -276 287 -276 512s92 396 276 513c183 116 419 175 706 175s523 -59 707 -175c184 -117 276 -288 276 -513s-92 -396 -276 -512c-184 -117 -420 -175 -707 -175zM1093 180c203 0 368 42 496 127c128 84 192 207 192 368
c0 162 -64 285 -192 369s-293 127 -496 127c-202 0 -367 -43 -495 -127s-192 -207 -192 -369c0 -161 64 -284 192 -368c128 -85 293 -127 495 -127zM622 1483v109h947v-109h-947z" />
    <glyph glyph-name="uni1E52" unicode="&#x1e52;" 
d="M1093 -12c-287 0 -522 58 -706 175c-184 116 -276 287 -276 512s92 396 276 513c183 116 419 175 706 175s523 -59 707 -175c184 -117 276 -288 276 -513s-92 -396 -276 -512c-184 -117 -420 -175 -707 -175zM1093 180c203 0 368 42 496 127c128 84 192 207 192 368
c0 162 -64 285 -192 369s-293 127 -496 127c-202 0 -367 -43 -495 -127s-192 -207 -192 -369c0 -161 64 -284 192 -368c128 -85 293 -127 495 -127zM622 1483v109h947v-109h-947zM874 1644l233 195h210l-300 -195h-143z" />
    <glyph glyph-name="uni1E50" unicode="&#x1e50;" 
d="M1093 -12c-287 0 -522 58 -706 175c-184 116 -276 287 -276 512s92 396 276 513c183 116 419 175 706 175s523 -59 707 -175c184 -117 276 -288 276 -513s-92 -396 -276 -512c-184 -117 -420 -175 -707 -175zM1093 180c203 0 368 42 496 127c128 84 192 207 192 368
c0 162 -64 285 -192 369s-293 127 -496 127c-202 0 -367 -43 -495 -127s-192 -207 -192 -369c0 -161 64 -284 192 -368c128 -85 293 -127 495 -127zM622 1483v109h947v-109h-947zM1174 1654l-300 195h208l235 -195h-143z" />
    <glyph glyph-name="uni01EA" unicode="&#x1ea;" 
d="M1098 -366c-119 0 -221 44 -221 159c0 88 51 162 88 199c-230 15 -423 72 -578 171c-184 116 -276 287 -276 512s92 396 276 513c183 116 419 175 706 175s523 -59 707 -175c184 -117 276 -288 276 -513s-92 -396 -276 -512c-181 -115 -413 -173 -694 -175
c-27 -33 -66 -102 -66 -146c0 -42 30 -73 106 -73c72 0 168 22 206 37l4 -136c-33 -14 -149 -36 -258 -36zM1093 180c203 0 368 42 496 127c128 84 192 207 192 368c0 162 -64 285 -192 369s-293 127 -496 127c-202 0 -367 -43 -495 -127s-192 -207 -192 -369
c0 -161 64 -284 192 -368c128 -85 293 -127 495 -127z" />
    <glyph glyph-name="Oslash" unicode="&#xd8;" horiz-adv-x="2004" 
d="M109 0l235 192c-155 115 -233 276 -233 483c0 225 92 396 276 513c183 116 419 175 706 175c216 0 403 -34 561 -100l104 85h203l-181 -148c7 -4 13 -8 20 -12c184 -117 276 -288 276 -513s-92 -396 -276 -512c-184 -117 -420 -175 -707 -175c-249 0 -459 44 -630 131
l-146 -119h-208zM1093 180c203 0 368 42 496 127c128 84 192 207 192 368s-64 284 -191 368l-938 -768c119 -63 266 -95 441 -95zM539 352l925 756c-105 42 -229 63 -371 63c-202 0 -367 -43 -495 -127s-192 -207 -192 -369c0 -134 44 -242 133 -323z" />
    <glyph glyph-name="Oslashacute" unicode="&#x1fe;" horiz-adv-x="2004" 
d="M109 0l235 192c-155 115 -233 276 -233 483c0 225 92 396 276 513c183 116 419 175 706 175c216 0 403 -34 561 -100l104 85h203l-181 -148c7 -4 13 -8 20 -12c184 -117 276 -288 276 -513s-92 -396 -276 -512c-184 -117 -420 -175 -707 -175c-249 0 -459 44 -630 131
l-146 -119h-208zM1093 180c203 0 368 42 496 127c128 84 192 207 192 368s-64 284 -191 368l-938 -768c119 -63 266 -95 441 -95zM539 352l925 756c-105 42 -229 63 -371 63c-202 0 -367 -43 -495 -127s-192 -207 -192 -369c0 -134 44 -242 133 -323zM842 1402l233 195h210
l-300 -195h-143z" />
    <glyph glyph-name="Otilde" unicode="&#xd5;" 
d="M1093 -12c-287 0 -522 58 -706 175c-184 116 -276 287 -276 512s92 396 276 513c183 116 419 175 706 175s523 -59 707 -175c184 -117 276 -288 276 -513s-92 -396 -276 -512c-184 -117 -420 -175 -707 -175zM1093 180c203 0 368 42 496 127c128 84 192 207 192 368
c0 162 -64 285 -192 369s-293 127 -496 127c-202 0 -367 -43 -495 -127s-192 -207 -192 -369c0 -161 64 -284 192 -368c128 -85 293 -127 495 -127zM1271 1451c-175 0 -207 101 -325 101c-83 0 -117 -53 -119 -83h-151c4 46 42 201 265 201c163 0 182 -100 318 -100
c77 0 112 55 115 84h151c-3 -40 -34 -203 -254 -203z" />
    <glyph glyph-name="uni1E4C" unicode="&#x1e4c;" 
d="M1093 -12c-287 0 -522 58 -706 175c-184 116 -276 287 -276 512s92 396 276 513c183 116 419 175 706 175s523 -59 707 -175c184 -117 276 -288 276 -513s-92 -396 -276 -512c-184 -117 -420 -175 -707 -175zM1093 180c203 0 368 42 496 127c128 84 192 207 192 368
c0 162 -64 285 -192 369s-293 127 -496 127c-202 0 -367 -43 -495 -127s-192 -207 -192 -369c0 -161 64 -284 192 -368c128 -85 293 -127 495 -127zM1271 1451c-175 0 -207 101 -325 101c-83 0 -117 -53 -119 -83h-151c4 46 42 201 265 201c163 0 182 -100 318 -100
c77 0 112 55 115 84h151c-3 -40 -34 -203 -254 -203zM874 1718l233 195h210l-300 -195h-143z" />
    <glyph glyph-name="uni1E4E" unicode="&#x1e4e;" 
d="M1093 -12c-287 0 -522 58 -706 175c-184 116 -276 287 -276 512s92 396 276 513c183 116 419 175 706 175s523 -59 707 -175c184 -117 276 -288 276 -513s-92 -396 -276 -512c-184 -117 -420 -175 -707 -175zM1093 180c203 0 368 42 496 127c128 84 192 207 192 368
c0 162 -64 285 -192 369s-293 127 -496 127c-202 0 -367 -43 -495 -127s-192 -207 -192 -369c0 -161 64 -284 192 -368c128 -85 293 -127 495 -127zM1271 1451c-175 0 -207 101 -325 101c-83 0 -117 -53 -119 -83h-151c4 46 42 201 265 201c163 0 182 -100 318 -100
c77 0 112 55 115 84h151c-3 -40 -34 -203 -254 -203zM854 1742c-52 0 -94 42 -94 94s42 94 94 94s94 -42 94 -94s-42 -94 -94 -94zM1330 1742c-52 0 -94 42 -94 94s42 94 94 94s94 -42 94 -94s-42 -94 -94 -94z" />
    <glyph glyph-name="uni022C" unicode="&#x22c;" 
d="M1093 -12c-287 0 -522 58 -706 175c-184 116 -276 287 -276 512s92 396 276 513c183 116 419 175 706 175s523 -59 707 -175c184 -117 276 -288 276 -513s-92 -396 -276 -512c-184 -117 -420 -175 -707 -175zM1093 180c203 0 368 42 496 127c128 84 192 207 192 368
c0 162 -64 285 -192 369s-293 127 -496 127c-202 0 -367 -43 -495 -127s-192 -207 -192 -369c0 -161 64 -284 192 -368c128 -85 293 -127 495 -127zM1271 1451c-175 0 -207 101 -325 101c-83 0 -117 -53 -119 -83h-151c4 46 42 201 265 201c163 0 182 -100 318 -100
c77 0 112 55 115 84h151c-3 -40 -34 -203 -254 -203zM622 1799v109h947v-109h-947z" />
    <glyph glyph-name="OE" unicode="&#x152;" horiz-adv-x="3529" 
d="M1093 -12c-287 0 -522 58 -706 175c-184 116 -276 287 -276 512s92 396 276 513c183 116 419 175 706 175c279 0 510 -55 691 -165v152h1559v-192h-1265v-381h1180v-179h-1180v-406h1265v-192h-1559v153c-181 -110 -412 -165 -691 -165zM1093 180c203 0 368 42 496 127
c128 84 192 207 192 368c0 162 -64 285 -192 369s-293 127 -496 127c-202 0 -367 -43 -495 -127s-192 -207 -192 -369c0 -161 64 -284 192 -368c128 -85 293 -127 495 -127z" />
    <glyph glyph-name="P" unicode="P" horiz-adv-x="1918" 
d="M145 0v1350h999c211 0 369 -39 473 -118c105 -78 157 -197 157 -356c0 -160 -52 -280 -156 -358c-105 -78 -263 -117 -474 -117h-705v-401h-294zM439 593h630c143 0 248 23 314 69c67 46 100 117 100 214c0 95 -33 166 -99 213c-67 46 -172 69 -315 69h-630v-565z" />
    <glyph glyph-name="Thorn" unicode="&#xde;" horiz-adv-x="1859" 
d="M151 0v1350h290v-218h814c318 0 436 -151 436 -366v-173c0 -226 -109 -365 -436 -365h-814v-228h-290zM441 419h714c187 0 245 104 245 212v94c0 114 -54 215 -245 215h-714v-521z" />
    <glyph glyph-name="Q" unicode="Q" 
d="M1817 -299l-287 343c-129 -37 -275 -56 -437 -56c-287 0 -522 58 -706 175c-184 116 -276 287 -276 512s92 396 276 513c183 116 419 175 706 175s523 -59 707 -175c184 -117 276 -288 276 -513s-92 -396 -276 -512c-12 -7 -23 -14 -35 -21l263 -313zM1093 180
c203 0 368 42 496 127c128 84 192 207 192 368c0 162 -64 285 -192 369s-293 127 -496 127c-202 0 -367 -43 -495 -127s-192 -207 -192 -369c0 -161 64 -284 192 -368c128 -85 293 -127 495 -127z" />
    <glyph glyph-name="R" unicode="R" horiz-adv-x="1975" 
d="M145 0v1350h1120c174 0 307 -33 398 -100s136 -169 136 -306c0 -136 -47 -238 -141 -306c-74 -53 -173 -86 -299 -97l459 -541h-334l-428 536h-617v-536h-294zM439 717h734c117 0 201 18 253 56s78 93 78 165s-26 126 -78 164c-52 37 -136 56 -253 56h-734v-441z" />
    <glyph glyph-name="Racute" unicode="&#x154;" horiz-adv-x="1975" 
d="M145 0v1350h1120c174 0 307 -33 398 -100s136 -169 136 -306c0 -136 -47 -238 -141 -306c-74 -53 -173 -86 -299 -97l459 -541h-334l-428 536h-617v-536h-294zM439 717h734c117 0 201 18 253 56s78 93 78 165s-26 126 -78 164c-52 37 -136 56 -253 56h-734v-441z
M735 1402l233 195h210l-300 -195h-143z" />
    <glyph glyph-name="Rcaron" unicode="&#x158;" horiz-adv-x="1975" 
d="M145 0v1350h1120c174 0 307 -33 398 -100s136 -169 136 -306c0 -136 -47 -238 -141 -306c-74 -53 -173 -86 -299 -97l459 -541h-334l-428 536h-617v-536h-294zM439 717h734c117 0 201 18 253 56s78 93 78 165s-26 126 -78 164c-52 37 -136 56 -253 56h-734v-441z
M861 1398l-334 214h196l235 -156l231 156h198l-336 -214h-190z" />
    <glyph glyph-name="uni0156" unicode="&#x156;" horiz-adv-x="1975" 
d="M145 0v1350h1120c174 0 307 -33 398 -100s136 -169 136 -306c0 -136 -47 -238 -141 -306c-74 -53 -173 -86 -299 -97l459 -541h-334l-428 536h-617v-536h-294zM439 717h734c117 0 201 18 253 56s78 93 78 165s-26 126 -78 164c-52 37 -136 56 -253 56h-734v-441z
M781 -373l122 330h169l-181 -330h-110z" />
    <glyph glyph-name="uni0210" unicode="&#x210;" horiz-adv-x="1975" 
d="M145 0v1350h1120c174 0 307 -33 398 -100s136 -169 136 -306c0 -136 -47 -238 -141 -306c-74 -53 -173 -86 -299 -97l459 -541h-334l-428 536h-617v-536h-294zM439 717h734c117 0 201 18 253 56s78 93 78 165s-26 126 -78 164c-52 37 -136 56 -253 56h-734v-441z
M869 1422l-300 195h208l235 -195h-143zM1201 1422l-300 195h208l235 -195h-143z" />
    <glyph glyph-name="uni1E5A" unicode="&#x1e5a;" horiz-adv-x="1975" 
d="M145 0v1350h1120c174 0 307 -33 398 -100s136 -169 136 -306c0 -136 -47 -238 -141 -306c-74 -53 -173 -86 -299 -97l459 -541h-334l-428 536h-617v-536h-294zM439 717h734c117 0 201 18 253 56s78 93 78 165s-26 126 -78 164c-52 37 -136 56 -253 56h-734v-441z
M957 -298c-52 0 -93 41 -93 93c0 51 41 92 93 92c51 0 92 -41 92 -92c0 -52 -41 -93 -92 -93z" />
    <glyph glyph-name="uni0212" unicode="&#x212;" horiz-adv-x="1975" 
d="M145 0v1350h1120c174 0 307 -33 398 -100s136 -169 136 -306c0 -136 -47 -238 -141 -306c-74 -53 -173 -86 -299 -97l459 -541h-334l-428 536h-617v-536h-294zM439 717h734c117 0 201 18 253 56s78 93 78 165s-26 126 -78 164c-52 37 -136 56 -253 56h-734v-441z
M956 1636c183 0 312 -96 312 -199h-142c0 50 -52 104 -170 104c-129 0 -171 -54 -171 -104h-141c0 103 117 199 312 199z" />
    <glyph glyph-name="uni1E5E" unicode="&#x1e5e;" horiz-adv-x="1975" 
d="M145 0v1350h1120c174 0 307 -33 398 -100s136 -169 136 -306c0 -136 -47 -238 -141 -306c-74 -53 -173 -86 -299 -97l459 -541h-334l-428 536h-617v-536h-294zM439 717h734c117 0 201 18 253 56s78 93 78 165s-26 126 -78 164c-52 37 -136 56 -253 56h-734v-441z
M483 -245v109h947v-109h-947z" />
    <glyph glyph-name="S" unicode="S" horiz-adv-x="2045" 
d="M994 -7c-282 0 -501 38 -656 114c-156 76 -233 201 -233 376h295c0 -104 53 -180 159 -228s250 -71 432 -71c178 0 322 16 430 49s162 82 162 146s-66 107 -198 131s-301 51 -505 82c-258 33 -452 75 -581 126s-193 136 -193 255c0 138 80 237 240 298s373 92 639 92
c274 0 489 -38 647 -112c157 -75 236 -197 236 -367h-295c0 104 -55 178 -165 222s-252 66 -427 66c-181 0 -325 -16 -434 -48c-108 -32 -162 -78 -162 -139c0 -62 66 -107 199 -133c133 -27 298 -55 495 -84c271 -35 470 -76 598 -123c127 -48 191 -129 191 -244
c0 -145 -78 -249 -235 -313s-370 -95 -639 -95z" />
    <glyph glyph-name="Sacute" unicode="&#x15a;" horiz-adv-x="2045" 
d="M994 -7c-282 0 -501 38 -656 114c-156 76 -233 201 -233 376h295c0 -104 53 -180 159 -228s250 -71 432 -71c178 0 322 16 430 49s162 82 162 146s-66 107 -198 131s-301 51 -505 82c-258 33 -452 75 -581 126s-193 136 -193 255c0 138 80 237 240 298s373 92 639 92
c274 0 489 -38 647 -112c157 -75 236 -197 236 -367h-295c0 104 -55 178 -165 222s-252 66 -427 66c-181 0 -325 -16 -434 -48c-108 -32 -162 -78 -162 -139c0 -62 66 -107 199 -133c133 -27 298 -55 495 -84c271 -35 470 -76 598 -123c127 -48 191 -129 191 -244
c0 -145 -78 -249 -235 -313s-370 -95 -639 -95zM769 1502l233 195h210l-300 -195h-143z" />
    <glyph glyph-name="uni1E64" unicode="&#x1e64;" horiz-adv-x="2045" 
d="M994 -7c-282 0 -501 38 -656 114c-156 76 -233 201 -233 376h295c0 -104 53 -180 159 -228s250 -71 432 -71c178 0 322 16 430 49s162 82 162 146s-66 107 -198 131s-301 51 -505 82c-258 33 -452 75 -581 126s-193 136 -193 255c0 138 80 237 240 298s373 92 639 92
c274 0 489 -38 647 -112c157 -75 236 -197 236 -367h-295c0 104 -55 178 -165 222s-252 66 -427 66c-181 0 -325 -16 -434 -48c-108 -32 -162 -78 -162 -139c0 -62 66 -107 199 -133c133 -27 298 -55 495 -84c271 -35 470 -76 598 -123c127 -48 191 -129 191 -244
c0 -145 -78 -249 -235 -313s-370 -95 -639 -95zM777 1402l233 195h210l-300 -195h-143zM999 1666c-52 0 -93 41 -93 93c0 51 41 92 93 92c51 0 92 -41 92 -92c0 -52 -41 -93 -92 -93z" />
    <glyph glyph-name="Scaron" unicode="&#x160;" horiz-adv-x="2045" 
d="M994 -7c-282 0 -501 38 -656 114c-156 76 -233 201 -233 376h295c0 -104 53 -180 159 -228s250 -71 432 -71c178 0 322 16 430 49s162 82 162 146s-66 107 -198 131s-301 51 -505 82c-258 33 -452 75 -581 126s-193 136 -193 255c0 138 80 237 240 298s373 92 639 92
c274 0 489 -38 647 -112c157 -75 236 -197 236 -367h-295c0 104 -55 178 -165 222s-252 66 -427 66c-181 0 -325 -16 -434 -48c-108 -32 -162 -78 -162 -139c0 -62 66 -107 199 -133c133 -27 298 -55 495 -84c271 -35 470 -76 598 -123c127 -48 191 -129 191 -244
c0 -145 -78 -249 -235 -313s-370 -95 -639 -95zM888 1488l-334 214h197l234 -156l232 156h197l-336 -214h-190z" />
    <glyph glyph-name="uni1E66" unicode="&#x1e66;" horiz-adv-x="2045" 
d="M994 -7c-282 0 -501 38 -656 114c-156 76 -233 201 -233 376h295c0 -104 53 -180 159 -228s250 -71 432 -71c178 0 322 16 430 49s162 82 162 146s-66 107 -198 131s-301 51 -505 82c-258 33 -452 75 -581 126s-193 136 -193 255c0 138 80 237 240 298s373 92 639 92
c274 0 489 -38 647 -112c157 -75 236 -197 236 -367h-295c0 104 -55 178 -165 222s-252 66 -427 66c-181 0 -325 -16 -434 -48c-108 -32 -162 -78 -162 -139c0 -62 66 -107 199 -133c133 -27 298 -55 495 -84c271 -35 470 -76 598 -123c127 -48 191 -129 191 -244
c0 -145 -78 -249 -235 -313s-370 -95 -639 -95zM902 1398l-334 214h197l234 -156l232 156h197l-336 -214h-190zM999 1681c-52 0 -93 41 -93 93c0 51 41 92 93 92c51 0 92 -41 92 -92c0 -52 -41 -93 -92 -93z" />
    <glyph glyph-name="Scedilla" unicode="&#x15e;" horiz-adv-x="2045" 
d="M1005 -350c-78 0 -154 9 -229 25l45 123c49 -12 113 -23 188 -23c110 0 167 23 167 63c0 30 -30 42 -83 42c-49 0 -107 -19 -145 -36l-105 12l49 138c-233 9 -418 46 -554 113c-156 76 -233 201 -233 376h295c0 -104 53 -180 159 -228s250 -71 432 -71
c178 0 322 16 430 49s162 82 162 146s-66 107 -198 131s-301 51 -505 82c-258 33 -452 75 -581 126s-193 136 -193 255c0 138 80 237 240 298s373 92 639 92c274 0 489 -38 647 -112c157 -75 236 -197 236 -367h-295c0 104 -55 178 -165 222s-252 66 -427 66
c-181 0 -325 -16 -434 -48c-108 -32 -162 -78 -162 -139c0 -62 66 -107 199 -133c133 -27 298 -55 495 -84c271 -35 470 -76 598 -123c127 -48 191 -129 191 -244c0 -145 -78 -249 -235 -313c-154 -62 -362 -94 -623 -95l-38 -90c46 26 127 46 202 46
c108 0 189 -39 189 -119c0 -124 -184 -180 -358 -180z" />
    <glyph glyph-name="Scircumflex" unicode="&#x15c;" horiz-adv-x="2045" 
d="M994 -7c-282 0 -501 38 -656 114c-156 76 -233 201 -233 376h295c0 -104 53 -180 159 -228s250 -71 432 -71c178 0 322 16 430 49s162 82 162 146s-66 107 -198 131s-301 51 -505 82c-258 33 -452 75 -581 126s-193 136 -193 255c0 138 80 237 240 298s373 92 639 92
c274 0 489 -38 647 -112c157 -75 236 -197 236 -367h-295c0 104 -55 178 -165 222s-252 66 -427 66c-181 0 -325 -16 -434 -48c-108 -32 -162 -78 -162 -139c0 -62 66 -107 199 -133c133 -27 298 -55 495 -84c271 -35 470 -76 598 -123c127 -48 191 -129 191 -244
c0 -145 -78 -249 -235 -313s-370 -95 -639 -95zM568 1403l334 214h190l336 -214h-197l-232 156l-234 -156h-197z" />
    <glyph glyph-name="uni0218" unicode="&#x218;" horiz-adv-x="2045" 
d="M994 -7c-282 0 -501 38 -656 114c-156 76 -233 201 -233 376h295c0 -104 53 -180 159 -228s250 -71 432 -71c178 0 322 16 430 49s162 82 162 146s-66 107 -198 131s-301 51 -505 82c-258 33 -452 75 -581 126s-193 136 -193 255c0 138 80 237 240 298s373 92 639 92
c274 0 489 -38 647 -112c157 -75 236 -197 236 -367h-295c0 104 -55 178 -165 222s-252 66 -427 66c-181 0 -325 -16 -434 -48c-108 -32 -162 -78 -162 -139c0 -62 66 -107 199 -133c133 -27 298 -55 495 -84c271 -35 470 -76 598 -123c127 -48 191 -129 191 -244
c0 -145 -78 -249 -235 -313s-370 -95 -639 -95zM784 -375l121 331h170l-182 -331h-109z" />
    <glyph glyph-name="uni1E60" unicode="&#x1e60;" horiz-adv-x="2045" 
d="M994 -7c-282 0 -501 38 -656 114c-156 76 -233 201 -233 376h295c0 -104 53 -180 159 -228s250 -71 432 -71c178 0 322 16 430 49s162 82 162 146s-66 107 -198 131s-301 51 -505 82c-258 33 -452 75 -581 126s-193 136 -193 255c0 138 80 237 240 298s373 92 639 92
c274 0 489 -38 647 -112c157 -75 236 -197 236 -367h-295c0 104 -55 178 -165 222s-252 66 -427 66c-181 0 -325 -16 -434 -48c-108 -32 -162 -78 -162 -139c0 -62 66 -107 199 -133c133 -27 298 -55 495 -84c271 -35 470 -76 598 -123c127 -48 191 -129 191 -244
c0 -145 -78 -249 -235 -313s-370 -95 -639 -95zM999 1419c-52 0 -93 41 -93 93c0 51 41 92 93 92c51 0 92 -41 92 -92c0 -52 -41 -93 -92 -93z" />
    <glyph glyph-name="uni1E62" unicode="&#x1e62;" horiz-adv-x="2045" 
d="M994 -7c-282 0 -501 38 -656 114c-156 76 -233 201 -233 376h295c0 -104 53 -180 159 -228s250 -71 432 -71c178 0 322 16 430 49s162 82 162 146s-66 107 -198 131s-301 51 -505 82c-258 33 -452 75 -581 126s-193 136 -193 255c0 138 80 237 240 298s373 92 639 92
c274 0 489 -38 647 -112c157 -75 236 -197 236 -367h-295c0 104 -55 178 -165 222s-252 66 -427 66c-181 0 -325 -16 -434 -48c-108 -32 -162 -78 -162 -139c0 -62 66 -107 199 -133c133 -27 298 -55 495 -84c271 -35 470 -76 598 -123c127 -48 191 -129 191 -244
c0 -145 -78 -249 -235 -313s-370 -95 -639 -95zM999 -298c-52 0 -93 41 -93 93c0 51 41 92 93 92c51 0 92 -41 92 -92c0 -52 -41 -93 -92 -93z" />
    <glyph glyph-name="uni1E68" unicode="&#x1e68;" horiz-adv-x="2045" 
d="M994 -7c-282 0 -501 38 -656 114c-156 76 -233 201 -233 376h295c0 -104 53 -180 159 -228s250 -71 432 -71c178 0 322 16 430 49s162 82 162 146s-66 107 -198 131s-301 51 -505 82c-258 33 -452 75 -581 126s-193 136 -193 255c0 138 80 237 240 298s373 92 639 92
c274 0 489 -38 647 -112c157 -75 236 -197 236 -367h-295c0 104 -55 178 -165 222s-252 66 -427 66c-181 0 -325 -16 -434 -48c-108 -32 -162 -78 -162 -139c0 -62 66 -107 199 -133c133 -27 298 -55 495 -84c271 -35 470 -76 598 -123c127 -48 191 -129 191 -244
c0 -145 -78 -249 -235 -313s-370 -95 -639 -95zM999 -298c-52 0 -93 41 -93 93c0 51 41 92 93 92c51 0 92 -41 92 -92c0 -52 -41 -93 -92 -93zM999 1419c-52 0 -93 41 -93 93c0 51 41 92 93 92c51 0 92 -41 92 -92c0 -52 -41 -93 -92 -93z" />
    <glyph glyph-name="uni1E9E" unicode="&#x1e9e;" horiz-adv-x="1883" 
d="M145 0v1350h1456v-191l-660 -390c563 5 765 -70 765 -368c0 -290 -198 -424 -1017 -401v183c561 -23 719 46 719 239c0 212 -211 248 -719 242v155l554 329h-807v-1148h-291z" />
    <glyph glyph-name="uni018F" unicode="&#x18f;" horiz-adv-x="1971" 
d="M967 -11c-247 0 -452 55 -613 166c-162 111 -243 282 -243 515c0 35 3 64 9 88h1432c-13 147 -64 253 -152 317c-105 76 -253 114 -444 114c-271 0 -523 -95 -551 -211l-240 136c54 138 459 250 792 250c249 0 457 -52 624 -155c166 -103 249 -281 249 -533
c0 -242 -85 -417 -254 -525c-170 -108 -373 -162 -609 -162zM1552 585h-1155c6 -156 60 -265 163 -327c108 -65 244 -98 406 -98c173 0 315 36 425 108c92 60 146 166 161 317z" />
    <glyph glyph-name="T" unicode="T" horiz-adv-x="2020" 
d="M858 0v1158h-737v192h1765v-192h-734v-1158h-294z" />
    <glyph glyph-name="Tbar" unicode="&#x166;" horiz-adv-x="2020" 
d="M271 654v163h587v341h-737v192h1765v-192h-734v-341h597v-163h-597v-654h-294v654h-587z" />
    <glyph glyph-name="Tcaron" unicode="&#x164;" horiz-adv-x="2020" 
d="M858 0v1158h-737v192h1765v-192h-734v-1158h-294zM910 1398l-334 214h196l235 -156l231 156h198l-336 -214h-190z" />
    <glyph glyph-name="uni0162" unicode="&#x162;" horiz-adv-x="2020" 
d="M858 0v1158h-737v192h1765v-192h-734v-1158h-80l-40 -95c45 26 126 45 201 45c108 0 189 -39 189 -119c0 -124 -184 -180 -358 -180c-78 0 -154 9 -229 25l45 123c49 -12 113 -23 188 -23c110 0 167 23 167 63c0 30 -30 42 -83 42c-49 0 -107 -19 -145 -36l-105 12
l51 143h-95z" />
    <glyph glyph-name="uni021A" unicode="&#x21a;" horiz-adv-x="2020" 
d="M858 0v1158h-737v192h1765v-192h-734v-1158h-294zM785 -373l121 330h170l-182 -330h-109z" />
    <glyph glyph-name="uni1E6C" unicode="&#x1e6c;" horiz-adv-x="2020" 
d="M858 0v1158h-737v192h1765v-192h-734v-1158h-294zM1005 -298c-52 0 -93 41 -93 93c0 51 41 92 93 92c51 0 92 -41 92 -92c0 -52 -41 -93 -92 -93z" />
    <glyph glyph-name="uni1E6E" unicode="&#x1e6e;" horiz-adv-x="2020" 
d="M858 0v1158h-737v192h1765v-192h-734v-1158h-294zM531 -245v109h947v-109h-947z" />
    <glyph glyph-name="U" unicode="U" horiz-adv-x="2172" 
d="M1060 -7c-288 0 -508 50 -662 152s-230 269 -230 502v702h294v-672c0 -172 49 -297 148 -375s249 -117 450 -117c200 0 350 38 449 116s149 203 149 376v672h294v-702c0 -233 -77 -400 -231 -502s-374 -152 -661 -152z" />
    <glyph glyph-name="Uacute" unicode="&#xda;" horiz-adv-x="2172" 
d="M1060 -7c-288 0 -508 50 -662 152s-230 269 -230 502v702h294v-672c0 -172 49 -297 148 -375s249 -117 450 -117c200 0 350 38 449 116s149 203 149 376v672h294v-702c0 -233 -77 -400 -231 -502s-374 -152 -661 -152zM846 1402l233 195h210l-300 -195h-143z" />
    <glyph glyph-name="Ubreve" unicode="&#x16c;" horiz-adv-x="2172" 
d="M1060 -7c-288 0 -508 50 -662 152s-230 269 -230 502v702h294v-672c0 -172 49 -297 148 -375s249 -117 450 -117c200 0 350 38 449 116s149 203 149 376v672h294v-702c0 -233 -77 -400 -231 -502s-374 -152 -661 -152zM1068 1403c-183 0 -312 96 -312 199h142
c0 -50 52 -104 170 -104c129 0 171 54 171 104h141c0 -103 -117 -199 -312 -199z" />
    <glyph glyph-name="uni01D3" unicode="&#x1d3;" horiz-adv-x="2172" 
d="M1060 -7c-288 0 -508 50 -662 152s-230 269 -230 502v702h294v-672c0 -172 49 -297 148 -375s249 -117 450 -117c200 0 350 38 449 116s149 203 149 376v672h294v-702c0 -233 -77 -400 -231 -502s-374 -152 -661 -152zM972 1398l-334 214h196l235 -156l231 156h198
l-336 -214h-190z" />
    <glyph glyph-name="Ucircumflex" unicode="&#xdb;" horiz-adv-x="2172" 
d="M1060 -7c-288 0 -508 50 -662 152s-230 269 -230 502v702h294v-672c0 -172 49 -297 148 -375s249 -117 450 -117c200 0 350 38 449 116s149 203 149 376v672h294v-702c0 -233 -77 -400 -231 -502s-374 -152 -661 -152zM638 1403l334 214h190l336 -214h-198l-232 156
l-234 -156h-196z" />
    <glyph glyph-name="uni0214" unicode="&#x214;" horiz-adv-x="2172" 
d="M1060 -7c-288 0 -508 50 -662 152s-230 269 -230 502v702h294v-672c0 -172 49 -297 148 -375s249 -117 450 -117c200 0 350 38 449 116s149 203 149 376v672h294v-702c0 -233 -77 -400 -231 -502s-374 -152 -661 -152zM980 1422l-300 195h208l235 -195h-143zM1312 1422
l-300 195h208l235 -195h-143z" />
    <glyph glyph-name="Udieresis" unicode="&#xdc;" horiz-adv-x="2172" 
d="M1060 -7c-288 0 -508 50 -662 152s-230 269 -230 502v702h294v-672c0 -172 49 -297 148 -375s249 -117 450 -117c200 0 350 38 449 116s149 203 149 376v672h294v-702c0 -233 -77 -400 -231 -502s-374 -152 -661 -152zM826 1426c-52 0 -94 42 -94 94s42 94 94 94
s94 -42 94 -94s-42 -94 -94 -94zM1302 1426c-52 0 -94 42 -94 94s42 94 94 94s94 -42 94 -94s-42 -94 -94 -94z" />
    <glyph glyph-name="uni01D7" unicode="&#x1d7;" horiz-adv-x="2172" 
d="M1060 -7c-288 0 -508 50 -662 152s-230 269 -230 502v702h294v-672c0 -172 49 -297 148 -375s249 -117 450 -117c200 0 350 38 449 116s149 203 149 376v672h294v-702c0 -233 -77 -400 -231 -502s-374 -152 -661 -152zM840 1757l233 195h210l-300 -195h-143zM826 1426
c-52 0 -94 42 -94 94s42 94 94 94s94 -42 94 -94s-42 -94 -94 -94zM1302 1426c-52 0 -94 42 -94 94s42 94 94 94s94 -42 94 -94s-42 -94 -94 -94z" />
    <glyph glyph-name="uni01D9" unicode="&#x1d9;" horiz-adv-x="2172" 
d="M1060 -7c-288 0 -508 50 -662 152s-230 269 -230 502v702h294v-672c0 -172 49 -297 148 -375s249 -117 450 -117c200 0 350 38 449 116s149 203 149 376v672h294v-702c0 -233 -77 -400 -231 -502s-374 -152 -661 -152zM956 1738l-334 214h197l234 -157l232 157h197
l-336 -214h-190zM826 1426c-52 0 -94 42 -94 94s42 94 94 94s94 -42 94 -94s-42 -94 -94 -94zM1302 1426c-52 0 -94 42 -94 94s42 94 94 94s94 -42 94 -94s-42 -94 -94 -94z" />
    <glyph glyph-name="uni01DB" unicode="&#x1db;" horiz-adv-x="2172" 
d="M1060 -7c-288 0 -508 50 -662 152s-230 269 -230 502v702h294v-672c0 -172 49 -297 148 -375s249 -117 450 -117c200 0 350 38 449 116s149 203 149 376v672h294v-702c0 -233 -77 -400 -231 -502s-374 -152 -661 -152zM1035 1742l-300 195h208l235 -195h-143zM826 1426
c-52 0 -94 42 -94 94s42 94 94 94s94 -42 94 -94s-42 -94 -94 -94zM1302 1426c-52 0 -94 42 -94 94s42 94 94 94s94 -42 94 -94s-42 -94 -94 -94z" />
    <glyph glyph-name="uni01D5" unicode="&#x1d5;" horiz-adv-x="2172" 
d="M1060 -7c-288 0 -508 50 -662 152s-230 269 -230 502v702h294v-672c0 -172 49 -297 148 -375s249 -117 450 -117c200 0 350 38 449 116s149 203 149 376v672h294v-702c0 -233 -77 -400 -231 -502s-374 -152 -661 -152zM586 1763v109h947v-109h-947zM826 1426
c-52 0 -94 42 -94 94s42 94 94 94s94 -42 94 -94s-42 -94 -94 -94zM1302 1426c-52 0 -94 42 -94 94s42 94 94 94s94 -42 94 -94s-42 -94 -94 -94z" />
    <glyph glyph-name="uni1EE4" unicode="&#x1ee4;" horiz-adv-x="2172" 
d="M1060 -7c-288 0 -508 50 -662 152s-230 269 -230 502v702h294v-672c0 -172 49 -297 148 -375s249 -117 450 -117c200 0 350 38 449 116s149 203 149 376v672h294v-702c0 -233 -77 -400 -231 -502s-374 -152 -661 -152zM1068 -298c-52 0 -93 41 -93 93c0 51 41 92 93 92
c51 0 92 -41 92 -92c0 -52 -41 -93 -92 -93z" />
    <glyph glyph-name="Ugrave" unicode="&#xd9;" horiz-adv-x="2172" 
d="M1060 -7c-288 0 -508 50 -662 152s-230 269 -230 502v702h294v-672c0 -172 49 -297 148 -375s249 -117 450 -117c200 0 350 38 449 116s149 203 149 376v672h294v-702c0 -233 -77 -400 -231 -502s-374 -152 -661 -152zM1146 1412l-300 195h208l235 -195h-143z" />
    <glyph glyph-name="uni1EE6" unicode="&#x1ee6;" horiz-adv-x="2172" 
d="M1060 -7c-288 0 -508 50 -662 152s-230 269 -230 502v702h294v-672c0 -172 49 -297 148 -375s249 -117 450 -117c200 0 350 38 449 116s149 203 149 376v672h294v-702c0 -233 -77 -400 -231 -502s-374 -152 -661 -152zM892 1723c368 0 533 -18 533 -119
c0 -97 -173 -121 -309 -121v-69h-105v138c156 0 266 7 266 42c0 41 -118 43 -385 43v86z" />
    <glyph glyph-name="Uhorn" unicode="&#x1af;" horiz-adv-x="2172" 
d="M1060 -7c-288 0 -508 50 -662 152s-230 269 -230 502v702h294v-672c0 -172 49 -297 148 -375s249 -117 450 -117c200 0 350 38 449 116s149 203 149 376v672h294v-156c255 0 360 33 360 176h179c0 -191 -200 -275 -539 -275v-447c0 -233 -77 -400 -231 -502
s-374 -152 -661 -152z" />
    <glyph glyph-name="uni1EE8" unicode="&#x1ee8;" horiz-adv-x="2172" 
d="M1060 -7c-288 0 -508 50 -662 152s-230 269 -230 502v702h294v-672c0 -172 49 -297 148 -375s249 -117 450 -117c200 0 350 38 449 116s149 203 149 376v672h294v-156c255 0 360 33 360 176h179c0 -191 -200 -275 -539 -275v-447c0 -233 -77 -400 -231 -502
s-374 -152 -661 -152zM846 1402l233 195h210l-300 -195h-143z" />
    <glyph glyph-name="uni1EF0" unicode="&#x1ef0;" horiz-adv-x="2172" 
d="M1060 -7c-288 0 -508 50 -662 152s-230 269 -230 502v702h294v-672c0 -172 49 -297 148 -375s249 -117 450 -117c200 0 350 38 449 116s149 203 149 376v672h294v-156c255 0 360 33 360 176h179c0 -191 -200 -275 -539 -275v-447c0 -233 -77 -400 -231 -502
s-374 -152 -661 -152zM1068 -298c-52 0 -93 41 -93 93c0 51 41 92 93 92c51 0 92 -41 92 -92c0 -52 -41 -93 -92 -93z" />
    <glyph glyph-name="uni1EEA" unicode="&#x1eea;" horiz-adv-x="2172" 
d="M1060 -7c-288 0 -508 50 -662 152s-230 269 -230 502v702h294v-672c0 -172 49 -297 148 -375s249 -117 450 -117c200 0 350 38 449 116s149 203 149 376v672h294v-156c255 0 360 33 360 176h179c0 -191 -200 -275 -539 -275v-447c0 -233 -77 -400 -231 -502
s-374 -152 -661 -152zM1146 1412l-300 195h208l235 -195h-143z" />
    <glyph glyph-name="uni1EEC" unicode="&#x1eec;" horiz-adv-x="2172" 
d="M1060 -7c-288 0 -508 50 -662 152s-230 269 -230 502v702h294v-672c0 -172 49 -297 148 -375s249 -117 450 -117c200 0 350 38 449 116s149 203 149 376v672h294v-156c255 0 360 33 360 176h179c0 -191 -200 -275 -539 -275v-447c0 -233 -77 -400 -231 -502
s-374 -152 -661 -152zM892 1723c368 0 533 -18 533 -119c0 -97 -173 -121 -309 -121v-69h-105v138c156 0 266 7 266 42c0 41 -118 43 -385 43v86z" />
    <glyph glyph-name="uni1EEE" unicode="&#x1eee;" horiz-adv-x="2172" 
d="M1060 -7c-288 0 -508 50 -662 152s-230 269 -230 502v702h294v-672c0 -172 49 -297 148 -375s249 -117 450 -117c200 0 350 38 449 116s149 203 149 376v672h294v-156c255 0 360 33 360 176h179c0 -191 -200 -275 -539 -275v-447c0 -233 -77 -400 -231 -502
s-374 -152 -661 -152zM1243 1451c-175 0 -206 101 -324 101c-83 0 -117 -53 -120 -83h-151c5 46 42 201 265 201c164 0 182 -100 319 -100c76 0 112 55 114 84h151c-2 -40 -34 -203 -254 -203z" />
    <glyph glyph-name="Uhungarumlaut" unicode="&#x170;" horiz-adv-x="2172" 
d="M1060 -7c-288 0 -508 50 -662 152s-230 269 -230 502v702h294v-672c0 -172 49 -297 148 -375s249 -117 450 -117c200 0 350 38 449 116s149 203 149 376v672h294v-702c0 -233 -77 -400 -231 -502s-374 -152 -661 -152zM1074 1430l202 182h198l-273 -182h-127zM661 1430
l200 182h190l-263 -182h-127z" />
    <glyph glyph-name="uni0216" unicode="&#x216;" horiz-adv-x="2172" 
d="M1060 -7c-288 0 -508 50 -662 152s-230 269 -230 502v702h294v-672c0 -172 49 -297 148 -375s249 -117 450 -117c200 0 350 38 449 116s149 203 149 376v672h294v-702c0 -233 -77 -400 -231 -502s-374 -152 -661 -152zM1067 1636c183 0 312 -96 312 -199h-142
c0 50 -52 104 -170 104c-129 0 -171 -54 -171 -104h-141c0 103 117 199 312 199z" />
    <glyph glyph-name="Umacron" unicode="&#x16a;" horiz-adv-x="2172" 
d="M1060 -7c-288 0 -508 50 -662 152s-230 269 -230 502v702h294v-672c0 -172 49 -297 148 -375s249 -117 450 -117c200 0 350 38 449 116s149 203 149 376v672h294v-702c0 -233 -77 -400 -231 -502s-374 -152 -661 -152zM594 1483v109h947v-109h-947z" />
    <glyph glyph-name="uni1E7A" unicode="&#x1e7a;" horiz-adv-x="2172" 
d="M1060 -7c-288 0 -508 50 -662 152s-230 269 -230 502v702h294v-672c0 -172 49 -297 148 -375s249 -117 450 -117c200 0 350 38 449 116s149 203 149 376v672h294v-702c0 -233 -77 -400 -231 -502s-374 -152 -661 -152zM594 1483v109h947v-109h-947zM826 1668
c-52 0 -94 42 -94 94s42 94 94 94s94 -42 94 -94s-42 -94 -94 -94zM1302 1668c-52 0 -94 42 -94 94s42 94 94 94s94 -42 94 -94s-42 -94 -94 -94z" />
    <glyph glyph-name="Uogonek" unicode="&#x172;" horiz-adv-x="2172" 
d="M1060 -7h-8c-26 -32 -69 -105 -69 -151c0 -42 30 -73 106 -73c72 0 168 22 206 37l4 -136c-33 -14 -149 -36 -258 -36c-119 0 -221 44 -221 159c0 92 56 170 93 204c-217 15 -389 64 -515 148c-154 102 -230 269 -230 502v702h294v-672c0 -172 49 -297 148 -375
s249 -117 450 -117c200 0 350 38 449 116s149 203 149 376v672h294v-702c0 -233 -77 -400 -231 -502s-374 -152 -661 -152z" />
    <glyph glyph-name="Uring" unicode="&#x16e;" horiz-adv-x="2172" 
d="M1060 -7c-288 0 -508 50 -662 152s-230 269 -230 502v702h294v-672c0 -172 49 -297 148 -375s249 -117 450 -117c200 0 350 38 449 116s149 203 149 376v672h294v-702c0 -233 -77 -400 -231 -502s-374 -152 -661 -152zM1068 1393c-88 0 -154 67 -154 154
c0 86 66 153 154 153s154 -67 154 -153c0 -87 -66 -154 -154 -154zM1068 1498c26 0 48 22 48 49s-22 47 -48 47c-27 0 -48 -20 -48 -47s21 -49 48 -49z" />
    <glyph glyph-name="Utilde" unicode="&#x168;" horiz-adv-x="2172" 
d="M1060 -7c-288 0 -508 50 -662 152s-230 269 -230 502v702h294v-672c0 -172 49 -297 148 -375s249 -117 450 -117c200 0 350 38 449 116s149 203 149 376v672h294v-702c0 -233 -77 -400 -231 -502s-374 -152 -661 -152zM1243 1451c-175 0 -206 101 -324 101
c-83 0 -117 -53 -120 -83h-151c5 46 42 201 265 201c164 0 182 -100 319 -100c76 0 112 55 114 84h151c-2 -40 -34 -203 -254 -203z" />
    <glyph glyph-name="uni1E78" unicode="&#x1e78;" horiz-adv-x="2172" 
d="M1060 -7c-288 0 -508 50 -662 152s-230 269 -230 502v702h294v-672c0 -172 49 -297 148 -375s249 -117 450 -117c200 0 350 38 449 116s149 203 149 376v672h294v-702c0 -233 -77 -400 -231 -502s-374 -152 -661 -152zM1243 1451c-175 0 -206 101 -324 101
c-83 0 -117 -53 -120 -83h-151c5 46 42 201 265 201c164 0 182 -100 319 -100c76 0 112 55 114 84h151c-2 -40 -34 -203 -254 -203zM846 1718l233 195h210l-300 -195h-143z" />
    <glyph glyph-name="V" unicode="V" horiz-adv-x="2083" 
d="M804 0l-710 1350h299l629 -1197l629 1197h299l-711 -1350h-435z" />
    <glyph glyph-name="V.ss01" horiz-adv-x="2083" 
d="M804 0l-710 1026v324h294v-294l634 -906l634 906v294h294v-324l-711 -1026h-435z" />
    <glyph glyph-name="W" unicode="W" horiz-adv-x="2985" 
d="M557 0l-466 1350h326l377 -1150l459 1150h432l461 -1150l384 1150h327l-475 -1350h-458l-455 1176l-455 -1176h-457z" />
    <glyph glyph-name="Wacute" unicode="&#x1e82;" horiz-adv-x="2985" 
d="M557 0l-466 1350h326l377 -1150l459 1150h432l461 -1150l384 1150h327l-475 -1350h-458l-455 1176l-455 -1176h-457zM1271 1402l233 195h210l-300 -195h-143z" />
    <glyph glyph-name="Wcircumflex" unicode="&#x174;" horiz-adv-x="2985" 
d="M557 0l-466 1350h326l377 -1150l459 1150h432l461 -1150l384 1150h327l-475 -1350h-458l-455 1176l-455 -1176h-457zM1063 1403l334 214h190l336 -214h-198l-232 156l-234 -156h-196z" />
    <glyph glyph-name="Wdieresis" unicode="&#x1e84;" horiz-adv-x="2985" 
d="M557 0l-466 1350h326l377 -1150l459 1150h432l461 -1150l384 1150h327l-475 -1350h-458l-455 1176l-455 -1176h-457zM1251 1426c-52 0 -94 42 -94 94s42 94 94 94s94 -42 94 -94s-42 -94 -94 -94zM1727 1426c-52 0 -94 42 -94 94s42 94 94 94s94 -42 94 -94
s-42 -94 -94 -94z" />
    <glyph glyph-name="Wgrave" unicode="&#x1e80;" horiz-adv-x="2985" 
d="M557 0l-466 1350h326l377 -1150l459 1150h432l461 -1150l384 1150h327l-475 -1350h-458l-455 1176l-455 -1176h-457zM1571 1412l-300 195h208l235 -195h-143z" />
    <glyph glyph-name="X" unicode="X" horiz-adv-x="2056" 
d="M46 0l758 668l-737 682h360l579 -559l579 559h359l-738 -682l759 -668h-359l-600 546l-600 -546h-360z" />
    <glyph glyph-name="Y" unicode="Y" horiz-adv-x="2124" 
d="M902 0v586l-841 764h334l654 -598l652 598h334l-840 -764v-586h-293z" />
    <glyph glyph-name="Y.ss01" horiz-adv-x="2157" 
d="M913 0v531l-857 819h336l667 -651l666 651h336l-856 -818v-532h-292z" />
    <glyph glyph-name="Yacute" unicode="&#xdd;" horiz-adv-x="2124" 
d="M902 0v586l-841 764h334l654 -598l652 598h334l-840 -764v-586h-293zM827 1402l233 195h210l-300 -195h-143z" />
    <glyph glyph-name="Ycircumflex" unicode="&#x176;" horiz-adv-x="2124" 
d="M902 0v586l-841 764h334l654 -598l652 598h334l-840 -764v-586h-293zM618 1403l334 214h190l336 -214h-197l-232 156l-234 -156h-197z" />
    <glyph glyph-name="Ydieresis" unicode="&#x178;" horiz-adv-x="2124" 
d="M902 0v586l-841 764h334l654 -598l652 598h334l-840 -764v-586h-293zM807 1426c-52 0 -94 42 -94 94s42 94 94 94s94 -42 94 -94s-42 -94 -94 -94zM1283 1426c-52 0 -94 42 -94 94s42 94 94 94s94 -42 94 -94s-42 -94 -94 -94z" />
    <glyph glyph-name="uni1E8E" unicode="&#x1e8e;" horiz-adv-x="2124" 
d="M902 0v586l-841 764h334l654 -598l652 598h334l-840 -764v-586h-293zM1049 1419c-52 0 -93 41 -93 93c0 51 41 92 93 92c51 0 92 -41 92 -92c0 -52 -41 -93 -92 -93z" />
    <glyph glyph-name="uni1EF4" unicode="&#x1ef4;" horiz-adv-x="2124" 
d="M902 0v586l-841 764h334l654 -598l652 598h334l-840 -764v-586h-293zM1069 -298c-52 0 -93 41 -93 93c0 51 41 92 93 92c51 0 92 -41 92 -92c0 -52 -41 -93 -92 -93z" />
    <glyph glyph-name="Ygrave" unicode="&#x1ef2;" horiz-adv-x="2124" 
d="M902 0v586l-841 764h334l654 -598l652 598h334l-840 -764v-586h-293zM1127 1412l-300 195h208l235 -195h-143z" />
    <glyph glyph-name="uni1EF6" unicode="&#x1ef6;" horiz-adv-x="2124" 
d="M902 0v586l-841 764h334l654 -598l652 598h334l-840 -764v-586h-293zM873 1723c368 0 533 -18 533 -119c0 -97 -174 -121 -310 -121v-69h-104v138c155 0 265 7 265 42c0 41 -117 43 -384 43v86z" />
    <glyph glyph-name="uni0232" unicode="&#x232;" horiz-adv-x="2124" 
d="M902 0v586l-841 764h334l654 -598l652 598h334l-840 -764v-586h-293zM575 1483v109h947v-109h-947z" />
    <glyph glyph-name="uni1EF8" unicode="&#x1ef8;" horiz-adv-x="2124" 
d="M902 0v586l-841 764h334l654 -598l652 598h334l-840 -764v-586h-293zM1224 1451c-175 0 -207 101 -325 101c-83 0 -117 -53 -119 -83h-151c4 46 42 201 265 201c163 0 182 -100 318 -100c77 0 112 55 115 84h151c-3 -40 -34 -203 -254 -203z" />
    <glyph glyph-name="Z" unicode="Z" horiz-adv-x="1914" 
d="M112 0v206l1218 952h-1203v192h1562v-196l-1218 -960h1268v-194h-1627z" />
    <glyph glyph-name="Zacute" unicode="&#x179;" horiz-adv-x="1914" 
d="M112 0v206l1218 952h-1203v192h1562v-196l-1218 -960h1268v-194h-1627zM736 1402l233 195h210l-300 -195h-143z" />
    <glyph glyph-name="Zcaron" unicode="&#x17d;" horiz-adv-x="1914" 
d="M112 0v206l1218 952h-1203v192h1562v-196l-1218 -960h1268v-194h-1627zM861 1398l-334 214h197l234 -156l232 156h197l-336 -214h-190z" />
    <glyph glyph-name="Zdotaccent" unicode="&#x17b;" horiz-adv-x="1914" 
d="M112 0v206l1218 952h-1203v192h1562v-196l-1218 -960h1268v-194h-1627zM958 1419c-52 0 -93 41 -93 93c0 51 41 92 93 92c51 0 92 -41 92 -92c0 -52 -41 -93 -92 -93z" />
    <glyph glyph-name="uni1E92" unicode="&#x1e92;" horiz-adv-x="1914" 
d="M112 0v206l1218 952h-1203v192h1562v-196l-1218 -960h1268v-194h-1627zM958 -298c-52 0 -93 41 -93 93c0 51 41 92 93 92c51 0 92 -41 92 -92c0 -52 -41 -93 -92 -93z" />
    <glyph glyph-name="a" unicode="a" horiz-adv-x="1961" 
d="M1500 0l-17 146c-31 -22 -69 -43 -114 -63c-147 -66 -328 -98 -541 -98s-385 28 -516 84s-197 147 -197 274c0 124 71 213 212 269s349 84 624 84h523v56c0 77 -46 137 -139 181c-92 43 -219 65 -379 65c-276 0 -503 -87 -530 -189l-272 126c53 125 425 246 775 246
c256 0 460 -37 610 -109c150 -73 225 -185 225 -337v-735h-264zM1474 367v177h-515c-193 0 -333 -16 -421 -46c-87 -31 -131 -81 -131 -151c0 -67 40 -116 120 -149c80 -32 199 -48 358 -48c166 0 306 24 419 74s170 98 170 143z" />
    <glyph glyph-name="a.ss01" horiz-adv-x="1974" 
d="M1480 0v186c-28 -20 -60 -42 -97 -64c-145 -88 -325 -132 -540 -132c-210 0 -386 49 -528 147c-143 97 -214 248 -214 451s71 353 214 450c142 96 318 144 528 144c215 0 395 -44 540 -132c37 -22 69 -44 97 -64v184h294v-1170h-294zM1480 480v212
c-11 69 -65 134 -162 195c-110 69 -240 103 -390 103c-157 0 -285 -34 -383 -103c-98 -68 -147 -169 -147 -301s49 -233 147 -301c98 -69 226 -103 383 -103c150 0 280 34 390 103c97 61 151 126 162 195z" />
    <glyph glyph-name="aacute" unicode="&#xe1;" horiz-adv-x="1961" 
d="M1500 0l-17 146c-31 -22 -69 -43 -114 -63c-147 -66 -328 -98 -541 -98s-385 28 -516 84s-197 147 -197 274c0 124 71 213 212 269s349 84 624 84h523v56c0 77 -46 137 -139 181c-92 43 -219 65 -379 65c-276 0 -503 -87 -530 -189l-272 126c53 125 425 246 775 246
c256 0 460 -37 610 -109c150 -73 225 -185 225 -337v-735h-264zM1474 367v177h-515c-193 0 -333 -16 -421 -46c-87 -31 -131 -81 -131 -151c0 -67 40 -116 120 -149c80 -32 199 -48 358 -48c166 0 306 24 419 74s170 98 170 143zM717 1223l233 195h210l-300 -195h-143z" />
    <glyph glyph-name="abreve" unicode="&#x103;" horiz-adv-x="1961" 
d="M1500 0l-17 146c-31 -22 -69 -43 -114 -63c-147 -66 -328 -98 -541 -98s-385 28 -516 84s-197 147 -197 274c0 124 71 213 212 269s349 84 624 84h523v56c0 77 -46 137 -139 181c-92 43 -219 65 -379 65c-276 0 -503 -87 -530 -189l-272 126c53 125 425 246 775 246
c256 0 460 -37 610 -109c150 -73 225 -185 225 -337v-735h-264zM1474 367v177h-515c-193 0 -333 -16 -421 -46c-87 -31 -131 -81 -131 -151c0 -67 40 -116 120 -149c80 -32 199 -48 358 -48c166 0 306 24 419 74s170 98 170 143zM938 1224c-183 0 -312 96 -312 199h142
c0 -50 52 -104 170 -104c129 0 171 54 171 104h141c0 -103 -117 -199 -312 -199z" />
    <glyph glyph-name="uni1EAF" unicode="&#x1eaf;" horiz-adv-x="1961" 
d="M1500 0l-17 146c-31 -22 -69 -43 -114 -63c-147 -66 -328 -98 -541 -98s-385 28 -516 84s-197 147 -197 274c0 124 71 213 212 269s349 84 624 84h523v56c0 77 -46 137 -139 181c-92 43 -219 65 -379 65c-276 0 -503 -87 -530 -189l-272 126c53 125 425 246 775 246
c256 0 460 -37 610 -109c150 -73 225 -185 225 -337v-735h-264zM1474 367v177h-515c-193 0 -333 -16 -421 -46c-87 -31 -131 -81 -131 -151c0 -67 40 -116 120 -149c80 -32 199 -48 358 -48c166 0 306 24 419 74s170 98 170 143zM938 1224c-183 0 -312 96 -312 199h142
c0 -50 52 -104 170 -104c129 0 171 54 171 104h141c0 -103 -117 -199 -312 -199zM717 1475l233 195h210l-300 -195h-143z" />
    <glyph glyph-name="uni1EB7" unicode="&#x1eb7;" horiz-adv-x="1961" 
d="M1500 0l-17 146c-31 -22 -69 -43 -114 -63c-147 -66 -328 -98 -541 -98s-385 28 -516 84s-197 147 -197 274c0 124 71 213 212 269s349 84 624 84h523v56c0 77 -46 137 -139 181c-92 43 -219 65 -379 65c-276 0 -503 -87 -530 -189l-272 126c53 125 425 246 775 246
c256 0 460 -37 610 -109c150 -73 225 -185 225 -337v-735h-264zM1474 367v177h-515c-193 0 -333 -16 -421 -46c-87 -31 -131 -81 -131 -151c0 -67 40 -116 120 -149c80 -32 199 -48 358 -48c166 0 306 24 419 74s170 98 170 143zM938 1224c-183 0 -312 96 -312 199h142
c0 -50 52 -104 170 -104c129 0 171 54 171 104h141c0 -103 -117 -199 -312 -199zM970 -298c-52 0 -93 41 -93 93c0 51 41 92 93 92c51 0 92 -41 92 -92c0 -52 -41 -93 -92 -93z" />
    <glyph glyph-name="uni1EB1" unicode="&#x1eb1;" horiz-adv-x="1961" 
d="M1500 0l-17 146c-31 -22 -69 -43 -114 -63c-147 -66 -328 -98 -541 -98s-385 28 -516 84s-197 147 -197 274c0 124 71 213 212 269s349 84 624 84h523v56c0 77 -46 137 -139 181c-92 43 -219 65 -379 65c-276 0 -503 -87 -530 -189l-272 126c53 125 425 246 775 246
c256 0 460 -37 610 -109c150 -73 225 -185 225 -337v-735h-264zM1474 367v177h-515c-193 0 -333 -16 -421 -46c-87 -31 -131 -81 -131 -151c0 -67 40 -116 120 -149c80 -32 199 -48 358 -48c166 0 306 24 419 74s170 98 170 143zM938 1224c-183 0 -312 96 -312 199h142
c0 -50 52 -104 170 -104c129 0 171 54 171 104h141c0 -103 -117 -199 -312 -199zM1017 1485l-300 195h208l235 -195h-143z" />
    <glyph glyph-name="uni1EB3" unicode="&#x1eb3;" horiz-adv-x="1961" 
d="M1500 0l-17 146c-31 -22 -69 -43 -114 -63c-147 -66 -328 -98 -541 -98s-385 28 -516 84s-197 147 -197 274c0 124 71 213 212 269s349 84 624 84h523v56c0 77 -46 137 -139 181c-92 43 -219 65 -379 65c-276 0 -503 -87 -530 -189l-272 126c53 125 425 246 775 246
c256 0 460 -37 610 -109c150 -73 225 -185 225 -337v-735h-264zM1474 367v177h-515c-193 0 -333 -16 -421 -46c-87 -31 -131 -81 -131 -151c0 -67 40 -116 120 -149c80 -32 199 -48 358 -48c166 0 306 24 419 74s170 98 170 143zM763 1796c368 0 533 -18 533 -120
c0 -97 -174 -120 -310 -120v-69h-104v137c155 0 265 8 265 43c0 41 -117 43 -384 43v86zM938 1224c-183 0 -312 96 -312 199h142c0 -50 52 -104 170 -104c129 0 171 54 171 104h141c0 -103 -117 -199 -312 -199z" />
    <glyph glyph-name="uni1EB5" unicode="&#x1eb5;" horiz-adv-x="1961" 
d="M1500 0l-17 146c-31 -22 -69 -43 -114 -63c-147 -66 -328 -98 -541 -98s-385 28 -516 84s-197 147 -197 274c0 124 71 213 212 269s349 84 624 84h523v56c0 77 -46 137 -139 181c-92 43 -219 65 -379 65c-276 0 -503 -87 -530 -189l-272 126c53 125 425 246 775 246
c256 0 460 -37 610 -109c150 -73 225 -185 225 -337v-735h-264zM1474 367v177h-515c-193 0 -333 -16 -421 -46c-87 -31 -131 -81 -131 -151c0 -67 40 -116 120 -149c80 -32 199 -48 358 -48c166 0 306 24 419 74s170 98 170 143zM1114 1524c-175 0 -207 101 -325 101
c-83 0 -117 -54 -119 -83h-151c4 46 42 201 265 201c163 0 182 -100 318 -100c77 0 112 54 115 84h151c-3 -40 -34 -203 -254 -203zM938 1224c-183 0 -312 96 -312 199h142c0 -50 52 -104 170 -104c129 0 171 54 171 104h141c0 -103 -117 -199 -312 -199z" />
    <glyph glyph-name="uni01CE" unicode="&#x1ce;" horiz-adv-x="1961" 
d="M1500 0l-17 146c-31 -22 -69 -43 -114 -63c-147 -66 -328 -98 -541 -98s-385 28 -516 84s-197 147 -197 274c0 124 71 213 212 269s349 84 624 84h523v56c0 77 -46 137 -139 181c-92 43 -219 65 -379 65c-276 0 -503 -87 -530 -189l-272 126c53 125 425 246 775 246
c256 0 460 -37 610 -109c150 -73 225 -185 225 -337v-735h-264zM1474 367v177h-515c-193 0 -333 -16 -421 -46c-87 -31 -131 -81 -131 -151c0 -67 40 -116 120 -149c80 -32 199 -48 358 -48c166 0 306 24 419 74s170 98 170 143zM842 1219l-334 214h197l234 -157l232 157
h197l-336 -214h-190z" />
    <glyph glyph-name="acircumflex" unicode="&#xe2;" horiz-adv-x="1961" 
d="M1500 0l-17 146c-31 -22 -69 -43 -114 -63c-147 -66 -328 -98 -541 -98s-385 28 -516 84s-197 147 -197 274c0 124 71 213 212 269s349 84 624 84h523v56c0 77 -46 137 -139 181c-92 43 -219 65 -379 65c-276 0 -503 -87 -530 -189l-272 126c53 125 425 246 775 246
c256 0 460 -37 610 -109c150 -73 225 -185 225 -337v-735h-264zM1474 367v177h-515c-193 0 -333 -16 -421 -46c-87 -31 -131 -81 -131 -151c0 -67 40 -116 120 -149c80 -32 199 -48 358 -48c166 0 306 24 419 74s170 98 170 143zM508 1224l334 214h190l336 -214h-197
l-232 156l-234 -156h-197z" />
    <glyph glyph-name="uni1EA5" unicode="&#x1ea5;" horiz-adv-x="1961" 
d="M1500 0l-17 146c-31 -22 -69 -43 -114 -63c-147 -66 -328 -98 -541 -98s-385 28 -516 84s-197 147 -197 274c0 124 71 213 212 269s349 84 624 84h523v56c0 77 -46 137 -139 181c-92 43 -219 65 -379 65c-276 0 -503 -87 -530 -189l-272 126c53 125 425 246 775 246
c256 0 460 -37 610 -109c150 -73 225 -185 225 -337v-735h-264zM1474 367v177h-515c-193 0 -333 -16 -421 -46c-87 -31 -131 -81 -131 -151c0 -67 40 -116 120 -149c80 -32 199 -48 358 -48c166 0 306 24 419 74s170 98 170 143zM508 1224l334 214h190l336 -214h-197
l-232 156l-234 -156h-197zM717 1490l233 195h210l-300 -195h-143z" />
    <glyph glyph-name="uni1EAD" unicode="&#x1ead;" horiz-adv-x="1961" 
d="M1500 0l-17 146c-31 -22 -69 -43 -114 -63c-147 -66 -328 -98 -541 -98s-385 28 -516 84s-197 147 -197 274c0 124 71 213 212 269s349 84 624 84h523v56c0 77 -46 137 -139 181c-92 43 -219 65 -379 65c-276 0 -503 -87 -530 -189l-272 126c53 125 425 246 775 246
c256 0 460 -37 610 -109c150 -73 225 -185 225 -337v-735h-264zM1474 367v177h-515c-193 0 -333 -16 -421 -46c-87 -31 -131 -81 -131 -151c0 -67 40 -116 120 -149c80 -32 199 -48 358 -48c166 0 306 24 419 74s170 98 170 143zM508 1224l334 214h190l336 -214h-197
l-232 156l-234 -156h-197zM970 -298c-52 0 -93 41 -93 93c0 51 41 92 93 92c51 0 92 -41 92 -92c0 -52 -41 -93 -92 -93z" />
    <glyph glyph-name="uni1EA7" unicode="&#x1ea7;" horiz-adv-x="1961" 
d="M1500 0l-17 146c-31 -22 -69 -43 -114 -63c-147 -66 -328 -98 -541 -98s-385 28 -516 84s-197 147 -197 274c0 124 71 213 212 269s349 84 624 84h523v56c0 77 -46 137 -139 181c-92 43 -219 65 -379 65c-276 0 -503 -87 -530 -189l-272 126c53 125 425 246 775 246
c256 0 460 -37 610 -109c150 -73 225 -185 225 -337v-735h-264zM1474 367v177h-515c-193 0 -333 -16 -421 -46c-87 -31 -131 -81 -131 -151c0 -67 40 -116 120 -149c80 -32 199 -48 358 -48c166 0 306 24 419 74s170 98 170 143zM508 1224l334 214h190l336 -214h-197
l-232 156l-234 -156h-197zM1017 1500l-300 195h208l235 -195h-143z" />
    <glyph glyph-name="uni1EA9" unicode="&#x1ea9;" horiz-adv-x="1961" 
d="M1500 0l-17 146c-31 -22 -69 -43 -114 -63c-147 -66 -328 -98 -541 -98s-385 28 -516 84s-197 147 -197 274c0 124 71 213 212 269s349 84 624 84h523v56c0 77 -46 137 -139 181c-92 43 -219 65 -379 65c-276 0 -503 -87 -530 -189l-272 126c53 125 425 246 775 246
c256 0 460 -37 610 -109c150 -73 225 -185 225 -337v-735h-264zM1474 367v177h-515c-193 0 -333 -16 -421 -46c-87 -31 -131 -81 -131 -151c0 -67 40 -116 120 -149c80 -32 199 -48 358 -48c166 0 306 24 419 74s170 98 170 143zM763 1811c368 0 533 -18 533 -120
c0 -97 -174 -120 -310 -120v-69h-104v137c155 0 265 8 265 43c0 41 -117 43 -384 43v86zM508 1224l334 214h190l336 -214h-197l-232 156l-234 -156h-197z" />
    <glyph glyph-name="uni1EAB" unicode="&#x1eab;" horiz-adv-x="1961" 
d="M1500 0l-17 146c-31 -22 -69 -43 -114 -63c-147 -66 -328 -98 -541 -98s-385 28 -516 84s-197 147 -197 274c0 124 71 213 212 269s349 84 624 84h523v56c0 77 -46 137 -139 181c-92 43 -219 65 -379 65c-276 0 -503 -87 -530 -189l-272 126c53 125 425 246 775 246
c256 0 460 -37 610 -109c150 -73 225 -185 225 -337v-735h-264zM1474 367v177h-515c-193 0 -333 -16 -421 -46c-87 -31 -131 -81 -131 -151c0 -67 40 -116 120 -149c80 -32 199 -48 358 -48c166 0 306 24 419 74s170 98 170 143zM1114 1539c-175 0 -207 101 -325 101
c-83 0 -117 -54 -119 -83h-151c4 46 42 201 265 201c163 0 182 -100 318 -100c77 0 112 54 115 84h151c-3 -40 -34 -203 -254 -203zM508 1224l334 214h190l336 -214h-197l-232 156l-234 -156h-197z" />
    <glyph glyph-name="uni0201" unicode="&#x201;" horiz-adv-x="1961" 
d="M1500 0l-17 146c-31 -22 -69 -43 -114 -63c-147 -66 -328 -98 -541 -98s-385 28 -516 84s-197 147 -197 274c0 124 71 213 212 269s349 84 624 84h523v56c0 77 -46 137 -139 181c-92 43 -219 65 -379 65c-276 0 -503 -87 -530 -189l-272 126c53 125 425 246 775 246
c256 0 460 -37 610 -109c150 -73 225 -185 225 -337v-735h-264zM1474 367v177h-515c-193 0 -333 -16 -421 -46c-87 -31 -131 -81 -131 -151c0 -67 40 -116 120 -149c80 -32 199 -48 358 -48c166 0 306 24 419 74s170 98 170 143zM851 1243l-300 195h208l235 -195h-143z
M1182 1243l-300 195h208l235 -195h-143z" />
    <glyph glyph-name="adieresis" unicode="&#xe4;" horiz-adv-x="1961" 
d="M1500 0l-17 146c-31 -22 -69 -43 -114 -63c-147 -66 -328 -98 -541 -98s-385 28 -516 84s-197 147 -197 274c0 124 71 213 212 269s349 84 624 84h523v56c0 77 -46 137 -139 181c-92 43 -219 65 -379 65c-276 0 -503 -87 -530 -189l-272 126c53 125 425 246 775 246
c256 0 460 -37 610 -109c150 -73 225 -185 225 -337v-735h-264zM1474 367v177h-515c-193 0 -333 -16 -421 -46c-87 -31 -131 -81 -131 -151c0 -67 40 -116 120 -149c80 -32 199 -48 358 -48c166 0 306 24 419 74s170 98 170 143zM697 1247c-52 0 -94 42 -94 94s42 94 94 94
s94 -42 94 -94s-42 -94 -94 -94zM1173 1247c-52 0 -94 42 -94 94s42 94 94 94s94 -42 94 -94s-42 -94 -94 -94z" />
    <glyph glyph-name="uni1EA1" unicode="&#x1ea1;" horiz-adv-x="1961" 
d="M1500 0l-17 146c-31 -22 -69 -43 -114 -63c-147 -66 -328 -98 -541 -98s-385 28 -516 84s-197 147 -197 274c0 124 71 213 212 269s349 84 624 84h523v56c0 77 -46 137 -139 181c-92 43 -219 65 -379 65c-276 0 -503 -87 -530 -189l-272 126c53 125 425 246 775 246
c256 0 460 -37 610 -109c150 -73 225 -185 225 -337v-735h-264zM1474 367v177h-515c-193 0 -333 -16 -421 -46c-87 -31 -131 -81 -131 -151c0 -67 40 -116 120 -149c80 -32 199 -48 358 -48c166 0 306 24 419 74s170 98 170 143zM970 -298c-52 0 -93 41 -93 93
c0 51 41 92 93 92c51 0 92 -41 92 -92c0 -52 -41 -93 -92 -93z" />
    <glyph glyph-name="agrave" unicode="&#xe0;" horiz-adv-x="1961" 
d="M1500 0l-17 146c-31 -22 -69 -43 -114 -63c-147 -66 -328 -98 -541 -98s-385 28 -516 84s-197 147 -197 274c0 124 71 213 212 269s349 84 624 84h523v56c0 77 -46 137 -139 181c-92 43 -219 65 -379 65c-276 0 -503 -87 -530 -189l-272 126c53 125 425 246 775 246
c256 0 460 -37 610 -109c150 -73 225 -185 225 -337v-735h-264zM1474 367v177h-515c-193 0 -333 -16 -421 -46c-87 -31 -131 -81 -131 -151c0 -67 40 -116 120 -149c80 -32 199 -48 358 -48c166 0 306 24 419 74s170 98 170 143zM1017 1233l-300 195h208l235 -195h-143z" />
    <glyph glyph-name="uni1EA3" unicode="&#x1ea3;" horiz-adv-x="1961" 
d="M1500 0l-17 146c-31 -22 -69 -43 -114 -63c-147 -66 -328 -98 -541 -98s-385 28 -516 84s-197 147 -197 274c0 124 71 213 212 269s349 84 624 84h523v56c0 77 -46 137 -139 181c-92 43 -219 65 -379 65c-276 0 -503 -87 -530 -189l-272 126c53 125 425 246 775 246
c256 0 460 -37 610 -109c150 -73 225 -185 225 -337v-735h-264zM1474 367v177h-515c-193 0 -333 -16 -421 -46c-87 -31 -131 -81 -131 -151c0 -67 40 -116 120 -149c80 -32 199 -48 358 -48c166 0 306 24 419 74s170 98 170 143zM763 1544c368 0 533 -18 533 -120
c0 -97 -174 -120 -310 -120v-69h-104v137c155 0 265 8 265 43c0 41 -117 43 -384 43v86z" />
    <glyph glyph-name="uni0203" unicode="&#x203;" horiz-adv-x="1961" 
d="M1500 0l-17 146c-31 -22 -69 -43 -114 -63c-147 -66 -328 -98 -541 -98s-385 28 -516 84s-197 147 -197 274c0 124 71 213 212 269s349 84 624 84h523v56c0 77 -46 137 -139 181c-92 43 -219 65 -379 65c-276 0 -503 -87 -530 -189l-272 126c53 125 425 246 775 246
c256 0 460 -37 610 -109c150 -73 225 -185 225 -337v-735h-264zM1474 367v177h-515c-193 0 -333 -16 -421 -46c-87 -31 -131 -81 -131 -151c0 -67 40 -116 120 -149c80 -32 199 -48 358 -48c166 0 306 24 419 74s170 98 170 143zM938 1456c183 0 312 -96 312 -199h-142
c0 50 -52 104 -170 104c-129 0 -171 -54 -171 -104h-141c0 103 117 199 312 199z" />
    <glyph glyph-name="amacron" unicode="&#x101;" horiz-adv-x="1961" 
d="M1500 0l-17 146c-31 -22 -69 -43 -114 -63c-147 -66 -328 -98 -541 -98s-385 28 -516 84s-197 147 -197 274c0 124 71 213 212 269s349 84 624 84h523v56c0 77 -46 137 -139 181c-92 43 -219 65 -379 65c-276 0 -503 -87 -530 -189l-272 126c53 125 425 246 775 246
c256 0 460 -37 610 -109c150 -73 225 -185 225 -337v-735h-264zM1474 367v177h-515c-193 0 -333 -16 -421 -46c-87 -31 -131 -81 -131 -151c0 -67 40 -116 120 -149c80 -32 199 -48 358 -48c166 0 306 24 419 74s170 98 170 143zM465 1304v109h947v-109h-947z" />
    <glyph glyph-name="aogonek" unicode="&#x105;" horiz-adv-x="1961" 
d="M1500 0l-17 146c-31 -22 -69 -43 -114 -63c-147 -66 -328 -98 -541 -98s-385 28 -516 84s-197 147 -197 274c0 124 71 213 212 269s349 84 624 84h523v56c0 77 -46 137 -139 181c-92 43 -219 65 -379 65c-276 0 -503 -87 -530 -189l-272 126c53 125 425 246 775 246
c256 0 460 -37 610 -109c150 -73 225 -185 225 -337v-735c-25 -25 -76 -108 -76 -158c0 -42 30 -73 106 -73c72 0 168 22 206 37l4 -136c-33 -14 -149 -36 -258 -36c-119 0 -221 44 -221 159c0 95 59 174 96 207h-121zM1474 544h-515c-193 0 -333 -16 -421 -46
c-87 -31 -131 -81 -131 -151c0 -67 40 -116 120 -149c80 -32 199 -48 358 -48c166 0 306 24 419 74s170 98 170 143v177z" />
    <glyph glyph-name="aring" unicode="&#xe5;" horiz-adv-x="1961" 
d="M1500 0l-17 146c-31 -22 -69 -43 -114 -63c-147 -66 -328 -98 -541 -98s-385 28 -516 84s-197 147 -197 274c0 124 71 213 212 269s349 84 624 84h523v56c0 77 -46 137 -139 181c-92 43 -219 65 -379 65c-276 0 -503 -87 -530 -189l-272 126c53 125 425 246 775 246
c256 0 460 -37 610 -109c150 -73 225 -185 225 -337v-735h-264zM1474 367v177h-515c-193 0 -333 -16 -421 -46c-87 -31 -131 -81 -131 -151c0 -67 40 -116 120 -149c80 -32 199 -48 358 -48c166 0 306 24 419 74s170 98 170 143zM938 1214c-88 0 -154 67 -154 154
c0 86 66 153 154 153s154 -67 154 -153c0 -87 -66 -154 -154 -154zM938 1319c27 0 48 21 48 49c0 26 -21 47 -48 47c-26 0 -48 -21 -48 -47c0 -28 22 -49 48 -49z" />
    <glyph glyph-name="aringacute" unicode="&#x1fb;" horiz-adv-x="1961" 
d="M1500 0l-17 146c-31 -22 -69 -43 -114 -63c-147 -66 -328 -98 -541 -98s-385 28 -516 84s-197 147 -197 274c0 124 71 213 212 269s349 84 624 84h523v56c0 77 -46 137 -139 181c-92 43 -219 65 -379 65c-276 0 -503 -87 -530 -189l-272 126c53 125 425 246 775 246
c256 0 460 -37 610 -109c150 -73 225 -185 225 -337v-735h-264zM1474 367v177h-515c-193 0 -333 -16 -421 -46c-87 -31 -131 -81 -131 -151c0 -67 40 -116 120 -149c80 -32 199 -48 358 -48c166 0 306 24 419 74s170 98 170 143zM938 1214c-88 0 -154 67 -154 154
c0 86 66 153 154 153s154 -67 154 -153c0 -87 -66 -154 -154 -154zM717 1573l233 195h210l-300 -195h-143zM938 1319c27 0 48 21 48 49c0 26 -21 47 -48 47c-26 0 -48 -21 -48 -47c0 -28 22 -49 48 -49z" />
    <glyph glyph-name="atilde" unicode="&#xe3;" horiz-adv-x="1961" 
d="M1500 0l-17 146c-31 -22 -69 -43 -114 -63c-147 -66 -328 -98 -541 -98s-385 28 -516 84s-197 147 -197 274c0 124 71 213 212 269s349 84 624 84h523v56c0 77 -46 137 -139 181c-92 43 -219 65 -379 65c-276 0 -503 -87 -530 -189l-272 126c53 125 425 246 775 246
c256 0 460 -37 610 -109c150 -73 225 -185 225 -337v-735h-264zM1474 367v177h-515c-193 0 -333 -16 -421 -46c-87 -31 -131 -81 -131 -151c0 -67 40 -116 120 -149c80 -32 199 -48 358 -48c166 0 306 24 419 74s170 98 170 143zM1114 1272c-175 0 -207 101 -325 101
c-83 0 -117 -54 -119 -83h-151c4 46 42 201 265 201c163 0 182 -100 318 -100c77 0 112 54 115 84h151c-3 -40 -34 -203 -254 -203z" />
    <glyph glyph-name="ae" unicode="&#xe6;" horiz-adv-x="3325" 
d="M786 -15c-208 0 -371 32 -491 95s-180 148 -180 257c0 116 62 199 185 249c123 49 295 74 515 74h630v12c0 106 -46 187 -136 242s-209 83 -357 83c-152 0 -273 -22 -362 -66s-145 -95 -166 -155l-270 127c39 70 127 133 263 191c137 57 314 86 532 86
c208 0 385 -42 530 -126c46 -26 85 -58 116 -96c30 27 63 52 100 74c170 99 373 149 609 149c247 0 452 -51 614 -153c161 -103 242 -249 242 -438c0 -35 -3 -64 -9 -88h-1429c17 -103 71 -182 160 -237c111 -69 255 -103 433 -103c271 0 524 95 551 211l241 -137
c-54 -137 -460 -249 -793 -249c-249 0 -457 49 -623 147c-60 35 -109 77 -147 125c-42 -69 -105 -124 -190 -164c-155 -73 -344 -110 -568 -110zM1445 481v31h-542c-177 0 -302 -14 -376 -42c-75 -28 -112 -71 -112 -127s34 -101 101 -136c68 -35 186 -52 354 -52
c175 0 315 30 420 90c91 53 143 132 155 236zM1724 676h1149c-8 100 -60 180 -156 238c-106 64 -243 96 -412 96c-166 0 -306 -35 -420 -105c-88 -55 -142 -131 -161 -229z" />
    <glyph glyph-name="aeacute" unicode="&#x1fd;" horiz-adv-x="3325" 
d="M786 -15c-208 0 -371 32 -491 95s-180 148 -180 257c0 116 62 199 185 249c123 49 295 74 515 74h630v12c0 106 -46 187 -136 242s-209 83 -357 83c-152 0 -273 -22 -362 -66s-145 -95 -166 -155l-270 127c39 70 127 133 263 191c137 57 314 86 532 86
c208 0 385 -42 530 -126c46 -26 85 -58 116 -96c30 27 63 52 100 74c170 99 373 149 609 149c247 0 452 -51 614 -153c161 -103 242 -249 242 -438c0 -35 -3 -64 -9 -88h-1429c17 -103 71 -182 160 -237c111 -69 255 -103 433 -103c271 0 524 95 551 211l241 -137
c-54 -137 -460 -249 -793 -249c-249 0 -457 49 -623 147c-60 35 -109 77 -147 125c-42 -69 -105 -124 -190 -164c-155 -73 -344 -110 -568 -110zM1445 481v31h-542c-177 0 -302 -14 -376 -42c-75 -28 -112 -71 -112 -127s34 -101 101 -136c68 -35 186 -52 354 -52
c175 0 315 30 420 90c91 53 143 132 155 236zM1724 676h1149c-8 100 -60 180 -156 238c-106 64 -243 96 -412 96c-166 0 -306 -35 -420 -105c-88 -55 -142 -131 -161 -229zM1395 1224l233 195h210l-300 -195h-143z" />
    <glyph glyph-name="b" unicode="b" horiz-adv-x="1999" 
d="M173 0v1570h291v-586c28 21 61 43 100 66c147 88 328 132 543 132c209 0 384 -49 525 -147s212 -247 212 -447s-71 -350 -212 -449s-316 -149 -525 -149c-215 0 -396 44 -543 132c-40 23 -74 46 -103 68l-7 -190h-281zM464 689v-206c9 -70 64 -136 165 -198
c111 -69 242 -103 393 -103c156 0 283 35 380 105c96 70 145 170 145 299s-49 229 -145 299c-97 70 -224 105 -380 105c-151 0 -282 -34 -393 -103c-101 -62 -156 -128 -165 -198z" />
    <glyph glyph-name="c" unicode="c" horiz-adv-x="1881" 
d="M943 -13c-245 0 -450 47 -616 143s-249 247 -249 453c0 203 83 353 249 451c166 97 371 146 616 146c207 0 383 -33 527 -99s224 -131 241 -195l-237 -142c-7 52 -58 106 -154 161s-222 83 -377 83c-159 0 -293 -35 -402 -103s-164 -169 -164 -302
c0 -136 55 -238 165 -305s244 -100 401 -100c155 0 280 26 376 80c96 53 148 108 155 165l237 -148c-17 -68 -98 -133 -242 -195s-319 -93 -526 -93z" />
    <glyph glyph-name="cacute" unicode="&#x107;" horiz-adv-x="1881" 
d="M943 -13c-245 0 -450 47 -616 143s-249 247 -249 453c0 203 83 353 249 451c166 97 371 146 616 146c207 0 383 -33 527 -99s224 -131 241 -195l-237 -142c-7 52 -58 106 -154 161s-222 83 -377 83c-159 0 -293 -35 -402 -103s-164 -169 -164 -302
c0 -136 55 -238 165 -305s244 -100 401 -100c155 0 280 26 376 80c96 53 148 108 155 165l237 -148c-17 -68 -98 -133 -242 -195s-319 -93 -526 -93zM718 1222l233 195h210l-300 -195h-143z" />
    <glyph glyph-name="ccaron" unicode="&#x10d;" horiz-adv-x="1881" 
d="M943 -13c-245 0 -450 47 -616 143s-249 247 -249 453c0 203 83 353 249 451c166 97 371 146 616 146c207 0 383 -33 527 -99s224 -131 241 -195l-237 -142c-7 52 -58 106 -154 161s-222 83 -377 83c-159 0 -293 -35 -402 -103s-164 -169 -164 -302
c0 -136 55 -238 165 -305s244 -100 401 -100c155 0 280 26 376 80c96 53 148 108 155 165l237 -148c-17 -68 -98 -133 -242 -195s-319 -93 -526 -93zM844 1218l-334 214h196l235 -156l231 156h198l-336 -214h-190z" />
    <glyph glyph-name="ccedilla" unicode="&#xe7;" horiz-adv-x="1881" 
d="M1016 -349c-78 0 -154 9 -229 25l45 123c49 -12 113 -23 188 -23c110 0 167 23 167 63c0 30 -30 42 -83 42c-49 0 -107 -19 -145 -36l-105 12l45 130c-225 5 -416 53 -572 143c-166 96 -249 247 -249 453c0 203 83 353 249 451c166 97 371 146 616 146
c207 0 383 -33 527 -99s224 -131 241 -195l-237 -142c-7 52 -58 106 -154 161s-222 83 -377 83c-159 0 -293 -35 -402 -103s-164 -169 -164 -302c0 -136 55 -238 165 -305s244 -100 401 -100c155 0 280 26 376 80c96 53 148 108 155 165l237 -148
c-17 -68 -98 -133 -242 -195c-126 -55 -277 -85 -451 -92l-35 -83c46 26 127 45 202 45c108 0 189 -39 189 -119c0 -124 -184 -180 -358 -180z" />
    <glyph glyph-name="uni1E09" unicode="&#x1e09;" horiz-adv-x="1881" 
d="M1016 -349c-78 0 -154 9 -229 25l45 123c49 -12 113 -23 188 -23c110 0 167 23 167 63c0 30 -30 42 -83 42c-49 0 -107 -19 -145 -36l-105 12l45 130c-225 5 -416 53 -572 143c-166 96 -249 247 -249 453c0 203 83 353 249 451c166 97 371 146 616 146
c207 0 383 -33 527 -99s224 -131 241 -195l-237 -142c-7 52 -58 106 -154 161s-222 83 -377 83c-159 0 -293 -35 -402 -103s-164 -169 -164 -302c0 -136 55 -238 165 -305s244 -100 401 -100c155 0 280 26 376 80c96 53 148 108 155 165l237 -148
c-17 -68 -98 -133 -242 -195c-126 -55 -277 -85 -451 -92l-35 -83c46 26 127 45 202 45c108 0 189 -39 189 -119c0 -124 -184 -180 -358 -180zM718 1222l233 195h210l-300 -195h-143z" />
    <glyph glyph-name="ccircumflex" unicode="&#x109;" horiz-adv-x="1881" 
d="M943 -13c-245 0 -450 47 -616 143s-249 247 -249 453c0 203 83 353 249 451c166 97 371 146 616 146c207 0 383 -33 527 -99s224 -131 241 -195l-237 -142c-7 52 -58 106 -154 161s-222 83 -377 83c-159 0 -293 -35 -402 -103s-164 -169 -164 -302
c0 -136 55 -238 165 -305s244 -100 401 -100c155 0 280 26 376 80c96 53 148 108 155 165l237 -148c-17 -68 -98 -133 -242 -195s-319 -93 -526 -93zM510 1223l334 214h190l336 -214h-198l-232 156l-234 -156h-196z" />
    <glyph glyph-name="cdotaccent" unicode="&#x10b;" horiz-adv-x="1881" 
d="M943 -13c-245 0 -450 47 -616 143s-249 247 -249 453c0 203 83 353 249 451c166 97 371 146 616 146c207 0 383 -33 527 -99s224 -131 241 -195l-237 -142c-7 52 -58 106 -154 161s-222 83 -377 83c-159 0 -293 -35 -402 -103s-164 -169 -164 -302
c0 -136 55 -238 165 -305s244 -100 401 -100c155 0 280 26 376 80c96 53 148 108 155 165l237 -148c-17 -68 -98 -133 -242 -195s-319 -93 -526 -93zM940 1239c-52 0 -93 41 -93 93c0 51 41 92 93 92c51 0 92 -41 92 -92c0 -52 -41 -93 -92 -93z" />
    <glyph glyph-name="d" unicode="d" horiz-adv-x="1970" 
d="M1481 0v187c-28 -21 -61 -43 -98 -65c-145 -88 -325 -132 -540 -132c-210 0 -386 49 -528 147c-143 97 -214 248 -214 451s71 353 214 450c142 96 318 144 528 144c215 0 395 -44 540 -132c37 -22 70 -44 98 -65v585h289v-1570h-289zM1481 483v206
c-10 70 -64 136 -163 198c-110 69 -240 103 -390 103c-157 0 -285 -34 -383 -103c-98 -68 -147 -169 -147 -301s49 -233 147 -301c98 -69 226 -103 383 -103c150 0 280 34 390 103c99 62 153 128 163 198z" />
    <glyph glyph-name="eth" unicode="&#xf0;" horiz-adv-x="2000" 
d="M965 -10c-252 0 -457 51 -613 155s-234 251 -234 443s75 338 224 439c150 101 351 152 603 152c183 0 354 -42 512 -127c-95 159 -264 255 -493 305l-42 -89l-185 19l49 98c-90 10 -187 15 -291 16l61 157c113 -1 215 -9 306 -21l45 90l173 -26l-46 -96
c230 -56 384 -152 512 -258c182 -149 264 -408 264 -654c0 -198 -78 -348 -234 -450s-359 -153 -611 -153zM965 182c174 0 309 37 407 111s147 172 147 295s-49 222 -147 297s-233 112 -407 112s-311 -38 -409 -115s-147 -175 -147 -294s49 -217 147 -293s235 -113 409 -113
z" />
    <glyph glyph-name="dcaron" unicode="&#x10f;" horiz-adv-x="2122" 
d="M1481 0v187c-28 -21 -61 -43 -98 -65c-145 -88 -325 -132 -540 -132c-210 0 -386 49 -528 147c-143 97 -214 248 -214 451s71 353 214 450c142 96 318 144 528 144c215 0 395 -44 540 -132c37 -22 70 -44 98 -65v585h289v-1570h-289zM1481 483v206
c-10 70 -64 136 -163 198c-110 69 -240 103 -390 103c-157 0 -285 -34 -383 -103c-98 -68 -147 -169 -147 -301s49 -233 147 -301c98 -69 226 -103 383 -103c150 0 280 34 390 103c99 62 153 128 163 198zM1863 1204l70 366h194l-92 -366h-172z" />
    <glyph glyph-name="dcroat" unicode="&#x111;" horiz-adv-x="1971" 
d="M931 1305v130h550v135h289v-135h201v-130h-201v-1305h-289v187c-28 -21 -61 -43 -98 -65c-145 -88 -325 -132 -540 -132c-210 0 -386 49 -528 147c-143 97 -214 248 -214 451s71 353 214 450c142 96 318 144 528 144c215 0 395 -44 540 -132c37 -22 70 -44 98 -65v320
h-550zM1481 483v206c-10 70 -64 136 -163 198c-110 69 -240 103 -390 103c-157 0 -285 -34 -383 -103c-98 -68 -147 -169 -147 -301s49 -233 147 -301c98 -69 226 -103 383 -103c150 0 280 34 390 103c99 62 153 128 163 198z" />
    <glyph glyph-name="uni1E0D" unicode="&#x1e0d;" horiz-adv-x="1970" 
d="M1481 0v187c-28 -21 -61 -43 -98 -65c-145 -88 -325 -132 -540 -132c-210 0 -386 49 -528 147c-143 97 -214 248 -214 451s71 353 214 450c142 96 318 144 528 144c215 0 395 -44 540 -132c37 -22 70 -44 98 -65v585h289v-1570h-289zM1481 483v206
c-10 70 -64 136 -163 198c-110 69 -240 103 -390 103c-157 0 -285 -34 -383 -103c-98 -68 -147 -169 -147 -301s49 -233 147 -301c98 -69 226 -103 383 -103c150 0 280 34 390 103c99 62 153 128 163 198zM1026 -298c-52 0 -93 41 -93 93c0 51 41 92 93 92
c51 0 92 -41 92 -92c0 -52 -41 -93 -92 -93z" />
    <glyph glyph-name="uni1E0F" unicode="&#x1e0f;" horiz-adv-x="1970" 
d="M1481 0v187c-28 -21 -61 -43 -98 -65c-145 -88 -325 -132 -540 -132c-210 0 -386 49 -528 147c-143 97 -214 248 -214 451s71 353 214 450c142 96 318 144 528 144c215 0 395 -44 540 -132c37 -22 70 -44 98 -65v585h289v-1570h-289zM1481 483v206
c-10 70 -64 136 -163 198c-110 69 -240 103 -390 103c-157 0 -285 -34 -383 -103c-98 -68 -147 -169 -147 -301s49 -233 147 -301c98 -69 226 -103 383 -103c150 0 280 34 390 103c99 62 153 128 163 198zM552 -245v109h947v-109h-947z" />
    <glyph glyph-name="uni01C6" unicode="&#x1c6;" horiz-adv-x="3663" 
d="M1481 0v187c-28 -21 -61 -43 -98 -65c-145 -88 -325 -132 -540 -132c-210 0 -386 49 -528 147c-143 97 -214 248 -214 451s71 353 214 450c142 96 318 144 528 144c215 0 395 -44 540 -132c37 -22 70 -44 98 -65v585h289v-1570h-289zM2093 0v198l1037 780h-1033v192h1380
v-199l-1018 -779h1036v-192h-1402zM1481 483v206c-10 70 -64 136 -163 198c-110 69 -240 103 -390 103c-157 0 -285 -34 -383 -103c-98 -68 -147 -169 -147 -301s49 -233 147 -301c98 -69 226 -103 383 -103c150 0 280 34 390 103c99 62 153 128 163 198zM2696 1218
l-334 214h197l234 -156l232 156h197l-336 -214h-190z" />
    <glyph glyph-name="e" unicode="e" horiz-adv-x="1989" 
d="M978 -13c-249 0 -457 49 -623 147c-167 98 -250 248 -250 451c0 198 85 347 254 447c170 99 373 149 609 149c247 0 452 -51 614 -153c161 -103 242 -249 242 -438c0 -35 -3 -64 -9 -88h-1429c17 -103 71 -182 160 -237c111 -69 255 -103 433 -103c271 0 524 95 551 211
l241 -137c-54 -137 -460 -249 -793 -249zM388 676h1149c-8 100 -60 180 -156 238c-106 64 -243 96 -412 96c-166 0 -306 -35 -420 -105c-88 -55 -142 -131 -161 -229z" />
    <glyph glyph-name="eacute" unicode="&#xe9;" horiz-adv-x="1989" 
d="M978 -13c-249 0 -457 49 -623 147c-167 98 -250 248 -250 451c0 198 85 347 254 447c170 99 373 149 609 149c247 0 452 -51 614 -153c161 -103 242 -249 242 -438c0 -35 -3 -64 -9 -88h-1429c17 -103 71 -182 160 -237c111 -69 255 -103 433 -103c271 0 524 95 551 211
l241 -137c-54 -137 -460 -249 -793 -249zM388 676h1149c-8 100 -60 180 -156 238c-106 64 -243 96 -412 96c-166 0 -306 -35 -420 -105c-88 -55 -142 -131 -161 -229zM747 1222l233 195h210l-300 -195h-143z" />
    <glyph glyph-name="ebreve" unicode="&#x115;" horiz-adv-x="1989" 
d="M978 -13c-249 0 -457 49 -623 147c-167 98 -250 248 -250 451c0 198 85 347 254 447c170 99 373 149 609 149c247 0 452 -51 614 -153c161 -103 242 -249 242 -438c0 -35 -3 -64 -9 -88h-1429c17 -103 71 -182 160 -237c111 -69 255 -103 433 -103c271 0 524 95 551 211
l241 -137c-54 -137 -460 -249 -793 -249zM388 676h1149c-8 100 -60 180 -156 238c-106 64 -243 96 -412 96c-166 0 -306 -35 -420 -105c-88 -55 -142 -131 -161 -229zM968 1223c-183 0 -312 96 -312 199h142c0 -50 52 -104 170 -104c129 0 171 54 171 104h141
c0 -103 -117 -199 -312 -199z" />
    <glyph glyph-name="ecaron" unicode="&#x11b;" horiz-adv-x="1989" 
d="M978 -13c-249 0 -457 49 -623 147c-167 98 -250 248 -250 451c0 198 85 347 254 447c170 99 373 149 609 149c247 0 452 -51 614 -153c161 -103 242 -249 242 -438c0 -35 -3 -64 -9 -88h-1429c17 -103 71 -182 160 -237c111 -69 255 -103 433 -103c271 0 524 95 551 211
l241 -137c-54 -137 -460 -249 -793 -249zM388 676h1149c-8 100 -60 180 -156 238c-106 64 -243 96 -412 96c-166 0 -306 -35 -420 -105c-88 -55 -142 -131 -161 -229zM872 1218l-334 214h197l234 -156l232 156h197l-336 -214h-190z" />
    <glyph glyph-name="uni1E1D" unicode="&#x1e1d;" horiz-adv-x="1989" 
d="M979 162c271 0 524 95 551 211l241 -137c-51 -130 -415 -237 -735 -248l-35 -83c46 26 127 45 202 45c108 0 189 -39 189 -119c0 -124 -184 -180 -358 -180c-78 0 -154 9 -229 25l45 123c49 -12 113 -23 188 -23c110 0 167 23 167 63c0 30 -30 42 -83 42
c-49 0 -107 -19 -145 -36l-105 12l46 130c-223 8 -411 57 -563 147c-167 98 -250 248 -250 451c0 198 85 347 254 447c170 99 373 149 609 149c247 0 452 -51 614 -153c161 -103 242 -249 242 -438c0 -35 -3 -64 -9 -88h-1429c17 -103 71 -182 160 -237
c111 -69 255 -103 433 -103zM388 676h1149c-8 100 -60 180 -156 238c-106 64 -243 96 -412 96c-166 0 -306 -35 -420 -105c-88 -55 -142 -131 -161 -229zM968 1223c-183 0 -312 96 -312 199h142c0 -50 52 -104 170 -104c129 0 171 54 171 104h141
c0 -103 -117 -199 -312 -199z" />
    <glyph glyph-name="ecircumflex" unicode="&#xea;" horiz-adv-x="1989" 
d="M978 -13c-249 0 -457 49 -623 147c-167 98 -250 248 -250 451c0 198 85 347 254 447c170 99 373 149 609 149c247 0 452 -51 614 -153c161 -103 242 -249 242 -438c0 -35 -3 -64 -9 -88h-1429c17 -103 71 -182 160 -237c111 -69 255 -103 433 -103c271 0 524 95 551 211
l241 -137c-54 -137 -460 -249 -793 -249zM388 676h1149c-8 100 -60 180 -156 238c-106 64 -243 96 -412 96c-166 0 -306 -35 -420 -105c-88 -55 -142 -131 -161 -229zM538 1223l334 214h190l336 -214h-197l-232 156l-234 -156h-197z" />
    <glyph glyph-name="uni1EBF" unicode="&#x1ebf;" horiz-adv-x="1989" 
d="M978 -13c-249 0 -457 49 -623 147c-167 98 -250 248 -250 451c0 198 85 347 254 447c170 99 373 149 609 149c247 0 452 -51 614 -153c161 -103 242 -249 242 -438c0 -35 -3 -64 -9 -88h-1429c17 -103 71 -182 160 -237c111 -69 255 -103 433 -103c271 0 524 95 551 211
l241 -137c-54 -137 -460 -249 -793 -249zM388 676h1149c-8 100 -60 180 -156 238c-106 64 -243 96 -412 96c-166 0 -306 -35 -420 -105c-88 -55 -142 -131 -161 -229zM538 1223l334 214h190l336 -214h-197l-232 156l-234 -156h-197zM747 1489l233 195h210l-300 -195h-143z
" />
    <glyph glyph-name="uni1EC7" unicode="&#x1ec7;" horiz-adv-x="1989" 
d="M978 -13c-249 0 -457 49 -623 147c-167 98 -250 248 -250 451c0 198 85 347 254 447c170 99 373 149 609 149c247 0 452 -51 614 -153c161 -103 242 -249 242 -438c0 -35 -3 -64 -9 -88h-1429c17 -103 71 -182 160 -237c111 -69 255 -103 433 -103c271 0 524 95 551 211
l241 -137c-54 -137 -460 -249 -793 -249zM388 676h1149c-8 100 -60 180 -156 238c-106 64 -243 96 -412 96c-166 0 -306 -35 -420 -105c-88 -55 -142 -131 -161 -229zM538 1223l334 214h190l336 -214h-197l-232 156l-234 -156h-197zM974 -298c-52 0 -93 41 -93 93
c0 51 41 92 93 92c51 0 92 -41 92 -92c0 -52 -41 -93 -92 -93z" />
    <glyph glyph-name="uni1EC1" unicode="&#x1ec1;" horiz-adv-x="1989" 
d="M978 -13c-249 0 -457 49 -623 147c-167 98 -250 248 -250 451c0 198 85 347 254 447c170 99 373 149 609 149c247 0 452 -51 614 -153c161 -103 242 -249 242 -438c0 -35 -3 -64 -9 -88h-1429c17 -103 71 -182 160 -237c111 -69 255 -103 433 -103c271 0 524 95 551 211
l241 -137c-54 -137 -460 -249 -793 -249zM388 676h1149c-8 100 -60 180 -156 238c-106 64 -243 96 -412 96c-166 0 -306 -35 -420 -105c-88 -55 -142 -131 -161 -229zM538 1223l334 214h190l336 -214h-197l-232 156l-234 -156h-197zM1047 1499l-300 195h208l235 -195h-143z
" />
    <glyph glyph-name="uni1EC3" unicode="&#x1ec3;" horiz-adv-x="1989" 
d="M978 -13c-249 0 -457 49 -623 147c-167 98 -250 248 -250 451c0 198 85 347 254 447c170 99 373 149 609 149c247 0 452 -51 614 -153c161 -103 242 -249 242 -438c0 -35 -3 -64 -9 -88h-1429c17 -103 71 -182 160 -237c111 -69 255 -103 433 -103c271 0 524 95 551 211
l241 -137c-54 -137 -460 -249 -793 -249zM388 676h1149c-8 100 -60 180 -156 238c-106 64 -243 96 -412 96c-166 0 -306 -35 -420 -105c-88 -55 -142 -131 -161 -229zM793 1810c368 0 533 -18 533 -119c0 -97 -174 -121 -310 -121v-69h-104v138c155 0 265 7 265 42
c0 41 -117 43 -384 43v86zM538 1223l334 214h190l336 -214h-197l-232 156l-234 -156h-197z" />
    <glyph glyph-name="uni1EC5" unicode="&#x1ec5;" horiz-adv-x="1989" 
d="M978 -13c-249 0 -457 49 -623 147c-167 98 -250 248 -250 451c0 198 85 347 254 447c170 99 373 149 609 149c247 0 452 -51 614 -153c161 -103 242 -249 242 -438c0 -35 -3 -64 -9 -88h-1429c17 -103 71 -182 160 -237c111 -69 255 -103 433 -103c271 0 524 95 551 211
l241 -137c-54 -137 -460 -249 -793 -249zM388 676h1149c-8 100 -60 180 -156 238c-106 64 -243 96 -412 96c-166 0 -306 -35 -420 -105c-88 -55 -142 -131 -161 -229zM1144 1538c-175 0 -207 101 -325 101c-83 0 -117 -53 -119 -83h-151c4 46 42 201 265 201
c163 0 182 -100 318 -100c77 0 112 55 115 84h151c-3 -40 -34 -203 -254 -203zM538 1223l334 214h190l336 -214h-197l-232 156l-234 -156h-197z" />
    <glyph glyph-name="uni0205" unicode="&#x205;" horiz-adv-x="1989" 
d="M978 -13c-249 0 -457 49 -623 147c-167 98 -250 248 -250 451c0 198 85 347 254 447c170 99 373 149 609 149c247 0 452 -51 614 -153c161 -103 242 -249 242 -438c0 -35 -3 -64 -9 -88h-1429c17 -103 71 -182 160 -237c111 -69 255 -103 433 -103c271 0 524 95 551 211
l241 -137c-54 -137 -460 -249 -793 -249zM388 676h1149c-8 100 -60 180 -156 238c-106 64 -243 96 -412 96c-166 0 -306 -35 -420 -105c-88 -55 -142 -131 -161 -229zM881 1242l-300 195h208l235 -195h-143zM1212 1242l-300 195h208l235 -195h-143z" />
    <glyph glyph-name="edieresis" unicode="&#xeb;" horiz-adv-x="1989" 
d="M978 -13c-249 0 -457 49 -623 147c-167 98 -250 248 -250 451c0 198 85 347 254 447c170 99 373 149 609 149c247 0 452 -51 614 -153c161 -103 242 -249 242 -438c0 -35 -3 -64 -9 -88h-1429c17 -103 71 -182 160 -237c111 -69 255 -103 433 -103c271 0 524 95 551 211
l241 -137c-54 -137 -460 -249 -793 -249zM388 676h1149c-8 100 -60 180 -156 238c-106 64 -243 96 -412 96c-166 0 -306 -35 -420 -105c-88 -55 -142 -131 -161 -229zM727 1246c-52 0 -94 42 -94 94s42 94 94 94s94 -42 94 -94s-42 -94 -94 -94zM1203 1246
c-52 0 -94 42 -94 94s42 94 94 94s94 -42 94 -94s-42 -94 -94 -94z" />
    <glyph glyph-name="edotaccent" unicode="&#x117;" horiz-adv-x="1989" 
d="M978 -13c-249 0 -457 49 -623 147c-167 98 -250 248 -250 451c0 198 85 347 254 447c170 99 373 149 609 149c247 0 452 -51 614 -153c161 -103 242 -249 242 -438c0 -35 -3 -64 -9 -88h-1429c17 -103 71 -182 160 -237c111 -69 255 -103 433 -103c271 0 524 95 551 211
l241 -137c-54 -137 -460 -249 -793 -249zM388 676h1149c-8 100 -60 180 -156 238c-106 64 -243 96 -412 96c-166 0 -306 -35 -420 -105c-88 -55 -142 -131 -161 -229zM969 1239c-52 0 -93 41 -93 93c0 51 41 92 93 92c51 0 92 -41 92 -92c0 -52 -41 -93 -92 -93z" />
    <glyph glyph-name="uni1EB9" unicode="&#x1eb9;" horiz-adv-x="1989" 
d="M978 -13c-249 0 -457 49 -623 147c-167 98 -250 248 -250 451c0 198 85 347 254 447c170 99 373 149 609 149c247 0 452 -51 614 -153c161 -103 242 -249 242 -438c0 -35 -3 -64 -9 -88h-1429c17 -103 71 -182 160 -237c111 -69 255 -103 433 -103c271 0 524 95 551 211
l241 -137c-54 -137 -460 -249 -793 -249zM388 676h1149c-8 100 -60 180 -156 238c-106 64 -243 96 -412 96c-166 0 -306 -35 -420 -105c-88 -55 -142 -131 -161 -229zM974 -298c-52 0 -93 41 -93 93c0 51 41 92 93 92c51 0 92 -41 92 -92c0 -52 -41 -93 -92 -93z" />
    <glyph glyph-name="egrave" unicode="&#xe8;" horiz-adv-x="1989" 
d="M978 -13c-249 0 -457 49 -623 147c-167 98 -250 248 -250 451c0 198 85 347 254 447c170 99 373 149 609 149c247 0 452 -51 614 -153c161 -103 242 -249 242 -438c0 -35 -3 -64 -9 -88h-1429c17 -103 71 -182 160 -237c111 -69 255 -103 433 -103c271 0 524 95 551 211
l241 -137c-54 -137 -460 -249 -793 -249zM388 676h1149c-8 100 -60 180 -156 238c-106 64 -243 96 -412 96c-166 0 -306 -35 -420 -105c-88 -55 -142 -131 -161 -229zM1047 1232l-300 195h208l235 -195h-143z" />
    <glyph glyph-name="uni1EBB" unicode="&#x1ebb;" horiz-adv-x="1989" 
d="M978 -13c-249 0 -457 49 -623 147c-167 98 -250 248 -250 451c0 198 85 347 254 447c170 99 373 149 609 149c247 0 452 -51 614 -153c161 -103 242 -249 242 -438c0 -35 -3 -64 -9 -88h-1429c17 -103 71 -182 160 -237c111 -69 255 -103 433 -103c271 0 524 95 551 211
l241 -137c-54 -137 -460 -249 -793 -249zM388 676h1149c-8 100 -60 180 -156 238c-106 64 -243 96 -412 96c-166 0 -306 -35 -420 -105c-88 -55 -142 -131 -161 -229zM793 1543c368 0 533 -18 533 -119c0 -97 -174 -121 -310 -121v-69h-104v138c155 0 265 7 265 42
c0 41 -117 43 -384 43v86z" />
    <glyph glyph-name="uni0207" unicode="&#x207;" horiz-adv-x="1989" 
d="M978 -13c-249 0 -457 49 -623 147c-167 98 -250 248 -250 451c0 198 85 347 254 447c170 99 373 149 609 149c247 0 452 -51 614 -153c161 -103 242 -249 242 -438c0 -35 -3 -64 -9 -88h-1429c17 -103 71 -182 160 -237c111 -69 255 -103 433 -103c271 0 524 95 551 211
l241 -137c-54 -137 -460 -249 -793 -249zM388 676h1149c-8 100 -60 180 -156 238c-106 64 -243 96 -412 96c-166 0 -306 -35 -420 -105c-88 -55 -142 -131 -161 -229zM968 1456c183 0 312 -96 312 -199h-142c0 50 -52 104 -170 104c-129 0 -171 -54 -171 -104h-141
c0 103 117 199 312 199z" />
    <glyph glyph-name="emacron" unicode="&#x113;" horiz-adv-x="1989" 
d="M978 -13c-249 0 -457 49 -623 147c-167 98 -250 248 -250 451c0 198 85 347 254 447c170 99 373 149 609 149c247 0 452 -51 614 -153c161 -103 242 -249 242 -438c0 -35 -3 -64 -9 -88h-1429c17 -103 71 -182 160 -237c111 -69 255 -103 433 -103c271 0 524 95 551 211
l241 -137c-54 -137 -460 -249 -793 -249zM388 676h1149c-8 100 -60 180 -156 238c-106 64 -243 96 -412 96c-166 0 -306 -35 -420 -105c-88 -55 -142 -131 -161 -229zM495 1303v109h947v-109h-947z" />
    <glyph glyph-name="uni1E17" unicode="&#x1e17;" horiz-adv-x="1989" 
d="M978 -13c-249 0 -457 49 -623 147c-167 98 -250 248 -250 451c0 198 85 347 254 447c170 99 373 149 609 149c247 0 452 -51 614 -153c161 -103 242 -249 242 -438c0 -35 -3 -64 -9 -88h-1429c17 -103 71 -182 160 -237c111 -69 255 -103 433 -103c271 0 524 95 551 211
l241 -137c-54 -137 -460 -249 -793 -249zM388 676h1149c-8 100 -60 180 -156 238c-106 64 -243 96 -412 96c-166 0 -306 -35 -420 -105c-88 -55 -142 -131 -161 -229zM495 1303v109h947v-109h-947zM747 1464l233 195h210l-300 -195h-143z" />
    <glyph glyph-name="uni1E15" unicode="&#x1e15;" horiz-adv-x="1989" 
d="M978 -13c-249 0 -457 49 -623 147c-167 98 -250 248 -250 451c0 198 85 347 254 447c170 99 373 149 609 149c247 0 452 -51 614 -153c161 -103 242 -249 242 -438c0 -35 -3 -64 -9 -88h-1429c17 -103 71 -182 160 -237c111 -69 255 -103 433 -103c271 0 524 95 551 211
l241 -137c-54 -137 -460 -249 -793 -249zM388 676h1149c-8 100 -60 180 -156 238c-106 64 -243 96 -412 96c-166 0 -306 -35 -420 -105c-88 -55 -142 -131 -161 -229zM495 1303v109h947v-109h-947zM1047 1474l-300 195h208l235 -195h-143z" />
    <glyph glyph-name="eogonek" unicode="&#x119;" horiz-adv-x="1989" 
d="M979 162c271 0 524 95 551 211l241 -137c-54 -137 -460 -249 -793 -249c-26 -35 -64 -102 -64 -145c0 -42 30 -73 106 -73c72 0 168 22 206 37l4 -136c-33 -14 -149 -36 -258 -36c-119 0 -221 44 -221 159c0 87 51 162 87 199c-188 15 -349 62 -483 142
c-167 98 -250 248 -250 451c0 198 85 347 254 447c170 99 373 149 609 149c247 0 452 -51 614 -153c161 -103 242 -249 242 -438c0 -35 -3 -64 -9 -88h-1429c17 -103 71 -182 160 -237c111 -69 255 -103 433 -103zM388 676h1149c-8 100 -60 180 -156 238
c-106 64 -243 96 -412 96c-166 0 -306 -35 -420 -105c-88 -55 -142 -131 -161 -229z" />
    <glyph glyph-name="uni1EBD" unicode="&#x1ebd;" horiz-adv-x="1989" 
d="M978 -13c-249 0 -457 49 -623 147c-167 98 -250 248 -250 451c0 198 85 347 254 447c170 99 373 149 609 149c247 0 452 -51 614 -153c161 -103 242 -249 242 -438c0 -35 -3 -64 -9 -88h-1429c17 -103 71 -182 160 -237c111 -69 255 -103 433 -103c271 0 524 95 551 211
l241 -137c-54 -137 -460 -249 -793 -249zM388 676h1149c-8 100 -60 180 -156 238c-106 64 -243 96 -412 96c-166 0 -306 -35 -420 -105c-88 -55 -142 -131 -161 -229zM1144 1271c-175 0 -207 101 -325 101c-83 0 -117 -53 -119 -83h-151c4 46 42 201 265 201
c163 0 182 -100 318 -100c77 0 112 55 115 84h151c-3 -40 -34 -203 -254 -203z" />
    <glyph glyph-name="uni0259" unicode="&#x259;" horiz-adv-x="1989" 
d="M1010 1011c-271 0 -524 -95 -551 -211l-241 136c54 138 460 250 793 250c249 0 457 -49 623 -147s250 -249 250 -451c0 -199 -85 -348 -255 -447c-169 -100 -372 -150 -608 -150c-248 0 -452 51 -614 154c-162 102 -242 248 -242 437c0 35 3 64 9 88h1429
c-18 103 -71 182 -160 237c-111 69 -255 104 -433 104zM1601 497h-1150c8 -101 61 -181 157 -239c105 -64 243 -96 412 -96c166 0 306 35 419 105c88 55 142 131 162 230z" />
    <glyph glyph-name="f" unicode="f" horiz-adv-x="1547" 
d="M461 0v978h-413v192h413c1 154 77 261 228 323c152 62 395 93 729 93h51v-180h-71c-242 0 -410 -18 -505 -55c-94 -36 -141 -97 -142 -181h579v-192h-579v-978h-290z" />
    <glyph glyph-name="g" unicode="g" horiz-adv-x="2003" 
d="M930 -469c-484 0 -786 166 -786 415h289c0 -146 215 -238 497 -238c281 0 552 108 552 404v76c-28 -22 -61 -43 -99 -66c-145 -88 -325 -132 -540 -132c-210 0 -386 49 -528 147c-143 97 -214 248 -214 451s71 353 214 450c142 96 318 144 528 144
c215 0 395 -44 540 -132c38 -23 71 -44 99 -66v186h291v-1049c0 -412 -359 -590 -843 -590zM1482 679c-6 74 -61 144 -164 208c-110 69 -240 103 -390 103c-157 0 -285 -34 -383 -103c-98 -68 -147 -169 -147 -301s49 -233 147 -301c98 -69 226 -103 383 -103
c150 0 280 34 390 103c103 64 158 134 164 208v186z" />
    <glyph glyph-name="gbreve" unicode="&#x11f;" horiz-adv-x="2003" 
d="M930 -469c-484 0 -786 166 -786 415h289c0 -146 215 -238 497 -238c281 0 552 108 552 404v76c-28 -22 -61 -43 -99 -66c-145 -88 -325 -132 -540 -132c-210 0 -386 49 -528 147c-143 97 -214 248 -214 451s71 353 214 450c142 96 318 144 528 144
c215 0 395 -44 540 -132c38 -23 71 -44 99 -66v186h291v-1049c0 -412 -359 -590 -843 -590zM1482 679c-6 74 -61 144 -164 208c-110 69 -240 103 -390 103c-157 0 -285 -34 -383 -103c-98 -68 -147 -169 -147 -301s49 -233 147 -301c98 -69 226 -103 383 -103
c150 0 280 34 390 103c103 64 158 134 164 208v186zM966 1223c-183 0 -312 96 -312 199h142c0 -50 52 -104 170 -104c129 0 171 54 171 104h141c0 -103 -117 -199 -312 -199z" />
    <glyph glyph-name="gcaron" unicode="&#x1e7;" horiz-adv-x="2003" 
d="M930 -469c-484 0 -786 166 -786 415h289c0 -146 215 -238 497 -238c281 0 552 108 552 404v76c-28 -22 -61 -43 -99 -66c-145 -88 -325 -132 -540 -132c-210 0 -386 49 -528 147c-143 97 -214 248 -214 451s71 353 214 450c142 96 318 144 528 144
c215 0 395 -44 540 -132c38 -23 71 -44 99 -66v186h291v-1049c0 -412 -359 -590 -843 -590zM1482 679c-6 74 -61 144 -164 208c-110 69 -240 103 -390 103c-157 0 -285 -34 -383 -103c-98 -68 -147 -169 -147 -301s49 -233 147 -301c98 -69 226 -103 383 -103
c150 0 280 34 390 103c103 64 158 134 164 208v186zM870 1218l-334 214h197l234 -156l232 156h197l-336 -214h-190z" />
    <glyph glyph-name="gcircumflex" unicode="&#x11d;" horiz-adv-x="2003" 
d="M930 -469c-484 0 -786 166 -786 415h289c0 -146 215 -238 497 -238c281 0 552 108 552 404v76c-28 -22 -61 -43 -99 -66c-145 -88 -325 -132 -540 -132c-210 0 -386 49 -528 147c-143 97 -214 248 -214 451s71 353 214 450c142 96 318 144 528 144
c215 0 395 -44 540 -132c38 -23 71 -44 99 -66v186h291v-1049c0 -412 -359 -590 -843 -590zM1482 679c-6 74 -61 144 -164 208c-110 69 -240 103 -390 103c-157 0 -285 -34 -383 -103c-98 -68 -147 -169 -147 -301s49 -233 147 -301c98 -69 226 -103 383 -103
c150 0 280 34 390 103c103 64 158 134 164 208v186zM536 1223l334 214h190l336 -214h-197l-232 156l-234 -156h-197z" />
    <glyph glyph-name="uni0123" unicode="&#x123;" horiz-adv-x="2003" 
d="M930 -469c-484 0 -786 166 -786 415h289c0 -146 215 -238 497 -238c281 0 552 108 552 404v76c-28 -22 -61 -43 -99 -66c-145 -88 -325 -132 -540 -132c-210 0 -386 49 -528 147c-143 97 -214 248 -214 451s71 353 214 450c142 96 318 144 528 144
c215 0 395 -44 540 -132c38 -23 71 -44 99 -66v186h291v-1049c0 -412 -359 -590 -843 -590zM1482 679c-6 74 -61 144 -164 208c-110 69 -240 103 -390 103c-157 0 -285 -34 -383 -103c-98 -68 -147 -169 -147 -301s49 -233 147 -301c98 -69 226 -103 383 -103
c150 0 280 34 390 103c103 64 158 134 164 208v186zM1133 1564l-112 -339h-150l166 339h96z" />
    <glyph glyph-name="gdotaccent" unicode="&#x121;" horiz-adv-x="2003" 
d="M930 -469c-484 0 -786 166 -786 415h289c0 -146 215 -238 497 -238c281 0 552 108 552 404v76c-28 -22 -61 -43 -99 -66c-145 -88 -325 -132 -540 -132c-210 0 -386 49 -528 147c-143 97 -214 248 -214 451s71 353 214 450c142 96 318 144 528 144
c215 0 395 -44 540 -132c38 -23 71 -44 99 -66v186h291v-1049c0 -412 -359 -590 -843 -590zM1482 679c-6 74 -61 144 -164 208c-110 69 -240 103 -390 103c-157 0 -285 -34 -383 -103c-98 -68 -147 -169 -147 -301s49 -233 147 -301c98 -69 226 -103 383 -103
c150 0 280 34 390 103c103 64 158 134 164 208v186zM967 1239c-52 0 -93 41 -93 93c0 51 41 92 93 92c51 0 92 -41 92 -92c0 -52 -41 -93 -92 -93z" />
    <glyph glyph-name="uni1E21" unicode="&#x1e21;" horiz-adv-x="2003" 
d="M930 -469c-484 0 -786 166 -786 415h289c0 -146 215 -238 497 -238c281 0 552 108 552 404v76c-28 -22 -61 -43 -99 -66c-145 -88 -325 -132 -540 -132c-210 0 -386 49 -528 147c-143 97 -214 248 -214 451s71 353 214 450c142 96 318 144 528 144
c215 0 395 -44 540 -132c38 -23 71 -44 99 -66v186h291v-1049c0 -412 -359 -590 -843 -590zM1482 679c-6 74 -61 144 -164 208c-110 69 -240 103 -390 103c-157 0 -285 -34 -383 -103c-98 -68 -147 -169 -147 -301s49 -233 147 -301c98 -69 226 -103 383 -103
c150 0 280 34 390 103c103 64 158 134 164 208v186zM493 1303v109h947v-109h-947z" />
    <glyph glyph-name="h" unicode="h" horiz-adv-x="1944" 
d="M173 0v1570h291v-630c18 19 39 39 61 58c140 124 324 186 552 186c201 0 361 -46 479 -138c118 -91 178 -236 178 -435v-611h-291v588c0 141 -41 243 -121 307c-81 64 -193 97 -337 97c-149 0 -274 -43 -376 -128c-79 -66 -128 -147 -145 -242v-622h-291z" />
    <glyph glyph-name="hbar" unicode="&#x127;" horiz-adv-x="1826" 
d="M0 1305v130h167v135h291v-135h582v-130h-582v-365c19 19 39 39 61 58c140 124 324 186 552 186c202 0 362 -46 480 -138c118 -91 177 -236 177 -435v-611h-291v588c0 141 -40 243 -121 307s-193 97 -337 97c-149 0 -274 -43 -376 -128c-79 -66 -127 -147 -145 -242v-622
h-291v1305h-167z" />
    <glyph glyph-name="uni1E2B" unicode="&#x1e2b;" horiz-adv-x="1944" 
d="M173 0v1570h291v-630c18 19 39 39 61 58c140 124 324 186 552 186c201 0 361 -46 479 -138c118 -91 178 -236 178 -435v-611h-291v588c0 141 -41 243 -121 307c-81 64 -193 97 -337 97c-149 0 -274 -43 -376 -128c-79 -66 -128 -147 -145 -242v-622h-291zM980 -295
c-183 0 -312 96 -312 199h142c0 -50 52 -104 170 -104c129 0 171 54 171 104h141c0 -103 -117 -199 -312 -199z" />
    <glyph glyph-name="hcircumflex" unicode="&#x125;" horiz-adv-x="1944" 
d="M173 0v1570h291v-630c18 19 39 39 61 58c140 124 324 186 552 186c201 0 361 -46 479 -138c118 -91 178 -236 178 -435v-611h-291v588c0 141 -41 243 -121 307c-81 64 -193 97 -337 97c-149 0 -274 -43 -376 -128c-79 -66 -128 -147 -145 -242v-622h-291zM622 1489
l334 214h190l336 -214h-197l-232 156l-234 -156h-197z" />
    <glyph glyph-name="uni1E25" unicode="&#x1e25;" horiz-adv-x="1944" 
d="M173 0v1570h291v-630c18 19 39 39 61 58c140 124 324 186 552 186c201 0 361 -46 479 -138c118 -91 178 -236 178 -435v-611h-291v588c0 141 -41 243 -121 307c-81 64 -193 97 -337 97c-149 0 -274 -43 -376 -128c-79 -66 -128 -147 -145 -242v-622h-291zM981 -298
c-52 0 -93 41 -93 93c0 51 41 92 93 92c51 0 92 -41 92 -92c0 -52 -41 -93 -92 -93z" />
    <glyph glyph-name="i" unicode="i" horiz-adv-x="777" 
d="M221 0v1172h291v-1172h-291zM221 1531h291v-216h-291v216z" />
    <glyph glyph-name="dotlessi" unicode="&#x131;" horiz-adv-x="721" 
d="M181 0v1172h290v-1172h-290z" />
    <glyph glyph-name="iacute" unicode="&#xed;" horiz-adv-x="721" 
d="M181 0v1172h290v-1172h-290zM105 1222l233 195h210l-300 -195h-143z" />
    <glyph glyph-name="ibreve" unicode="&#x12d;" horiz-adv-x="721" 
d="M181 0v1172h290v-1172h-290zM326 1223c-183 0 -312 96 -312 199h142c0 -50 52 -104 170 -104c129 0 171 54 171 104h141c0 -103 -117 -199 -312 -199z" />
    <glyph glyph-name="uni01D0" unicode="&#x1d0;" horiz-adv-x="721" 
d="M181 0v1172h290v-1172h-290zM230 1218l-334 214h197l234 -156l232 156h197l-336 -214h-190z" />
    <glyph glyph-name="icircumflex" unicode="&#xee;" horiz-adv-x="721" 
d="M181 0v1172h290v-1172h-290zM-104 1223l334 214h190l336 -214h-197l-232 156l-234 -156h-197z" />
    <glyph glyph-name="uni0209" unicode="&#x209;" horiz-adv-x="721" 
d="M181 0v1172h290v-1172h-290zM239 1242l-300 195h208l235 -195h-143zM570 1242l-300 195h208l235 -195h-143z" />
    <glyph glyph-name="idieresis" unicode="&#xef;" horiz-adv-x="721" 
d="M181 0v1172h290v-1172h-290zM85 1246c-52 0 -94 42 -94 94s42 94 94 94s94 -42 94 -94s-42 -94 -94 -94zM561 1246c-52 0 -94 42 -94 94s42 94 94 94s94 -42 94 -94s-42 -94 -94 -94z" />
    <glyph glyph-name="uni1E2F" unicode="&#x1e2f;" horiz-adv-x="721" 
d="M181 0v1172h290v-1172h-290zM105 1487l233 195h210l-300 -195h-143zM85 1246c-52 0 -94 42 -94 94s42 94 94 94s94 -42 94 -94s-42 -94 -94 -94zM561 1246c-52 0 -94 42 -94 94s42 94 94 94s94 -42 94 -94s-42 -94 -94 -94z" />
    <glyph glyph-name="i.loclTRK" horiz-adv-x="721" 
d="M181 0v1172h290v-1172h-290zM327 1239c-52 0 -93 41 -93 93c0 51 41 92 93 92c51 0 92 -41 92 -92c0 -52 -41 -93 -92 -93z" />
    <glyph glyph-name="uni1ECB" unicode="&#x1ecb;" horiz-adv-x="777" 
d="M221 0v1172h291v-1172h-291zM221 1531h291v-216h-291v216zM387 -298c-52 0 -93 41 -93 93c0 51 41 92 93 92c51 0 92 -41 92 -92c0 -52 -41 -93 -92 -93z" />
    <glyph glyph-name="igrave" unicode="&#xec;" horiz-adv-x="721" 
d="M181 0v1172h290v-1172h-290zM405 1232l-300 195h208l235 -195h-143z" />
    <glyph glyph-name="uni1EC9" unicode="&#x1ec9;" horiz-adv-x="721" 
d="M181 0v1172h290v-1172h-290zM151 1543c368 0 533 -18 533 -119c0 -97 -174 -121 -310 -121v-69h-104v138c155 0 265 7 265 42c0 41 -117 43 -384 43v86z" />
    <glyph glyph-name="uni020B" unicode="&#x20b;" horiz-adv-x="721" 
d="M181 0v1172h290v-1172h-290zM326 1456c183 0 312 -96 312 -199h-142c0 50 -52 104 -170 104c-129 0 -171 -54 -171 -104h-141c0 103 117 199 312 199z" />
    <glyph glyph-name="imacron" unicode="&#x12b;" horiz-adv-x="721" 
d="M181 0v1172h290v-1172h-290zM-37 1303v109h721v-109h-721z" />
    <glyph glyph-name="iogonek" unicode="&#x12f;" horiz-adv-x="721" 
d="M181 0v1172h290v-1172c-25 -25 -76 -108 -76 -158c0 -42 30 -73 106 -73c72 0 168 22 206 37l4 -136c-33 -14 -149 -36 -258 -36c-119 0 -221 44 -221 159c0 95 59 174 96 207h-147zM181 1531h291v-216h-291v216z" />
    <glyph glyph-name="itilde" unicode="&#x129;" horiz-adv-x="721" 
d="M181 0v1172h290v-1172h-290zM502 1271c-175 0 -207 101 -325 101c-83 0 -117 -53 -119 -83h-151c4 46 42 201 265 201c163 0 182 -100 318 -100c77 0 112 55 115 84h151c-3 -40 -34 -203 -254 -203z" />
    <glyph glyph-name="j" unicode="j" horiz-adv-x="803" 
d="M-228 -460v190c151 0 268 26 352 80c83 54 125 148 125 283v1079h290v-1075c0 -206 -66 -351 -197 -433c-131 -83 -321 -124 -570 -124zM249 1531h290v-216h-290v216z" />
    <glyph glyph-name="uni0237" unicode="&#x237;" horiz-adv-x="803" 
d="M-228 -460v190c151 0 268 26 352 80c83 54 125 148 125 283v1079h290v-1075c0 -206 -66 -351 -197 -433c-131 -83 -321 -124 -570 -124z" />
    <glyph glyph-name="jcircumflex" unicode="&#x135;" horiz-adv-x="803" 
d="M-228 -460v190c151 0 268 26 352 80c83 54 125 148 125 283v1079h290v-1075c0 -206 -66 -351 -197 -433c-131 -83 -321 -124 -570 -124zM-37 1225l334 214h190l336 -214h-198l-232 156l-234 -156h-196z" />
    <glyph glyph-name="k" unicode="k" horiz-adv-x="1829" 
d="M173 0v1570h289v-938l849 540h368l-664 -433l699 -739h-319l-575 603l-358 -235v-368h-289z" />
    <glyph glyph-name="uni0137" unicode="&#x137;" horiz-adv-x="1829" 
d="M173 0v1570h289v-938l849 540h368l-664 -433l699 -739h-319l-575 603l-358 -235v-368h-289zM761 -373l121 330h170l-182 -330h-109z" />
    <glyph glyph-name="kgreenlandic" unicode="&#x138;" horiz-adv-x="1862" 
d="M168 0v1172h293v-551l954 551h358l-1036 -588l1040 -584h-358l-958 547v-547h-293z" />
    <glyph glyph-name="l" unicode="l" horiz-adv-x="740" 
d="M216 0v1570h291v-1570h-291z" />
    <glyph glyph-name="l.ss01" horiz-adv-x="1100" 
d="M672 -15c-145 0 -263 26 -353 78s-135 143 -135 273v1234h290v-1163c0 -96 24 -160 72 -193c47 -33 118 -49 211 -49c76 0 164 6 263 18v-181c-134 -11 -250 -17 -348 -17z" />
    <glyph glyph-name="lacute" unicode="&#x13a;" horiz-adv-x="740" 
d="M216 0v1570h291v-1570h-291zM141 1622l233 195h210l-300 -195h-143z" />
    <glyph glyph-name="lcaron" unicode="&#x13e;" horiz-adv-x="740" 
d="M216 0v1570h291v-1570h-291zM266 1618l-334 214h197l234 -156l232 156h197l-336 -214h-190z" />
    <glyph glyph-name="uni013C" unicode="&#x13c;" horiz-adv-x="740" 
d="M216 0v1570h291v-1570h-291zM186 -373l122 330h169l-181 -330h-110z" />
    <glyph glyph-name="ldot" unicode="&#x140;" horiz-adv-x="940" 
d="M216 0v1570h291v-1570h-291zM611 814h262v-231h-262v231z" />
    <glyph glyph-name="uni1E37" unicode="&#x1e37;" horiz-adv-x="740" 
d="M216 0v1570h291v-1570h-291zM362 -298c-52 0 -93 41 -93 93c0 51 41 92 93 92c51 0 92 -41 92 -92c0 -52 -41 -93 -92 -93z" />
    <glyph glyph-name="uni01C9" unicode="&#x1c9;" horiz-adv-x="1543" 
d="M512 -460v190c151 0 268 26 352 80c83 54 125 148 125 283v1079h290v-1075c0 -206 -66 -351 -197 -433c-131 -83 -321 -124 -570 -124zM216 0v1570h291v-1570h-291zM989 1531h290v-216h-290v216z" />
    <glyph glyph-name="uni1E3B" unicode="&#x1e3b;" horiz-adv-x="740" 
d="M216 0v1570h291v-1570h-291zM-112 -245v109h947v-109h-947z" />
    <glyph glyph-name="lslash" unicode="&#x142;" horiz-adv-x="661" 
d="M1 384v225l183 97v864h291v-710l163 86v-225l-163 -86v-635h-291v481z" />
    <glyph glyph-name="m" unicode="m" horiz-adv-x="2885" 
d="M173 0v1170h291v-183c8 8 17 15 27 23c141 114 305 172 493 172c195 0 341 -47 440 -141c35 -34 64 -74 87 -121c25 30 55 59 88 87c141 116 305 175 493 175c195 0 340 -47 437 -141s146 -236 146 -425v-616h-291v583c0 135 -30 237 -90 305s-153 102 -279 102
c-132 0 -239 -39 -322 -115c-71 -66 -112 -153 -122 -263v-612h-291v583c0 135 -31 237 -92 305c-62 68 -156 102 -282 102c-131 0 -238 -39 -321 -115c-70 -64 -110 -148 -121 -253v-622h-291z" />
    <glyph glyph-name="uni1E43" unicode="&#x1e43;" horiz-adv-x="2885" 
d="M173 0v1170h291v-183c8 8 17 15 27 23c141 114 305 172 493 172c195 0 341 -47 440 -141c35 -34 64 -74 87 -121c25 30 55 59 88 87c141 116 305 175 493 175c195 0 340 -47 437 -141s146 -236 146 -425v-616h-291v583c0 135 -30 237 -90 305s-153 102 -279 102
c-132 0 -239 -39 -322 -115c-71 -66 -112 -153 -122 -263v-612h-291v583c0 135 -31 237 -92 305c-62 68 -156 102 -282 102c-131 0 -238 -39 -321 -115c-70 -64 -110 -148 -121 -253v-622h-291zM1479 -298c-52 0 -93 41 -93 93c0 51 41 92 93 92c51 0 92 -41 92 -92
c0 -52 -41 -93 -92 -93z" />
    <glyph glyph-name="n" unicode="n" horiz-adv-x="1936" 
d="M173 0v1170h290v-223c16 17 34 34 54 51c140 124 324 186 552 186c201 0 361 -46 479 -138c118 -91 178 -236 178 -435v-611h-291v588c0 141 -41 243 -121 307c-81 64 -193 97 -337 97c-149 0 -274 -43 -376 -128c-71 -59 -117 -129 -138 -211v-653h-290z" />
    <glyph glyph-name="nacute" unicode="&#x144;" horiz-adv-x="1936" 
d="M173 0v1170h290v-223c16 17 34 34 54 51c140 124 324 186 552 186c201 0 361 -46 479 -138c118 -91 178 -236 178 -435v-611h-291v588c0 141 -41 243 -121 307c-81 64 -193 97 -337 97c-149 0 -274 -43 -376 -128c-71 -59 -117 -129 -138 -211v-653h-290zM726 1222
l233 195h210l-300 -195h-143z" />
    <glyph glyph-name="ncaron" unicode="&#x148;" horiz-adv-x="1936" 
d="M173 0v1170h290v-223c16 17 34 34 54 51c140 124 324 186 552 186c201 0 361 -46 479 -138c118 -91 178 -236 178 -435v-611h-291v588c0 141 -41 243 -121 307c-81 64 -193 97 -337 97c-149 0 -274 -43 -376 -128c-71 -59 -117 -129 -138 -211v-653h-290zM852 1218
l-334 214h196l235 -156l231 156h198l-336 -214h-190z" />
    <glyph glyph-name="uni0146" unicode="&#x146;" horiz-adv-x="1936" 
d="M173 0v1170h290v-223c16 17 34 34 54 51c140 124 324 186 552 186c201 0 361 -46 479 -138c118 -91 178 -236 178 -435v-611h-291v588c0 141 -41 243 -121 307c-81 64 -193 97 -337 97c-149 0 -274 -43 -376 -128c-71 -59 -117 -129 -138 -211v-653h-290zM772 -373
l122 330h169l-181 -330h-110z" />
    <glyph glyph-name="uni1E45" unicode="&#x1e45;" horiz-adv-x="1936" 
d="M173 0v1170h290v-223c16 17 34 34 54 51c140 124 324 186 552 186c201 0 361 -46 479 -138c118 -91 178 -236 178 -435v-611h-291v588c0 141 -41 243 -121 307c-81 64 -193 97 -337 97c-149 0 -274 -43 -376 -128c-71 -59 -117 -129 -138 -211v-653h-290zM948 1239
c-52 0 -93 41 -93 93c0 51 41 92 93 92c51 0 92 -41 92 -92c0 -52 -41 -93 -92 -93z" />
    <glyph glyph-name="uni1E47" unicode="&#x1e47;" horiz-adv-x="1936" 
d="M173 0v1170h290v-223c16 17 34 34 54 51c140 124 324 186 552 186c201 0 361 -46 479 -138c118 -91 178 -236 178 -435v-611h-291v588c0 141 -41 243 -121 307c-81 64 -193 97 -337 97c-149 0 -274 -43 -376 -128c-71 -59 -117 -129 -138 -211v-653h-290zM948 -298
c-52 0 -93 41 -93 93c0 51 41 92 93 92c51 0 92 -41 92 -92c0 -52 -41 -93 -92 -93z" />
    <glyph glyph-name="eng" unicode="&#x14b;" horiz-adv-x="1936" 
d="M914 -446v180c298 0 511 51 511 266h10v588c0 141 -41 243 -121 307c-81 64 -193 97 -337 97c-149 0 -274 -43 -376 -128c-71 -59 -117 -129 -138 -211v-653h-290v1170h290v-223c16 17 34 34 54 51c140 124 324 186 552 186c201 0 361 -46 479 -138
c118 -91 178 -236 178 -435v-611h-10c0 -301 -250 -446 -802 -446z" />
    <glyph glyph-name="uni01CC" unicode="&#x1cc;" horiz-adv-x="2739" 
d="M173 0v1170h290v-223c16 17 34 34 54 51c140 124 324 186 552 186c201 0 361 -46 479 -138c118 -91 178 -236 178 -435v-611h-291v588c0 141 -41 243 -121 307c-81 64 -193 97 -337 97c-149 0 -274 -43 -376 -128c-71 -59 -117 -129 -138 -211v-653h-290zM1707 -460v190
c151 0 269 26 352 80s125 148 125 283v1079h290v-1075c0 -206 -65 -351 -196 -433c-131 -83 -322 -124 -571 -124zM2184 1531h290v-216h-290v216z" />
    <glyph glyph-name="uni1E49" unicode="&#x1e49;" horiz-adv-x="1936" 
d="M173 0v1170h290v-223c16 17 34 34 54 51c140 124 324 186 552 186c201 0 361 -46 479 -138c118 -91 178 -236 178 -435v-611h-291v588c0 141 -41 243 -121 307c-81 64 -193 97 -337 97c-149 0 -274 -43 -376 -128c-71 -59 -117 -129 -138 -211v-653h-290zM474 -245v109
h947v-109h-947z" />
    <glyph glyph-name="ntilde" unicode="&#xf1;" horiz-adv-x="1936" 
d="M173 0v1170h290v-223c16 17 34 34 54 51c140 124 324 186 552 186c201 0 361 -46 479 -138c118 -91 178 -236 178 -435v-611h-291v588c0 141 -41 243 -121 307c-81 64 -193 97 -337 97c-149 0 -274 -43 -376 -128c-71 -59 -117 -129 -138 -211v-653h-290zM1123 1271
c-175 0 -206 101 -324 101c-83 0 -117 -53 -120 -83h-151c5 46 42 201 265 201c164 0 182 -100 319 -100c76 0 112 55 114 84h151c-2 -40 -34 -203 -254 -203z" />
    <glyph glyph-name="o" unicode="o" horiz-adv-x="2005" 
d="M976 -10c-241 0 -448 50 -619 152c-171 101 -256 251 -256 449s85 346 256 445c171 98 378 147 619 147s447 -49 618 -147c171 -99 256 -247 256 -445s-85 -348 -256 -449c-171 -102 -377 -152 -618 -152zM976 177c166 0 305 36 416 108s167 173 167 303
s-56 231 -167 302s-250 107 -416 107c-167 0 -306 -36 -417 -107c-112 -71 -167 -172 -167 -302s55 -231 167 -303c111 -72 250 -108 417 -108z" />
    <glyph glyph-name="oacute" unicode="&#xf3;" horiz-adv-x="2005" 
d="M976 -10c-241 0 -448 50 -619 152c-171 101 -256 251 -256 449s85 346 256 445c171 98 378 147 619 147s447 -49 618 -147c171 -99 256 -247 256 -445s-85 -348 -256 -449c-171 -102 -377 -152 -618 -152zM976 177c166 0 305 36 416 108s167 173 167 303
s-56 231 -167 302s-250 107 -416 107c-167 0 -306 -36 -417 -107c-112 -71 -167 -172 -167 -302s55 -231 167 -303c111 -72 250 -108 417 -108zM754 1225l233 195h210l-300 -195h-143z" />
    <glyph glyph-name="obreve" unicode="&#x14f;" horiz-adv-x="2005" 
d="M976 -10c-241 0 -448 50 -619 152c-171 101 -256 251 -256 449s85 346 256 445c171 98 378 147 619 147s447 -49 618 -147c171 -99 256 -247 256 -445s-85 -348 -256 -449c-171 -102 -377 -152 -618 -152zM976 177c166 0 305 36 416 108s167 173 167 303
s-56 231 -167 302s-250 107 -416 107c-167 0 -306 -36 -417 -107c-112 -71 -167 -172 -167 -302s55 -231 167 -303c111 -72 250 -108 417 -108zM976 1226c-183 0 -312 96 -312 199h142c0 -50 52 -104 170 -104c129 0 171 54 171 104h141c0 -103 -117 -199 -312 -199z" />
    <glyph glyph-name="uni01D2" unicode="&#x1d2;" horiz-adv-x="2005" 
d="M976 -10c-241 0 -448 50 -619 152c-171 101 -256 251 -256 449s85 346 256 445c171 98 378 147 619 147s447 -49 618 -147c171 -99 256 -247 256 -445s-85 -348 -256 -449c-171 -102 -377 -152 -618 -152zM976 177c166 0 305 36 416 108s167 173 167 303
s-56 231 -167 302s-250 107 -416 107c-167 0 -306 -36 -417 -107c-112 -71 -167 -172 -167 -302s55 -231 167 -303c111 -72 250 -108 417 -108zM880 1221l-334 214h196l235 -157l231 157h198l-336 -214h-190z" />
    <glyph glyph-name="ocircumflex" unicode="&#xf4;" horiz-adv-x="2005" 
d="M976 -10c-241 0 -448 50 -619 152c-171 101 -256 251 -256 449s85 346 256 445c171 98 378 147 619 147s447 -49 618 -147c171 -99 256 -247 256 -445s-85 -348 -256 -449c-171 -102 -377 -152 -618 -152zM976 177c166 0 305 36 416 108s167 173 167 303
s-56 231 -167 302s-250 107 -416 107c-167 0 -306 -36 -417 -107c-112 -71 -167 -172 -167 -302s55 -231 167 -303c111 -72 250 -108 417 -108zM546 1226l334 214h190l336 -214h-198l-232 156l-234 -156h-196z" />
    <glyph glyph-name="uni1ED1" unicode="&#x1ed1;" horiz-adv-x="2005" 
d="M976 -10c-241 0 -448 50 -619 152c-171 101 -256 251 -256 449s85 346 256 445c171 98 378 147 619 147s447 -49 618 -147c171 -99 256 -247 256 -445s-85 -348 -256 -449c-171 -102 -377 -152 -618 -152zM976 177c166 0 305 36 416 108s167 173 167 303
s-56 231 -167 302s-250 107 -416 107c-167 0 -306 -36 -417 -107c-112 -71 -167 -172 -167 -302s55 -231 167 -303c111 -72 250 -108 417 -108zM546 1226l334 214h190l336 -214h-198l-232 156l-234 -156h-196zM754 1492l233 195h210l-300 -195h-143z" />
    <glyph glyph-name="uni1ED9" unicode="&#x1ed9;" horiz-adv-x="2005" 
d="M976 -10c-241 0 -448 50 -619 152c-171 101 -256 251 -256 449s85 346 256 445c171 98 378 147 619 147s447 -49 618 -147c171 -99 256 -247 256 -445s-85 -348 -256 -449c-171 -102 -377 -152 -618 -152zM976 177c166 0 305 36 416 108s167 173 167 303
s-56 231 -167 302s-250 107 -416 107c-167 0 -306 -36 -417 -107c-112 -71 -167 -172 -167 -302s55 -231 167 -303c111 -72 250 -108 417 -108zM546 1226l334 214h190l336 -214h-198l-232 156l-234 -156h-196zM984 -298c-52 0 -93 41 -93 93c0 51 41 92 93 92
c51 0 92 -41 92 -92c0 -52 -41 -93 -92 -93z" />
    <glyph glyph-name="uni1ED3" unicode="&#x1ed3;" horiz-adv-x="2005" 
d="M976 -10c-241 0 -448 50 -619 152c-171 101 -256 251 -256 449s85 346 256 445c171 98 378 147 619 147s447 -49 618 -147c171 -99 256 -247 256 -445s-85 -348 -256 -449c-171 -102 -377 -152 -618 -152zM976 177c166 0 305 36 416 108s167 173 167 303
s-56 231 -167 302s-250 107 -416 107c-167 0 -306 -36 -417 -107c-112 -71 -167 -172 -167 -302s55 -231 167 -303c111 -72 250 -108 417 -108zM546 1226l334 214h190l336 -214h-198l-232 156l-234 -156h-196zM1054 1502l-300 195h208l235 -195h-143z" />
    <glyph glyph-name="uni1ED5" unicode="&#x1ed5;" horiz-adv-x="2005" 
d="M976 -10c-241 0 -448 50 -619 152c-171 101 -256 251 -256 449s85 346 256 445c171 98 378 147 619 147s447 -49 618 -147c171 -99 256 -247 256 -445s-85 -348 -256 -449c-171 -102 -377 -152 -618 -152zM976 177c166 0 305 36 416 108s167 173 167 303
s-56 231 -167 302s-250 107 -416 107c-167 0 -306 -36 -417 -107c-112 -71 -167 -172 -167 -302s55 -231 167 -303c111 -72 250 -108 417 -108zM800 1813c368 0 533 -18 533 -120c0 -97 -173 -120 -309 -120v-69h-105v137c156 0 266 8 266 43c0 41 -118 43 -385 43v86z
M546 1226l334 214h190l336 -214h-198l-232 156l-234 -156h-196z" />
    <glyph glyph-name="uni1ED7" unicode="&#x1ed7;" horiz-adv-x="2005" 
d="M976 -10c-241 0 -448 50 -619 152c-171 101 -256 251 -256 449s85 346 256 445c171 98 378 147 619 147s447 -49 618 -147c171 -99 256 -247 256 -445s-85 -348 -256 -449c-171 -102 -377 -152 -618 -152zM976 177c166 0 305 36 416 108s167 173 167 303
s-56 231 -167 302s-250 107 -416 107c-167 0 -306 -36 -417 -107c-112 -71 -167 -172 -167 -302s55 -231 167 -303c111 -72 250 -108 417 -108zM1151 1541c-175 0 -206 101 -324 101c-83 0 -117 -54 -120 -83h-151c5 46 42 201 265 201c164 0 182 -100 319 -100
c76 0 112 54 114 84h151c-2 -40 -34 -203 -254 -203zM546 1226l334 214h190l336 -214h-198l-232 156l-234 -156h-196z" />
    <glyph glyph-name="uni020D" unicode="&#x20d;" horiz-adv-x="2005" 
d="M976 -10c-241 0 -448 50 -619 152c-171 101 -256 251 -256 449s85 346 256 445c171 98 378 147 619 147s447 -49 618 -147c171 -99 256 -247 256 -445s-85 -348 -256 -449c-171 -102 -377 -152 -618 -152zM976 177c166 0 305 36 416 108s167 173 167 303
s-56 231 -167 302s-250 107 -416 107c-167 0 -306 -36 -417 -107c-112 -71 -167 -172 -167 -302s55 -231 167 -303c111 -72 250 -108 417 -108zM888 1245l-300 195h208l235 -195h-143zM1220 1245l-300 195h208l235 -195h-143z" />
    <glyph glyph-name="odieresis" unicode="&#xf6;" horiz-adv-x="2005" 
d="M976 -10c-241 0 -448 50 -619 152c-171 101 -256 251 -256 449s85 346 256 445c171 98 378 147 619 147s447 -49 618 -147c171 -99 256 -247 256 -445s-85 -348 -256 -449c-171 -102 -377 -152 -618 -152zM976 177c166 0 305 36 416 108s167 173 167 303
s-56 231 -167 302s-250 107 -416 107c-167 0 -306 -36 -417 -107c-112 -71 -167 -172 -167 -302s55 -231 167 -303c111 -72 250 -108 417 -108zM734 1249c-52 0 -94 42 -94 94s42 94 94 94s94 -42 94 -94s-42 -94 -94 -94zM1210 1249c-52 0 -94 42 -94 94s42 94 94 94
s94 -42 94 -94s-42 -94 -94 -94z" />
    <glyph glyph-name="uni022B" unicode="&#x22b;" horiz-adv-x="2005" 
d="M976 -10c-241 0 -448 50 -619 152c-171 101 -256 251 -256 449s85 346 256 445c171 98 378 147 619 147s447 -49 618 -147c171 -99 256 -247 256 -445s-85 -348 -256 -449c-171 -102 -377 -152 -618 -152zM976 177c166 0 305 36 416 108s167 173 167 303
s-56 231 -167 302s-250 107 -416 107c-167 0 -306 -36 -417 -107c-112 -71 -167 -172 -167 -302s55 -231 167 -303c111 -72 250 -108 417 -108zM502 1571v109h947v-109h-947zM734 1249c-52 0 -94 42 -94 94s42 94 94 94s94 -42 94 -94s-42 -94 -94 -94zM1210 1249
c-52 0 -94 42 -94 94s42 94 94 94s94 -42 94 -94s-42 -94 -94 -94z" />
    <glyph glyph-name="uni0231" unicode="&#x231;" horiz-adv-x="2005" 
d="M976 -10c-241 0 -448 50 -619 152c-171 101 -256 251 -256 449s85 346 256 445c171 98 378 147 619 147s447 -49 618 -147c171 -99 256 -247 256 -445s-85 -348 -256 -449c-171 -102 -377 -152 -618 -152zM976 177c166 0 305 36 416 108s167 173 167 303
s-56 231 -167 302s-250 107 -416 107c-167 0 -306 -36 -417 -107c-112 -71 -167 -172 -167 -302s55 -231 167 -303c111 -72 250 -108 417 -108zM502 1560v109h947v-109h-947zM976 1242c-52 0 -93 41 -93 93c0 51 41 92 93 92c51 0 92 -41 92 -92c0 -52 -41 -93 -92 -93z" />
    <glyph glyph-name="uni1ECD" unicode="&#x1ecd;" horiz-adv-x="2005" 
d="M976 -10c-241 0 -448 50 -619 152c-171 101 -256 251 -256 449s85 346 256 445c171 98 378 147 619 147s447 -49 618 -147c171 -99 256 -247 256 -445s-85 -348 -256 -449c-171 -102 -377 -152 -618 -152zM976 177c166 0 305 36 416 108s167 173 167 303
s-56 231 -167 302s-250 107 -416 107c-167 0 -306 -36 -417 -107c-112 -71 -167 -172 -167 -302s55 -231 167 -303c111 -72 250 -108 417 -108zM984 -298c-52 0 -93 41 -93 93c0 51 41 92 93 92c51 0 92 -41 92 -92c0 -52 -41 -93 -92 -93z" />
    <glyph glyph-name="ograve" unicode="&#xf2;" horiz-adv-x="2005" 
d="M976 -10c-241 0 -448 50 -619 152c-171 101 -256 251 -256 449s85 346 256 445c171 98 378 147 619 147s447 -49 618 -147c171 -99 256 -247 256 -445s-85 -348 -256 -449c-171 -102 -377 -152 -618 -152zM976 177c166 0 305 36 416 108s167 173 167 303
s-56 231 -167 302s-250 107 -416 107c-167 0 -306 -36 -417 -107c-112 -71 -167 -172 -167 -302s55 -231 167 -303c111 -72 250 -108 417 -108zM1054 1235l-300 195h208l235 -195h-143z" />
    <glyph glyph-name="uni1ECF" unicode="&#x1ecf;" horiz-adv-x="2005" 
d="M976 -10c-241 0 -448 50 -619 152c-171 101 -256 251 -256 449s85 346 256 445c171 98 378 147 619 147s447 -49 618 -147c171 -99 256 -247 256 -445s-85 -348 -256 -449c-171 -102 -377 -152 -618 -152zM976 177c166 0 305 36 416 108s167 173 167 303
s-56 231 -167 302s-250 107 -416 107c-167 0 -306 -36 -417 -107c-112 -71 -167 -172 -167 -302s55 -231 167 -303c111 -72 250 -108 417 -108zM800 1546c368 0 533 -18 533 -120c0 -97 -173 -120 -309 -120v-69h-105v137c156 0 266 8 266 43c0 41 -118 43 -385 43v86z" />
    <glyph glyph-name="ohorn" unicode="&#x1a1;" horiz-adv-x="2122" 
d="M976 -10c-241 0 -448 50 -619 152c-171 101 -256 251 -256 449s85 346 256 445c171 98 378 147 619 147c221 0 412 -41 574 -124c246 2 347 36 347 177h178c0 -160 -140 -245 -385 -269c107 -94 160 -220 160 -376c0 -198 -85 -348 -256 -449
c-171 -102 -377 -152 -618 -152zM976 177c166 0 305 36 416 108s167 173 167 303s-56 231 -167 302s-250 107 -416 107c-167 0 -306 -36 -417 -107c-112 -71 -167 -172 -167 -302s55 -231 167 -303c111 -72 250 -108 417 -108z" />
    <glyph glyph-name="uni1EDB" unicode="&#x1edb;" horiz-adv-x="2122" 
d="M976 -10c-241 0 -448 50 -619 152c-171 101 -256 251 -256 449s85 346 256 445c171 98 378 147 619 147c221 0 412 -41 574 -124c246 2 347 36 347 177h178c0 -160 -140 -245 -385 -269c107 -94 160 -220 160 -376c0 -198 -85 -348 -256 -449
c-171 -102 -377 -152 -618 -152zM976 177c166 0 305 36 416 108s167 173 167 303s-56 231 -167 302s-250 107 -416 107c-167 0 -306 -36 -417 -107c-112 -71 -167 -172 -167 -302s55 -231 167 -303c111 -72 250 -108 417 -108zM754 1225l233 195h210l-300 -195h-143z" />
    <glyph glyph-name="uni1EE3" unicode="&#x1ee3;" horiz-adv-x="2122" 
d="M976 -10c-241 0 -448 50 -619 152c-171 101 -256 251 -256 449s85 346 256 445c171 98 378 147 619 147c221 0 412 -41 574 -124c246 2 347 36 347 177h178c0 -160 -140 -245 -385 -269c107 -94 160 -220 160 -376c0 -198 -85 -348 -256 -449
c-171 -102 -377 -152 -618 -152zM976 177c166 0 305 36 416 108s167 173 167 303s-56 231 -167 302s-250 107 -416 107c-167 0 -306 -36 -417 -107c-112 -71 -167 -172 -167 -302s55 -231 167 -303c111 -72 250 -108 417 -108zM984 -298c-52 0 -93 41 -93 93
c0 51 41 92 93 92c51 0 92 -41 92 -92c0 -52 -41 -93 -92 -93z" />
    <glyph glyph-name="uni1EDD" unicode="&#x1edd;" horiz-adv-x="2122" 
d="M976 -10c-241 0 -448 50 -619 152c-171 101 -256 251 -256 449s85 346 256 445c171 98 378 147 619 147c221 0 412 -41 574 -124c246 2 347 36 347 177h178c0 -160 -140 -245 -385 -269c107 -94 160 -220 160 -376c0 -198 -85 -348 -256 -449
c-171 -102 -377 -152 -618 -152zM976 177c166 0 305 36 416 108s167 173 167 303s-56 231 -167 302s-250 107 -416 107c-167 0 -306 -36 -417 -107c-112 -71 -167 -172 -167 -302s55 -231 167 -303c111 -72 250 -108 417 -108zM1054 1235l-300 195h208l235 -195h-143z" />
    <glyph glyph-name="uni1EDF" unicode="&#x1edf;" horiz-adv-x="2122" 
d="M976 -10c-241 0 -448 50 -619 152c-171 101 -256 251 -256 449s85 346 256 445c171 98 378 147 619 147c221 0 412 -41 574 -124c246 2 347 36 347 177h178c0 -160 -140 -245 -385 -269c107 -94 160 -220 160 -376c0 -198 -85 -348 -256 -449
c-171 -102 -377 -152 -618 -152zM976 177c166 0 305 36 416 108s167 173 167 303s-56 231 -167 302s-250 107 -416 107c-167 0 -306 -36 -417 -107c-112 -71 -167 -172 -167 -302s55 -231 167 -303c111 -72 250 -108 417 -108zM800 1546c368 0 533 -18 533 -120
c0 -97 -173 -120 -309 -120v-69h-105v137c156 0 266 8 266 43c0 41 -118 43 -385 43v86z" />
    <glyph glyph-name="uni1EE1" unicode="&#x1ee1;" horiz-adv-x="2122" 
d="M976 -10c-241 0 -448 50 -619 152c-171 101 -256 251 -256 449s85 346 256 445c171 98 378 147 619 147c221 0 412 -41 574 -124c246 2 347 36 347 177h178c0 -160 -140 -245 -385 -269c107 -94 160 -220 160 -376c0 -198 -85 -348 -256 -449
c-171 -102 -377 -152 -618 -152zM976 177c166 0 305 36 416 108s167 173 167 303s-56 231 -167 302s-250 107 -416 107c-167 0 -306 -36 -417 -107c-112 -71 -167 -172 -167 -302s55 -231 167 -303c111 -72 250 -108 417 -108zM1151 1274c-175 0 -206 101 -324 101
c-83 0 -117 -54 -120 -83h-151c5 46 42 201 265 201c164 0 182 -100 319 -100c76 0 112 54 114 84h151c-2 -40 -34 -203 -254 -203z" />
    <glyph glyph-name="ohungarumlaut" unicode="&#x151;" horiz-adv-x="2005" 
d="M976 -10c-241 0 -448 50 -619 152c-171 101 -256 251 -256 449s85 346 256 445c171 98 378 147 619 147s447 -49 618 -147c171 -99 256 -247 256 -445s-85 -348 -256 -449c-171 -102 -377 -152 -618 -152zM976 177c166 0 305 36 416 108s167 173 167 303
s-56 231 -167 302s-250 107 -416 107c-167 0 -306 -36 -417 -107c-112 -71 -167 -172 -167 -302s55 -231 167 -303c111 -72 250 -108 417 -108zM982 1253l202 182h198l-273 -182h-127zM569 1253l200 182h190l-263 -182h-127z" />
    <glyph glyph-name="uni020F" unicode="&#x20f;" horiz-adv-x="2005" 
d="M976 -10c-241 0 -448 50 -619 152c-171 101 -256 251 -256 449s85 346 256 445c171 98 378 147 619 147s447 -49 618 -147c171 -99 256 -247 256 -445s-85 -348 -256 -449c-171 -102 -377 -152 -618 -152zM976 177c166 0 305 36 416 108s167 173 167 303
s-56 231 -167 302s-250 107 -416 107c-167 0 -306 -36 -417 -107c-112 -71 -167 -172 -167 -302s55 -231 167 -303c111 -72 250 -108 417 -108zM975 1458c183 0 312 -96 312 -199h-142c0 50 -52 104 -170 104c-129 0 -171 -54 -171 -104h-141c0 103 117 199 312 199z" />
    <glyph glyph-name="omacron" unicode="&#x14d;" horiz-adv-x="2005" 
d="M976 -10c-241 0 -448 50 -619 152c-171 101 -256 251 -256 449s85 346 256 445c171 98 378 147 619 147s447 -49 618 -147c171 -99 256 -247 256 -445s-85 -348 -256 -449c-171 -102 -377 -152 -618 -152zM976 177c166 0 305 36 416 108s167 173 167 303
s-56 231 -167 302s-250 107 -416 107c-167 0 -306 -36 -417 -107c-112 -71 -167 -172 -167 -302s55 -231 167 -303c111 -72 250 -108 417 -108zM502 1306v109h947v-109h-947z" />
    <glyph glyph-name="uni1E53" unicode="&#x1e53;" horiz-adv-x="2005" 
d="M976 -10c-241 0 -448 50 -619 152c-171 101 -256 251 -256 449s85 346 256 445c171 98 378 147 619 147s447 -49 618 -147c171 -99 256 -247 256 -445s-85 -348 -256 -449c-171 -102 -377 -152 -618 -152zM976 177c166 0 305 36 416 108s167 173 167 303
s-56 231 -167 302s-250 107 -416 107c-167 0 -306 -36 -417 -107c-112 -71 -167 -172 -167 -302s55 -231 167 -303c111 -72 250 -108 417 -108zM502 1306v109h947v-109h-947zM754 1467l233 195h210l-300 -195h-143z" />
    <glyph glyph-name="uni1E51" unicode="&#x1e51;" horiz-adv-x="2005" 
d="M976 -10c-241 0 -448 50 -619 152c-171 101 -256 251 -256 449s85 346 256 445c171 98 378 147 619 147s447 -49 618 -147c171 -99 256 -247 256 -445s-85 -348 -256 -449c-171 -102 -377 -152 -618 -152zM976 177c166 0 305 36 416 108s167 173 167 303
s-56 231 -167 302s-250 107 -416 107c-167 0 -306 -36 -417 -107c-112 -71 -167 -172 -167 -302s55 -231 167 -303c111 -72 250 -108 417 -108zM502 1306v109h947v-109h-947zM1054 1477l-300 195h208l235 -195h-143z" />
    <glyph glyph-name="uni01EB" unicode="&#x1eb;" horiz-adv-x="2005" 
d="M968 -372c-120 0 -222 44 -222 159c0 95 60 174 97 207h12c-190 14 -356 64 -498 148c-171 101 -256 251 -256 449s85 346 256 445c171 98 378 147 619 147s447 -49 618 -147c171 -99 256 -247 256 -445s-85 -348 -256 -449c-170 -101 -374 -152 -613 -152
c-26 -30 -72 -107 -72 -154c0 -42 31 -73 106 -73c72 0 168 22 206 37l4 -136c-33 -14 -149 -36 -257 -36zM976 177c166 0 305 36 416 108s167 173 167 303s-56 231 -167 302s-250 107 -416 107c-167 0 -306 -36 -417 -107c-112 -71 -167 -172 -167 -302s55 -231 167 -303
c111 -72 250 -108 417 -108z" />
    <glyph glyph-name="oslash" unicode="&#xf8;" horiz-adv-x="2005" 
d="M18 27l255 174c-115 97 -172 227 -172 390c0 198 85 346 256 445c171 98 378 147 619 147c215 0 403 -39 562 -118l272 186l104 -91l-250 -171c124 -97 186 -229 186 -398c0 -198 -85 -348 -256 -449c-171 -102 -377 -152 -618 -152c-223 0 -417 43 -580 130l-279 -192z
M976 177c166 0 305 36 416 108s167 173 167 303c0 104 -36 189 -107 256l-851 -584c104 -56 229 -83 375 -83zM485 346l846 578c-99 48 -218 73 -355 73c-167 0 -306 -36 -417 -107c-112 -71 -167 -172 -167 -302c0 -97 31 -178 93 -242z" />
    <glyph glyph-name="oslashacute" unicode="&#x1ff;" horiz-adv-x="2005" 
d="M18 27l255 174c-115 97 -172 227 -172 390c0 198 85 346 256 445c171 98 378 147 619 147c215 0 403 -39 562 -118l272 186l104 -91l-250 -171c124 -97 186 -229 186 -398c0 -198 -85 -348 -256 -449c-171 -102 -377 -152 -618 -152c-223 0 -417 43 -580 130l-279 -192z
M976 177c166 0 305 36 416 108s167 173 167 303c0 104 -36 189 -107 256l-851 -584c104 -56 229 -83 375 -83zM485 346l846 578c-99 48 -218 73 -355 73c-167 0 -306 -36 -417 -107c-112 -71 -167 -172 -167 -302c0 -97 31 -178 93 -242zM755 1235l233 195h210l-300 -195
h-143z" />
    <glyph glyph-name="otilde" unicode="&#xf5;" horiz-adv-x="2005" 
d="M976 -10c-241 0 -448 50 -619 152c-171 101 -256 251 -256 449s85 346 256 445c171 98 378 147 619 147s447 -49 618 -147c171 -99 256 -247 256 -445s-85 -348 -256 -449c-171 -102 -377 -152 -618 -152zM976 177c166 0 305 36 416 108s167 173 167 303
s-56 231 -167 302s-250 107 -416 107c-167 0 -306 -36 -417 -107c-112 -71 -167 -172 -167 -302s55 -231 167 -303c111 -72 250 -108 417 -108zM1151 1274c-175 0 -206 101 -324 101c-83 0 -117 -54 -120 -83h-151c5 46 42 201 265 201c164 0 182 -100 319 -100
c76 0 112 54 114 84h151c-2 -40 -34 -203 -254 -203z" />
    <glyph glyph-name="uni1E4D" unicode="&#x1e4d;" horiz-adv-x="2005" 
d="M976 -10c-241 0 -448 50 -619 152c-171 101 -256 251 -256 449s85 346 256 445c171 98 378 147 619 147s447 -49 618 -147c171 -99 256 -247 256 -445s-85 -348 -256 -449c-171 -102 -377 -152 -618 -152zM976 177c166 0 305 36 416 108s167 173 167 303
s-56 231 -167 302s-250 107 -416 107c-167 0 -306 -36 -417 -107c-112 -71 -167 -172 -167 -302s55 -231 167 -303c111 -72 250 -108 417 -108zM1151 1274c-175 0 -206 101 -324 101c-83 0 -117 -54 -120 -83h-151c5 46 42 201 265 201c164 0 182 -100 319 -100
c76 0 112 54 114 84h151c-2 -40 -34 -203 -254 -203zM754 1540l233 195h210l-300 -195h-143z" />
    <glyph glyph-name="uni1E4F" unicode="&#x1e4f;" horiz-adv-x="2005" 
d="M976 -10c-241 0 -448 50 -619 152c-171 101 -256 251 -256 449s85 346 256 445c171 98 378 147 619 147s447 -49 618 -147c171 -99 256 -247 256 -445s-85 -348 -256 -449c-171 -102 -377 -152 -618 -152zM976 177c166 0 305 36 416 108s167 173 167 303
s-56 231 -167 302s-250 107 -416 107c-167 0 -306 -36 -417 -107c-112 -71 -167 -172 -167 -302s55 -231 167 -303c111 -72 250 -108 417 -108zM1151 1274c-175 0 -206 101 -324 101c-83 0 -117 -54 -120 -83h-151c5 46 42 201 265 201c164 0 182 -100 319 -100
c76 0 112 54 114 84h151c-2 -40 -34 -203 -254 -203zM734 1564c-52 0 -94 42 -94 94s42 94 94 94s94 -42 94 -94s-42 -94 -94 -94zM1210 1564c-52 0 -94 42 -94 94s42 94 94 94s94 -42 94 -94s-42 -94 -94 -94z" />
    <glyph glyph-name="uni022D" unicode="&#x22d;" horiz-adv-x="2005" 
d="M976 -10c-241 0 -448 50 -619 152c-171 101 -256 251 -256 449s85 346 256 445c171 98 378 147 619 147s447 -49 618 -147c171 -99 256 -247 256 -445s-85 -348 -256 -449c-171 -102 -377 -152 -618 -152zM976 177c166 0 305 36 416 108s167 173 167 303
s-56 231 -167 302s-250 107 -416 107c-167 0 -306 -36 -417 -107c-112 -71 -167 -172 -167 -302s55 -231 167 -303c111 -72 250 -108 417 -108zM1151 1274c-175 0 -206 101 -324 101c-83 0 -117 -54 -120 -83h-151c5 46 42 201 265 201c164 0 182 -100 319 -100
c76 0 112 54 114 84h151c-2 -40 -34 -203 -254 -203zM502 1621v109h947v-109h-947z" />
    <glyph glyph-name="oe" unicode="&#x153;" horiz-adv-x="3445" 
d="M976 -10c-241 0 -448 50 -619 152c-171 101 -256 251 -256 449s85 346 256 445c171 98 378 147 619 147s447 -49 618 -147c43 -26 81 -54 114 -85c31 29 67 56 108 81c169 99 372 149 609 149c247 0 451 -51 613 -153c162 -103 243 -249 243 -438c0 -35 -3 -64 -9 -88
h-1428c0 -2 -1 -3 -1 -5c19 -101 72 -178 159 -232c111 -69 256 -103 434 -103c271 0 523 95 551 211l240 -137c-54 -137 -459 -249 -792 -249c-250 0 -458 49 -624 147c-43 25 -80 54 -112 86c-31 -29 -66 -55 -105 -78c-171 -102 -377 -152 -618 -152zM976 177
c166 0 305 36 416 108s167 173 167 303s-56 231 -167 302s-250 107 -416 107c-167 0 -306 -36 -417 -107c-112 -71 -167 -172 -167 -302s55 -231 167 -303c111 -72 250 -108 417 -108zM1844 676h1150c-8 100 -61 180 -157 238c-105 64 -242 96 -411 96
c-167 0 -307 -35 -420 -105c-88 -54 -142 -131 -162 -229z" />
    <glyph glyph-name="p" unicode="p" horiz-adv-x="1999" 
d="M173 -445v1615h290v-187c28 22 62 44 101 67c147 88 328 132 543 132c209 0 384 -49 525 -147s212 -247 212 -447s-71 -350 -212 -449s-316 -149 -525 -149c-215 0 -396 44 -543 132c-39 23 -73 45 -101 67v-634h-290zM463 493c5 -74 61 -143 166 -208
c111 -69 242 -103 393 -103c156 0 283 35 380 105c96 70 145 170 145 299s-49 229 -145 299c-97 70 -224 105 -380 105c-151 0 -282 -34 -393 -103c-105 -65 -161 -134 -166 -208v-186z" />
    <glyph glyph-name="thorn" unicode="&#xfe;" horiz-adv-x="2013" 
d="M173 -400v1181h14v789h291v-586c28 21 62 43 100 66c147 88 328 132 543 132c209 0 385 -49 526 -147s211 -247 211 -447s-70 -350 -211 -449s-317 -149 -526 -149c-215 0 -396 44 -543 132c-40 23 -74 46 -103 68l-7 -190h-6v-400h-289zM478 689v-206
c10 -70 65 -136 166 -198c111 -69 242 -103 392 -103c157 0 283 35 380 105s145 170 145 299s-48 229 -145 299s-223 105 -380 105c-150 0 -281 -34 -392 -103c-101 -62 -156 -128 -166 -198z" />
    <glyph glyph-name="q" unicode="q" horiz-adv-x="1986" 
d="M1477 -445v629c-27 -20 -58 -41 -94 -62c-145 -88 -325 -132 -540 -132c-210 0 -386 49 -528 147c-143 97 -214 248 -214 451s71 353 214 450c142 96 318 144 528 144c215 0 395 -44 540 -132c36 -21 67 -42 94 -62v182h290v-1615h-290zM1477 709
c-17 63 -70 122 -159 178c-110 69 -240 103 -390 103c-157 0 -285 -34 -383 -103c-98 -68 -147 -169 -147 -301s49 -233 147 -301c98 -69 226 -103 383 -103c150 0 280 34 390 103c89 56 142 115 159 178v246z" />
    <glyph glyph-name="r" unicode="r" horiz-adv-x="1877" 
d="M1375 621c0 127 -38 220 -113 279s-178 88 -308 88c-152 0 -273 -38 -361 -113c-77 -66 -121 -146 -130 -239v-636h-290v1170h290v-209c20 22 44 44 70 66c124 102 295 153 514 153c201 0 354 -44 460 -131s160 -230 160 -428h-292z" />
    <glyph glyph-name="r.ss01" horiz-adv-x="1391" 
d="M127 0v1170h290v-234c70 43 178 89 325 136c160 52 330 88 508 108v-216c-158 -9 -324 -36 -496 -83c-157 -43 -270 -83 -337 -122v-759h-290z" />
    <glyph glyph-name="racute" unicode="&#x155;" horiz-adv-x="1877" 
d="M1375 621c0 127 -38 220 -113 279s-178 88 -308 88c-152 0 -273 -38 -361 -113c-77 -66 -121 -146 -130 -239v-636h-290v1170h290v-209c20 22 44 44 70 66c124 102 295 153 514 153c201 0 354 -44 460 -131s160 -230 160 -428h-292zM764 1222l233 195h210l-300 -195h-143
z" />
    <glyph glyph-name="rcaron" unicode="&#x159;" horiz-adv-x="1877" 
d="M1375 621c0 127 -38 220 -113 279s-178 88 -308 88c-152 0 -273 -38 -361 -113c-77 -66 -121 -146 -130 -239v-636h-290v1170h290v-209c20 22 44 44 70 66c124 102 295 153 514 153c201 0 354 -44 460 -131s160 -230 160 -428h-292zM889 1218l-334 214h197l234 -156
l232 156h197l-336 -214h-190z" />
    <glyph glyph-name="uni0157" unicode="&#x157;" horiz-adv-x="1877" 
d="M1375 621c0 127 -38 220 -113 279s-178 88 -308 88c-152 0 -273 -38 -361 -113c-77 -66 -121 -146 -130 -239v-636h-290v1170h290v-209c20 22 44 44 70 66c124 102 295 153 514 153c201 0 354 -44 460 -131s160 -230 160 -428h-292zM594 -373l122 330h169l-181 -330h-110
z" />
    <glyph glyph-name="uni0211" unicode="&#x211;" horiz-adv-x="1877" 
d="M1375 621c0 127 -38 220 -113 279s-178 88 -308 88c-152 0 -273 -38 -361 -113c-77 -66 -121 -146 -130 -239v-636h-290v1170h290v-209c20 22 44 44 70 66c124 102 295 153 514 153c201 0 354 -44 460 -131s160 -230 160 -428h-292zM898 1242l-300 195h208l235 -195h-143
zM1229 1242l-300 195h208l235 -195h-143z" />
    <glyph glyph-name="uni1E5B" unicode="&#x1e5b;" horiz-adv-x="1877" 
d="M1375 621c0 127 -38 220 -113 279s-178 88 -308 88c-152 0 -273 -38 -361 -113c-77 -66 -121 -146 -130 -239v-636h-290v1170h290v-209c20 22 44 44 70 66c124 102 295 153 514 153c201 0 354 -44 460 -131s160 -230 160 -428h-292zM974 -298c-52 0 -93 41 -93 93
c0 51 41 92 93 92c51 0 92 -41 92 -92c0 -52 -41 -93 -92 -93z" />
    <glyph glyph-name="uni0213" unicode="&#x213;" horiz-adv-x="1877" 
d="M1375 621c0 127 -38 220 -113 279s-178 88 -308 88c-152 0 -273 -38 -361 -113c-77 -66 -121 -146 -130 -239v-636h-290v1170h290v-209c20 22 44 44 70 66c124 102 295 153 514 153c201 0 354 -44 460 -131s160 -230 160 -428h-292zM985 1456c183 0 312 -96 312 -199
h-142c0 50 -52 104 -170 104c-129 0 -171 -54 -171 -104h-141c0 103 117 199 312 199z" />
    <glyph glyph-name="uni1E5F" unicode="&#x1e5f;" horiz-adv-x="1877" 
d="M1375 621c0 127 -38 220 -113 279s-178 88 -308 88c-152 0 -273 -38 -361 -113c-77 -66 -121 -146 -130 -239v-636h-290v1170h290v-209c20 22 44 44 70 66c124 102 295 153 514 153c201 0 354 -44 460 -131s160 -230 160 -428h-292zM500 -245v109h947v-109h-947z" />
    <glyph glyph-name="s" unicode="s" horiz-adv-x="1920" 
d="M961 -10c-207 0 -388 24 -542 72s-251 107 -291 176l229 147c18 -59 82 -110 194 -152c112 -43 246 -64 403 -64c171 0 301 15 390 45c90 30 135 69 135 117c0 46 -46 80 -138 101c-91 21 -229 43 -413 65c-261 27 -456 63 -585 108c-130 45 -194 123 -194 234
c0 114 77 200 232 257c155 56 345 85 570 85c219 0 395 -22 528 -65s218 -97 255 -161l-216 -144c-18 53 -77 98 -176 135c-100 37 -233 56 -399 56c-161 0 -287 -16 -378 -46c-91 -31 -136 -68 -136 -112c0 -46 48 -80 144 -100c97 -20 233 -41 409 -62
c257 -29 451 -65 582 -110c130 -45 196 -123 196 -233c0 -117 -75 -204 -225 -262s-341 -87 -574 -87z" />
    <glyph glyph-name="sacute" unicode="&#x15b;" horiz-adv-x="1920" 
d="M961 -10c-207 0 -388 24 -542 72s-251 107 -291 176l229 147c18 -59 82 -110 194 -152c112 -43 246 -64 403 -64c171 0 301 15 390 45c90 30 135 69 135 117c0 46 -46 80 -138 101c-91 21 -229 43 -413 65c-261 27 -456 63 -585 108c-130 45 -194 123 -194 234
c0 114 77 200 232 257c155 56 345 85 570 85c219 0 395 -22 528 -65s218 -97 255 -161l-216 -144c-18 53 -77 98 -176 135c-100 37 -233 56 -399 56c-161 0 -287 -16 -378 -46c-91 -31 -136 -68 -136 -112c0 -46 48 -80 144 -100c97 -20 233 -41 409 -62
c257 -29 451 -65 582 -110c130 -45 196 -123 196 -233c0 -117 -75 -204 -225 -262s-341 -87 -574 -87zM731 1222l233 195h210l-300 -195h-143z" />
    <glyph glyph-name="uni1E65" unicode="&#x1e65;" horiz-adv-x="1920" 
d="M961 -10c-207 0 -388 24 -542 72s-251 107 -291 176l229 147c18 -59 82 -110 194 -152c112 -43 246 -64 403 -64c171 0 301 15 390 45c90 30 135 69 135 117c0 46 -46 80 -138 101c-91 21 -229 43 -413 65c-261 27 -456 63 -585 108c-130 45 -194 123 -194 234
c0 114 77 200 232 257c155 56 345 85 570 85c219 0 395 -22 528 -65s218 -97 255 -161l-216 -144c-18 53 -77 98 -176 135c-100 37 -233 56 -399 56c-161 0 -287 -16 -378 -46c-91 -31 -136 -68 -136 -112c0 -46 48 -80 144 -100c97 -20 233 -41 409 -62
c257 -29 451 -65 582 -110c130 -45 196 -123 196 -233c0 -117 -75 -204 -225 -262s-341 -87 -574 -87zM731 1222l233 195h210l-300 -195h-143zM953 1486c-52 0 -93 41 -93 93c0 51 41 92 93 92c51 0 92 -41 92 -92c0 -52 -41 -93 -92 -93z" />
    <glyph glyph-name="scaron" unicode="&#x161;" horiz-adv-x="1920" 
d="M961 -10c-207 0 -388 24 -542 72s-251 107 -291 176l229 147c18 -59 82 -110 194 -152c112 -43 246 -64 403 -64c171 0 301 15 390 45c90 30 135 69 135 117c0 46 -46 80 -138 101c-91 21 -229 43 -413 65c-261 27 -456 63 -585 108c-130 45 -194 123 -194 234
c0 114 77 200 232 257c155 56 345 85 570 85c219 0 395 -22 528 -65s218 -97 255 -161l-216 -144c-18 53 -77 98 -176 135c-100 37 -233 56 -399 56c-161 0 -287 -16 -378 -46c-91 -31 -136 -68 -136 -112c0 -46 48 -80 144 -100c97 -20 233 -41 409 -62
c257 -29 451 -65 582 -110c130 -45 196 -123 196 -233c0 -117 -75 -204 -225 -262s-341 -87 -574 -87zM857 1218l-334 214h196l235 -157l231 157h198l-336 -214h-190z" />
    <glyph glyph-name="uni1E67" unicode="&#x1e67;" horiz-adv-x="1920" 
d="M961 -10c-207 0 -388 24 -542 72s-251 107 -291 176l229 147c18 -59 82 -110 194 -152c112 -43 246 -64 403 -64c171 0 301 15 390 45c90 30 135 69 135 117c0 46 -46 80 -138 101c-91 21 -229 43 -413 65c-261 27 -456 63 -585 108c-130 45 -194 123 -194 234
c0 114 77 200 232 257c155 56 345 85 570 85c219 0 395 -22 528 -65s218 -97 255 -161l-216 -144c-18 53 -77 98 -176 135c-100 37 -233 56 -399 56c-161 0 -287 -16 -378 -46c-91 -31 -136 -68 -136 -112c0 -46 48 -80 144 -100c97 -20 233 -41 409 -62
c257 -29 451 -65 582 -110c130 -45 196 -123 196 -233c0 -117 -75 -204 -225 -262s-341 -87 -574 -87zM857 1218l-334 214h196l235 -157l231 157h198l-336 -214h-190zM953 1501c-52 0 -93 41 -93 93c0 51 41 92 93 92c51 0 92 -41 92 -92c0 -52 -41 -93 -92 -93z" />
    <glyph glyph-name="scedilla" unicode="&#x15f;" horiz-adv-x="1920" 
d="M1003 -349c-78 0 -154 9 -229 25l45 123c49 -12 113 -23 188 -23c110 0 167 23 167 63c0 30 -30 42 -83 42c-49 0 -107 -19 -145 -36l-105 12l47 134c-177 5 -333 28 -469 71c-154 48 -251 107 -291 176l229 147c18 -59 82 -110 194 -152c112 -43 246 -64 403 -64
c171 0 301 15 390 45c90 30 135 69 135 117c0 46 -46 80 -138 101c-91 21 -229 43 -413 65c-261 27 -456 63 -585 108c-130 45 -194 123 -194 234c0 114 77 200 232 257c155 56 345 85 570 85c219 0 395 -22 528 -65s218 -97 255 -161l-216 -144c-18 53 -77 98 -176 135
c-100 37 -233 56 -399 56c-161 0 -287 -16 -378 -46c-91 -31 -136 -68 -136 -112c0 -46 48 -80 144 -100c97 -20 233 -41 409 -62c257 -29 451 -65 582 -110c130 -45 196 -123 196 -233c0 -117 -75 -204 -225 -262c-140 -55 -316 -84 -529 -87l-35 -85c45 26 126 45 201 45
c108 0 189 -39 189 -119c0 -124 -184 -180 -358 -180z" />
    <glyph glyph-name="scircumflex" unicode="&#x15d;" horiz-adv-x="1920" 
d="M961 -10c-207 0 -388 24 -542 72s-251 107 -291 176l229 147c18 -59 82 -110 194 -152c112 -43 246 -64 403 -64c171 0 301 15 390 45c90 30 135 69 135 117c0 46 -46 80 -138 101c-91 21 -229 43 -413 65c-261 27 -456 63 -585 108c-130 45 -194 123 -194 234
c0 114 77 200 232 257c155 56 345 85 570 85c219 0 395 -22 528 -65s218 -97 255 -161l-216 -144c-18 53 -77 98 -176 135c-100 37 -233 56 -399 56c-161 0 -287 -16 -378 -46c-91 -31 -136 -68 -136 -112c0 -46 48 -80 144 -100c97 -20 233 -41 409 -62
c257 -29 451 -65 582 -110c130 -45 196 -123 196 -233c0 -117 -75 -204 -225 -262s-341 -87 -574 -87zM523 1223l334 214h190l336 -214h-198l-232 156l-234 -156h-196z" />
    <glyph glyph-name="uni0219" unicode="&#x219;" horiz-adv-x="1920" 
d="M961 -10c-207 0 -388 24 -542 72s-251 107 -291 176l229 147c18 -59 82 -110 194 -152c112 -43 246 -64 403 -64c171 0 301 15 390 45c90 30 135 69 135 117c0 46 -46 80 -138 101c-91 21 -229 43 -413 65c-261 27 -456 63 -585 108c-130 45 -194 123 -194 234
c0 114 77 200 232 257c155 56 345 85 570 85c219 0 395 -22 528 -65s218 -97 255 -161l-216 -144c-18 53 -77 98 -176 135c-100 37 -233 56 -399 56c-161 0 -287 -16 -378 -46c-91 -31 -136 -68 -136 -112c0 -46 48 -80 144 -100c97 -20 233 -41 409 -62
c257 -29 451 -65 582 -110c130 -45 196 -123 196 -233c0 -117 -75 -204 -225 -262s-341 -87 -574 -87zM768 -373l121 330h170l-182 -330h-109z" />
    <glyph glyph-name="uni1E61" unicode="&#x1e61;" horiz-adv-x="1920" 
d="M961 -10c-207 0 -388 24 -542 72s-251 107 -291 176l229 147c18 -59 82 -110 194 -152c112 -43 246 -64 403 -64c171 0 301 15 390 45c90 30 135 69 135 117c0 46 -46 80 -138 101c-91 21 -229 43 -413 65c-261 27 -456 63 -585 108c-130 45 -194 123 -194 234
c0 114 77 200 232 257c155 56 345 85 570 85c219 0 395 -22 528 -65s218 -97 255 -161l-216 -144c-18 53 -77 98 -176 135c-100 37 -233 56 -399 56c-161 0 -287 -16 -378 -46c-91 -31 -136 -68 -136 -112c0 -46 48 -80 144 -100c97 -20 233 -41 409 -62
c257 -29 451 -65 582 -110c130 -45 196 -123 196 -233c0 -117 -75 -204 -225 -262s-341 -87 -574 -87zM953 1239c-52 0 -93 41 -93 93c0 51 41 92 93 92c51 0 92 -41 92 -92c0 -52 -41 -93 -92 -93z" />
    <glyph glyph-name="uni1E63" unicode="&#x1e63;" horiz-adv-x="1920" 
d="M961 -10c-207 0 -388 24 -542 72s-251 107 -291 176l229 147c18 -59 82 -110 194 -152c112 -43 246 -64 403 -64c171 0 301 15 390 45c90 30 135 69 135 117c0 46 -46 80 -138 101c-91 21 -229 43 -413 65c-261 27 -456 63 -585 108c-130 45 -194 123 -194 234
c0 114 77 200 232 257c155 56 345 85 570 85c219 0 395 -22 528 -65s218 -97 255 -161l-216 -144c-18 53 -77 98 -176 135c-100 37 -233 56 -399 56c-161 0 -287 -16 -378 -46c-91 -31 -136 -68 -136 -112c0 -46 48 -80 144 -100c97 -20 233 -41 409 -62
c257 -29 451 -65 582 -110c130 -45 196 -123 196 -233c0 -117 -75 -204 -225 -262s-341 -87 -574 -87zM944 -298c-52 0 -93 41 -93 93c0 51 41 92 93 92c51 0 92 -41 92 -92c0 -52 -41 -93 -92 -93z" />
    <glyph glyph-name="uni1E69" unicode="&#x1e69;" horiz-adv-x="1920" 
d="M961 -10c-207 0 -388 24 -542 72s-251 107 -291 176l229 147c18 -59 82 -110 194 -152c112 -43 246 -64 403 -64c171 0 301 15 390 45c90 30 135 69 135 117c0 46 -46 80 -138 101c-91 21 -229 43 -413 65c-261 27 -456 63 -585 108c-130 45 -194 123 -194 234
c0 114 77 200 232 257c155 56 345 85 570 85c219 0 395 -22 528 -65s218 -97 255 -161l-216 -144c-18 53 -77 98 -176 135c-100 37 -233 56 -399 56c-161 0 -287 -16 -378 -46c-91 -31 -136 -68 -136 -112c0 -46 48 -80 144 -100c97 -20 233 -41 409 -62
c257 -29 451 -65 582 -110c130 -45 196 -123 196 -233c0 -117 -75 -204 -225 -262s-341 -87 -574 -87zM944 -298c-52 0 -93 41 -93 93c0 51 41 92 93 92c51 0 92 -41 92 -92c0 -52 -41 -93 -92 -93zM953 1239c-52 0 -93 41 -93 93c0 51 41 92 93 92c51 0 92 -41 92 -92
c0 -52 -41 -93 -92 -93z" />
    <glyph glyph-name="germandbls" unicode="&#xdf;" horiz-adv-x="1991" 
d="M145 0v830c0 389 280 654 810 654c495 0 694 -193 694 -382c0 -195 -167 -230 -167 -304c0 -78 348 -100 348 -368c0 -321 -401 -430 -1114 -430v189c545 0 805 76 805 273c0 194 -312 210 -312 334c0 114 155 128 155 281c0 128 -132 221 -403 221
c-329 0 -526 -178 -526 -470v-828h-290z" />
    <glyph glyph-name="t" unicode="t" horiz-adv-x="1650" 
d="M1020 -15c-145 0 -263 26 -353 78s-135 144 -135 274v641h-491v192h491v294h290v-294h690v-192h-690v-570c0 -96 24 -160 72 -193c47 -34 118 -50 211 -50c76 0 164 6 263 18v-181c-133 -11 -249 -17 -348 -17z" />
    <glyph glyph-name="t.ss01" horiz-adv-x="1664" 
d="M648 0v998h-603v172h603v287h291v-287h602v-172h-602v-998h-291z" />
    <glyph glyph-name="tbar" unicode="&#x167;" horiz-adv-x="1650" 
d="M151 560v132h381v286h-491v192h491v294h290v-294h690v-192h-690v-286h383v-132h-383v-152c0 -96 24 -160 72 -193c47 -34 118 -50 211 -50c76 0 164 6 263 18v-181c-133 -11 -249 -17 -348 -17c-145 0 -263 26 -353 78s-135 144 -135 274v223h-381z" />
    <glyph glyph-name="tcaron" unicode="&#x165;" horiz-adv-x="1733" 
d="M1020 -15c-145 0 -263 26 -353 78s-135 144 -135 274v641h-491v192h491v294h290v-294h690v-192h-690v-570c0 -96 24 -160 72 -193c47 -34 118 -50 211 -50c76 0 164 6 263 18v-181c-133 -11 -249 -17 -348 -17zM1542 1178l42 279h149l-54 -279h-137z" />
    <glyph glyph-name="uni0163" unicode="&#x163;" horiz-adv-x="1650" 
d="M1020 -15h-7l-32 -78c45 26 126 46 201 46c108 0 189 -39 189 -119c0 -124 -184 -180 -358 -180c-78 0 -154 9 -229 25l45 123c49 -12 113 -23 188 -23c110 0 167 23 167 63c0 30 -30 42 -83 42c-49 0 -107 -19 -145 -36l-105 12l47 132c-91 11 -167 35 -231 71
c-90 52 -135 144 -135 274v641h-491v192h491v294h290v-294h690v-192h-690v-570c0 -96 24 -160 72 -193c47 -34 118 -50 211 -50c76 0 164 6 263 18v-181c-133 -11 -249 -17 -348 -17z" />
    <glyph glyph-name="uni021B" unicode="&#x21b;" horiz-adv-x="1650" 
d="M1020 -15c-145 0 -263 26 -353 78s-135 144 -135 274v641h-491v192h491v294h290v-294h690v-192h-690v-570c0 -96 24 -160 72 -193c47 -34 118 -50 211 -50c76 0 164 6 263 18v-181c-133 -11 -249 -17 -348 -17zM816 -373l122 330h169l-181 -330h-110z" />
    <glyph glyph-name="uni1E97" unicode="&#x1e97;" horiz-adv-x="1650" 
d="M1020 -15c-145 0 -263 26 -353 78s-135 144 -135 274v641h-491v192h491v294h290v-294h690v-192h-690v-570c0 -96 24 -160 72 -193c47 -34 118 -50 211 -50c76 0 164 6 263 18v-181c-133 -11 -249 -17 -348 -17zM442 1535c-52 0 -94 42 -94 94s42 94 94 94s94 -42 94 -94
s-42 -94 -94 -94zM918 1535c-52 0 -94 42 -94 94s42 94 94 94s94 -42 94 -94s-42 -94 -94 -94z" />
    <glyph glyph-name="uni1E6D" unicode="&#x1e6d;" horiz-adv-x="1650" 
d="M1020 -15c-145 0 -263 26 -353 78s-135 144 -135 274v641h-491v192h491v294h290v-294h690v-192h-690v-570c0 -96 24 -160 72 -193c47 -34 118 -50 211 -50c76 0 164 6 263 18v-181c-133 -11 -249 -17 -348 -17zM992 -298c-52 0 -93 41 -93 93c0 51 41 92 93 92
c51 0 92 -41 92 -92c0 -52 -41 -93 -92 -93z" />
    <glyph glyph-name="uni1E6F" unicode="&#x1e6f;" horiz-adv-x="1650" 
d="M1020 -15c-145 0 -263 26 -353 78s-135 144 -135 274v641h-491v192h491v294h290v-294h690v-192h-690v-570c0 -96 24 -160 72 -193c47 -34 118 -50 211 -50c76 0 164 6 263 18v-181c-133 -11 -249 -17 -348 -17zM518 -245v109h947v-109h-947z" />
    <glyph glyph-name="u" unicode="u" horiz-adv-x="1933" 
d="M1423 0v238c-20 -21 -43 -43 -67 -64c-140 -124 -324 -185 -552 -185c-202 0 -362 45 -480 137c-118 91 -177 237 -177 436v610h291v-588c0 -141 40 -243 121 -307s193 -96 337 -96c149 0 274 42 376 128c90 75 141 170 151 284v577h290v-1170h-290z" />
    <glyph glyph-name="uacute" unicode="&#xfa;" horiz-adv-x="1933" 
d="M1423 0v238c-20 -21 -43 -43 -67 -64c-140 -124 -324 -185 -552 -185c-202 0 -362 45 -480 137c-118 91 -177 237 -177 436v610h291v-588c0 -141 40 -243 121 -307s193 -96 337 -96c149 0 274 42 376 128c90 75 141 170 151 284v577h290v-1170h-290zM721 1222l233 195
h210l-300 -195h-143z" />
    <glyph glyph-name="ubreve" unicode="&#x16d;" horiz-adv-x="1933" 
d="M1423 0v238c-20 -21 -43 -43 -67 -64c-140 -124 -324 -185 -552 -185c-202 0 -362 45 -480 137c-118 91 -177 237 -177 436v610h291v-588c0 -141 40 -243 121 -307s193 -96 337 -96c149 0 274 42 376 128c90 75 141 170 151 284v577h290v-1170h-290zM942 1223
c-183 0 -312 96 -312 199h142c0 -50 52 -104 170 -104c129 0 171 54 171 104h141c0 -103 -117 -199 -312 -199z" />
    <glyph glyph-name="uni01D4" unicode="&#x1d4;" horiz-adv-x="1933" 
d="M1423 0v238c-20 -21 -43 -43 -67 -64c-140 -124 -324 -185 -552 -185c-202 0 -362 45 -480 137c-118 91 -177 237 -177 436v610h291v-588c0 -141 40 -243 121 -307s193 -96 337 -96c149 0 274 42 376 128c90 75 141 170 151 284v577h290v-1170h-290zM846 1218l-334 214
h197l234 -156l232 156h197l-336 -214h-190z" />
    <glyph glyph-name="ucircumflex" unicode="&#xfb;" horiz-adv-x="1933" 
d="M1423 0v238c-20 -21 -43 -43 -67 -64c-140 -124 -324 -185 -552 -185c-202 0 -362 45 -480 137c-118 91 -177 237 -177 436v610h291v-588c0 -141 40 -243 121 -307s193 -96 337 -96c149 0 274 42 376 128c90 75 141 170 151 284v577h290v-1170h-290zM512 1223l334 214
h190l336 -214h-197l-232 156l-234 -156h-197z" />
    <glyph glyph-name="uni0215" unicode="&#x215;" horiz-adv-x="1933" 
d="M1423 0v238c-20 -21 -43 -43 -67 -64c-140 -124 -324 -185 -552 -185c-202 0 -362 45 -480 137c-118 91 -177 237 -177 436v610h291v-588c0 -141 40 -243 121 -307s193 -96 337 -96c149 0 274 42 376 128c90 75 141 170 151 284v577h290v-1170h-290zM855 1242l-300 195
h208l235 -195h-143zM1186 1242l-300 195h208l235 -195h-143z" />
    <glyph glyph-name="udieresis" unicode="&#xfc;" horiz-adv-x="1933" 
d="M1423 0v238c-20 -21 -43 -43 -67 -64c-140 -124 -324 -185 -552 -185c-202 0 -362 45 -480 137c-118 91 -177 237 -177 436v610h291v-588c0 -141 40 -243 121 -307s193 -96 337 -96c149 0 274 42 376 128c90 75 141 170 151 284v577h290v-1170h-290zM701 1246
c-52 0 -94 42 -94 94s42 94 94 94s94 -42 94 -94s-42 -94 -94 -94zM1177 1246c-52 0 -94 42 -94 94s42 94 94 94s94 -42 94 -94s-42 -94 -94 -94z" />
    <glyph glyph-name="uni01D8" unicode="&#x1d8;" horiz-adv-x="1933" 
d="M1423 0v238c-20 -21 -43 -43 -67 -64c-140 -124 -324 -185 -552 -185c-202 0 -362 45 -480 137c-118 91 -177 237 -177 436v610h291v-588c0 -141 40 -243 121 -307s193 -96 337 -96c149 0 274 42 376 128c90 75 141 170 151 284v577h290v-1170h-290zM789 1439l233 195
h210l-300 -195h-143zM701 1246c-52 0 -94 42 -94 94s42 94 94 94s94 -42 94 -94s-42 -94 -94 -94zM1177 1246c-52 0 -94 42 -94 94s42 94 94 94s94 -42 94 -94s-42 -94 -94 -94z" />
    <glyph glyph-name="uni01DA" unicode="&#x1da;" horiz-adv-x="1933" 
d="M1423 0v238c-20 -21 -43 -43 -67 -64c-140 -124 -324 -185 -552 -185c-202 0 -362 45 -480 137c-118 91 -177 237 -177 436v610h291v-588c0 -141 40 -243 121 -307s193 -96 337 -96c149 0 274 42 376 128c90 75 141 170 151 284v577h290v-1170h-290zM846 1483l-334 214
h197l234 -156l232 156h197l-336 -214h-190zM701 1246c-52 0 -94 42 -94 94s42 94 94 94s94 -42 94 -94s-42 -94 -94 -94zM1177 1246c-52 0 -94 42 -94 94s42 94 94 94s94 -42 94 -94s-42 -94 -94 -94z" />
    <glyph glyph-name="uni01DC" unicode="&#x1dc;" horiz-adv-x="1933" 
d="M1423 0v238c-20 -21 -43 -43 -67 -64c-140 -124 -324 -185 -552 -185c-202 0 -362 45 -480 137c-118 91 -177 237 -177 436v610h291v-588c0 -141 40 -243 121 -307s193 -96 337 -96c149 0 274 42 376 128c90 75 141 170 151 284v577h290v-1170h-290zM971 1459l-300 195
h208l235 -195h-143zM701 1246c-52 0 -94 42 -94 94s42 94 94 94s94 -42 94 -94s-42 -94 -94 -94zM1177 1246c-52 0 -94 42 -94 94s42 94 94 94s94 -42 94 -94s-42 -94 -94 -94z" />
    <glyph glyph-name="uni01D6" unicode="&#x1d6;" horiz-adv-x="1933" 
d="M1423 0v238c-20 -21 -43 -43 -67 -64c-140 -124 -324 -185 -552 -185c-202 0 -362 45 -480 137c-118 91 -177 237 -177 436v610h291v-588c0 -141 40 -243 121 -307s193 -96 337 -96c149 0 274 42 376 128c90 75 141 170 151 284v577h290v-1170h-290zM469 1568v109h947
v-109h-947zM701 1246c-52 0 -94 42 -94 94s42 94 94 94s94 -42 94 -94s-42 -94 -94 -94zM1177 1246c-52 0 -94 42 -94 94s42 94 94 94s94 -42 94 -94s-42 -94 -94 -94z" />
    <glyph glyph-name="uni1EE5" unicode="&#x1ee5;" horiz-adv-x="1933" 
d="M1423 0v238c-20 -21 -43 -43 -67 -64c-140 -124 -324 -185 -552 -185c-202 0 -362 45 -480 137c-118 91 -177 237 -177 436v610h291v-588c0 -141 40 -243 121 -307s193 -96 337 -96c149 0 274 42 376 128c90 75 141 170 151 284v577h290v-1170h-290zM943 -298
c-52 0 -93 41 -93 93c0 51 41 92 93 92c51 0 92 -41 92 -92c0 -52 -41 -93 -92 -93z" />
    <glyph glyph-name="ugrave" unicode="&#xf9;" horiz-adv-x="1933" 
d="M1423 0v238c-20 -21 -43 -43 -67 -64c-140 -124 -324 -185 -552 -185c-202 0 -362 45 -480 137c-118 91 -177 237 -177 436v610h291v-588c0 -141 40 -243 121 -307s193 -96 337 -96c149 0 274 42 376 128c90 75 141 170 151 284v577h290v-1170h-290zM1021 1232l-300 195
h208l235 -195h-143z" />
    <glyph glyph-name="uni1EE7" unicode="&#x1ee7;" horiz-adv-x="1933" 
d="M1423 0v238c-20 -21 -43 -43 -67 -64c-140 -124 -324 -185 -552 -185c-202 0 -362 45 -480 137c-118 91 -177 237 -177 436v610h291v-588c0 -141 40 -243 121 -307s193 -96 337 -96c149 0 274 42 376 128c90 75 141 170 151 284v577h290v-1170h-290zM767 1543
c368 0 533 -18 533 -119c0 -97 -174 -121 -310 -121v-69h-104v138c155 0 265 7 265 42c0 41 -117 43 -384 43v86z" />
    <glyph glyph-name="uhorn" unicode="&#x1b0;" horiz-adv-x="2244" 
d="M1423 0v238c-20 -21 -43 -43 -67 -64c-140 -124 -324 -185 -552 -185c-202 0 -362 45 -480 137c-118 91 -177 237 -177 436v610h291v-588c0 -141 40 -243 121 -307s193 -96 337 -96c149 0 274 42 376 128c90 75 141 170 151 284v577h280c258 0 363 33 363 177h179
c0 -190 -197 -274 -532 -275v-1072h-290z" />
    <glyph glyph-name="uni1EE9" unicode="&#x1ee9;" horiz-adv-x="2244" 
d="M1423 0v238c-20 -21 -43 -43 -67 -64c-140 -124 -324 -185 -552 -185c-202 0 -362 45 -480 137c-118 91 -177 237 -177 436v610h291v-588c0 -141 40 -243 121 -307s193 -96 337 -96c149 0 274 42 376 128c90 75 141 170 151 284v577h280c258 0 363 33 363 177h179
c0 -190 -197 -274 -532 -275v-1072h-290zM721 1222l233 195h210l-300 -195h-143z" />
    <glyph glyph-name="uni1EF1" unicode="&#x1ef1;" horiz-adv-x="2244" 
d="M1423 0v238c-20 -21 -43 -43 -67 -64c-140 -124 -324 -185 -552 -185c-202 0 -362 45 -480 137c-118 91 -177 237 -177 436v610h291v-588c0 -141 40 -243 121 -307s193 -96 337 -96c149 0 274 42 376 128c90 75 141 170 151 284v577h280c258 0 363 33 363 177h179
c0 -190 -197 -274 -532 -275v-1072h-290zM943 -298c-52 0 -93 41 -93 93c0 51 41 92 93 92c51 0 92 -41 92 -92c0 -52 -41 -93 -92 -93z" />
    <glyph glyph-name="uni1EEB" unicode="&#x1eeb;" horiz-adv-x="2244" 
d="M1423 0v238c-20 -21 -43 -43 -67 -64c-140 -124 -324 -185 -552 -185c-202 0 -362 45 -480 137c-118 91 -177 237 -177 436v610h291v-588c0 -141 40 -243 121 -307s193 -96 337 -96c149 0 274 42 376 128c90 75 141 170 151 284v577h280c258 0 363 33 363 177h179
c0 -190 -197 -274 -532 -275v-1072h-290zM1021 1232l-300 195h208l235 -195h-143z" />
    <glyph glyph-name="uni1EED" unicode="&#x1eed;" horiz-adv-x="2244" 
d="M1423 0v238c-20 -21 -43 -43 -67 -64c-140 -124 -324 -185 -552 -185c-202 0 -362 45 -480 137c-118 91 -177 237 -177 436v610h291v-588c0 -141 40 -243 121 -307s193 -96 337 -96c149 0 274 42 376 128c90 75 141 170 151 284v577h280c258 0 363 33 363 177h179
c0 -190 -197 -274 -532 -275v-1072h-290zM767 1543c368 0 533 -18 533 -119c0 -97 -174 -121 -310 -121v-69h-104v138c155 0 265 7 265 42c0 41 -117 43 -384 43v86z" />
    <glyph glyph-name="uni1EEF" unicode="&#x1eef;" horiz-adv-x="2244" 
d="M1423 0v238c-20 -21 -43 -43 -67 -64c-140 -124 -324 -185 -552 -185c-202 0 -362 45 -480 137c-118 91 -177 237 -177 436v610h291v-588c0 -141 40 -243 121 -307s193 -96 337 -96c149 0 274 42 376 128c90 75 141 170 151 284v577h280c258 0 363 33 363 177h179
c0 -190 -197 -274 -532 -275v-1072h-290zM1118 1271c-175 0 -207 101 -325 101c-83 0 -117 -53 -119 -83h-151c4 46 42 201 265 201c163 0 182 -100 318 -100c77 0 112 55 115 84h151c-3 -40 -34 -203 -254 -203z" />
    <glyph glyph-name="uhungarumlaut" unicode="&#x171;" horiz-adv-x="1933" 
d="M1423 0v238c-20 -21 -43 -43 -67 -64c-140 -124 -324 -185 -552 -185c-202 0 -362 45 -480 137c-118 91 -177 237 -177 436v610h291v-588c0 -141 40 -243 121 -307s193 -96 337 -96c149 0 274 42 376 128c90 75 141 170 151 284v577h290v-1170h-290zM949 1250l202 182
h198l-273 -182h-127zM536 1250l200 182h190l-263 -182h-127z" />
    <glyph glyph-name="uni0217" unicode="&#x217;" horiz-adv-x="1933" 
d="M1423 0v238c-20 -21 -43 -43 -67 -64c-140 -124 -324 -185 -552 -185c-202 0 -362 45 -480 137c-118 91 -177 237 -177 436v610h291v-588c0 -141 40 -243 121 -307s193 -96 337 -96c149 0 274 42 376 128c90 75 141 170 151 284v577h290v-1170h-290zM942 1456
c183 0 312 -96 312 -199h-142c0 50 -52 104 -170 104c-129 0 -171 -54 -171 -104h-141c0 103 117 199 312 199z" />
    <glyph glyph-name="umacron" unicode="&#x16b;" horiz-adv-x="1933" 
d="M1423 0v238c-20 -21 -43 -43 -67 -64c-140 -124 -324 -185 -552 -185c-202 0 -362 45 -480 137c-118 91 -177 237 -177 436v610h291v-588c0 -141 40 -243 121 -307s193 -96 337 -96c149 0 274 42 376 128c90 75 141 170 151 284v577h290v-1170h-290zM469 1303v109h947
v-109h-947z" />
    <glyph glyph-name="uni1E7B" unicode="&#x1e7b;" horiz-adv-x="1933" 
d="M1423 0v238c-20 -21 -43 -43 -67 -64c-140 -124 -324 -185 -552 -185c-202 0 -362 45 -480 137c-118 91 -177 237 -177 436v610h291v-588c0 -141 40 -243 121 -307s193 -96 337 -96c149 0 274 42 376 128c90 75 141 170 151 284v577h290v-1170h-290zM469 1303v109h947
v-109h-947zM701 1488c-52 0 -94 42 -94 94s42 94 94 94s94 -42 94 -94s-42 -94 -94 -94zM1177 1488c-52 0 -94 42 -94 94s42 94 94 94s94 -42 94 -94s-42 -94 -94 -94z" />
    <glyph glyph-name="uogonek" unicode="&#x173;" horiz-adv-x="1933" 
d="M1423 0v238c-20 -21 -43 -43 -67 -64c-140 -124 -324 -185 -552 -185c-202 0 -362 45 -480 137c-118 91 -177 237 -177 436v610h291v-588c0 -141 40 -243 121 -307s193 -96 337 -96c149 0 274 42 376 128c90 75 141 170 151 284v577h290v-1170c-25 -25 -76 -108 -76 -158
c0 -42 30 -73 106 -73c72 0 168 22 206 37l4 -136c-33 -14 -149 -36 -258 -36c-119 0 -221 44 -221 159c0 95 59 174 96 207h-147z" />
    <glyph glyph-name="uring" unicode="&#x16f;" horiz-adv-x="1933" 
d="M1423 0v238c-20 -21 -43 -43 -67 -64c-140 -124 -324 -185 -552 -185c-202 0 -362 45 -480 137c-118 91 -177 237 -177 436v610h291v-588c0 -141 40 -243 121 -307s193 -96 337 -96c149 0 274 42 376 128c90 75 141 170 151 284v577h290v-1170h-290zM942 1213
c-88 0 -154 67 -154 154c0 86 66 153 154 153s154 -67 154 -153c0 -87 -66 -154 -154 -154zM942 1318c27 0 48 22 48 49s-21 47 -48 47c-26 0 -48 -20 -48 -47s22 -49 48 -49z" />
    <glyph glyph-name="utilde" unicode="&#x169;" horiz-adv-x="1933" 
d="M1423 0v238c-20 -21 -43 -43 -67 -64c-140 -124 -324 -185 -552 -185c-202 0 -362 45 -480 137c-118 91 -177 237 -177 436v610h291v-588c0 -141 40 -243 121 -307s193 -96 337 -96c149 0 274 42 376 128c90 75 141 170 151 284v577h290v-1170h-290zM1118 1271
c-175 0 -207 101 -325 101c-83 0 -117 -53 -119 -83h-151c4 46 42 201 265 201c163 0 182 -100 318 -100c77 0 112 55 115 84h151c-3 -40 -34 -203 -254 -203z" />
    <glyph glyph-name="uni1E79" unicode="&#x1e79;" horiz-adv-x="1933" 
d="M1423 0v238c-20 -21 -43 -43 -67 -64c-140 -124 -324 -185 -552 -185c-202 0 -362 45 -480 137c-118 91 -177 237 -177 436v610h291v-588c0 -141 40 -243 121 -307s193 -96 337 -96c149 0 274 42 376 128c90 75 141 170 151 284v577h290v-1170h-290zM1118 1271
c-175 0 -207 101 -325 101c-83 0 -117 -53 -119 -83h-151c4 46 42 201 265 201c163 0 182 -100 318 -100c77 0 112 55 115 84h151c-3 -40 -34 -203 -254 -203zM721 1538l233 195h210l-300 -195h-143z" />
    <glyph glyph-name="v" unicode="v" horiz-adv-x="1856" 
d="M719 0l-653 1172h306l541 -1006l541 1006h306l-653 -1172h-388z" />
    <glyph glyph-name="w" unicode="w" horiz-adv-x="2601" 
d="M527 0l-420 1170h298l327 -992l410 992h289l416 -989l321 989h297l-415 -1170h-402l-361 899l-354 -899h-406z" />
    <glyph glyph-name="wacute" unicode="&#x1e83;" horiz-adv-x="2601" 
d="M527 0l-420 1170h298l327 -992l410 992h289l416 -989l321 989h297l-415 -1170h-402l-361 899l-354 -899h-406zM1064 1222l233 195h210l-300 -195h-143z" />
    <glyph glyph-name="wcircumflex" unicode="&#x175;" horiz-adv-x="2601" 
d="M527 0l-420 1170h298l327 -992l410 992h289l416 -989l321 989h297l-415 -1170h-402l-361 899l-354 -899h-406zM855 1223l334 214h190l336 -214h-197l-232 156l-234 -156h-197z" />
    <glyph glyph-name="wdieresis" unicode="&#x1e85;" horiz-adv-x="2601" 
d="M527 0l-420 1170h298l327 -992l410 992h289l416 -989l321 989h297l-415 -1170h-402l-361 899l-354 -899h-406zM1044 1246c-52 0 -94 42 -94 94s42 94 94 94s94 -42 94 -94s-42 -94 -94 -94zM1520 1246c-52 0 -94 42 -94 94s42 94 94 94s94 -42 94 -94s-42 -94 -94 -94z
" />
    <glyph glyph-name="wgrave" unicode="&#x1e81;" horiz-adv-x="2601" 
d="M527 0l-420 1170h298l327 -992l410 992h289l416 -989l321 989h297l-415 -1170h-402l-361 899l-354 -899h-406zM1364 1232l-300 195h208l235 -195h-143z" />
    <glyph glyph-name="x" unicode="x" horiz-adv-x="1882" 
d="M37 0l700 585l-673 585h348l524 -462l514 462h343l-676 -585l694 -585h-348l-547 462l-536 -462h-343z" />
    <glyph glyph-name="y" unicode="y" horiz-adv-x="1761" 
d="M659 0l-611 1170h306l508 -1022l498 1022h307l-601 -1170c-87 -164 -201 -283 -343 -357s-337 -110 -586 -110v190c184 0 325 20 422 61c95 41 173 113 231 216h-131z" />
    <glyph glyph-name="y.ss01" horiz-adv-x="1848" 
d="M932 -469c-484 0 -741 176 -741 415h289c0 -146 170 -238 452 -238c281 0 489 113 489 404v123c-20 -21 -42 -42 -66 -63c-140 -124 -324 -185 -552 -185c-202 0 -362 45 -480 137c-118 91 -177 237 -177 436v610h291v-588c0 -141 40 -243 121 -307s193 -96 337 -96
c149 0 274 42 376 128c87 72 136 162 150 270v593h291v-1049c0 -402 -296 -590 -780 -590z" />
    <glyph glyph-name="yacute" unicode="&#xfd;" horiz-adv-x="1761" 
d="M659 0l-611 1170h306l508 -1022l498 1022h307l-601 -1170c-87 -164 -201 -283 -343 -357s-337 -110 -586 -110v190c184 0 325 20 422 61c95 41 173 113 231 216h-131zM637 1222l233 195h210l-300 -195h-143z" />
    <glyph glyph-name="ycircumflex" unicode="&#x177;" horiz-adv-x="1761" 
d="M659 0l-611 1170h306l508 -1022l498 1022h307l-601 -1170c-87 -164 -201 -283 -343 -357s-337 -110 -586 -110v190c184 0 325 20 422 61c95 41 173 113 231 216h-131zM428 1223l334 214h190l336 -214h-197l-232 156l-234 -156h-197z" />
    <glyph glyph-name="ydieresis" unicode="&#xff;" horiz-adv-x="1761" 
d="M659 0l-611 1170h306l508 -1022l498 1022h307l-601 -1170c-87 -164 -201 -283 -343 -357s-337 -110 -586 -110v190c184 0 325 20 422 61c95 41 173 113 231 216h-131zM617 1246c-52 0 -94 42 -94 94s42 94 94 94s94 -42 94 -94s-42 -94 -94 -94zM1093 1246
c-52 0 -94 42 -94 94s42 94 94 94s94 -42 94 -94s-42 -94 -94 -94z" />
    </font>
</defs>
</svg>
