<?xml version="1.0" standalone="no"?>
<!DOCTYPE svg PUBLIC "-//W3C//DTD SVG 1.1//EN" "http://www.w3.org/Graphics/SVG/1.1/DTD/svg11.dtd" >
<svg xmlns="http://www.w3.org/2000/svg" xmlns:xlink="http://www.w3.org/1999/xlink" version="1.1">
<metadata>
Created by FontForge 20201107 at Wed Jul 29 18:55:27 2020
 By Jimmy Wärting
Copyright 2020 The Anybody Project Authors https:github.comEtcetera-Type-CoAnybody
</metadata>
<defs>
<font id="Anybody-UltraCondensedBold" horiz-adv-x="596" >
  <font-face 
    font-family="Anybody"
    font-weight="700"
    font-stretch="ultra-condensed"
    units-per-em="2000"
    panose-1="0 0 0 0 0 0 0 0 0 0"
    ascent="1600"
    descent="-400"
    x-height="1200"
    cap-height="1350"
    bbox="-190 -513 1353 1884"
    underline-thickness="105"
    underline-position="-262"
    stemh="193"
    stemv="267"
    unicode-range="U+000D-FB02"
  />
<missing-glyph horiz-adv-x="603" 
d="M100 146v1042h348v-1042h-348zM126 172h296v990h-296v-990zM202 564l-20 20l75 76l-75 76l20 20l75 -76l75 76l20 -20l-75 -76l75 -76l-20 -20l-75 76zM202 902l-20 20l75 76l-75 76l20 20l75 -76l75 76l20 -20l-75 -76l75 -76l-20 -20l-75 76zM202 226l-20 20l75 76
l-75 76l20 20l75 -76l75 76l20 -20l-75 -76l75 -76l-20 -20l-75 76z" />
    <glyph glyph-name="f_f" unicode="ff" horiz-adv-x="945" 
d="M94 0v1007h-83v193h83v77c0 88 25 158 77 212s127 81 226 81h62v-193h-17c-29 0 -50 -8 -64 -23c-14 -16 -21 -42 -21 -79v-75h102v-193h-102v-1007h-263zM566 0v1007h-82v193h82v77c0 88 26 158 78 212s127 81 225 81h63v-193h-18c-28 0 -49 -8 -63 -23
c-14 -16 -21 -42 -21 -79v-75h102v-193h-102v-1007h-264z" />
    <glyph glyph-name="f_f_i" unicode="ffi" horiz-adv-x="1255" 
d="M94 0v1007h-83v193h83v77c0 88 25 158 77 212s127 81 226 81h62v-193h-17c-29 0 -50 -8 -64 -23c-14 -16 -21 -42 -21 -79v-75h102v-193h-102v-1007h-263zM566 0v1007h-82v193h82v77c0 88 26 158 78 212s127 81 225 81h63v-193h-18c-28 0 -49 -8 -63 -23
c-14 -16 -21 -42 -21 -79v-75h102v-193h-102v-1007h-264zM964 0v1200h265v-1200h-265zM964 1538h265v-211h-265v211z" />
    <glyph glyph-name="f_f_l" unicode="ffl" horiz-adv-x="1250" 
d="M94 0v1007h-83v193h83v77c0 88 25 158 77 212s127 81 226 81h62v-193h-17c-29 0 -50 -8 -64 -23c-14 -16 -21 -42 -21 -79v-75h102v-193h-102v-1007h-263zM566 0v1007h-82v193h82v77c0 88 26 158 78 212s127 81 225 81h63v-193h-18c-28 0 -49 -8 -63 -23
c-14 -16 -21 -42 -21 -79v-75h102v-193h-102v-1007h-264zM965 0v1570h264v-1570h-264z" />
    <glyph glyph-name="fi" unicode="fi" horiz-adv-x="782" 
d="M94 0v1007h-83v193h83v77c0 88 25 158 77 212s127 81 226 81h62v-193h-17c-29 0 -50 -8 -64 -23c-14 -16 -21 -42 -21 -79v-75h102v-193h-102v-1007h-263zM492 0v1200h265v-1200h-265zM492 1538h265v-211h-265v211z" />
    <glyph glyph-name="fl" unicode="fl" horiz-adv-x="778" 
d="M94 0v1007h-83v193h83v77c0 88 25 158 77 212s127 81 226 81h62v-193h-17c-29 0 -50 -8 -64 -23c-14 -16 -21 -42 -21 -79v-75h102v-193h-102v-1007h-263zM493 0v1570h263v-1570h-263z" />
    <glyph glyph-name=".notdef" horiz-adv-x="603" 
d="M100 146v1042h348v-1042h-348zM126 172h296v990h-296v-990zM202 564l-20 20l75 76l-75 76l20 20l75 -76l75 76l20 -20l-75 -76l75 -76l-20 -20l-75 76zM202 902l-20 20l75 76l-75 76l20 20l75 -76l75 76l20 -20l-75 -76l75 -76l-20 -20l-75 76zM202 226l-20 20l75 76
l-75 76l20 20l75 -76l75 76l20 -20l-75 -76l75 -76l-20 -20l-75 76z" />
    <glyph glyph-name="A" unicode="A" horiz-adv-x="609" 
d="M12 0l79 1350h423l81 -1350h-268l-5 345h-37l-5 -345h-268zM287 541h34l-10 616h-14z" />
    <glyph glyph-name="Aacute" unicode="&#xc1;" horiz-adv-x="609" 
d="M12 0l79 1350h423l81 -1350h-268l-5 345h-37l-5 -345h-268zM176 1382l80 185h175l-132 -185h-123zM287 541h34l-10 616h-14z" />
    <glyph glyph-name="Abreve" unicode="&#x102;" horiz-adv-x="609" 
d="M12 0l79 1350h423l81 -1350h-268l-5 345h-37l-5 -345h-268zM304 1388c-102 0 -149 69 -149 164h124c0 -52 8 -69 25 -69s23 19 23 69h125c0 -95 -48 -164 -148 -164zM287 541h34l-10 616h-14z" />
    <glyph glyph-name="uni1EAE" unicode="&#x1eae;" horiz-adv-x="609" 
d="M12 0l79 1350h423l81 -1350h-268l-5 345h-37l-5 -345h-268zM304 1388c-102 0 -149 69 -149 164h124c0 -52 8 -69 25 -69s23 19 23 69h125c0 -95 -48 -164 -148 -164zM176 1584l80 185h175l-132 -185h-123zM287 541h34l-10 616h-14z" />
    <glyph glyph-name="uni1EB6" unicode="&#x1eb6;" horiz-adv-x="609" 
d="M12 0l79 1350h423l81 -1350h-268l-5 345h-37l-5 -345h-268zM304 1388c-102 0 -149 69 -149 164h124c0 -52 8 -69 25 -69s23 19 23 69h125c0 -95 -48 -164 -148 -164zM304 -296c-44 0 -80 36 -80 80s35 80 80 80c43 0 79 -36 79 -80s-35 -80 -79 -80zM287 541h34l-10 616
h-14z" />
    <glyph glyph-name="uni1EB0" unicode="&#x1eb0;" horiz-adv-x="609" 
d="M12 0l79 1350h423l81 -1350h-268l-5 345h-37l-5 -345h-268zM304 1388c-102 0 -149 69 -149 164h124c0 -52 8 -69 25 -69s23 19 23 69h125c0 -95 -48 -164 -148 -164zM309 1589l-134 185h178l79 -185h-123zM287 541h34l-10 616h-14z" />
    <glyph glyph-name="uni1EB2" unicode="&#x1eb2;" horiz-adv-x="609" 
d="M12 0l79 1350h423l81 -1350h-268l-5 345h-37l-5 -345h-268zM210 1858c162 0 253 -24 253 -110c0 -73 -78 -105 -123 -105v-47h-96v117c51 0 102 8 102 28c0 25 -35 28 -136 28v89zM304 1388c-102 0 -149 69 -149 164h124c0 -52 8 -69 25 -69s23 19 23 69h125
c0 -95 -48 -164 -148 -164zM287 541h34l-10 616h-14z" />
    <glyph glyph-name="uni1EB4" unicode="&#x1eb4;" horiz-adv-x="609" 
d="M12 0l79 1350h423l81 -1350h-268l-5 345h-37l-5 -345h-268zM384 1597c-56 0 -99 52 -130 52c-33 0 -39 -27 -39 -47h-120c0 67 24 145 128 145c56 0 100 -50 131 -50c28 0 39 28 39 47h119c0 -66 -25 -147 -128 -147zM304 1388c-102 0 -149 69 -149 164h124
c0 -52 8 -69 25 -69s23 19 23 69h125c0 -95 -48 -164 -148 -164zM287 541h34l-10 616h-14z" />
    <glyph glyph-name="uni01CD" unicode="&#x1cd;" horiz-adv-x="609" 
d="M12 0l79 1350h423l81 -1350h-268l-5 345h-37l-5 -345h-268zM219 1388l-93 183h119l58 -124l57 124h120l-91 -183h-170zM287 541h34l-10 616h-14z" />
    <glyph glyph-name="Acircumflex" unicode="&#xc2;" horiz-adv-x="609" 
d="M12 0l79 1350h423l81 -1350h-268l-5 345h-37l-5 -345h-268zM126 1396l93 183h170l91 -183h-120l-57 124l-58 -124h-119zM287 541h34l-10 616h-14z" />
    <glyph glyph-name="uni1EA4" unicode="&#x1ea4;" horiz-adv-x="609" 
d="M12 0l79 1350h423l81 -1350h-268l-5 345h-37l-5 -345h-268zM126 1396l93 183h170l91 -183h-120l-57 124l-58 -124h-119zM176 1611l80 185h175l-132 -185h-123zM287 541h34l-10 616h-14z" />
    <glyph glyph-name="uni1EAC" unicode="&#x1eac;" horiz-adv-x="609" 
d="M12 0l79 1350h423l81 -1350h-268l-5 345h-37l-5 -345h-268zM126 1396l93 183h170l91 -183h-120l-57 124l-58 -124h-119zM304 -296c-44 0 -80 36 -80 80s35 80 80 80c43 0 79 -36 79 -80s-35 -80 -79 -80zM287 541h34l-10 616h-14z" />
    <glyph glyph-name="uni1EA6" unicode="&#x1ea6;" horiz-adv-x="609" 
d="M12 0l79 1350h423l81 -1350h-268l-5 345h-37l-5 -345h-268zM126 1396l93 183h170l91 -183h-120l-57 124l-58 -124h-119zM309 1616l-134 185h178l79 -185h-123zM287 541h34l-10 616h-14z" />
    <glyph glyph-name="uni1EA8" unicode="&#x1ea8;" horiz-adv-x="609" 
d="M12 0l79 1350h423l81 -1350h-268l-5 345h-37l-5 -345h-268zM210 1884c162 0 253 -23 253 -109c0 -74 -78 -105 -123 -105v-48h-96v117c51 0 102 8 102 29c0 24 -35 28 -136 28v88zM126 1396l93 183h170l91 -183h-120l-57 124l-58 -124h-119zM287 541h34l-10 616h-14z" />
    <glyph glyph-name="uni1EAA" unicode="&#x1eaa;" horiz-adv-x="609" 
d="M12 0l79 1350h423l81 -1350h-268l-5 345h-37l-5 -345h-268zM384 1624c-56 0 -99 52 -130 52c-33 0 -39 -27 -39 -47h-120c0 67 24 144 128 144c56 0 100 -49 131 -49c28 0 39 27 39 47h119c0 -67 -25 -147 -128 -147zM126 1396l93 183h170l91 -183h-120l-57 124l-58 -124
h-119zM287 541h34l-10 616h-14z" />
    <glyph glyph-name="uni0200" unicode="&#x200;" horiz-adv-x="609" 
d="M12 0l79 1350h423l81 -1350h-268l-5 345h-37l-5 -345h-268zM191 1408l-134 185h178l79 -185h-123zM426 1408l-134 185h178l79 -185h-123zM287 541h34l-10 616h-14z" />
    <glyph glyph-name="Adieresis" unicode="&#xc4;" horiz-adv-x="609" 
d="M12 0l79 1350h423l81 -1350h-268l-5 345h-37l-5 -345h-268zM188 1399c-39 0 -71 32 -71 72c0 39 32 71 71 71s71 -32 71 -71c0 -40 -32 -72 -71 -72zM420 1399c-40 0 -72 32 -72 72c0 39 32 71 72 71c39 0 71 -32 71 -71c0 -40 -32 -72 -71 -72zM287 541h34l-10 616h-14z
" />
    <glyph glyph-name="uni1EA0" unicode="&#x1ea0;" horiz-adv-x="609" 
d="M12 0l79 1350h423l81 -1350h-268l-5 345h-37l-5 -345h-268zM304 -296c-44 0 -80 36 -80 80s35 80 80 80c43 0 79 -36 79 -80s-35 -80 -79 -80zM287 541h34l-10 616h-14z" />
    <glyph glyph-name="Agrave" unicode="&#xc0;" horiz-adv-x="609" 
d="M12 0l79 1350h423l81 -1350h-268l-5 345h-37l-5 -345h-268zM309 1387l-134 185h178l79 -185h-123zM287 541h34l-10 616h-14z" />
    <glyph glyph-name="uni1EA2" unicode="&#x1ea2;" horiz-adv-x="609" 
d="M12 0l79 1350h423l81 -1350h-268l-5 345h-37l-5 -345h-268zM210 1656c162 0 253 -24 253 -110c0 -73 -78 -105 -123 -105v-47h-96v117c51 0 102 8 102 28c0 25 -35 28 -136 28v89zM287 541h34l-10 616h-14z" />
    <glyph glyph-name="uni0202" unicode="&#x202;" horiz-adv-x="609" 
d="M12 0l79 1350h423l81 -1350h-268l-5 345h-37l-5 -345h-268zM303 1557c102 0 149 -70 149 -165h-124c0 53 -8 70 -25 70s-23 -19 -23 -70h-125c0 95 48 165 148 165zM287 541h34l-10 616h-14z" />
    <glyph glyph-name="Amacron" unicode="&#x100;" horiz-adv-x="609" 
d="M12 0l79 1350h423l81 -1350h-268l-5 345h-37l-5 -345h-268zM123 1407v98h361v-98h-361zM287 541h34l-10 616h-14z" />
    <glyph glyph-name="Aogonek" unicode="&#x104;" horiz-adv-x="609" 
d="M12 0l79 1350h423l81 -1350h7c-19 -36 -46 -106 -46 -148c0 -32 17 -48 52 -48s77 10 82 15l2 -142c-6 -4 -57 -15 -116 -15c-86 0 -176 23 -176 129c0 85 52 174 73 209h-146l-5 345h-37l-5 -345h-268zM287 541h34l-10 616h-14z" />
    <glyph glyph-name="Aring" unicode="&#xc5;" horiz-adv-x="609" 
d="M12 0l79 1350h423l81 -1350h-268l-5 345h-37l-5 -345h-268zM303 1385c-79 0 -137 61 -137 142c0 78 58 140 137 140c78 0 137 -62 137 -140c0 -81 -59 -142 -137 -142zM287 541h34l-10 616h-14zM303 1480c24 0 42 20 42 47c0 25 -18 44 -42 44c-23 0 -41 -19 -41 -44
c0 -27 18 -47 41 -47z" />
    <glyph glyph-name="Aringacute" unicode="&#x1fa;" horiz-adv-x="609" 
d="M12 0l79 1350h423l81 -1350h-268l-5 345h-37l-5 -345h-268zM303 1369c-79 0 -137 61 -137 142c0 78 58 140 137 140c78 0 137 -62 137 -140c0 -81 -59 -142 -137 -142zM176 1683l80 185h175l-132 -185h-123zM287 541h34l-10 616h-14zM303 1464c24 0 42 20 42 47
c0 25 -18 44 -42 44c-23 0 -41 -19 -41 -44c0 -27 18 -47 41 -47z" />
    <glyph glyph-name="Atilde" unicode="&#xc3;" horiz-adv-x="609" 
d="M12 0l79 1350h423l81 -1350h-268l-5 345h-37l-5 -345h-268zM384 1395c-56 0 -99 52 -130 52c-33 0 -39 -27 -39 -47h-120c0 67 24 145 128 145c56 0 100 -50 131 -50c28 0 39 28 39 47h119c0 -66 -25 -147 -128 -147zM287 541h34l-10 616h-14z" />
    <glyph glyph-name="AE" unicode="&#xc6;" horiz-adv-x="756" 
d="M12 0l132 1350h594v-196h-111v-373h111v-193h-111v-392h111v-196h-377v234h-54l-13 -234h-282zM318 422h43v726z" />
    <glyph glyph-name="AEacute" unicode="&#x1fc;" horiz-adv-x="756" 
d="M12 0l132 1350h594v-196h-111v-373h111v-193h-111v-392h111v-196h-377v234h-54l-13 -234h-282zM250 1382l81 185h174l-132 -185h-123zM318 422h43v726z" />
    <glyph glyph-name="B" unicode="B" horiz-adv-x="599" 
d="M16 0v1350h390c116 0 174 -41 174 -122v-374c0 -67 -39 -102 -116 -104c77 -5 116 -46 116 -122v-499c0 -86 -64 -129 -191 -129h-373zM283 196h11c14 0 21 18 21 53v339c0 41 -7 62 -22 62h-10v-454zM283 845h10c15 0 22 15 22 46v228c0 25 -8 38 -23 38h-9v-312z" />
    <glyph glyph-name="C" unicode="C" horiz-adv-x="601" 
d="M298 -8c-188 0 -281 57 -281 172v516c0 228 -1 399 -1 512c0 30 7 56 20 78c37 60 123 91 261 91c190 0 286 -57 286 -169v-413h-265v345c0 27 -6 41 -18 41c-3 0 -5 -1 -6 -2c-9 -4 -13 -17 -13 -39c0 -27 1 -175 1 -444v-451c0 -27 6 -41 18 -41s18 14 18 42v338h265
v-404c0 -115 -95 -172 -285 -172z" />
    <glyph glyph-name="Cacute" unicode="&#x106;" horiz-adv-x="601" 
d="M298 -8c-188 0 -281 57 -281 172v516c0 228 -1 399 -1 512c0 30 7 56 20 78c37 60 123 91 261 91c190 0 286 -57 286 -169v-413h-265v345c0 27 -6 41 -18 41c-3 0 -5 -1 -6 -2c-9 -4 -13 -17 -13 -39c0 -27 1 -175 1 -444v-451c0 -27 6 -41 18 -41s18 14 18 42v338h265
v-404c0 -115 -95 -172 -285 -172zM172 1382l81 185h174l-132 -185h-123z" />
    <glyph glyph-name="Ccaron" unicode="&#x10c;" horiz-adv-x="601" 
d="M298 -8c-188 0 -281 57 -281 172v516c0 228 -1 399 -1 512c0 30 7 56 20 78c37 60 123 91 261 91c190 0 286 -57 286 -169v-413h-265v345c0 27 -6 41 -18 41c-3 0 -5 -1 -6 -2c-9 -4 -13 -17 -13 -39c0 -27 1 -175 1 -444v-451c0 -27 6 -41 18 -41s18 14 18 42v338h265
v-404c0 -115 -95 -172 -285 -172zM216 1388l-93 183h119l57 -124l58 124h120l-92 -183h-169z" />
    <glyph glyph-name="Ccedilla" unicode="&#xc7;" horiz-adv-x="601" 
d="M287 -305c-32 0 -77 4 -107 12l29 111c16 -5 47 -10 76 -10c55 0 75 16 75 42c0 16 -10 24 -20 24s-18 -4 -25 -12l-96 11l30 120c-155 10 -232 67 -232 171v516c0 228 -1 399 -1 512c0 30 7 56 20 78c37 60 123 91 261 91c190 0 286 -57 286 -169v-413h-265v345
c0 27 -6 41 -18 41c-3 0 -5 -1 -6 -2c-9 -4 -13 -17 -13 -39c0 -27 1 -175 1 -444v-451c0 -27 6 -41 18 -41s18 14 18 42v338h265v-404c0 -103 -77 -160 -231 -170l-17 -60c16 12 39 20 72 20c60 0 91 -34 91 -99c0 -100 -95 -160 -211 -160z" />
    <glyph glyph-name="uni1E08" unicode="&#x1e08;" horiz-adv-x="601" 
d="M287 -305c-32 0 -77 4 -107 12l29 111c16 -5 47 -10 76 -10c55 0 75 16 75 42c0 16 -10 24 -20 24s-18 -4 -25 -12l-96 11l30 120c-155 10 -232 67 -232 171v516c0 228 -1 399 -1 512c0 30 7 56 20 78c37 60 123 91 261 91c190 0 286 -57 286 -169v-413h-265v345
c0 27 -6 41 -18 41c-3 0 -5 -1 -6 -2c-9 -4 -13 -17 -13 -39c0 -27 1 -175 1 -444v-451c0 -27 6 -41 18 -41s18 14 18 42v338h265v-404c0 -103 -77 -160 -231 -170l-17 -60c16 12 39 20 72 20c60 0 91 -34 91 -99c0 -100 -95 -160 -211 -160zM172 1382l81 185h174l-132 -185
h-123z" />
    <glyph glyph-name="Ccircumflex" unicode="&#x108;" horiz-adv-x="601" 
d="M298 -8c-188 0 -281 57 -281 172v516c0 228 -1 399 -1 512c0 30 7 56 20 78c37 60 123 91 261 91c190 0 286 -57 286 -169v-413h-265v345c0 27 -6 41 -18 41c-3 0 -5 -1 -6 -2c-9 -4 -13 -17 -13 -39c0 -27 1 -175 1 -444v-451c0 -27 6 -41 18 -41s18 14 18 42v338h265
v-404c0 -115 -95 -172 -285 -172zM123 1396l93 183h169l92 -183h-120l-58 124l-57 -124h-119z" />
    <glyph glyph-name="Cdotaccent" unicode="&#x10a;" horiz-adv-x="601" 
d="M298 -8c-188 0 -281 57 -281 172v516c0 228 -1 399 -1 512c0 30 7 56 20 78c37 60 123 91 261 91c190 0 286 -57 286 -169v-413h-265v345c0 27 -6 41 -18 41c-3 0 -5 -1 -6 -2c-9 -4 -13 -17 -13 -39c0 -27 1 -175 1 -444v-451c0 -27 6 -41 18 -41s18 14 18 42v338h265
v-404c0 -115 -95 -172 -285 -172zM300 1389c-44 0 -80 35 -80 80c0 44 35 79 80 79c43 0 79 -35 79 -79s-35 -80 -79 -80z" />
    <glyph glyph-name="D" unicode="D" 
d="M16 0v1350h366c131 0 197 -47 197 -141v-1068c0 -94 -66 -141 -197 -141h-366zM281 196h11c15 0 22 16 22 48v862c0 32 -7 48 -22 48h-11v-958z" />
    <glyph glyph-name="uni01C4" unicode="&#x1c4;" horiz-adv-x="1014" 
d="M16 0v1350h366c131 0 197 -47 197 -141v-1068c0 -94 -66 -141 -197 -141h-366zM612 0v196l138 961h-128v193h370v-192l-136 -965h139v-193h-383zM721 1388l-93 183h119l57 -124l58 124h120l-92 -183h-169zM281 196h11c15 0 22 16 22 48v862c0 32 -7 48 -22 48h-11v-958z
" />
    <glyph glyph-name="Eth" unicode="&#xd0;" horiz-adv-x="644" 
d="M16 590v173h48v587h366c131 0 197 -47 197 -141v-1068c0 -94 -66 -141 -197 -141h-366v590h-48zM329 196h11c15 0 22 16 22 48v862c0 32 -7 48 -22 48h-11v-391h19v-173h-19v-394z" />
    <glyph glyph-name="Dcaron" unicode="&#x10e;" 
d="M16 0v1350h366c131 0 197 -47 197 -141v-1068c0 -94 -66 -141 -197 -141h-366zM212 1388l-93 183h119l58 -124l57 124h120l-91 -183h-170zM281 196h11c15 0 22 16 22 48v862c0 32 -7 48 -22 48h-11v-958z" />
    <glyph glyph-name="Dcroat" unicode="&#x110;" horiz-adv-x="644" 
d="M64 0v590h-48v173h48v587h366c131 0 197 -47 197 -141v-1068c0 -94 -66 -141 -197 -141h-366zM329 196h11c15 0 22 16 22 48v862c0 32 -7 48 -22 48h-11v-391h19v-173h-19v-394z" />
    <glyph glyph-name="uni1E0C" unicode="&#x1e0c;" 
d="M16 0v1350h366c131 0 197 -47 197 -141v-1068c0 -94 -66 -141 -197 -141h-366zM281 196h11c15 0 22 16 22 48v862c0 32 -7 48 -22 48h-11v-958zM297 -232c-44 0 -80 35 -80 80c0 44 35 79 80 79c43 0 79 -35 79 -79s-35 -80 -79 -80z" />
    <glyph glyph-name="uni1E0E" unicode="&#x1e0e;" 
d="M16 0v1350h366c131 0 197 -47 197 -141v-1068c0 -94 -66 -141 -197 -141h-366zM116 -207v98h361v-98h-361zM281 196h11c15 0 22 16 22 48v862c0 32 -7 48 -22 48h-11v-958z" />
    <glyph glyph-name="uni01C5" unicode="&#x1c5;" horiz-adv-x="1015" 
d="M16 0v1350h366c131 0 197 -47 197 -141v-1068c0 -94 -66 -141 -197 -141h-366zM610 0v183l129 824h-121v193h379v-183l-128 -824h132v-193h-391zM725 1238l-93 183h119l58 -124l57 124h120l-91 -183h-170zM281 196h11c15 0 22 16 22 48v862c0 32 -7 48 -22 48h-11v-958z
" />
    <glyph glyph-name="E" unicode="E" horiz-adv-x="412" 
d="M17 0v1350h378v-196h-111v-373h111v-193h-111v-392h111v-196h-378z" />
    <glyph glyph-name="Eacute" unicode="&#xc9;" horiz-adv-x="412" 
d="M17 0v1350h378v-196h-111v-373h111v-193h-111v-392h111v-196h-378zM79 1382l81 185h174l-132 -185h-123z" />
    <glyph glyph-name="Ebreve" unicode="&#x114;" horiz-adv-x="412" 
d="M17 0v1350h378v-196h-111v-373h111v-193h-111v-392h111v-196h-378zM207 1388c-102 0 -149 69 -149 164h124c0 -52 8 -69 25 -69s23 19 23 69h125c0 -95 -48 -164 -148 -164z" />
    <glyph glyph-name="Ecaron" unicode="&#x11a;" horiz-adv-x="412" 
d="M17 0v1350h378v-196h-111v-373h111v-193h-111v-392h111v-196h-378zM123 1388l-93 183h119l57 -124l58 124h120l-92 -183h-169z" />
    <glyph glyph-name="uni1E1C" unicode="&#x1e1c;" horiz-adv-x="412" 
d="M17 0v1350h378v-196h-111v-373h111v-193h-111v-392h111v-196h-135l-18 -66c16 12 39 20 72 20c60 0 91 -34 91 -99c0 -100 -95 -160 -211 -160c-32 0 -77 4 -107 12l29 111c16 -5 47 -10 76 -10c55 0 75 16 75 42c0 16 -10 24 -20 24s-18 -4 -25 -12l-96 11l31 127h-140z
M207 1388c-102 0 -149 69 -149 164h124c0 -52 8 -69 25 -69s23 19 23 69h125c0 -95 -48 -164 -148 -164z" />
    <glyph glyph-name="Ecircumflex" unicode="&#xca;" horiz-adv-x="412" 
d="M17 0v1350h378v-196h-111v-373h111v-193h-111v-392h111v-196h-378zM30 1396l93 183h169l92 -183h-120l-58 124l-57 -124h-119z" />
    <glyph glyph-name="uni1EBE" unicode="&#x1ebe;" horiz-adv-x="412" 
d="M17 0v1350h378v-196h-111v-373h111v-193h-111v-392h111v-196h-378zM30 1396l93 183h169l92 -183h-120l-58 124l-57 -124h-119zM79 1611l81 185h174l-132 -185h-123z" />
    <glyph glyph-name="uni1EC6" unicode="&#x1ec6;" horiz-adv-x="412" 
d="M17 0v1350h378v-196h-111v-373h111v-193h-111v-392h111v-196h-378zM30 1396l93 183h169l92 -183h-120l-58 124l-57 -124h-119zM207 -296c-44 0 -80 36 -80 80s35 80 80 80c43 0 79 -36 79 -80s-35 -80 -79 -80z" />
    <glyph glyph-name="uni1EC0" unicode="&#x1ec0;" horiz-adv-x="412" 
d="M17 0v1350h378v-196h-111v-373h111v-193h-111v-392h111v-196h-378zM30 1396l93 183h169l92 -183h-120l-58 124l-57 -124h-119zM212 1616l-134 185h178l79 -185h-123z" />
    <glyph glyph-name="uni1EC2" unicode="&#x1ec2;" horiz-adv-x="412" 
d="M17 0v1350h378v-196h-111v-373h111v-193h-111v-392h111v-196h-378zM113 1884c162 0 253 -23 253 -109c0 -74 -78 -105 -123 -105v-48h-96v117c52 0 102 8 102 29c0 24 -34 28 -136 28v88zM30 1396l93 183h169l92 -183h-120l-58 124l-57 -124h-119z" />
    <glyph glyph-name="uni1EC4" unicode="&#x1ec4;" horiz-adv-x="412" 
d="M17 0v1350h378v-196h-111v-373h111v-193h-111v-392h111v-196h-378zM287 1624c-56 0 -99 52 -129 52c-34 0 -40 -27 -40 -47h-120c0 67 25 144 128 144c56 0 100 -49 131 -49c29 0 40 27 40 47h118c0 -67 -24 -147 -128 -147zM30 1396l93 183h169l92 -183h-120l-58 124
l-57 -124h-119z" />
    <glyph glyph-name="uni0204" unicode="&#x204;" horiz-adv-x="412" 
d="M17 0v1350h378v-196h-111v-373h111v-193h-111v-392h111v-196h-378zM94 1408l-134 185h178l79 -185h-123zM329 1408l-134 185h178l79 -185h-123z" />
    <glyph glyph-name="Edieresis" unicode="&#xcb;" horiz-adv-x="412" 
d="M17 0v1350h378v-196h-111v-373h111v-193h-111v-392h111v-196h-378zM92 1399c-40 0 -72 32 -72 72c0 39 32 71 72 71c39 0 71 -32 71 -71c0 -40 -32 -72 -71 -72zM323 1399c-39 0 -71 32 -71 72c0 39 32 71 71 71s71 -32 71 -71c0 -40 -32 -72 -71 -72z" />
    <glyph glyph-name="Edotaccent" unicode="&#x116;" horiz-adv-x="412" 
d="M17 0v1350h378v-196h-111v-373h111v-193h-111v-392h111v-196h-378zM207 1389c-44 0 -80 35 -80 80c0 44 35 79 80 79c43 0 79 -35 79 -79s-35 -80 -79 -80z" />
    <glyph glyph-name="uni1EB8" unicode="&#x1eb8;" horiz-adv-x="412" 
d="M17 0v1350h378v-196h-111v-373h111v-193h-111v-392h111v-196h-378zM207 -296c-44 0 -80 36 -80 80s35 80 80 80c43 0 79 -36 79 -80s-35 -80 -79 -80z" />
    <glyph glyph-name="Egrave" unicode="&#xc8;" horiz-adv-x="412" 
d="M17 0v1350h378v-196h-111v-373h111v-193h-111v-392h111v-196h-378zM212 1387l-134 185h178l79 -185h-123z" />
    <glyph glyph-name="uni1EBA" unicode="&#x1eba;" horiz-adv-x="412" 
d="M17 0v1350h378v-196h-111v-373h111v-193h-111v-392h111v-196h-378zM113 1656c162 0 253 -24 253 -110c0 -73 -78 -105 -123 -105v-47h-96v117c52 0 102 8 102 28c0 25 -34 28 -136 28v89z" />
    <glyph glyph-name="uni0206" unicode="&#x206;" horiz-adv-x="412" 
d="M17 0v1350h378v-196h-111v-373h111v-193h-111v-392h111v-196h-378zM206 1557c102 0 149 -70 149 -165h-124c0 53 -8 70 -25 70s-23 -19 -23 -70h-125c0 95 48 165 148 165z" />
    <glyph glyph-name="Emacron" unicode="&#x112;" horiz-adv-x="412" 
d="M17 0v1350h378v-196h-111v-373h111v-193h-111v-392h111v-196h-378zM26 1407v98h361v-98h-361z" />
    <glyph glyph-name="uni1E16" unicode="&#x1e16;" horiz-adv-x="412" 
d="M17 0v1350h378v-196h-111v-373h111v-193h-111v-392h111v-196h-378zM26 1407v98h361v-98h-361zM79 1537l81 185h174l-132 -185h-123z" />
    <glyph glyph-name="uni1E14" unicode="&#x1e14;" horiz-adv-x="412" 
d="M17 0v1350h378v-196h-111v-373h111v-193h-111v-392h111v-196h-378zM26 1407v98h361v-98h-361zM212 1556l-134 185h178l79 -185h-123z" />
    <glyph glyph-name="Eogonek" unicode="&#x118;" horiz-adv-x="412" 
d="M17 0v1350h378v-196h-111v-373h111v-193h-111v-392h111v-196h-100c-19 -36 -46 -106 -46 -148c0 -32 17 -48 52 -48s77 10 82 15l2 -142c-6 -4 -57 -15 -116 -15c-86 0 -176 23 -176 129c0 85 52 174 73 209h-149z" />
    <glyph glyph-name="uni1EBC" unicode="&#x1ebc;" horiz-adv-x="412" 
d="M17 0v1350h378v-196h-111v-373h111v-193h-111v-392h111v-196h-378zM287 1395c-56 0 -99 52 -129 52c-34 0 -40 -27 -40 -47h-120c0 67 25 145 128 145c56 0 100 -50 131 -50c29 0 40 28 40 47h118c0 -66 -24 -147 -128 -147z" />
    <glyph glyph-name="F" unicode="F" horiz-adv-x="412" 
d="M16 0v1350h377v-196h-110v-437h111v-193h-111v-524h-267z" />
    <glyph glyph-name="G" unicode="G" horiz-adv-x="604" 
d="M256 -8c-160 0 -240 58 -240 173v1031c0 110 95 165 285 165c189 0 284 -56 284 -168v-349h-266v276c0 30 -6 45 -18 45s-18 -14 -18 -41v-872c0 -43 7 -64 21 -64c9 0 16 9 20 27c3 18 5 82 5 191v85h-25v181h281v-672h-134l-15 55c-27 -42 -87 -63 -180 -63z" />
    <glyph glyph-name="Gbreve" unicode="&#x11e;" horiz-adv-x="604" 
d="M256 -8c-160 0 -240 58 -240 173v1031c0 110 95 165 285 165c189 0 284 -56 284 -168v-349h-266v276c0 30 -6 45 -18 45s-18 -14 -18 -41v-872c0 -43 7 -64 21 -64c9 0 16 9 20 27c3 18 5 82 5 191v85h-25v181h281v-672h-134l-15 55c-27 -42 -87 -63 -180 -63zM301 1388
c-102 0 -149 69 -149 164h124c0 -52 8 -69 25 -69s23 19 23 69h125c0 -95 -48 -164 -148 -164z" />
    <glyph glyph-name="Gcaron" unicode="&#x1e6;" horiz-adv-x="604" 
d="M256 -8c-160 0 -240 58 -240 173v1031c0 110 95 165 285 165c189 0 284 -56 284 -168v-349h-266v276c0 30 -6 45 -18 45s-18 -14 -18 -41v-872c0 -43 7 -64 21 -64c9 0 16 9 20 27c3 18 5 82 5 191v85h-25v181h281v-672h-134l-15 55c-27 -42 -87 -63 -180 -63zM217 1388
l-93 183h119l57 -124l58 124h120l-92 -183h-169z" />
    <glyph glyph-name="Gcircumflex" unicode="&#x11c;" horiz-adv-x="604" 
d="M256 -8c-160 0 -240 58 -240 173v1031c0 110 95 165 285 165c189 0 284 -56 284 -168v-349h-266v276c0 30 -6 45 -18 45s-18 -14 -18 -41v-872c0 -43 7 -64 21 -64c9 0 16 9 20 27c3 18 5 82 5 191v85h-25v181h281v-672h-134l-15 55c-27 -42 -87 -63 -180 -63zM124 1396
l93 183h169l92 -183h-120l-58 124l-57 -124h-119z" />
    <glyph glyph-name="uni0122" unicode="&#x122;" horiz-adv-x="604" 
d="M256 -8c-160 0 -240 58 -240 173v1031c0 110 95 165 285 165c189 0 284 -56 284 -168v-349h-266v276c0 30 -6 45 -18 45s-18 -14 -18 -41v-872c0 -43 7 -64 21 -64c9 0 16 9 20 27c3 18 5 82 5 191v85h-25v181h281v-672h-134l-15 55c-27 -42 -87 -63 -180 -63zM183 -295
l65 232h163l-135 -232h-93z" />
    <glyph glyph-name="Gdotaccent" unicode="&#x120;" horiz-adv-x="604" 
d="M256 -8c-160 0 -240 58 -240 173v1031c0 110 95 165 285 165c189 0 284 -56 284 -168v-349h-266v276c0 30 -6 45 -18 45s-18 -14 -18 -41v-872c0 -43 7 -64 21 -64c9 0 16 9 20 27c3 18 5 82 5 191v85h-25v181h281v-672h-134l-15 55c-27 -42 -87 -63 -180 -63zM301 1389
c-44 0 -80 35 -80 80c0 44 35 79 80 79c43 0 79 -35 79 -79s-35 -80 -79 -80z" />
    <glyph glyph-name="uni1E20" unicode="&#x1e20;" horiz-adv-x="604" 
d="M256 -8c-160 0 -240 58 -240 173v1031c0 110 95 165 285 165c189 0 284 -56 284 -168v-349h-266v276c0 30 -6 45 -18 45s-18 -14 -18 -41v-872c0 -43 7 -64 21 -64c9 0 16 9 20 27c3 18 5 82 5 191v85h-25v181h281v-672h-134l-15 55c-27 -42 -87 -63 -180 -63zM120 1407
v98h361v-98h-361z" />
    <glyph glyph-name="H" unicode="H" horiz-adv-x="600" 
d="M16 0v1350h267v-565h32v565h266v-1350h-266v589h-32v-589h-267z" />
    <glyph glyph-name="Hbar" unicode="&#x126;" horiz-adv-x="662" 
d="M-4 1047v98h44v205h267v-205h32v205h266v-205h44v-98h-44v-1047h-266v589h-32v-589h-267v1047h-44zM339 1047h-32v-262h32v262z" />
    <glyph glyph-name="uni1E2A" unicode="&#x1e2a;" horiz-adv-x="600" 
d="M16 0v1350h267v-565h32v565h266v-1350h-266v589h-32v-589h-267zM300 -277c-101 0 -148 69 -148 164h124c0 -52 8 -69 24 -69c18 0 24 19 24 69h124c0 -95 -48 -164 -148 -164z" />
    <glyph glyph-name="Hcircumflex" unicode="&#x124;" horiz-adv-x="600" 
d="M16 0v1350h267v-565h32v565h266v-1350h-266v589h-32v-589h-267zM123 1396l93 183h169l92 -183h-120l-58 124l-57 -124h-119z" />
    <glyph glyph-name="uni1E24" unicode="&#x1e24;" horiz-adv-x="600" 
d="M16 0v1350h267v-565h32v565h266v-1350h-266v589h-32v-589h-267zM300 -232c-44 0 -80 35 -80 80c0 44 36 79 80 79s80 -35 80 -79s-36 -80 -80 -80z" />
    <glyph glyph-name="I" unicode="I" horiz-adv-x="306" 
d="M18 0v1350h268v-1350h-268z" />
    <glyph glyph-name="Iacute" unicode="&#xcd;" horiz-adv-x="306" 
d="M18 0v1350h268v-1350h-268zM24 1382l81 185h174l-132 -185h-123z" />
    <glyph glyph-name="Ibreve" unicode="&#x12c;" horiz-adv-x="306" 
d="M18 0v1350h268v-1350h-268zM152 1388c-102 0 -149 69 -149 164h124c0 -52 8 -69 25 -69s23 19 23 69h125c0 -95 -48 -164 -148 -164z" />
    <glyph glyph-name="uni01CF" unicode="&#x1cf;" horiz-adv-x="306" 
d="M18 0v1350h268v-1350h-268zM68 1388l-93 183h119l57 -124l58 124h120l-92 -183h-169z" />
    <glyph glyph-name="Icircumflex" unicode="&#xce;" horiz-adv-x="306" 
d="M18 0v1350h268v-1350h-268zM-25 1396l93 183h169l92 -183h-120l-58 124l-57 -124h-119z" />
    <glyph glyph-name="uni0208" unicode="&#x208;" horiz-adv-x="306" 
d="M18 0v1350h268v-1350h-268zM39 1408l-134 185h178l79 -185h-123zM274 1408l-134 185h178l79 -185h-123z" />
    <glyph glyph-name="Idieresis" unicode="&#xcf;" horiz-adv-x="306" 
d="M18 0v1350h268v-1350h-268zM37 1399c-40 0 -72 32 -72 72c0 39 32 71 72 71c39 0 71 -32 71 -71c0 -40 -32 -72 -71 -72zM268 1399c-39 0 -71 32 -71 72c0 39 32 71 71 71s71 -32 71 -71c0 -40 -32 -72 -71 -72z" />
    <glyph glyph-name="uni1E2E" unicode="&#x1e2e;" horiz-adv-x="306" 
d="M18 0v1350h268v-1350h-268zM24 1575l81 185h174l-132 -185h-123zM37 1399c-40 0 -72 32 -72 72c0 39 32 71 72 71c39 0 71 -32 71 -71c0 -40 -32 -72 -71 -72zM268 1399c-39 0 -71 32 -71 72c0 39 32 71 71 71s71 -32 71 -71c0 -40 -32 -72 -71 -72z" />
    <glyph glyph-name="Idotaccent" unicode="&#x130;" horiz-adv-x="306" 
d="M18 0v1350h268v-1350h-268zM152 1389c-44 0 -80 35 -80 80c0 44 35 79 80 79c43 0 79 -35 79 -79s-35 -80 -79 -80z" />
    <glyph glyph-name="uni1ECA" unicode="&#x1eca;" horiz-adv-x="306" 
d="M18 0v1350h268v-1350h-268zM152 -296c-44 0 -80 36 -80 80s36 80 80 80s80 -36 80 -80s-36 -80 -80 -80z" />
    <glyph glyph-name="Igrave" unicode="&#xcc;" horiz-adv-x="306" 
d="M18 0v1350h268v-1350h-268zM157 1387l-134 185h178l79 -185h-123z" />
    <glyph glyph-name="uni1EC8" unicode="&#x1ec8;" horiz-adv-x="306" 
d="M18 0v1350h268v-1350h-268zM58 1656c162 0 253 -24 253 -110c0 -73 -78 -105 -123 -105v-47h-96v117c52 0 102 8 102 28c0 25 -34 28 -136 28v89z" />
    <glyph glyph-name="uni020A" unicode="&#x20a;" horiz-adv-x="306" 
d="M18 0v1350h268v-1350h-268zM151 1557c102 0 149 -70 149 -165h-124c0 53 -8 70 -25 70s-23 -19 -23 -70h-125c0 95 48 165 148 165z" />
    <glyph glyph-name="Imacron" unicode="&#x12a;" horiz-adv-x="306" 
d="M18 0v1350h268v-1350h-268zM-29 1407v98h361v-98h-361z" />
    <glyph glyph-name="Iogonek" unicode="&#x12e;" horiz-adv-x="306" 
d="M18 0v1350h268v-1350c-20 -36 -46 -106 -46 -148c0 -32 16 -48 51 -48c36 0 77 10 82 15l2 -142c-6 -4 -57 -15 -115 -15c-87 0 -177 23 -177 129c0 85 53 174 73 209h-138z" />
    <glyph glyph-name="Itilde" unicode="&#x128;" horiz-adv-x="306" 
d="M18 0v1350h268v-1350h-268zM232 1395c-56 0 -99 52 -129 52c-34 0 -40 -27 -40 -47h-120c0 67 25 145 128 145c56 0 100 -50 131 -50c29 0 40 28 40 47h118c0 -66 -24 -147 -128 -147z" />
    <glyph glyph-name="J" unicode="J" horiz-adv-x="599" 
d="M300 -8c-94 0 -164 17 -212 52s-72 94 -72 177v362h264v-299c0 -35 0 -60 2 -77c1 -17 7 -25 16 -25s15 8 16 25c2 17 3 42 3 77v1066h263v-1129c0 -85 -23 -145 -68 -178c-45 -34 -116 -51 -212 -51z" />
    <glyph glyph-name="J.ss01" horiz-adv-x="599" 
d="M32 1350h548v-1129c0 -85 -23 -145 -68 -178c-45 -34 -116 -51 -212 -51c-94 0 -164 17 -212 52s-72 94 -72 177v362h264v-299c0 -35 0 -60 2 -77c1 -17 7 -25 16 -25s15 8 16 25c2 17 3 42 3 77v870h-285v196z" />
    <glyph glyph-name="Jcircumflex" unicode="&#x134;" horiz-adv-x="599" 
d="M300 -8c-94 0 -164 17 -212 52s-72 94 -72 177v362h264v-299c0 -35 0 -60 2 -77c1 -17 7 -25 16 -25s15 8 16 25c2 17 3 42 3 77v1066h263v-1129c0 -85 -23 -145 -68 -178c-45 -34 -116 -51 -212 -51zM277 1396l93 183h170l91 -183h-120l-57 124l-58 -124h-119z" />
    <glyph glyph-name="K" unicode="K" horiz-adv-x="620" 
d="M16 0v1350h264v-586l61 586h267l-93 -676l93 -674h-267l-61 585v-585h-264z" />
    <glyph glyph-name="uni0136" unicode="&#x136;" horiz-adv-x="620" 
d="M16 0v1350h264v-586l61 586h267l-93 -676l93 -674h-267l-61 585v-585h-264zM195 -295l65 232h163l-135 -232h-93z" />
    <glyph glyph-name="L" unicode="L" horiz-adv-x="415" 
d="M16 0v1350h267v-1157h119v-193h-386z" />
    <glyph glyph-name="uni01C7" unicode="&#x1c7;" horiz-adv-x="1013" 
d="M714 -8c-93 0 -164 17 -212 52s-71 94 -71 177v362h263v-299c0 -35 1 -60 2 -77c2 -17 7 -25 17 -25c9 0 14 8 16 25c1 17 2 42 2 77v1066h264v-1129c0 -85 -23 -145 -68 -178c-46 -34 -117 -51 -213 -51zM16 0v1350h267v-1157h119v-193h-386z" />
    <glyph glyph-name="Lacute" unicode="&#x139;" horiz-adv-x="415" 
d="M16 0v1350h267v-1157h119v-193h-386zM79 1382l81 185h174l-132 -185h-123z" />
    <glyph glyph-name="Lcaron" unicode="&#x13d;" horiz-adv-x="604" 
d="M16 0v1350h267v-1157h119v-193h-386zM348 1043l63 305h174l-67 -305h-170z" />
    <glyph glyph-name="uni013B" unicode="&#x13b;" horiz-adv-x="415" 
d="M16 0v1350h267v-1157h119v-193h-386zM89 -295l65 232h163l-135 -232h-93z" />
    <glyph glyph-name="Ldot" unicode="&#x13f;" horiz-adv-x="590" 
d="M16 0v1350h267v-1157h119v-193h-386zM310 759h265v-211h-265v211z" />
    <glyph glyph-name="uni1E36" unicode="&#x1e36;" horiz-adv-x="415" 
d="M16 0v1350h267v-1157h119v-193h-386zM207 -232c-44 0 -80 35 -80 80c0 44 35 79 80 79c43 0 79 -35 79 -79s-35 -80 -79 -80z" />
    <glyph glyph-name="uni01C8" unicode="&#x1c8;" horiz-adv-x="738" 
d="M370 -459v199c25 0 44 11 58 35c13 24 20 75 20 154v1271h263v-1249c0 -171 -29 -282 -87 -333c-59 -52 -143 -77 -254 -77zM16 0v1350h267v-1157h119v-193h-386zM448 1538h265v-211h-265v211z" />
    <glyph glyph-name="uni1E3A" unicode="&#x1e3a;" horiz-adv-x="415" 
d="M16 0v1350h267v-1157h119v-193h-386zM26 -207v98h361v-98h-361z" />
    <glyph glyph-name="Lslash" unicode="&#x141;" horiz-adv-x="484" 
d="M43 438l-76 123l120 100v689h267v-468l59 50l76 -122l-135 -113v-504h119v-193h-386v475z" />
    <glyph glyph-name="M" unicode="M" horiz-adv-x="977" 
d="M16 0v1350h425l44 -1113h4l44 1113h425v-1350h-262v1156h-5l-59 -1125h-290l-59 1125h-5v-1156h-262z" />
    <glyph glyph-name="uni1E42" unicode="&#x1e42;" horiz-adv-x="977" 
d="M16 0v1350h425l44 -1113h4l44 1113h425v-1350h-262v1156h-5l-59 -1125h-290l-59 1125h-5v-1156h-262zM488 -232c-44 0 -80 35 -80 80c0 44 36 79 80 79s80 -35 80 -79s-36 -80 -80 -80z" />
    <glyph glyph-name="N" unicode="N" horiz-adv-x="773" 
d="M16 0v1350h413l50 -1146h6l6 1146h263v-1350h-420l-50 1154h-6v-1154h-262z" />
    <glyph glyph-name="uni01CA" unicode="&#x1ca;" horiz-adv-x="1372" 
d="M16 0v1350h413l50 -1146h6l6 1146h263v-1350h-420l-50 1154h-6v-1154h-262zM1073 -8c-94 0 -164 17 -212 52s-72 94 -72 177v362h264v-299c0 -35 0 -60 2 -77c1 -17 7 -25 16 -25s15 8 16 25c2 17 3 42 3 77v1066h263v-1129c0 -85 -23 -145 -68 -178
c-45 -34 -116 -51 -212 -51z" />
    <glyph glyph-name="Nacute" unicode="&#x143;" horiz-adv-x="773" 
d="M16 0v1350h413l50 -1146h6l6 1146h263v-1350h-420l-50 1154h-6v-1154h-262zM259 1382l80 185h175l-132 -185h-123z" />
    <glyph glyph-name="Ncaron" unicode="&#x147;" horiz-adv-x="773" 
d="M16 0v1350h413l50 -1146h6l6 1146h263v-1350h-420l-50 1154h-6v-1154h-262zM302 1388l-93 183h119l58 -124l57 124h120l-91 -183h-170z" />
    <glyph glyph-name="uni0145" unicode="&#x145;" horiz-adv-x="773" 
d="M16 0v1350h413l50 -1146h6l6 1146h263v-1350h-420l-50 1154h-6v-1154h-262zM269 -295l64 232h163l-134 -232h-93z" />
    <glyph glyph-name="uni1E44" unicode="&#x1e44;" horiz-adv-x="773" 
d="M16 0v1350h413l50 -1146h6l6 1146h263v-1350h-420l-50 1154h-6v-1154h-262zM387 1389c-44 0 -80 35 -80 80c0 44 35 79 80 79c43 0 79 -35 79 -79s-35 -80 -79 -80z" />
    <glyph glyph-name="uni1E46" unicode="&#x1e46;" horiz-adv-x="773" 
d="M16 0v1350h413l50 -1146h6l6 1146h263v-1350h-420l-50 1154h-6v-1154h-262zM387 -232c-44 0 -80 35 -80 80c0 44 35 79 80 79c43 0 79 -35 79 -79s-35 -80 -79 -80z" />
    <glyph glyph-name="Eng" unicode="&#x14a;" horiz-adv-x="775" 
d="M312 -430v187c124 0 175 76 173 243h-151l-50 1154h-6v-1154h-262v1350h413l50 -1146h6l6 1146h263v-1350h2c0 -339 -235 -430 -444 -430z" />
    <glyph glyph-name="uni01CB" unicode="&#x1cb;" horiz-adv-x="1097" 
d="M16 0v1350h413l50 -1146h6l6 1146h263v-1350h-420l-50 1154h-6v-1154h-262zM729 -459v199c25 0 44 11 57 35c14 24 20 75 20 154v1271h264v-1249c0 -171 -29 -282 -88 -333c-58 -52 -143 -77 -253 -77zM806 1538h265v-211h-265v211z" />
    <glyph glyph-name="uni1E48" unicode="&#x1e48;" horiz-adv-x="773" 
d="M16 0v1350h413l50 -1146h6l6 1146h263v-1350h-420l-50 1154h-6v-1154h-262zM206 -207v98h361v-98h-361z" />
    <glyph glyph-name="Ntilde" unicode="&#xd1;" horiz-adv-x="773" 
d="M16 0v1350h413l50 -1146h6l6 1146h263v-1350h-420l-50 1154h-6v-1154h-262zM467 1395c-56 0 -99 52 -130 52c-33 0 -39 -27 -39 -47h-120c0 67 24 145 128 145c56 0 100 -50 131 -50c28 0 39 28 39 47h119c0 -66 -25 -147 -128 -147z" />
    <glyph glyph-name="O" unicode="O" 
d="M298 -8c-188 0 -282 51 -282 153v1062c0 102 94 154 282 154c187 0 281 -52 281 -154v-1062c0 -102 -94 -153 -281 -153zM298 188c12 0 18 16 18 47v885c0 30 -6 45 -18 45s-18 -15 -18 -45v-885c0 -31 6 -47 18 -47z" />
    <glyph glyph-name="Oacute" unicode="&#xd3;" 
d="M298 -8c-188 0 -282 51 -282 153v1062c0 102 94 154 282 154c187 0 281 -52 281 -154v-1062c0 -102 -94 -153 -281 -153zM298 188c12 0 18 16 18 47v885c0 30 -6 45 -18 45s-18 -15 -18 -45v-885c0 -31 6 -47 18 -47zM171 1382l81 185h174l-132 -185h-123z" />
    <glyph glyph-name="Obreve" unicode="&#x14e;" 
d="M298 -8c-188 0 -282 51 -282 153v1062c0 102 94 154 282 154c187 0 281 -52 281 -154v-1062c0 -102 -94 -153 -281 -153zM299 1388c-101 0 -148 69 -148 164h124c0 -52 8 -69 24 -69c18 0 24 19 24 69h124c0 -95 -48 -164 -148 -164zM298 188c12 0 18 16 18 47v885
c0 30 -6 45 -18 45s-18 -15 -18 -45v-885c0 -31 6 -47 18 -47z" />
    <glyph glyph-name="uni01D1" unicode="&#x1d1;" 
d="M298 -8c-188 0 -282 51 -282 153v1062c0 102 94 154 282 154c187 0 281 -52 281 -154v-1062c0 -102 -94 -153 -281 -153zM215 1388l-93 183h119l57 -124l58 124h120l-92 -183h-169zM298 188c12 0 18 16 18 47v885c0 30 -6 45 -18 45s-18 -15 -18 -45v-885
c0 -31 6 -47 18 -47z" />
    <glyph glyph-name="Ocircumflex" unicode="&#xd4;" 
d="M298 -8c-188 0 -282 51 -282 153v1062c0 102 94 154 282 154c187 0 281 -52 281 -154v-1062c0 -102 -94 -153 -281 -153zM122 1396l93 183h169l92 -183h-120l-58 124l-57 -124h-119zM298 188c12 0 18 16 18 47v885c0 30 -6 45 -18 45s-18 -15 -18 -45v-885
c0 -31 6 -47 18 -47z" />
    <glyph glyph-name="uni1ED0" unicode="&#x1ed0;" 
d="M298 -8c-188 0 -282 51 -282 153v1062c0 102 94 154 282 154c187 0 281 -52 281 -154v-1062c0 -102 -94 -153 -281 -153zM122 1396l93 183h169l92 -183h-120l-58 124l-57 -124h-119zM298 188c12 0 18 16 18 47v885c0 30 -6 45 -18 45s-18 -15 -18 -45v-885
c0 -31 6 -47 18 -47zM171 1611l81 185h174l-132 -185h-123z" />
    <glyph glyph-name="uni1ED8" unicode="&#x1ed8;" 
d="M298 -8c-188 0 -282 51 -282 153v1062c0 102 94 154 282 154c187 0 281 -52 281 -154v-1062c0 -102 -94 -153 -281 -153zM122 1396l93 183h169l92 -183h-120l-58 124l-57 -124h-119zM298 188c12 0 18 16 18 47v885c0 30 -6 45 -18 45s-18 -15 -18 -45v-885
c0 -31 6 -47 18 -47zM299 -296c-44 0 -80 36 -80 80s36 80 80 80s80 -36 80 -80s-36 -80 -80 -80z" />
    <glyph glyph-name="uni1ED2" unicode="&#x1ed2;" 
d="M298 -8c-188 0 -282 51 -282 153v1062c0 102 94 154 282 154c187 0 281 -52 281 -154v-1062c0 -102 -94 -153 -281 -153zM122 1396l93 183h169l92 -183h-120l-58 124l-57 -124h-119zM298 188c12 0 18 16 18 47v885c0 30 -6 45 -18 45s-18 -15 -18 -45v-885
c0 -31 6 -47 18 -47zM304 1616l-133 185h177l79 -185h-123z" />
    <glyph glyph-name="uni1ED4" unicode="&#x1ed4;" 
d="M298 -8c-188 0 -282 51 -282 153v1062c0 102 94 154 282 154c187 0 281 -52 281 -154v-1062c0 -102 -94 -153 -281 -153zM205 1884c162 0 253 -23 253 -109c0 -74 -78 -105 -123 -105v-48h-96v117c52 0 102 8 102 29c0 24 -34 28 -136 28v88zM122 1396l93 183h169
l92 -183h-120l-58 124l-57 -124h-119zM298 188c12 0 18 16 18 47v885c0 30 -6 45 -18 45s-18 -15 -18 -45v-885c0 -31 6 -47 18 -47z" />
    <glyph glyph-name="uni1ED6" unicode="&#x1ed6;" 
d="M298 -8c-188 0 -282 51 -282 153v1062c0 102 94 154 282 154c187 0 281 -52 281 -154v-1062c0 -102 -94 -153 -281 -153zM380 1624c-56 0 -100 52 -130 52c-34 0 -40 -27 -40 -47h-119c0 67 24 144 127 144c56 0 100 -49 131 -49c29 0 40 27 40 47h118
c0 -67 -24 -147 -127 -147zM122 1396l93 183h169l92 -183h-120l-58 124l-57 -124h-119zM298 188c12 0 18 16 18 47v885c0 30 -6 45 -18 45s-18 -15 -18 -45v-885c0 -31 6 -47 18 -47z" />
    <glyph glyph-name="uni020C" unicode="&#x20c;" 
d="M298 -8c-188 0 -282 51 -282 153v1062c0 102 94 154 282 154c187 0 281 -52 281 -154v-1062c0 -102 -94 -153 -281 -153zM298 188c12 0 18 16 18 47v885c0 30 -6 45 -18 45s-18 -15 -18 -45v-885c0 -31 6 -47 18 -47zM186 1408l-133 185h177l79 -185h-123zM421 1408
l-133 185h177l79 -185h-123z" />
    <glyph glyph-name="Odieresis" unicode="&#xd6;" 
d="M298 -8c-188 0 -282 51 -282 153v1062c0 102 94 154 282 154c187 0 281 -52 281 -154v-1062c0 -102 -94 -153 -281 -153zM298 188c12 0 18 16 18 47v885c0 30 -6 45 -18 45s-18 -15 -18 -45v-885c0 -31 6 -47 18 -47zM184 1399c-40 0 -72 32 -72 72c0 39 32 71 72 71
c39 0 71 -32 71 -71c0 -40 -32 -72 -71 -72zM416 1399c-40 0 -72 32 -72 72c0 39 32 71 72 71c39 0 71 -32 71 -71c0 -40 -32 -72 -71 -72z" />
    <glyph glyph-name="uni022A" unicode="&#x22a;" 
d="M298 -8c-188 0 -282 51 -282 153v1062c0 102 94 154 282 154c187 0 281 -52 281 -154v-1062c0 -102 -94 -153 -281 -153zM118 1600v98h361v-98h-361zM298 188c12 0 18 16 18 47v885c0 30 -6 45 -18 45s-18 -15 -18 -45v-885c0 -31 6 -47 18 -47zM184 1399
c-40 0 -72 32 -72 72c0 39 32 71 72 71c39 0 71 -32 71 -71c0 -40 -32 -72 -71 -72zM416 1399c-40 0 -72 32 -72 72c0 39 32 71 72 71c39 0 71 -32 71 -71c0 -40 -32 -72 -71 -72z" />
    <glyph glyph-name="uni0230" unicode="&#x230;" 
d="M298 -8c-188 0 -282 51 -282 153v1062c0 102 94 154 282 154c187 0 281 -52 281 -154v-1062c0 -102 -94 -153 -281 -153zM118 1605v98h361v-98h-361zM298 188c12 0 18 16 18 47v885c0 30 -6 45 -18 45s-18 -15 -18 -45v-885c0 -31 6 -47 18 -47zM299 1389
c-44 0 -80 35 -80 80c0 44 36 79 80 79s80 -35 80 -79s-36 -80 -80 -80z" />
    <glyph glyph-name="uni1ECC" unicode="&#x1ecc;" 
d="M298 -8c-188 0 -282 51 -282 153v1062c0 102 94 154 282 154c187 0 281 -52 281 -154v-1062c0 -102 -94 -153 -281 -153zM298 188c12 0 18 16 18 47v885c0 30 -6 45 -18 45s-18 -15 -18 -45v-885c0 -31 6 -47 18 -47zM299 -296c-44 0 -80 36 -80 80s36 80 80 80
s80 -36 80 -80s-36 -80 -80 -80z" />
    <glyph glyph-name="Ograve" unicode="&#xd2;" 
d="M298 -8c-188 0 -282 51 -282 153v1062c0 102 94 154 282 154c187 0 281 -52 281 -154v-1062c0 -102 -94 -153 -281 -153zM298 188c12 0 18 16 18 47v885c0 30 -6 45 -18 45s-18 -15 -18 -45v-885c0 -31 6 -47 18 -47zM304 1387l-133 185h177l79 -185h-123z" />
    <glyph glyph-name="uni1ECE" unicode="&#x1ece;" 
d="M298 -8c-188 0 -282 51 -282 153v1062c0 102 94 154 282 154c187 0 281 -52 281 -154v-1062c0 -102 -94 -153 -281 -153zM205 1656c162 0 253 -24 253 -110c0 -73 -78 -105 -123 -105v-47h-96v117c52 0 102 8 102 28c0 25 -34 28 -136 28v89zM298 188c12 0 18 16 18 47
v885c0 30 -6 45 -18 45s-18 -15 -18 -45v-885c0 -31 6 -47 18 -47z" />
    <glyph glyph-name="Ohorn" unicode="&#x1a0;" 
d="M298 -8c-188 0 -282 51 -282 153v1062c0 102 94 154 282 154c187 0 281 -52 281 -154v-18c79 4 83 72 83 157h136c0 -158 -59 -241 -219 -243v-958c0 -102 -94 -153 -281 -153zM298 188c12 0 18 16 18 47v885c0 30 -6 45 -18 45s-18 -15 -18 -45v-885c0 -31 6 -47 18 -47
z" />
    <glyph glyph-name="uni1EDA" unicode="&#x1eda;" 
d="M298 -8c-188 0 -282 51 -282 153v1062c0 102 94 154 282 154c187 0 281 -52 281 -154v-18c79 4 83 72 83 157h136c0 -158 -59 -241 -219 -243v-958c0 -102 -94 -153 -281 -153zM298 188c12 0 18 16 18 47v885c0 30 -6 45 -18 45s-18 -15 -18 -45v-885c0 -31 6 -47 18 -47
zM171 1382l81 185h174l-132 -185h-123z" />
    <glyph glyph-name="uni1EE2" unicode="&#x1ee2;" 
d="M298 -8c-188 0 -282 51 -282 153v1062c0 102 94 154 282 154c187 0 281 -52 281 -154v-18c79 4 83 72 83 157h136c0 -158 -59 -241 -219 -243v-958c0 -102 -94 -153 -281 -153zM298 188c12 0 18 16 18 47v885c0 30 -6 45 -18 45s-18 -15 -18 -45v-885c0 -31 6 -47 18 -47
zM299 -296c-44 0 -80 36 -80 80s36 80 80 80s80 -36 80 -80s-36 -80 -80 -80z" />
    <glyph glyph-name="uni1EDC" unicode="&#x1edc;" 
d="M298 -8c-188 0 -282 51 -282 153v1062c0 102 94 154 282 154c187 0 281 -52 281 -154v-18c79 4 83 72 83 157h136c0 -158 -59 -241 -219 -243v-958c0 -102 -94 -153 -281 -153zM298 188c12 0 18 16 18 47v885c0 30 -6 45 -18 45s-18 -15 -18 -45v-885c0 -31 6 -47 18 -47
zM304 1387l-133 185h177l79 -185h-123z" />
    <glyph glyph-name="uni1EDE" unicode="&#x1ede;" 
d="M298 -8c-188 0 -282 51 -282 153v1062c0 102 94 154 282 154c187 0 281 -52 281 -154v-18c79 4 83 72 83 157h136c0 -158 -59 -241 -219 -243v-958c0 -102 -94 -153 -281 -153zM205 1656c162 0 253 -24 253 -110c0 -73 -78 -105 -123 -105v-47h-96v117c52 0 102 8 102 28
c0 25 -34 28 -136 28v89zM298 188c12 0 18 16 18 47v885c0 30 -6 45 -18 45s-18 -15 -18 -45v-885c0 -31 6 -47 18 -47z" />
    <glyph glyph-name="uni1EE0" unicode="&#x1ee0;" 
d="M298 -8c-188 0 -282 51 -282 153v1062c0 102 94 154 282 154c187 0 281 -52 281 -154v-18c79 4 83 72 83 157h136c0 -158 -59 -241 -219 -243v-958c0 -102 -94 -153 -281 -153zM380 1395c-56 0 -100 52 -130 52c-34 0 -40 -27 -40 -47h-119c0 67 24 145 127 145
c56 0 100 -50 131 -50c29 0 40 28 40 47h118c0 -66 -24 -147 -127 -147zM298 188c12 0 18 16 18 47v885c0 30 -6 45 -18 45s-18 -15 -18 -45v-885c0 -31 6 -47 18 -47z" />
    <glyph glyph-name="Ohungarumlaut" unicode="&#x150;" 
d="M298 -8c-188 0 -282 51 -282 153v1062c0 102 94 154 282 154c187 0 281 -52 281 -154v-1062c0 -102 -94 -153 -281 -153zM298 188c12 0 18 16 18 47v885c0 30 -6 45 -18 45s-18 -15 -18 -45v-885c0 -31 6 -47 18 -47zM91 1408l108 164h146l-118 -164h-136zM255 1408
l106 164h145l-116 -164h-135z" />
    <glyph glyph-name="uni020E" unicode="&#x20e;" 
d="M298 -8c-188 0 -282 51 -282 153v1062c0 102 94 154 282 154c187 0 281 -52 281 -154v-1062c0 -102 -94 -153 -281 -153zM299 1557c101 0 148 -70 148 -165h-124c0 53 -8 70 -24 70c-18 0 -24 -19 -24 -70h-124c0 95 48 165 148 165zM298 188c12 0 18 16 18 47v885
c0 30 -6 45 -18 45s-18 -15 -18 -45v-885c0 -31 6 -47 18 -47z" />
    <glyph glyph-name="Omacron" unicode="&#x14c;" 
d="M298 -8c-188 0 -282 51 -282 153v1062c0 102 94 154 282 154c187 0 281 -52 281 -154v-1062c0 -102 -94 -153 -281 -153zM118 1407v98h361v-98h-361zM298 188c12 0 18 16 18 47v885c0 30 -6 45 -18 45s-18 -15 -18 -45v-885c0 -31 6 -47 18 -47z" />
    <glyph glyph-name="uni1E52" unicode="&#x1e52;" 
d="M298 -8c-188 0 -282 51 -282 153v1062c0 102 94 154 282 154c187 0 281 -52 281 -154v-1062c0 -102 -94 -153 -281 -153zM118 1407v98h361v-98h-361zM298 188c12 0 18 16 18 47v885c0 30 -6 45 -18 45s-18 -15 -18 -45v-885c0 -31 6 -47 18 -47zM171 1537l81 185h174
l-132 -185h-123z" />
    <glyph glyph-name="uni1E50" unicode="&#x1e50;" 
d="M298 -8c-188 0 -282 51 -282 153v1062c0 102 94 154 282 154c187 0 281 -52 281 -154v-1062c0 -102 -94 -153 -281 -153zM118 1407v98h361v-98h-361zM298 188c12 0 18 16 18 47v885c0 30 -6 45 -18 45s-18 -15 -18 -45v-885c0 -31 6 -47 18 -47zM304 1556l-133 185h177
l79 -185h-123z" />
    <glyph glyph-name="uni01EA" unicode="&#x1ea;" 
d="M289 -338c-87 0 -177 23 -177 129c0 85 52 174 73 209c-113 17 -169 66 -169 145v1062c0 102 94 154 282 154c187 0 281 -52 281 -154v-1062c0 -100 -89 -151 -268 -153c-19 -38 -42 -101 -42 -140c0 -32 17 -48 51 -48c36 0 78 10 83 15l1 -142c-6 -4 -57 -15 -115 -15z
M298 188c12 0 18 16 18 47v885c0 30 -6 45 -18 45s-18 -15 -18 -45v-885c0 -31 6 -47 18 -47z" />
    <glyph glyph-name="Oslash" unicode="&#xd8;" horiz-adv-x="598" 
d="M-2 0l33 83c-10 18 -15 38 -15 62v1062c0 102 94 154 282 154c102 0 176 -16 222 -46l14 33h64l-33 -81c9 -18 14 -38 14 -60v-1062c0 -102 -94 -153 -281 -153c-101 0 -174 15 -221 44l-14 -36h-65zM280 709l36 91v320c0 30 -6 45 -18 45s-18 -15 -18 -45v-411zM298 188
c12 0 18 16 18 47v402l-36 -91v-311c0 -31 6 -47 18 -47z" />
    <glyph glyph-name="Oslashacute" unicode="&#x1fe;" horiz-adv-x="598" 
d="M-2 0l33 83c-10 18 -15 38 -15 62v1062c0 102 94 154 282 154c102 0 176 -16 222 -46l14 33h64l-33 -81c9 -18 14 -38 14 -60v-1062c0 -102 -94 -153 -281 -153c-101 0 -174 15 -221 44l-14 -36h-65zM171 1382l81 185h174l-132 -185h-123zM280 709l36 91v320
c0 30 -6 45 -18 45s-18 -15 -18 -45v-411zM298 188c12 0 18 16 18 47v402l-36 -91v-311c0 -31 6 -47 18 -47z" />
    <glyph glyph-name="Otilde" unicode="&#xd5;" 
d="M298 -8c-188 0 -282 51 -282 153v1062c0 102 94 154 282 154c187 0 281 -52 281 -154v-1062c0 -102 -94 -153 -281 -153zM380 1395c-56 0 -100 52 -130 52c-34 0 -40 -27 -40 -47h-119c0 67 24 145 127 145c56 0 100 -50 131 -50c29 0 40 28 40 47h118
c0 -66 -24 -147 -127 -147zM298 188c12 0 18 16 18 47v885c0 30 -6 45 -18 45s-18 -15 -18 -45v-885c0 -31 6 -47 18 -47z" />
    <glyph glyph-name="uni1E4C" unicode="&#x1e4c;" 
d="M298 -8c-188 0 -282 51 -282 153v1062c0 102 94 154 282 154c187 0 281 -52 281 -154v-1062c0 -102 -94 -153 -281 -153zM380 1395c-56 0 -100 52 -130 52c-34 0 -40 -27 -40 -47h-119c0 67 24 145 127 145c56 0 100 -50 131 -50c29 0 40 28 40 47h118
c0 -66 -24 -147 -127 -147zM298 188c12 0 18 16 18 47v885c0 30 -6 45 -18 45s-18 -15 -18 -45v-885c0 -31 6 -47 18 -47zM171 1574l81 185h174l-132 -185h-123z" />
    <glyph glyph-name="uni1E4E" unicode="&#x1e4e;" 
d="M298 -8c-188 0 -282 51 -282 153v1062c0 102 94 154 282 154c187 0 281 -52 281 -154v-1062c0 -102 -94 -153 -281 -153zM380 1395c-56 0 -100 52 -130 52c-34 0 -40 -27 -40 -47h-119c0 67 24 145 127 145c56 0 100 -50 131 -50c29 0 40 28 40 47h118
c0 -66 -24 -147 -127 -147zM298 188c12 0 18 16 18 47v885c0 30 -6 45 -18 45s-18 -15 -18 -45v-885c0 -31 6 -47 18 -47zM184 1591c-40 0 -72 32 -72 72c0 39 32 71 72 71c39 0 71 -32 71 -71c0 -40 -32 -72 -71 -72zM416 1591c-40 0 -72 32 -72 72c0 39 32 71 72 71
c39 0 71 -32 71 -71c0 -40 -32 -72 -71 -72z" />
    <glyph glyph-name="uni022C" unicode="&#x22c;" 
d="M298 -8c-188 0 -282 51 -282 153v1062c0 102 94 154 282 154c187 0 281 -52 281 -154v-1062c0 -102 -94 -153 -281 -153zM380 1395c-56 0 -100 52 -130 52c-34 0 -40 -27 -40 -47h-119c0 67 24 145 127 145c56 0 100 -50 131 -50c29 0 40 28 40 47h118
c0 -66 -24 -147 -127 -147zM118 1599v98h361v-98h-361zM298 188c12 0 18 16 18 47v885c0 30 -6 45 -18 45s-18 -15 -18 -45v-885c0 -31 6 -47 18 -47z" />
    <glyph glyph-name="OE" unicode="&#x152;" horiz-adv-x="713" 
d="M298 -8c-188 0 -282 51 -282 153v1062c0 102 94 154 282 154c49 0 91 -4 127 -11h271v-196h-111v-373h111v-193h-111v-392h111v-196h-284c-33 -5 -72 -8 -114 -8zM298 188c12 0 18 16 18 47v885c0 30 -6 45 -18 45s-18 -15 -18 -45v-885c0 -31 6 -47 18 -47z" />
    <glyph glyph-name="P" unicode="P" horiz-adv-x="601" 
d="M16 0v1350h377c126 0 189 -55 189 -164v-661c0 -109 -63 -164 -189 -164h-110v-361h-267zM283 557h9c16 0 24 23 24 68v461c0 45 -8 68 -24 68h-9v-597z" />
    <glyph glyph-name="Thorn" unicode="&#xde;" horiz-adv-x="612" 
d="M16 0v1350h265v-218h128c127 0 185 -84 185 -265v-374c0 -187 -53 -265 -185 -265h-128v-228h-265zM281 400h15c27 0 33 30 33 128v316c0 85 -5 114 -33 114h-15v-558z" />
    <glyph glyph-name="Q" unicode="Q" horiz-adv-x="605" 
d="M397 -187l-82 179h-17c-188 0 -282 51 -282 153v1062c0 102 94 154 282 154c187 0 281 -52 281 -154v-1062c0 -48 -20 -84 -61 -109l64 -142zM298 188c12 0 18 16 18 47v885c0 30 -6 45 -18 45s-18 -15 -18 -45v-885c0 -31 6 -47 18 -47z" />
    <glyph glyph-name="R" unicode="R" horiz-adv-x="606" 
d="M16 0v1350h391c119 0 179 -46 179 -138v-495c0 -37 -12 -65 -35 -85l47 -632h-268l-30 593h-16v-593h-268zM284 759h8c17 0 26 18 26 53v288c0 36 -9 54 -26 54h-8v-395z" />
    <glyph glyph-name="Racute" unicode="&#x154;" horiz-adv-x="606" 
d="M16 0v1350h391c119 0 179 -46 179 -138v-495c0 -37 -12 -65 -35 -85l47 -632h-268l-30 593h-16v-593h-268zM176 1382l81 185h174l-132 -185h-123zM284 759h8c17 0 26 18 26 53v288c0 36 -9 54 -26 54h-8v-395z" />
    <glyph glyph-name="Rcaron" unicode="&#x158;" horiz-adv-x="606" 
d="M16 0v1350h391c119 0 179 -46 179 -138v-495c0 -37 -12 -65 -35 -85l47 -632h-268l-30 593h-16v-593h-268zM220 1388l-93 183h119l57 -124l58 124h120l-92 -183h-169zM284 759h8c17 0 26 18 26 53v288c0 36 -9 54 -26 54h-8v-395z" />
    <glyph glyph-name="uni0156" unicode="&#x156;" horiz-adv-x="606" 
d="M16 0v1350h391c119 0 179 -46 179 -138v-495c0 -37 -12 -65 -35 -85l47 -632h-268l-30 593h-16v-593h-268zM186 -295l65 232h163l-135 -232h-93zM284 759h8c17 0 26 18 26 53v288c0 36 -9 54 -26 54h-8v-395z" />
    <glyph glyph-name="uni0210" unicode="&#x210;" horiz-adv-x="606" 
d="M16 0v1350h391c119 0 179 -46 179 -138v-495c0 -37 -12 -65 -35 -85l47 -632h-268l-30 593h-16v-593h-268zM191 1408l-134 185h178l79 -185h-123zM426 1408l-134 185h178l79 -185h-123zM284 759h8c17 0 26 18 26 53v288c0 36 -9 54 -26 54h-8v-395z" />
    <glyph glyph-name="uni1E5A" unicode="&#x1e5a;" horiz-adv-x="606" 
d="M16 0v1350h391c119 0 179 -46 179 -138v-495c0 -37 -12 -65 -35 -85l47 -632h-268l-30 593h-16v-593h-268zM304 -232c-44 0 -80 35 -80 80c0 44 35 79 80 79c43 0 79 -35 79 -79s-35 -80 -79 -80zM284 759h8c17 0 26 18 26 53v288c0 36 -9 54 -26 54h-8v-395z" />
    <glyph glyph-name="uni0212" unicode="&#x212;" horiz-adv-x="606" 
d="M16 0v1350h391c119 0 179 -46 179 -138v-495c0 -37 -12 -65 -35 -85l47 -632h-268l-30 593h-16v-593h-268zM303 1557c102 0 149 -70 149 -165h-124c0 53 -8 70 -25 70s-23 -19 -23 -70h-125c0 95 48 165 148 165zM284 759h8c17 0 26 18 26 53v288c0 36 -9 54 -26 54h-8
v-395z" />
    <glyph glyph-name="uni1E5E" unicode="&#x1e5e;" horiz-adv-x="606" 
d="M16 0v1350h391c119 0 179 -46 179 -138v-495c0 -37 -12 -65 -35 -85l47 -632h-268l-30 593h-16v-593h-268zM123 -207v98h361v-98h-361zM284 759h8c17 0 26 18 26 53v288c0 36 -9 54 -26 54h-8v-395z" />
    <glyph glyph-name="S" unicode="S" horiz-adv-x="605" 
d="M300 -9c-190 0 -285 48 -285 144v355h267v-268c0 -24 6 -36 18 -36s18 12 18 36v120c0 71 -2 120 -7 147s-30 53 -75 78c-106 54 -169 105 -190 153c-20 48 -30 125 -30 233v262c0 97 95 146 286 146c188 0 283 -51 283 -152v-342h-267v261c0 25 -6 38 -18 38
s-18 -13 -18 -38v-113c0 -80 3 -132 9 -156c6 -25 34 -51 85 -78c99 -52 159 -100 180 -143s32 -120 32 -231v-267c0 -99 -96 -149 -288 -149z" />
    <glyph glyph-name="Sacute" unicode="&#x15a;" horiz-adv-x="605" 
d="M300 -9c-190 0 -285 48 -285 144v355h267v-268c0 -24 6 -36 18 -36s18 12 18 36v120c0 71 -2 120 -7 147s-30 53 -75 78c-106 54 -169 105 -190 153c-20 48 -30 125 -30 233v262c0 97 95 146 286 146c188 0 283 -51 283 -152v-342h-267v261c0 25 -6 38 -18 38
s-18 -13 -18 -38v-113c0 -80 3 -132 9 -156c6 -25 34 -51 85 -78c99 -52 159 -100 180 -143s32 -120 32 -231v-267c0 -99 -96 -149 -288 -149zM199 1472l80 185h175l-132 -185h-123z" />
    <glyph glyph-name="uni1E64" unicode="&#x1e64;" horiz-adv-x="605" 
d="M300 -9c-190 0 -285 48 -285 144v355h267v-268c0 -24 6 -36 18 -36s18 12 18 36v120c0 71 -2 120 -7 147s-30 53 -75 78c-106 54 -169 105 -190 153c-20 48 -30 125 -30 233v262c0 97 95 146 286 146c188 0 283 -51 283 -152v-342h-267v261c0 25 -6 38 -18 38
s-18 -13 -18 -38v-113c0 -80 3 -132 9 -156c6 -25 34 -51 85 -78c99 -52 159 -100 180 -143s32 -120 32 -231v-267c0 -99 -96 -149 -288 -149zM175 1382l81 185h174l-132 -185h-123zM303 1606c-44 0 -80 35 -80 80c0 44 35 79 80 79c43 0 79 -35 79 -79s-35 -80 -79 -80z
" />
    <glyph glyph-name="Scaron" unicode="&#x160;" horiz-adv-x="605" 
d="M300 -9c-190 0 -285 48 -285 144v355h267v-268c0 -24 6 -36 18 -36s18 12 18 36v120c0 71 -2 120 -7 147s-30 53 -75 78c-106 54 -169 105 -190 153c-20 48 -30 125 -30 233v262c0 97 95 146 286 146c188 0 283 -51 283 -152v-342h-267v261c0 25 -6 38 -18 38
s-18 -13 -18 -38v-113c0 -80 3 -132 9 -156c6 -25 34 -51 85 -78c99 -52 159 -100 180 -143s32 -120 32 -231v-267c0 -99 -96 -149 -288 -149zM211 1473l-93 183h119l58 -124l57 124h120l-91 -183h-170z" />
    <glyph glyph-name="uni1E66" unicode="&#x1e66;" horiz-adv-x="605" 
d="M300 -9c-190 0 -285 48 -285 144v355h267v-268c0 -24 6 -36 18 -36s18 12 18 36v120c0 71 -2 120 -7 147s-30 53 -75 78c-106 54 -169 105 -190 153c-20 48 -30 125 -30 233v262c0 97 95 146 286 146c188 0 283 -51 283 -152v-342h-267v261c0 25 -6 38 -18 38
s-18 -13 -18 -38v-113c0 -80 3 -132 9 -156c6 -25 34 -51 85 -78c99 -52 159 -100 180 -143s32 -120 32 -231v-267c0 -99 -96 -149 -288 -149zM219 1388l-93 183h119l57 -124l58 124h120l-92 -183h-169zM303 1610c-44 0 -80 35 -80 80c0 44 35 79 80 79c43 0 79 -35 79 -79
s-35 -80 -79 -80z" />
    <glyph glyph-name="Scedilla" unicode="&#x15e;" horiz-adv-x="606" 
d="M301 -305c-33 0 -78 4 -107 12l29 111c16 -5 47 -10 75 -10c55 0 75 16 75 42c0 16 -9 24 -20 24c-9 0 -17 -4 -24 -12l-96 11l28 119c-164 6 -246 54 -246 143v355h267v-268c0 -24 6 -36 18 -36s18 12 18 36v120c0 71 -2 120 -7 147s-30 53 -75 78
c-106 54 -169 105 -190 153c-20 48 -30 125 -30 233v262c0 97 95 146 286 146c188 0 283 -51 283 -152v-342h-267v261c0 25 -6 38 -18 38s-18 -13 -18 -38v-113c0 -80 3 -132 9 -156c6 -25 34 -51 85 -78c99 -52 159 -100 180 -143s32 -120 32 -231v-267
c0 -87 -75 -136 -223 -147l-17 -59c16 12 39 20 72 20c61 0 92 -34 92 -99c0 -100 -96 -160 -211 -160z" />
    <glyph glyph-name="Scircumflex" unicode="&#x15c;" horiz-adv-x="605" 
d="M300 -9c-190 0 -285 48 -285 144v355h267v-268c0 -24 6 -36 18 -36s18 12 18 36v120c0 71 -2 120 -7 147s-30 53 -75 78c-106 54 -169 105 -190 153c-20 48 -30 125 -30 233v262c0 97 95 146 286 146c188 0 283 -51 283 -152v-342h-267v261c0 25 -6 38 -18 38
s-18 -13 -18 -38v-113c0 -80 3 -132 9 -156c6 -25 34 -51 85 -78c99 -52 159 -100 180 -143s32 -120 32 -231v-267c0 -99 -96 -149 -288 -149zM126 1396l93 183h169l92 -183h-120l-58 124l-57 -124h-119z" />
    <glyph glyph-name="uni0218" unicode="&#x218;" horiz-adv-x="605" 
d="M300 -9c-190 0 -285 48 -285 144v355h267v-268c0 -24 6 -36 18 -36s18 12 18 36v120c0 71 -2 120 -7 147s-30 53 -75 78c-106 54 -169 105 -190 153c-20 48 -30 125 -30 233v262c0 97 95 146 286 146c188 0 283 -51 283 -152v-342h-267v261c0 25 -6 38 -18 38
s-18 -13 -18 -38v-113c0 -80 3 -132 9 -156c6 -25 34 -51 85 -78c99 -52 159 -100 180 -143s32 -120 32 -231v-267c0 -99 -96 -149 -288 -149zM185 -295l64 232h163l-134 -232h-93z" />
    <glyph glyph-name="uni1E60" unicode="&#x1e60;" horiz-adv-x="605" 
d="M300 -9c-190 0 -285 48 -285 144v355h267v-268c0 -24 6 -36 18 -36s18 12 18 36v120c0 71 -2 120 -7 147s-30 53 -75 78c-106 54 -169 105 -190 153c-20 48 -30 125 -30 233v262c0 97 95 146 286 146c188 0 283 -51 283 -152v-342h-267v261c0 25 -6 38 -18 38
s-18 -13 -18 -38v-113c0 -80 3 -132 9 -156c6 -25 34 -51 85 -78c99 -52 159 -100 180 -143s32 -120 32 -231v-267c0 -99 -96 -149 -288 -149zM303 1389c-44 0 -80 35 -80 80c0 44 35 79 80 79c43 0 79 -35 79 -79s-35 -80 -79 -80z" />
    <glyph glyph-name="uni1E62" unicode="&#x1e62;" horiz-adv-x="605" 
d="M300 -9c-190 0 -285 48 -285 144v355h267v-268c0 -24 6 -36 18 -36s18 12 18 36v120c0 71 -2 120 -7 147s-30 53 -75 78c-106 54 -169 105 -190 153c-20 48 -30 125 -30 233v262c0 97 95 146 286 146c188 0 283 -51 283 -152v-342h-267v261c0 25 -6 38 -18 38
s-18 -13 -18 -38v-113c0 -80 3 -132 9 -156c6 -25 34 -51 85 -78c99 -52 159 -100 180 -143s32 -120 32 -231v-267c0 -99 -96 -149 -288 -149zM303 -232c-44 0 -80 35 -80 80c0 44 35 79 80 79c43 0 79 -35 79 -79s-35 -80 -79 -80z" />
    <glyph glyph-name="uni1E68" unicode="&#x1e68;" horiz-adv-x="605" 
d="M300 -9c-190 0 -285 48 -285 144v355h267v-268c0 -24 6 -36 18 -36s18 12 18 36v120c0 71 -2 120 -7 147s-30 53 -75 78c-106 54 -169 105 -190 153c-20 48 -30 125 -30 233v262c0 97 95 146 286 146c188 0 283 -51 283 -152v-342h-267v261c0 25 -6 38 -18 38
s-18 -13 -18 -38v-113c0 -80 3 -132 9 -156c6 -25 34 -51 85 -78c99 -52 159 -100 180 -143s32 -120 32 -231v-267c0 -99 -96 -149 -288 -149zM303 -232c-44 0 -80 35 -80 80c0 44 35 79 80 79c43 0 79 -35 79 -79s-35 -80 -79 -80zM303 1389c-44 0 -80 35 -80 80
c0 44 35 79 80 79c43 0 79 -35 79 -79s-35 -80 -79 -80z" />
    <glyph glyph-name="uni1E9E" unicode="&#x1e9e;" horiz-adv-x="651" 
d="M16 0v1350h617v-171l-90 -440c71 -63 90 -196 90 -341c0 -254 -39 -398 -323 -398v196c24 0 51 45 51 189c0 130 -26 205 -52 238v195l59 337h-84v-1155h-268z" />
    <glyph glyph-name="uni018F" unicode="&#x18f;" horiz-adv-x="607" 
d="M303 -9c-191 0 -287 56 -287 170v601h308v319c0 55 -7 82 -19 82c-21 0 -22 -75 -22 -262h-267c0 350 33 458 289 458c190 0 285 -61 285 -182v-1015c0 -114 -96 -171 -287 -171zM324 589h-41v-331c0 -47 6 -70 20 -70s21 23 21 70v331z" />
    <glyph glyph-name="T" unicode="T" horiz-adv-x="502" 
d="M118 0v1154h-105v196h476v-196h-105v-1154h-266z" />
    <glyph glyph-name="Tbar" unicode="&#x166;" horiz-adv-x="502" 
d="M28 764v173h90v217h-105v196h476v-196h-105v-217h84v-173h-84v-764h-266v764h-90z" />
    <glyph glyph-name="Tcaron" unicode="&#x164;" horiz-adv-x="502" 
d="M118 0v1154h-105v196h476v-196h-105v-1154h-266zM168 1388l-93 183h119l58 -124l57 124h120l-91 -183h-170z" />
    <glyph glyph-name="uni0162" unicode="&#x162;" horiz-adv-x="502" 
d="M118 0v1154h-105v196h476v-196h-105v-1154h-79l-19 -66c16 12 39 20 72 20c61 0 92 -34 92 -99c0 -100 -96 -160 -211 -160c-33 0 -78 4 -107 12l29 111c16 -5 47 -10 75 -10c55 0 75 16 75 42c0 16 -9 24 -20 24c-9 0 -17 -4 -24 -12l-96 11l31 127h-84z" />
    <glyph glyph-name="uni021A" unicode="&#x21a;" horiz-adv-x="502" 
d="M118 0v1154h-105v196h476v-196h-105v-1154h-266zM197 -295l64 232h163l-134 -232h-93z" />
    <glyph glyph-name="uni1E6C" unicode="&#x1e6c;" horiz-adv-x="502" 
d="M118 0v1154h-105v196h476v-196h-105v-1154h-266zM251 -232c-44 0 -80 35 -80 80c0 44 36 79 80 79s80 -35 80 -79s-36 -80 -80 -80z" />
    <glyph glyph-name="uni1E6E" unicode="&#x1e6e;" horiz-adv-x="502" 
d="M118 0v1154h-105v196h476v-196h-105v-1154h-266zM70 -207v98h361v-98h-361z" />
    <glyph glyph-name="U" unicode="U" horiz-adv-x="606" 
d="M302 -9c-104 0 -178 19 -221 56s-64 101 -64 190v1113h267v-1076c0 -33 1 -55 3 -68s7 -19 15 -19s13 6 15 19s3 35 3 68v1076h266v-1113c0 -89 -21 -153 -64 -190s-116 -56 -220 -56z" />
    <glyph glyph-name="Uacute" unicode="&#xda;" horiz-adv-x="606" 
d="M302 -9c-104 0 -178 19 -221 56s-64 101 -64 190v1113h267v-1076c0 -33 1 -55 3 -68s7 -19 15 -19s13 6 15 19s3 35 3 68v1076h266v-1113c0 -89 -21 -153 -64 -190s-116 -56 -220 -56zM175 1382l81 185h174l-132 -185h-123z" />
    <glyph glyph-name="Ubreve" unicode="&#x16c;" horiz-adv-x="606" 
d="M302 -9c-104 0 -178 19 -221 56s-64 101 -64 190v1113h267v-1076c0 -33 1 -55 3 -68s7 -19 15 -19s13 6 15 19s3 35 3 68v1076h266v-1113c0 -89 -21 -153 -64 -190s-116 -56 -220 -56zM303 1388c-101 0 -148 69 -148 164h124c0 -52 8 -69 24 -69c18 0 24 19 24 69h124
c0 -95 -48 -164 -148 -164z" />
    <glyph glyph-name="uni01D3" unicode="&#x1d3;" horiz-adv-x="606" 
d="M302 -9c-104 0 -178 19 -221 56s-64 101 -64 190v1113h267v-1076c0 -33 1 -55 3 -68s7 -19 15 -19s13 6 15 19s3 35 3 68v1076h266v-1113c0 -89 -21 -153 -64 -190s-116 -56 -220 -56zM219 1388l-93 183h119l57 -124l58 124h120l-92 -183h-169z" />
    <glyph glyph-name="Ucircumflex" unicode="&#xdb;" horiz-adv-x="606" 
d="M302 -9c-104 0 -178 19 -221 56s-64 101 -64 190v1113h267v-1076c0 -33 1 -55 3 -68s7 -19 15 -19s13 6 15 19s3 35 3 68v1076h266v-1113c0 -89 -21 -153 -64 -190s-116 -56 -220 -56zM126 1396l93 183h169l92 -183h-120l-58 124l-57 -124h-119z" />
    <glyph glyph-name="uni0214" unicode="&#x214;" horiz-adv-x="606" 
d="M302 -9c-104 0 -178 19 -221 56s-64 101 -64 190v1113h267v-1076c0 -33 1 -55 3 -68s7 -19 15 -19s13 6 15 19s3 35 3 68v1076h266v-1113c0 -89 -21 -153 -64 -190s-116 -56 -220 -56zM190 1408l-133 185h177l79 -185h-123zM425 1408l-133 185h177l79 -185h-123z" />
    <glyph glyph-name="Udieresis" unicode="&#xdc;" horiz-adv-x="606" 
d="M302 -9c-104 0 -178 19 -221 56s-64 101 -64 190v1113h267v-1076c0 -33 1 -55 3 -68s7 -19 15 -19s13 6 15 19s3 35 3 68v1076h266v-1113c0 -89 -21 -153 -64 -190s-116 -56 -220 -56zM188 1399c-40 0 -72 32 -72 72c0 39 32 71 72 71c39 0 71 -32 71 -71
c0 -40 -32 -72 -71 -72zM420 1399c-40 0 -72 32 -72 72c0 39 32 71 72 71c39 0 71 -32 71 -71c0 -40 -32 -72 -71 -72z" />
    <glyph glyph-name="uni01D7" unicode="&#x1d7;" horiz-adv-x="606" 
d="M302 -9c-104 0 -178 19 -221 56s-64 101 -64 190v1113h267v-1076c0 -33 1 -55 3 -68s7 -19 15 -19s13 6 15 19s3 35 3 68v1076h266v-1113c0 -89 -21 -153 -64 -190s-116 -56 -220 -56zM220 1610l80 185h175l-132 -185h-123zM188 1399c-40 0 -72 32 -72 72
c0 39 32 71 72 71c39 0 71 -32 71 -71c0 -40 -32 -72 -71 -72zM420 1399c-40 0 -72 32 -72 72c0 39 32 71 72 71c39 0 71 -32 71 -71c0 -40 -32 -72 -71 -72z" />
    <glyph glyph-name="uni01D9" unicode="&#x1d9;" horiz-adv-x="606" 
d="M302 -9c-104 0 -178 19 -221 56s-64 101 -64 190v1113h267v-1076c0 -33 1 -55 3 -68s7 -19 15 -19s13 6 15 19s3 35 3 68v1076h266v-1113c0 -89 -21 -153 -64 -190s-116 -56 -220 -56zM236 1614l-93 183h119l57 -124l58 124h120l-92 -183h-169zM188 1399
c-40 0 -72 32 -72 72c0 39 32 71 72 71c39 0 71 -32 71 -71c0 -40 -32 -72 -71 -72zM420 1399c-40 0 -72 32 -72 72c0 39 32 71 72 71c39 0 71 -32 71 -71c0 -40 -32 -72 -71 -72z" />
    <glyph glyph-name="uni01DB" unicode="&#x1db;" horiz-adv-x="606" 
d="M302 -9c-104 0 -178 19 -221 56s-64 101 -64 190v1113h267v-1076c0 -33 1 -55 3 -68s7 -19 15 -19s13 6 15 19s3 35 3 68v1076h266v-1113c0 -89 -21 -153 -64 -190s-116 -56 -220 -56zM324 1614l-133 185h177l79 -185h-123zM188 1399c-40 0 -72 32 -72 72
c0 39 32 71 72 71c39 0 71 -32 71 -71c0 -40 -32 -72 -71 -72zM420 1399c-40 0 -72 32 -72 72c0 39 32 71 72 71c39 0 71 -32 71 -71c0 -40 -32 -72 -71 -72z" />
    <glyph glyph-name="uni01D5" unicode="&#x1d5;" horiz-adv-x="606" 
d="M302 -9c-104 0 -178 19 -221 56s-64 101 -64 190v1113h267v-1076c0 -33 1 -55 3 -68s7 -19 15 -19s13 6 15 19s3 35 3 68v1076h266v-1113c0 -89 -21 -153 -64 -190s-116 -56 -220 -56zM122 1623v98h361v-98h-361zM188 1399c-40 0 -72 32 -72 72c0 39 32 71 72 71
c39 0 71 -32 71 -71c0 -40 -32 -72 -71 -72zM420 1399c-40 0 -72 32 -72 72c0 39 32 71 72 71c39 0 71 -32 71 -71c0 -40 -32 -72 -71 -72z" />
    <glyph glyph-name="uni1EE4" unicode="&#x1ee4;" horiz-adv-x="606" 
d="M302 -9c-104 0 -178 19 -221 56s-64 101 -64 190v1113h267v-1076c0 -33 1 -55 3 -68s7 -19 15 -19s13 6 15 19s3 35 3 68v1076h266v-1113c0 -89 -21 -153 -64 -190s-116 -56 -220 -56zM303 -296c-44 0 -80 36 -80 80s36 80 80 80s80 -36 80 -80s-36 -80 -80 -80z" />
    <glyph glyph-name="Ugrave" unicode="&#xd9;" horiz-adv-x="606" 
d="M302 -9c-104 0 -178 19 -221 56s-64 101 -64 190v1113h267v-1076c0 -33 1 -55 3 -68s7 -19 15 -19s13 6 15 19s3 35 3 68v1076h266v-1113c0 -89 -21 -153 -64 -190s-116 -56 -220 -56zM308 1387l-133 185h177l79 -185h-123z" />
    <glyph glyph-name="uni1EE6" unicode="&#x1ee6;" horiz-adv-x="606" 
d="M302 -9c-104 0 -178 19 -221 56s-64 101 -64 190v1113h267v-1076c0 -33 1 -55 3 -68s7 -19 15 -19s13 6 15 19s3 35 3 68v1076h266v-1113c0 -89 -21 -153 -64 -190s-116 -56 -220 -56zM209 1656c162 0 253 -24 253 -110c0 -73 -78 -105 -123 -105v-47h-96v117
c52 0 102 8 102 28c0 25 -34 28 -136 28v89z" />
    <glyph glyph-name="Uhorn" unicode="&#x1af;" horiz-adv-x="606" 
d="M302 -9c-104 0 -178 19 -221 56s-64 101 -64 190v1113h267v-1076c0 -33 1 -55 3 -68s7 -19 15 -19s13 6 15 19s3 35 3 68v1076h266v-85c84 0 88 69 88 157h136c0 -160 -61 -243 -224 -243v-942c0 -89 -21 -153 -64 -190s-116 -56 -220 -56z" />
    <glyph glyph-name="uni1EE8" unicode="&#x1ee8;" horiz-adv-x="606" 
d="M302 -9c-104 0 -178 19 -221 56s-64 101 -64 190v1113h267v-1076c0 -33 1 -55 3 -68s7 -19 15 -19s13 6 15 19s3 35 3 68v1076h266v-85c84 0 88 69 88 157h136c0 -160 -61 -243 -224 -243v-942c0 -89 -21 -153 -64 -190s-116 -56 -220 -56zM175 1382l81 185h174
l-132 -185h-123z" />
    <glyph glyph-name="uni1EF0" unicode="&#x1ef0;" horiz-adv-x="606" 
d="M302 -9c-104 0 -178 19 -221 56s-64 101 -64 190v1113h267v-1076c0 -33 1 -55 3 -68s7 -19 15 -19s13 6 15 19s3 35 3 68v1076h266v-85c84 0 88 69 88 157h136c0 -160 -61 -243 -224 -243v-942c0 -89 -21 -153 -64 -190s-116 -56 -220 -56zM303 -296c-44 0 -80 36 -80 80
s36 80 80 80s80 -36 80 -80s-36 -80 -80 -80z" />
    <glyph glyph-name="uni1EEA" unicode="&#x1eea;" horiz-adv-x="606" 
d="M302 -9c-104 0 -178 19 -221 56s-64 101 -64 190v1113h267v-1076c0 -33 1 -55 3 -68s7 -19 15 -19s13 6 15 19s3 35 3 68v1076h266v-85c84 0 88 69 88 157h136c0 -160 -61 -243 -224 -243v-942c0 -89 -21 -153 -64 -190s-116 -56 -220 -56zM308 1387l-133 185h177
l79 -185h-123z" />
    <glyph glyph-name="uni1EEC" unicode="&#x1eec;" horiz-adv-x="606" 
d="M302 -9c-104 0 -178 19 -221 56s-64 101 -64 190v1113h267v-1076c0 -33 1 -55 3 -68s7 -19 15 -19s13 6 15 19s3 35 3 68v1076h266v-85c84 0 88 69 88 157h136c0 -160 -61 -243 -224 -243v-942c0 -89 -21 -153 -64 -190s-116 -56 -220 -56zM209 1656
c162 0 253 -24 253 -110c0 -73 -78 -105 -123 -105v-47h-96v117c52 0 102 8 102 28c0 25 -34 28 -136 28v89z" />
    <glyph glyph-name="uni1EEE" unicode="&#x1eee;" horiz-adv-x="606" 
d="M302 -9c-104 0 -178 19 -221 56s-64 101 -64 190v1113h267v-1076c0 -33 1 -55 3 -68s7 -19 15 -19s13 6 15 19s3 35 3 68v1076h266v-85c84 0 88 69 88 157h136c0 -160 -61 -243 -224 -243v-942c0 -89 -21 -153 -64 -190s-116 -56 -220 -56zM384 1395
c-56 0 -100 52 -130 52c-34 0 -40 -27 -40 -47h-119c0 67 24 145 127 145c56 0 100 -50 131 -50c29 0 40 28 40 47h118c0 -66 -24 -147 -127 -147z" />
    <glyph glyph-name="Uhungarumlaut" unicode="&#x170;" horiz-adv-x="606" 
d="M302 -9c-104 0 -178 19 -221 56s-64 101 -64 190v1113h267v-1076c0 -33 1 -55 3 -68s7 -19 15 -19s13 6 15 19s3 35 3 68v1076h266v-1113c0 -89 -21 -153 -64 -190s-116 -56 -220 -56zM95 1408l108 164h146l-118 -164h-136zM259 1408l106 164h145l-116 -164h-135z" />
    <glyph glyph-name="uni0216" unicode="&#x216;" horiz-adv-x="606" 
d="M302 -9c-104 0 -178 19 -221 56s-64 101 -64 190v1113h267v-1076c0 -33 1 -55 3 -68s7 -19 15 -19s13 6 15 19s3 35 3 68v1076h266v-1113c0 -89 -21 -153 -64 -190s-116 -56 -220 -56zM303 1557c101 0 148 -70 148 -165h-124c0 53 -8 70 -24 70c-18 0 -24 -19 -24 -70
h-124c0 95 48 165 148 165z" />
    <glyph glyph-name="Umacron" unicode="&#x16a;" horiz-adv-x="606" 
d="M302 -9c-104 0 -178 19 -221 56s-64 101 -64 190v1113h267v-1076c0 -33 1 -55 3 -68s7 -19 15 -19s13 6 15 19s3 35 3 68v1076h266v-1113c0 -89 -21 -153 -64 -190s-116 -56 -220 -56zM122 1407v98h361v-98h-361z" />
    <glyph glyph-name="uni1E7A" unicode="&#x1e7a;" horiz-adv-x="606" 
d="M302 -9c-104 0 -178 19 -221 56s-64 101 -64 190v1113h267v-1076c0 -33 1 -55 3 -68s7 -19 15 -19s13 6 15 19s3 35 3 68v1076h266v-1113c0 -89 -21 -153 -64 -190s-116 -56 -220 -56zM122 1407v98h361v-98h-361zM188 1554c-40 0 -72 32 -72 72c0 39 32 71 72 71
c39 0 71 -32 71 -71c0 -40 -32 -72 -71 -72zM420 1554c-40 0 -72 32 -72 72c0 39 32 71 72 71c39 0 71 -32 71 -71c0 -40 -32 -72 -71 -72z" />
    <glyph glyph-name="Uogonek" unicode="&#x172;" horiz-adv-x="606" 
d="M281 -338c-87 0 -176 23 -176 129c0 85 52 174 73 209h13c-47 9 -84 25 -110 47c-43 37 -64 101 -64 190v1113h267v-1076c0 -33 1 -55 3 -68s7 -19 15 -19s13 6 15 19s3 35 3 68v1076h266v-1113c0 -89 -21 -153 -64 -190s-116 -56 -220 -56c-19 -38 -41 -101 -41 -139
c0 -32 17 -48 51 -48c36 0 78 10 83 15l1 -142c-5 -4 -57 -15 -115 -15z" />
    <glyph glyph-name="Uring" unicode="&#x16e;" horiz-adv-x="606" 
d="M302 -9c-104 0 -178 19 -221 56s-64 101 -64 190v1113h267v-1076c0 -33 1 -55 3 -68s7 -19 15 -19s13 6 15 19s3 35 3 68v1076h266v-1113c0 -89 -21 -153 -64 -190s-116 -56 -220 -56zM303 1385c-79 0 -137 61 -137 142c0 78 57 140 137 140c78 0 137 -62 137 -140
c0 -81 -59 -142 -137 -142zM303 1480c23 0 41 20 41 47c0 25 -18 44 -41 44c-24 0 -42 -19 -42 -44c0 -27 18 -47 42 -47z" />
    <glyph glyph-name="Utilde" unicode="&#x168;" horiz-adv-x="606" 
d="M302 -9c-104 0 -178 19 -221 56s-64 101 -64 190v1113h267v-1076c0 -33 1 -55 3 -68s7 -19 15 -19s13 6 15 19s3 35 3 68v1076h266v-1113c0 -89 -21 -153 -64 -190s-116 -56 -220 -56zM384 1395c-56 0 -100 52 -130 52c-34 0 -40 -27 -40 -47h-119c0 67 24 145 127 145
c56 0 100 -50 131 -50c29 0 40 28 40 47h118c0 -66 -24 -147 -127 -147z" />
    <glyph glyph-name="uni1E78" unicode="&#x1e78;" horiz-adv-x="606" 
d="M302 -9c-104 0 -178 19 -221 56s-64 101 -64 190v1113h267v-1076c0 -33 1 -55 3 -68s7 -19 15 -19s13 6 15 19s3 35 3 68v1076h266v-1113c0 -89 -21 -153 -64 -190s-116 -56 -220 -56zM384 1395c-56 0 -100 52 -130 52c-34 0 -40 -27 -40 -47h-119c0 67 24 145 127 145
c56 0 100 -50 131 -50c29 0 40 28 40 47h118c0 -66 -24 -147 -127 -147zM175 1574l81 185h174l-132 -185h-123z" />
    <glyph glyph-name="V" unicode="V" horiz-adv-x="623" 
d="M98 0l-87 1350h272l25 -1157h5l27 1157h271l-88 -1350h-425z" />
    <glyph glyph-name="V.ss01" horiz-adv-x="626" 
d="M92 0l-80 794v556h273v-476l23 -681h8l25 681v476h271v-556l-80 -794h-440z" />
    <glyph glyph-name="W" unicode="W" horiz-adv-x="995" 
d="M72 0l-59 1350h274l9 -1154h4l57 1154h279l57 -1154h4l9 1154h274l-59 -1350h-391l-31 1147h-4l-33 -1147h-390z" />
    <glyph glyph-name="Wacute" unicode="&#x1e82;" horiz-adv-x="995" 
d="M72 0l-59 1350h274l9 -1154h4l57 1154h279l57 -1154h4l9 1154h274l-59 -1350h-391l-31 1147h-4l-33 -1147h-390zM370 1382l81 185h174l-132 -185h-123z" />
    <glyph glyph-name="Wcircumflex" unicode="&#x174;" horiz-adv-x="995" 
d="M72 0l-59 1350h274l9 -1154h4l57 1154h279l57 -1154h4l9 1154h274l-59 -1350h-391l-31 1147h-4l-33 -1147h-390zM321 1396l93 183h169l92 -183h-120l-58 124l-57 -124h-119z" />
    <glyph glyph-name="Wdieresis" unicode="&#x1e84;" horiz-adv-x="995" 
d="M72 0l-59 1350h274l9 -1154h4l57 1154h279l57 -1154h4l9 1154h274l-59 -1350h-391l-31 1147h-4l-33 -1147h-390zM383 1399c-40 0 -72 32 -72 72c0 39 32 71 72 71c39 0 71 -32 71 -71c0 -40 -32 -72 -71 -72zM614 1399c-39 0 -71 32 -71 72c0 39 32 71 71 71
s71 -32 71 -71c0 -40 -32 -72 -71 -72z" />
    <glyph glyph-name="Wgrave" unicode="&#x1e80;" horiz-adv-x="995" 
d="M72 0l-59 1350h274l9 -1154h4l57 1154h279l57 -1154h4l9 1154h274l-59 -1350h-391l-31 1147h-4l-33 -1147h-390zM503 1387l-134 185h178l79 -185h-123z" />
    <glyph glyph-name="X" unicode="X" horiz-adv-x="654" 
d="M7 0l88 668l-82 682h278l35 -569l35 569h278l-83 -682l88 -668h-278l-40 556l-40 -556h-279z" />
    <glyph glyph-name="Y" unicode="Y" horiz-adv-x="637" 
d="M186 0v345l-175 1005h277l30 -708h3l28 708h277l-173 -1005v-345h-267z" />
    <glyph glyph-name="Y.ss01" horiz-adv-x="607" 
d="M118 424l-103 926h256l33 -668l32 668h256l-102 -926h-53v-424h-266v424h-53z" />
    <glyph glyph-name="Yacute" unicode="&#xdd;" horiz-adv-x="637" 
d="M186 0v345l-175 1005h277l30 -708h3l28 708h277l-173 -1005v-345h-267zM192 1382l80 185h175l-132 -185h-123z" />
    <glyph glyph-name="Ycircumflex" unicode="&#x176;" horiz-adv-x="637" 
d="M186 0v345l-175 1005h277l30 -708h3l28 708h277l-173 -1005v-345h-267zM142 1396l93 183h170l91 -183h-120l-57 124l-58 -124h-119z" />
    <glyph glyph-name="Ydieresis" unicode="&#x178;" horiz-adv-x="637" 
d="M186 0v345l-175 1005h277l30 -708h3l28 708h277l-173 -1005v-345h-267zM204 1399c-40 0 -72 32 -72 72c0 39 32 71 72 71c39 0 71 -32 71 -71c0 -40 -32 -72 -71 -72zM436 1399c-40 0 -72 32 -72 72c0 39 32 71 72 71c39 0 71 -32 71 -71c0 -40 -32 -72 -71 -72z" />
    <glyph glyph-name="uni1E8E" unicode="&#x1e8e;" horiz-adv-x="637" 
d="M186 0v345l-175 1005h277l30 -708h3l28 708h277l-173 -1005v-345h-267zM319 1389c-44 0 -80 35 -80 80c0 44 36 79 80 79s80 -35 80 -79s-36 -80 -80 -80z" />
    <glyph glyph-name="uni1EF4" unicode="&#x1ef4;" horiz-adv-x="637" 
d="M186 0v345l-175 1005h277l30 -708h3l28 708h277l-173 -1005v-345h-267zM319 -296c-44 0 -80 36 -80 80s36 80 80 80s80 -36 80 -80s-36 -80 -80 -80z" />
    <glyph glyph-name="Ygrave" unicode="&#x1ef2;" horiz-adv-x="637" 
d="M186 0v345l-175 1005h277l30 -708h3l28 708h277l-173 -1005v-345h-267zM324 1387l-133 185h177l79 -185h-123z" />
    <glyph glyph-name="uni1EF6" unicode="&#x1ef6;" horiz-adv-x="637" 
d="M186 0v345l-175 1005h277l30 -708h3l28 708h277l-173 -1005v-345h-267zM226 1656c161 0 252 -24 252 -110c0 -73 -77 -105 -122 -105v-47h-97v117c52 0 103 8 103 28c0 25 -35 28 -136 28v89z" />
    <glyph glyph-name="uni0232" unicode="&#x232;" horiz-adv-x="637" 
d="M186 0v345l-175 1005h277l30 -708h3l28 708h277l-173 -1005v-345h-267zM139 1407v98h361v-98h-361z" />
    <glyph glyph-name="uni1EF8" unicode="&#x1ef8;" horiz-adv-x="637" 
d="M186 0v345l-175 1005h277l30 -708h3l28 708h277l-173 -1005v-345h-267zM400 1395c-56 0 -100 52 -130 52c-34 0 -39 -27 -39 -47h-120c0 67 24 145 127 145c56 0 100 -50 132 -50c28 0 39 28 39 47h118c0 -66 -24 -147 -127 -147z" />
    <glyph glyph-name="Z" unicode="Z" horiz-adv-x="418" 
d="M16 0v196l138 961h-127v193h370v-192l-137 -965h140v-193h-384z" />
    <glyph glyph-name="Zacute" unicode="&#x179;" horiz-adv-x="418" 
d="M16 0v196l138 961h-127v193h370v-192l-137 -965h140v-193h-384zM82 1382l80 185h175l-132 -185h-123z" />
    <glyph glyph-name="Zcaron" unicode="&#x17d;" horiz-adv-x="418" 
d="M16 0v196l138 961h-127v193h370v-192l-137 -965h140v-193h-384zM125 1388l-93 183h119l58 -124l57 124h120l-91 -183h-170z" />
    <glyph glyph-name="Zdotaccent" unicode="&#x17b;" horiz-adv-x="418" 
d="M16 0v196l138 961h-127v193h370v-192l-137 -965h140v-193h-384zM209 1389c-44 0 -80 35 -80 80c0 44 36 79 80 79s80 -35 80 -79s-36 -80 -80 -80z" />
    <glyph glyph-name="uni1E92" unicode="&#x1e92;" horiz-adv-x="418" 
d="M16 0v196l138 961h-127v193h370v-192l-137 -965h140v-193h-384zM209 -232c-44 0 -80 35 -80 80c0 44 36 79 80 79s80 -35 80 -79s-36 -80 -80 -80z" />
    <glyph glyph-name="a" unicode="a" horiz-adv-x="622" 
d="M390 0l-16 41c-24 -33 -74 -50 -149 -50c-77 0 -130 25 -161 74s-47 146 -47 292c0 133 11 226 31 278c21 52 69 78 143 78h142v247c0 36 -6 54 -17 54c-22 0 -23 -52 -23 -241h-276c0 337 16 438 306 438c135 0 220 -30 257 -90c14 -23 21 -50 21 -81v-444v-596h-211z
M333 295v230h-10c-20 0 -30 -14 -30 -41v-253c0 -29 6 -44 18 -44c11 0 17 8 19 24c2 17 3 45 3 84z" />
    <glyph glyph-name="a.ss01" horiz-adv-x="605" 
d="M378 0l-22 55c-54 -40 -111 -60 -172 -60c-111 0 -166 59 -166 177v860c0 117 55 176 166 176c48 0 94 -13 138 -38v30h263v-1200h-207zM322 394v416c0 71 -2 122 -5 155c-3 32 -9 49 -20 49c-12 0 -17 -21 -17 -63v-701c0 -42 5 -63 17 -63c11 0 17 16 20 49s5 85 5 158
z" />
    <glyph glyph-name="aacute" unicode="&#xe1;" horiz-adv-x="622" 
d="M390 0l-16 41c-24 -33 -74 -50 -149 -50c-77 0 -130 25 -161 74s-47 146 -47 292c0 133 11 226 31 278c21 52 69 78 143 78h142v247c0 36 -6 54 -17 54c-22 0 -23 -52 -23 -241h-276c0 337 16 438 306 438c135 0 220 -30 257 -90c14 -23 21 -50 21 -81v-444v-596h-211z
M192 1232l80 185h175l-132 -185h-123zM333 295v230h-10c-20 0 -30 -14 -30 -41v-253c0 -29 6 -44 18 -44c11 0 17 8 19 24c2 17 3 45 3 84z" />
    <glyph glyph-name="abreve" unicode="&#x103;" horiz-adv-x="622" 
d="M390 0l-16 41c-24 -33 -74 -50 -149 -50c-77 0 -130 25 -161 74s-47 146 -47 292c0 133 11 226 31 278c21 52 69 78 143 78h142v247c0 36 -6 54 -17 54c-22 0 -23 -52 -23 -241h-276c0 337 16 438 306 438c135 0 220 -30 257 -90c14 -23 21 -50 21 -81v-444v-596h-211z
M320 1238c-102 0 -149 69 -149 164h124c0 -52 8 -69 25 -69s23 19 23 69h125c0 -95 -48 -164 -148 -164zM333 295v230h-10c-20 0 -30 -14 -30 -41v-253c0 -29 6 -44 18 -44c11 0 17 8 19 24c2 17 3 45 3 84z" />
    <glyph glyph-name="uni1EAF" unicode="&#x1eaf;" horiz-adv-x="622" 
d="M390 0l-16 41c-24 -33 -74 -50 -149 -50c-77 0 -130 25 -161 74s-47 146 -47 292c0 133 11 226 31 278c21 52 69 78 143 78h142v247c0 36 -6 54 -17 54c-22 0 -23 -52 -23 -241h-276c0 337 16 438 306 438c135 0 220 -30 257 -90c14 -23 21 -50 21 -81v-444v-596h-211z
M320 1238c-102 0 -149 69 -149 164h124c0 -52 8 -69 25 -69s23 19 23 69h125c0 -95 -48 -164 -148 -164zM192 1434l80 185h175l-132 -185h-123zM333 295v230h-10c-20 0 -30 -14 -30 -41v-253c0 -29 6 -44 18 -44c11 0 17 8 19 24c2 17 3 45 3 84z" />
    <glyph glyph-name="uni1EB7" unicode="&#x1eb7;" horiz-adv-x="622" 
d="M390 0l-16 41c-24 -33 -74 -50 -149 -50c-77 0 -130 25 -161 74s-47 146 -47 292c0 133 11 226 31 278c21 52 69 78 143 78h142v247c0 36 -6 54 -17 54c-22 0 -23 -52 -23 -241h-276c0 337 16 438 306 438c135 0 220 -30 257 -90c14 -23 21 -50 21 -81v-444v-596h-211z
M320 1238c-102 0 -149 69 -149 164h124c0 -52 8 -69 25 -69s23 19 23 69h125c0 -95 -48 -164 -148 -164zM313 -296c-44 0 -80 36 -80 80s35 80 80 80c43 0 79 -36 79 -80s-35 -80 -79 -80zM333 295v230h-10c-20 0 -30 -14 -30 -41v-253c0 -29 6 -44 18 -44c11 0 17 8 19 24
c2 17 3 45 3 84z" />
    <glyph glyph-name="uni1EB1" unicode="&#x1eb1;" horiz-adv-x="622" 
d="M390 0l-16 41c-24 -33 -74 -50 -149 -50c-77 0 -130 25 -161 74s-47 146 -47 292c0 133 11 226 31 278c21 52 69 78 143 78h142v247c0 36 -6 54 -17 54c-22 0 -23 -52 -23 -241h-276c0 337 16 438 306 438c135 0 220 -30 257 -90c14 -23 21 -50 21 -81v-444v-596h-211z
M320 1238c-102 0 -149 69 -149 164h124c0 -52 8 -69 25 -69s23 19 23 69h125c0 -95 -48 -164 -148 -164zM325 1439l-134 185h178l79 -185h-123zM333 295v230h-10c-20 0 -30 -14 -30 -41v-253c0 -29 6 -44 18 -44c11 0 17 8 19 24c2 17 3 45 3 84z" />
    <glyph glyph-name="uni1EB3" unicode="&#x1eb3;" horiz-adv-x="622" 
d="M390 0l-16 41c-24 -33 -74 -50 -149 -50c-77 0 -130 25 -161 74s-47 146 -47 292c0 133 11 226 31 278c21 52 69 78 143 78h142v247c0 36 -6 54 -17 54c-22 0 -23 -52 -23 -241h-276c0 337 16 438 306 438c135 0 220 -30 257 -90c14 -23 21 -50 21 -81v-444v-596h-211z
M226 1708c162 0 253 -24 253 -110c0 -73 -78 -105 -123 -105v-47h-96v117c51 0 102 8 102 28c0 25 -35 28 -136 28v89zM320 1238c-102 0 -149 69 -149 164h124c0 -52 8 -69 25 -69s23 19 23 69h125c0 -95 -48 -164 -148 -164zM333 295v230h-10c-20 0 -30 -14 -30 -41v-253
c0 -29 6 -44 18 -44c11 0 17 8 19 24c2 17 3 45 3 84z" />
    <glyph glyph-name="uni1EB5" unicode="&#x1eb5;" horiz-adv-x="622" 
d="M390 0l-16 41c-24 -33 -74 -50 -149 -50c-77 0 -130 25 -161 74s-47 146 -47 292c0 133 11 226 31 278c21 52 69 78 143 78h142v247c0 36 -6 54 -17 54c-22 0 -23 -52 -23 -241h-276c0 337 16 438 306 438c135 0 220 -30 257 -90c14 -23 21 -50 21 -81v-444v-596h-211z
M400 1447c-56 0 -99 52 -130 52c-33 0 -39 -27 -39 -47h-120c0 67 24 145 128 145c56 0 100 -50 131 -50c28 0 39 28 39 47h119c0 -66 -25 -147 -128 -147zM320 1238c-102 0 -149 69 -149 164h124c0 -52 8 -69 25 -69s23 19 23 69h125c0 -95 -48 -164 -148 -164zM333 295
v230h-10c-20 0 -30 -14 -30 -41v-253c0 -29 6 -44 18 -44c11 0 17 8 19 24c2 17 3 45 3 84z" />
    <glyph glyph-name="uni01CE" unicode="&#x1ce;" horiz-adv-x="622" 
d="M390 0l-16 41c-24 -33 -74 -50 -149 -50c-77 0 -130 25 -161 74s-47 146 -47 292c0 133 11 226 31 278c21 52 69 78 143 78h142v247c0 36 -6 54 -17 54c-22 0 -23 -52 -23 -241h-276c0 337 16 438 306 438c135 0 220 -30 257 -90c14 -23 21 -50 21 -81v-444v-596h-211z
M235 1238l-93 183h119l58 -124l57 124h120l-91 -183h-170zM333 295v230h-10c-20 0 -30 -14 -30 -41v-253c0 -29 6 -44 18 -44c11 0 17 8 19 24c2 17 3 45 3 84z" />
    <glyph glyph-name="acircumflex" unicode="&#xe2;" horiz-adv-x="622" 
d="M390 0l-16 41c-24 -33 -74 -50 -149 -50c-77 0 -130 25 -161 74s-47 146 -47 292c0 133 11 226 31 278c21 52 69 78 143 78h142v247c0 36 -6 54 -17 54c-22 0 -23 -52 -23 -241h-276c0 337 16 438 306 438c135 0 220 -30 257 -90c14 -23 21 -50 21 -81v-444v-596h-211z
M142 1246l93 183h170l91 -183h-120l-57 124l-58 -124h-119zM333 295v230h-10c-20 0 -30 -14 -30 -41v-253c0 -29 6 -44 18 -44c11 0 17 8 19 24c2 17 3 45 3 84z" />
    <glyph glyph-name="uni1EA5" unicode="&#x1ea5;" horiz-adv-x="622" 
d="M390 0l-16 41c-24 -33 -74 -50 -149 -50c-77 0 -130 25 -161 74s-47 146 -47 292c0 133 11 226 31 278c21 52 69 78 143 78h142v247c0 36 -6 54 -17 54c-22 0 -23 -52 -23 -241h-276c0 337 16 438 306 438c135 0 220 -30 257 -90c14 -23 21 -50 21 -81v-444v-596h-211z
M142 1246l93 183h170l91 -183h-120l-57 124l-58 -124h-119zM192 1461l80 185h175l-132 -185h-123zM333 295v230h-10c-20 0 -30 -14 -30 -41v-253c0 -29 6 -44 18 -44c11 0 17 8 19 24c2 17 3 45 3 84z" />
    <glyph glyph-name="uni1EAD" unicode="&#x1ead;" horiz-adv-x="622" 
d="M390 0l-16 41c-24 -33 -74 -50 -149 -50c-77 0 -130 25 -161 74s-47 146 -47 292c0 133 11 226 31 278c21 52 69 78 143 78h142v247c0 36 -6 54 -17 54c-22 0 -23 -52 -23 -241h-276c0 337 16 438 306 438c135 0 220 -30 257 -90c14 -23 21 -50 21 -81v-444v-596h-211z
M142 1246l93 183h170l91 -183h-120l-57 124l-58 -124h-119zM313 -296c-44 0 -80 36 -80 80s35 80 80 80c43 0 79 -36 79 -80s-35 -80 -79 -80zM333 295v230h-10c-20 0 -30 -14 -30 -41v-253c0 -29 6 -44 18 -44c11 0 17 8 19 24c2 17 3 45 3 84z" />
    <glyph glyph-name="uni1EA7" unicode="&#x1ea7;" horiz-adv-x="622" 
d="M390 0l-16 41c-24 -33 -74 -50 -149 -50c-77 0 -130 25 -161 74s-47 146 -47 292c0 133 11 226 31 278c21 52 69 78 143 78h142v247c0 36 -6 54 -17 54c-22 0 -23 -52 -23 -241h-276c0 337 16 438 306 438c135 0 220 -30 257 -90c14 -23 21 -50 21 -81v-444v-596h-211z
M142 1246l93 183h170l91 -183h-120l-57 124l-58 -124h-119zM325 1466l-134 185h178l79 -185h-123zM333 295v230h-10c-20 0 -30 -14 -30 -41v-253c0 -29 6 -44 18 -44c11 0 17 8 19 24c2 17 3 45 3 84z" />
    <glyph glyph-name="uni1EA9" unicode="&#x1ea9;" horiz-adv-x="622" 
d="M390 0l-16 41c-24 -33 -74 -50 -149 -50c-77 0 -130 25 -161 74s-47 146 -47 292c0 133 11 226 31 278c21 52 69 78 143 78h142v247c0 36 -6 54 -17 54c-22 0 -23 -52 -23 -241h-276c0 337 16 438 306 438c135 0 220 -30 257 -90c14 -23 21 -50 21 -81v-444v-596h-211z
M226 1734c162 0 253 -23 253 -109c0 -74 -78 -105 -123 -105v-48h-96v117c51 0 102 8 102 29c0 24 -35 28 -136 28v88zM142 1246l93 183h170l91 -183h-120l-57 124l-58 -124h-119zM333 295v230h-10c-20 0 -30 -14 -30 -41v-253c0 -29 6 -44 18 -44c11 0 17 8 19 24
c2 17 3 45 3 84z" />
    <glyph glyph-name="uni1EAB" unicode="&#x1eab;" horiz-adv-x="622" 
d="M390 0l-16 41c-24 -33 -74 -50 -149 -50c-77 0 -130 25 -161 74s-47 146 -47 292c0 133 11 226 31 278c21 52 69 78 143 78h142v247c0 36 -6 54 -17 54c-22 0 -23 -52 -23 -241h-276c0 337 16 438 306 438c135 0 220 -30 257 -90c14 -23 21 -50 21 -81v-444v-596h-211z
M400 1474c-56 0 -99 52 -130 52c-33 0 -39 -27 -39 -47h-120c0 67 24 144 128 144c56 0 100 -49 131 -49c28 0 39 27 39 47h119c0 -67 -25 -147 -128 -147zM142 1246l93 183h170l91 -183h-120l-57 124l-58 -124h-119zM333 295v230h-10c-20 0 -30 -14 -30 -41v-253
c0 -29 6 -44 18 -44c11 0 17 8 19 24c2 17 3 45 3 84z" />
    <glyph glyph-name="uni0201" unicode="&#x201;" horiz-adv-x="622" 
d="M390 0l-16 41c-24 -33 -74 -50 -149 -50c-77 0 -130 25 -161 74s-47 146 -47 292c0 133 11 226 31 278c21 52 69 78 143 78h142v247c0 36 -6 54 -17 54c-22 0 -23 -52 -23 -241h-276c0 337 16 438 306 438c135 0 220 -30 257 -90c14 -23 21 -50 21 -81v-444v-596h-211z
M207 1258l-134 185h178l79 -185h-123zM442 1258l-134 185h178l79 -185h-123zM333 295v230h-10c-20 0 -30 -14 -30 -41v-253c0 -29 6 -44 18 -44c11 0 17 8 19 24c2 17 3 45 3 84z" />
    <glyph glyph-name="adieresis" unicode="&#xe4;" horiz-adv-x="622" 
d="M390 0l-16 41c-24 -33 -74 -50 -149 -50c-77 0 -130 25 -161 74s-47 146 -47 292c0 133 11 226 31 278c21 52 69 78 143 78h142v247c0 36 -6 54 -17 54c-22 0 -23 -52 -23 -241h-276c0 337 16 438 306 438c135 0 220 -30 257 -90c14 -23 21 -50 21 -81v-444v-596h-211z
M204 1249c-39 0 -71 32 -71 72c0 39 32 71 71 71s71 -32 71 -71c0 -40 -32 -72 -71 -72zM436 1249c-40 0 -72 32 -72 72c0 39 32 71 72 71c39 0 71 -32 71 -71c0 -40 -32 -72 -71 -72zM333 295v230h-10c-20 0 -30 -14 -30 -41v-253c0 -29 6 -44 18 -44c11 0 17 8 19 24
c2 17 3 45 3 84z" />
    <glyph glyph-name="uni1EA1" unicode="&#x1ea1;" horiz-adv-x="622" 
d="M390 0l-16 41c-24 -33 -74 -50 -149 -50c-77 0 -130 25 -161 74s-47 146 -47 292c0 133 11 226 31 278c21 52 69 78 143 78h142v247c0 36 -6 54 -17 54c-22 0 -23 -52 -23 -241h-276c0 337 16 438 306 438c135 0 220 -30 257 -90c14 -23 21 -50 21 -81v-444v-596h-211z
M313 -296c-44 0 -80 36 -80 80s35 80 80 80c43 0 79 -36 79 -80s-35 -80 -79 -80zM333 295v230h-10c-20 0 -30 -14 -30 -41v-253c0 -29 6 -44 18 -44c11 0 17 8 19 24c2 17 3 45 3 84z" />
    <glyph glyph-name="agrave" unicode="&#xe0;" horiz-adv-x="622" 
d="M390 0l-16 41c-24 -33 -74 -50 -149 -50c-77 0 -130 25 -161 74s-47 146 -47 292c0 133 11 226 31 278c21 52 69 78 143 78h142v247c0 36 -6 54 -17 54c-22 0 -23 -52 -23 -241h-276c0 337 16 438 306 438c135 0 220 -30 257 -90c14 -23 21 -50 21 -81v-444v-596h-211z
M325 1237l-134 185h178l79 -185h-123zM333 295v230h-10c-20 0 -30 -14 -30 -41v-253c0 -29 6 -44 18 -44c11 0 17 8 19 24c2 17 3 45 3 84z" />
    <glyph glyph-name="uni1EA3" unicode="&#x1ea3;" horiz-adv-x="622" 
d="M390 0l-16 41c-24 -33 -74 -50 -149 -50c-77 0 -130 25 -161 74s-47 146 -47 292c0 133 11 226 31 278c21 52 69 78 143 78h142v247c0 36 -6 54 -17 54c-22 0 -23 -52 -23 -241h-276c0 337 16 438 306 438c135 0 220 -30 257 -90c14 -23 21 -50 21 -81v-444v-596h-211z
M226 1506c162 0 253 -24 253 -110c0 -73 -78 -105 -123 -105v-47h-96v117c51 0 102 8 102 28c0 25 -35 28 -136 28v89zM333 295v230h-10c-20 0 -30 -14 -30 -41v-253c0 -29 6 -44 18 -44c11 0 17 8 19 24c2 17 3 45 3 84z" />
    <glyph glyph-name="uni0203" unicode="&#x203;" horiz-adv-x="622" 
d="M390 0l-16 41c-24 -33 -74 -50 -149 -50c-77 0 -130 25 -161 74s-47 146 -47 292c0 133 11 226 31 278c21 52 69 78 143 78h142v247c0 36 -6 54 -17 54c-22 0 -23 -52 -23 -241h-276c0 337 16 438 306 438c135 0 220 -30 257 -90c14 -23 21 -50 21 -81v-444v-596h-211z
M319 1407c102 0 149 -70 149 -165h-124c0 53 -8 70 -25 70s-23 -19 -23 -70h-125c0 95 48 165 148 165zM333 295v230h-10c-20 0 -30 -14 -30 -41v-253c0 -29 6 -44 18 -44c11 0 17 8 19 24c2 17 3 45 3 84z" />
    <glyph glyph-name="amacron" unicode="&#x101;" horiz-adv-x="622" 
d="M390 0l-16 41c-24 -33 -74 -50 -149 -50c-77 0 -130 25 -161 74s-47 146 -47 292c0 133 11 226 31 278c21 52 69 78 143 78h142v247c0 36 -6 54 -17 54c-22 0 -23 -52 -23 -241h-276c0 337 16 438 306 438c135 0 220 -30 257 -90c14 -23 21 -50 21 -81v-444v-596h-211z
M139 1257v98h361v-98h-361zM333 295v230h-10c-20 0 -30 -14 -30 -41v-253c0 -29 6 -44 18 -44c11 0 17 8 19 24c2 17 3 45 3 84z" />
    <glyph glyph-name="aogonek" unicode="&#x105;" horiz-adv-x="622" 
d="M390 0l-16 41c-24 -33 -74 -50 -149 -50c-77 0 -130 25 -161 74s-47 146 -47 292c0 133 11 226 31 278c21 52 69 78 143 78h142v247c0 36 -6 54 -17 54c-22 0 -23 -52 -23 -241h-276c0 337 16 438 306 438c135 0 220 -30 257 -90c14 -23 21 -50 21 -81v-444v-596
c-20 -36 -46 -106 -46 -148c0 -32 17 -48 51 -48c36 0 78 10 83 15l1 -142c-6 -4 -57 -15 -115 -15c-87 0 -177 23 -177 129c0 85 53 174 73 209h-81zM333 525h-10c-20 0 -30 -14 -30 -41v-253c0 -29 6 -44 18 -44c11 0 17 8 19 24c2 17 3 45 3 84v230z" />
    <glyph glyph-name="aring" unicode="&#xe5;" horiz-adv-x="622" 
d="M390 0l-16 41c-24 -33 -74 -50 -149 -50c-77 0 -130 25 -161 74s-47 146 -47 292c0 133 11 226 31 278c21 52 69 78 143 78h142v247c0 36 -6 54 -17 54c-22 0 -23 -52 -23 -241h-276c0 337 16 438 306 438c135 0 220 -30 257 -90c14 -23 21 -50 21 -81v-444v-596h-211z
M319 1235c-79 0 -137 61 -137 142c0 78 58 140 137 140c78 0 137 -62 137 -140c0 -81 -59 -142 -137 -142zM333 295v230h-10c-20 0 -30 -14 -30 -41v-253c0 -29 6 -44 18 -44c11 0 17 8 19 24c2 17 3 45 3 84zM319 1330c24 0 42 20 42 47c0 25 -18 44 -42 44
c-23 0 -41 -19 -41 -44c0 -27 18 -47 41 -47z" />
    <glyph glyph-name="aringacute" unicode="&#x1fb;" horiz-adv-x="622" 
d="M390 0l-16 41c-24 -33 -74 -50 -149 -50c-77 0 -130 25 -161 74s-47 146 -47 292c0 133 11 226 31 278c21 52 69 78 143 78h142v247c0 36 -6 54 -17 54c-22 0 -23 -52 -23 -241h-276c0 337 16 438 306 438c135 0 220 -30 257 -90c14 -23 21 -50 21 -81v-444v-596h-211z
M319 1235c-79 0 -137 61 -137 142c0 78 58 140 137 140c78 0 137 -62 137 -140c0 -81 -59 -142 -137 -142zM192 1549l80 185h175l-132 -185h-123zM333 295v230h-10c-20 0 -30 -14 -30 -41v-253c0 -29 6 -44 18 -44c11 0 17 8 19 24c2 17 3 45 3 84zM319 1330
c24 0 42 20 42 47c0 25 -18 44 -42 44c-23 0 -41 -19 -41 -44c0 -27 18 -47 41 -47z" />
    <glyph glyph-name="atilde" unicode="&#xe3;" horiz-adv-x="622" 
d="M390 0l-16 41c-24 -33 -74 -50 -149 -50c-77 0 -130 25 -161 74s-47 146 -47 292c0 133 11 226 31 278c21 52 69 78 143 78h142v247c0 36 -6 54 -17 54c-22 0 -23 -52 -23 -241h-276c0 337 16 438 306 438c135 0 220 -30 257 -90c14 -23 21 -50 21 -81v-444v-596h-211z
M400 1245c-56 0 -99 52 -130 52c-33 0 -39 -27 -39 -47h-120c0 67 24 145 128 145c56 0 100 -50 131 -50c28 0 39 28 39 47h119c0 -66 -25 -147 -128 -147zM333 295v230h-10c-20 0 -30 -14 -30 -41v-253c0 -29 6 -44 18 -44c11 0 17 8 19 24c2 17 3 45 3 84z" />
    <glyph glyph-name="ae" unicode="&#xe6;" horiz-adv-x="928" 
d="M217 -9c-66 0 -116 24 -149 72c-34 48 -51 135 -51 260c0 139 16 229 46 272c31 42 83 63 158 63h113v329c0 32 -6 49 -20 49c-13 0 -20 -17 -20 -50v-261h-268v349c0 91 96 137 288 137c63 0 116 -5 158 -15c41 10 90 16 149 16c192 0 287 -55 287 -166v-533h-307v-254
c0 -48 6 -72 19 -72c21 0 22 60 22 247h266c0 -350 -32 -443 -288 -443c-90 0 -158 13 -206 38c-40 -25 -106 -38 -197 -38zM601 686h41v264c0 43 -7 64 -21 64c-13 0 -20 -21 -20 -64v-264zM334 386v94h-12c-18 0 -28 -11 -28 -34v-134c0 -44 0 -79 1 -106
c0 -28 5 -41 17 -41c10 0 17 10 19 31s3 85 3 190z" />
    <glyph glyph-name="aeacute" unicode="&#x1fd;" horiz-adv-x="928" 
d="M217 -9c-66 0 -116 24 -149 72c-34 48 -51 135 -51 260c0 139 16 229 46 272c31 42 83 63 158 63h113v329c0 32 -6 49 -20 49c-13 0 -20 -17 -20 -50v-261h-268v349c0 91 96 137 288 137c63 0 116 -5 158 -15c41 10 90 16 149 16c192 0 287 -55 287 -166v-533h-307v-254
c0 -48 6 -72 19 -72c21 0 22 60 22 247h266c0 -350 -32 -443 -288 -443c-90 0 -158 13 -206 38c-40 -25 -106 -38 -197 -38zM335 1232l81 185h174l-132 -185h-123zM601 686h41v264c0 43 -7 64 -21 64c-13 0 -20 -21 -20 -64v-264zM334 386v94h-12c-18 0 -28 -11 -28 -34
v-134c0 -44 0 -79 1 -106c0 -28 5 -41 17 -41c10 0 17 10 19 31s3 85 3 190z" />
    <glyph glyph-name="b" unicode="b" horiz-adv-x="604" 
d="M17 0v1570h264v-400c43 25 89 38 137 38c111 0 167 -59 167 -176v-860c0 -118 -56 -177 -167 -177c-59 0 -114 19 -166 56l-17 -51h-218zM281 810v-416c0 -75 1 -128 4 -159c3 -32 10 -48 20 -48c12 0 18 20 18 61v703c0 42 -6 63 -18 63c-10 0 -17 -17 -20 -49
c-3 -33 -4 -84 -4 -155z" />
    <glyph glyph-name="c" unicode="c" horiz-adv-x="612" 
d="M303 -9c-190 0 -285 57 -285 171v883c0 111 95 166 285 166c192 0 288 -56 288 -168v-377h-268v282c0 44 -7 66 -20 66c-14 0 -20 -22 -20 -66v-688c0 -49 6 -73 20 -73c13 0 20 24 20 73v269h268v-362c0 -117 -96 -176 -288 -176z" />
    <glyph glyph-name="cacute" unicode="&#x107;" horiz-adv-x="612" 
d="M303 -9c-190 0 -285 57 -285 171v883c0 111 95 166 285 166c192 0 288 -56 288 -168v-377h-268v282c0 44 -7 66 -20 66c-14 0 -20 -22 -20 -66v-688c0 -49 6 -73 20 -73c13 0 20 24 20 73v269h268v-362c0 -117 -96 -176 -288 -176zM177 1232l81 185h174l-132 -185h-123z
" />
    <glyph glyph-name="ccaron" unicode="&#x10d;" horiz-adv-x="612" 
d="M303 -9c-190 0 -285 57 -285 171v883c0 111 95 166 285 166c192 0 288 -56 288 -168v-377h-268v282c0 44 -7 66 -20 66c-14 0 -20 -22 -20 -66v-688c0 -49 6 -73 20 -73c13 0 20 24 20 73v269h268v-362c0 -117 -96 -176 -288 -176zM221 1238l-93 183h119l57 -124l58 124
h120l-92 -183h-169z" />
    <glyph glyph-name="ccedilla" unicode="&#xe7;" horiz-adv-x="612" 
d="M294 -305c-33 0 -78 4 -107 12l29 111c16 -5 47 -10 75 -10c55 0 75 16 75 42c0 16 -9 24 -20 24c-9 0 -17 -4 -24 -12l-96 11l29 119c-158 9 -237 66 -237 170v883c0 111 95 166 285 166c192 0 288 -56 288 -168v-377h-268v282c0 44 -7 66 -20 66c-14 0 -20 -22 -20 -66
v-688c0 -49 6 -73 20 -73c13 0 20 24 20 73v269h268v-362c0 -105 -78 -164 -233 -174l-16 -59c16 12 38 20 71 20c61 0 92 -34 92 -99c0 -100 -96 -160 -211 -160z" />
    <glyph glyph-name="uni1E09" unicode="&#x1e09;" horiz-adv-x="612" 
d="M294 -305c-33 0 -78 4 -107 12l29 111c16 -5 47 -10 75 -10c55 0 75 16 75 42c0 16 -9 24 -20 24c-9 0 -17 -4 -24 -12l-96 11l29 119c-158 9 -237 66 -237 170v883c0 111 95 166 285 166c192 0 288 -56 288 -168v-377h-268v282c0 44 -7 66 -20 66c-14 0 -20 -22 -20 -66
v-688c0 -49 6 -73 20 -73c13 0 20 24 20 73v269h268v-362c0 -105 -78 -164 -233 -174l-16 -59c16 12 38 20 71 20c61 0 92 -34 92 -99c0 -100 -96 -160 -211 -160zM177 1232l81 185h174l-132 -185h-123z" />
    <glyph glyph-name="ccircumflex" unicode="&#x109;" horiz-adv-x="612" 
d="M303 -9c-190 0 -285 57 -285 171v883c0 111 95 166 285 166c192 0 288 -56 288 -168v-377h-268v282c0 44 -7 66 -20 66c-14 0 -20 -22 -20 -66v-688c0 -49 6 -73 20 -73c13 0 20 24 20 73v269h268v-362c0 -117 -96 -176 -288 -176zM128 1246l93 183h169l92 -183h-120
l-58 124l-57 -124h-119z" />
    <glyph glyph-name="cdotaccent" unicode="&#x10b;" horiz-adv-x="612" 
d="M303 -9c-190 0 -285 57 -285 171v883c0 111 95 166 285 166c192 0 288 -56 288 -168v-377h-268v282c0 44 -7 66 -20 66c-14 0 -20 -22 -20 -66v-688c0 -49 6 -73 20 -73c13 0 20 24 20 73v269h268v-362c0 -117 -96 -176 -288 -176zM305 1239c-44 0 -80 35 -80 80
c0 44 36 79 80 79s80 -35 80 -79s-36 -80 -80 -80z" />
    <glyph glyph-name="d" unicode="d" horiz-adv-x="605" 
d="M367 0l-16 52c-53 -38 -108 -57 -167 -57c-111 0 -166 59 -166 177v860c0 117 55 176 166 176c48 0 94 -13 138 -38v400h263v-1570h-218zM322 394v416c0 71 -2 122 -5 155c-3 32 -9 49 -20 49c-12 0 -17 -21 -17 -63v-701c0 -42 5 -63 17 -63c11 0 17 16 20 49
s5 85 5 158z" />
    <glyph glyph-name="eth" unicode="&#xf0;" horiz-adv-x="602" 
d="M300 -9c-188 0 -282 59 -282 176v866c0 118 94 177 282 177c8 0 16 -1 25 -1c-10 47 -23 83 -40 111l-23 -42l-107 40l38 72c-24 8 -52 12 -85 14l49 173c41 -4 82 -13 122 -27l28 51l112 -36l-38 -68c107 -76 189 -212 199 -443c1 -7 2 -14 2 -21v-866
c0 -117 -94 -176 -282 -176zM300 187c12 0 18 22 18 65v696c0 44 -6 66 -18 66c-13 0 -19 -22 -19 -66v-696c0 -43 6 -65 19 -65z" />
    <glyph glyph-name="dcaron" unicode="&#x10f;" horiz-adv-x="839" 
d="M367 0l-16 52c-53 -38 -108 -57 -167 -57c-111 0 -166 59 -166 177v860c0 117 55 176 166 176c48 0 94 -13 138 -38v400h263v-1570h-218zM635 1273l32 297h172l-34 -297h-170zM322 394v416c0 71 -2 122 -5 155c-3 32 -9 49 -20 49c-12 0 -17 -21 -17 -63v-701
c0 -42 5 -63 17 -63c11 0 17 16 20 49s5 85 5 158z" />
    <glyph glyph-name="dcroat" unicode="&#x111;" horiz-adv-x="605" 
d="M196 1332v144h126v94h263v-94h43v-144h-43v-1332h-218l-16 52c-53 -38 -108 -57 -167 -57c-111 0 -166 59 -166 177v860c0 117 55 176 166 176c48 0 94 -13 138 -38v162h-126zM322 394v416c0 71 -2 122 -5 155c-3 32 -9 49 -20 49c-12 0 -17 -21 -17 -63v-701
c0 -42 5 -63 17 -63c11 0 17 16 20 49s5 85 5 158z" />
    <glyph glyph-name="uni1E0D" unicode="&#x1e0d;" horiz-adv-x="605" 
d="M367 0l-16 52c-53 -38 -108 -57 -167 -57c-111 0 -166 59 -166 177v860c0 117 55 176 166 176c48 0 94 -13 138 -38v400h263v-1570h-218zM322 394v416c0 71 -2 122 -5 155c-3 32 -9 49 -20 49c-12 0 -17 -21 -17 -63v-701c0 -42 5 -63 17 -63c11 0 17 16 20 49
s5 85 5 158zM303 -296c-44 0 -80 36 -80 80s35 80 80 80c43 0 79 -36 79 -80s-35 -80 -79 -80z" />
    <glyph glyph-name="uni1E0F" unicode="&#x1e0f;" horiz-adv-x="605" 
d="M367 0l-16 52c-53 -38 -108 -57 -167 -57c-111 0 -166 59 -166 177v860c0 117 55 176 166 176c48 0 94 -13 138 -38v400h263v-1570h-218zM122 -207v98h361v-98h-361zM322 394v416c0 71 -2 122 -5 155c-3 32 -9 49 -20 49c-12 0 -17 -21 -17 -63v-701c0 -42 5 -63 17 -63
c11 0 17 16 20 49s5 85 5 158z" />
    <glyph glyph-name="uni01C6" unicode="&#x1c6;" horiz-adv-x="1024" 
d="M367 0l-16 52c-53 -38 -108 -57 -167 -57c-111 0 -166 59 -166 177v860c0 117 55 176 166 176c48 0 94 -13 138 -38v400h263v-1570h-218zM619 0v183l130 824h-121v193h379v-183l-129 -824h132v-193h-391zM735 1238l-93 183h119l57 -124l58 124h120l-92 -183h-169z
M322 394v416c0 71 -2 122 -5 155c-3 32 -9 49 -20 49c-12 0 -17 -21 -17 -63v-701c0 -42 5 -63 17 -63c11 0 17 16 20 49s5 85 5 158z" />
    <glyph glyph-name="e" unicode="e" horiz-adv-x="611" 
d="M303 -9c-190 0 -285 57 -285 172v882c0 111 95 167 287 167c191 0 287 -55 287 -166v-533h-308v-254c0 -48 6 -72 19 -72c21 0 22 60 22 247h267c0 -350 -33 -443 -289 -443zM284 686h41v264c0 43 -7 64 -20 64c-14 0 -21 -21 -21 -64v-264z" />
    <glyph glyph-name="eacute" unicode="&#xe9;" horiz-adv-x="611" 
d="M303 -9c-190 0 -285 57 -285 172v882c0 111 95 167 287 167c191 0 287 -55 287 -166v-533h-308v-254c0 -48 6 -72 19 -72c21 0 22 60 22 247h267c0 -350 -33 -443 -289 -443zM179 1232l80 185h175l-132 -185h-123zM284 686h41v264c0 43 -7 64 -20 64
c-14 0 -21 -21 -21 -64v-264z" />
    <glyph glyph-name="ebreve" unicode="&#x115;" horiz-adv-x="611" 
d="M303 -9c-190 0 -285 57 -285 172v882c0 111 95 167 287 167c191 0 287 -55 287 -166v-533h-308v-254c0 -48 6 -72 19 -72c21 0 22 60 22 247h267c0 -350 -33 -443 -289 -443zM306 1238c-101 0 -148 69 -148 164h124c0 -52 8 -69 24 -69c18 0 24 19 24 69h124
c0 -95 -48 -164 -148 -164zM284 686h41v264c0 43 -7 64 -20 64c-14 0 -21 -21 -21 -64v-264z" />
    <glyph glyph-name="ecaron" unicode="&#x11b;" horiz-adv-x="611" 
d="M303 -9c-190 0 -285 57 -285 172v882c0 111 95 167 287 167c191 0 287 -55 287 -166v-533h-308v-254c0 -48 6 -72 19 -72c21 0 22 60 22 247h267c0 -350 -33 -443 -289 -443zM222 1238l-93 183h119l58 -124l57 124h120l-91 -183h-170zM284 686h41v264c0 43 -7 64 -20 64
c-14 0 -21 -21 -21 -64v-264z" />
    <glyph glyph-name="uni1E1D" unicode="&#x1e1d;" horiz-adv-x="611" 
d="M303 187c21 0 22 60 22 247h267c0 -323 -28 -427 -233 -441l-16 -59c16 12 38 20 71 20c61 0 92 -34 92 -99c0 -100 -96 -160 -211 -160c-33 0 -78 4 -107 12l29 111c16 -5 47 -10 75 -10c55 0 75 16 75 42c0 16 -9 24 -20 24c-9 0 -17 -4 -24 -12l-96 11l29 119
c-159 9 -238 66 -238 171v882c0 111 95 167 287 167c191 0 287 -55 287 -166v-533h-308v-254c0 -48 6 -72 19 -72zM306 1238c-101 0 -148 69 -148 164h124c0 -52 8 -69 24 -69c18 0 24 19 24 69h124c0 -95 -48 -164 -148 -164zM284 686h41v264c0 43 -7 64 -20 64
c-14 0 -21 -21 -21 -64v-264z" />
    <glyph glyph-name="ecircumflex" unicode="&#xea;" horiz-adv-x="611" 
d="M303 -9c-190 0 -285 57 -285 172v882c0 111 95 167 287 167c191 0 287 -55 287 -166v-533h-308v-254c0 -48 6 -72 19 -72c21 0 22 60 22 247h267c0 -350 -33 -443 -289 -443zM129 1246l93 183h170l91 -183h-120l-57 124l-58 -124h-119zM284 686h41v264c0 43 -7 64 -20 64
c-14 0 -21 -21 -21 -64v-264z" />
    <glyph glyph-name="uni1EBF" unicode="&#x1ebf;" horiz-adv-x="611" 
d="M303 -9c-190 0 -285 57 -285 172v882c0 111 95 167 287 167c191 0 287 -55 287 -166v-533h-308v-254c0 -48 6 -72 19 -72c21 0 22 60 22 247h267c0 -350 -33 -443 -289 -443zM129 1246l93 183h170l91 -183h-120l-57 124l-58 -124h-119zM179 1461l80 185h175l-132 -185
h-123zM284 686h41v264c0 43 -7 64 -20 64c-14 0 -21 -21 -21 -64v-264z" />
    <glyph glyph-name="uni1EC7" unicode="&#x1ec7;" horiz-adv-x="611" 
d="M303 -9c-190 0 -285 57 -285 172v882c0 111 95 167 287 167c191 0 287 -55 287 -166v-533h-308v-254c0 -48 6 -72 19 -72c21 0 22 60 22 247h267c0 -350 -33 -443 -289 -443zM129 1246l93 183h170l91 -183h-120l-57 124l-58 -124h-119zM307 -296c-44 0 -80 36 -80 80
s36 80 80 80s80 -36 80 -80s-36 -80 -80 -80zM284 686h41v264c0 43 -7 64 -20 64c-14 0 -21 -21 -21 -64v-264z" />
    <glyph glyph-name="uni1EC1" unicode="&#x1ec1;" horiz-adv-x="611" 
d="M303 -9c-190 0 -285 57 -285 172v882c0 111 95 167 287 167c191 0 287 -55 287 -166v-533h-308v-254c0 -48 6 -72 19 -72c21 0 22 60 22 247h267c0 -350 -33 -443 -289 -443zM129 1246l93 183h170l91 -183h-120l-57 124l-58 -124h-119zM311 1466l-133 185h177l79 -185
h-123zM284 686h41v264c0 43 -7 64 -20 64c-14 0 -21 -21 -21 -64v-264z" />
    <glyph glyph-name="uni1EC3" unicode="&#x1ec3;" horiz-adv-x="611" 
d="M303 -9c-190 0 -285 57 -285 172v882c0 111 95 167 287 167c191 0 287 -55 287 -166v-533h-308v-254c0 -48 6 -72 19 -72c21 0 22 60 22 247h267c0 -350 -33 -443 -289 -443zM213 1734c161 0 252 -23 252 -109c0 -74 -77 -105 -122 -105v-48h-97v117c52 0 103 8 103 29
c0 24 -35 28 -136 28v88zM129 1246l93 183h170l91 -183h-120l-57 124l-58 -124h-119zM284 686h41v264c0 43 -7 64 -20 64c-14 0 -21 -21 -21 -64v-264z" />
    <glyph glyph-name="uni1EC5" unicode="&#x1ec5;" horiz-adv-x="611" 
d="M303 -9c-190 0 -285 57 -285 172v882c0 111 95 167 287 167c191 0 287 -55 287 -166v-533h-308v-254c0 -48 6 -72 19 -72c21 0 22 60 22 247h267c0 -350 -33 -443 -289 -443zM387 1474c-56 0 -100 52 -130 52c-34 0 -39 -27 -39 -47h-120c0 67 24 144 127 144
c56 0 100 -49 132 -49c28 0 39 27 39 47h118c0 -67 -24 -147 -127 -147zM129 1246l93 183h170l91 -183h-120l-57 124l-58 -124h-119zM284 686h41v264c0 43 -7 64 -20 64c-14 0 -21 -21 -21 -64v-264z" />
    <glyph glyph-name="uni0205" unicode="&#x205;" horiz-adv-x="611" 
d="M303 -9c-190 0 -285 57 -285 172v882c0 111 95 167 287 167c191 0 287 -55 287 -166v-533h-308v-254c0 -48 6 -72 19 -72c21 0 22 60 22 247h267c0 -350 -33 -443 -289 -443zM193 1258l-133 185h177l79 -185h-123zM428 1258l-133 185h177l79 -185h-123zM284 686h41v264
c0 43 -7 64 -20 64c-14 0 -21 -21 -21 -64v-264z" />
    <glyph glyph-name="edieresis" unicode="&#xeb;" horiz-adv-x="611" 
d="M303 -9c-190 0 -285 57 -285 172v882c0 111 95 167 287 167c191 0 287 -55 287 -166v-533h-308v-254c0 -48 6 -72 19 -72c21 0 22 60 22 247h267c0 -350 -33 -443 -289 -443zM191 1249c-40 0 -72 32 -72 72c0 39 32 71 72 71c39 0 71 -32 71 -71c0 -40 -32 -72 -71 -72z
M423 1249c-40 0 -72 32 -72 72c0 39 32 71 72 71c39 0 71 -32 71 -71c0 -40 -32 -72 -71 -72zM284 686h41v264c0 43 -7 64 -20 64c-14 0 -21 -21 -21 -64v-264z" />
    <glyph glyph-name="edotaccent" unicode="&#x117;" horiz-adv-x="611" 
d="M303 -9c-190 0 -285 57 -285 172v882c0 111 95 167 287 167c191 0 287 -55 287 -166v-533h-308v-254c0 -48 6 -72 19 -72c21 0 22 60 22 247h267c0 -350 -33 -443 -289 -443zM306 1239c-44 0 -80 35 -80 80c0 44 36 79 80 79s80 -35 80 -79s-36 -80 -80 -80zM284 686h41
v264c0 43 -7 64 -20 64c-14 0 -21 -21 -21 -64v-264z" />
    <glyph glyph-name="uni1EB9" unicode="&#x1eb9;" horiz-adv-x="611" 
d="M303 -9c-190 0 -285 57 -285 172v882c0 111 95 167 287 167c191 0 287 -55 287 -166v-533h-308v-254c0 -48 6 -72 19 -72c21 0 22 60 22 247h267c0 -350 -33 -443 -289 -443zM307 -296c-44 0 -80 36 -80 80s36 80 80 80s80 -36 80 -80s-36 -80 -80 -80zM284 686h41v264
c0 43 -7 64 -20 64c-14 0 -21 -21 -21 -64v-264z" />
    <glyph glyph-name="egrave" unicode="&#xe8;" horiz-adv-x="611" 
d="M303 -9c-190 0 -285 57 -285 172v882c0 111 95 167 287 167c191 0 287 -55 287 -166v-533h-308v-254c0 -48 6 -72 19 -72c21 0 22 60 22 247h267c0 -350 -33 -443 -289 -443zM311 1237l-133 185h177l79 -185h-123zM284 686h41v264c0 43 -7 64 -20 64
c-14 0 -21 -21 -21 -64v-264z" />
    <glyph glyph-name="uni1EBB" unicode="&#x1ebb;" horiz-adv-x="611" 
d="M303 -9c-190 0 -285 57 -285 172v882c0 111 95 167 287 167c191 0 287 -55 287 -166v-533h-308v-254c0 -48 6 -72 19 -72c21 0 22 60 22 247h267c0 -350 -33 -443 -289 -443zM213 1506c161 0 252 -24 252 -110c0 -73 -77 -105 -122 -105v-47h-97v117c52 0 103 8 103 28
c0 25 -35 28 -136 28v89zM284 686h41v264c0 43 -7 64 -20 64c-14 0 -21 -21 -21 -64v-264z" />
    <glyph glyph-name="uni0207" unicode="&#x207;" horiz-adv-x="611" 
d="M303 -9c-190 0 -285 57 -285 172v882c0 111 95 167 287 167c191 0 287 -55 287 -166v-533h-308v-254c0 -48 6 -72 19 -72c21 0 22 60 22 247h267c0 -350 -33 -443 -289 -443zM306 1407c101 0 148 -70 148 -165h-124c0 53 -8 70 -24 70c-18 0 -24 -19 -24 -70h-124
c0 95 48 165 148 165zM284 686h41v264c0 43 -7 64 -20 64c-14 0 -21 -21 -21 -64v-264z" />
    <glyph glyph-name="emacron" unicode="&#x113;" horiz-adv-x="611" 
d="M303 -9c-190 0 -285 57 -285 172v882c0 111 95 167 287 167c191 0 287 -55 287 -166v-533h-308v-254c0 -48 6 -72 19 -72c21 0 22 60 22 247h267c0 -350 -33 -443 -289 -443zM126 1257v98h361v-98h-361zM284 686h41v264c0 43 -7 64 -20 64c-14 0 -21 -21 -21 -64v-264z
" />
    <glyph glyph-name="uni1E17" unicode="&#x1e17;" horiz-adv-x="611" 
d="M303 -9c-190 0 -285 57 -285 172v882c0 111 95 167 287 167c191 0 287 -55 287 -166v-533h-308v-254c0 -48 6 -72 19 -72c21 0 22 60 22 247h267c0 -350 -33 -443 -289 -443zM126 1257v98h361v-98h-361zM179 1387l80 185h175l-132 -185h-123zM284 686h41v264
c0 43 -7 64 -20 64c-14 0 -21 -21 -21 -64v-264z" />
    <glyph glyph-name="uni1E15" unicode="&#x1e15;" horiz-adv-x="611" 
d="M303 -9c-190 0 -285 57 -285 172v882c0 111 95 167 287 167c191 0 287 -55 287 -166v-533h-308v-254c0 -48 6 -72 19 -72c21 0 22 60 22 247h267c0 -350 -33 -443 -289 -443zM126 1257v98h361v-98h-361zM311 1392l-133 185h177l79 -185h-123zM284 686h41v264
c0 43 -7 64 -20 64c-14 0 -21 -21 -21 -64v-264z" />
    <glyph glyph-name="eogonek" unicode="&#x119;" horiz-adv-x="611" 
d="M303 187c21 0 22 60 22 247h267c0 -348 -33 -442 -285 -443c-19 -38 -41 -101 -41 -139c0 -32 17 -48 51 -48c36 0 78 10 83 15l1 -142c-5 -4 -57 -15 -115 -15c-87 0 -176 23 -176 129c0 85 52 174 73 209h4c-113 20 -169 74 -169 163v882c0 111 95 167 287 167
c191 0 287 -55 287 -166v-533h-308v-254c0 -48 6 -72 19 -72zM284 686h41v264c0 43 -7 64 -20 64c-14 0 -21 -21 -21 -64v-264z" />
    <glyph glyph-name="uni1EBD" unicode="&#x1ebd;" horiz-adv-x="611" 
d="M303 -9c-190 0 -285 57 -285 172v882c0 111 95 167 287 167c191 0 287 -55 287 -166v-533h-308v-254c0 -48 6 -72 19 -72c21 0 22 60 22 247h267c0 -350 -33 -443 -289 -443zM387 1245c-56 0 -100 52 -130 52c-34 0 -39 -27 -39 -47h-120c0 67 24 145 127 145
c56 0 100 -50 132 -50c28 0 39 28 39 47h118c0 -66 -24 -147 -127 -147zM284 686h41v264c0 43 -7 64 -20 64c-14 0 -21 -21 -21 -64v-264z" />
    <glyph glyph-name="uni0259" unicode="&#x259;" horiz-adv-x="611" 
d="M308 1013c-21 0 -22 -60 -22 -247h-266c0 350 32 443 288 443c190 0 286 -57 286 -171v-883c0 -111 -96 -167 -287 -167c-192 0 -287 55 -287 166v534h307v253c0 48 -6 72 -19 72zM327 514h-41v-263c0 -44 7 -65 21 -65c13 0 20 21 20 65v263z" />
    <glyph glyph-name="f" unicode="f" horiz-adv-x="473" 
d="M94 0v1007h-83v193h83v77c0 88 25 158 77 212s127 81 226 81h62v-193h-17c-29 0 -50 -8 -64 -23c-14 -16 -21 -42 -21 -79v-75h102v-193h-102v-1007h-263z" />
    <glyph glyph-name="g" unicode="g" horiz-adv-x="604" 
d="M299 -459c-230 0 -275 81 -275 385h256c0 -151 1 -197 21 -197c19 0 21 45 21 259v45c-44 -26 -90 -38 -138 -38c-111 0 -166 59 -166 177v860c0 117 55 176 166 176c57 0 110 -18 161 -54l10 46h232v-1211c0 -369 -66 -448 -288 -448zM322 810c0 71 -2 122 -5 155
c-3 32 -9 49 -20 49c-12 0 -17 -21 -17 -63v-701c0 -42 5 -63 17 -63c11 0 17 16 20 49s5 85 5 158v416z" />
    <glyph glyph-name="gbreve" unicode="&#x11f;" horiz-adv-x="604" 
d="M299 -459c-230 0 -275 81 -275 385h256c0 -151 1 -197 21 -197c19 0 21 45 21 259v45c-44 -26 -90 -38 -138 -38c-111 0 -166 59 -166 177v860c0 117 55 176 166 176c57 0 110 -18 161 -54l10 46h232v-1211c0 -369 -66 -448 -288 -448zM303 1238c-101 0 -148 69 -148 164
h124c0 -52 8 -69 24 -69c18 0 24 19 24 69h124c0 -95 -48 -164 -148 -164zM322 810c0 71 -2 122 -5 155c-3 32 -9 49 -20 49c-12 0 -17 -21 -17 -63v-701c0 -42 5 -63 17 -63c11 0 17 16 20 49s5 85 5 158v416z" />
    <glyph glyph-name="gcaron" unicode="&#x1e7;" horiz-adv-x="604" 
d="M299 -459c-230 0 -275 81 -275 385h256c0 -151 1 -197 21 -197c19 0 21 45 21 259v45c-44 -26 -90 -38 -138 -38c-111 0 -166 59 -166 177v860c0 117 55 176 166 176c57 0 110 -18 161 -54l10 46h232v-1211c0 -369 -66 -448 -288 -448zM219 1238l-93 183h119l58 -124
l57 124h120l-91 -183h-170zM322 810c0 71 -2 122 -5 155c-3 32 -9 49 -20 49c-12 0 -17 -21 -17 -63v-701c0 -42 5 -63 17 -63c11 0 17 16 20 49s5 85 5 158v416z" />
    <glyph glyph-name="gcircumflex" unicode="&#x11d;" horiz-adv-x="604" 
d="M299 -459c-230 0 -275 81 -275 385h256c0 -151 1 -197 21 -197c19 0 21 45 21 259v45c-44 -26 -90 -38 -138 -38c-111 0 -166 59 -166 177v860c0 117 55 176 166 176c57 0 110 -18 161 -54l10 46h232v-1211c0 -369 -66 -448 -288 -448zM126 1246l93 183h170l91 -183h-120
l-57 124l-58 -124h-119zM322 810c0 71 -2 122 -5 155c-3 32 -9 49 -20 49c-12 0 -17 -21 -17 -63v-701c0 -42 5 -63 17 -63c11 0 17 16 20 49s5 85 5 158v416z" />
    <glyph glyph-name="uni0123" unicode="&#x123;" horiz-adv-x="604" 
d="M299 -459c-230 0 -275 81 -275 385h256c0 -151 1 -197 21 -197c19 0 21 45 21 259v45c-44 -26 -90 -38 -138 -38c-111 0 -166 59 -166 177v860c0 117 55 176 166 176c57 0 110 -18 161 -54l10 46h232v-1211c0 -369 -66 -448 -288 -448zM322 810c0 71 -2 122 -5 155
c-3 32 -9 49 -20 49c-12 0 -17 -21 -17 -63v-701c0 -42 5 -63 17 -63c11 0 17 16 20 49s5 85 5 158v416zM411 1470l-58 -210h-148l122 210h84z" />
    <glyph glyph-name="gdotaccent" unicode="&#x121;" horiz-adv-x="604" 
d="M299 -459c-230 0 -275 81 -275 385h256c0 -151 1 -197 21 -197c19 0 21 45 21 259v45c-44 -26 -90 -38 -138 -38c-111 0 -166 59 -166 177v860c0 117 55 176 166 176c57 0 110 -18 161 -54l10 46h232v-1211c0 -369 -66 -448 -288 -448zM322 810c0 71 -2 122 -5 155
c-3 32 -9 49 -20 49c-12 0 -17 -21 -17 -63v-701c0 -42 5 -63 17 -63c11 0 17 16 20 49s5 85 5 158v416zM303 1239c-44 0 -80 35 -80 80c0 44 36 79 80 79s80 -35 80 -79s-36 -80 -80 -80z" />
    <glyph glyph-name="uni1E21" unicode="&#x1e21;" horiz-adv-x="604" 
d="M299 -459c-230 0 -275 81 -275 385h256c0 -151 1 -197 21 -197c19 0 21 45 21 259v45c-44 -26 -90 -38 -138 -38c-111 0 -166 59 -166 177v860c0 117 55 176 166 176c57 0 110 -18 161 -54l10 46h232v-1211c0 -369 -66 -448 -288 -448zM123 1257v98h361v-98h-361z
M322 810c0 71 -2 122 -5 155c-3 32 -9 49 -20 49c-12 0 -17 -21 -17 -63v-701c0 -42 5 -63 17 -63c11 0 17 16 20 49s5 85 5 158v416z" />
    <glyph glyph-name="h" unicode="h" horiz-adv-x="602" 
d="M17 0v1570h264v-411c42 33 90 49 146 49c105 0 158 -54 158 -162v-1046h-262v956c0 38 -6 56 -18 56c-10 0 -17 -16 -20 -49c-3 -32 -4 -80 -4 -142v-821h-264z" />
    <glyph glyph-name="hbar" unicode="&#x127;" horiz-adv-x="602" 
d="M-22 1332v144h39v94h264v-94h128v-144h-128v-173c42 33 90 49 146 49c105 0 158 -54 158 -162v-1046h-262v956c0 38 -6 56 -18 56c-10 0 -17 -16 -20 -49c-3 -32 -4 -80 -4 -142v-821h-264v1332h-39z" />
    <glyph glyph-name="uni1E2B" unicode="&#x1e2b;" horiz-adv-x="602" 
d="M17 0v1570h264v-411c42 33 90 49 146 49c105 0 158 -54 158 -162v-1046h-262v956c0 38 -6 56 -18 56c-10 0 -17 -16 -20 -49c-3 -32 -4 -80 -4 -142v-821h-264zM302 -277c-101 0 -148 69 -148 164h124c0 -52 8 -69 24 -69c18 0 24 19 24 69h124c0 -95 -48 -164 -148 -164
z" />
    <glyph glyph-name="hcircumflex" unicode="&#x125;" horiz-adv-x="602" 
d="M17 0v1570h264v-411c42 33 90 49 146 49c105 0 158 -54 158 -162v-1046h-262v956c0 38 -6 56 -18 56c-10 0 -17 -16 -20 -49c-3 -32 -4 -80 -4 -142v-821h-264zM158 1606l93 183h170l91 -183h-120l-57 124l-58 -124h-119z" />
    <glyph glyph-name="uni1E25" unicode="&#x1e25;" horiz-adv-x="602" 
d="M17 0v1570h264v-411c42 33 90 49 146 49c105 0 158 -54 158 -162v-1046h-262v956c0 38 -6 56 -18 56c-10 0 -17 -16 -20 -49c-3 -32 -4 -80 -4 -142v-821h-264zM302 -296c-44 0 -80 36 -80 80s36 80 80 80s80 -36 80 -80s-36 -80 -80 -80z" />
    <glyph glyph-name="i" unicode="i" horiz-adv-x="314" 
d="M23 0v1200h265v-1200h-265zM23 1538h265v-211h-265v211z" />
    <glyph glyph-name="dotlessi" unicode="&#x131;" horiz-adv-x="306" 
d="M18 0v1200h268v-1200h-268z" />
    <glyph glyph-name="iacute" unicode="&#xed;" horiz-adv-x="306" 
d="M18 0v1200h268v-1200h-268zM24 1232l81 185h174l-132 -185h-123z" />
    <glyph glyph-name="ibreve" unicode="&#x12d;" horiz-adv-x="306" 
d="M18 0v1200h268v-1200h-268zM152 1238c-102 0 -149 69 -149 164h124c0 -52 8 -69 25 -69s23 19 23 69h125c0 -95 -48 -164 -148 -164z" />
    <glyph glyph-name="uni01D0" unicode="&#x1d0;" horiz-adv-x="306" 
d="M18 0v1200h268v-1200h-268zM68 1238l-93 183h119l57 -124l58 124h120l-92 -183h-169z" />
    <glyph glyph-name="icircumflex" unicode="&#xee;" horiz-adv-x="306" 
d="M18 0v1200h268v-1200h-268zM-25 1246l93 183h169l92 -183h-120l-58 124l-57 -124h-119z" />
    <glyph glyph-name="uni0209" unicode="&#x209;" horiz-adv-x="306" 
d="M18 0v1200h268v-1200h-268zM39 1258l-134 185h178l79 -185h-123zM274 1258l-134 185h178l79 -185h-123z" />
    <glyph glyph-name="idieresis" unicode="&#xef;" horiz-adv-x="306" 
d="M18 0v1200h268v-1200h-268zM37 1249c-40 0 -72 32 -72 72c0 39 32 71 72 71c39 0 71 -32 71 -71c0 -40 -32 -72 -71 -72zM268 1249c-39 0 -71 32 -71 72c0 39 32 71 71 71s71 -32 71 -71c0 -40 -32 -72 -71 -72z" />
    <glyph glyph-name="uni1E2F" unicode="&#x1e2f;" horiz-adv-x="306" 
d="M18 0v1200h268v-1200h-268zM24 1425l81 185h174l-132 -185h-123zM37 1249c-40 0 -72 32 -72 72c0 39 32 71 72 71c39 0 71 -32 71 -71c0 -40 -32 -72 -71 -72zM268 1249c-39 0 -71 32 -71 72c0 39 32 71 71 71s71 -32 71 -71c0 -40 -32 -72 -71 -72z" />
    <glyph glyph-name="i.loclTRK" horiz-adv-x="306" 
d="M18 0v1200h268v-1200h-268zM152 1239c-44 0 -80 35 -80 80c0 44 35 79 80 79c43 0 79 -35 79 -79s-35 -80 -79 -80z" />
    <glyph glyph-name="uni1ECB" unicode="&#x1ecb;" horiz-adv-x="314" 
d="M23 0v1200h265v-1200h-265zM23 1538h265v-211h-265v211zM156 -296c-44 0 -80 36 -80 80s36 80 80 80s80 -36 80 -80s-36 -80 -80 -80z" />
    <glyph glyph-name="igrave" unicode="&#xec;" horiz-adv-x="306" 
d="M18 0v1200h268v-1200h-268zM157 1237l-134 185h178l79 -185h-123z" />
    <glyph glyph-name="uni1EC9" unicode="&#x1ec9;" horiz-adv-x="306" 
d="M18 0v1200h268v-1200h-268zM58 1506c162 0 253 -24 253 -110c0 -73 -78 -105 -123 -105v-47h-96v117c52 0 102 8 102 28c0 25 -34 28 -136 28v89z" />
    <glyph glyph-name="uni020B" unicode="&#x20b;" horiz-adv-x="306" 
d="M18 0v1200h268v-1200h-268zM151 1407c102 0 149 -70 149 -165h-124c0 53 -8 70 -25 70s-23 -19 -23 -70h-125c0 95 48 165 148 165z" />
    <glyph glyph-name="imacron" unicode="&#x12b;" horiz-adv-x="306" 
d="M18 0v1200h268v-1200h-268zM-29 1257v98h361v-98h-361z" />
    <glyph glyph-name="iogonek" unicode="&#x12f;" horiz-adv-x="306" 
d="M18 0v1200h268v-1200c-20 -36 -46 -106 -46 -148c0 -32 16 -48 51 -48c36 0 77 10 82 15l2 -142c-6 -4 -57 -15 -115 -15c-87 0 -177 23 -177 129c0 85 53 174 73 209h-138zM21 1538h265v-211h-265v211z" />
    <glyph glyph-name="itilde" unicode="&#x129;" horiz-adv-x="306" 
d="M18 0v1200h268v-1200h-268zM232 1245c-56 0 -99 52 -129 52c-34 0 -40 -27 -40 -47h-120c0 67 25 145 128 145c56 0 100 -50 131 -50c29 0 40 28 40 47h118c0 -66 -24 -147 -128 -147z" />
    <glyph glyph-name="j" unicode="j" horiz-adv-x="324" 
d="M-44 -459v199c25 0 44 11 57 35c14 24 20 75 20 154v1271h264v-1249c0 -171 -29 -282 -88 -333c-58 -52 -143 -77 -253 -77zM33 1538h265v-211h-265v211z" />
    <glyph glyph-name="uni0237" unicode="&#x237;" horiz-adv-x="322" 
d="M-44 -459v199c25 0 44 11 57 35c14 24 20 75 20 154v1271h264v-1249c0 -171 -29 -282 -88 -333c-58 -52 -143 -77 -253 -77z" />
    <glyph glyph-name="jcircumflex" unicode="&#x135;" horiz-adv-x="322" 
d="M-44 -459v199c25 0 44 11 57 35c14 24 20 75 20 154v1271h264v-1249c0 -171 -29 -282 -88 -333c-58 -52 -143 -77 -253 -77zM-12 1246l93 183h169l92 -183h-120l-58 124l-57 -124h-119z" />
    <glyph glyph-name="k" unicode="k" horiz-adv-x="635" 
d="M17 0v1570h265v-756l77 386h268l-137 -445l128 -755h-270l-42 439l-24 -65v-374h-265z" />
    <glyph glyph-name="uni0137" unicode="&#x137;" horiz-adv-x="635" 
d="M17 0v1570h265v-756l77 386h268l-137 -445l128 -755h-270l-42 439l-24 -65v-374h-265zM210 -295l64 232h163l-134 -232h-93z" />
    <glyph glyph-name="kgreenlandic" unicode="&#x138;" horiz-adv-x="623" 
d="M16 0v1200h264v-508l61 508h267l-86 -600l86 -600h-267l-61 508v-508h-264z" />
    <glyph glyph-name="l" unicode="l" horiz-adv-x="305" 
d="M20 0v1570h264v-1570h-264z" />
    <glyph glyph-name="l.ss01" horiz-adv-x="383" 
d="M284 -10c-91 0 -158 22 -201 66s-64 113 -64 206v1308h265v-1292c0 -45 4 -75 11 -91c8 -16 19 -23 35 -23c17 0 33 3 46 11v-172c-31 -9 -62 -13 -92 -13z" />
    <glyph glyph-name="lacute" unicode="&#x13a;" horiz-adv-x="305" 
d="M20 0v1570h264v-1570h-264zM25 1602l81 185h174l-132 -185h-123z" />
    <glyph glyph-name="lcaron" unicode="&#x13e;" horiz-adv-x="305" 
d="M20 0v1570h264v-1570h-264zM69 1608l-93 183h119l57 -124l58 124h120l-92 -183h-169z" />
    <glyph glyph-name="uni013C" unicode="&#x13c;" horiz-adv-x="305" 
d="M20 0v1570h264v-1570h-264zM36 -295l64 232h163l-134 -232h-93z" />
    <glyph glyph-name="ldot" unicode="&#x140;" horiz-adv-x="589" 
d="M20 0v1570h264v-1570h-264zM310 754h265v-211h-265v211z" />
    <glyph glyph-name="uni1E37" unicode="&#x1e37;" horiz-adv-x="305" 
d="M20 0v1570h264v-1570h-264zM154 -296c-44 0 -80 36 -80 80s35 80 80 80c43 0 79 -36 79 -80s-35 -80 -79 -80z" />
    <glyph glyph-name="uni01C9" unicode="&#x1c9;" horiz-adv-x="629" 
d="M261 -459v199c25 0 44 11 58 35c13 24 20 75 20 154v1271h263v-1249c0 -171 -29 -282 -88 -333c-58 -52 -143 -77 -253 -77zM20 0v1570h264v-1570h-264zM339 1538h265v-211h-265v211z" />
    <glyph glyph-name="uni1E3B" unicode="&#x1e3b;" horiz-adv-x="305" 
d="M20 0v1570h264v-1570h-264zM-27 -207v98h361v-98h-361z" />
    <glyph glyph-name="lslash" unicode="&#x142;" horiz-adv-x="446" 
d="M0 395v208l79 59v908h263v-708l101 77v-207l-101 -77v-655h-263v455z" />
    <glyph glyph-name="m" unicode="m" horiz-adv-x="906" 
d="M17 0v1200h229l17 -75c41 56 93 83 157 83c80 0 131 -25 152 -76c40 51 91 76 152 76c110 0 165 -48 165 -143v-1065h-262v962c0 33 -6 50 -18 50c-10 0 -17 -17 -20 -52s-4 -103 -4 -206v-754h-262v962c0 33 -6 50 -18 50c-10 0 -17 -17 -20 -52s-4 -103 -4 -206v-754
h-264z" />
    <glyph glyph-name="uni1E43" unicode="&#x1e43;" horiz-adv-x="906" 
d="M17 0v1200h229l17 -75c41 56 93 83 157 83c80 0 131 -25 152 -76c40 51 91 76 152 76c110 0 165 -48 165 -143v-1065h-262v962c0 33 -6 50 -18 50c-10 0 -17 -17 -20 -52s-4 -103 -4 -206v-754h-262v962c0 33 -6 50 -18 50c-10 0 -17 -17 -20 -52s-4 -103 -4 -206v-754
h-264zM454 -296c-44 0 -80 36 -80 80s36 80 80 80s80 -36 80 -80s-36 -80 -80 -80z" />
    <glyph glyph-name="n" unicode="n" horiz-adv-x="602" 
d="M17 0v1200h229l13 -60c47 46 103 68 168 68c105 0 158 -54 158 -162v-1046h-262v956c0 38 -6 56 -18 56c-10 0 -17 -16 -20 -49c-3 -32 -4 -80 -4 -142v-821h-264z" />
    <glyph glyph-name="nacute" unicode="&#x144;" horiz-adv-x="602" 
d="M17 0v1200h229l13 -60c47 46 103 68 168 68c105 0 158 -54 158 -162v-1046h-262v956c0 38 -6 56 -18 56c-10 0 -17 -16 -20 -49c-3 -32 -4 -80 -4 -142v-821h-264zM174 1232l81 185h174l-132 -185h-123z" />
    <glyph glyph-name="ncaron" unicode="&#x148;" horiz-adv-x="602" 
d="M17 0v1200h229l13 -60c47 46 103 68 168 68c105 0 158 -54 158 -162v-1046h-262v956c0 38 -6 56 -18 56c-10 0 -17 -16 -20 -49c-3 -32 -4 -80 -4 -142v-821h-264zM218 1238l-93 183h119l57 -124l58 124h120l-92 -183h-169z" />
    <glyph glyph-name="uni0146" unicode="&#x146;" horiz-adv-x="602" 
d="M17 0v1200h229l13 -60c47 46 103 68 168 68c105 0 158 -54 158 -162v-1046h-262v956c0 38 -6 56 -18 56c-10 0 -17 -16 -20 -49c-3 -32 -4 -80 -4 -142v-821h-264zM184 -295l65 232h163l-135 -232h-93z" />
    <glyph glyph-name="uni1E45" unicode="&#x1e45;" horiz-adv-x="602" 
d="M17 0v1200h229l13 -60c47 46 103 68 168 68c105 0 158 -54 158 -162v-1046h-262v956c0 38 -6 56 -18 56c-10 0 -17 -16 -20 -49c-3 -32 -4 -80 -4 -142v-821h-264zM302 1239c-44 0 -80 35 -80 80c0 44 36 79 80 79s80 -35 80 -79s-36 -80 -80 -80z" />
    <glyph glyph-name="uni1E47" unicode="&#x1e47;" horiz-adv-x="602" 
d="M17 0v1200h229l13 -60c47 46 103 68 168 68c105 0 158 -54 158 -162v-1046h-262v956c0 38 -6 56 -18 56c-10 0 -17 -16 -20 -49c-3 -32 -4 -80 -4 -142v-821h-264zM302 -296c-44 0 -80 36 -80 80s36 80 80 80s80 -36 80 -80s-36 -80 -80 -80z" />
    <glyph glyph-name="eng" unicode="&#x14b;" horiz-adv-x="602" 
d="M255 -400v172c64 0 68 99 68 228v956c0 38 -6 56 -18 56c-10 0 -17 -16 -20 -49c-3 -32 -4 -80 -4 -142v-821h-264v1200h229l13 -60c47 46 103 68 168 68c105 0 158 -54 158 -162v-1046c0 -342 -152 -400 -330 -400z" />
    <glyph glyph-name="uni01CC" unicode="&#x1cc;" horiz-adv-x="925" 
d="M17 0v1200h229l13 -60c47 46 103 68 168 68c105 0 158 -54 158 -162v-1046h-262v956c0 38 -6 56 -18 56c-10 0 -17 -16 -20 -49c-3 -32 -4 -80 -4 -142v-821h-264zM557 -459v199c25 0 44 11 58 35c13 24 20 75 20 154v1271h263v-1249c0 -171 -29 -282 -87 -333
c-59 -52 -143 -77 -254 -77zM635 1538h265v-211h-265v211z" />
    <glyph glyph-name="uni1E49" unicode="&#x1e49;" horiz-adv-x="602" 
d="M17 0v1200h229l13 -60c47 46 103 68 168 68c105 0 158 -54 158 -162v-1046h-262v956c0 38 -6 56 -18 56c-10 0 -17 -16 -20 -49c-3 -32 -4 -80 -4 -142v-821h-264zM121 -207v98h361v-98h-361z" />
    <glyph glyph-name="ntilde" unicode="&#xf1;" horiz-adv-x="602" 
d="M17 0v1200h229l13 -60c47 46 103 68 168 68c105 0 158 -54 158 -162v-1046h-262v956c0 38 -6 56 -18 56c-10 0 -17 -16 -20 -49c-3 -32 -4 -80 -4 -142v-821h-264zM383 1245c-56 0 -100 52 -130 52c-34 0 -40 -27 -40 -47h-119c0 67 24 145 127 145c56 0 100 -50 131 -50
c29 0 40 28 40 47h118c0 -66 -24 -147 -127 -147z" />
    <glyph glyph-name="o" unicode="o" horiz-adv-x="605" 
d="M302 -9c-190 0 -284 53 -284 158v905c0 106 94 159 284 159c189 0 284 -53 284 -159v-905c0 -105 -95 -158 -284 -158zM302 187c13 0 20 21 20 62v705c0 42 -7 63 -20 63c-14 0 -21 -21 -21 -63v-705c0 -41 7 -62 21 -62z" />
    <glyph glyph-name="oacute" unicode="&#xf3;" horiz-adv-x="605" 
d="M302 -9c-190 0 -284 53 -284 158v905c0 106 94 159 284 159c189 0 284 -53 284 -159v-905c0 -105 -95 -158 -284 -158zM302 187c13 0 20 21 20 62v705c0 42 -7 63 -20 63c-14 0 -21 -21 -21 -63v-705c0 -41 7 -62 21 -62zM174 1232l81 185h174l-132 -185h-123z" />
    <glyph glyph-name="obreve" unicode="&#x14f;" horiz-adv-x="605" 
d="M302 -9c-190 0 -284 53 -284 158v905c0 106 94 159 284 159c189 0 284 -53 284 -159v-905c0 -105 -95 -158 -284 -158zM302 1238c-102 0 -149 69 -149 164h124c0 -52 8 -69 25 -69s23 19 23 69h125c0 -95 -48 -164 -148 -164zM302 187c13 0 20 21 20 62v705
c0 42 -7 63 -20 63c-14 0 -21 -21 -21 -63v-705c0 -41 7 -62 21 -62z" />
    <glyph glyph-name="uni01D2" unicode="&#x1d2;" horiz-adv-x="605" 
d="M302 -9c-190 0 -284 53 -284 158v905c0 106 94 159 284 159c189 0 284 -53 284 -159v-905c0 -105 -95 -158 -284 -158zM218 1238l-93 183h119l57 -124l58 124h120l-92 -183h-169zM302 187c13 0 20 21 20 62v705c0 42 -7 63 -20 63c-14 0 -21 -21 -21 -63v-705
c0 -41 7 -62 21 -62z" />
    <glyph glyph-name="ocircumflex" unicode="&#xf4;" horiz-adv-x="605" 
d="M302 -9c-190 0 -284 53 -284 158v905c0 106 94 159 284 159c189 0 284 -53 284 -159v-905c0 -105 -95 -158 -284 -158zM125 1246l93 183h169l92 -183h-120l-58 124l-57 -124h-119zM302 187c13 0 20 21 20 62v705c0 42 -7 63 -20 63c-14 0 -21 -21 -21 -63v-705
c0 -41 7 -62 21 -62z" />
    <glyph glyph-name="uni1ED1" unicode="&#x1ed1;" horiz-adv-x="605" 
d="M302 -9c-190 0 -284 53 -284 158v905c0 106 94 159 284 159c189 0 284 -53 284 -159v-905c0 -105 -95 -158 -284 -158zM125 1246l93 183h169l92 -183h-120l-58 124l-57 -124h-119zM302 187c13 0 20 21 20 62v705c0 42 -7 63 -20 63c-14 0 -21 -21 -21 -63v-705
c0 -41 7 -62 21 -62zM174 1461l81 185h174l-132 -185h-123z" />
    <glyph glyph-name="uni1ED9" unicode="&#x1ed9;" horiz-adv-x="605" 
d="M302 -9c-190 0 -284 53 -284 158v905c0 106 94 159 284 159c189 0 284 -53 284 -159v-905c0 -105 -95 -158 -284 -158zM125 1246l93 183h169l92 -183h-120l-58 124l-57 -124h-119zM302 187c13 0 20 21 20 62v705c0 42 -7 63 -20 63c-14 0 -21 -21 -21 -63v-705
c0 -41 7 -62 21 -62zM303 -296c-44 0 -80 36 -80 80s36 80 80 80s80 -36 80 -80s-36 -80 -80 -80z" />
    <glyph glyph-name="uni1ED3" unicode="&#x1ed3;" horiz-adv-x="605" 
d="M302 -9c-190 0 -284 53 -284 158v905c0 106 94 159 284 159c189 0 284 -53 284 -159v-905c0 -105 -95 -158 -284 -158zM125 1246l93 183h169l92 -183h-120l-58 124l-57 -124h-119zM302 187c13 0 20 21 20 62v705c0 42 -7 63 -20 63c-14 0 -21 -21 -21 -63v-705
c0 -41 7 -62 21 -62zM307 1466l-134 185h178l79 -185h-123z" />
    <glyph glyph-name="uni1ED5" unicode="&#x1ed5;" horiz-adv-x="605" 
d="M302 -9c-190 0 -284 53 -284 158v905c0 106 94 159 284 159c189 0 284 -53 284 -159v-905c0 -105 -95 -158 -284 -158zM208 1734c162 0 253 -23 253 -109c0 -74 -78 -105 -123 -105v-48h-96v117c52 0 102 8 102 29c0 24 -34 28 -136 28v88zM125 1246l93 183h169l92 -183
h-120l-58 124l-57 -124h-119zM302 187c13 0 20 21 20 62v705c0 42 -7 63 -20 63c-14 0 -21 -21 -21 -63v-705c0 -41 7 -62 21 -62z" />
    <glyph glyph-name="uni1ED7" unicode="&#x1ed7;" horiz-adv-x="605" 
d="M302 -9c-190 0 -284 53 -284 158v905c0 106 94 159 284 159c189 0 284 -53 284 -159v-905c0 -105 -95 -158 -284 -158zM382 1474c-56 0 -99 52 -129 52c-34 0 -40 -27 -40 -47h-120c0 67 25 144 128 144c56 0 100 -49 131 -49c29 0 40 27 40 47h118
c0 -67 -24 -147 -128 -147zM125 1246l93 183h169l92 -183h-120l-58 124l-57 -124h-119zM302 187c13 0 20 21 20 62v705c0 42 -7 63 -20 63c-14 0 -21 -21 -21 -63v-705c0 -41 7 -62 21 -62z" />
    <glyph glyph-name="uni020D" unicode="&#x20d;" horiz-adv-x="605" 
d="M302 -9c-190 0 -284 53 -284 158v905c0 106 94 159 284 159c189 0 284 -53 284 -159v-905c0 -105 -95 -158 -284 -158zM302 187c13 0 20 21 20 62v705c0 42 -7 63 -20 63c-14 0 -21 -21 -21 -63v-705c0 -41 7 -62 21 -62zM189 1258l-134 185h178l79 -185h-123zM424 1258
l-134 185h178l79 -185h-123z" />
    <glyph glyph-name="odieresis" unicode="&#xf6;" horiz-adv-x="605" 
d="M302 -9c-190 0 -284 53 -284 158v905c0 106 94 159 284 159c189 0 284 -53 284 -159v-905c0 -105 -95 -158 -284 -158zM302 187c13 0 20 21 20 62v705c0 42 -7 63 -20 63c-14 0 -21 -21 -21 -63v-705c0 -41 7 -62 21 -62zM187 1249c-40 0 -72 32 -72 72c0 39 32 71 72 71
c39 0 71 -32 71 -71c0 -40 -32 -72 -71 -72zM418 1249c-39 0 -71 32 -71 72c0 39 32 71 71 71s71 -32 71 -71c0 -40 -32 -72 -71 -72z" />
    <glyph glyph-name="uni022B" unicode="&#x22b;" horiz-adv-x="605" 
d="M302 -9c-190 0 -284 53 -284 158v905c0 106 94 159 284 159c189 0 284 -53 284 -159v-905c0 -105 -95 -158 -284 -158zM121 1450v98h361v-98h-361zM302 187c13 0 20 21 20 62v705c0 42 -7 63 -20 63c-14 0 -21 -21 -21 -63v-705c0 -41 7 -62 21 -62zM187 1249
c-40 0 -72 32 -72 72c0 39 32 71 72 71c39 0 71 -32 71 -71c0 -40 -32 -72 -71 -72zM418 1249c-39 0 -71 32 -71 72c0 39 32 71 71 71s71 -32 71 -71c0 -40 -32 -72 -71 -72z" />
    <glyph glyph-name="uni0231" unicode="&#x231;" horiz-adv-x="605" 
d="M302 -9c-190 0 -284 53 -284 158v905c0 106 94 159 284 159c189 0 284 -53 284 -159v-905c0 -105 -95 -158 -284 -158zM121 1455v98h361v-98h-361zM302 187c13 0 20 21 20 62v705c0 42 -7 63 -20 63c-14 0 -21 -21 -21 -63v-705c0 -41 7 -62 21 -62zM302 1239
c-44 0 -80 35 -80 80c0 44 35 79 80 79c43 0 79 -35 79 -79s-35 -80 -79 -80z" />
    <glyph glyph-name="uni1ECD" unicode="&#x1ecd;" horiz-adv-x="605" 
d="M302 -9c-190 0 -284 53 -284 158v905c0 106 94 159 284 159c189 0 284 -53 284 -159v-905c0 -105 -95 -158 -284 -158zM302 187c13 0 20 21 20 62v705c0 42 -7 63 -20 63c-14 0 -21 -21 -21 -63v-705c0 -41 7 -62 21 -62zM303 -296c-44 0 -80 36 -80 80s36 80 80 80
s80 -36 80 -80s-36 -80 -80 -80z" />
    <glyph glyph-name="ograve" unicode="&#xf2;" horiz-adv-x="605" 
d="M302 -9c-190 0 -284 53 -284 158v905c0 106 94 159 284 159c189 0 284 -53 284 -159v-905c0 -105 -95 -158 -284 -158zM302 187c13 0 20 21 20 62v705c0 42 -7 63 -20 63c-14 0 -21 -21 -21 -63v-705c0 -41 7 -62 21 -62zM307 1237l-134 185h178l79 -185h-123z" />
    <glyph glyph-name="uni1ECF" unicode="&#x1ecf;" horiz-adv-x="605" 
d="M302 -9c-190 0 -284 53 -284 158v905c0 106 94 159 284 159c189 0 284 -53 284 -159v-905c0 -105 -95 -158 -284 -158zM208 1506c162 0 253 -24 253 -110c0 -73 -78 -105 -123 -105v-47h-96v117c52 0 102 8 102 28c0 25 -34 28 -136 28v89zM302 187c13 0 20 21 20 62v705
c0 42 -7 63 -20 63c-14 0 -21 -21 -21 -63v-705c0 -41 7 -62 21 -62z" />
    <glyph glyph-name="ohorn" unicode="&#x1a1;" horiz-adv-x="803" 
d="M302 -9c-190 0 -284 53 -284 158v905c0 106 94 159 284 159c188 0 283 -53 283 -157c81 3 85 71 85 157h135c0 -158 -59 -241 -219 -243v-821c0 -105 -95 -158 -284 -158zM302 187c13 0 20 21 20 62v705c0 42 -7 63 -20 63c-14 0 -21 -21 -21 -63v-705
c0 -41 7 -62 21 -62z" />
    <glyph glyph-name="uni1EDB" unicode="&#x1edb;" horiz-adv-x="803" 
d="M302 -9c-190 0 -284 53 -284 158v905c0 106 94 159 284 159c188 0 283 -53 283 -157c81 3 85 71 85 157h135c0 -158 -59 -241 -219 -243v-821c0 -105 -95 -158 -284 -158zM302 187c13 0 20 21 20 62v705c0 42 -7 63 -20 63c-14 0 -21 -21 -21 -63v-705
c0 -41 7 -62 21 -62zM174 1232l81 185h174l-132 -185h-123z" />
    <glyph glyph-name="uni1EE3" unicode="&#x1ee3;" horiz-adv-x="803" 
d="M302 -9c-190 0 -284 53 -284 158v905c0 106 94 159 284 159c188 0 283 -53 283 -157c81 3 85 71 85 157h135c0 -158 -59 -241 -219 -243v-821c0 -105 -95 -158 -284 -158zM302 187c13 0 20 21 20 62v705c0 42 -7 63 -20 63c-14 0 -21 -21 -21 -63v-705
c0 -41 7 -62 21 -62zM303 -296c-44 0 -80 36 -80 80s36 80 80 80s80 -36 80 -80s-36 -80 -80 -80z" />
    <glyph glyph-name="uni1EDD" unicode="&#x1edd;" horiz-adv-x="803" 
d="M302 -9c-190 0 -284 53 -284 158v905c0 106 94 159 284 159c188 0 283 -53 283 -157c81 3 85 71 85 157h135c0 -158 -59 -241 -219 -243v-821c0 -105 -95 -158 -284 -158zM302 187c13 0 20 21 20 62v705c0 42 -7 63 -20 63c-14 0 -21 -21 -21 -63v-705
c0 -41 7 -62 21 -62zM307 1237l-134 185h178l79 -185h-123z" />
    <glyph glyph-name="uni1EDF" unicode="&#x1edf;" horiz-adv-x="803" 
d="M302 -9c-190 0 -284 53 -284 158v905c0 106 94 159 284 159c188 0 283 -53 283 -157c81 3 85 71 85 157h135c0 -158 -59 -241 -219 -243v-821c0 -105 -95 -158 -284 -158zM208 1506c162 0 253 -24 253 -110c0 -73 -78 -105 -123 -105v-47h-96v117c52 0 102 8 102 28
c0 25 -34 28 -136 28v89zM302 187c13 0 20 21 20 62v705c0 42 -7 63 -20 63c-14 0 -21 -21 -21 -63v-705c0 -41 7 -62 21 -62z" />
    <glyph glyph-name="uni1EE1" unicode="&#x1ee1;" horiz-adv-x="803" 
d="M302 -9c-190 0 -284 53 -284 158v905c0 106 94 159 284 159c188 0 283 -53 283 -157c81 3 85 71 85 157h135c0 -158 -59 -241 -219 -243v-821c0 -105 -95 -158 -284 -158zM382 1245c-56 0 -99 52 -129 52c-34 0 -40 -27 -40 -47h-120c0 67 25 145 128 145
c56 0 100 -50 131 -50c29 0 40 28 40 47h118c0 -66 -24 -147 -128 -147zM302 187c13 0 20 21 20 62v705c0 42 -7 63 -20 63c-14 0 -21 -21 -21 -63v-705c0 -41 7 -62 21 -62z" />
    <glyph glyph-name="ohungarumlaut" unicode="&#x151;" horiz-adv-x="605" 
d="M302 -9c-190 0 -284 53 -284 158v905c0 106 94 159 284 159c189 0 284 -53 284 -159v-905c0 -105 -95 -158 -284 -158zM302 187c13 0 20 21 20 62v705c0 42 -7 63 -20 63c-14 0 -21 -21 -21 -63v-705c0 -41 7 -62 21 -62zM94 1258l108 164h146l-118 -164h-136zM258 1258
l106 164h145l-116 -164h-135z" />
    <glyph glyph-name="uni020F" unicode="&#x20f;" horiz-adv-x="605" 
d="M302 -9c-190 0 -284 53 -284 158v905c0 106 94 159 284 159c189 0 284 -53 284 -159v-905c0 -105 -95 -158 -284 -158zM301 1407c102 0 149 -70 149 -165h-124c0 53 -8 70 -25 70s-23 -19 -23 -70h-125c0 95 48 165 148 165zM302 187c13 0 20 21 20 62v705
c0 42 -7 63 -20 63c-14 0 -21 -21 -21 -63v-705c0 -41 7 -62 21 -62z" />
    <glyph glyph-name="omacron" unicode="&#x14d;" horiz-adv-x="605" 
d="M302 -9c-190 0 -284 53 -284 158v905c0 106 94 159 284 159c189 0 284 -53 284 -159v-905c0 -105 -95 -158 -284 -158zM121 1257v98h361v-98h-361zM302 187c13 0 20 21 20 62v705c0 42 -7 63 -20 63c-14 0 -21 -21 -21 -63v-705c0 -41 7 -62 21 -62z" />
    <glyph glyph-name="uni1E53" unicode="&#x1e53;" horiz-adv-x="605" 
d="M302 -9c-190 0 -284 53 -284 158v905c0 106 94 159 284 159c189 0 284 -53 284 -159v-905c0 -105 -95 -158 -284 -158zM121 1257v98h361v-98h-361zM302 187c13 0 20 21 20 62v705c0 42 -7 63 -20 63c-14 0 -21 -21 -21 -63v-705c0 -41 7 -62 21 -62zM174 1387l81 185h174
l-132 -185h-123z" />
    <glyph glyph-name="uni1E51" unicode="&#x1e51;" horiz-adv-x="605" 
d="M302 -9c-190 0 -284 53 -284 158v905c0 106 94 159 284 159c189 0 284 -53 284 -159v-905c0 -105 -95 -158 -284 -158zM121 1257v98h361v-98h-361zM302 187c13 0 20 21 20 62v705c0 42 -7 63 -20 63c-14 0 -21 -21 -21 -63v-705c0 -41 7 -62 21 -62zM307 1392l-134 185
h178l79 -185h-123z" />
    <glyph glyph-name="uni01EB" unicode="&#x1eb;" horiz-adv-x="605" 
d="M302 -9h-1c-19 -38 -42 -101 -42 -139c0 -32 17 -48 52 -48s77 10 82 15l2 -142c-6 -4 -57 -15 -116 -15c-86 0 -176 23 -176 129c0 85 52 174 73 209h6c-110 19 -164 69 -164 149v905c0 106 94 159 284 159c189 0 284 -53 284 -159v-905c0 -105 -95 -158 -284 -158z
M302 187c13 0 20 21 20 62v705c0 42 -7 63 -20 63c-14 0 -21 -21 -21 -63v-705c0 -41 7 -62 21 -62z" />
    <glyph glyph-name="oslash" unicode="&#xf8;" horiz-adv-x="601" 
d="M-15 -8l44 101c-8 16 -11 35 -11 56v905c0 106 94 159 284 159c85 0 151 -11 197 -32l30 67l80 -35l-40 -92c11 -19 17 -41 17 -67v-905c0 -105 -95 -158 -284 -158c-92 0 -162 12 -209 37l-33 -75zM302 187c13 0 20 21 20 62v306l-41 -94v-212c0 -41 7 -62 21 -62z
M281 676l41 95v183c0 42 -7 63 -20 63c-14 0 -21 -21 -21 -63v-278z" />
    <glyph glyph-name="oslashacute" unicode="&#x1ff;" horiz-adv-x="601" 
d="M-15 -8l44 101c-8 16 -11 35 -11 56v905c0 106 94 159 284 159c85 0 151 -11 197 -32l30 67l80 -35l-40 -92c11 -19 17 -41 17 -67v-905c0 -105 -95 -158 -284 -158c-92 0 -162 12 -209 37l-33 -75zM172 1232l81 185h174l-132 -185h-123zM302 187c13 0 20 21 20 62v306
l-41 -94v-212c0 -41 7 -62 21 -62zM281 676l41 95v183c0 42 -7 63 -20 63c-14 0 -21 -21 -21 -63v-278z" />
    <glyph glyph-name="otilde" unicode="&#xf5;" horiz-adv-x="605" 
d="M302 -9c-190 0 -284 53 -284 158v905c0 106 94 159 284 159c189 0 284 -53 284 -159v-905c0 -105 -95 -158 -284 -158zM382 1245c-56 0 -99 52 -129 52c-34 0 -40 -27 -40 -47h-120c0 67 25 145 128 145c56 0 100 -50 131 -50c29 0 40 28 40 47h118
c0 -66 -24 -147 -128 -147zM302 187c13 0 20 21 20 62v705c0 42 -7 63 -20 63c-14 0 -21 -21 -21 -63v-705c0 -41 7 -62 21 -62z" />
    <glyph glyph-name="uni1E4D" unicode="&#x1e4d;" horiz-adv-x="605" 
d="M302 -9c-190 0 -284 53 -284 158v905c0 106 94 159 284 159c189 0 284 -53 284 -159v-905c0 -105 -95 -158 -284 -158zM382 1245c-56 0 -99 52 -129 52c-34 0 -40 -27 -40 -47h-120c0 67 25 145 128 145c56 0 100 -50 131 -50c29 0 40 28 40 47h118
c0 -66 -24 -147 -128 -147zM302 187c13 0 20 21 20 62v705c0 42 -7 63 -20 63c-14 0 -21 -21 -21 -63v-705c0 -41 7 -62 21 -62zM174 1424l81 185h174l-132 -185h-123z" />
    <glyph glyph-name="uni1E4F" unicode="&#x1e4f;" horiz-adv-x="605" 
d="M302 -9c-190 0 -284 53 -284 158v905c0 106 94 159 284 159c189 0 284 -53 284 -159v-905c0 -105 -95 -158 -284 -158zM382 1245c-56 0 -99 52 -129 52c-34 0 -40 -27 -40 -47h-120c0 67 25 145 128 145c56 0 100 -50 131 -50c29 0 40 28 40 47h118
c0 -66 -24 -147 -128 -147zM302 187c13 0 20 21 20 62v705c0 42 -7 63 -20 63c-14 0 -21 -21 -21 -63v-705c0 -41 7 -62 21 -62zM187 1441c-40 0 -72 32 -72 72c0 39 32 71 72 71c39 0 71 -32 71 -71c0 -40 -32 -72 -71 -72zM418 1441c-39 0 -71 32 -71 72c0 39 32 71 71 71
s71 -32 71 -71c0 -40 -32 -72 -71 -72z" />
    <glyph glyph-name="uni022D" unicode="&#x22d;" horiz-adv-x="605" 
d="M302 -9c-190 0 -284 53 -284 158v905c0 106 94 159 284 159c189 0 284 -53 284 -159v-905c0 -105 -95 -158 -284 -158zM382 1245c-56 0 -99 52 -129 52c-34 0 -40 -27 -40 -47h-120c0 67 25 145 128 145c56 0 100 -50 131 -50c29 0 40 28 40 47h118
c0 -66 -24 -147 -128 -147zM121 1449v98h361v-98h-361zM302 187c13 0 20 21 20 62v705c0 42 -7 63 -20 63c-14 0 -21 -21 -21 -63v-705c0 -41 7 -62 21 -62z" />
    <glyph glyph-name="oe" unicode="&#x153;" horiz-adv-x="915" 
d="M302 -9c-190 0 -284 53 -284 158v905c0 106 94 159 284 159c62 0 114 -6 156 -17c41 10 91 16 150 16c192 0 287 -55 287 -166v-533h-307v-254c0 -48 6 -72 19 -72c21 0 22 60 22 247h266c0 -350 -32 -443 -288 -443c-60 0 -110 6 -151 17c-41 -11 -93 -17 -154 -17z
M302 187c11 0 17 14 19 41v748c-2 27 -8 41 -19 41c-14 0 -21 -21 -21 -63v-705c0 -41 7 -62 21 -62zM588 686h41v264c0 43 -7 64 -21 64c-13 0 -20 -21 -20 -64v-264z" />
    <glyph glyph-name="p" unicode="p" horiz-adv-x="604" 
d="M17 -440v1640h232l9 -45c51 36 104 53 160 53c111 0 167 -59 167 -176v-860c0 -118 -56 -177 -167 -177c-48 0 -94 12 -137 38v-473h-264zM281 394c0 -75 1 -128 4 -159c3 -32 10 -48 20 -48c12 0 18 20 18 61v703c0 42 -6 63 -18 63c-10 0 -17 -17 -20 -49
c-3 -33 -4 -84 -4 -155v-416z" />
    <glyph glyph-name="thorn" unicode="&#xfe;" horiz-adv-x="604" 
d="M18 -400v400h-1v1570h264v-400c43 25 89 38 137 38c111 0 167 -59 167 -176v-860c0 -118 -56 -177 -167 -177c-48 0 -95 13 -138 38v-433h-262zM281 810v-416c0 -75 1 -128 4 -159c3 -32 10 -48 20 -48c12 0 18 20 18 61v703c0 42 -6 63 -18 63c-10 0 -17 -17 -20 -49
c-3 -33 -4 -84 -4 -155z" />
    <glyph glyph-name="q" unicode="q" horiz-adv-x="607" 
d="M322 -440v473c-44 -26 -90 -38 -138 -38c-111 0 -166 59 -166 177v860c0 117 55 176 166 176c56 0 109 -17 159 -52l9 44h233v-1640h-263zM322 810c0 71 -2 122 -5 155c-3 32 -9 49 -20 49c-12 0 -17 -21 -17 -63v-701c0 -42 5 -63 17 -63c11 0 17 16 20 49s5 85 5 158
v416z" />
    <glyph glyph-name="r" unicode="r" horiz-adv-x="602" 
d="M323 610v342c0 42 -6 63 -18 63c-10 0 -17 -17 -20 -49c-3 -33 -4 -65 -4 -95v-871h-264v1200h234l10 -54c49 43 104 65 166 65c104 0 156 -52 157 -154c0 -102 1 -251 1 -447h-262z" />
    <glyph glyph-name="r.ss01" horiz-adv-x="478" 
d="M19 0v1200h233l24 -170c15 23 36 49 64 78c37 38 77 72 120 101v-266c-29 -13 -64 -37 -107 -70c-33 -26 -57 -51 -71 -74v-799h-263z" />
    <glyph glyph-name="racute" unicode="&#x155;" horiz-adv-x="602" 
d="M323 610v342c0 42 -6 63 -18 63c-10 0 -17 -17 -20 -49c-3 -33 -4 -65 -4 -95v-871h-264v1200h234l10 -54c49 43 104 65 166 65c104 0 156 -52 157 -154c0 -102 1 -251 1 -447h-262zM176 1232l81 185h174l-132 -185h-123z" />
    <glyph glyph-name="rcaron" unicode="&#x159;" horiz-adv-x="602" 
d="M323 610v342c0 42 -6 63 -18 63c-10 0 -17 -17 -20 -49c-3 -33 -4 -65 -4 -95v-871h-264v1200h234l10 -54c49 43 104 65 166 65c104 0 156 -52 157 -154c0 -102 1 -251 1 -447h-262zM220 1238l-93 183h119l57 -124l58 124h120l-92 -183h-169z" />
    <glyph glyph-name="uni0157" unicode="&#x157;" horiz-adv-x="602" 
d="M323 610v342c0 42 -6 63 -18 63c-10 0 -17 -17 -20 -49c-3 -33 -4 -65 -4 -95v-871h-264v1200h234l10 -54c49 43 104 65 166 65c104 0 156 -52 157 -154c0 -102 1 -251 1 -447h-262zM135 -295l65 232h163l-135 -232h-93z" />
    <glyph glyph-name="uni0211" unicode="&#x211;" horiz-adv-x="602" 
d="M323 610v342c0 42 -6 63 -18 63c-10 0 -17 -17 -20 -49c-3 -33 -4 -65 -4 -95v-871h-264v1200h234l10 -54c49 43 104 65 166 65c104 0 156 -52 157 -154c0 -102 1 -251 1 -447h-262zM191 1258l-133 185h177l79 -185h-123zM426 1258l-133 185h177l79 -185h-123z" />
    <glyph glyph-name="uni1E5B" unicode="&#x1e5b;" horiz-adv-x="602" 
d="M323 610v342c0 42 -6 63 -18 63c-10 0 -17 -17 -20 -49c-3 -33 -4 -65 -4 -95v-871h-264v1200h234l10 -54c49 43 104 65 166 65c104 0 156 -52 157 -154c0 -102 1 -251 1 -447h-262zM301 -296c-44 0 -80 36 -80 80s36 80 80 80s80 -36 80 -80s-36 -80 -80 -80z" />
    <glyph glyph-name="uni0213" unicode="&#x213;" horiz-adv-x="602" 
d="M323 610v342c0 42 -6 63 -18 63c-10 0 -17 -17 -20 -49c-3 -33 -4 -65 -4 -95v-871h-264v1200h234l10 -54c49 43 104 65 166 65c104 0 156 -52 157 -154c0 -102 1 -251 1 -447h-262zM304 1407c101 0 148 -70 148 -165h-124c0 53 -8 70 -24 70c-18 0 -24 -19 -24 -70h-124
c0 95 48 165 148 165z" />
    <glyph glyph-name="uni1E5F" unicode="&#x1e5f;" horiz-adv-x="602" 
d="M323 610v342c0 42 -6 63 -18 63c-10 0 -17 -17 -20 -49c-3 -33 -4 -65 -4 -95v-871h-264v1200h234l10 -54c49 43 104 65 166 65c104 0 156 -52 157 -154c0 -102 1 -251 1 -447h-262zM120 -207v98h361v-98h-361z" />
    <glyph glyph-name="s" unicode="s" horiz-adv-x="618" 
d="M312 -9c-120 0 -199 28 -237 85s-57 172 -57 345h271c0 -102 0 -166 1 -193s7 -41 20 -41s19 12 20 35v105c0 67 -9 109 -26 127c-18 18 -56 35 -115 53c-81 22 -130 59 -147 108c-17 50 -26 134 -26 251c0 118 19 204 56 259s115 83 235 83s198 -30 236 -88
c38 -59 57 -170 57 -333h-272c0 92 0 152 -1 182c-1 29 -7 44 -20 44s-19 -13 -20 -39c-1 -27 -1 -62 -1 -106c0 -64 9 -103 26 -115c17 -13 55 -27 112 -42c79 -21 128 -57 147 -110c19 -52 29 -135 29 -248c0 -136 -18 -231 -55 -283c-36 -53 -114 -79 -233 -79z" />
    <glyph glyph-name="sacute" unicode="&#x15b;" horiz-adv-x="618" 
d="M312 -9c-120 0 -199 28 -237 85s-57 172 -57 345h271c0 -102 0 -166 1 -193s7 -41 20 -41s19 12 20 35v105c0 67 -9 109 -26 127c-18 18 -56 35 -115 53c-81 22 -130 59 -147 108c-17 50 -26 134 -26 251c0 118 19 204 56 259s115 83 235 83s198 -30 236 -88
c38 -59 57 -170 57 -333h-272c0 92 0 152 -1 182c-1 29 -7 44 -20 44s-19 -13 -20 -39c-1 -27 -1 -62 -1 -106c0 -64 9 -103 26 -115c17 -13 55 -27 112 -42c79 -21 128 -57 147 -110c19 -52 29 -135 29 -248c0 -136 -18 -231 -55 -283c-36 -53 -114 -79 -233 -79zM180 1232
l81 185h174l-132 -185h-123z" />
    <glyph glyph-name="uni1E65" unicode="&#x1e65;" horiz-adv-x="618" 
d="M312 -9c-120 0 -199 28 -237 85s-57 172 -57 345h271c0 -102 0 -166 1 -193s7 -41 20 -41s19 12 20 35v105c0 67 -9 109 -26 127c-18 18 -56 35 -115 53c-81 22 -130 59 -147 108c-17 50 -26 134 -26 251c0 118 19 204 56 259s115 83 235 83s198 -30 236 -88
c38 -59 57 -170 57 -333h-272c0 92 0 152 -1 182c-1 29 -7 44 -20 44s-19 -13 -20 -39c-1 -27 -1 -62 -1 -106c0 -64 9 -103 26 -115c17 -13 55 -27 112 -42c79 -21 128 -57 147 -110c19 -52 29 -135 29 -248c0 -136 -18 -231 -55 -283c-36 -53 -114 -79 -233 -79zM180 1232
l81 185h174l-132 -185h-123zM308 1456c-44 0 -80 35 -80 80c0 44 35 79 80 79c43 0 79 -35 79 -79s-35 -80 -79 -80z" />
    <glyph glyph-name="scaron" unicode="&#x161;" horiz-adv-x="618" 
d="M312 -9c-120 0 -199 28 -237 85s-57 172 -57 345h271c0 -102 0 -166 1 -193s7 -41 20 -41s19 12 20 35v105c0 67 -9 109 -26 127c-18 18 -56 35 -115 53c-81 22 -130 59 -147 108c-17 50 -26 134 -26 251c0 118 19 204 56 259s115 83 235 83s198 -30 236 -88
c38 -59 57 -170 57 -333h-272c0 92 0 152 -1 182c-1 29 -7 44 -20 44s-19 -13 -20 -39c-1 -27 -1 -62 -1 -106c0 -64 9 -103 26 -115c17 -13 55 -27 112 -42c79 -21 128 -57 147 -110c19 -52 29 -135 29 -248c0 -136 -18 -231 -55 -283c-36 -53 -114 -79 -233 -79zM224 1238
l-93 183h119l57 -124l58 124h120l-92 -183h-169z" />
    <glyph glyph-name="uni1E67" unicode="&#x1e67;" horiz-adv-x="618" 
d="M312 -9c-120 0 -199 28 -237 85s-57 172 -57 345h271c0 -102 0 -166 1 -193s7 -41 20 -41s19 12 20 35v105c0 67 -9 109 -26 127c-18 18 -56 35 -115 53c-81 22 -130 59 -147 108c-17 50 -26 134 -26 251c0 118 19 204 56 259s115 83 235 83s198 -30 236 -88
c38 -59 57 -170 57 -333h-272c0 92 0 152 -1 182c-1 29 -7 44 -20 44s-19 -13 -20 -39c-1 -27 -1 -62 -1 -106c0 -64 9 -103 26 -115c17 -13 55 -27 112 -42c79 -21 128 -57 147 -110c19 -52 29 -135 29 -248c0 -136 -18 -231 -55 -283c-36 -53 -114 -79 -233 -79zM224 1238
l-93 183h119l57 -124l58 124h120l-92 -183h-169zM308 1460c-44 0 -80 35 -80 80c0 44 35 79 80 79c43 0 79 -35 79 -79s-35 -80 -79 -80z" />
    <glyph glyph-name="scedilla" unicode="&#x15f;" horiz-adv-x="618" 
d="M297 -305c-32 0 -77 4 -107 12l29 111c16 -5 47 -10 76 -10c55 0 75 16 75 42c0 16 -10 24 -20 24s-18 -4 -25 -12l-96 11l29 120c-90 8 -151 35 -183 83c-38 57 -57 172 -57 345h271c0 -102 0 -166 1 -193s7 -41 20 -41s19 12 20 35v105c0 67 -9 109 -26 127
c-18 18 -56 35 -115 53c-81 22 -130 59 -147 108c-17 50 -26 134 -26 251c0 118 19 204 56 259s115 83 235 83s198 -30 236 -88c38 -59 57 -170 57 -333h-272c0 92 0 152 -1 182c-1 29 -7 44 -20 44s-19 -13 -20 -39c-1 -27 -1 -62 -1 -106c0 -64 9 -103 26 -115
c17 -13 55 -27 112 -42c79 -21 128 -57 147 -110c19 -52 29 -135 29 -248c0 -136 -18 -231 -55 -283c-31 -45 -92 -71 -184 -77l-16 -59c16 12 38 20 72 20c60 0 91 -34 91 -99c0 -100 -95 -160 -211 -160z" />
    <glyph glyph-name="scircumflex" unicode="&#x15d;" horiz-adv-x="618" 
d="M312 -9c-120 0 -199 28 -237 85s-57 172 -57 345h271c0 -102 0 -166 1 -193s7 -41 20 -41s19 12 20 35v105c0 67 -9 109 -26 127c-18 18 -56 35 -115 53c-81 22 -130 59 -147 108c-17 50 -26 134 -26 251c0 118 19 204 56 259s115 83 235 83s198 -30 236 -88
c38 -59 57 -170 57 -333h-272c0 92 0 152 -1 182c-1 29 -7 44 -20 44s-19 -13 -20 -39c-1 -27 -1 -62 -1 -106c0 -64 9 -103 26 -115c17 -13 55 -27 112 -42c79 -21 128 -57 147 -110c19 -52 29 -135 29 -248c0 -136 -18 -231 -55 -283c-36 -53 -114 -79 -233 -79zM131 1246
l93 183h169l92 -183h-120l-58 124l-57 -124h-119z" />
    <glyph glyph-name="uni0219" unicode="&#x219;" horiz-adv-x="618" 
d="M312 -9c-120 0 -199 28 -237 85s-57 172 -57 345h271c0 -102 0 -166 1 -193s7 -41 20 -41s19 12 20 35v105c0 67 -9 109 -26 127c-18 18 -56 35 -115 53c-81 22 -130 59 -147 108c-17 50 -26 134 -26 251c0 118 19 204 56 259s115 83 235 83s198 -30 236 -88
c38 -59 57 -170 57 -333h-272c0 92 0 152 -1 182c-1 29 -7 44 -20 44s-19 -13 -20 -39c-1 -27 -1 -62 -1 -106c0 -64 9 -103 26 -115c17 -13 55 -27 112 -42c79 -21 128 -57 147 -110c19 -52 29 -135 29 -248c0 -136 -18 -231 -55 -283c-36 -53 -114 -79 -233 -79zM192 -295
l64 232h163l-134 -232h-93z" />
    <glyph glyph-name="uni1E61" unicode="&#x1e61;" horiz-adv-x="618" 
d="M312 -9c-120 0 -199 28 -237 85s-57 172 -57 345h271c0 -102 0 -166 1 -193s7 -41 20 -41s19 12 20 35v105c0 67 -9 109 -26 127c-18 18 -56 35 -115 53c-81 22 -130 59 -147 108c-17 50 -26 134 -26 251c0 118 19 204 56 259s115 83 235 83s198 -30 236 -88
c38 -59 57 -170 57 -333h-272c0 92 0 152 -1 182c-1 29 -7 44 -20 44s-19 -13 -20 -39c-1 -27 -1 -62 -1 -106c0 -64 9 -103 26 -115c17 -13 55 -27 112 -42c79 -21 128 -57 147 -110c19 -52 29 -135 29 -248c0 -136 -18 -231 -55 -283c-36 -53 -114 -79 -233 -79zM308 1239
c-44 0 -80 35 -80 80c0 44 35 79 80 79c43 0 79 -35 79 -79s-35 -80 -79 -80z" />
    <glyph glyph-name="uni1E63" unicode="&#x1e63;" horiz-adv-x="618" 
d="M312 -9c-120 0 -199 28 -237 85s-57 172 -57 345h271c0 -102 0 -166 1 -193s7 -41 20 -41s19 12 20 35v105c0 67 -9 109 -26 127c-18 18 -56 35 -115 53c-81 22 -130 59 -147 108c-17 50 -26 134 -26 251c0 118 19 204 56 259s115 83 235 83s198 -30 236 -88
c38 -59 57 -170 57 -333h-272c0 92 0 152 -1 182c-1 29 -7 44 -20 44s-19 -13 -20 -39c-1 -27 -1 -62 -1 -106c0 -64 9 -103 26 -115c17 -13 55 -27 112 -42c79 -21 128 -57 147 -110c19 -52 29 -135 29 -248c0 -136 -18 -231 -55 -283c-36 -53 -114 -79 -233 -79zM310 -296
c-44 0 -80 36 -80 80s35 80 80 80c43 0 79 -36 79 -80s-35 -80 -79 -80z" />
    <glyph glyph-name="uni1E69" unicode="&#x1e69;" horiz-adv-x="618" 
d="M312 -9c-120 0 -199 28 -237 85s-57 172 -57 345h271c0 -102 0 -166 1 -193s7 -41 20 -41s19 12 20 35v105c0 67 -9 109 -26 127c-18 18 -56 35 -115 53c-81 22 -130 59 -147 108c-17 50 -26 134 -26 251c0 118 19 204 56 259s115 83 235 83s198 -30 236 -88
c38 -59 57 -170 57 -333h-272c0 92 0 152 -1 182c-1 29 -7 44 -20 44s-19 -13 -20 -39c-1 -27 -1 -62 -1 -106c0 -64 9 -103 26 -115c17 -13 55 -27 112 -42c79 -21 128 -57 147 -110c19 -52 29 -135 29 -248c0 -136 -18 -231 -55 -283c-36 -53 -114 -79 -233 -79zM310 -296
c-44 0 -80 36 -80 80s35 80 80 80c43 0 79 -36 79 -80s-35 -80 -79 -80zM308 1239c-44 0 -80 35 -80 80c0 44 35 79 80 79c43 0 79 -35 79 -79s-35 -80 -79 -80z" />
    <glyph glyph-name="germandbls" unicode="&#xdf;" horiz-adv-x="689" 
d="M16 0v1059c0 265 90 400 318 400c196 0 322 -119 322 -318c0 -183 -73 -267 -73 -374c0 -108 88 -200 88 -408c0 -265 -98 -359 -356 -359v193c45 0 67 55 67 178c0 140 -70 243 -70 395c0 160 70 268 70 369c0 81 -8 130 -48 130c-37 0 -51 -45 -51 -168v-1097h-267z
" />
    <glyph glyph-name="t" unicode="t" horiz-adv-x="452" 
d="M291 -13c-67 0 -118 17 -155 51c-36 34 -54 103 -54 206v760h-71v196h71v244h265v-244h93v-196h-93v-712c0 -45 3 -73 11 -85c7 -12 19 -18 34 -18c20 0 35 3 46 9v-195c-48 -11 -97 -16 -147 -16z" />
    <glyph glyph-name="t.ss01" horiz-adv-x="482" 
d="M111 0v1004h-99v196h99v248h263v-248h96v-196h-96v-1004h-263z" />
    <glyph glyph-name="tbar" unicode="&#x167;" horiz-adv-x="452" 
d="M12 533v180h70v291h-71v196h71v244h265v-244h93v-196h-93v-291h85v-180h-85v-241c0 -45 3 -73 11 -85c7 -12 19 -18 34 -18c20 0 35 3 46 9v-195c-48 -11 -97 -16 -147 -16c-67 0 -118 17 -155 51c-36 34 -54 103 -54 206v289h-70z" />
    <glyph glyph-name="tcaron" unicode="&#x165;" horiz-adv-x="633" 
d="M291 -13c-67 0 -118 17 -155 51c-36 34 -54 103 -54 206v760h-71v196h71v244h265v-244h93v-196h-93v-712c0 -45 3 -73 11 -85c7 -12 19 -18 34 -18c20 0 35 3 46 9v-195c-48 -11 -97 -16 -147 -16zM452 1215l40 229h141l-58 -229h-123z" />
    <glyph glyph-name="uni0163" unicode="&#x163;" horiz-adv-x="500" 
d="M282 -305c-32 0 -77 4 -107 12l29 111c16 -5 47 -10 76 -10c55 0 75 16 75 42c0 16 -10 24 -20 24s-18 -4 -25 -12l-96 11l29 117c-44 7 -80 23 -107 48c-36 34 -54 103 -54 206v760h-71v196h71v244h265v-244h93v-196h-93v-712c0 -45 3 -73 11 -85c7 -12 19 -18 34 -18
c20 0 35 3 46 9v-195c-31 -7 -62 -11 -93 -14l-15 -55c16 12 38 20 72 20c60 0 91 -34 91 -99c0 -100 -95 -160 -211 -160z" />
    <glyph glyph-name="uni021B" unicode="&#x21b;" horiz-adv-x="452" 
d="M291 -13c-67 0 -118 17 -155 51c-36 34 -54 103 -54 206v760h-71v196h71v244h265v-244h93v-196h-93v-712c0 -45 3 -73 11 -85c7 -12 19 -18 34 -18c20 0 35 3 46 9v-195c-48 -11 -97 -16 -147 -16zM181 -295l64 232h163l-134 -232h-93z" />
    <glyph glyph-name="uni1E97" unicode="&#x1e97;" horiz-adv-x="452" 
d="M291 -13c-67 0 -118 17 -155 51c-36 34 -54 103 -54 206v760h-71v196h71v244h265v-244h93v-196h-93v-712c0 -45 3 -73 11 -85c7 -12 19 -18 34 -18c20 0 35 3 46 9v-195c-48 -11 -97 -16 -147 -16zM104 1493c-40 0 -72 32 -72 72c0 39 32 71 72 71c39 0 71 -32 71 -71
c0 -40 -32 -72 -71 -72zM335 1493c-39 0 -71 32 -71 72c0 39 32 71 71 71s71 -32 71 -71c0 -40 -32 -72 -71 -72z" />
    <glyph glyph-name="uni1E6D" unicode="&#x1e6d;" horiz-adv-x="452" 
d="M291 -13c-67 0 -118 17 -155 51c-36 34 -54 103 -54 206v760h-71v196h71v244h265v-244h93v-196h-93v-712c0 -45 3 -73 11 -85c7 -12 19 -18 34 -18c20 0 35 3 46 9v-195c-48 -11 -97 -16 -147 -16zM298 -296c-44 0 -80 36 -80 80s36 80 80 80s80 -36 80 -80
s-36 -80 -80 -80z" />
    <glyph glyph-name="uni1E6F" unicode="&#x1e6f;" horiz-adv-x="452" 
d="M291 -13c-67 0 -118 17 -155 51c-36 34 -54 103 -54 206v760h-71v196h71v244h265v-244h93v-196h-93v-712c0 -45 3 -73 11 -85c7 -12 19 -18 34 -18c20 0 35 3 46 9v-195c-48 -11 -97 -16 -147 -16zM118 -207v98h361v-98h-361z" />
    <glyph glyph-name="u" unicode="u" horiz-adv-x="608" 
d="M358 0l-15 58c-47 -44 -102 -66 -166 -66c-105 0 -158 54 -158 162v1046h262v-956c0 -38 6 -56 18 -56c10 0 17 16 20 49c3 32 4 80 4 142v821h264v-1200h-229z" />
    <glyph glyph-name="uacute" unicode="&#xfa;" horiz-adv-x="608" 
d="M358 0l-15 58c-47 -44 -102 -66 -166 -66c-105 0 -158 54 -158 162v1046h262v-956c0 -38 6 -56 18 -56c10 0 17 16 20 49c3 32 4 80 4 142v821h264v-1200h-229zM175 1232l80 185h175l-132 -185h-123z" />
    <glyph glyph-name="ubreve" unicode="&#x16d;" horiz-adv-x="608" 
d="M358 0l-15 58c-47 -44 -102 -66 -166 -66c-105 0 -158 54 -158 162v1046h262v-956c0 -38 6 -56 18 -56c10 0 17 16 20 49c3 32 4 80 4 142v821h264v-1200h-229zM303 1238c-102 0 -149 69 -149 164h124c0 -52 8 -69 25 -69s23 19 23 69h125c0 -95 -48 -164 -148 -164z" />
    <glyph glyph-name="uni01D4" unicode="&#x1d4;" horiz-adv-x="608" 
d="M358 0l-15 58c-47 -44 -102 -66 -166 -66c-105 0 -158 54 -158 162v1046h262v-956c0 -38 6 -56 18 -56c10 0 17 16 20 49c3 32 4 80 4 142v821h264v-1200h-229zM218 1238l-93 183h119l58 -124l57 124h120l-91 -183h-170z" />
    <glyph glyph-name="ucircumflex" unicode="&#xfb;" horiz-adv-x="608" 
d="M358 0l-15 58c-47 -44 -102 -66 -166 -66c-105 0 -158 54 -158 162v1046h262v-956c0 -38 6 -56 18 -56c10 0 17 16 20 49c3 32 4 80 4 142v821h264v-1200h-229zM125 1246l93 183h170l91 -183h-120l-57 124l-58 -124h-119z" />
    <glyph glyph-name="uni0215" unicode="&#x215;" horiz-adv-x="608" 
d="M358 0l-15 58c-47 -44 -102 -66 -166 -66c-105 0 -158 54 -158 162v1046h262v-956c0 -38 6 -56 18 -56c10 0 17 16 20 49c3 32 4 80 4 142v821h264v-1200h-229zM190 1258l-134 185h178l79 -185h-123zM425 1258l-134 185h178l79 -185h-123z" />
    <glyph glyph-name="udieresis" unicode="&#xfc;" horiz-adv-x="608" 
d="M358 0l-15 58c-47 -44 -102 -66 -166 -66c-105 0 -158 54 -158 162v1046h262v-956c0 -38 6 -56 18 -56c10 0 17 16 20 49c3 32 4 80 4 142v821h264v-1200h-229zM187 1249c-39 0 -71 32 -71 72c0 39 32 71 71 71s71 -32 71 -71c0 -40 -32 -72 -71 -72zM419 1249
c-40 0 -72 32 -72 72c0 39 32 71 72 71c39 0 71 -32 71 -71c0 -40 -32 -72 -71 -72z" />
    <glyph glyph-name="uni01D8" unicode="&#x1d8;" horiz-adv-x="608" 
d="M358 0l-15 58c-47 -44 -102 -66 -166 -66c-105 0 -158 54 -158 162v1046h262v-956c0 -38 6 -56 18 -56c10 0 17 16 20 49c3 32 4 80 4 142v821h264v-1200h-229zM217 1416l81 185h174l-132 -185h-123zM187 1249c-39 0 -71 32 -71 72c0 39 32 71 71 71s71 -32 71 -71
c0 -40 -32 -72 -71 -72zM419 1249c-40 0 -72 32 -72 72c0 39 32 71 72 71c39 0 71 -32 71 -71c0 -40 -32 -72 -71 -72z" />
    <glyph glyph-name="uni01DA" unicode="&#x1da;" horiz-adv-x="608" 
d="M358 0l-15 58c-47 -44 -102 -66 -166 -66c-105 0 -158 54 -158 162v1046h262v-956c0 -38 6 -56 18 -56c10 0 17 16 20 49c3 32 4 80 4 142v821h264v-1200h-229zM218 1431l-93 183h119l58 -124l57 124h120l-91 -183h-170zM187 1249c-39 0 -71 32 -71 72c0 39 32 71 71 71
s71 -32 71 -71c0 -40 -32 -72 -71 -72zM419 1249c-40 0 -72 32 -72 72c0 39 32 71 72 71c39 0 71 -32 71 -71c0 -40 -32 -72 -71 -72z" />
    <glyph glyph-name="uni01DC" unicode="&#x1dc;" horiz-adv-x="608" 
d="M358 0l-15 58c-47 -44 -102 -66 -166 -66c-105 0 -158 54 -158 162v1046h262v-956c0 -38 6 -56 18 -56c10 0 17 16 20 49c3 32 4 80 4 142v821h264v-1200h-229zM256 1414l-134 185h178l79 -185h-123zM187 1249c-39 0 -71 32 -71 72c0 39 32 71 71 71s71 -32 71 -71
c0 -40 -32 -72 -71 -72zM419 1249c-40 0 -72 32 -72 72c0 39 32 71 72 71c39 0 71 -32 71 -71c0 -40 -32 -72 -71 -72z" />
    <glyph glyph-name="uni01D6" unicode="&#x1d6;" horiz-adv-x="608" 
d="M358 0l-15 58c-47 -44 -102 -66 -166 -66c-105 0 -158 54 -158 162v1046h262v-956c0 -38 6 -56 18 -56c10 0 17 16 20 49c3 32 4 80 4 142v821h264v-1200h-229zM122 1450v98h361v-98h-361zM187 1249c-39 0 -71 32 -71 72c0 39 32 71 71 71s71 -32 71 -71
c0 -40 -32 -72 -71 -72zM419 1249c-40 0 -72 32 -72 72c0 39 32 71 72 71c39 0 71 -32 71 -71c0 -40 -32 -72 -71 -72z" />
    <glyph glyph-name="uni1EE5" unicode="&#x1ee5;" horiz-adv-x="608" 
d="M358 0l-15 58c-47 -44 -102 -66 -166 -66c-105 0 -158 54 -158 162v1046h262v-956c0 -38 6 -56 18 -56c10 0 17 16 20 49c3 32 4 80 4 142v821h264v-1200h-229zM303 -296c-44 0 -80 36 -80 80s36 80 80 80s80 -36 80 -80s-36 -80 -80 -80z" />
    <glyph glyph-name="ugrave" unicode="&#xf9;" horiz-adv-x="608" 
d="M358 0l-15 58c-47 -44 -102 -66 -166 -66c-105 0 -158 54 -158 162v1046h262v-956c0 -38 6 -56 18 -56c10 0 17 16 20 49c3 32 4 80 4 142v821h264v-1200h-229zM308 1237l-134 185h178l79 -185h-123z" />
    <glyph glyph-name="uni1EE7" unicode="&#x1ee7;" horiz-adv-x="608" 
d="M358 0l-15 58c-47 -44 -102 -66 -166 -66c-105 0 -158 54 -158 162v1046h262v-956c0 -38 6 -56 18 -56c10 0 17 16 20 49c3 32 4 80 4 142v821h264v-1200h-229zM209 1506c162 0 253 -24 253 -110c0 -73 -78 -105 -123 -105v-47h-96v117c51 0 102 8 102 28
c0 25 -35 28 -136 28v89z" />
    <glyph glyph-name="uhorn" unicode="&#x1b0;" horiz-adv-x="812" 
d="M358 0l-15 58c-47 -44 -102 -66 -166 -66c-105 0 -158 54 -158 162v1046h262v-956c0 -38 6 -56 18 -56c10 0 17 16 20 49c3 32 4 80 4 142v821h262c86 0 90 69 90 157h135c0 -159 -60 -242 -223 -243v-1114h-229z" />
    <glyph glyph-name="uni1EE9" unicode="&#x1ee9;" horiz-adv-x="812" 
d="M358 0l-15 58c-47 -44 -102 -66 -166 -66c-105 0 -158 54 -158 162v1046h262v-956c0 -38 6 -56 18 -56c10 0 17 16 20 49c3 32 4 80 4 142v821h262c86 0 90 69 90 157h135c0 -159 -60 -242 -223 -243v-1114h-229zM175 1232l80 185h175l-132 -185h-123z" />
    <glyph glyph-name="uni1EF1" unicode="&#x1ef1;" horiz-adv-x="812" 
d="M358 0l-15 58c-47 -44 -102 -66 -166 -66c-105 0 -158 54 -158 162v1046h262v-956c0 -38 6 -56 18 -56c10 0 17 16 20 49c3 32 4 80 4 142v821h262c86 0 90 69 90 157h135c0 -159 -60 -242 -223 -243v-1114h-229zM303 -296c-44 0 -80 36 -80 80s36 80 80 80
s80 -36 80 -80s-36 -80 -80 -80z" />
    <glyph glyph-name="uni1EEB" unicode="&#x1eeb;" horiz-adv-x="812" 
d="M358 0l-15 58c-47 -44 -102 -66 -166 -66c-105 0 -158 54 -158 162v1046h262v-956c0 -38 6 -56 18 -56c10 0 17 16 20 49c3 32 4 80 4 142v821h262c86 0 90 69 90 157h135c0 -159 -60 -242 -223 -243v-1114h-229zM308 1237l-134 185h178l79 -185h-123z" />
    <glyph glyph-name="uni1EED" unicode="&#x1eed;" horiz-adv-x="812" 
d="M358 0l-15 58c-47 -44 -102 -66 -166 -66c-105 0 -158 54 -158 162v1046h262v-956c0 -38 6 -56 18 -56c10 0 17 16 20 49c3 32 4 80 4 142v821h262c86 0 90 69 90 157h135c0 -159 -60 -242 -223 -243v-1114h-229zM209 1506c162 0 253 -24 253 -110
c0 -73 -78 -105 -123 -105v-47h-96v117c51 0 102 8 102 28c0 25 -35 28 -136 28v89z" />
    <glyph glyph-name="uni1EEF" unicode="&#x1eef;" horiz-adv-x="812" 
d="M358 0l-15 58c-47 -44 -102 -66 -166 -66c-105 0 -158 54 -158 162v1046h262v-956c0 -38 6 -56 18 -56c10 0 17 16 20 49c3 32 4 80 4 142v821h262c86 0 90 69 90 157h135c0 -159 -60 -242 -223 -243v-1114h-229zM383 1245c-56 0 -99 52 -130 52c-33 0 -39 -27 -39 -47
h-120c0 67 24 145 128 145c56 0 100 -50 131 -50c28 0 39 28 39 47h119c0 -66 -25 -147 -128 -147z" />
    <glyph glyph-name="uhungarumlaut" unicode="&#x171;" horiz-adv-x="608" 
d="M358 0l-15 58c-47 -44 -102 -66 -166 -66c-105 0 -158 54 -158 162v1046h262v-956c0 -38 6 -56 18 -56c10 0 17 16 20 49c3 32 4 80 4 142v821h264v-1200h-229zM94 1258l109 164h146l-118 -164h-137zM259 1258l105 164h145l-115 -164h-135z" />
    <glyph glyph-name="uni0217" unicode="&#x217;" horiz-adv-x="608" 
d="M358 0l-15 58c-47 -44 -102 -66 -166 -66c-105 0 -158 54 -158 162v1046h262v-956c0 -38 6 -56 18 -56c10 0 17 16 20 49c3 32 4 80 4 142v821h264v-1200h-229zM302 1407c102 0 149 -70 149 -165h-124c0 53 -8 70 -25 70s-23 -19 -23 -70h-125c0 95 48 165 148 165z" />
    <glyph glyph-name="umacron" unicode="&#x16b;" horiz-adv-x="608" 
d="M358 0l-15 58c-47 -44 -102 -66 -166 -66c-105 0 -158 54 -158 162v1046h262v-956c0 -38 6 -56 18 -56c10 0 17 16 20 49c3 32 4 80 4 142v821h264v-1200h-229zM122 1257v98h361v-98h-361z" />
    <glyph glyph-name="uni1E7B" unicode="&#x1e7b;" horiz-adv-x="608" 
d="M358 0l-15 58c-47 -44 -102 -66 -166 -66c-105 0 -158 54 -158 162v1046h262v-956c0 -38 6 -56 18 -56c10 0 17 16 20 49c3 32 4 80 4 142v821h264v-1200h-229zM122 1257v98h361v-98h-361zM187 1404c-39 0 -71 32 -71 72c0 39 32 71 71 71s71 -32 71 -71
c0 -40 -32 -72 -71 -72zM419 1404c-40 0 -72 32 -72 72c0 39 32 71 72 71c39 0 71 -32 71 -71c0 -40 -32 -72 -71 -72z" />
    <glyph glyph-name="uogonek" unicode="&#x173;" horiz-adv-x="608" 
d="M358 0l-15 58c-47 -44 -102 -66 -166 -66c-105 0 -158 54 -158 162v1046h262v-956c0 -38 6 -56 18 -56c10 0 17 16 20 49c3 32 4 80 4 142v821h264v-1200c-20 -36 -46 -106 -46 -148c0 -32 16 -48 51 -48c36 0 77 10 82 15l2 -142c-6 -4 -57 -15 -115 -15
c-87 0 -177 23 -177 129c0 85 53 174 73 209h-99z" />
    <glyph glyph-name="uring" unicode="&#x16f;" horiz-adv-x="608" 
d="M358 0l-15 58c-47 -44 -102 -66 -166 -66c-105 0 -158 54 -158 162v1046h262v-956c0 -38 6 -56 18 -56c10 0 17 16 20 49c3 32 4 80 4 142v821h264v-1200h-229zM302 1235c-79 0 -137 61 -137 142c0 78 58 140 137 140c78 0 137 -62 137 -140c0 -81 -59 -142 -137 -142z
M302 1330c24 0 42 20 42 47c0 25 -18 44 -42 44c-23 0 -41 -19 -41 -44c0 -27 18 -47 41 -47z" />
    <glyph glyph-name="utilde" unicode="&#x169;" horiz-adv-x="608" 
d="M358 0l-15 58c-47 -44 -102 -66 -166 -66c-105 0 -158 54 -158 162v1046h262v-956c0 -38 6 -56 18 -56c10 0 17 16 20 49c3 32 4 80 4 142v821h264v-1200h-229zM383 1245c-56 0 -99 52 -130 52c-33 0 -39 -27 -39 -47h-120c0 67 24 145 128 145c56 0 100 -50 131 -50
c28 0 39 28 39 47h119c0 -66 -25 -147 -128 -147z" />
    <glyph glyph-name="uni1E79" unicode="&#x1e79;" horiz-adv-x="608" 
d="M358 0l-15 58c-47 -44 -102 -66 -166 -66c-105 0 -158 54 -158 162v1046h262v-956c0 -38 6 -56 18 -56c10 0 17 16 20 49c3 32 4 80 4 142v821h264v-1200h-229zM383 1245c-56 0 -99 52 -130 52c-33 0 -39 -27 -39 -47h-120c0 67 24 145 128 145c56 0 100 -50 131 -50
c28 0 39 28 39 47h119c0 -66 -25 -147 -128 -147zM175 1424l80 185h175l-132 -185h-123z" />
    <glyph glyph-name="v" unicode="v" horiz-adv-x="632" 
d="M107 0l-97 1200h275l28 -1011h4l28 1011h276l-97 -1200h-417z" />
    <glyph glyph-name="w" unicode="w" horiz-adv-x="1036" 
d="M85 0l-70 1200h274l-4 -1011h5l64 1011h331l61 -1011h5l-3 1011h272l-71 -1200h-392l-37 829l-41 -829h-394z" />
    <glyph glyph-name="wacute" unicode="&#x1e83;" horiz-adv-x="1036" 
d="M85 0l-70 1200h274l-4 -1011h5l64 1011h331l61 -1011h5l-3 1011h272l-71 -1200h-392l-37 829l-41 -829h-394zM392 1232l80 185h175l-132 -185h-123z" />
    <glyph glyph-name="wcircumflex" unicode="&#x175;" horiz-adv-x="1036" 
d="M85 0l-70 1200h274l-4 -1011h5l64 1011h331l61 -1011h5l-3 1011h272l-71 -1200h-392l-37 829l-41 -829h-394zM342 1246l93 183h170l91 -183h-120l-57 124l-58 -124h-119z" />
    <glyph glyph-name="wdieresis" unicode="&#x1e85;" horiz-adv-x="1036" 
d="M85 0l-70 1200h274l-4 -1011h5l64 1011h331l61 -1011h5l-3 1011h272l-71 -1200h-392l-37 829l-41 -829h-394zM404 1249c-39 0 -71 32 -71 72c0 39 32 71 71 71s71 -32 71 -71c0 -40 -32 -72 -71 -72zM636 1249c-40 0 -72 32 -72 72c0 39 32 71 72 71c39 0 71 -32 71 -71
c0 -40 -32 -72 -71 -72z" />
    <glyph glyph-name="wgrave" unicode="&#x1e81;" horiz-adv-x="1036" 
d="M85 0l-70 1200h274l-4 -1011h5l64 1011h331l61 -1011h5l-3 1011h272l-71 -1200h-392l-37 829l-41 -829h-394zM525 1237l-134 185h178l79 -185h-123z" />
    <glyph glyph-name="x" unicode="x" horiz-adv-x="640" 
d="M10 0l92 600l-92 600h275l34 -500l33 500h275l-92 -600l93 -600h-276l-33 501l-34 -501h-275z" />
    <glyph glyph-name="y" unicode="y" horiz-adv-x="655" 
d="M99 0l-90 1200h273l47 -1001h2l46 1001h273l-93 -1200c-15 -168 -67 -286 -156 -355c-89 -70 -204 -104 -344 -104v199c58 0 114 21 169 64c55 42 86 108 94 196h-221z" />
    <glyph glyph-name="y.ss01" horiz-adv-x="602" 
d="M297 -459c-230 0 -276 81 -276 385h256c0 -151 1 -197 21 -197s21 45 21 304v8c-42 -33 -91 -49 -146 -49c-105 0 -158 54 -158 162v1046h262v-956c0 -38 6 -56 18 -56c10 0 17 16 20 49c3 32 4 80 4 142v821h265v-1211c0 -369 -50 -448 -287 -448z" />
    <glyph glyph-name="yacute" unicode="&#xfd;" horiz-adv-x="655" 
d="M99 0l-90 1200h273l47 -1001h2l46 1001h273l-93 -1200c-15 -168 -67 -286 -156 -355c-89 -70 -204 -104 -344 -104v199c58 0 114 21 169 64c55 42 86 108 94 196h-221zM198 1232l81 185h174l-132 -185h-123z" />
    <glyph glyph-name="ycircumflex" unicode="&#x177;" horiz-adv-x="655" 
d="M99 0l-90 1200h273l47 -1001h2l46 1001h273l-93 -1200c-15 -168 -67 -286 -156 -355c-89 -70 -204 -104 -344 -104v199c58 0 114 21 169 64c55 42 86 108 94 196h-221zM149 1246l93 183h169l92 -183h-120l-58 124l-57 -124h-119z" />
    <glyph glyph-name="ydieresis" unicode="&#xff;" horiz-adv-x="655" 
d="M99 0l-90 1200h273l47 -1001h2l46 1001h273l-93 -1200c-15 -168 -67 -286 -156 -355c-89 -70 -204 -104 -344 -104v199c58 0 114 21 169 64c55 42 86 108 94 196h-221zM211 1249c-40 0 -72 32 -72 72c0 39 32 71 72 71c39 0 71 -32 71 -71c0 -40 -32 -72 -71 -72z
M443 1249c-40 0 -72 32 -72 72c0 39 32 71 72 71c39 0 71 -32 71 -71c0 -40 -32 -72 -71 -72z" />
    <glyph glyph-name="uni1E8F" unicode="&#x1e8f;" horiz-adv-x="655" 
d="M99 0l-90 1200h273l47 -1001h2l46 1001h273l-93 -1200c-15 -168 -67 -286 -156 -355c-89 -70 -204 -104 -344 -104v199c58 0 114 21 169 64c55 42 86 108 94 196h-221zM326 1239c-44 0 -80 35 -80 80c0 44 36 79 80 79s80 -35 80 -79s-36 -80 -80 -80z" />
    <glyph glyph-name="uni1EF5" unicode="&#x1ef5;" horiz-adv-x="655" 
d="M99 0l-90 1200h273l47 -1001h2l46 1001h273l-93 -1200c-15 -168 -67 -286 -156 -355c-89 -70 -204 -104 -344 -104v199c58 0 114 21 169 64c55 42 86 108 94 196h-221zM589 -513c-44 0 -80 36 -80 80s35 80 80 80c43 0 79 -36 79 -80s-35 -80 -79 -80z" />
    <glyph glyph-name="ygrave" unicode="&#x1ef3;" horiz-adv-x="655" 
d="M99 0l-90 1200h273l47 -1001h2l46 1001h273l-93 -1200c-15 -168 -67 -286 -156 -355c-89 -70 -204 -104 -344 -104v199c58 0 114 21 169 64c55 42 86 108 94 196h-221zM331 1237l-133 185h177l79 -185h-123z" />
    <glyph glyph-name="uni1EF7" unicode="&#x1ef7;" horiz-adv-x="655" 
d="M99 0l-90 1200h273l47 -1001h2l46 1001h273l-93 -1200c-15 -168 -67 -286 -156 -355c-89 -70 -204 -104 -344 -104v199c58 0 114 21 169 64c55 42 86 108 94 196h-221zM232 1506c162 0 253 -24 253 -110c0 -73 -78 -105 -123 -105v-47h-96v117c52 0 102 8 102 28
c0 25 -34 28 -136 28v89z" />
    <glyph glyph-name="uni0233" unicode="&#x233;" horiz-adv-x="655" 
d="M99 0l-90 1200h273l47 -1001h2l46 1001h273l-93 -1200c-15 -168 -67 -286 -156 -355c-89 -70 -204 -104 -344 -104v199c58 0 114 21 169 64c55 42 86 108 94 196h-221zM145 1257v98h361v-98h-361z" />
    <glyph glyph-name="uni1EF9" unicode="&#x1ef9;" horiz-adv-x="655" 
d="M99 0l-90 1200h273l47 -1001h2l46 1001h273l-93 -1200c-15 -168 -67 -286 -156 -355c-89 -70 -204 -104 -344 -104v199c58 0 114 21 169 64c55 42 86 108 94 196h-221zM407 1245c-56 0 -100 52 -130 52c-34 0 -40 -27 -40 -47h-119c0 67 24 145 127 145
c56 0 100 -50 131 -50c29 0 40 28 40 47h118c0 -66 -24 -147 -127 -147z" />
    <glyph glyph-name="z" unicode="z" horiz-adv-x="419" 
d="M14 0v183l130 824h-121v193h379v-183l-129 -824h132v-193h-391z" />
    <glyph glyph-name="zacute" unicode="&#x17a;" horiz-adv-x="419" 
d="M14 0v183l130 824h-121v193h379v-183l-129 -824h132v-193h-391zM86 1232l81 185h174l-132 -185h-123z" />
    <glyph glyph-name="zcaron" unicode="&#x17e;" horiz-adv-x="419" 
d="M14 0v183l130 824h-121v193h379v-183l-129 -824h132v-193h-391zM130 1238l-93 183h119l57 -124l58 124h120l-92 -183h-169z" />
    <glyph glyph-name="zdotaccent" unicode="&#x17c;" horiz-adv-x="419" 
d="M14 0v183l130 824h-121v193h379v-183l-129 -824h132v-193h-391zM214 1239c-44 0 -80 35 -80 80c0 44 35 79 80 79c43 0 79 -35 79 -79s-35 -80 -79 -80z" />
    <glyph glyph-name="uni1E93" unicode="&#x1e93;" horiz-adv-x="419" 
d="M14 0v183l130 824h-121v193h379v-183l-129 -824h132v-193h-391zM211 -296c-44 0 -80 36 -80 80s36 80 80 80s80 -36 80 -80s-36 -80 -80 -80z" />
    <glyph glyph-name="a.sc" horiz-adv-x="609" 
d="M12 0l79 1202h423l81 -1202h-268l-3 192h-41l-3 -192h-268zM286 389h35l-10 619h-14z" />
    <glyph glyph-name="a.ss01.sc" horiz-adv-x="609" 
d="M12 0l79 1202h423l81 -1202h-268l-3 192h-41l-3 -192h-268zM286 389h35l-10 619h-14z" />
    <glyph glyph-name="aacute.sc" horiz-adv-x="609" 
d="M12 0l79 1202h423l81 -1202h-268l-3 192h-41l-3 -192h-268zM176 1234l80 185h175l-132 -185h-123zM286 389h35l-10 619h-14z" />
    <glyph glyph-name="abreve.sc" horiz-adv-x="609" 
d="M12 0l79 1202h423l81 -1202h-268l-3 192h-41l-3 -192h-268zM304 1240c-102 0 -149 69 -149 164h124c0 -52 8 -69 25 -69s23 19 23 69h125c0 -95 -48 -164 -148 -164zM286 389h35l-10 619h-14z" />
    <glyph glyph-name="uni1EAF.sc" horiz-adv-x="609" 
d="M12 0l79 1202h423l81 -1202h-268l-3 192h-41l-3 -192h-268zM304 1240c-102 0 -149 69 -149 164h124c0 -52 8 -69 25 -69s23 19 23 69h125c0 -95 -48 -164 -148 -164zM176 1436l80 185h175l-132 -185h-123zM286 389h35l-10 619h-14z" />
    <glyph glyph-name="uni1EB7.sc" horiz-adv-x="609" 
d="M12 0l79 1202h423l81 -1202h-268l-3 192h-41l-3 -192h-268zM304 1240c-102 0 -149 69 -149 164h124c0 -52 8 -69 25 -69s23 19 23 69h125c0 -95 -48 -164 -148 -164zM304 -296c-44 0 -80 36 -80 80s35 80 80 80c43 0 79 -36 79 -80s-35 -80 -79 -80zM286 389h35l-10 619
h-14z" />
    <glyph glyph-name="uni1EB1.sc" horiz-adv-x="609" 
d="M12 0l79 1202h423l81 -1202h-268l-3 192h-41l-3 -192h-268zM304 1240c-102 0 -149 69 -149 164h124c0 -52 8 -69 25 -69s23 19 23 69h125c0 -95 -48 -164 -148 -164zM309 1441l-134 185h178l79 -185h-123zM286 389h35l-10 619h-14z" />
    <glyph glyph-name="uni1EB3.sc" horiz-adv-x="609" 
d="M12 0l79 1202h423l81 -1202h-268l-3 192h-41l-3 -192h-268zM210 1710c162 0 253 -24 253 -110c0 -73 -78 -105 -123 -105v-47h-96v117c51 0 102 8 102 28c0 25 -35 28 -136 28v89zM304 1240c-102 0 -149 69 -149 164h124c0 -52 8 -69 25 -69s23 19 23 69h125
c0 -95 -48 -164 -148 -164zM286 389h35l-10 619h-14z" />
    <glyph glyph-name="uni1EB5.sc" horiz-adv-x="609" 
d="M12 0l79 1202h423l81 -1202h-268l-3 192h-41l-3 -192h-268zM384 1449c-56 0 -99 52 -130 52c-33 0 -39 -27 -39 -47h-120c0 67 24 145 128 145c56 0 100 -50 131 -50c28 0 39 28 39 47h119c0 -66 -25 -147 -128 -147zM304 1240c-102 0 -149 69 -149 164h124
c0 -52 8 -69 25 -69s23 19 23 69h125c0 -95 -48 -164 -148 -164zM286 389h35l-10 619h-14z" />
    <glyph glyph-name="uni01CE.sc" horiz-adv-x="609" 
d="M12 0l79 1202h423l81 -1202h-268l-3 192h-41l-3 -192h-268zM219 1240l-93 183h119l58 -124l57 124h120l-91 -183h-170zM286 389h35l-10 619h-14z" />
    <glyph glyph-name="acircumflex.sc" horiz-adv-x="609" 
d="M12 0l79 1202h423l81 -1202h-268l-3 192h-41l-3 -192h-268zM126 1248l93 183h170l91 -183h-120l-57 124l-58 -124h-119zM286 389h35l-10 619h-14z" />
    <glyph glyph-name="uni1EA5.sc" horiz-adv-x="609" 
d="M12 0l79 1202h423l81 -1202h-268l-3 192h-41l-3 -192h-268zM125 1260l93 183h170l91 -183h-120l-57 124l-58 -124h-119zM421 1416l80 185h175l-132 -185h-123zM286 389h35l-10 619h-14z" />
    <glyph glyph-name="uni1EAD.sc" horiz-adv-x="609" 
d="M12 0l79 1202h423l81 -1202h-268l-3 192h-41l-3 -192h-268zM126 1248l93 183h170l91 -183h-120l-57 124l-58 -124h-119zM304 -296c-44 0 -80 36 -80 80s35 80 80 80c43 0 79 -36 79 -80s-35 -80 -79 -80zM286 389h35l-10 619h-14z" />
    <glyph glyph-name="uni1EA7.sc" horiz-adv-x="609" 
d="M12 0l79 1202h423l81 -1202h-268l-3 192h-41l-3 -192h-268zM127 1259l93 183h170l91 -183h-120l-57 125l-58 -125h-119zM475 1417l-133 185h177l79 -185h-123zM286 389h35l-10 619h-14z" />
    <glyph glyph-name="uni1EA9.sc" horiz-adv-x="609" 
d="M12 0l79 1202h423l81 -1202h-268l-3 192h-41l-3 -192h-268zM210 1736c162 0 253 -23 253 -109c0 -74 -78 -105 -123 -105v-48h-96v117c51 0 102 8 102 29c0 24 -35 28 -136 28v88zM126 1248l93 183h170l91 -183h-120l-57 124l-58 -124h-119zM286 389h35l-10 619h-14z" />
    <glyph glyph-name="uni1EAB.sc" horiz-adv-x="609" 
d="M12 0l79 1202h423l81 -1202h-268l-3 192h-41l-3 -192h-268zM384 1476c-56 0 -99 52 -130 52c-33 0 -39 -27 -39 -47h-120c0 67 24 144 128 144c56 0 100 -49 131 -49c28 0 39 27 39 47h119c0 -67 -25 -147 -128 -147zM126 1248l93 183h170l91 -183h-120l-57 124l-58 -124
h-119zM286 389h35l-10 619h-14z" />
    <glyph glyph-name="uni0201.sc" horiz-adv-x="609" 
d="M12 0l79 1202h423l81 -1202h-268l-3 192h-41l-3 -192h-268zM191 1260l-134 185h178l79 -185h-123zM426 1260l-134 185h178l79 -185h-123zM286 389h35l-10 619h-14z" />
    <glyph glyph-name="adieresis.sc" horiz-adv-x="609" 
d="M12 0l79 1202h423l81 -1202h-268l-3 192h-41l-3 -192h-268zM188 1251c-39 0 -71 32 -71 72c0 39 32 71 71 71s71 -32 71 -71c0 -40 -32 -72 -71 -72zM420 1251c-40 0 -72 32 -72 72c0 39 32 71 72 71c39 0 71 -32 71 -71c0 -40 -32 -72 -71 -72zM286 389h35l-10 619h-14z
" />
    <glyph glyph-name="uni1EA1.sc" horiz-adv-x="609" 
d="M12 0l79 1202h423l81 -1202h-268l-3 192h-41l-3 -192h-268zM304 -296c-44 0 -80 36 -80 80s35 80 80 80c43 0 79 -36 79 -80s-35 -80 -79 -80zM286 389h35l-10 619h-14z" />
    <glyph glyph-name="agrave.sc" horiz-adv-x="609" 
d="M12 0l79 1202h423l81 -1202h-268l-3 192h-41l-3 -192h-268zM309 1239l-134 185h178l79 -185h-123zM286 389h35l-10 619h-14z" />
    <glyph glyph-name="uni1EA3.sc" horiz-adv-x="609" 
d="M12 0l79 1202h423l81 -1202h-268l-3 192h-41l-3 -192h-268zM210 1508c162 0 253 -24 253 -110c0 -73 -78 -105 -123 -105v-47h-96v117c51 0 102 8 102 28c0 25 -35 28 -136 28v89zM286 389h35l-10 619h-14z" />
    <glyph glyph-name="uni0203.sc" horiz-adv-x="609" 
d="M12 0l79 1202h423l81 -1202h-268l-3 192h-41l-3 -192h-268zM303 1409c102 0 149 -70 149 -165h-124c0 53 -8 70 -25 70s-23 -19 -23 -70h-125c0 95 48 165 148 165zM286 389h35l-10 619h-14z" />
    <glyph glyph-name="amacron.sc" horiz-adv-x="609" 
d="M12 0l79 1202h423l81 -1202h-268l-3 192h-41l-3 -192h-268zM123 1259v98h361v-98h-361zM286 389h35l-10 619h-14z" />
    <glyph glyph-name="aogonek.sc" horiz-adv-x="609" 
d="M12 0l79 1202h423l81 -1202c-20 -36 -46 -106 -46 -148c0 -32 17 -48 51 -48c36 0 78 10 83 15l1 -142c-5 -4 -57 -15 -115 -15c-87 0 -176 23 -176 129c0 85 52 174 73 209h-139l-3 192h-41l-3 -192h-268zM286 389h35l-10 619h-14z" />
    <glyph glyph-name="aring.sc" horiz-adv-x="609" 
d="M12 0l79 1202h423l81 -1202h-268l-3 192h-41l-3 -192h-268zM303 1237c-79 0 -137 61 -137 142c0 78 58 140 137 140c78 0 137 -62 137 -140c0 -81 -59 -142 -137 -142zM286 389h35l-10 619h-14zM303 1332c24 0 42 20 42 47c0 25 -18 44 -42 44c-23 0 -41 -19 -41 -44
c0 -27 18 -47 41 -47z" />
    <glyph glyph-name="aringacute.sc" horiz-adv-x="609" 
d="M12 0l79 1202h423l81 -1202h-268l-3 192h-41l-3 -192h-268zM303 1237c-79 0 -137 61 -137 142c0 78 58 140 137 140c78 0 137 -62 137 -140c0 -81 -59 -142 -137 -142zM176 1551l80 185h175l-132 -185h-123zM286 389h35l-10 619h-14zM303 1332c24 0 42 20 42 47
c0 25 -18 44 -42 44c-23 0 -41 -19 -41 -44c0 -27 18 -47 41 -47z" />
    <glyph glyph-name="atilde.sc" horiz-adv-x="609" 
d="M12 0l79 1202h423l81 -1202h-268l-3 192h-41l-3 -192h-268zM384 1247c-56 0 -99 52 -130 52c-33 0 -39 -27 -39 -47h-120c0 67 24 145 128 145c56 0 100 -50 131 -50c28 0 39 28 39 47h119c0 -66 -25 -147 -128 -147zM286 389h35l-10 619h-14z" />
    <glyph glyph-name="ae.sc" horiz-adv-x="756" 
d="M12 0l132 1202h594v-197h-111v-301h111v-194h-111v-313h111v-197h-377v197h-54l-13 -197h-282zM319 386h42v620z" />
    <glyph glyph-name="aeacute.sc" horiz-adv-x="756" 
d="M12 0l132 1202h594v-197h-111v-301h111v-194h-111v-313h111v-197h-377v197h-54l-13 -197h-282zM250 1234l81 185h174l-132 -185h-123zM319 386h42v620z" />
    <glyph glyph-name="b.sc" horiz-adv-x="599" 
d="M16 0v1202h390c115 0 173 -36 173 -108c1 -73 1 -131 1 -177v-158c0 -61 -39 -92 -116 -93c77 -4 116 -41 116 -109v-195c0 -87 0 -169 -1 -246c0 -77 -64 -116 -190 -116h-373zM283 197h11c13 0 20 10 20 30c1 20 1 69 1 147c0 82 0 134 -1 158c-1 23 -8 34 -21 34h-10
v-369zM283 761h10c14 0 21 10 22 31v101c0 49 0 81 -1 95c-1 13 -8 20 -22 20h-9v-247z" />
    <glyph glyph-name="c.sc" horiz-adv-x="601" 
d="M298 -7c-188 0 -281 54 -281 162v450c0 192 -1 342 -1 448c0 25 6 48 17 68c34 60 122 91 264 91c190 0 286 -53 286 -159v-362h-265v284c0 26 -6 40 -18 40c-3 0 -5 -1 -6 -2c-9 -4 -13 -17 -13 -38c0 -27 1 -150 1 -370v-374c0 -27 6 -41 18 -41s18 14 18 41v276h265
v-352c0 -108 -95 -162 -285 -162z" />
    <glyph glyph-name="cacute.sc" horiz-adv-x="601" 
d="M298 -7c-188 0 -281 54 -281 162v450c0 192 -1 342 -1 448c0 25 6 48 17 68c34 60 122 91 264 91c190 0 286 -53 286 -159v-362h-265v284c0 26 -6 40 -18 40c-3 0 -5 -1 -6 -2c-9 -4 -13 -17 -13 -38c0 -27 1 -150 1 -370v-374c0 -27 6 -41 18 -41s18 14 18 41v276h265
v-352c0 -108 -95 -162 -285 -162zM172 1234l81 185h174l-132 -185h-123z" />
    <glyph glyph-name="ccaron.sc" horiz-adv-x="601" 
d="M298 -7c-188 0 -281 54 -281 162v450c0 192 -1 342 -1 448c0 25 6 48 17 68c34 60 122 91 264 91c190 0 286 -53 286 -159v-362h-265v284c0 26 -6 40 -18 40c-3 0 -5 -1 -6 -2c-9 -4 -13 -17 -13 -38c0 -27 1 -150 1 -370v-374c0 -27 6 -41 18 -41s18 14 18 41v276h265
v-352c0 -108 -95 -162 -285 -162zM216 1240l-93 183h119l57 -124l58 124h120l-92 -183h-169z" />
    <glyph glyph-name="ccedilla.sc" horiz-adv-x="601" 
d="M287 -305c-32 0 -77 4 -107 12l29 111c16 -5 47 -10 76 -10c55 0 75 16 75 42c0 16 -10 24 -20 24s-18 -4 -25 -12l-96 11l30 121c-155 9 -232 63 -232 161v450c0 192 -1 342 -1 448c0 25 6 48 17 68c34 60 122 91 264 91c190 0 286 -53 286 -159v-362h-265v284
c0 26 -6 40 -18 40c-3 0 -5 -1 -6 -2c-9 -4 -13 -17 -13 -38c0 -27 1 -150 1 -370v-374c0 -27 6 -41 18 -41s18 14 18 41v276h265v-352c0 -97 -77 -151 -231 -160l-17 -61c16 12 39 20 72 20c60 0 91 -34 91 -99c0 -100 -95 -160 -211 -160z" />
    <glyph glyph-name="uni1E09.sc" horiz-adv-x="601" 
d="M287 -305c-32 0 -77 4 -107 12l29 111c16 -5 47 -10 76 -10c55 0 75 16 75 42c0 16 -10 24 -20 24s-18 -4 -25 -12l-96 11l30 121c-155 9 -232 63 -232 161v450c0 192 -1 342 -1 448c0 25 6 48 17 68c34 60 122 91 264 91c190 0 286 -53 286 -159v-362h-265v284
c0 26 -6 40 -18 40c-3 0 -5 -1 -6 -2c-9 -4 -13 -17 -13 -38c0 -27 1 -150 1 -370v-374c0 -27 6 -41 18 -41s18 14 18 41v276h265v-352c0 -97 -77 -151 -231 -160l-17 -61c16 12 39 20 72 20c60 0 91 -34 91 -99c0 -100 -95 -160 -211 -160zM172 1234l81 185h174l-132 -185
h-123z" />
    <glyph glyph-name="ccircumflex.sc" horiz-adv-x="601" 
d="M298 -7c-188 0 -281 54 -281 162v450c0 192 -1 342 -1 448c0 25 6 48 17 68c34 60 122 91 264 91c190 0 286 -53 286 -159v-362h-265v284c0 26 -6 40 -18 40c-3 0 -5 -1 -6 -2c-9 -4 -13 -17 -13 -38c0 -27 1 -150 1 -370v-374c0 -27 6 -41 18 -41s18 14 18 41v276h265
v-352c0 -108 -95 -162 -285 -162zM123 1248l93 183h169l92 -183h-120l-58 124l-57 -124h-119z" />
    <glyph glyph-name="cdotaccent.sc" horiz-adv-x="601" 
d="M298 -7c-188 0 -281 54 -281 162v450c0 192 -1 342 -1 448c0 25 6 48 17 68c34 60 122 91 264 91c190 0 286 -53 286 -159v-362h-265v284c0 26 -6 40 -18 40c-3 0 -5 -1 -6 -2c-9 -4 -13 -17 -13 -38c0 -27 1 -150 1 -370v-374c0 -27 6 -41 18 -41s18 14 18 41v276h265
v-352c0 -108 -95 -162 -285 -162zM300 1241c-44 0 -80 35 -80 80c0 44 35 79 80 79c43 0 79 -35 79 -79s-35 -80 -79 -80z" />
    <glyph glyph-name="d.sc" 
d="M16 0v1202h404c105 0 158 -41 158 -123c1 -82 1 -241 1 -477c0 -218 0 -372 -1 -464c0 -92 -53 -138 -158 -138h-404zM281 197h11c14 0 21 15 22 45v360v358c-1 30 -8 45 -22 45h-11v-808z" />
    <glyph glyph-name="eth.sc" horiz-adv-x="644" 
d="M16 515v174h48v513h366c118 0 181 -30 187 -89c7 -60 10 -230 10 -511c0 -263 -2 -429 -5 -498c-4 -69 -68 -104 -192 -104h-366v515h-48zM329 197h11c13 0 21 8 21 23c1 15 1 142 1 382c0 238 0 365 -1 380c0 15 -8 23 -21 23h-11v-316h19v-174h-19v-318z" />
    <glyph glyph-name="dcaron.sc" 
d="M16 0v1202h404c105 0 158 -41 158 -123c1 -82 1 -241 1 -477c0 -218 0 -372 -1 -464c0 -92 -53 -138 -158 -138h-404zM212 1240l-93 183h119l58 -124l57 124h120l-91 -183h-170zM281 197h11c14 0 21 15 22 45v360v358c-1 30 -8 45 -22 45h-11v-808z" />
    <glyph glyph-name="dcroat.sc" horiz-adv-x="644" 
d="M16 515v174h48v513h366c118 0 181 -30 187 -89c7 -60 10 -230 10 -511c0 -263 -2 -429 -5 -498c-4 -69 -68 -104 -192 -104h-366v515h-48zM329 197h11c13 0 21 8 21 23c1 15 1 142 1 382c0 238 0 365 -1 380c0 15 -8 23 -21 23h-11v-316h19v-174h-19v-318z" />
    <glyph glyph-name="uni1E0D.sc" 
d="M16 0v1202h404c105 0 158 -41 158 -123c1 -82 1 -241 1 -477c0 -218 0 -372 -1 -464c0 -92 -53 -138 -158 -138h-404zM281 197h11c14 0 21 15 22 45v360v358c-1 30 -8 45 -22 45h-11v-808zM297 -296c-44 0 -80 36 -80 80s35 80 80 80c43 0 79 -36 79 -80s-35 -80 -79 -80
z" />
    <glyph glyph-name="uni1E0F.sc" 
d="M16 0v1202h404c105 0 158 -41 158 -123c1 -82 1 -241 1 -477c0 -218 0 -372 -1 -464c0 -92 -53 -138 -158 -138h-404zM116 -207v98h361v-98h-361zM281 197h11c14 0 21 15 22 45v360v358c-1 30 -8 45 -22 45h-11v-808z" />
    <glyph glyph-name="uni01C6.sc" horiz-adv-x="1014" 
d="M16 0v1202h404c105 0 158 -41 158 -123c1 -82 1 -241 1 -477c0 -218 0 -372 -1 -464c0 -92 -53 -138 -158 -138h-404zM612 0v197l138 811h-128v194h370v-193l-136 -815h139v-194h-383zM721 1240l-93 183h119l57 -124l58 124h120l-92 -183h-169zM281 197h11
c14 0 21 15 22 45v360v358c-1 30 -8 45 -22 45h-11v-808z" />
    <glyph glyph-name="e.sc" horiz-adv-x="412" 
d="M17 0v1202h378v-197h-111v-301h111v-194h-111v-313h111v-197h-378z" />
    <glyph glyph-name="eacute.sc" horiz-adv-x="412" 
d="M17 0v1202h378v-197h-111v-301h111v-194h-111v-313h111v-197h-378zM79 1234l81 185h174l-132 -185h-123z" />
    <glyph glyph-name="ebreve.sc" horiz-adv-x="412" 
d="M17 0v1202h378v-197h-111v-301h111v-194h-111v-313h111v-197h-378zM207 1240c-102 0 -149 69 -149 164h124c0 -52 8 -69 25 -69s23 19 23 69h125c0 -95 -48 -164 -148 -164z" />
    <glyph glyph-name="ecaron.sc" horiz-adv-x="412" 
d="M17 0v1202h378v-197h-111v-301h111v-194h-111v-313h111v-197h-378zM123 1240l-93 183h119l57 -124l58 124h120l-92 -183h-169z" />
    <glyph glyph-name="uni1E1D.sc" horiz-adv-x="412" 
d="M17 0v1202h378v-197h-111v-301h111v-194h-111v-313h111v-197h-135l-18 -66c16 12 39 20 72 20c60 0 91 -34 91 -99c0 -100 -95 -160 -211 -160c-32 0 -77 4 -107 12l29 111c16 -5 47 -10 76 -10c55 0 75 16 75 42c0 16 -10 24 -20 24s-18 -4 -25 -12l-96 11l31 127h-140z
M207 1240c-102 0 -149 69 -149 164h124c0 -52 8 -69 25 -69s23 19 23 69h125c0 -95 -48 -164 -148 -164z" />
    <glyph glyph-name="ecircumflex.sc" horiz-adv-x="412" 
d="M17 0v1202h378v-197h-111v-301h111v-194h-111v-313h111v-197h-378zM30 1248l93 183h169l92 -183h-120l-58 124l-57 -124h-119z" />
    <glyph glyph-name="uni1EBF.sc" horiz-adv-x="412" 
d="M17 0v1202h378v-197h-111v-301h111v-194h-111v-313h111v-197h-378zM28 1260l93 183h170l91 -183h-120l-57 124l-58 -124h-119zM324 1416l80 185h175l-132 -185h-123z" />
    <glyph glyph-name="uni1EC7.sc" horiz-adv-x="412" 
d="M17 0v1202h378v-197h-111v-301h111v-194h-111v-313h111v-197h-378zM30 1248l93 183h169l92 -183h-120l-58 124l-57 -124h-119zM207 -296c-44 0 -80 36 -80 80s35 80 80 80c43 0 79 -36 79 -80s-35 -80 -79 -80z" />
    <glyph glyph-name="uni1EC1.sc" horiz-adv-x="412" 
d="M17 0v1202h378v-197h-111v-301h111v-194h-111v-313h111v-197h-378zM30 1259l93 183h170l91 -183h-120l-57 125l-58 -125h-119zM379 1417l-134 185h178l79 -185h-123z" />
    <glyph glyph-name="uni1EC3.sc" horiz-adv-x="412" 
d="M17 0v1202h378v-197h-111v-301h111v-194h-111v-313h111v-197h-378zM113 1736c162 0 253 -23 253 -109c0 -74 -78 -105 -123 -105v-48h-96v117c52 0 102 8 102 29c0 24 -34 28 -136 28v88zM30 1248l93 183h169l92 -183h-120l-58 124l-57 -124h-119z" />
    <glyph glyph-name="uni1EC5.sc" horiz-adv-x="412" 
d="M17 0v1202h378v-197h-111v-301h111v-194h-111v-313h111v-197h-378zM287 1476c-56 0 -99 52 -129 52c-34 0 -40 -27 -40 -47h-120c0 67 25 144 128 144c56 0 100 -49 131 -49c29 0 40 27 40 47h118c0 -67 -24 -147 -128 -147zM30 1248l93 183h169l92 -183h-120l-58 124
l-57 -124h-119z" />
    <glyph glyph-name="uni0205.sc" horiz-adv-x="412" 
d="M17 0v1202h378v-197h-111v-301h111v-194h-111v-313h111v-197h-378zM94 1260l-134 185h178l79 -185h-123zM329 1260l-134 185h178l79 -185h-123z" />
    <glyph glyph-name="edieresis.sc" horiz-adv-x="412" 
d="M17 0v1202h378v-197h-111v-301h111v-194h-111v-313h111v-197h-378zM92 1251c-40 0 -72 32 -72 72c0 39 32 71 72 71c39 0 71 -32 71 -71c0 -40 -32 -72 -71 -72zM323 1251c-39 0 -71 32 -71 72c0 39 32 71 71 71s71 -32 71 -71c0 -40 -32 -72 -71 -72z" />
    <glyph glyph-name="edotaccent.sc" horiz-adv-x="412" 
d="M17 0v1202h378v-197h-111v-301h111v-194h-111v-313h111v-197h-378zM207 1241c-44 0 -80 35 -80 80c0 44 35 79 80 79c43 0 79 -35 79 -79s-35 -80 -79 -80z" />
    <glyph glyph-name="uni1EB9.sc" horiz-adv-x="412" 
d="M17 0v1202h378v-197h-111v-301h111v-194h-111v-313h111v-197h-378zM207 -296c-44 0 -80 36 -80 80s35 80 80 80c43 0 79 -36 79 -80s-35 -80 -79 -80z" />
    <glyph glyph-name="egrave.sc" horiz-adv-x="412" 
d="M17 0v1202h378v-197h-111v-301h111v-194h-111v-313h111v-197h-378zM212 1239l-134 185h178l79 -185h-123z" />
    <glyph glyph-name="uni1EBB.sc" horiz-adv-x="412" 
d="M17 0v1202h378v-197h-111v-301h111v-194h-111v-313h111v-197h-378zM113 1508c162 0 253 -24 253 -110c0 -73 -78 -105 -123 -105v-47h-96v117c52 0 102 8 102 28c0 25 -34 28 -136 28v89z" />
    <glyph glyph-name="uni0207.sc" horiz-adv-x="412" 
d="M17 0v1202h378v-197h-111v-301h111v-194h-111v-313h111v-197h-378zM206 1409c102 0 149 -70 149 -165h-124c0 53 -8 70 -25 70s-23 -19 -23 -70h-125c0 95 48 165 148 165z" />
    <glyph glyph-name="emacron.sc" horiz-adv-x="412" 
d="M17 0v1202h378v-197h-111v-301h111v-194h-111v-313h111v-197h-378zM26 1259v98h361v-98h-361z" />
    <glyph glyph-name="uni1E17.sc" horiz-adv-x="412" 
d="M17 0v1202h378v-197h-111v-301h111v-194h-111v-313h111v-197h-378zM26 1259v98h361v-98h-361zM79 1389l81 185h174l-132 -185h-123z" />
    <glyph glyph-name="uni1E15.sc" horiz-adv-x="412" 
d="M17 0v1202h378v-197h-111v-301h111v-194h-111v-313h111v-197h-378zM26 1259v98h361v-98h-361zM212 1394l-134 185h178l79 -185h-123z" />
    <glyph glyph-name="eogonek.sc" horiz-adv-x="412" 
d="M17 0v1202h378v-197h-111v-301h111v-194h-111v-313h111v-197h-100c-19 -36 -46 -106 -46 -148c0 -32 17 -48 52 -48s77 10 82 15l2 -142c-6 -4 -57 -15 -116 -15c-86 0 -176 23 -176 129c0 85 52 174 73 209h-149z" />
    <glyph glyph-name="uni1EBD.sc" horiz-adv-x="412" 
d="M17 0v1202h378v-197h-111v-301h111v-194h-111v-313h111v-197h-378zM287 1247c-56 0 -99 52 -129 52c-34 0 -40 -27 -40 -47h-120c0 67 25 145 128 145c56 0 100 -50 131 -50c29 0 40 28 40 47h118c0 -66 -24 -147 -128 -147z" />
    <glyph glyph-name="uni0259.sc" horiz-adv-x="607" 
d="M303 -8c-191 0 -287 51 -287 155v541h308v264c0 41 -7 61 -19 61c-21 0 -22 -59 -22 -210h-267c0 313 33 407 289 407c190 0 285 -54 285 -162v-901c0 -104 -96 -155 -287 -155zM324 514h-41v-271c0 -35 6 -53 20 -53s21 18 21 53v271z" />
    <glyph glyph-name="f.sc" horiz-adv-x="412" 
d="M16 0v1202h377v-197h-110v-362h111v-193h-111v-450h-267z" />
    <glyph glyph-name="g.sc" horiz-adv-x="605" 
d="M271 -7c-170 0 -255 54 -255 162v451c0 192 0 341 1 447c0 106 95 159 284 159c151 0 243 -31 273 -92c8 -15 12 -33 12 -52c-1 -96 -1 -202 -1 -316h-266v225c0 25 -6 38 -17 38c-13 0 -19 -12 -19 -35v-397v-357s7 -36 21 -36c11 0 18 8 21 23c3 16 4 38 4 67v148h-25
v182h281v-610h-133l-17 49c-39 -37 -94 -56 -164 -56z" />
    <glyph glyph-name="gbreve.sc" horiz-adv-x="605" 
d="M271 -7c-170 0 -255 54 -255 162v451c0 192 0 341 1 447c0 106 95 159 284 159c151 0 243 -31 273 -92c8 -15 12 -33 12 -52c-1 -96 -1 -202 -1 -316h-266v225c0 25 -6 38 -17 38c-13 0 -19 -12 -19 -35v-397v-357s7 -36 21 -36c11 0 18 8 21 23c3 16 4 38 4 67v148h-25
v182h281v-610h-133l-17 49c-39 -37 -94 -56 -164 -56zM302 1240c-101 0 -148 69 -148 164h124c0 -52 8 -69 24 -69c18 0 24 19 24 69h124c0 -95 -48 -164 -148 -164z" />
    <glyph glyph-name="gcaron.sc" horiz-adv-x="605" 
d="M271 -7c-170 0 -255 54 -255 162v451c0 192 0 341 1 447c0 106 95 159 284 159c151 0 243 -31 273 -92c8 -15 12 -33 12 -52c-1 -96 -1 -202 -1 -316h-266v225c0 25 -6 38 -17 38c-13 0 -19 -12 -19 -35v-397v-357s7 -36 21 -36c11 0 18 8 21 23c3 16 4 38 4 67v148h-25
v182h281v-610h-133l-17 49c-39 -37 -94 -56 -164 -56zM218 1240l-93 183h119l57 -124l58 124h120l-92 -183h-169z" />
    <glyph glyph-name="gcircumflex.sc" horiz-adv-x="605" 
d="M271 -7c-170 0 -255 54 -255 162v451c0 192 0 341 1 447c0 106 95 159 284 159c151 0 243 -31 273 -92c8 -15 12 -33 12 -52c-1 -96 -1 -202 -1 -316h-266v225c0 25 -6 38 -17 38c-13 0 -19 -12 -19 -35v-397v-357s7 -36 21 -36c11 0 18 8 21 23c3 16 4 38 4 67v148h-25
v182h281v-610h-133l-17 49c-39 -37 -94 -56 -164 -56zM125 1248l93 183h169l92 -183h-120l-58 124l-57 -124h-119z" />
    <glyph glyph-name="uni0123.sc" horiz-adv-x="605" 
d="M271 -7c-170 0 -255 54 -255 162v451c0 192 0 341 1 447c0 106 95 159 284 159c151 0 243 -31 273 -92c8 -15 12 -33 12 -52c-1 -96 -1 -202 -1 -316h-266v225c0 25 -6 38 -17 38c-13 0 -19 -12 -19 -35v-397v-357s7 -36 21 -36c11 0 18 8 21 23c3 16 4 38 4 67v148h-25
v182h281v-610h-133l-17 49c-39 -37 -94 -56 -164 -56zM184 -295l65 232h163l-135 -232h-93z" />
    <glyph glyph-name="gdotaccent.sc" horiz-adv-x="605" 
d="M271 -7c-170 0 -255 54 -255 162v451c0 192 0 341 1 447c0 106 95 159 284 159c151 0 243 -31 273 -92c8 -15 12 -33 12 -52c-1 -96 -1 -202 -1 -316h-266v225c0 25 -6 38 -17 38c-13 0 -19 -12 -19 -35v-397v-357s7 -36 21 -36c11 0 18 8 21 23c3 16 4 38 4 67v148h-25
v182h281v-610h-133l-17 49c-39 -37 -94 -56 -164 -56zM302 1241c-44 0 -80 35 -80 80c0 44 36 79 80 79s80 -35 80 -79s-36 -80 -80 -80z" />
    <glyph glyph-name="uni1E21.sc" horiz-adv-x="605" 
d="M271 -7c-170 0 -255 54 -255 162v451c0 192 0 341 1 447c0 106 95 159 284 159c151 0 243 -31 273 -92c8 -15 12 -33 12 -52c-1 -96 -1 -202 -1 -316h-266v225c0 25 -6 38 -17 38c-13 0 -19 -12 -19 -35v-397v-357s7 -36 21 -36c11 0 18 8 21 23c3 16 4 38 4 67v148h-25
v182h281v-610h-133l-17 49c-39 -37 -94 -56 -164 -56zM121 1259v98h361v-98h-361z" />
    <glyph glyph-name="h.sc" horiz-adv-x="600" 
d="M16 0v1202h267v-499h32v499h266v-1202h-266v506h-32v-506h-267z" />
    <glyph glyph-name="hbar.sc" horiz-adv-x="662" 
d="M-3 932v97h43v173h267v-173h32v173h266v-173h45v-97h-45v-932h-266v506h-32v-506h-267v932h-43zM339 932h-32v-229h32v229z" />
    <glyph glyph-name="uni1E2B.sc" horiz-adv-x="600" 
d="M16 0v1202h267v-499h32v499h266v-1202h-266v506h-32v-506h-267zM300 -277c-101 0 -148 69 -148 164h124c0 -52 8 -69 24 -69c18 0 24 19 24 69h124c0 -95 -48 -164 -148 -164z" />
    <glyph glyph-name="hcircumflex.sc" horiz-adv-x="600" 
d="M16 0v1202h267v-499h32v499h266v-1202h-266v506h-32v-506h-267zM123 1248l93 183h169l92 -183h-120l-58 124l-57 -124h-119z" />
    <glyph glyph-name="uni1E25.sc" horiz-adv-x="600" 
d="M16 0v1202h267v-499h32v499h266v-1202h-266v506h-32v-506h-267zM300 -296c-44 0 -80 36 -80 80s36 80 80 80s80 -36 80 -80s-36 -80 -80 -80z" />
    <glyph glyph-name="i.sc" horiz-adv-x="306" 
d="M18 0v1202h268v-1202h-268z" />
    <glyph glyph-name="iacute.sc" horiz-adv-x="306" 
d="M18 0v1202h268v-1202h-268zM25 1234l81 185h174l-132 -185h-123z" />
    <glyph glyph-name="ibreve.sc" horiz-adv-x="306" 
d="M18 0v1202h268v-1202h-268zM153 1240c-101 0 -148 69 -148 164h124c0 -52 8 -69 24 -69c18 0 24 19 24 69h124c0 -95 -48 -164 -148 -164z" />
    <glyph glyph-name="uni01D0.sc" horiz-adv-x="306" 
d="M18 0v1202h268v-1202h-268zM69 1240l-93 183h119l57 -124l58 124h120l-92 -183h-169z" />
    <glyph glyph-name="icircumflex.sc" horiz-adv-x="306" 
d="M18 0v1202h268v-1202h-268zM-24 1248l93 183h169l92 -183h-120l-58 124l-57 -124h-119z" />
    <glyph glyph-name="uni0209.sc" horiz-adv-x="306" 
d="M18 0v1202h268v-1202h-268zM40 1260l-133 185h177l79 -185h-123zM275 1260l-133 185h177l79 -185h-123z" />
    <glyph glyph-name="idieresis.sc" horiz-adv-x="306" 
d="M18 0v1202h268v-1202h-268zM38 1251c-40 0 -72 32 -72 72c0 39 32 71 72 71c39 0 71 -32 71 -71c0 -40 -32 -72 -71 -72zM270 1251c-40 0 -72 32 -72 72c0 39 32 71 72 71c39 0 71 -32 71 -71c0 -40 -32 -72 -71 -72z" />
    <glyph glyph-name="uni1E2F.sc" horiz-adv-x="306" 
d="M18 0v1202h268v-1202h-268zM25 1427l81 185h174l-132 -185h-123zM38 1251c-40 0 -72 32 -72 72c0 39 32 71 72 71c39 0 71 -32 71 -71c0 -40 -32 -72 -71 -72zM270 1251c-40 0 -72 32 -72 72c0 39 32 71 72 71c39 0 71 -32 71 -71c0 -40 -32 -72 -71 -72z" />
    <glyph glyph-name="i.loclTRK.sc" horiz-adv-x="306" 
d="M18 0v1202h268v-1202h-268zM153 1241c-44 0 -80 35 -80 80c0 44 36 79 80 79s80 -35 80 -79s-36 -80 -80 -80z" />
    <glyph glyph-name="uni1ECB.sc" horiz-adv-x="306" 
d="M18 0v1202h268v-1202h-268zM152 -296c-44 0 -80 36 -80 80s36 80 80 80s80 -36 80 -80s-36 -80 -80 -80z" />
    <glyph glyph-name="igrave.sc" horiz-adv-x="306" 
d="M18 0v1202h268v-1202h-268zM158 1239l-133 185h177l79 -185h-123z" />
    <glyph glyph-name="uni1EC9.sc" horiz-adv-x="306" 
d="M18 0v1202h268v-1202h-268zM59 1508c162 0 253 -24 253 -110c0 -73 -78 -105 -123 -105v-47h-96v117c52 0 102 8 102 28c0 25 -34 28 -136 28v89z" />
    <glyph glyph-name="uni020B.sc" horiz-adv-x="306" 
d="M18 0v1202h268v-1202h-268zM153 1409c101 0 148 -70 148 -165h-124c0 53 -8 70 -24 70c-18 0 -24 -19 -24 -70h-124c0 95 48 165 148 165z" />
    <glyph glyph-name="imacron.sc" horiz-adv-x="306" 
d="M18 0v1202h268v-1202h-268zM-28 1259v98h361v-98h-361z" />
    <glyph glyph-name="iogonek.sc" horiz-adv-x="306" 
d="M18 0v1202h268v-1202c-20 -36 -46 -106 -46 -148c0 -32 16 -48 51 -48c36 0 77 10 82 15l2 -142c-6 -4 -57 -15 -115 -15c-87 0 -177 23 -177 129c0 85 53 174 73 209h-138z" />
    <glyph glyph-name="itilde.sc" horiz-adv-x="306" 
d="M18 0v1202h268v-1202h-268zM234 1247c-56 0 -100 52 -130 52c-34 0 -40 -27 -40 -47h-119c0 67 24 145 127 145c56 0 100 -50 131 -50c29 0 40 28 40 47h118c0 -66 -24 -147 -127 -147z" />
    <glyph glyph-name="j.sc" horiz-adv-x="599" 
d="M300 -7c-94 0 -164 16 -212 48s-72 86 -72 163v311h264v-247c0 -28 0 -49 2 -63c1 -14 7 -21 16 -21s15 7 16 21c2 14 3 35 3 63v934h263v-998c0 -79 -23 -133 -68 -164s-116 -47 -212 -47z" />
    <glyph glyph-name="j.ss01.sc" horiz-adv-x="599" 
d="M32 1202h548v-998c0 -79 -23 -133 -68 -164s-116 -47 -212 -47c-94 0 -164 16 -212 48s-72 86 -72 163v311h264v-247c0 -28 0 -49 2 -63c1 -14 7 -21 16 -21s15 7 16 21c2 14 3 35 3 63v737h-285v197z" />
    <glyph glyph-name="jcircumflex.sc" horiz-adv-x="599" 
d="M300 -7c-94 0 -164 16 -212 48s-72 86 -72 163v311h264v-247c0 -28 0 -49 2 -63c1 -14 7 -21 16 -21s15 7 16 21c2 14 3 35 3 63v934h263v-998c0 -79 -23 -133 -68 -164s-116 -47 -212 -47zM277 1248l93 183h170l91 -183h-120l-57 124l-58 -124h-119z" />
    <glyph glyph-name="k.sc" horiz-adv-x="620" 
d="M16 0v1202h264v-511l61 511h267l-86 -602l86 -600h-267l-61 508v-508h-264z" />
    <glyph glyph-name="uni0137.sc" horiz-adv-x="620" 
d="M16 0v1202h264v-511l61 511h267l-86 -602l86 -600h-267l-61 508v-508h-264zM195 -295l65 232h163l-135 -232h-93z" />
    <glyph glyph-name="l.sc" horiz-adv-x="415" 
d="M16 0v1202h267v-1008h119v-194h-386z" />
    <glyph glyph-name="lacute.sc" horiz-adv-x="415" 
d="M16 0v1202h267v-1008h119v-194h-386zM79 1234l81 185h174l-132 -185h-123z" />
    <glyph glyph-name="lcaron.sc" horiz-adv-x="604" 
d="M16 0v1202h267v-1008h119v-194h-386zM348 915l63 285h174l-67 -285h-170z" />
    <glyph glyph-name="uni013C.sc" horiz-adv-x="415" 
d="M16 0v1202h267v-1008h119v-194h-386zM89 -295l65 232h163l-135 -232h-93z" />
    <glyph glyph-name="ldot.sc" horiz-adv-x="592" 
d="M16 0v1202h267v-1008h119v-194h-386zM312 776h265v-210h-265v210z" />
    <glyph glyph-name="uni1E37.sc" horiz-adv-x="415" 
d="M16 0v1202h267v-1008h119v-194h-386zM207 -296c-44 0 -80 36 -80 80s35 80 80 80c43 0 79 -36 79 -80s-35 -80 -79 -80z" />
    <glyph glyph-name="uni01C9.sc" horiz-adv-x="1013" 
d="M714 -7c-93 0 -164 16 -212 48s-71 86 -71 163v311h263v-247c0 -28 1 -49 2 -63c2 -14 7 -21 17 -21c9 0 14 7 16 21c1 14 2 35 2 63v934h264v-998c0 -79 -23 -133 -68 -164c-46 -31 -117 -47 -213 -47zM16 0v1202h267v-1008h119v-194h-386z" />
    <glyph glyph-name="uni1E3B.sc" horiz-adv-x="415" 
d="M16 0v1202h267v-1008h119v-194h-386zM26 -207v98h361v-98h-361z" />
    <glyph glyph-name="lslash.sc" horiz-adv-x="484" 
d="M43 387l-76 123l120 88v604h267v-408l59 44l76 -123l-135 -99v-422h119v-194h-386v419z" />
    <glyph glyph-name="m.sc" horiz-adv-x="977" 
d="M16 0v1202h425l44 -979h4l44 979h425v-1202h-262v1007h-5l-59 -991h-290l-59 991h-5v-1007h-262z" />
    <glyph glyph-name="uni1E43.sc" horiz-adv-x="977" 
d="M16 0v1202h425l44 -979h4l44 979h425v-1202h-262v1007h-5l-59 -991h-290l-59 991h-5v-1007h-262zM488 -296c-44 0 -80 36 -80 80s36 80 80 80s80 -36 80 -80s-36 -80 -80 -80z" />
    <glyph glyph-name="n.sc" horiz-adv-x="773" 
d="M16 0v1202h413l50 -997h6l6 997h263v-1202h-420l-50 1005h-6v-1005h-262z" />
    <glyph glyph-name="nacute.sc" horiz-adv-x="773" 
d="M16 0v1202h413l50 -997h6l6 997h263v-1202h-420l-50 1005h-6v-1005h-262zM259 1234l80 185h175l-132 -185h-123z" />
    <glyph glyph-name="ncaron.sc" horiz-adv-x="773" 
d="M16 0v1202h413l50 -997h6l6 997h263v-1202h-420l-50 1005h-6v-1005h-262zM302 1240l-93 183h119l58 -124l57 124h120l-91 -183h-170z" />
    <glyph glyph-name="uni0146.sc" horiz-adv-x="773" 
d="M16 0v1202h413l50 -997h6l6 997h263v-1202h-420l-50 1005h-6v-1005h-262zM269 -295l64 232h163l-134 -232h-93z" />
    <glyph glyph-name="uni1E45.sc" horiz-adv-x="773" 
d="M16 0v1202h413l50 -997h6l6 997h263v-1202h-420l-50 1005h-6v-1005h-262zM387 1241c-44 0 -80 35 -80 80c0 44 35 79 80 79c43 0 79 -35 79 -79s-35 -80 -79 -80z" />
    <glyph glyph-name="uni1E47.sc" horiz-adv-x="773" 
d="M16 0v1202h413l50 -997h6l6 997h263v-1202h-420l-50 1005h-6v-1005h-262zM387 -296c-44 0 -80 36 -80 80s35 80 80 80c43 0 79 -36 79 -80s-35 -80 -79 -80z" />
    <glyph glyph-name="eng.sc" horiz-adv-x="773" 
d="M310 -387v188c124 0 175 54 173 199h-149l-50 1005h-6v-1005h-262v1202h413l50 -997h6l6 997h263v-1202c0 -320 -235 -387 -444 -387z" />
    <glyph glyph-name="uni01CC.sc" horiz-adv-x="1372" 
d="M16 0v1202h413l50 -997h6l6 997h263v-1202h-420l-50 1005h-6v-1005h-262zM1073 -7c-94 0 -164 16 -212 48s-72 86 -72 163v311h264v-247c0 -28 0 -49 2 -63c1 -14 7 -21 16 -21s15 7 16 21c2 14 3 35 3 63v934h263v-998c0 -79 -23 -133 -68 -164s-116 -47 -212 -47z" />
    <glyph glyph-name="uni1E49.sc" horiz-adv-x="773" 
d="M16 0v1202h413l50 -997h6l6 997h263v-1202h-420l-50 1005h-6v-1005h-262zM206 -207v98h361v-98h-361z" />
    <glyph glyph-name="ntilde.sc" horiz-adv-x="773" 
d="M16 0v1202h413l50 -997h6l6 997h263v-1202h-420l-50 1005h-6v-1005h-262zM467 1247c-56 0 -99 52 -130 52c-33 0 -39 -27 -39 -47h-120c0 67 24 145 128 145c56 0 100 -50 131 -50c28 0 39 28 39 47h119c0 -66 -25 -147 -128 -147z" />
    <glyph glyph-name="o.sc" 
d="M298 -7c-188 0 -282 47 -282 140v938c0 94 94 141 282 141c187 0 281 -47 281 -141v-938c0 -93 -94 -140 -281 -140zM298 190c12 0 18 16 18 48v729c0 32 -6 48 -18 48s-18 -16 -18 -48v-729c0 -32 6 -48 18 -48z" />
    <glyph glyph-name="oacute.sc" 
d="M298 -7c-188 0 -282 47 -282 140v938c0 94 94 141 282 141c187 0 281 -47 281 -141v-938c0 -93 -94 -140 -281 -140zM298 190c12 0 18 16 18 48v729c0 32 -6 48 -18 48s-18 -16 -18 -48v-729c0 -32 6 -48 18 -48zM171 1234l81 185h174l-132 -185h-123z" />
    <glyph glyph-name="obreve.sc" 
d="M298 -7c-188 0 -282 47 -282 140v938c0 94 94 141 282 141c187 0 281 -47 281 -141v-938c0 -93 -94 -140 -281 -140zM299 1240c-101 0 -148 69 -148 164h124c0 -52 8 -69 24 -69c18 0 24 19 24 69h124c0 -95 -48 -164 -148 -164zM298 190c12 0 18 16 18 48v729
c0 32 -6 48 -18 48s-18 -16 -18 -48v-729c0 -32 6 -48 18 -48z" />
    <glyph glyph-name="uni01D2.sc" 
d="M298 -7c-188 0 -282 47 -282 140v938c0 94 94 141 282 141c187 0 281 -47 281 -141v-938c0 -93 -94 -140 -281 -140zM215 1240l-93 183h119l57 -124l58 124h120l-92 -183h-169zM298 190c12 0 18 16 18 48v729c0 32 -6 48 -18 48s-18 -16 -18 -48v-729c0 -32 6 -48 18 -48
z" />
    <glyph glyph-name="ocircumflex.sc" 
d="M298 -7c-188 0 -282 47 -282 140v938c0 94 94 141 282 141c187 0 281 -47 281 -141v-938c0 -93 -94 -140 -281 -140zM122 1248l93 183h169l92 -183h-120l-58 124l-57 -124h-119zM298 190c12 0 18 16 18 48v729c0 32 -6 48 -18 48s-18 -16 -18 -48v-729
c0 -32 6 -48 18 -48z" />
    <glyph glyph-name="uni1ED1.sc" 
d="M298 -7c-188 0 -282 47 -282 140v938c0 94 94 141 282 141c187 0 281 -47 281 -141v-938c0 -93 -94 -140 -281 -140zM121 1260l93 183h169l92 -183h-120l-58 124l-57 -124h-119zM298 190c12 0 18 16 18 48v729c0 32 -6 48 -18 48s-18 -16 -18 -48v-729
c0 -32 6 -48 18 -48zM416 1416l81 185h174l-132 -185h-123z" />
    <glyph glyph-name="uni1ED9.sc" 
d="M298 -7c-188 0 -282 47 -282 140v938c0 94 94 141 282 141c187 0 281 -47 281 -141v-938c0 -93 -94 -140 -281 -140zM122 1248l93 183h169l92 -183h-120l-58 124l-57 -124h-119zM298 190c12 0 18 16 18 48v729c0 32 -6 48 -18 48s-18 -16 -18 -48v-729
c0 -32 6 -48 18 -48zM299 -296c-44 0 -80 36 -80 80s36 80 80 80s80 -36 80 -80s-36 -80 -80 -80z" />
    <glyph glyph-name="uni1ED3.sc" 
d="M298 -7c-188 0 -282 47 -282 140v938c0 94 94 141 282 141c187 0 281 -47 281 -141v-938c0 -93 -94 -140 -281 -140zM123 1259l93 183h169l92 -183h-120l-58 125l-57 -125h-119zM298 190c12 0 18 16 18 48v729c0 32 -6 48 -18 48s-18 -16 -18 -48v-729
c0 -32 6 -48 18 -48zM471 1417l-134 185h178l79 -185h-123z" />
    <glyph glyph-name="uni1ED5.sc" 
d="M298 -7c-188 0 -282 47 -282 140v938c0 94 94 141 282 141c187 0 281 -47 281 -141v-938c0 -93 -94 -140 -281 -140zM205 1736c162 0 253 -23 253 -109c0 -74 -78 -105 -123 -105v-48h-96v117c52 0 102 8 102 29c0 24 -34 28 -136 28v88zM122 1248l93 183h169l92 -183
h-120l-58 124l-57 -124h-119zM298 190c12 0 18 16 18 48v729c0 32 -6 48 -18 48s-18 -16 -18 -48v-729c0 -32 6 -48 18 -48z" />
    <glyph glyph-name="uni1ED7.sc" 
d="M298 -7c-188 0 -282 47 -282 140v938c0 94 94 141 282 141c187 0 281 -47 281 -141v-938c0 -93 -94 -140 -281 -140zM380 1476c-56 0 -100 52 -130 52c-34 0 -40 -27 -40 -47h-119c0 67 24 144 127 144c56 0 100 -49 131 -49c29 0 40 27 40 47h118
c0 -67 -24 -147 -127 -147zM122 1248l93 183h169l92 -183h-120l-58 124l-57 -124h-119zM298 190c12 0 18 16 18 48v729c0 32 -6 48 -18 48s-18 -16 -18 -48v-729c0 -32 6 -48 18 -48z" />
    <glyph glyph-name="uni020D.sc" 
d="M298 -7c-188 0 -282 47 -282 140v938c0 94 94 141 282 141c187 0 281 -47 281 -141v-938c0 -93 -94 -140 -281 -140zM298 190c12 0 18 16 18 48v729c0 32 -6 48 -18 48s-18 -16 -18 -48v-729c0 -32 6 -48 18 -48zM186 1260l-133 185h177l79 -185h-123zM421 1260l-133 185
h177l79 -185h-123z" />
    <glyph glyph-name="odieresis.sc" 
d="M298 -7c-188 0 -282 47 -282 140v938c0 94 94 141 282 141c187 0 281 -47 281 -141v-938c0 -93 -94 -140 -281 -140zM298 190c12 0 18 16 18 48v729c0 32 -6 48 -18 48s-18 -16 -18 -48v-729c0 -32 6 -48 18 -48zM184 1251c-40 0 -72 32 -72 72c0 39 32 71 72 71
c39 0 71 -32 71 -71c0 -40 -32 -72 -71 -72zM416 1251c-40 0 -72 32 -72 72c0 39 32 71 72 71c39 0 71 -32 71 -71c0 -40 -32 -72 -71 -72z" />
    <glyph glyph-name="uni022B.sc" 
d="M298 -7c-188 0 -282 47 -282 140v938c0 94 94 141 282 141c187 0 281 -47 281 -141v-938c0 -93 -94 -140 -281 -140zM118 1452v98h361v-98h-361zM298 190c12 0 18 16 18 48v729c0 32 -6 48 -18 48s-18 -16 -18 -48v-729c0 -32 6 -48 18 -48zM184 1251
c-40 0 -72 32 -72 72c0 39 32 71 72 71c39 0 71 -32 71 -71c0 -40 -32 -72 -71 -72zM416 1251c-40 0 -72 32 -72 72c0 39 32 71 72 71c39 0 71 -32 71 -71c0 -40 -32 -72 -71 -72z" />
    <glyph glyph-name="uni0231.sc" 
d="M298 -7c-188 0 -282 47 -282 140v938c0 94 94 141 282 141c187 0 281 -47 281 -141v-938c0 -93 -94 -140 -281 -140zM118 1457v98h361v-98h-361zM298 190c12 0 18 16 18 48v729c0 32 -6 48 -18 48s-18 -16 -18 -48v-729c0 -32 6 -48 18 -48zM299 1241
c-44 0 -80 35 -80 80c0 44 36 79 80 79s80 -35 80 -79s-36 -80 -80 -80z" />
    <glyph glyph-name="uni1ECD.sc" 
d="M298 -7c-188 0 -282 47 -282 140v938c0 94 94 141 282 141c187 0 281 -47 281 -141v-938c0 -93 -94 -140 -281 -140zM298 190c12 0 18 16 18 48v729c0 32 -6 48 -18 48s-18 -16 -18 -48v-729c0 -32 6 -48 18 -48zM299 -296c-44 0 -80 36 -80 80s36 80 80 80
s80 -36 80 -80s-36 -80 -80 -80z" />
    <glyph glyph-name="ograve.sc" 
d="M298 -7c-188 0 -282 47 -282 140v938c0 94 94 141 282 141c187 0 281 -47 281 -141v-938c0 -93 -94 -140 -281 -140zM298 190c12 0 18 16 18 48v729c0 32 -6 48 -18 48s-18 -16 -18 -48v-729c0 -32 6 -48 18 -48zM304 1239l-133 185h177l79 -185h-123z" />
    <glyph glyph-name="uni1ECF.sc" 
d="M298 -7c-188 0 -282 47 -282 140v938c0 94 94 141 282 141c187 0 281 -47 281 -141v-938c0 -93 -94 -140 -281 -140zM205 1508c162 0 253 -24 253 -110c0 -73 -78 -105 -123 -105v-47h-96v117c52 0 102 8 102 28c0 25 -34 28 -136 28v89zM298 190c12 0 18 16 18 48v729
c0 32 -6 48 -18 48s-18 -16 -18 -48v-729c0 -32 6 -48 18 -48z" />
    <glyph glyph-name="ohorn.sc" 
d="M298 -7c-188 0 -282 47 -282 140v938c0 94 94 141 282 141c187 0 281 -47 281 -141v-16c79 4 83 72 83 157h136c0 -158 -59 -241 -219 -243v-836c0 -93 -94 -140 -281 -140zM298 190c12 0 18 16 18 48v729c0 32 -6 48 -18 48s-18 -16 -18 -48v-729c0 -32 6 -48 18 -48z
" />
    <glyph glyph-name="uni1EDB.sc" horiz-adv-x="803" 
d="M302 -9c-190 0 -284 53 -284 158v905c0 106 94 159 284 159c188 0 283 -53 283 -157c81 3 85 71 85 157h135c0 -158 -59 -241 -219 -243v-821c0 -105 -95 -158 -284 -158zM302 187c13 0 20 21 20 62v705c0 42 -7 63 -20 63c-14 0 -21 -21 -21 -63v-705
c0 -41 7 -62 21 -62zM174 1232l81 185h174l-132 -185h-123z" />
    <glyph glyph-name="uni1EE3.sc" horiz-adv-x="803" 
d="M302 -9c-190 0 -284 53 -284 158v905c0 106 94 159 284 159c188 0 283 -53 283 -157c81 3 85 71 85 157h135c0 -158 -59 -241 -219 -243v-821c0 -105 -95 -158 -284 -158zM302 187c13 0 20 21 20 62v705c0 42 -7 63 -20 63c-14 0 -21 -21 -21 -63v-705
c0 -41 7 -62 21 -62zM303 -296c-44 0 -80 36 -80 80s36 80 80 80s80 -36 80 -80s-36 -80 -80 -80z" />
    <glyph glyph-name="uni1EDD.sc" horiz-adv-x="803" 
d="M302 -9c-190 0 -284 53 -284 158v905c0 106 94 159 284 159c188 0 283 -53 283 -157c81 3 85 71 85 157h135c0 -158 -59 -241 -219 -243v-821c0 -105 -95 -158 -284 -158zM302 187c13 0 20 21 20 62v705c0 42 -7 63 -20 63c-14 0 -21 -21 -21 -63v-705
c0 -41 7 -62 21 -62zM307 1237l-134 185h178l79 -185h-123z" />
    <glyph glyph-name="uni1EDF.sc" horiz-adv-x="803" 
d="M302 -9c-190 0 -284 53 -284 158v905c0 106 94 159 284 159c188 0 283 -53 283 -157c81 3 85 71 85 157h135c0 -158 -59 -241 -219 -243v-821c0 -105 -95 -158 -284 -158zM208 1506c162 0 253 -24 253 -110c0 -73 -78 -105 -123 -105v-47h-96v117c52 0 102 8 102 28
c0 25 -34 28 -136 28v89zM302 187c13 0 20 21 20 62v705c0 42 -7 63 -20 63c-14 0 -21 -21 -21 -63v-705c0 -41 7 -62 21 -62z" />
    <glyph glyph-name="uni1EE1.sc" horiz-adv-x="803" 
d="M302 -9c-190 0 -284 53 -284 158v905c0 106 94 159 284 159c188 0 283 -53 283 -157c81 3 85 71 85 157h135c0 -158 -59 -241 -219 -243v-821c0 -105 -95 -158 -284 -158zM382 1245c-56 0 -99 52 -129 52c-34 0 -40 -27 -40 -47h-120c0 67 25 145 128 145
c56 0 100 -50 131 -50c29 0 40 28 40 47h118c0 -66 -24 -147 -128 -147zM302 187c13 0 20 21 20 62v705c0 42 -7 63 -20 63c-14 0 -21 -21 -21 -63v-705c0 -41 7 -62 21 -62z" />
    </font>
</defs>
</svg>
