<?xml version="1.0" standalone="no"?>
<!DOCTYPE svg PUBLIC "-//W3C//DTD SVG 1.1//EN" "http://www.w3.org/Graphics/SVG/1.1/DTD/svg11.dtd" >
<svg xmlns="http://www.w3.org/2000/svg" xmlns:xlink="http://www.w3.org/1999/xlink" version="1.1">
<metadata>
Created by FontForge 20201107 at Wed Jul 29 18:55:26 2020
 By Jimmy Wärting
Copyright 2020 The Anybody Project Authors https:github.comEtcetera-Type-CoAnybody
</metadata>
<defs>
<font id="Anybody-Medium" horiz-adv-x="1336" >
  <font-face 
    font-family="Anybody"
    font-weight="500"
    font-stretch="normal"
    units-per-em="2000"
    panose-1="0 0 0 0 0 0 0 0 0 0"
    ascent="1600"
    descent="-400"
    x-height="1185"
    cap-height="1350"
    bbox="-282 -517 2517 1914"
    underline-thickness="90"
    underline-position="-255"
    stemh="164"
    stemv="240"
    unicode-range="U+000D-FB02"
  />
<missing-glyph horiz-adv-x="623" 
d="M100 146v1042h348v-1042h-348zM126 172h296v990h-296v-990zM202 564l-20 20l75 76l-75 76l20 20l75 -76l75 76l20 -20l-75 -76l75 -76l-20 -20l-75 76zM202 902l-20 20l75 76l-75 76l20 20l75 -76l75 76l20 -20l-75 -76l75 -76l-20 -20l-75 76zM202 226l-20 20l75 76
l-75 76l20 20l75 -76l75 76l20 -20l-75 -76l75 -76l-20 -20l-75 76z" />
    <glyph glyph-name="f_f" unicode="ff" horiz-adv-x="1864" 
d="M271 0v1021h-242v164h244l-2 64c0 113 48 197 143 250c96 53 245 79 450 79h47v-158h-43c-133 0 -226 -13 -280 -39c-54 -27 -80 -71 -80 -133l-1 -63h334v-164h-333v-1021h-237zM1178 0v1021h-242v164h244l-2 64c0 113 48 197 143 250c96 53 245 79 450 79h47v-158h-43
c-133 0 -226 -13 -280 -39c-54 -27 -80 -71 -80 -133l-1 -63h334v-164h-333v-1021h-237z" />
    <glyph glyph-name="f_f_i" unicode="ffi" horiz-adv-x="2353" 
d="M271 0v1021h-242v164h244l-2 64c0 113 48 197 143 250c96 53 245 79 450 79h47v-158h-43c-133 0 -226 -13 -280 -39c-54 -27 -80 -71 -80 -133l-1 -63h334v-164h-333v-1021h-237zM1178 0v1021h-242v164h244l-2 64c0 113 48 197 143 250c96 53 245 79 450 79h47v-158h-43
c-133 0 -226 -13 -280 -39c-54 -27 -80 -71 -80 -133l-1 -63h334v-164h-333v-1021h-237zM1966 0v1186h237v-1186h-237zM1966 1518h237v-194h-237v194z" />
    <glyph glyph-name="f_f_l" unicode="ffl" horiz-adv-x="2338" 
d="M271 0v1021h-242v164h244l-2 64c0 113 48 197 143 250c96 53 245 79 450 79h47v-158h-43c-133 0 -226 -13 -280 -39c-54 -27 -80 -71 -80 -133l-1 -63h334v-164h-333v-1021h-237zM1178 0v1021h-242v164h244l-2 64c0 113 48 197 143 250c96 53 245 79 450 79h47v-158h-43
c-133 0 -226 -13 -280 -39c-54 -27 -80 -71 -80 -133l-1 -63h334v-164h-333v-1021h-237zM1969 0v1570h237v-1570h-237z" />
    <glyph glyph-name="fi" unicode="fi" horiz-adv-x="1446" 
d="M271 0v1021h-242v164h244l-2 64c0 113 48 197 143 250c96 53 245 79 450 79h47v-158h-43c-133 0 -226 -13 -280 -39c-54 -27 -80 -71 -80 -133l-1 -63h334v-164h-333v-1021h-237zM1059 0v1186h237v-1186h-237zM1059 1518h237v-194h-237v194z" />
    <glyph glyph-name="fl" unicode="fl" horiz-adv-x="1431" 
d="M271 0v1021h-242v164h244l-2 64c0 113 48 197 143 250c96 53 245 79 450 79h47v-158h-43c-133 0 -226 -13 -280 -39c-54 -27 -80 -71 -80 -133l-1 -63h334v-164h-333v-1021h-237zM1062 0v1570h237v-1570h-237z" />
    <glyph glyph-name=".notdef" horiz-adv-x="623" 
d="M100 146v1042h348v-1042h-348zM126 172h296v990h-296v-990zM202 564l-20 20l75 76l-75 76l20 20l75 -76l75 76l20 -20l-75 -76l75 -76l-20 -20l-75 76zM202 902l-20 20l75 76l-75 76l20 20l75 -76l75 76l20 -20l-75 -76l75 -76l-20 -20l-75 76zM202 226l-20 20l75 76
l-75 76l20 20l75 -76l75 76l20 -20l-75 -76l75 -76l-20 -20l-75 76z" />
    <glyph glyph-name="A" unicode="A" horiz-adv-x="1359" 
d="M62 0l436 1352h363l436 -1352h-248l-111 363h-516l-112 -363h-248zM462 523h436l-214 688h-7z" />
    <glyph glyph-name="Aacute" unicode="&#xc1;" horiz-adv-x="1359" 
d="M62 0l436 1352h363l436 -1352h-248l-111 363h-516l-112 -363h-248zM462 523h436l-214 688h-7zM520 1392l149 178h167l-201 -178h-115z" />
    <glyph glyph-name="Abreve" unicode="&#x102;" horiz-adv-x="1359" 
d="M62 0l436 1352h363l436 -1352h-248l-111 363h-516l-112 -363h-248zM462 523h436l-214 688h-7zM678 1398c-131 0 -213 78 -213 169h116c0 -51 30 -86 97 -86c73 0 97 36 97 86h116c0 -91 -77 -169 -213 -169z" />
    <glyph glyph-name="uni1EAE" unicode="&#x1eae;" horiz-adv-x="1359" 
d="M62 0l436 1352h363l436 -1352h-248l-111 363h-516l-112 -363h-248zM462 523h436l-214 688h-7zM678 1398c-131 0 -213 78 -213 169h116c0 -51 30 -86 97 -86c73 0 97 36 97 86h116c0 -91 -77 -169 -213 -169zM520 1609l149 178h167l-201 -178h-115z" />
    <glyph glyph-name="uni1EB6" unicode="&#x1eb6;" horiz-adv-x="1359" 
d="M62 0l436 1352h363l436 -1352h-248l-111 363h-516l-112 -363h-248zM462 523h436l-214 688h-7zM678 1398c-131 0 -213 78 -213 169h116c0 -51 30 -86 97 -86c73 0 97 36 97 86h116c0 -91 -77 -169 -213 -169zM679 -284c-44 0 -80 35 -80 80c0 43 35 78 80 78
c43 0 78 -35 78 -78c0 -44 -35 -80 -78 -80z" />
    <glyph glyph-name="uni1EB0" unicode="&#x1eb0;" horiz-adv-x="1359" 
d="M62 0l436 1352h363l436 -1352h-248l-111 363h-516l-112 -363h-248zM462 523h436l-214 688h-7zM678 1398c-131 0 -213 78 -213 169h116c0 -51 30 -86 97 -86c73 0 97 36 97 86h116c0 -91 -77 -169 -213 -169zM721 1619l-201 178h167l150 -178h-116z" />
    <glyph glyph-name="uni1EB2" unicode="&#x1eb2;" horiz-adv-x="1359" 
d="M62 0l436 1352h363l436 -1352h-248l-111 363h-516l-112 -363h-248zM462 523h436l-214 688h-7zM553 1895c251 0 370 -19 370 -109c0 -81 -121 -106 -207 -106v-59h-88v120c102 0 178 9 178 38c0 36 -74 40 -253 40v76zM678 1398c-131 0 -213 78 -213 169h116
c0 -51 30 -86 97 -86c73 0 97 36 97 86h116c0 -91 -77 -169 -213 -169z" />
    <glyph glyph-name="uni1EB4" unicode="&#x1eb4;" horiz-adv-x="1359" 
d="M62 0l436 1352h363l436 -1352h-248l-111 363h-516l-112 -363h-248zM462 523h436l-214 688h-7zM797 1643c-110 0 -143 74 -214 74c-55 0 -75 -39 -77 -63h-118c2 50 31 158 182 158c104 0 130 -73 212 -73c49 0 72 39 73 63h119c-2 -46 -28 -159 -177 -159zM678 1398
c-131 0 -213 78 -213 169h116c0 -51 30 -86 97 -86c73 0 97 36 97 86h116c0 -91 -77 -169 -213 -169z" />
    <glyph glyph-name="uni01CD" unicode="&#x1cd;" horiz-adv-x="1359" 
d="M62 0l436 1352h363l436 -1352h-248l-111 363h-516l-112 -363h-248zM462 523h436l-214 688h-7zM601 1396l-206 185h142l142 -132l140 132h143l-207 -185h-154z" />
    <glyph glyph-name="Acircumflex" unicode="&#xc2;" horiz-adv-x="1359" 
d="M62 0l436 1352h363l436 -1352h-248l-111 363h-516l-112 -363h-248zM462 523h436l-214 688h-7zM395 1401l206 185h154l207 -185h-143l-141 132l-141 -132h-142z" />
    <glyph glyph-name="uni1EA4" unicode="&#x1ea4;" horiz-adv-x="1359" 
d="M62 0l436 1352h363l436 -1352h-248l-111 363h-516l-112 -363h-248zM462 523h436l-214 688h-7zM395 1401l206 185h154l207 -185h-143l-141 132l-141 -132h-142zM520 1628l149 178h167l-201 -178h-115z" />
    <glyph glyph-name="uni1EAC" unicode="&#x1eac;" horiz-adv-x="1359" 
d="M62 0l436 1352h363l436 -1352h-248l-111 363h-516l-112 -363h-248zM462 523h436l-214 688h-7zM395 1401l206 185h154l207 -185h-143l-141 132l-141 -132h-142zM679 -284c-44 0 -80 35 -80 80c0 43 35 78 80 78c43 0 78 -35 78 -78c0 -44 -35 -80 -78 -80z" />
    <glyph glyph-name="uni1EA6" unicode="&#x1ea6;" horiz-adv-x="1359" 
d="M62 0l436 1352h363l436 -1352h-248l-111 363h-516l-112 -363h-248zM462 523h436l-214 688h-7zM395 1401l206 185h154l207 -185h-143l-141 132l-141 -132h-142zM721 1638l-201 178h167l150 -178h-116z" />
    <glyph glyph-name="uni1EA8" unicode="&#x1ea8;" horiz-adv-x="1359" 
d="M62 0l436 1352h363l436 -1352h-248l-111 363h-516l-112 -363h-248zM462 523h436l-214 688h-7zM553 1914c251 0 370 -19 370 -109c0 -81 -121 -106 -207 -106v-59h-88v120c102 0 178 9 178 38c0 36 -74 40 -253 40v76zM395 1401l206 185h154l207 -185h-143l-141 132
l-141 -132h-142z" />
    <glyph glyph-name="uni1EAA" unicode="&#x1eaa;" horiz-adv-x="1359" 
d="M62 0l436 1352h363l436 -1352h-248l-111 363h-516l-112 -363h-248zM462 523h436l-214 688h-7zM797 1662c-110 0 -143 74 -214 74c-55 0 -75 -39 -77 -63h-118c2 50 31 158 182 158c104 0 130 -73 212 -73c49 0 72 39 73 63h119c-2 -46 -28 -159 -177 -159zM395 1401
l206 185h154l207 -185h-143l-141 132l-141 -132h-142z" />
    <glyph glyph-name="uni0200" unicode="&#x200;" horiz-adv-x="1359" 
d="M62 0l436 1352h363l436 -1352h-248l-111 363h-516l-112 -363h-248zM462 523h436l-214 688h-7zM594 1412l-202 177h168l149 -177h-115zM848 1412l-202 177h168l149 -177h-115z" />
    <glyph glyph-name="Adieresis" unicode="&#xc4;" horiz-adv-x="1359" 
d="M62 0l436 1352h363l436 -1352h-248l-111 363h-516l-112 -363h-248zM462 523h436l-214 688h-7zM511 1416c-43 0 -77 34 -77 77c0 42 34 77 77 77c42 0 77 -35 77 -77c0 -43 -35 -77 -77 -77zM843 1416c-43 0 -78 34 -78 77c0 42 35 77 78 77c42 0 77 -35 77 -77
c0 -43 -35 -77 -77 -77z" />
    <glyph glyph-name="uni1EA0" unicode="&#x1ea0;" horiz-adv-x="1359" 
d="M62 0l436 1352h363l436 -1352h-248l-111 363h-516l-112 -363h-248zM462 523h436l-214 688h-7zM679 -284c-44 0 -80 35 -80 80c0 43 35 78 80 78c43 0 78 -35 78 -78c0 -44 -35 -80 -78 -80z" />
    <glyph glyph-name="Agrave" unicode="&#xc0;" horiz-adv-x="1359" 
d="M62 0l436 1352h363l436 -1352h-248l-111 363h-516l-112 -363h-248zM462 523h436l-214 688h-7zM721 1402l-201 178h167l150 -178h-116z" />
    <glyph glyph-name="uni1EA2" unicode="&#x1ea2;" horiz-adv-x="1359" 
d="M62 0l436 1352h363l436 -1352h-248l-111 363h-516l-112 -363h-248zM462 523h436l-214 688h-7zM553 1678c251 0 370 -19 370 -109c0 -81 -121 -106 -207 -106v-59h-88v120c102 0 178 9 178 38c0 36 -74 40 -253 40v76z" />
    <glyph glyph-name="uni0202" unicode="&#x202;" horiz-adv-x="1359" 
d="M62 0l436 1352h363l436 -1352h-248l-111 363h-516l-112 -363h-248zM462 523h436l-214 688h-7zM678 1582c131 0 213 -77 213 -169h-116c0 52 -30 87 -97 87c-73 0 -97 -36 -97 -87h-116c0 92 77 169 213 169z" />
    <glyph glyph-name="Amacron" unicode="&#x100;" horiz-adv-x="1359" 
d="M62 0l436 1352h363l436 -1352h-248l-111 363h-516l-112 -363h-248zM462 523h436l-214 688h-7zM371 1447v91h614v-91h-614z" />
    <glyph glyph-name="Aogonek" unicode="&#x104;" horiz-adv-x="1359" 
d="M62 0l436 1352h363l436 -1352h7c-21 -31 -60 -110 -60 -157c0 -37 23 -59 75 -59c50 0 114 15 135 25l4 -120c-19 -8 -97 -24 -173 -24c-93 0 -178 32 -178 133c0 85 51 168 79 202h-137l-111 363h-516l-112 -363h-248zM462 523h436l-214 688h-7z" />
    <glyph glyph-name="Aring" unicode="&#xc5;" horiz-adv-x="1359" 
d="M62 0l436 1352h363l436 -1352h-248l-111 363h-516l-112 -363h-248zM462 523h436l-214 688h-7zM678 1388c-76 0 -133 59 -133 135c0 75 57 134 133 134s133 -59 133 -134c0 -76 -57 -135 -133 -135zM678 1476c25 0 45 20 45 47c0 26 -20 45 -45 45s-44 -19 -44 -45
c0 -27 19 -47 44 -47z" />
    <glyph glyph-name="Aringacute" unicode="&#x1fa;" horiz-adv-x="1359" 
d="M62 0l436 1352h363l436 -1352h-248l-111 363h-516l-112 -363h-248zM462 523h436l-214 688h-7zM678 1374c-76 0 -133 59 -133 135c0 75 57 134 133 134s133 -59 133 -134c0 -76 -57 -135 -133 -135zM520 1685l149 177h167l-201 -177h-115zM678 1462c25 0 45 21 45 47
s-20 45 -45 45s-44 -19 -44 -45s19 -47 44 -47z" />
    <glyph glyph-name="Atilde" unicode="&#xc3;" horiz-adv-x="1359" 
d="M62 0l436 1352h363l436 -1352h-248l-111 363h-516l-112 -363h-248zM462 523h436l-214 688h-7zM797 1426c-110 0 -143 74 -214 74c-55 0 -75 -39 -77 -63h-118c2 50 31 158 182 158c104 0 130 -73 212 -73c49 0 72 39 73 63h119c-2 -46 -28 -159 -177 -159z" />
    <glyph glyph-name="AE" unicode="&#xc6;" horiz-adv-x="1925" 
d="M62 0l690 1350h1068v-165h-678v-418h636v-157h-636v-445h678v-165h-917v303h-434l-155 -303h-252zM550 464h353v691z" />
    <glyph glyph-name="AEacute" unicode="&#x1fc;" horiz-adv-x="1925" 
d="M62 0l690 1350h1068v-165h-678v-418h636v-157h-636v-445h678v-165h-917v303h-434l-155 -303h-252zM550 464h353v691zM800 1392l149 178h168l-201 -178h-116z" />
    <glyph glyph-name="B" unicode="B" horiz-adv-x="1271" 
d="M83 0v1350h718c141 0 231 -32 270 -95c39 -64 58 -136 58 -217c0 -83 -18 -154 -53 -214c-36 -60 -90 -92 -161 -95c75 -5 134 -38 177 -101c43 -62 65 -143 65 -241c0 -112 -20 -204 -59 -277c-40 -73 -129 -110 -268 -110h-747zM322 165h449c55 0 93 21 114 62
c22 41 33 102 33 183c0 77 -13 136 -39 178s-74 63 -143 63h-414v-486zM322 798h399c63 0 107 19 131 58c24 38 36 87 36 149c0 57 -10 102 -30 134c-20 31 -59 47 -117 47h-419v-388z" />
    <glyph glyph-name="C" unicode="C" horiz-adv-x="1277" 
d="M624 -8c-212 0 -360 55 -445 166s-128 284 -128 520c0 235 43 408 128 518c84 110 233 165 445 165c210 0 354 -52 432 -155c77 -104 116 -234 116 -391h-242c0 141 -26 239 -78 296c-52 56 -129 85 -230 85c-103 0 -184 -32 -241 -96c-58 -64 -87 -205 -87 -422
c0 -218 29 -360 87 -424c58 -65 138 -97 241 -97c101 0 177 29 229 87s79 157 79 295h242c0 -154 -39 -284 -116 -389c-77 -106 -221 -158 -432 -158z" />
    <glyph glyph-name="Cacute" unicode="&#x106;" horiz-adv-x="1277" 
d="M624 -8c-212 0 -360 55 -445 166s-128 284 -128 520c0 235 43 408 128 518c84 110 233 165 445 165c210 0 354 -52 432 -155c77 -104 116 -234 116 -391h-242c0 141 -26 239 -78 296c-52 56 -129 85 -230 85c-103 0 -184 -32 -241 -96c-58 -64 -87 -205 -87 -422
c0 -218 29 -360 87 -424c58 -65 138 -97 241 -97c101 0 177 29 229 87s79 157 79 295h242c0 -154 -39 -284 -116 -389c-77 -106 -221 -158 -432 -158zM459 1392l149 178h167l-201 -178h-115z" />
    <glyph glyph-name="Ccaron" unicode="&#x10c;" horiz-adv-x="1277" 
d="M624 -8c-212 0 -360 55 -445 166s-128 284 -128 520c0 235 43 408 128 518c84 110 233 165 445 165c210 0 354 -52 432 -155c77 -104 116 -234 116 -391h-242c0 141 -26 239 -78 296c-52 56 -129 85 -230 85c-103 0 -184 -32 -241 -96c-58 -64 -87 -205 -87 -422
c0 -218 29 -360 87 -424c58 -65 138 -97 241 -97c101 0 177 29 229 87s79 157 79 295h242c0 -154 -39 -284 -116 -389c-77 -106 -221 -158 -432 -158zM539 1396l-206 185h143l141 -132l141 132h142l-206 -185h-155z" />
    <glyph glyph-name="Ccedilla" unicode="&#xc7;" horiz-adv-x="1277" 
d="M640 -312c-53 0 -108 7 -156 18l34 101c30 -8 74 -15 123 -15c77 0 117 19 117 55c0 25 -21 35 -53 35c-29 0 -62 -11 -84 -24l-87 12l37 123c-184 8 -315 64 -392 165c-85 111 -128 284 -128 520c0 235 43 408 128 518c84 110 233 165 445 165c210 0 354 -52 432 -155
c77 -104 116 -234 116 -391h-242c0 141 -26 239 -78 296c-52 56 -129 85 -230 85c-103 0 -184 -32 -241 -96c-58 -64 -87 -205 -87 -422c0 -218 29 -360 87 -424c58 -65 138 -97 241 -97c101 0 177 29 229 87s79 157 79 295h242c0 -154 -39 -284 -116 -389
c-72 -98 -201 -151 -388 -158l-28 -78c30 19 77 33 129 33c77 0 132 -34 132 -103c0 -104 -131 -156 -261 -156z" />
    <glyph glyph-name="uni1E08" unicode="&#x1e08;" horiz-adv-x="1277" 
d="M640 -312c-53 0 -108 7 -156 18l34 101c30 -8 74 -15 123 -15c77 0 117 19 117 55c0 25 -21 35 -53 35c-29 0 -62 -11 -84 -24l-87 12l37 123c-184 8 -315 64 -392 165c-85 111 -128 284 -128 520c0 235 43 408 128 518c84 110 233 165 445 165c210 0 354 -52 432 -155
c77 -104 116 -234 116 -391h-242c0 141 -26 239 -78 296c-52 56 -129 85 -230 85c-103 0 -184 -32 -241 -96c-58 -64 -87 -205 -87 -422c0 -218 29 -360 87 -424c58 -65 138 -97 241 -97c101 0 177 29 229 87s79 157 79 295h242c0 -154 -39 -284 -116 -389
c-72 -98 -201 -151 -388 -158l-28 -78c30 19 77 33 129 33c77 0 132 -34 132 -103c0 -104 -131 -156 -261 -156zM459 1392l149 178h167l-201 -178h-115z" />
    <glyph glyph-name="Ccircumflex" unicode="&#x108;" horiz-adv-x="1277" 
d="M624 -8c-212 0 -360 55 -445 166s-128 284 -128 520c0 235 43 408 128 518c84 110 233 165 445 165c210 0 354 -52 432 -155c77 -104 116 -234 116 -391h-242c0 141 -26 239 -78 296c-52 56 -129 85 -230 85c-103 0 -184 -32 -241 -96c-58 -64 -87 -205 -87 -422
c0 -218 29 -360 87 -424c58 -65 138 -97 241 -97c101 0 177 29 229 87s79 157 79 295h242c0 -154 -39 -284 -116 -389c-77 -106 -221 -158 -432 -158zM333 1401l206 185h155l206 -185h-142l-141 132l-141 -132h-143z" />
    <glyph glyph-name="Cdotaccent" unicode="&#x10a;" horiz-adv-x="1277" 
d="M624 -8c-212 0 -360 55 -445 166s-128 284 -128 520c0 235 43 408 128 518c84 110 233 165 445 165c210 0 354 -52 432 -155c77 -104 116 -234 116 -391h-242c0 141 -26 239 -78 296c-52 56 -129 85 -230 85c-103 0 -184 -32 -241 -96c-58 -64 -87 -205 -87 -422
c0 -218 29 -360 87 -424c58 -65 138 -97 241 -97c101 0 177 29 229 87s79 157 79 295h242c0 -154 -39 -284 -116 -389c-77 -106 -221 -158 -432 -158zM617 1408c-44 0 -79 35 -79 80c0 43 35 78 79 78c43 0 79 -35 79 -78c0 -44 -35 -80 -79 -80z" />
    <glyph glyph-name="D" unicode="D" horiz-adv-x="1247" 
d="M83 0v1350h599c175 0 299 -49 373 -147s111 -273 111 -527s-37 -431 -111 -529s-198 -147 -373 -147h-599zM322 165h296c104 0 181 30 232 91c51 60 77 200 77 420c0 218 -26 358 -77 418c-51 61 -128 91 -232 91h-296v-1020z" />
    <glyph glyph-name="uni01C4" unicode="&#x1c4;" horiz-adv-x="2368" 
d="M83 0v1350h599c175 0 299 -49 373 -147s111 -273 111 -527s-37 -431 -111 -529s-198 -147 -373 -147h-599zM1313 0v172l664 1014h-653v164h917v-166l-664 -1019h691v-165h-955zM322 165h296c104 0 181 30 232 91c51 60 77 200 77 420c0 218 -26 358 -77 418
c-51 61 -128 91 -232 91h-296v-1020zM1730 1396l-206 185h142l142 -132l140 132h143l-207 -185h-154z" />
    <glyph glyph-name="Eth" unicode="&#xd0;" horiz-adv-x="1278" 
d="M-22 598v158h136v594h600c174 0 299 -49 373 -147s111 -273 111 -527s-37 -431 -111 -529s-199 -147 -373 -147h-600v598h-136zM353 165h296c104 0 182 30 233 91c51 60 76 200 76 420c0 218 -25 358 -76 418c-51 61 -129 91 -233 91h-296v-429h207v-158h-207v-433z" />
    <glyph glyph-name="Dcaron" unicode="&#x10e;" horiz-adv-x="1247" 
d="M83 0v1350h599c175 0 299 -49 373 -147s111 -273 111 -527s-37 -431 -111 -529s-198 -147 -373 -147h-599zM322 165h296c104 0 181 30 232 91c51 60 77 200 77 420c0 218 -26 358 -77 418c-51 61 -128 91 -232 91h-296v-1020zM526 1396l-206 185h142l142 -132l140 132
h143l-207 -185h-154z" />
    <glyph glyph-name="Dcroat" unicode="&#x110;" horiz-adv-x="1278" 
d="M114 0v598h-136v158h136v594h600c174 0 299 -49 373 -147s111 -273 111 -527s-37 -431 -111 -529s-199 -147 -373 -147h-600zM353 165h296c104 0 182 30 233 91c51 60 76 200 76 420c0 218 -25 358 -76 418c-51 61 -129 91 -233 91h-296v-429h207v-158h-207v-433z" />
    <glyph glyph-name="uni1E0C" unicode="&#x1e0c;" horiz-adv-x="1247" 
d="M83 0v1350h599c175 0 299 -49 373 -147s111 -273 111 -527s-37 -431 -111 -529s-198 -147 -373 -147h-599zM322 165h296c104 0 181 30 232 91c51 60 77 200 77 420c0 218 -26 358 -77 418c-51 61 -128 91 -232 91h-296v-1020zM616 -250c-44 0 -79 35 -79 79s35 79 79 79
c43 0 79 -35 79 -79s-35 -79 -79 -79z" />
    <glyph glyph-name="uni1E0E" unicode="&#x1e0e;" horiz-adv-x="1247" 
d="M83 0v1350h599c175 0 299 -49 373 -147s111 -273 111 -527s-37 -431 -111 -529s-198 -147 -373 -147h-599zM322 165h296c104 0 181 30 232 91c51 60 77 200 77 420c0 218 -26 358 -77 418c-51 61 -128 91 -232 91h-296v-1020zM309 -219v90h614v-90h-614z" />
    <glyph glyph-name="uni01C5" unicode="&#x1c5;" horiz-adv-x="2260" 
d="M83 0v1350h599c175 0 299 -49 373 -147s111 -273 111 -527s-37 -431 -111 -529s-198 -147 -373 -147h-599zM322 165h296c104 0 181 30 232 91c51 60 77 200 77 420c0 218 -26 358 -77 418c-51 61 -128 91 -232 91h-296v-1020zM1317 0v164l587 857h-581v164h835v-164
l-578 -857h589v-164h-852zM1667 1231l-206 185h142l142 -132l140 132h143l-206 -185h-155z" />
    <glyph glyph-name="E" unicode="E" horiz-adv-x="1103" 
d="M80 0v1350h918v-165h-678v-418h636v-157h-636v-445h678v-165h-918z" />
    <glyph glyph-name="Eacute" unicode="&#xc9;" horiz-adv-x="1103" 
d="M80 0v1350h918v-165h-678v-418h636v-157h-636v-445h678v-165h-918zM386 1392l149 178h168l-201 -178h-116z" />
    <glyph glyph-name="Ebreve" unicode="&#x114;" horiz-adv-x="1103" 
d="M80 0v1350h918v-165h-678v-418h636v-157h-636v-445h678v-165h-918zM544 1398c-131 0 -212 78 -212 169h116c0 -51 30 -86 96 -86c73 0 97 36 97 86h116c0 -91 -76 -169 -213 -169z" />
    <glyph glyph-name="Ecaron" unicode="&#x11a;" horiz-adv-x="1103" 
d="M80 0v1350h918v-165h-678v-418h636v-157h-636v-445h678v-165h-918zM467 1396l-206 185h142l142 -132l140 132h143l-207 -185h-154z" />
    <glyph glyph-name="uni1E1C" unicode="&#x1e1c;" horiz-adv-x="1103" 
d="M80 0v1350h918v-165h-678v-418h636v-157h-636v-445h678v-165h-400l-30 -86c29 19 76 33 128 33c78 0 132 -34 132 -103c0 -104 -130 -156 -261 -156c-52 0 -107 7 -155 18l33 101c31 -8 75 -15 124 -15c77 0 116 19 116 55c0 25 -20 35 -52 35c-29 0 -62 -11 -84 -24
l-88 12l39 130h-420zM544 1398c-131 0 -212 78 -212 169h116c0 -51 30 -86 96 -86c73 0 97 36 97 86h116c0 -91 -76 -169 -213 -169z" />
    <glyph glyph-name="Ecircumflex" unicode="&#xca;" horiz-adv-x="1103" 
d="M80 0v1350h918v-165h-678v-418h636v-157h-636v-445h678v-165h-918zM261 1401l206 185h154l207 -185h-143l-140 132l-142 -132h-142z" />
    <glyph glyph-name="uni1EBE" unicode="&#x1ebe;" horiz-adv-x="1103" 
d="M80 0v1350h918v-165h-678v-418h636v-157h-636v-445h678v-165h-918zM261 1401l206 185h154l207 -185h-143l-140 132l-142 -132h-142zM386 1628l149 178h168l-201 -178h-116z" />
    <glyph glyph-name="uni1EC6" unicode="&#x1ec6;" horiz-adv-x="1103" 
d="M80 0v1350h918v-165h-678v-418h636v-157h-636v-445h678v-165h-918zM261 1401l206 185h154l207 -185h-143l-140 132l-142 -132h-142zM545 -284c-44 0 -80 35 -80 80c0 43 35 78 80 78c43 0 78 -35 78 -78c0 -44 -35 -80 -78 -80z" />
    <glyph glyph-name="uni1EC0" unicode="&#x1ec0;" horiz-adv-x="1103" 
d="M80 0v1350h918v-165h-678v-418h636v-157h-636v-445h678v-165h-918zM261 1401l206 185h154l207 -185h-143l-140 132l-142 -132h-142zM587 1638l-201 178h167l150 -178h-116z" />
    <glyph glyph-name="uni1EC2" unicode="&#x1ec2;" horiz-adv-x="1103" 
d="M80 0v1350h918v-165h-678v-418h636v-157h-636v-445h678v-165h-918zM420 1914c250 0 369 -19 369 -109c0 -81 -121 -106 -207 -106v-59h-88v120c102 0 178 9 178 38c0 36 -74 40 -252 40v76zM261 1401l206 185h154l207 -185h-143l-140 132l-142 -132h-142z" />
    <glyph glyph-name="uni1EC4" unicode="&#x1ec4;" horiz-adv-x="1103" 
d="M80 0v1350h918v-165h-678v-418h636v-157h-636v-445h678v-165h-918zM663 1662c-110 0 -142 74 -214 74c-55 0 -75 -39 -76 -63h-119c2 50 32 158 182 158c105 0 130 -73 212 -73c50 0 72 39 74 63h118c-1 -46 -28 -159 -177 -159zM261 1401l206 185h154l207 -185h-143
l-140 132l-142 -132h-142z" />
    <glyph glyph-name="uni0204" unicode="&#x204;" horiz-adv-x="1103" 
d="M80 0v1350h918v-165h-678v-418h636v-157h-636v-445h678v-165h-918zM460 1412l-202 177h168l149 -177h-115zM714 1412l-201 177h167l150 -177h-116z" />
    <glyph glyph-name="Edieresis" unicode="&#xcb;" horiz-adv-x="1103" 
d="M80 0v1350h918v-165h-678v-418h636v-157h-636v-445h678v-165h-918zM377 1416c-43 0 -77 34 -77 77c0 42 34 77 77 77s77 -35 77 -77c0 -43 -34 -77 -77 -77zM709 1416c-43 0 -77 34 -77 77c0 42 34 77 77 77c42 0 77 -35 77 -77c0 -43 -35 -77 -77 -77z" />
    <glyph glyph-name="Edotaccent" unicode="&#x116;" horiz-adv-x="1103" 
d="M80 0v1350h918v-165h-678v-418h636v-157h-636v-445h678v-165h-918zM545 1408c-44 0 -80 35 -80 80c0 43 35 78 80 78c43 0 78 -35 78 -78c0 -44 -35 -80 -78 -80z" />
    <glyph glyph-name="uni1EB8" unicode="&#x1eb8;" horiz-adv-x="1103" 
d="M80 0v1350h918v-165h-678v-418h636v-157h-636v-445h678v-165h-918zM545 -284c-44 0 -80 35 -80 80c0 43 35 78 80 78c43 0 78 -35 78 -78c0 -44 -35 -80 -78 -80z" />
    <glyph glyph-name="Egrave" unicode="&#xc8;" horiz-adv-x="1103" 
d="M80 0v1350h918v-165h-678v-418h636v-157h-636v-445h678v-165h-918zM587 1402l-201 178h167l150 -178h-116z" />
    <glyph glyph-name="uni1EBA" unicode="&#x1eba;" horiz-adv-x="1103" 
d="M80 0v1350h918v-165h-678v-418h636v-157h-636v-445h678v-165h-918zM420 1678c250 0 369 -19 369 -109c0 -81 -121 -106 -207 -106v-59h-88v120c102 0 178 9 178 38c0 36 -74 40 -252 40v76z" />
    <glyph glyph-name="uni0206" unicode="&#x206;" horiz-adv-x="1103" 
d="M80 0v1350h918v-165h-678v-418h636v-157h-636v-445h678v-165h-918zM544 1582c131 0 213 -77 213 -169h-116c0 52 -30 87 -97 87c-73 0 -97 -36 -97 -87h-116c0 92 77 169 213 169z" />
    <glyph glyph-name="Emacron" unicode="&#x112;" horiz-adv-x="1103" 
d="M80 0v1350h918v-165h-678v-418h636v-157h-636v-445h678v-165h-918zM238 1447v91h613v-91h-613z" />
    <glyph glyph-name="uni1E16" unicode="&#x1e16;" horiz-adv-x="1103" 
d="M80 0v1350h918v-165h-678v-418h636v-157h-636v-445h678v-165h-918zM238 1447v91h613v-91h-613zM386 1580l149 177h168l-201 -177h-116z" />
    <glyph glyph-name="uni1E14" unicode="&#x1e14;" horiz-adv-x="1103" 
d="M80 0v1350h918v-165h-678v-418h636v-157h-636v-445h678v-165h-918zM238 1447v91h613v-91h-613zM587 1594l-201 178h167l150 -178h-116z" />
    <glyph glyph-name="Eogonek" unicode="&#x118;" horiz-adv-x="1103" 
d="M80 0v1350h918v-165h-678v-418h636v-157h-636v-445h678v-165h-278c-21 -31 -60 -110 -60 -157c0 -37 23 -59 75 -59c50 0 114 15 135 25l4 -120c-19 -8 -97 -24 -173 -24c-93 0 -178 32 -178 133c0 85 51 168 79 202h-522z" />
    <glyph glyph-name="uni1EBC" unicode="&#x1ebc;" horiz-adv-x="1103" 
d="M80 0v1350h918v-165h-678v-418h636v-157h-636v-445h678v-165h-918zM663 1426c-110 0 -142 74 -214 74c-55 0 -75 -39 -76 -63h-119c2 50 32 158 182 158c105 0 130 -73 212 -73c50 0 72 39 74 63h118c-1 -46 -28 -159 -177 -159z" />
    <glyph glyph-name="F" unicode="F" horiz-adv-x="1031" 
d="M81 0v1350h873v-165h-633v-480h581v-157h-581v-548h-240z" />
    <glyph glyph-name="G" unicode="G" horiz-adv-x="1309" 
d="M612 -8c-202 0 -344 56 -425 168s-121 285 -121 519c0 236 41 408 124 518c83 109 231 164 444 164c201 0 342 -50 423 -150c82 -100 123 -221 123 -363h-240c-2 120 -28 208 -76 264c-49 56 -126 84 -230 84c-108 0 -190 -32 -245 -97s-82 -207 -82 -427
c0 -202 28 -338 83 -409s136 -106 244 -106c102 0 177 20 225 62c47 41 72 115 75 222v80h-278v145h524v-666h-155l-11 177c-62 -123 -196 -185 -402 -185z" />
    <glyph glyph-name="Gbreve" unicode="&#x11e;" horiz-adv-x="1309" 
d="M612 -8c-202 0 -344 56 -425 168s-121 285 -121 519c0 236 41 408 124 518c83 109 231 164 444 164c201 0 342 -50 423 -150c82 -100 123 -221 123 -363h-240c-2 120 -28 208 -76 264c-49 56 -126 84 -230 84c-108 0 -190 -32 -245 -97s-82 -207 -82 -427
c0 -202 28 -338 83 -409s136 -106 244 -106c102 0 177 20 225 62c47 41 72 115 75 222v80h-278v145h524v-666h-155l-11 177c-62 -123 -196 -185 -402 -185zM640 1398c-131 0 -212 78 -212 169h116c0 -51 30 -86 96 -86c73 0 97 36 97 86h116c0 -91 -76 -169 -213 -169z" />
    <glyph glyph-name="Gcaron" unicode="&#x1e6;" horiz-adv-x="1309" 
d="M612 -8c-202 0 -344 56 -425 168s-121 285 -121 519c0 236 41 408 124 518c83 109 231 164 444 164c201 0 342 -50 423 -150c82 -100 123 -221 123 -363h-240c-2 120 -28 208 -76 264c-49 56 -126 84 -230 84c-108 0 -190 -32 -245 -97s-82 -207 -82 -427
c0 -202 28 -338 83 -409s136 -106 244 -106c102 0 177 20 225 62c47 41 72 115 75 222v80h-278v145h524v-666h-155l-11 177c-62 -123 -196 -185 -402 -185zM563 1396l-206 185h142l142 -132l140 132h143l-207 -185h-154z" />
    <glyph glyph-name="Gcircumflex" unicode="&#x11c;" horiz-adv-x="1309" 
d="M612 -8c-202 0 -344 56 -425 168s-121 285 -121 519c0 236 41 408 124 518c83 109 231 164 444 164c201 0 342 -50 423 -150c82 -100 123 -221 123 -363h-240c-2 120 -28 208 -76 264c-49 56 -126 84 -230 84c-108 0 -190 -32 -245 -97s-82 -207 -82 -427
c0 -202 28 -338 83 -409s136 -106 244 -106c102 0 177 20 225 62c47 41 72 115 75 222v80h-278v145h524v-666h-155l-11 177c-62 -123 -196 -185 -402 -185zM357 1401l206 185h154l207 -185h-143l-140 132l-142 -132h-142z" />
    <glyph glyph-name="uni0122" unicode="&#x122;" horiz-adv-x="1309" 
d="M612 -8c-202 0 -344 56 -425 168s-121 285 -121 519c0 236 41 408 124 518c83 109 231 164 444 164c201 0 342 -50 423 -150c82 -100 123 -221 123 -363h-240c-2 120 -28 208 -76 264c-49 56 -126 84 -230 84c-108 0 -190 -32 -245 -97s-82 -207 -82 -427
c0 -202 28 -338 83 -409s136 -106 244 -106c102 0 177 20 225 62c47 41 72 115 75 222v80h-278v145h524v-666h-155l-11 177c-62 -123 -196 -185 -402 -185zM505 -321l96 264h148l-153 -264h-91z" />
    <glyph glyph-name="Gdotaccent" unicode="&#x120;" horiz-adv-x="1309" 
d="M612 -8c-202 0 -344 56 -425 168s-121 285 -121 519c0 236 41 408 124 518c83 109 231 164 444 164c201 0 342 -50 423 -150c82 -100 123 -221 123 -363h-240c-2 120 -28 208 -76 264c-49 56 -126 84 -230 84c-108 0 -190 -32 -245 -97s-82 -207 -82 -427
c0 -202 28 -338 83 -409s136 -106 244 -106c102 0 177 20 225 62c47 41 72 115 75 222v80h-278v145h524v-666h-155l-11 177c-62 -123 -196 -185 -402 -185zM641 1408c-44 0 -80 35 -80 80c0 43 35 78 80 78c43 0 78 -35 78 -78c0 -44 -35 -80 -78 -80z" />
    <glyph glyph-name="uni1E20" unicode="&#x1e20;" horiz-adv-x="1309" 
d="M612 -8c-202 0 -344 56 -425 168s-121 285 -121 519c0 236 41 408 124 518c83 109 231 164 444 164c201 0 342 -50 423 -150c82 -100 123 -221 123 -363h-240c-2 120 -28 208 -76 264c-49 56 -126 84 -230 84c-108 0 -190 -32 -245 -97s-82 -207 -82 -427
c0 -202 28 -338 83 -409s136 -106 244 -106c102 0 177 20 225 62c47 41 72 115 75 222v80h-278v145h524v-666h-155l-11 177c-62 -123 -196 -185 -402 -185zM334 1447v91h613v-91h-613z" />
    <glyph glyph-name="H" unicode="H" horiz-adv-x="1269" 
d="M83 0v1350h239v-579h578v579h240v-1350h-240v606h-578v-606h-239z" />
    <glyph glyph-name="Hbar" unicode="&#x126;" horiz-adv-x="1247" 
d="M28 1037v91h63v222h239v-222h578v222h240v-222h62v-91h-62v-1037h-240v606h-578v-606h-239v1037h-63zM908 1037h-578v-266h578v266z" />
    <glyph glyph-name="uni1E2A" unicode="&#x1e2a;" horiz-adv-x="1269" 
d="M83 0v1350h239v-579h578v579h240v-1350h-240v606h-578v-606h-239zM630 -283c-131 0 -213 77 -213 169h116c0 -52 30 -87 97 -87c73 0 97 36 97 87h116c0 -92 -77 -169 -213 -169z" />
    <glyph glyph-name="Hcircumflex" unicode="&#x124;" horiz-adv-x="1269" 
d="M83 0v1350h239v-579h578v579h240v-1350h-240v606h-578v-606h-239zM347 1401l206 185h154l207 -185h-143l-141 132l-141 -132h-142z" />
    <glyph glyph-name="uni1E24" unicode="&#x1e24;" horiz-adv-x="1269" 
d="M83 0v1350h239v-579h578v579h240v-1350h-240v606h-578v-606h-239zM631 -250c-44 0 -80 35 -80 79s35 79 80 79c43 0 78 -35 78 -79s-35 -79 -78 -79z" />
    <glyph glyph-name="I" unicode="I" horiz-adv-x="550" 
d="M138 0v1350h239v-1350h-239z" />
    <glyph glyph-name="Iacute" unicode="&#xcd;" horiz-adv-x="550" 
d="M138 0v1350h239v-1350h-239zM99 1392l149 178h167l-201 -178h-115z" />
    <glyph glyph-name="Ibreve" unicode="&#x12c;" horiz-adv-x="550" 
d="M138 0v1350h239v-1350h-239zM257 1398c-131 0 -213 78 -213 169h116c0 -51 30 -86 97 -86c73 0 97 36 97 86h116c0 -91 -77 -169 -213 -169z" />
    <glyph glyph-name="uni01CF" unicode="&#x1cf;" horiz-adv-x="550" 
d="M138 0v1350h239v-1350h-239zM180 1396l-206 185h142l142 -132l140 132h143l-207 -185h-154z" />
    <glyph glyph-name="Icircumflex" unicode="&#xce;" horiz-adv-x="550" 
d="M138 0v1350h239v-1350h-239zM-26 1401l206 185h154l207 -185h-143l-141 132l-141 -132h-142z" />
    <glyph glyph-name="uni0208" unicode="&#x208;" horiz-adv-x="550" 
d="M138 0v1350h239v-1350h-239zM173 1412l-202 177h168l149 -177h-115zM427 1412l-202 177h168l149 -177h-115z" />
    <glyph glyph-name="Idieresis" unicode="&#xcf;" horiz-adv-x="550" 
d="M138 0v1350h239v-1350h-239zM90 1416c-43 0 -77 34 -77 77c0 42 34 77 77 77c42 0 77 -35 77 -77c0 -43 -35 -77 -77 -77zM422 1416c-43 0 -78 34 -78 77c0 42 35 77 78 77c42 0 77 -35 77 -77c0 -43 -35 -77 -77 -77z" />
    <glyph glyph-name="uni1E2E" unicode="&#x1e2e;" horiz-adv-x="550" 
d="M138 0v1350h239v-1350h-239zM99 1613l149 177h167l-201 -177h-115zM90 1416c-43 0 -77 34 -77 77c0 42 34 77 77 77c42 0 77 -35 77 -77c0 -43 -35 -77 -77 -77zM422 1416c-43 0 -78 34 -78 77c0 42 35 77 78 77c42 0 77 -35 77 -77c0 -43 -35 -77 -77 -77z" />
    <glyph glyph-name="Idotaccent" unicode="&#x130;" horiz-adv-x="550" 
d="M138 0v1350h239v-1350h-239zM258 1408c-44 0 -80 35 -80 80c0 43 35 78 80 78c43 0 78 -35 78 -78c0 -44 -35 -80 -78 -80z" />
    <glyph glyph-name="uni1ECA" unicode="&#x1eca;" horiz-adv-x="550" 
d="M138 0v1350h239v-1350h-239zM258 -284c-44 0 -80 35 -80 80c0 43 35 78 80 78c43 0 78 -35 78 -78c0 -44 -35 -80 -78 -80z" />
    <glyph glyph-name="Igrave" unicode="&#xcc;" horiz-adv-x="550" 
d="M138 0v1350h239v-1350h-239zM300 1402l-201 178h167l150 -178h-116z" />
    <glyph glyph-name="uni1EC8" unicode="&#x1ec8;" horiz-adv-x="550" 
d="M138 0v1350h239v-1350h-239zM132 1678c251 0 370 -19 370 -109c0 -81 -121 -106 -207 -106v-59h-88v120c102 0 178 9 178 38c0 36 -74 40 -253 40v76z" />
    <glyph glyph-name="uni020A" unicode="&#x20a;" horiz-adv-x="550" 
d="M138 0v1350h239v-1350h-239zM257 1582c131 0 213 -77 213 -169h-116c0 52 -30 87 -97 87c-73 0 -97 -36 -97 -87h-116c0 92 77 169 213 169z" />
    <glyph glyph-name="Imacron" unicode="&#x12a;" horiz-adv-x="550" 
d="M138 0v1350h239v-1350h-239zM-50 1447v91h614v-91h-614z" />
    <glyph glyph-name="Iogonek" unicode="&#x12e;" horiz-adv-x="550" 
d="M138 0v1350h239v-1350c-22 -31 -60 -110 -60 -157c0 -37 23 -59 75 -59c50 0 114 15 135 25l4 -120c-20 -8 -97 -24 -173 -24c-93 0 -179 32 -179 133c0 85 52 168 80 202h-121z" />
    <glyph glyph-name="Itilde" unicode="&#x128;" horiz-adv-x="550" 
d="M138 0v1350h239v-1350h-239zM376 1426c-110 0 -143 74 -214 74c-55 0 -75 -39 -77 -63h-118c2 50 31 158 182 158c104 0 130 -73 212 -73c49 0 72 39 73 63h119c-2 -46 -28 -159 -177 -159z" />
    <glyph glyph-name="J" unicode="J" horiz-adv-x="1228" 
d="M577 -12c-172 0 -300 33 -385 98c-86 66 -128 169 -128 310v212h239v-184c0 -94 21 -163 62 -207c42 -44 112 -66 211 -66s170 22 213 66c42 44 63 115 63 211v922h239v-956c0 -137 -43 -239 -128 -306s-213 -100 -386 -100z" />
    <glyph glyph-name="J.ss01" horiz-adv-x="1228" 
d="M72 1350h1019v-956c0 -137 -43 -239 -128 -306s-213 -100 -386 -100c-172 0 -300 33 -385 98c-86 66 -128 169 -128 310v212h239v-184c0 -94 21 -163 62 -207c42 -44 112 -66 211 -66s170 22 213 66c42 44 63 115 63 211v757h-780v165z" />
    <glyph glyph-name="Jcircumflex" unicode="&#x134;" horiz-adv-x="1228" 
d="M577 -12c-172 0 -300 33 -385 98c-86 66 -128 169 -128 310v212h239v-184c0 -94 21 -163 62 -207c42 -44 112 -66 211 -66s170 22 213 66c42 44 63 115 63 211v922h239v-956c0 -137 -43 -239 -128 -306s-213 -100 -386 -100zM694 1401l206 185h155l206 -185h-143
l-140 132l-142 -132h-142z" />
    <glyph glyph-name="K" unicode="K" horiz-adv-x="1158" 
d="M83 0v1350h238v-612l512 612h272l-566 -676l568 -674h-272l-514 610v-610h-238z" />
    <glyph glyph-name="uni0136" unicode="&#x136;" horiz-adv-x="1158" 
d="M83 0v1350h238v-612l512 612h272l-566 -676l568 -674h-272l-514 610v-610h-238zM432 -321l96 263h148l-153 -263h-91z" />
    <glyph glyph-name="L" unicode="L" horiz-adv-x="987" 
d="M83 0v1350h239v-1186h581v-164h-820z" />
    <glyph glyph-name="uni01C7" unicode="&#x1c7;" horiz-adv-x="2215" 
d="M1564 -12c-172 0 -301 33 -386 98c-85 66 -127 169 -127 310v212h239v-184c0 -94 20 -163 62 -207c41 -44 112 -66 211 -66s170 22 212 66c43 44 64 115 64 211v922h238v-956c0 -137 -42 -239 -127 -306s-214 -100 -386 -100zM83 0v1350h239v-1186h581v-164h-820z" />
    <glyph glyph-name="Lacute" unicode="&#x139;" horiz-adv-x="987" 
d="M83 0v1350h239v-1186h581v-164h-820zM336 1392l149 178h168l-201 -178h-116z" />
    <glyph glyph-name="Lcaron" unicode="&#x13d;" horiz-adv-x="995" 
d="M83 0v1350h239v-1186h581v-164h-820zM822 1042l80 306h158l-93 -306h-145z" />
    <glyph glyph-name="uni013B" unicode="&#x13b;" horiz-adv-x="987" 
d="M83 0v1350h239v-1186h581v-164h-820zM359 -321l97 263h148l-154 -263h-91z" />
    <glyph glyph-name="Ldot" unicode="&#x13f;" horiz-adv-x="1051" 
d="M83 0v1350h239v-1186h581v-164h-820zM612 796h223v-201h-223v201z" />
    <glyph glyph-name="uni1E36" unicode="&#x1e36;" horiz-adv-x="987" 
d="M83 0v1350h239v-1186h581v-164h-820zM495 -250c-44 0 -79 35 -79 79s35 79 79 79c43 0 79 -35 79 -79s-35 -79 -79 -79z" />
    <glyph glyph-name="uni01C8" unicode="&#x1c8;" horiz-adv-x="1518" 
d="M83 0v1350h239v-1186h581v-164h-820zM856 -459v164c88 0 156 20 204 60c47 39 71 114 71 224v1197h237v-1188c0 -177 -44 -298 -131 -362s-214 -95 -381 -95zM1131 1518h237v-194h-237v194z" />
    <glyph glyph-name="uni1E3A" unicode="&#x1e3a;" horiz-adv-x="987" 
d="M83 0v1350h239v-1186h581v-164h-820zM188 -219v90h613v-90h-613z" />
    <glyph glyph-name="Lslash" unicode="&#x141;" horiz-adv-x="1094" 
d="M50 401l-60 121l177 123v705h239v-538l203 141l60 -120l-263 -183v-486h581v-164h-820v483z" />
    <glyph glyph-name="M" unicode="M" horiz-adv-x="1654" 
d="M83 0v1350h388l332 -1120l332 1120h389v-1350h-237v1183h-3l-339 -1119h-283l-339 1119h-4v-1183h-236z" />
    <glyph glyph-name="uni1E42" unicode="&#x1e42;" horiz-adv-x="1654" 
d="M83 0v1350h388l332 -1120l332 1120h389v-1350h-237v1183h-3l-339 -1119h-283l-339 1119h-4v-1183h-236zM807 -250c-44 0 -80 35 -80 79s35 79 80 79c43 0 78 -35 78 -79s-35 -79 -78 -79z" />
    <glyph glyph-name="N" unicode="N" horiz-adv-x="1426" 
d="M83 0v1350h389l584 -1169l2 1169h239v-1350h-386l-590 1183v-1183h-238z" />
    <glyph glyph-name="uni01CA" unicode="&#x1ca;" horiz-adv-x="2654" 
d="M83 0v1350h389l584 -1169l2 1169h239v-1350h-386l-590 1183v-1183h-238zM2003 -12c-172 0 -300 33 -385 98c-85 66 -128 169 -128 310v212h239v-184c0 -94 21 -163 62 -207c42 -44 112 -66 212 -66c99 0 169 22 212 66c42 44 63 115 63 211v922h239v-956
c0 -137 -43 -239 -127 -306c-85 -67 -214 -100 -387 -100z" />
    <glyph glyph-name="Nacute" unicode="&#x143;" horiz-adv-x="1426" 
d="M83 0v1350h389l584 -1169l2 1169h239v-1350h-386l-590 1183v-1183h-238zM546 1392l149 178h167l-201 -178h-115z" />
    <glyph glyph-name="Ncaron" unicode="&#x147;" horiz-adv-x="1426" 
d="M83 0v1350h389l584 -1169l2 1169h239v-1350h-386l-590 1183v-1183h-238zM626 1396l-206 185h143l141 -132l141 132h142l-206 -185h-155z" />
    <glyph glyph-name="uni0145" unicode="&#x145;" horiz-adv-x="1426" 
d="M83 0v1350h389l584 -1169l2 1169h239v-1350h-386l-590 1183v-1183h-238zM568 -321l97 263h148l-154 -263h-91z" />
    <glyph glyph-name="uni1E44" unicode="&#x1e44;" horiz-adv-x="1426" 
d="M83 0v1350h389l584 -1169l2 1169h239v-1350h-386l-590 1183v-1183h-238zM704 1408c-44 0 -79 35 -79 80c0 43 35 78 79 78c43 0 79 -35 79 -78c0 -44 -35 -80 -79 -80z" />
    <glyph glyph-name="uni1E46" unicode="&#x1e46;" horiz-adv-x="1426" 
d="M83 0v1350h389l584 -1169l2 1169h239v-1350h-386l-590 1183v-1183h-238zM704 -250c-44 0 -79 35 -79 79s35 79 79 79c43 0 79 -35 79 -79s-35 -79 -79 -79z" />
    <glyph glyph-name="Eng" unicode="&#x14a;" horiz-adv-x="1428" 
d="M732 -448v159c264 0 320 113 320 289h-141l-590 1183v-1183h-238v1350h389l584 -1169l2 1169h239v-1350h1c0 -320 -226 -448 -566 -448z" />
    <glyph glyph-name="uni01CB" unicode="&#x1cb;" horiz-adv-x="1958" 
d="M83 0v1350h389l584 -1169l2 1169h239v-1350h-386l-590 1183v-1183h-238zM1296 -459v164c88 0 156 20 203 60c48 39 72 114 72 224v1197h236v-1188c0 -177 -43 -298 -130 -362s-214 -95 -381 -95zM1571 1518h237v-194h-237v194z" />
    <glyph glyph-name="uni1E48" unicode="&#x1e48;" horiz-adv-x="1426" 
d="M83 0v1350h389l584 -1169l2 1169h239v-1350h-386l-590 1183v-1183h-238zM397 -219v90h614v-90h-614z" />
    <glyph glyph-name="Ntilde" unicode="&#xd1;" horiz-adv-x="1426" 
d="M83 0v1350h389l584 -1169l2 1169h239v-1350h-386l-590 1183v-1183h-238zM823 1426c-111 0 -143 74 -215 74c-54 0 -75 -39 -76 -63h-119c3 50 32 158 182 158c105 0 130 -73 212 -73c50 0 73 39 74 63h118c-1 -46 -27 -159 -176 -159z" />
    <glyph glyph-name="O" unicode="O" 
d="M660 -10c-212 0 -365 53 -457 159s-137 281 -137 526s45 420 137 526c92 107 244 160 457 160s365 -53 457 -160c92 -106 138 -282 138 -526c0 -245 -46 -420 -138 -526s-244 -159 -457 -159zM660 155c109 0 196 33 260 98c64 66 96 206 96 422c0 217 -32 358 -96 423
s-151 98 -260 98s-196 -33 -260 -98s-95 -206 -95 -423c0 -216 31 -356 95 -422c64 -65 151 -98 260 -98z" />
    <glyph glyph-name="Oacute" unicode="&#xd3;" 
d="M660 -10c-212 0 -365 53 -457 159s-137 281 -137 526s45 420 137 526c92 107 244 160 457 160s365 -53 457 -160c92 -106 138 -282 138 -526c0 -245 -46 -420 -138 -526s-244 -159 -457 -159zM660 155c109 0 196 33 260 98c64 66 96 206 96 422c0 217 -32 358 -96 423
s-151 98 -260 98s-196 -33 -260 -98s-95 -206 -95 -423c0 -216 31 -356 95 -422c64 -65 151 -98 260 -98zM504 1392l149 178h168l-201 -178h-116z" />
    <glyph glyph-name="Obreve" unicode="&#x14e;" 
d="M660 -10c-212 0 -365 53 -457 159s-137 281 -137 526s45 420 137 526c92 107 244 160 457 160s365 -53 457 -160c92 -106 138 -282 138 -526c0 -245 -46 -420 -138 -526s-244 -159 -457 -159zM660 155c109 0 196 33 260 98c64 66 96 206 96 422c0 217 -32 358 -96 423
s-151 98 -260 98s-196 -33 -260 -98s-95 -206 -95 -423c0 -216 31 -356 95 -422c64 -65 151 -98 260 -98zM662 1398c-131 0 -212 78 -212 169h116c0 -51 30 -86 96 -86c73 0 97 36 97 86h116c0 -91 -76 -169 -213 -169z" />
    <glyph glyph-name="uni01D1" unicode="&#x1d1;" 
d="M660 -10c-212 0 -365 53 -457 159s-137 281 -137 526s45 420 137 526c92 107 244 160 457 160s365 -53 457 -160c92 -106 138 -282 138 -526c0 -245 -46 -420 -138 -526s-244 -159 -457 -159zM660 155c109 0 196 33 260 98c64 66 96 206 96 422c0 217 -32 358 -96 423
s-151 98 -260 98s-196 -33 -260 -98s-95 -206 -95 -423c0 -216 31 -356 95 -422c64 -65 151 -98 260 -98zM585 1396l-206 185h142l142 -132l140 132h143l-207 -185h-154z" />
    <glyph glyph-name="Ocircumflex" unicode="&#xd4;" 
d="M660 -10c-212 0 -365 53 -457 159s-137 281 -137 526s45 420 137 526c92 107 244 160 457 160s365 -53 457 -160c92 -106 138 -282 138 -526c0 -245 -46 -420 -138 -526s-244 -159 -457 -159zM660 155c109 0 196 33 260 98c64 66 96 206 96 422c0 217 -32 358 -96 423
s-151 98 -260 98s-196 -33 -260 -98s-95 -206 -95 -423c0 -216 31 -356 95 -422c64 -65 151 -98 260 -98zM379 1401l206 185h154l207 -185h-143l-140 132l-142 -132h-142z" />
    <glyph glyph-name="uni1ED0" unicode="&#x1ed0;" 
d="M660 -10c-212 0 -365 53 -457 159s-137 281 -137 526s45 420 137 526c92 107 244 160 457 160s365 -53 457 -160c92 -106 138 -282 138 -526c0 -245 -46 -420 -138 -526s-244 -159 -457 -159zM660 155c109 0 196 33 260 98c64 66 96 206 96 422c0 217 -32 358 -96 423
s-151 98 -260 98s-196 -33 -260 -98s-95 -206 -95 -423c0 -216 31 -356 95 -422c64 -65 151 -98 260 -98zM379 1401l206 185h154l207 -185h-143l-140 132l-142 -132h-142zM504 1628l149 178h168l-201 -178h-116z" />
    <glyph glyph-name="uni1ED8" unicode="&#x1ed8;" 
d="M660 -10c-212 0 -365 53 -457 159s-137 281 -137 526s45 420 137 526c92 107 244 160 457 160s365 -53 457 -160c92 -106 138 -282 138 -526c0 -245 -46 -420 -138 -526s-244 -159 -457 -159zM660 155c109 0 196 33 260 98c64 66 96 206 96 422c0 217 -32 358 -96 423
s-151 98 -260 98s-196 -33 -260 -98s-95 -206 -95 -423c0 -216 31 -356 95 -422c64 -65 151 -98 260 -98zM379 1401l206 185h154l207 -185h-143l-140 132l-142 -132h-142zM663 -284c-44 0 -80 35 -80 80c0 43 35 78 80 78c43 0 78 -35 78 -78c0 -44 -35 -80 -78 -80z" />
    <glyph glyph-name="uni1ED2" unicode="&#x1ed2;" 
d="M660 -10c-212 0 -365 53 -457 159s-137 281 -137 526s45 420 137 526c92 107 244 160 457 160s365 -53 457 -160c92 -106 138 -282 138 -526c0 -245 -46 -420 -138 -526s-244 -159 -457 -159zM660 155c109 0 196 33 260 98c64 66 96 206 96 422c0 217 -32 358 -96 423
s-151 98 -260 98s-196 -33 -260 -98s-95 -206 -95 -423c0 -216 31 -356 95 -422c64 -65 151 -98 260 -98zM379 1401l206 185h154l207 -185h-143l-140 132l-142 -132h-142zM705 1638l-201 178h167l150 -178h-116z" />
    <glyph glyph-name="uni1ED4" unicode="&#x1ed4;" 
d="M660 -10c-212 0 -365 53 -457 159s-137 281 -137 526s45 420 137 526c92 107 244 160 457 160s365 -53 457 -160c92 -106 138 -282 138 -526c0 -245 -46 -420 -138 -526s-244 -159 -457 -159zM660 155c109 0 196 33 260 98c64 66 96 206 96 422c0 217 -32 358 -96 423
s-151 98 -260 98s-196 -33 -260 -98s-95 -206 -95 -423c0 -216 31 -356 95 -422c64 -65 151 -98 260 -98zM538 1914c250 0 369 -19 369 -109c0 -81 -121 -106 -207 -106v-59h-88v120c102 0 178 9 178 38c0 36 -74 40 -252 40v76zM379 1401l206 185h154l207 -185h-143
l-140 132l-142 -132h-142z" />
    <glyph glyph-name="uni1ED6" unicode="&#x1ed6;" 
d="M660 -10c-212 0 -365 53 -457 159s-137 281 -137 526s45 420 137 526c92 107 244 160 457 160s365 -53 457 -160c92 -106 138 -282 138 -526c0 -245 -46 -420 -138 -526s-244 -159 -457 -159zM660 155c109 0 196 33 260 98c64 66 96 206 96 422c0 217 -32 358 -96 423
s-151 98 -260 98s-196 -33 -260 -98s-95 -206 -95 -423c0 -216 31 -356 95 -422c64 -65 151 -98 260 -98zM781 1662c-110 0 -142 74 -214 74c-55 0 -75 -39 -76 -63h-119c2 50 32 158 182 158c105 0 130 -73 212 -73c50 0 72 39 74 63h118c-1 -46 -28 -159 -177 -159z
M379 1401l206 185h154l207 -185h-143l-140 132l-142 -132h-142z" />
    <glyph glyph-name="uni020C" unicode="&#x20c;" 
d="M660 -10c-212 0 -365 53 -457 159s-137 281 -137 526s45 420 137 526c92 107 244 160 457 160s365 -53 457 -160c92 -106 138 -282 138 -526c0 -245 -46 -420 -138 -526s-244 -159 -457 -159zM660 155c109 0 196 33 260 98c64 66 96 206 96 422c0 217 -32 358 -96 423
s-151 98 -260 98s-196 -33 -260 -98s-95 -206 -95 -423c0 -216 31 -356 95 -422c64 -65 151 -98 260 -98zM578 1412l-202 177h168l149 -177h-115zM832 1412l-201 177h167l150 -177h-116z" />
    <glyph glyph-name="Odieresis" unicode="&#xd6;" 
d="M660 -10c-212 0 -365 53 -457 159s-137 281 -137 526s45 420 137 526c92 107 244 160 457 160s365 -53 457 -160c92 -106 138 -282 138 -526c0 -245 -46 -420 -138 -526s-244 -159 -457 -159zM660 155c109 0 196 33 260 98c64 66 96 206 96 422c0 217 -32 358 -96 423
s-151 98 -260 98s-196 -33 -260 -98s-95 -206 -95 -423c0 -216 31 -356 95 -422c64 -65 151 -98 260 -98zM495 1416c-43 0 -77 34 -77 77c0 42 34 77 77 77s77 -35 77 -77c0 -43 -34 -77 -77 -77zM827 1416c-43 0 -77 34 -77 77c0 42 34 77 77 77c42 0 77 -35 77 -77
c0 -43 -35 -77 -77 -77z" />
    <glyph glyph-name="uni022A" unicode="&#x22a;" 
d="M660 -10c-212 0 -365 53 -457 159s-137 281 -137 526s45 420 137 526c92 107 244 160 457 160s365 -53 457 -160c92 -106 138 -282 138 -526c0 -245 -46 -420 -138 -526s-244 -159 -457 -159zM660 155c109 0 196 33 260 98c64 66 96 206 96 422c0 217 -32 358 -96 423
s-151 98 -260 98s-196 -33 -260 -98s-95 -206 -95 -423c0 -216 31 -356 95 -422c64 -65 151 -98 260 -98zM356 1668v90h613v-90h-613zM495 1416c-43 0 -77 34 -77 77c0 42 34 77 77 77s77 -35 77 -77c0 -43 -34 -77 -77 -77zM827 1416c-43 0 -77 34 -77 77c0 42 34 77 77 77
c42 0 77 -35 77 -77c0 -43 -35 -77 -77 -77z" />
    <glyph glyph-name="uni0230" unicode="&#x230;" 
d="M660 -10c-212 0 -365 53 -457 159s-137 281 -137 526s45 420 137 526c92 107 244 160 457 160s365 -53 457 -160c92 -106 138 -282 138 -526c0 -245 -46 -420 -138 -526s-244 -159 -457 -159zM660 155c109 0 196 33 260 98c64 66 96 206 96 422c0 217 -32 358 -96 423
s-151 98 -260 98s-196 -33 -260 -98s-95 -206 -95 -423c0 -216 31 -356 95 -422c64 -65 151 -98 260 -98zM356 1663v91h613v-91h-613zM663 1408c-44 0 -80 35 -80 80c0 43 35 78 80 78c43 0 78 -35 78 -78c0 -44 -35 -80 -78 -80z" />
    <glyph glyph-name="uni1ECC" unicode="&#x1ecc;" 
d="M660 -10c-212 0 -365 53 -457 159s-137 281 -137 526s45 420 137 526c92 107 244 160 457 160s365 -53 457 -160c92 -106 138 -282 138 -526c0 -245 -46 -420 -138 -526s-244 -159 -457 -159zM660 155c109 0 196 33 260 98c64 66 96 206 96 422c0 217 -32 358 -96 423
s-151 98 -260 98s-196 -33 -260 -98s-95 -206 -95 -423c0 -216 31 -356 95 -422c64 -65 151 -98 260 -98zM663 -284c-44 0 -80 35 -80 80c0 43 35 78 80 78c43 0 78 -35 78 -78c0 -44 -35 -80 -78 -80z" />
    <glyph glyph-name="Ograve" unicode="&#xd2;" 
d="M660 -10c-212 0 -365 53 -457 159s-137 281 -137 526s45 420 137 526c92 107 244 160 457 160s365 -53 457 -160c92 -106 138 -282 138 -526c0 -245 -46 -420 -138 -526s-244 -159 -457 -159zM660 155c109 0 196 33 260 98c64 66 96 206 96 422c0 217 -32 358 -96 423
s-151 98 -260 98s-196 -33 -260 -98s-95 -206 -95 -423c0 -216 31 -356 95 -422c64 -65 151 -98 260 -98zM705 1402l-201 178h167l150 -178h-116z" />
    <glyph glyph-name="uni1ECE" unicode="&#x1ece;" 
d="M660 -10c-212 0 -365 53 -457 159s-137 281 -137 526s45 420 137 526c92 107 244 160 457 160s365 -53 457 -160c92 -106 138 -282 138 -526c0 -245 -46 -420 -138 -526s-244 -159 -457 -159zM660 155c109 0 196 33 260 98c64 66 96 206 96 422c0 217 -32 358 -96 423
s-151 98 -260 98s-196 -33 -260 -98s-95 -206 -95 -423c0 -216 31 -356 95 -422c64 -65 151 -98 260 -98zM538 1678c250 0 369 -19 369 -109c0 -81 -121 -106 -207 -106v-59h-88v120c102 0 178 9 178 38c0 36 -74 40 -252 40v76z" />
    <glyph glyph-name="Ohorn" unicode="&#x1a0;" 
d="M660 -10c-212 0 -365 53 -457 159s-137 281 -137 526s45 420 137 526c92 107 244 160 457 160c204 0 352 -49 445 -147c133 7 179 53 179 159h139c0 -141 -90 -216 -261 -236c62 -107 93 -262 93 -462c0 -245 -46 -420 -138 -526s-244 -159 -457 -159zM660 155
c109 0 196 33 260 98c64 66 96 206 96 422c0 217 -32 358 -96 423s-151 98 -260 98s-196 -33 -260 -98s-95 -206 -95 -423c0 -216 31 -356 95 -422c64 -65 151 -98 260 -98z" />
    <glyph glyph-name="uni1EDA" unicode="&#x1eda;" 
d="M660 -10c-212 0 -365 53 -457 159s-137 281 -137 526s45 420 137 526c92 107 244 160 457 160c204 0 352 -49 445 -147c133 7 179 53 179 159h139c0 -141 -90 -216 -261 -236c62 -107 93 -262 93 -462c0 -245 -46 -420 -138 -526s-244 -159 -457 -159zM660 155
c109 0 196 33 260 98c64 66 96 206 96 422c0 217 -32 358 -96 423s-151 98 -260 98s-196 -33 -260 -98s-95 -206 -95 -423c0 -216 31 -356 95 -422c64 -65 151 -98 260 -98zM504 1392l149 178h168l-201 -178h-116z" />
    <glyph glyph-name="uni1EE2" unicode="&#x1ee2;" 
d="M660 -10c-212 0 -365 53 -457 159s-137 281 -137 526s45 420 137 526c92 107 244 160 457 160c204 0 352 -49 445 -147c133 7 179 53 179 159h139c0 -141 -90 -216 -261 -236c62 -107 93 -262 93 -462c0 -245 -46 -420 -138 -526s-244 -159 -457 -159zM660 155
c109 0 196 33 260 98c64 66 96 206 96 422c0 217 -32 358 -96 423s-151 98 -260 98s-196 -33 -260 -98s-95 -206 -95 -423c0 -216 31 -356 95 -422c64 -65 151 -98 260 -98zM663 -284c-44 0 -80 35 -80 80c0 43 35 78 80 78c43 0 78 -35 78 -78c0 -44 -35 -80 -78 -80z" />
    <glyph glyph-name="uni1EDC" unicode="&#x1edc;" 
d="M660 -10c-212 0 -365 53 -457 159s-137 281 -137 526s45 420 137 526c92 107 244 160 457 160c204 0 352 -49 445 -147c133 7 179 53 179 159h139c0 -141 -90 -216 -261 -236c62 -107 93 -262 93 -462c0 -245 -46 -420 -138 -526s-244 -159 -457 -159zM660 155
c109 0 196 33 260 98c64 66 96 206 96 422c0 217 -32 358 -96 423s-151 98 -260 98s-196 -33 -260 -98s-95 -206 -95 -423c0 -216 31 -356 95 -422c64 -65 151 -98 260 -98zM705 1402l-201 178h167l150 -178h-116z" />
    <glyph glyph-name="uni1EDE" unicode="&#x1ede;" 
d="M660 -10c-212 0 -365 53 -457 159s-137 281 -137 526s45 420 137 526c92 107 244 160 457 160c204 0 352 -49 445 -147c133 7 179 53 179 159h139c0 -141 -90 -216 -261 -236c62 -107 93 -262 93 -462c0 -245 -46 -420 -138 -526s-244 -159 -457 -159zM660 155
c109 0 196 33 260 98c64 66 96 206 96 422c0 217 -32 358 -96 423s-151 98 -260 98s-196 -33 -260 -98s-95 -206 -95 -423c0 -216 31 -356 95 -422c64 -65 151 -98 260 -98zM538 1678c250 0 369 -19 369 -109c0 -81 -121 -106 -207 -106v-59h-88v120c102 0 178 9 178 38
c0 36 -74 40 -252 40v76z" />
    <glyph glyph-name="uni1EE0" unicode="&#x1ee0;" 
d="M660 -10c-212 0 -365 53 -457 159s-137 281 -137 526s45 420 137 526c92 107 244 160 457 160c204 0 352 -49 445 -147c133 7 179 53 179 159h139c0 -141 -90 -216 -261 -236c62 -107 93 -262 93 -462c0 -245 -46 -420 -138 -526s-244 -159 -457 -159zM660 155
c109 0 196 33 260 98c64 66 96 206 96 422c0 217 -32 358 -96 423s-151 98 -260 98s-196 -33 -260 -98s-95 -206 -95 -423c0 -216 31 -356 95 -422c64 -65 151 -98 260 -98zM781 1426c-110 0 -142 74 -214 74c-55 0 -75 -39 -76 -63h-119c2 50 32 158 182 158
c105 0 130 -73 212 -73c50 0 72 39 74 63h118c-1 -46 -28 -159 -177 -159z" />
    <glyph glyph-name="Ohungarumlaut" unicode="&#x150;" 
d="M660 -10c-212 0 -365 53 -457 159s-137 281 -137 526s45 420 137 526c92 107 244 160 457 160s365 -53 457 -160c92 -106 138 -282 138 -526c0 -245 -46 -420 -138 -526s-244 -159 -457 -159zM660 155c109 0 196 33 260 98c64 66 96 206 96 422c0 217 -32 358 -96 423
s-151 98 -260 98s-196 -33 -260 -98s-95 -206 -95 -423c0 -216 31 -356 95 -422c64 -65 151 -98 260 -98zM597 1422l145 160h152l-185 -160h-112zM432 1422l143 160h147l-178 -160h-112z" />
    <glyph glyph-name="uni020E" unicode="&#x20e;" 
d="M660 -10c-212 0 -365 53 -457 159s-137 281 -137 526s45 420 137 526c92 107 244 160 457 160s365 -53 457 -160c92 -106 138 -282 138 -526c0 -245 -46 -420 -138 -526s-244 -159 -457 -159zM660 155c109 0 196 33 260 98c64 66 96 206 96 422c0 217 -32 358 -96 423
s-151 98 -260 98s-196 -33 -260 -98s-95 -206 -95 -423c0 -216 31 -356 95 -422c64 -65 151 -98 260 -98zM662 1582c131 0 213 -77 213 -169h-116c0 52 -30 87 -97 87c-73 0 -97 -36 -97 -87h-116c0 92 77 169 213 169z" />
    <glyph glyph-name="Omacron" unicode="&#x14c;" 
d="M660 -10c-212 0 -365 53 -457 159s-137 281 -137 526s45 420 137 526c92 107 244 160 457 160s365 -53 457 -160c92 -106 138 -282 138 -526c0 -245 -46 -420 -138 -526s-244 -159 -457 -159zM660 155c109 0 196 33 260 98c64 66 96 206 96 422c0 217 -32 358 -96 423
s-151 98 -260 98s-196 -33 -260 -98s-95 -206 -95 -423c0 -216 31 -356 95 -422c64 -65 151 -98 260 -98zM356 1447v91h613v-91h-613z" />
    <glyph glyph-name="uni1E52" unicode="&#x1e52;" 
d="M660 -10c-212 0 -365 53 -457 159s-137 281 -137 526s45 420 137 526c92 107 244 160 457 160s365 -53 457 -160c92 -106 138 -282 138 -526c0 -245 -46 -420 -138 -526s-244 -159 -457 -159zM660 155c109 0 196 33 260 98c64 66 96 206 96 422c0 217 -32 358 -96 423
s-151 98 -260 98s-196 -33 -260 -98s-95 -206 -95 -423c0 -216 31 -356 95 -422c64 -65 151 -98 260 -98zM356 1447v91h613v-91h-613zM504 1580l149 177h168l-201 -177h-116z" />
    <glyph glyph-name="uni1E50" unicode="&#x1e50;" 
d="M660 -10c-212 0 -365 53 -457 159s-137 281 -137 526s45 420 137 526c92 107 244 160 457 160s365 -53 457 -160c92 -106 138 -282 138 -526c0 -245 -46 -420 -138 -526s-244 -159 -457 -159zM660 155c109 0 196 33 260 98c64 66 96 206 96 422c0 217 -32 358 -96 423
s-151 98 -260 98s-196 -33 -260 -98s-95 -206 -95 -423c0 -216 31 -356 95 -422c64 -65 151 -98 260 -98zM356 1447v91h613v-91h-613zM705 1594l-201 178h167l150 -178h-116z" />
    <glyph glyph-name="uni01EA" unicode="&#x1ea;" 
d="M659 -335c-92 0 -178 32 -178 133c0 81 47 160 75 197c-159 15 -276 66 -353 154c-92 106 -137 281 -137 526s45 420 137 526c92 107 244 160 457 160s365 -53 457 -160c92 -106 138 -282 138 -526c0 -245 -46 -420 -138 -526c-90 -104 -239 -157 -445 -159
c-22 -36 -53 -105 -53 -147c0 -37 23 -59 75 -59c50 0 113 15 135 25l3 -120c-19 -8 -97 -24 -173 -24zM660 155c109 0 196 33 260 98c64 66 96 206 96 422c0 217 -32 358 -96 423s-151 98 -260 98s-196 -33 -260 -98s-95 -206 -95 -423c0 -216 31 -356 95 -422
c64 -65 151 -98 260 -98z" />
    <glyph glyph-name="Oslash" unicode="&#xd8;" horiz-adv-x="1232" 
d="M56 0l130 171c-80 107 -120 275 -120 504c0 245 45 420 137 526c92 107 244 160 457 160c153 0 275 -28 366 -83l53 70h127l-101 -134c4 -4 8 -8 12 -13c92 -106 138 -282 138 -526c0 -245 -46 -420 -138 -526s-244 -159 -457 -159c-174 0 -308 36 -401 107l-73 -97h-130
zM660 155c109 0 196 33 260 98c64 66 96 206 96 422c0 159 -17 277 -51 354l-577 -762c4 -5 8 -9 12 -14c64 -65 151 -98 260 -98zM338 371l564 744c-62 54 -142 81 -242 81c-109 0 -196 -33 -260 -98s-95 -206 -95 -423c0 -127 11 -229 33 -304z" />
    <glyph glyph-name="Oslashacute" unicode="&#x1fe;" horiz-adv-x="1232" 
d="M56 0l130 171c-80 107 -120 275 -120 504c0 245 45 420 137 526c92 107 244 160 457 160c153 0 275 -28 366 -83l53 70h127l-101 -134c4 -4 8 -8 12 -13c92 -106 138 -282 138 -526c0 -245 -46 -420 -138 -526s-244 -159 -457 -159c-174 0 -308 36 -401 107l-73 -97h-130
zM660 155c109 0 196 33 260 98c64 66 96 206 96 422c0 159 -17 277 -51 354l-577 -762c4 -5 8 -9 12 -14c64 -65 151 -98 260 -98zM338 371l564 744c-62 54 -142 81 -242 81c-109 0 -196 -33 -260 -98s-95 -206 -95 -423c0 -127 11 -229 33 -304zM488 1392l149 178h168
l-201 -178h-116z" />
    <glyph glyph-name="Otilde" unicode="&#xd5;" 
d="M660 -10c-212 0 -365 53 -457 159s-137 281 -137 526s45 420 137 526c92 107 244 160 457 160s365 -53 457 -160c92 -106 138 -282 138 -526c0 -245 -46 -420 -138 -526s-244 -159 -457 -159zM660 155c109 0 196 33 260 98c64 66 96 206 96 422c0 217 -32 358 -96 423
s-151 98 -260 98s-196 -33 -260 -98s-95 -206 -95 -423c0 -216 31 -356 95 -422c64 -65 151 -98 260 -98zM781 1426c-110 0 -142 74 -214 74c-55 0 -75 -39 -76 -63h-119c2 50 32 158 182 158c105 0 130 -73 212 -73c50 0 72 39 74 63h118c-1 -46 -28 -159 -177 -159z" />
    <glyph glyph-name="uni1E4C" unicode="&#x1e4c;" 
d="M660 -10c-212 0 -365 53 -457 159s-137 281 -137 526s45 420 137 526c92 107 244 160 457 160s365 -53 457 -160c92 -106 138 -282 138 -526c0 -245 -46 -420 -138 -526s-244 -159 -457 -159zM660 155c109 0 196 33 260 98c64 66 96 206 96 422c0 217 -32 358 -96 423
s-151 98 -260 98s-196 -33 -260 -98s-95 -206 -95 -423c0 -216 31 -356 95 -422c64 -65 151 -98 260 -98zM781 1426c-110 0 -142 74 -214 74c-55 0 -75 -39 -76 -63h-119c2 50 32 158 182 158c105 0 130 -73 212 -73c50 0 72 39 74 63h118c-1 -46 -28 -159 -177 -159z
M504 1634l149 177h168l-201 -177h-116z" />
    <glyph glyph-name="uni1E4E" unicode="&#x1e4e;" 
d="M660 -10c-212 0 -365 53 -457 159s-137 281 -137 526s45 420 137 526c92 107 244 160 457 160s365 -53 457 -160c92 -106 138 -282 138 -526c0 -245 -46 -420 -138 -526s-244 -159 -457 -159zM660 155c109 0 196 33 260 98c64 66 96 206 96 422c0 217 -32 358 -96 423
s-151 98 -260 98s-196 -33 -260 -98s-95 -206 -95 -423c0 -216 31 -356 95 -422c64 -65 151 -98 260 -98zM781 1426c-110 0 -142 74 -214 74c-55 0 -75 -39 -76 -63h-119c2 50 32 158 182 158c105 0 130 -73 212 -73c50 0 72 39 74 63h118c-1 -46 -28 -159 -177 -159z
M495 1657c-43 0 -77 35 -77 77c0 43 34 77 77 77s77 -34 77 -77c0 -42 -34 -77 -77 -77zM827 1657c-43 0 -77 35 -77 77c0 43 34 77 77 77c42 0 77 -34 77 -77c0 -42 -35 -77 -77 -77z" />
    <glyph glyph-name="uni022C" unicode="&#x22c;" 
d="M660 -10c-212 0 -365 53 -457 159s-137 281 -137 526s45 420 137 526c92 107 244 160 457 160s365 -53 457 -160c92 -106 138 -282 138 -526c0 -245 -46 -420 -138 -526s-244 -159 -457 -159zM660 155c109 0 196 33 260 98c64 66 96 206 96 422c0 217 -32 358 -96 423
s-151 98 -260 98s-196 -33 -260 -98s-95 -206 -95 -423c0 -216 31 -356 95 -422c64 -65 151 -98 260 -98zM781 1426c-110 0 -142 74 -214 74c-55 0 -75 -39 -76 -63h-119c2 50 32 158 182 158c105 0 130 -73 212 -73c50 0 72 39 74 63h118c-1 -46 -28 -159 -177 -159z
M356 1689v90h613v-90h-613z" />
    <glyph glyph-name="OE" unicode="&#x152;" horiz-adv-x="2042" 
d="M660 -10c-212 0 -365 53 -457 159s-137 281 -137 526s45 420 137 526c92 107 244 160 457 160c150 0 269 -27 359 -79v68h918v-165h-678v-418h636v-157h-636v-445h678v-165h-918v69c-90 -53 -209 -79 -359 -79zM660 155c109 0 196 33 260 98c64 66 96 206 96 422
c0 217 -32 358 -96 423s-151 98 -260 98s-196 -33 -260 -98s-95 -206 -95 -423c0 -216 31 -356 95 -422c64 -65 151 -98 260 -98z" />
    <glyph glyph-name="P" unicode="P" horiz-adv-x="1187" 
d="M83 0v1350h632c154 0 257 -46 310 -138c52 -92 78 -207 78 -344c0 -138 -26 -253 -78 -345s-156 -137 -310 -137h-393v-386h-239zM322 551h321c82 0 139 26 172 79s50 132 50 238c0 105 -17 184 -50 237s-90 80 -172 80h-321v-634z" />
    <glyph glyph-name="Thorn" unicode="&#xde;" horiz-adv-x="1168" 
d="M86 0v1350h237v-218h457c209 0 292 -118 292 -313v-279c0 -203 -77 -312 -292 -312h-457v-228h-237zM323 385h367c110 0 144 72 144 189v214c0 114 -32 186 -144 186h-367v-589z" />
    <glyph glyph-name="Q" unicode="Q" horiz-adv-x="1345" 
d="M1068 -228l-176 245c-67 -18 -144 -27 -232 -27c-212 0 -365 53 -457 159s-137 281 -137 526s45 420 137 526c92 107 244 160 457 160s365 -53 457 -160c92 -106 138 -282 138 -526c0 -245 -46 -420 -138 -526c-15 -17 -31 -33 -49 -47l170 -237zM660 155
c109 0 196 33 260 98c64 66 96 206 96 422c0 217 -32 358 -96 423s-151 98 -260 98s-196 -33 -260 -98s-95 -206 -95 -423c0 -216 31 -356 95 -422c64 -65 151 -98 260 -98z" />
    <glyph glyph-name="R" unicode="R" horiz-adv-x="1218" 
d="M83 0v1350h696c135 0 224 -38 270 -115c45 -77 68 -170 68 -279s-24 -200 -71 -274c-34 -55 -94 -89 -178 -104l264 -578h-260l-246 571h-303v-571h-240zM323 720h372c69 0 117 21 143 63s39 98 39 170c0 70 -13 127 -39 169s-74 63 -143 63h-372v-465z" />
    <glyph glyph-name="Racute" unicode="&#x154;" horiz-adv-x="1218" 
d="M83 0v1350h696c135 0 224 -38 270 -115c45 -77 68 -170 68 -279s-24 -200 -71 -274c-34 -55 -94 -89 -178 -104l264 -578h-260l-246 571h-303v-571h-240zM323 720h372c69 0 117 21 143 63s39 98 39 170c0 70 -13 127 -39 169s-74 63 -143 63h-372v-465zM436 1392l149 178
h168l-201 -178h-116z" />
    <glyph glyph-name="Rcaron" unicode="&#x158;" horiz-adv-x="1218" 
d="M83 0v1350h696c135 0 224 -38 270 -115c45 -77 68 -170 68 -279s-24 -200 -71 -274c-34 -55 -94 -89 -178 -104l264 -578h-260l-246 571h-303v-571h-240zM323 720h372c69 0 117 21 143 63s39 98 39 170c0 70 -13 127 -39 169s-74 63 -143 63h-372v-465zM517 1396
l-206 185h142l142 -132l140 132h143l-207 -185h-154z" />
    <glyph glyph-name="uni0156" unicode="&#x156;" horiz-adv-x="1218" 
d="M83 0v1350h696c135 0 224 -38 270 -115c45 -77 68 -170 68 -279s-24 -200 -71 -274c-34 -55 -94 -89 -178 -104l264 -578h-260l-246 571h-303v-571h-240zM323 720h372c69 0 117 21 143 63s39 98 39 170c0 70 -13 127 -39 169s-74 63 -143 63h-372v-465zM459 -321l96 263
h148l-153 -263h-91z" />
    <glyph glyph-name="uni0210" unicode="&#x210;" horiz-adv-x="1218" 
d="M83 0v1350h696c135 0 224 -38 270 -115c45 -77 68 -170 68 -279s-24 -200 -71 -274c-34 -55 -94 -89 -178 -104l264 -578h-260l-246 571h-303v-571h-240zM323 720h372c69 0 117 21 143 63s39 98 39 170c0 70 -13 127 -39 169s-74 63 -143 63h-372v-465zM510 1412
l-202 177h168l149 -177h-115zM764 1412l-201 177h167l150 -177h-116z" />
    <glyph glyph-name="uni1E5A" unicode="&#x1e5a;" horiz-adv-x="1218" 
d="M83 0v1350h696c135 0 224 -38 270 -115c45 -77 68 -170 68 -279s-24 -200 -71 -274c-34 -55 -94 -89 -178 -104l264 -578h-260l-246 571h-303v-571h-240zM323 720h372c69 0 117 21 143 63s39 98 39 170c0 70 -13 127 -39 169s-74 63 -143 63h-372v-465zM595 -250
c-44 0 -80 35 -80 79s35 79 80 79c43 0 78 -35 78 -79s-35 -79 -78 -79z" />
    <glyph glyph-name="uni0212" unicode="&#x212;" horiz-adv-x="1218" 
d="M83 0v1350h696c135 0 224 -38 270 -115c45 -77 68 -170 68 -279s-24 -200 -71 -274c-34 -55 -94 -89 -178 -104l264 -578h-260l-246 571h-303v-571h-240zM323 720h372c69 0 117 21 143 63s39 98 39 170c0 70 -13 127 -39 169s-74 63 -143 63h-372v-465zM594 1582
c131 0 213 -77 213 -169h-116c0 52 -30 87 -97 87c-73 0 -97 -36 -97 -87h-116c0 92 77 169 213 169z" />
    <glyph glyph-name="uni1E5E" unicode="&#x1e5e;" horiz-adv-x="1218" 
d="M83 0v1350h696c135 0 224 -38 270 -115c45 -77 68 -170 68 -279s-24 -200 -71 -274c-34 -55 -94 -89 -178 -104l264 -578h-260l-246 571h-303v-571h-240zM323 720h372c69 0 117 21 143 63s39 98 39 170c0 70 -13 127 -39 169s-74 63 -143 63h-372v-465zM288 -219v90h613
v-90h-613z" />
    <glyph glyph-name="S" unicode="S" horiz-adv-x="1253" 
d="M610 -9c-210 0 -354 41 -432 123c-78 81 -117 209 -117 383h241c0 -144 26 -236 79 -278c53 -43 129 -64 228 -64c97 0 173 18 227 53s82 83 82 146c0 74 -34 127 -102 156c-68 30 -163 58 -285 86c-170 41 -290 86 -362 136c-71 50 -107 132 -107 245
c0 106 40 196 120 271s222 113 425 113c206 0 349 -42 427 -125c79 -83 119 -208 119 -373h-240c0 140 -28 230 -83 272c-55 41 -130 62 -226 62c-98 0 -174 -18 -228 -53c-55 -36 -82 -82 -82 -140c0 -74 34 -126 103 -157c68 -30 163 -59 283 -88
c174 -40 297 -84 367 -131c71 -47 107 -127 107 -242c0 -110 -40 -204 -118 -280c-79 -77 -220 -115 -426 -115z" />
    <glyph glyph-name="Sacute" unicode="&#x15a;" horiz-adv-x="1253" 
d="M610 -9c-210 0 -354 41 -432 123c-78 81 -117 209 -117 383h241c0 -144 26 -236 79 -278c53 -43 129 -64 228 -64c97 0 173 18 227 53s82 83 82 146c0 74 -34 127 -102 156c-68 30 -163 58 -285 86c-170 41 -290 86 -362 136c-71 50 -107 132 -107 245
c0 106 40 196 120 271s222 113 425 113c206 0 349 -42 427 -125c79 -83 119 -208 119 -373h-240c0 140 -28 230 -83 272c-55 41 -130 62 -226 62c-98 0 -174 -18 -228 -53c-55 -36 -82 -82 -82 -140c0 -74 34 -126 103 -157c68 -30 163 -59 283 -88
c174 -40 297 -84 367 -131c71 -47 107 -127 107 -242c0 -110 -40 -204 -118 -280c-79 -77 -220 -115 -426 -115zM462 1482l149 178h167l-201 -178h-115z" />
    <glyph glyph-name="uni1E64" unicode="&#x1e64;" horiz-adv-x="1253" 
d="M610 -9c-210 0 -354 41 -432 123c-78 81 -117 209 -117 383h241c0 -144 26 -236 79 -278c53 -43 129 -64 228 -64c97 0 173 18 227 53s82 83 82 146c0 74 -34 127 -102 156c-68 30 -163 58 -285 86c-170 41 -290 86 -362 136c-71 50 -107 132 -107 245
c0 106 40 196 120 271s222 113 425 113c206 0 349 -42 427 -125c79 -83 119 -208 119 -373h-240c0 140 -28 230 -83 272c-55 41 -130 62 -226 62c-98 0 -174 -18 -228 -53c-55 -36 -82 -82 -82 -140c0 -74 34 -126 103 -157c68 -30 163 -59 283 -88
c174 -40 297 -84 367 -131c71 -47 107 -127 107 -242c0 -110 -40 -204 -118 -280c-79 -77 -220 -115 -426 -115zM456 1392l149 178h168l-201 -178h-116zM615 1628c-44 0 -79 35 -79 79s35 79 79 79c43 0 79 -35 79 -79s-35 -79 -79 -79z" />
    <glyph glyph-name="Scaron" unicode="&#x160;" horiz-adv-x="1253" 
d="M610 -9c-210 0 -354 41 -432 123c-78 81 -117 209 -117 383h241c0 -144 26 -236 79 -278c53 -43 129 -64 228 -64c97 0 173 18 227 53s82 83 82 146c0 74 -34 127 -102 156c-68 30 -163 58 -285 86c-170 41 -290 86 -362 136c-71 50 -107 132 -107 245
c0 106 40 196 120 271s222 113 425 113c206 0 349 -42 427 -125c79 -83 119 -208 119 -373h-240c0 140 -28 230 -83 272c-55 41 -130 62 -226 62c-98 0 -174 -18 -228 -53c-55 -36 -82 -82 -82 -140c0 -74 34 -126 103 -157c68 -30 163 -59 283 -88
c174 -40 297 -84 367 -131c71 -47 107 -127 107 -242c0 -110 -40 -204 -118 -280c-79 -77 -220 -115 -426 -115zM527 1476l-206 185h142l142 -132l140 132h143l-206 -185h-155z" />
    <glyph glyph-name="uni1E66" unicode="&#x1e66;" horiz-adv-x="1253" 
d="M610 -9c-210 0 -354 41 -432 123c-78 81 -117 209 -117 383h241c0 -144 26 -236 79 -278c53 -43 129 -64 228 -64c97 0 173 18 227 53s82 83 82 146c0 74 -34 127 -102 156c-68 30 -163 58 -285 86c-170 41 -290 86 -362 136c-71 50 -107 132 -107 245
c0 106 40 196 120 271s222 113 425 113c206 0 349 -42 427 -125c79 -83 119 -208 119 -373h-240c0 140 -28 230 -83 272c-55 41 -130 62 -226 62c-98 0 -174 -18 -228 -53c-55 -36 -82 -82 -82 -140c0 -74 34 -126 103 -157c68 -30 163 -59 283 -88
c174 -40 297 -84 367 -131c71 -47 107 -127 107 -242c0 -110 -40 -204 -118 -280c-79 -77 -220 -115 -426 -115zM537 1396l-206 185h142l142 -132l140 132h143l-206 -185h-155zM615 1639c-44 0 -79 35 -79 80c0 43 35 78 79 78c43 0 79 -35 79 -78c0 -44 -35 -80 -79 -80z
" />
    <glyph glyph-name="Scedilla" unicode="&#x15e;" horiz-adv-x="1254" 
d="M615 -313c-53 0 -108 7 -156 18l34 101c30 -8 74 -15 123 -15c77 0 117 19 117 55c0 25 -21 35 -53 35c-29 0 -62 -11 -84 -24l-87 12l37 124c-176 7 -299 48 -368 121c-78 81 -117 209 -117 383h241c0 -144 26 -236 79 -278c53 -43 129 -64 228 -64c97 0 173 18 227 53
s82 83 82 146c0 74 -34 127 -102 156c-68 30 -163 58 -285 86c-170 41 -290 86 -362 136c-71 50 -107 132 -107 245c0 106 40 196 120 271s222 113 425 113c206 0 349 -42 427 -125c79 -83 119 -208 119 -373h-240c0 140 -28 230 -83 272c-55 41 -130 62 -226 62
c-98 0 -174 -18 -228 -53c-55 -36 -82 -82 -82 -140c0 -74 34 -126 103 -157c68 -30 163 -59 283 -88c174 -40 297 -84 367 -131c71 -47 107 -127 107 -242c0 -110 -40 -204 -118 -280c-74 -72 -205 -111 -393 -114l-27 -79c29 19 76 33 128 33c77 0 132 -34 132 -103
c0 -104 -131 -156 -261 -156z" />
    <glyph glyph-name="Scircumflex" unicode="&#x15c;" horiz-adv-x="1253" 
d="M610 -9c-210 0 -354 41 -432 123c-78 81 -117 209 -117 383h241c0 -144 26 -236 79 -278c53 -43 129 -64 228 -64c97 0 173 18 227 53s82 83 82 146c0 74 -34 127 -102 156c-68 30 -163 58 -285 86c-170 41 -290 86 -362 136c-71 50 -107 132 -107 245
c0 106 40 196 120 271s222 113 425 113c206 0 349 -42 427 -125c79 -83 119 -208 119 -373h-240c0 140 -28 230 -83 272c-55 41 -130 62 -226 62c-98 0 -174 -18 -228 -53c-55 -36 -82 -82 -82 -140c0 -74 34 -126 103 -157c68 -30 163 -59 283 -88
c174 -40 297 -84 367 -131c71 -47 107 -127 107 -242c0 -110 -40 -204 -118 -280c-79 -77 -220 -115 -426 -115zM331 1401l206 185h155l206 -185h-143l-140 132l-142 -132h-142z" />
    <glyph glyph-name="uni0218" unicode="&#x218;" horiz-adv-x="1253" 
d="M610 -9c-210 0 -354 41 -432 123c-78 81 -117 209 -117 383h241c0 -144 26 -236 79 -278c53 -43 129 -64 228 -64c97 0 173 18 227 53s82 83 82 146c0 74 -34 127 -102 156c-68 30 -163 58 -285 86c-170 41 -290 86 -362 136c-71 50 -107 132 -107 245
c0 106 40 196 120 271s222 113 425 113c206 0 349 -42 427 -125c79 -83 119 -208 119 -373h-240c0 140 -28 230 -83 272c-55 41 -130 62 -226 62c-98 0 -174 -18 -228 -53c-55 -36 -82 -82 -82 -140c0 -74 34 -126 103 -157c68 -30 163 -59 283 -88
c174 -40 297 -84 367 -131c71 -47 107 -127 107 -242c0 -110 -40 -204 -118 -280c-79 -77 -220 -115 -426 -115zM459 -322l97 264h148l-154 -264h-91z" />
    <glyph glyph-name="uni1E60" unicode="&#x1e60;" horiz-adv-x="1253" 
d="M610 -9c-210 0 -354 41 -432 123c-78 81 -117 209 -117 383h241c0 -144 26 -236 79 -278c53 -43 129 -64 228 -64c97 0 173 18 227 53s82 83 82 146c0 74 -34 127 -102 156c-68 30 -163 58 -285 86c-170 41 -290 86 -362 136c-71 50 -107 132 -107 245
c0 106 40 196 120 271s222 113 425 113c206 0 349 -42 427 -125c79 -83 119 -208 119 -373h-240c0 140 -28 230 -83 272c-55 41 -130 62 -226 62c-98 0 -174 -18 -228 -53c-55 -36 -82 -82 -82 -140c0 -74 34 -126 103 -157c68 -30 163 -59 283 -88
c174 -40 297 -84 367 -131c71 -47 107 -127 107 -242c0 -110 -40 -204 -118 -280c-79 -77 -220 -115 -426 -115zM615 1408c-44 0 -79 35 -79 80c0 43 35 78 79 78c43 0 79 -35 79 -78c0 -44 -35 -80 -79 -80z" />
    <glyph glyph-name="uni1E62" unicode="&#x1e62;" horiz-adv-x="1253" 
d="M610 -9c-210 0 -354 41 -432 123c-78 81 -117 209 -117 383h241c0 -144 26 -236 79 -278c53 -43 129 -64 228 -64c97 0 173 18 227 53s82 83 82 146c0 74 -34 127 -102 156c-68 30 -163 58 -285 86c-170 41 -290 86 -362 136c-71 50 -107 132 -107 245
c0 106 40 196 120 271s222 113 425 113c206 0 349 -42 427 -125c79 -83 119 -208 119 -373h-240c0 140 -28 230 -83 272c-55 41 -130 62 -226 62c-98 0 -174 -18 -228 -53c-55 -36 -82 -82 -82 -140c0 -74 34 -126 103 -157c68 -30 163 -59 283 -88
c174 -40 297 -84 367 -131c71 -47 107 -127 107 -242c0 -110 -40 -204 -118 -280c-79 -77 -220 -115 -426 -115zM615 -250c-44 0 -79 35 -79 79s35 79 79 79c43 0 79 -35 79 -79s-35 -79 -79 -79z" />
    <glyph glyph-name="uni1E68" unicode="&#x1e68;" horiz-adv-x="1253" 
d="M610 -9c-210 0 -354 41 -432 123c-78 81 -117 209 -117 383h241c0 -144 26 -236 79 -278c53 -43 129 -64 228 -64c97 0 173 18 227 53s82 83 82 146c0 74 -34 127 -102 156c-68 30 -163 58 -285 86c-170 41 -290 86 -362 136c-71 50 -107 132 -107 245
c0 106 40 196 120 271s222 113 425 113c206 0 349 -42 427 -125c79 -83 119 -208 119 -373h-240c0 140 -28 230 -83 272c-55 41 -130 62 -226 62c-98 0 -174 -18 -228 -53c-55 -36 -82 -82 -82 -140c0 -74 34 -126 103 -157c68 -30 163 -59 283 -88
c174 -40 297 -84 367 -131c71 -47 107 -127 107 -242c0 -110 -40 -204 -118 -280c-79 -77 -220 -115 -426 -115zM615 -250c-44 0 -79 35 -79 79s35 79 79 79c43 0 79 -35 79 -79s-35 -79 -79 -79zM615 1408c-44 0 -79 35 -79 80c0 43 35 78 79 78c43 0 79 -35 79 -78
c0 -44 -35 -80 -79 -80z" />
    <glyph glyph-name="uni1E9E" unicode="&#x1e9e;" horiz-adv-x="1193" 
d="M83 0v1350h958v-156l-374 -434c314 -31 426 -140 426 -370c0 -272 -119 -401 -632 -390v161c296 -12 389 52 389 234c0 184 -118 250 -390 272v145l309 369h-448v-1181h-238z" />
    <glyph glyph-name="uni018F" unicode="&#x18f;" horiz-adv-x="1218" 
d="M600 -10c-195 0 -332 54 -413 164s-121 282 -121 517c0 29 1 55 4 77h836c-6 163 -31 278 -77 344c-52 75 -130 112 -234 112c-149 0 -276 -94 -290 -266l-213 68c27 242 241 355 503 355c195 0 334 -56 417 -168s125 -284 125 -516c0 -240 -42 -415 -127 -524
s-222 -163 -410 -163zM906 599h-605c2 -177 29 -297 81 -358c55 -64 127 -96 217 -96c96 0 171 33 226 101c48 59 76 177 81 353z" />
    <glyph glyph-name="T" unicode="T" horiz-adv-x="1202" 
d="M479 0v1185h-411v165h1060v-165h-410v-1185h-239z" />
    <glyph glyph-name="Tbar" unicode="&#x166;" horiz-adv-x="1202" 
d="M148 742v143h331v300h-411v165h1060v-165h-410v-300h334v-143h-334v-742h-239v742h-331z" />
    <glyph glyph-name="Tcaron" unicode="&#x164;" horiz-adv-x="1202" 
d="M479 0v1185h-411v165h1060v-165h-410v-1185h-239zM523 1396l-206 185h142l142 -132l140 132h143l-207 -185h-154z" />
    <glyph glyph-name="uni0162" unicode="&#x162;" horiz-adv-x="1202" 
d="M479 0v1185h-411v165h1060v-165h-410v-1185h-67l-30 -86c30 19 77 33 129 33c77 0 132 -34 132 -103c0 -104 -131 -156 -261 -156c-53 0 -108 7 -156 18l34 101c30 -8 74 -15 123 -15c77 0 117 19 117 55c0 25 -21 35 -53 35c-29 0 -62 -11 -84 -24l-87 12l39 130h-75z
" />
    <glyph glyph-name="uni021A" unicode="&#x21a;" horiz-adv-x="1202" 
d="M479 0v1185h-411v165h1060v-165h-410v-1185h-239zM474 -321l96 263h148l-153 -263h-91z" />
    <glyph glyph-name="uni1E6C" unicode="&#x1e6c;" horiz-adv-x="1202" 
d="M479 0v1185h-411v165h1060v-165h-410v-1185h-239zM598 -250c-44 0 -79 35 -79 79s35 79 79 79c43 0 79 -35 79 -79s-35 -79 -79 -79z" />
    <glyph glyph-name="uni1E6E" unicode="&#x1e6e;" horiz-adv-x="1202" 
d="M479 0v1185h-411v165h1060v-165h-410v-1185h-239zM291 -219v90h614v-90h-614z" />
    <glyph glyph-name="U" unicode="U" horiz-adv-x="1319" 
d="M645 -9c-181 0 -319 34 -411 101c-93 66 -139 179 -139 337v921h239v-894c0 -108 26 -185 77 -231s129 -69 234 -69s183 23 235 69c51 46 76 123 76 231v894h240v-921c0 -158 -47 -271 -139 -337c-93 -67 -230 -101 -412 -101z" />
    <glyph glyph-name="Uacute" unicode="&#xda;" horiz-adv-x="1319" 
d="M645 -9c-181 0 -319 34 -411 101c-93 66 -139 179 -139 337v921h239v-894c0 -108 26 -185 77 -231s129 -69 234 -69s183 23 235 69c51 46 76 123 76 231v894h240v-921c0 -158 -47 -271 -139 -337c-93 -67 -230 -101 -412 -101zM492 1392l149 178h168l-201 -178h-116z" />
    <glyph glyph-name="Ubreve" unicode="&#x16c;" horiz-adv-x="1319" 
d="M645 -9c-181 0 -319 34 -411 101c-93 66 -139 179 -139 337v921h239v-894c0 -108 26 -185 77 -231s129 -69 234 -69s183 23 235 69c51 46 76 123 76 231v894h240v-921c0 -158 -47 -271 -139 -337c-93 -67 -230 -101 -412 -101zM650 1398c-131 0 -212 78 -212 169h116
c0 -51 30 -86 96 -86c73 0 97 36 97 86h116c0 -91 -76 -169 -213 -169z" />
    <glyph glyph-name="uni01D3" unicode="&#x1d3;" horiz-adv-x="1319" 
d="M645 -9c-181 0 -319 34 -411 101c-93 66 -139 179 -139 337v921h239v-894c0 -108 26 -185 77 -231s129 -69 234 -69s183 23 235 69c51 46 76 123 76 231v894h240v-921c0 -158 -47 -271 -139 -337c-93 -67 -230 -101 -412 -101zM573 1396l-206 185h142l142 -132l140 132
h143l-206 -185h-155z" />
    <glyph glyph-name="Ucircumflex" unicode="&#xdb;" horiz-adv-x="1319" 
d="M645 -9c-181 0 -319 34 -411 101c-93 66 -139 179 -139 337v921h239v-894c0 -108 26 -185 77 -231s129 -69 234 -69s183 23 235 69c51 46 76 123 76 231v894h240v-921c0 -158 -47 -271 -139 -337c-93 -67 -230 -101 -412 -101zM367 1401l206 185h155l206 -185h-143
l-140 132l-142 -132h-142z" />
    <glyph glyph-name="uni0214" unicode="&#x214;" horiz-adv-x="1319" 
d="M645 -9c-181 0 -319 34 -411 101c-93 66 -139 179 -139 337v921h239v-894c0 -108 26 -185 77 -231s129 -69 234 -69s183 23 235 69c51 46 76 123 76 231v894h240v-921c0 -158 -47 -271 -139 -337c-93 -67 -230 -101 -412 -101zM566 1412l-201 177h167l150 -177h-116z
M820 1412l-201 177h167l150 -177h-116z" />
    <glyph glyph-name="Udieresis" unicode="&#xdc;" horiz-adv-x="1319" 
d="M645 -9c-181 0 -319 34 -411 101c-93 66 -139 179 -139 337v921h239v-894c0 -108 26 -185 77 -231s129 -69 234 -69s183 23 235 69c51 46 76 123 76 231v894h240v-921c0 -158 -47 -271 -139 -337c-93 -67 -230 -101 -412 -101zM483 1416c-42 0 -77 34 -77 77
c0 42 35 77 77 77c43 0 77 -35 77 -77c0 -43 -34 -77 -77 -77zM815 1416c-43 0 -77 34 -77 77c0 42 34 77 77 77s77 -35 77 -77c0 -43 -34 -77 -77 -77z" />
    <glyph glyph-name="uni01D7" unicode="&#x1d7;" horiz-adv-x="1319" 
d="M645 -9c-181 0 -319 34 -411 101c-93 66 -139 179 -139 337v921h239v-894c0 -108 26 -185 77 -231s129 -69 234 -69s183 23 235 69c51 46 76 123 76 231v894h240v-921c0 -158 -47 -271 -139 -337c-93 -67 -230 -101 -412 -101zM505 1673l149 177h167l-201 -177h-115z
M483 1416c-42 0 -77 34 -77 77c0 42 35 77 77 77c43 0 77 -35 77 -77c0 -43 -34 -77 -77 -77zM815 1416c-43 0 -77 34 -77 77c0 42 34 77 77 77s77 -35 77 -77c0 -43 -34 -77 -77 -77z" />
    <glyph glyph-name="uni01D9" unicode="&#x1d9;" horiz-adv-x="1319" 
d="M645 -9c-181 0 -319 34 -411 101c-93 66 -139 179 -139 337v921h239v-894c0 -108 26 -185 77 -231s129 -69 234 -69s183 23 235 69c51 46 76 123 76 231v894h240v-921c0 -158 -47 -271 -139 -337c-93 -67 -230 -101 -412 -101zM571 1665l-206 185h142l142 -132l140 132
h143l-207 -185h-154zM483 1416c-42 0 -77 34 -77 77c0 42 35 77 77 77c43 0 77 -35 77 -77c0 -43 -34 -77 -77 -77zM815 1416c-43 0 -77 34 -77 77c0 42 34 77 77 77s77 -35 77 -77c0 -43 -34 -77 -77 -77z" />
    <glyph glyph-name="uni01DB" unicode="&#x1db;" horiz-adv-x="1319" 
d="M645 -9c-181 0 -319 34 -411 101c-93 66 -139 179 -139 337v921h239v-894c0 -108 26 -185 77 -231s129 -69 234 -69s183 23 235 69c51 46 76 123 76 231v894h240v-921c0 -158 -47 -271 -139 -337c-93 -67 -230 -101 -412 -101zM641 1666l-201 178h167l150 -178h-116z
M483 1416c-42 0 -77 34 -77 77c0 42 35 77 77 77c43 0 77 -35 77 -77c0 -43 -34 -77 -77 -77zM815 1416c-43 0 -77 34 -77 77c0 42 34 77 77 77s77 -35 77 -77c0 -43 -34 -77 -77 -77z" />
    <glyph glyph-name="uni01D5" unicode="&#x1d5;" horiz-adv-x="1319" 
d="M645 -9c-181 0 -319 34 -411 101c-93 66 -139 179 -139 337v921h239v-894c0 -108 26 -185 77 -231s129 -69 234 -69s183 23 235 69c51 46 76 123 76 231v894h240v-921c0 -158 -47 -271 -139 -337c-93 -67 -230 -101 -412 -101zM338 1683v91h613v-91h-613zM483 1416
c-42 0 -77 34 -77 77c0 42 35 77 77 77c43 0 77 -35 77 -77c0 -43 -34 -77 -77 -77zM815 1416c-43 0 -77 34 -77 77c0 42 34 77 77 77s77 -35 77 -77c0 -43 -34 -77 -77 -77z" />
    <glyph glyph-name="uni1EE4" unicode="&#x1ee4;" horiz-adv-x="1319" 
d="M645 -9c-181 0 -319 34 -411 101c-93 66 -139 179 -139 337v921h239v-894c0 -108 26 -185 77 -231s129 -69 234 -69s183 23 235 69c51 46 76 123 76 231v894h240v-921c0 -158 -47 -271 -139 -337c-93 -67 -230 -101 -412 -101zM651 -284c-44 0 -79 35 -79 80
c0 43 35 78 79 78c43 0 79 -35 79 -78c0 -44 -35 -80 -79 -80z" />
    <glyph glyph-name="Ugrave" unicode="&#xd9;" horiz-adv-x="1319" 
d="M645 -9c-181 0 -319 34 -411 101c-93 66 -139 179 -139 337v921h239v-894c0 -108 26 -185 77 -231s129 -69 234 -69s183 23 235 69c51 46 76 123 76 231v894h240v-921c0 -158 -47 -271 -139 -337c-93 -67 -230 -101 -412 -101zM694 1402l-202 178h168l149 -178h-115z" />
    <glyph glyph-name="uni1EE6" unicode="&#x1ee6;" horiz-adv-x="1319" 
d="M645 -9c-181 0 -319 34 -411 101c-93 66 -139 179 -139 337v921h239v-894c0 -108 26 -185 77 -231s129 -69 234 -69s183 23 235 69c51 46 76 123 76 231v894h240v-921c0 -158 -47 -271 -139 -337c-93 -67 -230 -101 -412 -101zM526 1678c250 0 370 -19 370 -109
c0 -81 -121 -106 -207 -106v-59h-88v120c101 0 178 9 178 38c0 36 -75 40 -253 40v76z" />
    <glyph glyph-name="Uhorn" unicode="&#x1af;" horiz-adv-x="1319" 
d="M645 -9c-181 0 -319 34 -411 101c-93 66 -139 179 -139 337v921h239v-894c0 -108 26 -185 77 -231s129 -69 234 -69s183 23 235 69c51 46 76 123 76 231v894h240v-115c164 0 219 44 219 159h139c0 -164 -124 -240 -358 -240v-725c0 -158 -47 -271 -139 -337
c-93 -67 -230 -101 -412 -101z" />
    <glyph glyph-name="uni1EE8" unicode="&#x1ee8;" horiz-adv-x="1319" 
d="M645 -9c-181 0 -319 34 -411 101c-93 66 -139 179 -139 337v921h239v-894c0 -108 26 -185 77 -231s129 -69 234 -69s183 23 235 69c51 46 76 123 76 231v894h240v-115c164 0 219 44 219 159h139c0 -164 -124 -240 -358 -240v-725c0 -158 -47 -271 -139 -337
c-93 -67 -230 -101 -412 -101zM492 1392l149 178h168l-201 -178h-116z" />
    <glyph glyph-name="uni1EF0" unicode="&#x1ef0;" horiz-adv-x="1319" 
d="M645 -9c-181 0 -319 34 -411 101c-93 66 -139 179 -139 337v921h239v-894c0 -108 26 -185 77 -231s129 -69 234 -69s183 23 235 69c51 46 76 123 76 231v894h240v-115c164 0 219 44 219 159h139c0 -164 -124 -240 -358 -240v-725c0 -158 -47 -271 -139 -337
c-93 -67 -230 -101 -412 -101zM651 -284c-44 0 -79 35 -79 80c0 43 35 78 79 78c43 0 79 -35 79 -78c0 -44 -35 -80 -79 -80z" />
    <glyph glyph-name="uni1EEA" unicode="&#x1eea;" horiz-adv-x="1319" 
d="M645 -9c-181 0 -319 34 -411 101c-93 66 -139 179 -139 337v921h239v-894c0 -108 26 -185 77 -231s129 -69 234 -69s183 23 235 69c51 46 76 123 76 231v894h240v-115c164 0 219 44 219 159h139c0 -164 -124 -240 -358 -240v-725c0 -158 -47 -271 -139 -337
c-93 -67 -230 -101 -412 -101zM694 1402l-202 178h168l149 -178h-115z" />
    <glyph glyph-name="uni1EEC" unicode="&#x1eec;" horiz-adv-x="1319" 
d="M645 -9c-181 0 -319 34 -411 101c-93 66 -139 179 -139 337v921h239v-894c0 -108 26 -185 77 -231s129 -69 234 -69s183 23 235 69c51 46 76 123 76 231v894h240v-115c164 0 219 44 219 159h139c0 -164 -124 -240 -358 -240v-725c0 -158 -47 -271 -139 -337
c-93 -67 -230 -101 -412 -101zM526 1678c250 0 370 -19 370 -109c0 -81 -121 -106 -207 -106v-59h-88v120c101 0 178 9 178 38c0 36 -75 40 -253 40v76z" />
    <glyph glyph-name="uni1EEE" unicode="&#x1eee;" horiz-adv-x="1319" 
d="M645 -9c-181 0 -319 34 -411 101c-93 66 -139 179 -139 337v921h239v-894c0 -108 26 -185 77 -231s129 -69 234 -69s183 23 235 69c51 46 76 123 76 231v894h240v-115c164 0 219 44 219 159h139c0 -164 -124 -240 -358 -240v-725c0 -158 -47 -271 -139 -337
c-93 -67 -230 -101 -412 -101zM770 1426c-111 0 -143 74 -215 74c-55 0 -75 -39 -76 -63h-119c2 50 32 158 182 158c105 0 130 -73 212 -73c50 0 73 39 74 63h118c-1 -46 -28 -159 -176 -159z" />
    <glyph glyph-name="Uhungarumlaut" unicode="&#x170;" horiz-adv-x="1319" 
d="M645 -9c-181 0 -319 34 -411 101c-93 66 -139 179 -139 337v921h239v-894c0 -108 26 -185 77 -231s129 -69 234 -69s183 23 235 69c51 46 76 123 76 231v894h240v-921c0 -158 -47 -271 -139 -337c-93 -67 -230 -101 -412 -101zM585 1422l145 160h152l-185 -160h-112z
M420 1422l143 160h147l-178 -160h-112z" />
    <glyph glyph-name="uni0216" unicode="&#x216;" horiz-adv-x="1319" 
d="M645 -9c-181 0 -319 34 -411 101c-93 66 -139 179 -139 337v921h239v-894c0 -108 26 -185 77 -231s129 -69 234 -69s183 23 235 69c51 46 76 123 76 231v894h240v-921c0 -158 -47 -271 -139 -337c-93 -67 -230 -101 -412 -101zM651 1582c131 0 212 -77 212 -169h-116
c0 52 -30 87 -96 87c-73 0 -97 -36 -97 -87h-116c0 92 76 169 213 169z" />
    <glyph glyph-name="Umacron" unicode="&#x16a;" horiz-adv-x="1319" 
d="M645 -9c-181 0 -319 34 -411 101c-93 66 -139 179 -139 337v921h239v-894c0 -108 26 -185 77 -231s129 -69 234 -69s183 23 235 69c51 46 76 123 76 231v894h240v-921c0 -158 -47 -271 -139 -337c-93 -67 -230 -101 -412 -101zM344 1447v91h613v-91h-613z" />
    <glyph glyph-name="uni1E7A" unicode="&#x1e7a;" horiz-adv-x="1319" 
d="M645 -9c-181 0 -319 34 -411 101c-93 66 -139 179 -139 337v921h239v-894c0 -108 26 -185 77 -231s129 -69 234 -69s183 23 235 69c51 46 76 123 76 231v894h240v-921c0 -158 -47 -271 -139 -337c-93 -67 -230 -101 -412 -101zM344 1447v91h613v-91h-613zM483 1603
c-42 0 -77 35 -77 77c0 43 35 77 77 77c43 0 77 -34 77 -77c0 -42 -34 -77 -77 -77zM815 1603c-43 0 -77 35 -77 77c0 43 34 77 77 77s77 -34 77 -77c0 -42 -34 -77 -77 -77z" />
    <glyph glyph-name="Uogonek" unicode="&#x172;" horiz-adv-x="1319" 
d="M645 -9h-3c-21 -35 -54 -105 -54 -148c0 -37 23 -59 76 -59c49 0 113 15 135 25l3 -120c-19 -8 -97 -24 -173 -24c-92 0 -178 32 -178 133c0 82 48 162 76 199c-124 11 -222 43 -293 95c-93 66 -139 179 -139 337v921h239v-894c0 -108 26 -185 77 -231s129 -69 234 -69
s183 23 235 69c51 46 76 123 76 231v894h240v-921c0 -158 -47 -271 -139 -337c-93 -67 -230 -101 -412 -101z" />
    <glyph glyph-name="Uring" unicode="&#x16e;" horiz-adv-x="1319" 
d="M645 -9c-181 0 -319 34 -411 101c-93 66 -139 179 -139 337v921h239v-894c0 -108 26 -185 77 -231s129 -69 234 -69s183 23 235 69c51 46 76 123 76 231v894h240v-921c0 -158 -47 -271 -139 -337c-93 -67 -230 -101 -412 -101zM651 1388c-76 0 -133 59 -133 135
c0 75 56 134 133 134c76 0 133 -59 133 -134c0 -76 -57 -135 -133 -135zM651 1476c24 0 44 20 44 47c0 26 -20 45 -44 45c-25 0 -45 -19 -45 -45c0 -27 20 -47 45 -47z" />
    <glyph glyph-name="Utilde" unicode="&#x168;" horiz-adv-x="1319" 
d="M645 -9c-181 0 -319 34 -411 101c-93 66 -139 179 -139 337v921h239v-894c0 -108 26 -185 77 -231s129 -69 234 -69s183 23 235 69c51 46 76 123 76 231v894h240v-921c0 -158 -47 -271 -139 -337c-93 -67 -230 -101 -412 -101zM770 1426c-111 0 -143 74 -215 74
c-55 0 -75 -39 -76 -63h-119c2 50 32 158 182 158c105 0 130 -73 212 -73c50 0 73 39 74 63h118c-1 -46 -28 -159 -176 -159z" />
    <glyph glyph-name="uni1E78" unicode="&#x1e78;" horiz-adv-x="1319" 
d="M645 -9c-181 0 -319 34 -411 101c-93 66 -139 179 -139 337v921h239v-894c0 -108 26 -185 77 -231s129 -69 234 -69s183 23 235 69c51 46 76 123 76 231v894h240v-921c0 -158 -47 -271 -139 -337c-93 -67 -230 -101 -412 -101zM770 1426c-111 0 -143 74 -215 74
c-55 0 -75 -39 -76 -63h-119c2 50 32 158 182 158c105 0 130 -73 212 -73c50 0 73 39 74 63h118c-1 -46 -28 -159 -176 -159zM492 1634l149 177h168l-201 -177h-116z" />
    <glyph glyph-name="V" unicode="V" horiz-adv-x="1278" 
d="M445 0l-393 1350h245l332 -1205l332 1205h244l-394 -1350h-366z" />
    <glyph glyph-name="V.ss01" horiz-adv-x="1279" 
d="M443 0l-390 932v418h241v-377l335 -832l335 832v377h241v-418l-391 -932h-371z" />
    <glyph glyph-name="W" unicode="W" horiz-adv-x="1879" 
d="M313 0l-259 1350h259l197 -1169l258 1169h316l258 -1169l203 1169h258l-263 -1350h-367l-247 1186l-247 -1186h-366z" />
    <glyph glyph-name="Wacute" unicode="&#x1e82;" horiz-adv-x="1879" 
d="M313 0l-259 1350h259l197 -1169l258 1169h316l258 -1169l203 1169h258l-263 -1350h-367l-247 1186l-247 -1186h-366zM781 1392l149 178h168l-201 -178h-116z" />
    <glyph glyph-name="Wcircumflex" unicode="&#x174;" horiz-adv-x="1879" 
d="M313 0l-259 1350h259l197 -1169l258 1169h316l258 -1169l203 1169h258l-263 -1350h-367l-247 1186l-247 -1186h-366zM656 1401l206 185h154l207 -185h-143l-140 132l-142 -132h-142z" />
    <glyph glyph-name="Wdieresis" unicode="&#x1e84;" horiz-adv-x="1879" 
d="M313 0l-259 1350h259l197 -1169l258 1169h316l258 -1169l203 1169h258l-263 -1350h-367l-247 1186l-247 -1186h-366zM772 1416c-43 0 -77 34 -77 77c0 42 34 77 77 77s77 -35 77 -77c0 -43 -34 -77 -77 -77zM1104 1416c-43 0 -77 34 -77 77c0 42 34 77 77 77
c42 0 77 -35 77 -77c0 -43 -35 -77 -77 -77z" />
    <glyph glyph-name="Wgrave" unicode="&#x1e80;" horiz-adv-x="1879" 
d="M313 0l-259 1350h259l197 -1169l258 1169h316l258 -1169l203 1169h258l-263 -1350h-367l-247 1186l-247 -1186h-366zM982 1402l-201 178h167l150 -178h-116z" />
    <glyph glyph-name="X" unicode="X" horiz-adv-x="1278" 
d="M28 0l417 668l-404 682h277l308 -581l310 581h276l-405 -682l418 -668h-276l-323 567l-321 -567h-277z" />
    <glyph glyph-name="Y" unicode="Y" horiz-adv-x="1301" 
d="M524 0v486l-488 864h263l345 -662l343 662h263l-487 -864v-486h-239z" />
    <glyph glyph-name="Y.ss01" horiz-adv-x="1307" 
d="M511 476l-476 874h257l351 -680l350 680h257l-475 -874h-12v-476h-239v476h-13z" />
    <glyph glyph-name="Yacute" unicode="&#xdd;" horiz-adv-x="1301" 
d="M524 0v486l-488 864h263l345 -662l343 662h263l-487 -864v-486h-239zM486 1392l149 178h167l-201 -178h-115z" />
    <glyph glyph-name="Ycircumflex" unicode="&#x176;" horiz-adv-x="1301" 
d="M524 0v486l-488 864h263l345 -662l343 662h263l-487 -864v-486h-239zM361 1401l206 185h154l207 -185h-143l-141 132l-141 -132h-142z" />
    <glyph glyph-name="Ydieresis" unicode="&#x178;" horiz-adv-x="1301" 
d="M524 0v486l-488 864h263l345 -662l343 662h263l-487 -864v-486h-239zM477 1416c-43 0 -77 34 -77 77c0 42 34 77 77 77c42 0 77 -35 77 -77c0 -43 -35 -77 -77 -77zM809 1416c-43 0 -78 34 -78 77c0 42 35 77 78 77c42 0 77 -35 77 -77c0 -43 -35 -77 -77 -77z" />
    <glyph glyph-name="uni1E8E" unicode="&#x1e8e;" horiz-adv-x="1301" 
d="M524 0v486l-488 864h263l345 -662l343 662h263l-487 -864v-486h-239zM645 1408c-44 0 -80 35 -80 80c0 43 35 78 80 78c43 0 78 -35 78 -78c0 -44 -35 -80 -78 -80z" />
    <glyph glyph-name="uni1EF4" unicode="&#x1ef4;" horiz-adv-x="1301" 
d="M524 0v486l-488 864h263l345 -662l343 662h263l-487 -864v-486h-239zM655 -284c-44 0 -80 35 -80 80c0 43 35 78 80 78c43 0 78 -35 78 -78c0 -44 -35 -80 -78 -80z" />
    <glyph glyph-name="Ygrave" unicode="&#x1ef2;" horiz-adv-x="1301" 
d="M524 0v486l-488 864h263l345 -662l343 662h263l-487 -864v-486h-239zM687 1402l-201 178h167l150 -178h-116z" />
    <glyph glyph-name="uni1EF6" unicode="&#x1ef6;" horiz-adv-x="1301" 
d="M524 0v486l-488 864h263l345 -662l343 662h263l-487 -864v-486h-239zM519 1678c251 0 370 -19 370 -109c0 -81 -121 -106 -207 -106v-59h-88v120c102 0 178 9 178 38c0 36 -74 40 -253 40v76z" />
    <glyph glyph-name="uni0232" unicode="&#x232;" horiz-adv-x="1301" 
d="M524 0v486l-488 864h263l345 -662l343 662h263l-487 -864v-486h-239zM337 1447v91h614v-91h-614z" />
    <glyph glyph-name="uni1EF8" unicode="&#x1ef8;" horiz-adv-x="1301" 
d="M524 0v486l-488 864h263l345 -662l343 662h263l-487 -864v-486h-239zM763 1426c-110 0 -143 74 -214 74c-55 0 -75 -39 -77 -63h-118c2 50 31 158 182 158c104 0 130 -73 212 -73c49 0 72 39 73 63h119c-2 -46 -28 -159 -177 -159z" />
    <glyph glyph-name="Z" unicode="Z" horiz-adv-x="1121" 
d="M66 0v172l664 1014h-653v164h917v-166l-664 -1019h691v-165h-955z" />
    <glyph glyph-name="Zacute" unicode="&#x179;" horiz-adv-x="1121" 
d="M66 0v172l664 1014h-653v164h917v-166l-664 -1019h691v-165h-955zM402 1392l149 178h168l-201 -178h-116z" />
    <glyph glyph-name="Zcaron" unicode="&#x17d;" horiz-adv-x="1121" 
d="M66 0v172l664 1014h-653v164h917v-166l-664 -1019h691v-165h-955zM483 1396l-206 185h142l142 -132l140 132h143l-206 -185h-155z" />
    <glyph glyph-name="Zdotaccent" unicode="&#x17b;" horiz-adv-x="1121" 
d="M66 0v172l664 1014h-653v164h917v-166l-664 -1019h691v-165h-955zM561 1408c-44 0 -79 35 -79 80c0 43 35 78 79 78c43 0 79 -35 79 -78c0 -44 -35 -80 -79 -80z" />
    <glyph glyph-name="uni1E92" unicode="&#x1e92;" horiz-adv-x="1121" 
d="M66 0v172l664 1014h-653v164h917v-166l-664 -1019h691v-165h-955zM561 -250c-44 0 -79 35 -79 79s35 79 79 79c43 0 79 -35 79 -79s-35 -79 -79 -79z" />
    <glyph glyph-name="a" unicode="a" horiz-adv-x="1221" 
d="M903 0l-20 103c-14 -13 -30 -25 -48 -37c-81 -52 -192 -78 -332 -78c-137 0 -244 29 -320 86s-114 149 -114 277c0 123 39 211 117 266c77 55 202 83 373 83h311v49c0 97 -23 169 -69 216s-113 70 -201 70c-152 0 -266 -85 -280 -245l-231 63c26 227 218 343 500 343
c196 0 332 -44 407 -133c75 -88 112 -213 112 -375v-688h-205zM870 299v258h-263c-110 0 -187 -16 -231 -49c-43 -33 -65 -84 -65 -153c0 -67 20 -120 60 -158s103 -57 190 -57c89 0 163 17 222 50c58 34 87 70 87 109z" />
    <glyph glyph-name="a.ss01" horiz-adv-x="1223" 
d="M890 0l-12 123c-13 -11 -27 -22 -43 -33c-93 -65 -206 -98 -339 -98c-147 0 -256 51 -327 153c-72 102 -107 252 -107 450c0 199 35 348 107 449c71 101 180 152 327 152c133 0 246 -33 339 -98c13 -9 25 -18 36 -27v114h238v-1185h-219zM871 393v403
c-6 58 -35 111 -86 157c-58 52 -127 78 -208 78c-86 0 -153 -30 -202 -91s-74 -176 -74 -346s25 -286 74 -347s116 -91 202 -91c81 0 150 26 208 78c51 46 80 99 86 159z" />
    <glyph glyph-name="aacute" unicode="&#xe1;" horiz-adv-x="1221" 
d="M903 0l-20 103c-14 -13 -30 -25 -48 -37c-81 -52 -192 -78 -332 -78c-137 0 -244 29 -320 86s-114 149 -114 277c0 123 39 211 117 266c77 55 202 83 373 83h311v49c0 97 -23 169 -69 216s-113 70 -201 70c-152 0 -266 -85 -280 -245l-231 63c26 227 218 343 500 343
c196 0 332 -44 407 -133c75 -88 112 -213 112 -375v-688h-205zM870 299v258h-263c-110 0 -187 -16 -231 -49c-43 -33 -65 -84 -65 -153c0 -67 20 -120 60 -158s103 -57 190 -57c89 0 163 17 222 50c58 34 87 70 87 109zM434 1227l149 178h168l-201 -178h-116z" />
    <glyph glyph-name="abreve" unicode="&#x103;" horiz-adv-x="1221" 
d="M903 0l-20 103c-14 -13 -30 -25 -48 -37c-81 -52 -192 -78 -332 -78c-137 0 -244 29 -320 86s-114 149 -114 277c0 123 39 211 117 266c77 55 202 83 373 83h311v49c0 97 -23 169 -69 216s-113 70 -201 70c-152 0 -266 -85 -280 -245l-231 63c26 227 218 343 500 343
c196 0 332 -44 407 -133c75 -88 112 -213 112 -375v-688h-205zM870 299v258h-263c-110 0 -187 -16 -231 -49c-43 -33 -65 -84 -65 -153c0 -67 20 -120 60 -158s103 -57 190 -57c89 0 163 17 222 50c58 34 87 70 87 109zM592 1233c-131 0 -212 78 -212 169h116
c0 -51 30 -86 96 -86c73 0 97 36 97 86h116c0 -91 -76 -169 -213 -169z" />
    <glyph glyph-name="uni1EAF" unicode="&#x1eaf;" horiz-adv-x="1221" 
d="M903 0l-20 103c-14 -13 -30 -25 -48 -37c-81 -52 -192 -78 -332 -78c-137 0 -244 29 -320 86s-114 149 -114 277c0 123 39 211 117 266c77 55 202 83 373 83h311v49c0 97 -23 169 -69 216s-113 70 -201 70c-152 0 -266 -85 -280 -245l-231 63c26 227 218 343 500 343
c196 0 332 -44 407 -133c75 -88 112 -213 112 -375v-688h-205zM870 299v258h-263c-110 0 -187 -16 -231 -49c-43 -33 -65 -84 -65 -153c0 -67 20 -120 60 -158s103 -57 190 -57c89 0 163 17 222 50c58 34 87 70 87 109zM592 1233c-131 0 -212 78 -212 169h116
c0 -51 30 -86 96 -86c73 0 97 36 97 86h116c0 -91 -76 -169 -213 -169zM434 1444l149 178h168l-201 -178h-116z" />
    <glyph glyph-name="uni1EB7" unicode="&#x1eb7;" horiz-adv-x="1221" 
d="M903 0l-20 103c-14 -13 -30 -25 -48 -37c-81 -52 -192 -78 -332 -78c-137 0 -244 29 -320 86s-114 149 -114 277c0 123 39 211 117 266c77 55 202 83 373 83h311v49c0 97 -23 169 -69 216s-113 70 -201 70c-152 0 -266 -85 -280 -245l-231 63c26 227 218 343 500 343
c196 0 332 -44 407 -133c75 -88 112 -213 112 -375v-688h-205zM870 299v258h-263c-110 0 -187 -16 -231 -49c-43 -33 -65 -84 -65 -153c0 -67 20 -120 60 -158s103 -57 190 -57c89 0 163 17 222 50c58 34 87 70 87 109zM592 1233c-131 0 -212 78 -212 169h116
c0 -51 30 -86 96 -86c73 0 97 36 97 86h116c0 -91 -76 -169 -213 -169zM606 -284c-44 0 -80 35 -80 80c0 43 35 78 80 78c43 0 78 -35 78 -78c0 -44 -35 -80 -78 -80z" />
    <glyph glyph-name="uni1EB1" unicode="&#x1eb1;" horiz-adv-x="1221" 
d="M903 0l-20 103c-14 -13 -30 -25 -48 -37c-81 -52 -192 -78 -332 -78c-137 0 -244 29 -320 86s-114 149 -114 277c0 123 39 211 117 266c77 55 202 83 373 83h311v49c0 97 -23 169 -69 216s-113 70 -201 70c-152 0 -266 -85 -280 -245l-231 63c26 227 218 343 500 343
c196 0 332 -44 407 -133c75 -88 112 -213 112 -375v-688h-205zM870 299v258h-263c-110 0 -187 -16 -231 -49c-43 -33 -65 -84 -65 -153c0 -67 20 -120 60 -158s103 -57 190 -57c89 0 163 17 222 50c58 34 87 70 87 109zM592 1233c-131 0 -212 78 -212 169h116
c0 -51 30 -86 96 -86c73 0 97 36 97 86h116c0 -91 -76 -169 -213 -169zM635 1454l-201 178h167l150 -178h-116z" />
    <glyph glyph-name="uni1EB3" unicode="&#x1eb3;" horiz-adv-x="1221" 
d="M903 0l-20 103c-14 -13 -30 -25 -48 -37c-81 -52 -192 -78 -332 -78c-137 0 -244 29 -320 86s-114 149 -114 277c0 123 39 211 117 266c77 55 202 83 373 83h311v49c0 97 -23 169 -69 216s-113 70 -201 70c-152 0 -266 -85 -280 -245l-231 63c26 227 218 343 500 343
c196 0 332 -44 407 -133c75 -88 112 -213 112 -375v-688h-205zM870 299v258h-263c-110 0 -187 -16 -231 -49c-43 -33 -65 -84 -65 -153c0 -67 20 -120 60 -158s103 -57 190 -57c89 0 163 17 222 50c58 34 87 70 87 109zM468 1730c250 0 369 -19 369 -108
c0 -82 -121 -107 -207 -107v-59h-88v120c102 0 178 9 178 39c0 35 -74 39 -252 39v76zM592 1233c-131 0 -212 78 -212 169h116c0 -51 30 -86 96 -86c73 0 97 36 97 86h116c0 -91 -76 -169 -213 -169z" />
    <glyph glyph-name="uni1EB5" unicode="&#x1eb5;" horiz-adv-x="1221" 
d="M903 0l-20 103c-14 -13 -30 -25 -48 -37c-81 -52 -192 -78 -332 -78c-137 0 -244 29 -320 86s-114 149 -114 277c0 123 39 211 117 266c77 55 202 83 373 83h311v49c0 97 -23 169 -69 216s-113 70 -201 70c-152 0 -266 -85 -280 -245l-231 63c26 227 218 343 500 343
c196 0 332 -44 407 -133c75 -88 112 -213 112 -375v-688h-205zM870 299v258h-263c-110 0 -187 -16 -231 -49c-43 -33 -65 -84 -65 -153c0 -67 20 -120 60 -158s103 -57 190 -57c89 0 163 17 222 50c58 34 87 70 87 109zM711 1478c-110 0 -142 74 -214 74
c-55 0 -75 -38 -76 -62h-119c2 49 32 157 182 157c105 0 130 -73 212 -73c50 0 72 39 74 63h118c-1 -46 -28 -159 -177 -159zM592 1233c-131 0 -212 78 -212 169h116c0 -51 30 -86 96 -86c73 0 97 36 97 86h116c0 -91 -76 -169 -213 -169z" />
    <glyph glyph-name="uni01CE" unicode="&#x1ce;" horiz-adv-x="1221" 
d="M903 0l-20 103c-14 -13 -30 -25 -48 -37c-81 -52 -192 -78 -332 -78c-137 0 -244 29 -320 86s-114 149 -114 277c0 123 39 211 117 266c77 55 202 83 373 83h311v49c0 97 -23 169 -69 216s-113 70 -201 70c-152 0 -266 -85 -280 -245l-231 63c26 227 218 343 500 343
c196 0 332 -44 407 -133c75 -88 112 -213 112 -375v-688h-205zM870 299v258h-263c-110 0 -187 -16 -231 -49c-43 -33 -65 -84 -65 -153c0 -67 20 -120 60 -158s103 -57 190 -57c89 0 163 17 222 50c58 34 87 70 87 109zM515 1231l-206 185h142l142 -131l140 131h143
l-207 -185h-154z" />
    <glyph glyph-name="acircumflex" unicode="&#xe2;" horiz-adv-x="1221" 
d="M903 0l-20 103c-14 -13 -30 -25 -48 -37c-81 -52 -192 -78 -332 -78c-137 0 -244 29 -320 86s-114 149 -114 277c0 123 39 211 117 266c77 55 202 83 373 83h311v49c0 97 -23 169 -69 216s-113 70 -201 70c-152 0 -266 -85 -280 -245l-231 63c26 227 218 343 500 343
c196 0 332 -44 407 -133c75 -88 112 -213 112 -375v-688h-205zM870 299v258h-263c-110 0 -187 -16 -231 -49c-43 -33 -65 -84 -65 -153c0 -67 20 -120 60 -158s103 -57 190 -57c89 0 163 17 222 50c58 34 87 70 87 109zM309 1236l206 185h154l207 -185h-143l-140 132
l-142 -132h-142z" />
    <glyph glyph-name="uni1EA5" unicode="&#x1ea5;" horiz-adv-x="1221" 
d="M903 0l-20 103c-14 -13 -30 -25 -48 -37c-81 -52 -192 -78 -332 -78c-137 0 -244 29 -320 86s-114 149 -114 277c0 123 39 211 117 266c77 55 202 83 373 83h311v49c0 97 -23 169 -69 216s-113 70 -201 70c-152 0 -266 -85 -280 -245l-231 63c26 227 218 343 500 343
c196 0 332 -44 407 -133c75 -88 112 -213 112 -375v-688h-205zM870 299v258h-263c-110 0 -187 -16 -231 -49c-43 -33 -65 -84 -65 -153c0 -67 20 -120 60 -158s103 -57 190 -57c89 0 163 17 222 50c58 34 87 70 87 109zM309 1236l206 185h154l207 -185h-143l-140 132
l-142 -132h-142zM434 1463l149 178h168l-201 -178h-116z" />
    <glyph glyph-name="uni1EAD" unicode="&#x1ead;" horiz-adv-x="1221" 
d="M903 0l-20 103c-14 -13 -30 -25 -48 -37c-81 -52 -192 -78 -332 -78c-137 0 -244 29 -320 86s-114 149 -114 277c0 123 39 211 117 266c77 55 202 83 373 83h311v49c0 97 -23 169 -69 216s-113 70 -201 70c-152 0 -266 -85 -280 -245l-231 63c26 227 218 343 500 343
c196 0 332 -44 407 -133c75 -88 112 -213 112 -375v-688h-205zM870 299v258h-263c-110 0 -187 -16 -231 -49c-43 -33 -65 -84 -65 -153c0 -67 20 -120 60 -158s103 -57 190 -57c89 0 163 17 222 50c58 34 87 70 87 109zM309 1236l206 185h154l207 -185h-143l-140 132
l-142 -132h-142zM606 -284c-44 0 -80 35 -80 80c0 43 35 78 80 78c43 0 78 -35 78 -78c0 -44 -35 -80 -78 -80z" />
    <glyph glyph-name="uni1EA7" unicode="&#x1ea7;" horiz-adv-x="1221" 
d="M903 0l-20 103c-14 -13 -30 -25 -48 -37c-81 -52 -192 -78 -332 -78c-137 0 -244 29 -320 86s-114 149 -114 277c0 123 39 211 117 266c77 55 202 83 373 83h311v49c0 97 -23 169 -69 216s-113 70 -201 70c-152 0 -266 -85 -280 -245l-231 63c26 227 218 343 500 343
c196 0 332 -44 407 -133c75 -88 112 -213 112 -375v-688h-205zM870 299v258h-263c-110 0 -187 -16 -231 -49c-43 -33 -65 -84 -65 -153c0 -67 20 -120 60 -158s103 -57 190 -57c89 0 163 17 222 50c58 34 87 70 87 109zM309 1236l206 185h154l207 -185h-143l-140 132
l-142 -132h-142zM635 1473l-201 178h167l150 -178h-116z" />
    <glyph glyph-name="uni1EA9" unicode="&#x1ea9;" horiz-adv-x="1221" 
d="M903 0l-20 103c-14 -13 -30 -25 -48 -37c-81 -52 -192 -78 -332 -78c-137 0 -244 29 -320 86s-114 149 -114 277c0 123 39 211 117 266c77 55 202 83 373 83h311v49c0 97 -23 169 -69 216s-113 70 -201 70c-152 0 -266 -85 -280 -245l-231 63c26 227 218 343 500 343
c196 0 332 -44 407 -133c75 -88 112 -213 112 -375v-688h-205zM870 299v258h-263c-110 0 -187 -16 -231 -49c-43 -33 -65 -84 -65 -153c0 -67 20 -120 60 -158s103 -57 190 -57c89 0 163 17 222 50c58 34 87 70 87 109zM468 1749c250 0 369 -19 369 -108
c0 -82 -121 -107 -207 -107v-59h-88v120c102 0 178 9 178 39c0 35 -74 39 -252 39v76zM309 1236l206 185h154l207 -185h-143l-140 132l-142 -132h-142z" />
    <glyph glyph-name="uni1EAB" unicode="&#x1eab;" horiz-adv-x="1221" 
d="M903 0l-20 103c-14 -13 -30 -25 -48 -37c-81 -52 -192 -78 -332 -78c-137 0 -244 29 -320 86s-114 149 -114 277c0 123 39 211 117 266c77 55 202 83 373 83h311v49c0 97 -23 169 -69 216s-113 70 -201 70c-152 0 -266 -85 -280 -245l-231 63c26 227 218 343 500 343
c196 0 332 -44 407 -133c75 -88 112 -213 112 -375v-688h-205zM870 299v258h-263c-110 0 -187 -16 -231 -49c-43 -33 -65 -84 -65 -153c0 -67 20 -120 60 -158s103 -57 190 -57c89 0 163 17 222 50c58 34 87 70 87 109zM711 1497c-110 0 -142 74 -214 74
c-55 0 -75 -38 -76 -62h-119c2 49 32 157 182 157c105 0 130 -73 212 -73c50 0 72 39 74 63h118c-1 -46 -28 -159 -177 -159zM309 1236l206 185h154l207 -185h-143l-140 132l-142 -132h-142z" />
    <glyph glyph-name="uni0201" unicode="&#x201;" horiz-adv-x="1221" 
d="M903 0l-20 103c-14 -13 -30 -25 -48 -37c-81 -52 -192 -78 -332 -78c-137 0 -244 29 -320 86s-114 149 -114 277c0 123 39 211 117 266c77 55 202 83 373 83h311v49c0 97 -23 169 -69 216s-113 70 -201 70c-152 0 -266 -85 -280 -245l-231 63c26 227 218 343 500 343
c196 0 332 -44 407 -133c75 -88 112 -213 112 -375v-688h-205zM870 299v258h-263c-110 0 -187 -16 -231 -49c-43 -33 -65 -84 -65 -153c0 -67 20 -120 60 -158s103 -57 190 -57c89 0 163 17 222 50c58 34 87 70 87 109zM508 1247l-202 178h168l149 -178h-115zM762 1247
l-201 178h167l150 -178h-116z" />
    <glyph glyph-name="adieresis" unicode="&#xe4;" horiz-adv-x="1221" 
d="M903 0l-20 103c-14 -13 -30 -25 -48 -37c-81 -52 -192 -78 -332 -78c-137 0 -244 29 -320 86s-114 149 -114 277c0 123 39 211 117 266c77 55 202 83 373 83h311v49c0 97 -23 169 -69 216s-113 70 -201 70c-152 0 -266 -85 -280 -245l-231 63c26 227 218 343 500 343
c196 0 332 -44 407 -133c75 -88 112 -213 112 -375v-688h-205zM870 299v258h-263c-110 0 -187 -16 -231 -49c-43 -33 -65 -84 -65 -153c0 -67 20 -120 60 -158s103 -57 190 -57c89 0 163 17 222 50c58 34 87 70 87 109zM425 1251c-43 0 -77 34 -77 77s34 77 77 77
s77 -34 77 -77s-34 -77 -77 -77zM757 1251c-43 0 -77 34 -77 77s34 77 77 77c42 0 77 -34 77 -77s-35 -77 -77 -77z" />
    <glyph glyph-name="uni1EA1" unicode="&#x1ea1;" horiz-adv-x="1221" 
d="M903 0l-20 103c-14 -13 -30 -25 -48 -37c-81 -52 -192 -78 -332 -78c-137 0 -244 29 -320 86s-114 149 -114 277c0 123 39 211 117 266c77 55 202 83 373 83h311v49c0 97 -23 169 -69 216s-113 70 -201 70c-152 0 -266 -85 -280 -245l-231 63c26 227 218 343 500 343
c196 0 332 -44 407 -133c75 -88 112 -213 112 -375v-688h-205zM870 299v258h-263c-110 0 -187 -16 -231 -49c-43 -33 -65 -84 -65 -153c0 -67 20 -120 60 -158s103 -57 190 -57c89 0 163 17 222 50c58 34 87 70 87 109zM606 -284c-44 0 -80 35 -80 80c0 43 35 78 80 78
c43 0 78 -35 78 -78c0 -44 -35 -80 -78 -80z" />
    <glyph glyph-name="agrave" unicode="&#xe0;" horiz-adv-x="1221" 
d="M903 0l-20 103c-14 -13 -30 -25 -48 -37c-81 -52 -192 -78 -332 -78c-137 0 -244 29 -320 86s-114 149 -114 277c0 123 39 211 117 266c77 55 202 83 373 83h311v49c0 97 -23 169 -69 216s-113 70 -201 70c-152 0 -266 -85 -280 -245l-231 63c26 227 218 343 500 343
c196 0 332 -44 407 -133c75 -88 112 -213 112 -375v-688h-205zM870 299v258h-263c-110 0 -187 -16 -231 -49c-43 -33 -65 -84 -65 -153c0 -67 20 -120 60 -158s103 -57 190 -57c89 0 163 17 222 50c58 34 87 70 87 109zM635 1237l-201 178h167l150 -178h-116z" />
    <glyph glyph-name="uni1EA3" unicode="&#x1ea3;" horiz-adv-x="1221" 
d="M903 0l-20 103c-14 -13 -30 -25 -48 -37c-81 -52 -192 -78 -332 -78c-137 0 -244 29 -320 86s-114 149 -114 277c0 123 39 211 117 266c77 55 202 83 373 83h311v49c0 97 -23 169 -69 216s-113 70 -201 70c-152 0 -266 -85 -280 -245l-231 63c26 227 218 343 500 343
c196 0 332 -44 407 -133c75 -88 112 -213 112 -375v-688h-205zM870 299v258h-263c-110 0 -187 -16 -231 -49c-43 -33 -65 -84 -65 -153c0 -67 20 -120 60 -158s103 -57 190 -57c89 0 163 17 222 50c58 34 87 70 87 109zM468 1513c250 0 369 -19 369 -108
c0 -82 -121 -107 -207 -107v-59h-88v120c102 0 178 9 178 39c0 35 -74 39 -252 39v76z" />
    <glyph glyph-name="uni0203" unicode="&#x203;" horiz-adv-x="1221" 
d="M903 0l-20 103c-14 -13 -30 -25 -48 -37c-81 -52 -192 -78 -332 -78c-137 0 -244 29 -320 86s-114 149 -114 277c0 123 39 211 117 266c77 55 202 83 373 83h311v49c0 97 -23 169 -69 216s-113 70 -201 70c-152 0 -266 -85 -280 -245l-231 63c26 227 218 343 500 343
c196 0 332 -44 407 -133c75 -88 112 -213 112 -375v-688h-205zM870 299v258h-263c-110 0 -187 -16 -231 -49c-43 -33 -65 -84 -65 -153c0 -67 20 -120 60 -158s103 -57 190 -57c89 0 163 17 222 50c58 34 87 70 87 109zM592 1418c131 0 213 -78 213 -169h-116
c0 51 -30 86 -97 86c-73 0 -97 -36 -97 -86h-116c0 91 77 169 213 169z" />
    <glyph glyph-name="amacron" unicode="&#x101;" horiz-adv-x="1221" 
d="M903 0l-20 103c-14 -13 -30 -25 -48 -37c-81 -52 -192 -78 -332 -78c-137 0 -244 29 -320 86s-114 149 -114 277c0 123 39 211 117 266c77 55 202 83 373 83h311v49c0 97 -23 169 -69 216s-113 70 -201 70c-152 0 -266 -85 -280 -245l-231 63c26 227 218 343 500 343
c196 0 332 -44 407 -133c75 -88 112 -213 112 -375v-688h-205zM870 299v258h-263c-110 0 -187 -16 -231 -49c-43 -33 -65 -84 -65 -153c0 -67 20 -120 60 -158s103 -57 190 -57c89 0 163 17 222 50c58 34 87 70 87 109zM286 1282v91h613v-91h-613z" />
    <glyph glyph-name="aogonek" unicode="&#x105;" horiz-adv-x="1221" 
d="M903 0l-20 103c-14 -13 -30 -25 -48 -37c-81 -52 -192 -78 -332 -78c-137 0 -244 29 -320 86s-114 149 -114 277c0 123 39 211 117 266c77 55 202 83 373 83h311v49c0 97 -23 169 -69 216s-113 70 -201 70c-152 0 -266 -85 -280 -245l-231 63c26 227 218 343 500 343
c196 0 332 -44 407 -133c75 -88 112 -213 112 -375v-688c-21 -31 -59 -110 -59 -157c0 -37 23 -59 75 -59c50 0 113 15 135 25l3 -120c-19 -8 -97 -24 -173 -24c-92 0 -178 32 -178 133c0 85 52 168 79 202h-87zM870 557h-263c-110 0 -187 -16 -231 -49
c-43 -33 -65 -84 -65 -153c0 -67 20 -120 60 -158s103 -57 190 -57c89 0 163 17 222 50c58 34 87 70 87 109v258z" />
    <glyph glyph-name="aring" unicode="&#xe5;" horiz-adv-x="1221" 
d="M903 0l-20 103c-14 -13 -30 -25 -48 -37c-81 -52 -192 -78 -332 -78c-137 0 -244 29 -320 86s-114 149 -114 277c0 123 39 211 117 266c77 55 202 83 373 83h311v49c0 97 -23 169 -69 216s-113 70 -201 70c-152 0 -266 -85 -280 -245l-231 63c26 227 218 343 500 343
c196 0 332 -44 407 -133c75 -88 112 -213 112 -375v-688h-205zM870 299v258h-263c-110 0 -187 -16 -231 -49c-43 -33 -65 -84 -65 -153c0 -67 20 -120 60 -158s103 -57 190 -57c89 0 163 17 222 50c58 34 87 70 87 109zM592 1223c-76 0 -133 59 -133 135
c0 75 57 134 133 134s133 -59 133 -134c0 -76 -57 -135 -133 -135zM592 1311c25 0 45 21 45 47s-20 45 -45 45c-24 0 -44 -19 -44 -45s20 -47 44 -47z" />
    <glyph glyph-name="aringacute" unicode="&#x1fb;" horiz-adv-x="1221" 
d="M903 0l-20 103c-14 -13 -30 -25 -48 -37c-81 -52 -192 -78 -332 -78c-137 0 -244 29 -320 86s-114 149 -114 277c0 123 39 211 117 266c77 55 202 83 373 83h311v49c0 97 -23 169 -69 216s-113 70 -201 70c-152 0 -266 -85 -280 -245l-231 63c26 227 218 343 500 343
c196 0 332 -44 407 -133c75 -88 112 -213 112 -375v-688h-205zM870 299v258h-263c-110 0 -187 -16 -231 -49c-43 -33 -65 -84 -65 -153c0 -67 20 -120 60 -158s103 -57 190 -57c89 0 163 17 222 50c58 34 87 70 87 109zM592 1223c-76 0 -133 59 -133 135
c0 75 57 134 133 134s133 -59 133 -134c0 -76 -57 -135 -133 -135zM434 1534l149 177h168l-201 -177h-116zM592 1311c25 0 45 21 45 47s-20 45 -45 45c-24 0 -44 -19 -44 -45s20 -47 44 -47z" />
    <glyph glyph-name="atilde" unicode="&#xe3;" horiz-adv-x="1221" 
d="M903 0l-20 103c-14 -13 -30 -25 -48 -37c-81 -52 -192 -78 -332 -78c-137 0 -244 29 -320 86s-114 149 -114 277c0 123 39 211 117 266c77 55 202 83 373 83h311v49c0 97 -23 169 -69 216s-113 70 -201 70c-152 0 -266 -85 -280 -245l-231 63c26 227 218 343 500 343
c196 0 332 -44 407 -133c75 -88 112 -213 112 -375v-688h-205zM870 299v258h-263c-110 0 -187 -16 -231 -49c-43 -33 -65 -84 -65 -153c0 -67 20 -120 60 -158s103 -57 190 -57c89 0 163 17 222 50c58 34 87 70 87 109zM711 1261c-110 0 -142 74 -214 74
c-55 0 -75 -38 -76 -62h-119c2 49 32 157 182 157c105 0 130 -73 212 -73c50 0 72 39 74 63h118c-1 -46 -28 -159 -177 -159z" />
    <glyph glyph-name="ae" unicode="&#xe6;" horiz-adv-x="2022" 
d="M480 -11c-132 0 -233 28 -304 84s-107 139 -107 249c0 126 36 212 108 259s179 71 323 71h356v8v73c0 106 -23 184 -68 234s-109 75 -191 75c-85 0 -150 -22 -194 -67c-45 -44 -73 -118 -83 -222l-228 63c19 110 63 201 131 272c69 72 193 107 372 107
c175 0 298 -42 371 -126c6 -8 12 -15 18 -23c84 100 221 150 408 150c194 0 332 -51 413 -153c80 -102 121 -251 121 -446c0 -29 -2 -54 -5 -76h-835c7 -125 34 -216 81 -273c56 -68 132 -102 230 -102c149 0 276 89 289 262l213 -69c-27 -242 -241 -350 -503 -350
c-195 0 -334 53 -417 159c-10 12 -19 25 -27 38c-24 -47 -58 -84 -103 -112c-89 -57 -213 -85 -369 -85zM1086 669h604c-3 131 -29 225 -78 282c-53 60 -126 90 -220 90c-92 0 -166 -31 -223 -95c-48 -53 -76 -146 -83 -277zM856 385v130h-280c-99 0 -168 -14 -205 -42
c-37 -29 -56 -79 -56 -152c0 -56 17 -101 51 -135s96 -51 187 -51c94 0 168 20 223 61c47 35 74 98 80 189z" />
    <glyph glyph-name="aeacute" unicode="&#x1fd;" horiz-adv-x="2022" 
d="M480 -11c-132 0 -233 28 -304 84s-107 139 -107 249c0 126 36 212 108 259s179 71 323 71h356v8v73c0 106 -23 184 -68 234s-109 75 -191 75c-85 0 -150 -22 -194 -67c-45 -44 -73 -118 -83 -222l-228 63c19 110 63 201 131 272c69 72 193 107 372 107
c175 0 298 -42 371 -126c6 -8 12 -15 18 -23c84 100 221 150 408 150c194 0 332 -51 413 -153c80 -102 121 -251 121 -446c0 -29 -2 -54 -5 -76h-835c7 -125 34 -216 81 -273c56 -68 132 -102 230 -102c149 0 276 89 289 262l213 -69c-27 -242 -241 -350 -503 -350
c-195 0 -334 53 -417 159c-10 12 -19 25 -27 38c-24 -47 -58 -84 -103 -112c-89 -57 -213 -85 -369 -85zM1086 669h604c-3 131 -29 225 -78 282c-53 60 -126 90 -220 90c-92 0 -166 -31 -223 -95c-48 -53 -76 -146 -83 -277zM856 385v130h-280c-99 0 -168 -14 -205 -42
c-37 -29 -56 -79 -56 -152c0 -56 17 -101 51 -135s96 -51 187 -51c94 0 168 20 223 61c47 35 74 98 80 189zM828 1228l149 178h168l-201 -178h-116z" />
    <glyph glyph-name="b" unicode="b" horiz-adv-x="1234" 
d="M97 0v1570h237v-500c12 9 24 19 37 28c94 65 208 98 340 98c147 0 256 -51 327 -153c70 -102 105 -251 105 -448s-35 -346 -105 -449c-71 -102 -180 -154 -327 -154c-132 0 -246 33 -340 98c-16 11 -30 22 -44 33l-13 -123h-217zM334 793v-398c5 -61 34 -115 87 -162
c59 -51 129 -77 210 -77c85 0 152 31 200 92c49 62 73 177 73 346c0 168 -24 283 -73 345c-48 61 -115 92 -200 92c-81 0 -151 -26 -210 -78c-53 -47 -82 -100 -87 -160z" />
    <glyph glyph-name="c" unicode="c" horiz-adv-x="1177" 
d="M588 -11c-192 0 -330 52 -413 156s-124 253 -124 446c0 202 41 353 124 454c83 100 221 151 413 151c174 0 297 -43 369 -128s112 -179 121 -280l-212 -71c-3 96 -29 173 -77 229s-115 84 -201 84c-88 0 -159 -31 -214 -94s-82 -178 -82 -345c0 -157 28 -270 83 -337
s126 -100 213 -100c86 0 153 30 201 90s74 134 77 221l212 -74c-9 -91 -49 -181 -121 -269c-72 -89 -195 -133 -369 -133z" />
    <glyph glyph-name="cacute" unicode="&#x107;" horiz-adv-x="1177" 
d="M588 -11c-192 0 -330 52 -413 156s-124 253 -124 446c0 202 41 353 124 454c83 100 221 151 413 151c174 0 297 -43 369 -128s112 -179 121 -280l-212 -71c-3 96 -29 173 -77 229s-115 84 -201 84c-88 0 -159 -31 -214 -94s-82 -178 -82 -345c0 -157 28 -270 83 -337
s126 -100 213 -100c86 0 153 30 201 90s74 134 77 221l212 -74c-9 -91 -49 -181 -121 -269c-72 -89 -195 -133 -369 -133zM429 1227l149 178h167l-201 -178h-115z" />
    <glyph glyph-name="ccaron" unicode="&#x10d;" horiz-adv-x="1177" 
d="M588 -11c-192 0 -330 52 -413 156s-124 253 -124 446c0 202 41 353 124 454c83 100 221 151 413 151c174 0 297 -43 369 -128s112 -179 121 -280l-212 -71c-3 96 -29 173 -77 229s-115 84 -201 84c-88 0 -159 -31 -214 -94s-82 -178 -82 -345c0 -157 28 -270 83 -337
s126 -100 213 -100c86 0 153 30 201 90s74 134 77 221l212 -74c-9 -91 -49 -181 -121 -269c-72 -89 -195 -133 -369 -133zM510 1231l-206 185h142l142 -132l140 132h143l-207 -185h-154z" />
    <glyph glyph-name="ccedilla" unicode="&#xe7;" horiz-adv-x="1177" 
d="M619 -312c-52 0 -107 7 -155 18l33 101c31 -8 75 -15 124 -15c77 0 116 19 116 55c0 25 -20 35 -52 35c-29 0 -62 -11 -84 -24l-88 12l36 120c-172 7 -297 58 -374 155c-83 104 -124 253 -124 446c0 202 41 353 124 454c83 100 221 151 413 151c174 0 297 -43 369 -128
s112 -179 121 -280l-212 -71c-3 96 -29 173 -77 229s-115 84 -201 84c-88 0 -159 -31 -214 -94s-82 -178 -82 -345c0 -157 28 -270 83 -337s126 -100 213 -100c86 0 153 30 201 90s74 134 77 221l212 -74c-9 -91 -49 -181 -121 -269c-64 -78 -167 -122 -310 -131l-27 -77
c29 19 76 33 128 33c78 0 132 -34 132 -103c0 -104 -130 -156 -261 -156z" />
    <glyph glyph-name="uni1E09" unicode="&#x1e09;" horiz-adv-x="1177" 
d="M619 -312c-52 0 -107 7 -155 18l33 101c31 -8 75 -15 124 -15c77 0 116 19 116 55c0 25 -20 35 -52 35c-29 0 -62 -11 -84 -24l-88 12l36 120c-172 7 -297 58 -374 155c-83 104 -124 253 -124 446c0 202 41 353 124 454c83 100 221 151 413 151c174 0 297 -43 369 -128
s112 -179 121 -280l-212 -71c-3 96 -29 173 -77 229s-115 84 -201 84c-88 0 -159 -31 -214 -94s-82 -178 -82 -345c0 -157 28 -270 83 -337s126 -100 213 -100c86 0 153 30 201 90s74 134 77 221l212 -74c-9 -91 -49 -181 -121 -269c-64 -78 -167 -122 -310 -131l-27 -77
c29 19 76 33 128 33c78 0 132 -34 132 -103c0 -104 -130 -156 -261 -156zM429 1227l149 178h167l-201 -178h-115z" />
    <glyph glyph-name="ccircumflex" unicode="&#x109;" horiz-adv-x="1177" 
d="M588 -11c-192 0 -330 52 -413 156s-124 253 -124 446c0 202 41 353 124 454c83 100 221 151 413 151c174 0 297 -43 369 -128s112 -179 121 -280l-212 -71c-3 96 -29 173 -77 229s-115 84 -201 84c-88 0 -159 -31 -214 -94s-82 -178 -82 -345c0 -157 28 -270 83 -337
s126 -100 213 -100c86 0 153 30 201 90s74 134 77 221l212 -74c-9 -91 -49 -181 -121 -269c-72 -89 -195 -133 -369 -133zM304 1236l206 185h154l207 -185h-143l-141 132l-141 -132h-142z" />
    <glyph glyph-name="cdotaccent" unicode="&#x10b;" horiz-adv-x="1177" 
d="M588 -11c-192 0 -330 52 -413 156s-124 253 -124 446c0 202 41 353 124 454c83 100 221 151 413 151c174 0 297 -43 369 -128s112 -179 121 -280l-212 -71c-3 96 -29 173 -77 229s-115 84 -201 84c-88 0 -159 -31 -214 -94s-82 -178 -82 -345c0 -157 28 -270 83 -337
s126 -100 213 -100c86 0 153 30 201 90s74 134 77 221l212 -74c-9 -91 -49 -181 -121 -269c-72 -89 -195 -133 -369 -133zM588 1243c-44 0 -80 35 -80 80c0 43 35 78 80 78c43 0 78 -35 78 -78c0 -44 -35 -80 -78 -80z" />
    <glyph glyph-name="d" unicode="d" horiz-adv-x="1221" 
d="M886 0l-10 121c-12 -10 -26 -21 -41 -31c-93 -65 -206 -98 -339 -98c-147 0 -256 51 -327 153c-72 102 -107 252 -107 450c0 199 35 348 107 449c71 101 180 152 327 152c133 0 246 -33 339 -98c13 -9 25 -18 36 -27v499h236v-1570h-221zM871 395v398
c-5 60 -34 113 -86 160c-58 52 -127 78 -208 78c-86 0 -153 -30 -202 -91s-74 -176 -74 -346s25 -286 74 -347s116 -91 202 -91c81 0 150 26 208 78c52 47 81 101 86 161z" />
    <glyph glyph-name="eth" unicode="&#xf0;" horiz-adv-x="1232" 
d="M597 -9c-195 0 -331 52 -409 157s-117 254 -117 445c0 192 37 340 112 444c74 104 209 157 404 157c103 0 192 -20 266 -58c-51 123 -136 197 -252 239l-42 -83l-131 25l47 90c-56 10 -117 15 -183 17l48 139c74 -3 142 -11 204 -25l35 67l126 -27l-40 -78
c155 -64 262 -179 326 -365c91 -108 132 -287 132 -450l-5 2c3 -30 5 -60 5 -91c0 -195 -39 -345 -117 -449s-215 -156 -409 -156zM597 156c94 0 166 32 215 97s74 178 74 340s-25 276 -74 342s-121 99 -215 99c-95 0 -167 -34 -216 -100c-49 -67 -73 -180 -73 -341
c0 -160 24 -273 73 -339c49 -65 121 -98 216 -98z" />
    <glyph glyph-name="dcaron" unicode="&#x10f;" horiz-adv-x="1380" 
d="M886 0l-10 121c-12 -10 -26 -21 -41 -31c-93 -65 -206 -98 -339 -98c-147 0 -256 51 -327 153c-72 102 -107 252 -107 450c0 199 35 348 107 449c71 101 180 152 327 152c133 0 246 -33 339 -98c13 -9 25 -18 36 -27v499h236v-1570h-221zM871 395v398
c-5 60 -34 113 -86 160c-58 52 -127 78 -208 78c-86 0 -153 -30 -202 -91s-74 -176 -74 -346s25 -286 74 -347s116 -91 202 -91c81 0 150 26 208 78c52 47 81 101 86 161zM1179 1259l46 311h158l-59 -311h-145z" />
    <glyph glyph-name="dcroat" unicode="&#x111;" horiz-adv-x="1221" 
d="M538 1333v116h333v121h236v-121h122v-116h-122v-1333h-221l-10 121c-12 -10 -26 -21 -41 -31c-93 -65 -206 -98 -339 -98c-147 0 -256 51 -327 153c-72 102 -107 252 -107 450c0 199 35 348 107 449c71 101 180 152 327 152c133 0 246 -33 339 -98c13 -9 25 -18 36 -27
v262h-333zM871 395v398c-5 60 -34 113 -86 160c-58 52 -127 78 -208 78c-86 0 -153 -30 -202 -91s-74 -176 -74 -346s25 -286 74 -347s116 -91 202 -91c81 0 150 26 208 78c52 47 81 101 86 161z" />
    <glyph glyph-name="uni1E0D" unicode="&#x1e0d;" horiz-adv-x="1221" 
d="M886 0l-10 121c-12 -10 -26 -21 -41 -31c-93 -65 -206 -98 -339 -98c-147 0 -256 51 -327 153c-72 102 -107 252 -107 450c0 199 35 348 107 449c71 101 180 152 327 152c133 0 246 -33 339 -98c13 -9 25 -18 36 -27v499h236v-1570h-221zM871 395v398
c-5 60 -34 113 -86 160c-58 52 -127 78 -208 78c-86 0 -153 -30 -202 -91s-74 -176 -74 -346s25 -286 74 -347s116 -91 202 -91c81 0 150 26 208 78c52 47 81 101 86 161zM631 -284c-44 0 -79 35 -79 80c0 43 35 78 79 78c43 0 79 -35 79 -78c0 -44 -35 -80 -79 -80z" />
    <glyph glyph-name="uni1E0F" unicode="&#x1e0f;" horiz-adv-x="1221" 
d="M886 0l-10 121c-12 -10 -26 -21 -41 -31c-93 -65 -206 -98 -339 -98c-147 0 -256 51 -327 153c-72 102 -107 252 -107 450c0 199 35 348 107 449c71 101 180 152 327 152c133 0 246 -33 339 -98c13 -9 25 -18 36 -27v499h236v-1570h-221zM871 395v398
c-5 60 -34 113 -86 160c-58 52 -127 78 -208 78c-86 0 -153 -30 -202 -91s-74 -176 -74 -346s25 -286 74 -347s116 -91 202 -91c81 0 150 26 208 78c52 47 81 101 86 161zM324 -219v90h613v-90h-613z" />
    <glyph glyph-name="uni01C6" unicode="&#x1c6;" horiz-adv-x="2234" 
d="M886 0l-10 121c-12 -10 -26 -21 -41 -31c-93 -65 -206 -98 -339 -98c-147 0 -256 51 -327 153c-72 102 -107 252 -107 450c0 199 35 348 107 449c71 101 180 152 327 152c133 0 246 -33 339 -98c13 -9 25 -18 36 -27v499h236v-1570h-221zM1291 0v164l587 857h-581v164
h835v-164l-578 -857h589v-164h-852zM871 395v398c-5 60 -34 113 -86 160c-58 52 -127 78 -208 78c-86 0 -153 -30 -202 -91s-74 -176 -74 -346s25 -286 74 -347s116 -91 202 -91c81 0 150 26 208 78c52 47 81 101 86 161zM1641 1231l-206 185h142l142 -132l140 132h143
l-206 -185h-155z" />
    <glyph glyph-name="e" unicode="e" horiz-adv-x="1231" 
d="M606 -11c-195 0 -334 53 -417 159c-83 105 -125 253 -125 444c0 199 42 350 127 452c85 101 222 152 411 152c194 0 331 -51 412 -153s122 -251 122 -446c0 -29 -2 -54 -5 -76h-835c7 -125 34 -216 81 -273c55 -68 132 -102 229 -102c150 0 276 89 290 262l213 -69
c-27 -242 -241 -350 -503 -350zM295 669h605c-3 131 -29 225 -79 282c-52 60 -125 90 -219 90c-92 0 -167 -31 -223 -95c-48 -53 -76 -146 -84 -277z" />
    <glyph glyph-name="eacute" unicode="&#xe9;" horiz-adv-x="1231" 
d="M606 -11c-195 0 -334 53 -417 159c-83 105 -125 253 -125 444c0 199 42 350 127 452c85 101 222 152 411 152c194 0 331 -51 412 -153s122 -251 122 -446c0 -29 -2 -54 -5 -76h-835c7 -125 34 -216 81 -273c55 -68 132 -102 229 -102c150 0 276 89 290 262l213 -69
c-27 -242 -241 -350 -503 -350zM295 669h605c-3 131 -29 225 -79 282c-52 60 -125 90 -219 90c-92 0 -167 -31 -223 -95c-48 -53 -76 -146 -84 -277zM444 1227l149 178h167l-201 -178h-115z" />
    <glyph glyph-name="ebreve" unicode="&#x115;" horiz-adv-x="1231" 
d="M606 -11c-195 0 -334 53 -417 159c-83 105 -125 253 -125 444c0 199 42 350 127 452c85 101 222 152 411 152c194 0 331 -51 412 -153s122 -251 122 -446c0 -29 -2 -54 -5 -76h-835c7 -125 34 -216 81 -273c55 -68 132 -102 229 -102c150 0 276 89 290 262l213 -69
c-27 -242 -241 -350 -503 -350zM295 669h605c-3 131 -29 225 -79 282c-52 60 -125 90 -219 90c-92 0 -167 -31 -223 -95c-48 -53 -76 -146 -84 -277zM602 1233c-131 0 -213 78 -213 169h116c0 -51 30 -86 97 -86c73 0 97 36 97 86h116c0 -91 -77 -169 -213 -169z" />
    <glyph glyph-name="ecaron" unicode="&#x11b;" horiz-adv-x="1231" 
d="M606 -11c-195 0 -334 53 -417 159c-83 105 -125 253 -125 444c0 199 42 350 127 452c85 101 222 152 411 152c194 0 331 -51 412 -153s122 -251 122 -446c0 -29 -2 -54 -5 -76h-835c7 -125 34 -216 81 -273c55 -68 132 -102 229 -102c150 0 276 89 290 262l213 -69
c-27 -242 -241 -350 -503 -350zM295 669h605c-3 131 -29 225 -79 282c-52 60 -125 90 -219 90c-92 0 -167 -31 -223 -95c-48 -53 -76 -146 -84 -277zM525 1231l-206 185h142l142 -132l140 132h143l-207 -185h-154z" />
    <glyph glyph-name="uni1E1D" unicode="&#x1e1d;" horiz-adv-x="1231" 
d="M606 146c150 0 276 89 290 262l213 -69c-26 -226 -214 -335 -453 -348l-27 -77c30 19 77 33 129 33c77 0 132 -34 132 -103c0 -104 -131 -156 -261 -156c-53 0 -108 7 -156 18l34 101c30 -8 74 -15 123 -15c77 0 117 19 117 55c0 25 -21 35 -53 35c-29 0 -62 -11 -84 -24
l-87 12l36 120c-171 8 -294 61 -370 158c-83 105 -125 253 -125 444c0 199 42 350 127 452c85 101 222 152 411 152c194 0 331 -51 412 -153s122 -251 122 -446c0 -29 -2 -54 -5 -76h-835c7 -125 34 -216 81 -273c55 -68 132 -102 229 -102zM295 669h605
c-3 131 -29 225 -79 282c-52 60 -125 90 -219 90c-92 0 -167 -31 -223 -95c-48 -53 -76 -146 -84 -277zM602 1233c-131 0 -213 78 -213 169h116c0 -51 30 -86 97 -86c73 0 97 36 97 86h116c0 -91 -77 -169 -213 -169z" />
    <glyph glyph-name="ecircumflex" unicode="&#xea;" horiz-adv-x="1231" 
d="M606 -11c-195 0 -334 53 -417 159c-83 105 -125 253 -125 444c0 199 42 350 127 452c85 101 222 152 411 152c194 0 331 -51 412 -153s122 -251 122 -446c0 -29 -2 -54 -5 -76h-835c7 -125 34 -216 81 -273c55 -68 132 -102 229 -102c150 0 276 89 290 262l213 -69
c-27 -242 -241 -350 -503 -350zM295 669h605c-3 131 -29 225 -79 282c-52 60 -125 90 -219 90c-92 0 -167 -31 -223 -95c-48 -53 -76 -146 -84 -277zM319 1236l206 185h154l207 -185h-143l-141 132l-141 -132h-142z" />
    <glyph glyph-name="uni1EBF" unicode="&#x1ebf;" horiz-adv-x="1231" 
d="M606 -11c-195 0 -334 53 -417 159c-83 105 -125 253 -125 444c0 199 42 350 127 452c85 101 222 152 411 152c194 0 331 -51 412 -153s122 -251 122 -446c0 -29 -2 -54 -5 -76h-835c7 -125 34 -216 81 -273c55 -68 132 -102 229 -102c150 0 276 89 290 262l213 -69
c-27 -242 -241 -350 -503 -350zM295 669h605c-3 131 -29 225 -79 282c-52 60 -125 90 -219 90c-92 0 -167 -31 -223 -95c-48 -53 -76 -146 -84 -277zM319 1236l206 185h154l207 -185h-143l-141 132l-141 -132h-142zM444 1463l149 178h167l-201 -178h-115z" />
    <glyph glyph-name="uni1EC7" unicode="&#x1ec7;" horiz-adv-x="1231" 
d="M606 -11c-195 0 -334 53 -417 159c-83 105 -125 253 -125 444c0 199 42 350 127 452c85 101 222 152 411 152c194 0 331 -51 412 -153s122 -251 122 -446c0 -29 -2 -54 -5 -76h-835c7 -125 34 -216 81 -273c55 -68 132 -102 229 -102c150 0 276 89 290 262l213 -69
c-27 -242 -241 -350 -503 -350zM295 669h605c-3 131 -29 225 -79 282c-52 60 -125 90 -219 90c-92 0 -167 -31 -223 -95c-48 -53 -76 -146 -84 -277zM319 1236l206 185h154l207 -185h-143l-141 132l-141 -132h-142zM606 -284c-44 0 -79 35 -79 80c0 43 35 78 79 78
c43 0 79 -35 79 -78c0 -44 -35 -80 -79 -80z" />
    <glyph glyph-name="uni1EC1" unicode="&#x1ec1;" horiz-adv-x="1231" 
d="M606 -11c-195 0 -334 53 -417 159c-83 105 -125 253 -125 444c0 199 42 350 127 452c85 101 222 152 411 152c194 0 331 -51 412 -153s122 -251 122 -446c0 -29 -2 -54 -5 -76h-835c7 -125 34 -216 81 -273c55 -68 132 -102 229 -102c150 0 276 89 290 262l213 -69
c-27 -242 -241 -350 -503 -350zM295 669h605c-3 131 -29 225 -79 282c-52 60 -125 90 -219 90c-92 0 -167 -31 -223 -95c-48 -53 -76 -146 -84 -277zM319 1236l206 185h154l207 -185h-143l-141 132l-141 -132h-142zM645 1473l-201 178h167l150 -178h-116z" />
    <glyph glyph-name="uni1EC3" unicode="&#x1ec3;" horiz-adv-x="1231" 
d="M606 -11c-195 0 -334 53 -417 159c-83 105 -125 253 -125 444c0 199 42 350 127 452c85 101 222 152 411 152c194 0 331 -51 412 -153s122 -251 122 -446c0 -29 -2 -54 -5 -76h-835c7 -125 34 -216 81 -273c55 -68 132 -102 229 -102c150 0 276 89 290 262l213 -69
c-27 -242 -241 -350 -503 -350zM295 669h605c-3 131 -29 225 -79 282c-52 60 -125 90 -219 90c-92 0 -167 -31 -223 -95c-48 -53 -76 -146 -84 -277zM477 1749c251 0 370 -19 370 -109c0 -81 -121 -106 -207 -106v-59h-88v120c102 0 178 9 178 38c0 36 -74 40 -253 40v76z
M319 1236l206 185h154l207 -185h-143l-141 132l-141 -132h-142z" />
    <glyph glyph-name="uni1EC5" unicode="&#x1ec5;" horiz-adv-x="1231" 
d="M606 -11c-195 0 -334 53 -417 159c-83 105 -125 253 -125 444c0 199 42 350 127 452c85 101 222 152 411 152c194 0 331 -51 412 -153s122 -251 122 -446c0 -29 -2 -54 -5 -76h-835c7 -125 34 -216 81 -273c55 -68 132 -102 229 -102c150 0 276 89 290 262l213 -69
c-27 -242 -241 -350 -503 -350zM295 669h605c-3 131 -29 225 -79 282c-52 60 -125 90 -219 90c-92 0 -167 -31 -223 -95c-48 -53 -76 -146 -84 -277zM721 1497c-110 0 -143 74 -214 74c-55 0 -75 -39 -77 -63h-118c2 50 31 158 182 158c104 0 130 -73 212 -73
c49 0 72 39 73 63h119c-2 -46 -28 -159 -177 -159zM319 1236l206 185h154l207 -185h-143l-141 132l-141 -132h-142z" />
    <glyph glyph-name="uni0205" unicode="&#x205;" horiz-adv-x="1231" 
d="M606 -11c-195 0 -334 53 -417 159c-83 105 -125 253 -125 444c0 199 42 350 127 452c85 101 222 152 411 152c194 0 331 -51 412 -153s122 -251 122 -446c0 -29 -2 -54 -5 -76h-835c7 -125 34 -216 81 -273c55 -68 132 -102 229 -102c150 0 276 89 290 262l213 -69
c-27 -242 -241 -350 -503 -350zM295 669h605c-3 131 -29 225 -79 282c-52 60 -125 90 -219 90c-92 0 -167 -31 -223 -95c-48 -53 -76 -146 -84 -277zM518 1247l-202 177h168l149 -177h-115zM772 1247l-202 177h168l149 -177h-115z" />
    <glyph glyph-name="edieresis" unicode="&#xeb;" horiz-adv-x="1231" 
d="M606 -11c-195 0 -334 53 -417 159c-83 105 -125 253 -125 444c0 199 42 350 127 452c85 101 222 152 411 152c194 0 331 -51 412 -153s122 -251 122 -446c0 -29 -2 -54 -5 -76h-835c7 -125 34 -216 81 -273c55 -68 132 -102 229 -102c150 0 276 89 290 262l213 -69
c-27 -242 -241 -350 -503 -350zM295 669h605c-3 131 -29 225 -79 282c-52 60 -125 90 -219 90c-92 0 -167 -31 -223 -95c-48 -53 -76 -146 -84 -277zM435 1251c-43 0 -77 34 -77 77c0 42 34 77 77 77c42 0 77 -35 77 -77c0 -43 -35 -77 -77 -77zM767 1251
c-43 0 -78 34 -78 77c0 42 35 77 78 77c42 0 77 -35 77 -77c0 -43 -35 -77 -77 -77z" />
    <glyph glyph-name="edotaccent" unicode="&#x117;" horiz-adv-x="1231" 
d="M606 -11c-195 0 -334 53 -417 159c-83 105 -125 253 -125 444c0 199 42 350 127 452c85 101 222 152 411 152c194 0 331 -51 412 -153s122 -251 122 -446c0 -29 -2 -54 -5 -76h-835c7 -125 34 -216 81 -273c55 -68 132 -102 229 -102c150 0 276 89 290 262l213 -69
c-27 -242 -241 -350 -503 -350zM295 669h605c-3 131 -29 225 -79 282c-52 60 -125 90 -219 90c-92 0 -167 -31 -223 -95c-48 -53 -76 -146 -84 -277zM603 1243c-44 0 -80 35 -80 80c0 43 35 78 80 78c43 0 78 -35 78 -78c0 -44 -35 -80 -78 -80z" />
    <glyph glyph-name="uni1EB9" unicode="&#x1eb9;" horiz-adv-x="1231" 
d="M606 -11c-195 0 -334 53 -417 159c-83 105 -125 253 -125 444c0 199 42 350 127 452c85 101 222 152 411 152c194 0 331 -51 412 -153s122 -251 122 -446c0 -29 -2 -54 -5 -76h-835c7 -125 34 -216 81 -273c55 -68 132 -102 229 -102c150 0 276 89 290 262l213 -69
c-27 -242 -241 -350 -503 -350zM295 669h605c-3 131 -29 225 -79 282c-52 60 -125 90 -219 90c-92 0 -167 -31 -223 -95c-48 -53 -76 -146 -84 -277zM606 -284c-44 0 -79 35 -79 80c0 43 35 78 79 78c43 0 79 -35 79 -78c0 -44 -35 -80 -79 -80z" />
    <glyph glyph-name="egrave" unicode="&#xe8;" horiz-adv-x="1231" 
d="M606 -11c-195 0 -334 53 -417 159c-83 105 -125 253 -125 444c0 199 42 350 127 452c85 101 222 152 411 152c194 0 331 -51 412 -153s122 -251 122 -446c0 -29 -2 -54 -5 -76h-835c7 -125 34 -216 81 -273c55 -68 132 -102 229 -102c150 0 276 89 290 262l213 -69
c-27 -242 -241 -350 -503 -350zM295 669h605c-3 131 -29 225 -79 282c-52 60 -125 90 -219 90c-92 0 -167 -31 -223 -95c-48 -53 -76 -146 -84 -277zM645 1237l-201 178h167l150 -178h-116z" />
    <glyph glyph-name="uni1EBB" unicode="&#x1ebb;" horiz-adv-x="1231" 
d="M606 -11c-195 0 -334 53 -417 159c-83 105 -125 253 -125 444c0 199 42 350 127 452c85 101 222 152 411 152c194 0 331 -51 412 -153s122 -251 122 -446c0 -29 -2 -54 -5 -76h-835c7 -125 34 -216 81 -273c55 -68 132 -102 229 -102c150 0 276 89 290 262l213 -69
c-27 -242 -241 -350 -503 -350zM295 669h605c-3 131 -29 225 -79 282c-52 60 -125 90 -219 90c-92 0 -167 -31 -223 -95c-48 -53 -76 -146 -84 -277zM477 1513c251 0 370 -19 370 -109c0 -81 -121 -106 -207 -106v-59h-88v120c102 0 178 9 178 38c0 36 -74 40 -253 40v76z
" />
    <glyph glyph-name="uni0207" unicode="&#x207;" horiz-adv-x="1231" 
d="M606 -11c-195 0 -334 53 -417 159c-83 105 -125 253 -125 444c0 199 42 350 127 452c85 101 222 152 411 152c194 0 331 -51 412 -153s122 -251 122 -446c0 -29 -2 -54 -5 -76h-835c7 -125 34 -216 81 -273c55 -68 132 -102 229 -102c150 0 276 89 290 262l213 -69
c-27 -242 -241 -350 -503 -350zM295 669h605c-3 131 -29 225 -79 282c-52 60 -125 90 -219 90c-92 0 -167 -31 -223 -95c-48 -53 -76 -146 -84 -277zM602 1417c131 0 213 -77 213 -169h-116c0 52 -30 87 -97 87c-73 0 -97 -36 -97 -87h-116c0 92 77 169 213 169z" />
    <glyph glyph-name="emacron" unicode="&#x113;" horiz-adv-x="1231" 
d="M606 -11c-195 0 -334 53 -417 159c-83 105 -125 253 -125 444c0 199 42 350 127 452c85 101 222 152 411 152c194 0 331 -51 412 -153s122 -251 122 -446c0 -29 -2 -54 -5 -76h-835c7 -125 34 -216 81 -273c55 -68 132 -102 229 -102c150 0 276 89 290 262l213 -69
c-27 -242 -241 -350 -503 -350zM295 669h605c-3 131 -29 225 -79 282c-52 60 -125 90 -219 90c-92 0 -167 -31 -223 -95c-48 -53 -76 -146 -84 -277zM295 1282v91h614v-91h-614z" />
    <glyph glyph-name="uni1E17" unicode="&#x1e17;" horiz-adv-x="1231" 
d="M606 -11c-195 0 -334 53 -417 159c-83 105 -125 253 -125 444c0 199 42 350 127 452c85 101 222 152 411 152c194 0 331 -51 412 -153s122 -251 122 -446c0 -29 -2 -54 -5 -76h-835c7 -125 34 -216 81 -273c55 -68 132 -102 229 -102c150 0 276 89 290 262l213 -69
c-27 -242 -241 -350 -503 -350zM295 669h605c-3 131 -29 225 -79 282c-52 60 -125 90 -219 90c-92 0 -167 -31 -223 -95c-48 -53 -76 -146 -84 -277zM295 1282v91h614v-91h-614zM444 1415l149 177h167l-201 -177h-115z" />
    <glyph glyph-name="uni1E15" unicode="&#x1e15;" horiz-adv-x="1231" 
d="M606 -11c-195 0 -334 53 -417 159c-83 105 -125 253 -125 444c0 199 42 350 127 452c85 101 222 152 411 152c194 0 331 -51 412 -153s122 -251 122 -446c0 -29 -2 -54 -5 -76h-835c7 -125 34 -216 81 -273c55 -68 132 -102 229 -102c150 0 276 89 290 262l213 -69
c-27 -242 -241 -350 -503 -350zM295 669h605c-3 131 -29 225 -79 282c-52 60 -125 90 -219 90c-92 0 -167 -31 -223 -95c-48 -53 -76 -146 -84 -277zM295 1282v91h614v-91h-614zM645 1425l-201 177h167l150 -177h-116z" />
    <glyph glyph-name="eogonek" unicode="&#x119;" horiz-adv-x="1231" 
d="M606 146c150 0 276 89 290 262l213 -69c-27 -241 -240 -349 -501 -350c-22 -36 -53 -104 -53 -146c0 -37 23 -59 76 -59c49 0 113 15 135 25l3 -120c-19 -8 -97 -24 -173 -24c-92 0 -178 32 -178 133c0 81 48 161 76 198c-137 17 -239 68 -305 152
c-83 105 -125 253 -125 444c0 199 42 350 127 452c85 101 222 152 411 152c194 0 331 -51 412 -153s122 -251 122 -446c0 -29 -2 -54 -5 -76h-835c7 -125 34 -216 81 -273c55 -68 132 -102 229 -102zM295 669h605c-3 131 -29 225 -79 282c-52 60 -125 90 -219 90
c-92 0 -167 -31 -223 -95c-48 -53 -76 -146 -84 -277z" />
    <glyph glyph-name="uni1EBD" unicode="&#x1ebd;" horiz-adv-x="1231" 
d="M606 -11c-195 0 -334 53 -417 159c-83 105 -125 253 -125 444c0 199 42 350 127 452c85 101 222 152 411 152c194 0 331 -51 412 -153s122 -251 122 -446c0 -29 -2 -54 -5 -76h-835c7 -125 34 -216 81 -273c55 -68 132 -102 229 -102c150 0 276 89 290 262l213 -69
c-27 -242 -241 -350 -503 -350zM295 669h605c-3 131 -29 225 -79 282c-52 60 -125 90 -219 90c-92 0 -167 -31 -223 -95c-48 -53 -76 -146 -84 -277zM721 1261c-110 0 -143 74 -214 74c-55 0 -75 -39 -77 -63h-118c2 50 31 158 182 158c104 0 130 -73 212 -73
c49 0 72 39 73 63h119c-2 -46 -28 -159 -177 -159z" />
    <glyph glyph-name="uni0259" unicode="&#x259;" horiz-adv-x="1231" 
d="M625 1040c-149 0 -276 -89 -290 -261l-212 68c27 242 241 350 503 350c194 0 333 -53 417 -159c83 -105 124 -253 124 -444c0 -199 -42 -350 -127 -452c-85 -101 -221 -152 -410 -152c-195 0 -332 51 -413 153s-121 251 -121 446c0 29 1 54 4 77h836
c-8 124 -35 215 -81 272c-56 68 -132 102 -230 102zM936 517h-605c3 -131 29 -225 79 -282c53 -60 126 -90 219 -90c92 0 167 31 224 95c48 53 75 146 83 277z" />
    <glyph glyph-name="f" unicode="f" horiz-adv-x="957" 
d="M271 0v1021h-242v164h244l-2 64c0 113 48 197 143 250c96 53 245 79 450 79h47v-158h-43c-133 0 -226 -13 -280 -39c-54 -27 -80 -71 -80 -133l-1 -63h334v-164h-333v-1021h-237z" />
    <glyph glyph-name="g" unicode="g" horiz-adv-x="1235" 
d="M581 -464c-329 0 -495 123 -495 391h233c0 -161 108 -236 262 -236s290 82 290 340v86c-11 -9 -23 -18 -36 -27c-93 -65 -206 -98 -339 -98c-147 0 -256 51 -327 153c-72 102 -107 252 -107 450c0 199 35 348 107 449c71 101 180 152 327 152c133 0 246 -33 339 -98
c15 -11 29 -21 42 -32l5 119h227v-1149c0 -372 -202 -500 -528 -500zM871 785c-3 63 -31 119 -86 168c-58 52 -127 78 -208 78c-86 0 -153 -30 -202 -91s-74 -176 -74 -346s25 -286 74 -347s116 -91 202 -91c81 0 150 26 208 78c55 49 83 105 86 169v382z" />
    <glyph glyph-name="gbreve" unicode="&#x11f;" horiz-adv-x="1235" 
d="M581 -464c-329 0 -495 123 -495 391h233c0 -161 108 -236 262 -236s290 82 290 340v86c-11 -9 -23 -18 -36 -27c-93 -65 -206 -98 -339 -98c-147 0 -256 51 -327 153c-72 102 -107 252 -107 450c0 199 35 348 107 449c71 101 180 152 327 152c133 0 246 -33 339 -98
c15 -11 29 -21 42 -32l5 119h227v-1149c0 -372 -202 -500 -528 -500zM871 785c-3 63 -31 119 -86 168c-58 52 -127 78 -208 78c-86 0 -153 -30 -202 -91s-74 -176 -74 -346s25 -286 74 -347s116 -91 202 -91c81 0 150 26 208 78c55 49 83 105 86 169v382zM601 1233
c-131 0 -212 78 -212 169h116c0 -51 30 -86 96 -86c73 0 97 36 97 86h116c0 -91 -76 -169 -213 -169z" />
    <glyph glyph-name="gcaron" unicode="&#x1e7;" horiz-adv-x="1235" 
d="M581 -464c-329 0 -495 123 -495 391h233c0 -161 108 -236 262 -236s290 82 290 340v86c-11 -9 -23 -18 -36 -27c-93 -65 -206 -98 -339 -98c-147 0 -256 51 -327 153c-72 102 -107 252 -107 450c0 199 35 348 107 449c71 101 180 152 327 152c133 0 246 -33 339 -98
c15 -11 29 -21 42 -32l5 119h227v-1149c0 -372 -202 -500 -528 -500zM871 785c-3 63 -31 119 -86 168c-58 52 -127 78 -208 78c-86 0 -153 -30 -202 -91s-74 -176 -74 -346s25 -286 74 -347s116 -91 202 -91c81 0 150 26 208 78c55 49 83 105 86 169v382zM524 1231l-206 185
h142l142 -132l140 132h143l-206 -185h-155z" />
    <glyph glyph-name="gcircumflex" unicode="&#x11d;" horiz-adv-x="1235" 
d="M581 -464c-329 0 -495 123 -495 391h233c0 -161 108 -236 262 -236s290 82 290 340v86c-11 -9 -23 -18 -36 -27c-93 -65 -206 -98 -339 -98c-147 0 -256 51 -327 153c-72 102 -107 252 -107 450c0 199 35 348 107 449c71 101 180 152 327 152c133 0 246 -33 339 -98
c15 -11 29 -21 42 -32l5 119h227v-1149c0 -372 -202 -500 -528 -500zM871 785c-3 63 -31 119 -86 168c-58 52 -127 78 -208 78c-86 0 -153 -30 -202 -91s-74 -176 -74 -346s25 -286 74 -347s116 -91 202 -91c81 0 150 26 208 78c55 49 83 105 86 169v382zM318 1236l206 185
h155l206 -185h-143l-140 132l-142 -132h-142z" />
    <glyph glyph-name="uni0123" unicode="&#x123;" horiz-adv-x="1235" 
d="M581 -464c-329 0 -495 123 -495 391h233c0 -161 108 -236 262 -236s290 82 290 340v86c-11 -9 -23 -18 -36 -27c-93 -65 -206 -98 -339 -98c-147 0 -256 51 -327 153c-72 102 -107 252 -107 450c0 199 35 348 107 449c71 101 180 152 327 152c133 0 246 -33 339 -98
c15 -11 29 -21 42 -32l5 119h227v-1149c0 -372 -202 -500 -528 -500zM871 785c-3 63 -31 119 -86 168c-58 52 -127 78 -208 78c-86 0 -153 -30 -202 -91s-74 -176 -74 -346s25 -286 74 -347s116 -91 202 -91c81 0 150 26 208 78c55 49 83 105 86 169v382zM734 1511l-94 -270
h-141l149 270h86z" />
    <glyph glyph-name="gdotaccent" unicode="&#x121;" horiz-adv-x="1235" 
d="M581 -464c-329 0 -495 123 -495 391h233c0 -161 108 -236 262 -236s290 82 290 340v86c-11 -9 -23 -18 -36 -27c-93 -65 -206 -98 -339 -98c-147 0 -256 51 -327 153c-72 102 -107 252 -107 450c0 199 35 348 107 449c71 101 180 152 327 152c133 0 246 -33 339 -98
c15 -11 29 -21 42 -32l5 119h227v-1149c0 -372 -202 -500 -528 -500zM871 785c-3 63 -31 119 -86 168c-58 52 -127 78 -208 78c-86 0 -153 -30 -202 -91s-74 -176 -74 -346s25 -286 74 -347s116 -91 202 -91c81 0 150 26 208 78c55 49 83 105 86 169v382zM602 1243
c-44 0 -79 35 -79 80c0 43 35 78 79 78c43 0 79 -35 79 -78c0 -44 -35 -80 -79 -80z" />
    <glyph glyph-name="uni1E21" unicode="&#x1e21;" horiz-adv-x="1235" 
d="M581 -464c-329 0 -495 123 -495 391h233c0 -161 108 -236 262 -236s290 82 290 340v86c-11 -9 -23 -18 -36 -27c-93 -65 -206 -98 -339 -98c-147 0 -256 51 -327 153c-72 102 -107 252 -107 450c0 199 35 348 107 449c71 101 180 152 327 152c133 0 246 -33 339 -98
c15 -11 29 -21 42 -32l5 119h227v-1149c0 -372 -202 -500 -528 -500zM871 785c-3 63 -31 119 -86 168c-58 52 -127 78 -208 78c-86 0 -153 -30 -202 -91s-74 -176 -74 -346s25 -286 74 -347s116 -91 202 -91c81 0 150 26 208 78c55 49 83 105 86 169v382zM295 1282v91h613
v-91h-613z" />
    <glyph glyph-name="h" unicode="h" horiz-adv-x="1204" 
d="M97 0v1570h237v-525c5 6 10 11 16 16c89 90 205 136 349 136c141 0 242 -47 301 -139c59 -93 88 -221 88 -384v-674h-236v664c0 136 -20 231 -61 286c-40 54 -100 82 -179 82c-80 0 -147 -31 -201 -91c-42 -47 -67 -104 -77 -170v-771h-237z" />
    <glyph glyph-name="hbar" unicode="&#x127;" horiz-adv-x="1146" 
d="M-7 1333v116h102v121h237v-121h352v-116h-352v-288c4 6 10 11 15 16c89 90 206 136 350 136c141 0 241 -47 300 -139c59 -93 89 -221 89 -384v-674h-237v664c0 136 -20 231 -60 286c-41 54 -100 82 -179 82c-81 0 -148 -31 -202 -91c-42 -47 -67 -104 -76 -170v-771h-237
v1333h-102z" />
    <glyph glyph-name="uni1E2B" unicode="&#x1e2b;" horiz-adv-x="1204" 
d="M97 0v1570h237v-525c5 6 10 11 16 16c89 90 205 136 349 136c141 0 242 -47 301 -139c59 -93 88 -221 88 -384v-674h-236v664c0 136 -20 231 -61 286c-40 54 -100 82 -179 82c-80 0 -147 -31 -201 -91c-42 -47 -67 -104 -77 -170v-771h-237zM607 -283
c-131 0 -212 77 -212 169h116c0 -52 30 -87 96 -87c73 0 97 36 97 87h116c0 -92 -76 -169 -213 -169z" />
    <glyph glyph-name="hcircumflex" unicode="&#x125;" horiz-adv-x="1204" 
d="M97 0v1570h237v-525c5 6 10 11 16 16c89 90 205 136 349 136c141 0 242 -47 301 -139c59 -93 88 -221 88 -384v-674h-236v664c0 136 -20 231 -61 286c-40 54 -100 82 -179 82c-80 0 -147 -31 -201 -91c-42 -47 -67 -104 -77 -170v-771h-237zM371 1544l206 185h155
l206 -185h-143l-140 132l-142 -132h-142z" />
    <glyph glyph-name="uni1E25" unicode="&#x1e25;" horiz-adv-x="1204" 
d="M97 0v1570h237v-525c5 6 10 11 16 16c89 90 205 136 349 136c141 0 242 -47 301 -139c59 -93 88 -221 88 -384v-674h-236v664c0 136 -20 231 -61 286c-40 54 -100 82 -179 82c-80 0 -147 -31 -201 -91c-42 -47 -67 -104 -77 -170v-771h-237zM608 -284
c-44 0 -79 35 -79 80c0 43 35 78 79 78c43 0 79 -35 79 -78c0 -44 -35 -80 -79 -80z" />
    <glyph glyph-name="i" unicode="i" horiz-adv-x="513" 
d="M126 0v1186h237v-1186h-237zM126 1518h237v-194h-237v194z" />
    <glyph glyph-name="dotlessi" unicode="&#x131;" horiz-adv-x="479" 
d="M102 0v1186h238v-1186h-238z" />
    <glyph glyph-name="iacute" unicode="&#xed;" horiz-adv-x="479" 
d="M102 0v1186h238v-1186h-238zM63 1227l149 178h167l-201 -178h-115z" />
    <glyph glyph-name="ibreve" unicode="&#x12d;" horiz-adv-x="479" 
d="M102 0v1186h238v-1186h-238zM221 1233c-131 0 -213 78 -213 169h116c0 -51 30 -86 97 -86c73 0 97 36 97 86h116c0 -91 -77 -169 -213 -169z" />
    <glyph glyph-name="uni01D0" unicode="&#x1d0;" horiz-adv-x="479" 
d="M102 0v1186h238v-1186h-238zM144 1231l-206 185h142l142 -132l140 132h143l-207 -185h-154z" />
    <glyph glyph-name="icircumflex" unicode="&#xee;" horiz-adv-x="479" 
d="M102 0v1186h238v-1186h-238zM-62 1236l206 185h154l207 -185h-143l-141 132l-141 -132h-142z" />
    <glyph glyph-name="uni0209" unicode="&#x209;" horiz-adv-x="479" 
d="M102 0v1186h238v-1186h-238zM137 1247l-202 177h168l149 -177h-115zM391 1247l-202 177h168l149 -177h-115z" />
    <glyph glyph-name="idieresis" unicode="&#xef;" horiz-adv-x="479" 
d="M102 0v1186h238v-1186h-238zM54 1251c-43 0 -77 34 -77 77c0 42 34 77 77 77c42 0 77 -35 77 -77c0 -43 -35 -77 -77 -77zM386 1251c-43 0 -78 34 -78 77c0 42 35 77 78 77c42 0 77 -35 77 -77c0 -43 -35 -77 -77 -77z" />
    <glyph glyph-name="uni1E2F" unicode="&#x1e2f;" horiz-adv-x="479" 
d="M102 0v1186h238v-1186h-238zM63 1448l149 177h167l-201 -177h-115zM54 1251c-43 0 -77 34 -77 77c0 42 34 77 77 77c42 0 77 -35 77 -77c0 -43 -35 -77 -77 -77zM386 1251c-43 0 -78 34 -78 77c0 42 35 77 78 77c42 0 77 -35 77 -77c0 -43 -35 -77 -77 -77z" />
    <glyph glyph-name="i.loclTRK" horiz-adv-x="479" 
d="M102 0v1186h238v-1186h-238zM222 1243c-44 0 -80 35 -80 80c0 43 35 78 80 78c43 0 78 -35 78 -78c0 -44 -35 -80 -78 -80z" />
    <glyph glyph-name="uni1ECB" unicode="&#x1ecb;" horiz-adv-x="513" 
d="M126 0v1186h237v-1186h-237zM126 1518h237v-194h-237v194zM255 -284c-44 0 -80 35 -80 80c0 43 35 78 80 78c43 0 78 -35 78 -78c0 -44 -35 -80 -78 -80z" />
    <glyph glyph-name="igrave" unicode="&#xec;" horiz-adv-x="479" 
d="M102 0v1186h238v-1186h-238zM264 1237l-201 178h167l150 -178h-116z" />
    <glyph glyph-name="uni1EC9" unicode="&#x1ec9;" horiz-adv-x="479" 
d="M102 0v1186h238v-1186h-238zM96 1513c251 0 370 -19 370 -109c0 -81 -121 -106 -207 -106v-59h-88v120c102 0 178 9 178 38c0 36 -74 40 -253 40v76z" />
    <glyph glyph-name="uni020B" unicode="&#x20b;" horiz-adv-x="479" 
d="M102 0v1186h238v-1186h-238zM221 1417c131 0 213 -77 213 -169h-116c0 52 -30 87 -97 87c-73 0 -97 -36 -97 -87h-116c0 92 77 169 213 169z" />
    <glyph glyph-name="imacron" unicode="&#x12b;" horiz-adv-x="479" 
d="M102 0v1186h238v-1186h-238zM-14 1282v91h540v-91h-540z" />
    <glyph glyph-name="iogonek" unicode="&#x12f;" horiz-adv-x="479" 
d="M102 0v1186h238v-1186c-21 -31 -60 -110 -60 -157c0 -37 23 -59 76 -59c49 0 113 15 135 25l3 -120c-19 -8 -97 -24 -173 -24c-92 0 -178 32 -178 133c0 85 52 168 79 202h-120zM103 1518h238v-194h-238v194z" />
    <glyph glyph-name="itilde" unicode="&#x129;" horiz-adv-x="479" 
d="M102 0v1186h238v-1186h-238zM340 1261c-110 0 -143 74 -214 74c-55 0 -75 -39 -77 -63h-118c2 50 31 158 182 158c104 0 130 -73 212 -73c49 0 72 39 73 63h119c-2 -46 -28 -159 -177 -159z" />
    <glyph glyph-name="j" unicode="j" horiz-adv-x="531" 
d="M-130 -459v164c88 0 155 20 203 60c48 39 72 114 72 224v1197h236v-1188c0 -177 -43 -298 -130 -362s-214 -95 -381 -95zM145 1518h237v-194h-237v194z" />
    <glyph glyph-name="uni0237" unicode="&#x237;" horiz-adv-x="531" 
d="M-130 -459v164c88 0 155 20 203 60c48 39 72 114 72 224v1197h236v-1188c0 -177 -43 -298 -130 -362s-214 -95 -381 -95z" />
    <glyph glyph-name="jcircumflex" unicode="&#x135;" horiz-adv-x="531" 
d="M-130 -459v164c88 0 155 20 203 60c48 39 72 114 72 224v1197h236v-1188c0 -177 -43 -298 -130 -362s-214 -95 -381 -95zM-21 1237l206 185h154l207 -185h-143l-140 132l-142 -132h-142z" />
    <glyph glyph-name="k" unicode="k" horiz-adv-x="1158" 
d="M97 0v1570h237v-884l467 500h277l-388 -435l404 -751h-253l-312 599l-195 -203v-396h-237z" />
    <glyph glyph-name="uni0137" unicode="&#x137;" horiz-adv-x="1158" 
d="M97 0v1570h237v-884l467 500h277l-388 -435l404 -751h-253l-312 599l-195 -203v-396h-237zM460 -321l96 263h148l-153 -263h-91z" />
    <glyph glyph-name="kgreenlandic" unicode="&#x138;" horiz-adv-x="1170" 
d="M94 0v1186h238v-553l512 553h272l-562 -593l564 -593h-272l-514 553v-553h-238z" />
    <glyph glyph-name="l" unicode="l" horiz-adv-x="491" 
d="M122 0v1570h237v-1570h-237z" />
    <glyph glyph-name="l.ss01" horiz-adv-x="696" 
d="M443 -12c-105 0 -188 21 -248 65c-60 43 -90 117 -90 221v1296h237v-1252c0 -71 13 -119 40 -143s67 -36 120 -36c45 0 95 5 151 15v-152c-79 -10 -149 -14 -210 -14z" />
    <glyph glyph-name="lacute" unicode="&#x13a;" horiz-adv-x="491" 
d="M122 0v1570h237v-1570h-237zM83 1612l149 178h168l-201 -178h-116z" />
    <glyph glyph-name="lcaron" unicode="&#x13e;" horiz-adv-x="491" 
d="M122 0v1570h237v-1570h-237zM164 1616l-206 185h142l142 -132l140 132h143l-207 -185h-154z" />
    <glyph glyph-name="uni013C" unicode="&#x13c;" horiz-adv-x="491" 
d="M122 0v1570h237v-1570h-237zM107 -321l96 263h148l-153 -263h-91z" />
    <glyph glyph-name="ldot" unicode="&#x140;" horiz-adv-x="695" 
d="M122 0v1570h237v-1570h-237zM429 787h223v-202h-223v202z" />
    <glyph glyph-name="uni1E37" unicode="&#x1e37;" horiz-adv-x="491" 
d="M122 0v1570h237v-1570h-237zM243 -284c-44 0 -80 35 -80 80c0 43 35 78 80 78c43 0 78 -35 78 -78c0 -44 -35 -80 -78 -80z" />
    <glyph glyph-name="uni01C9" unicode="&#x1c9;" horiz-adv-x="1023" 
d="M361 -459v164c88 0 156 20 203 60c48 39 72 114 72 224v1197h236v-1188c0 -177 -43 -298 -130 -362s-214 -95 -381 -95zM122 0v1570h237v-1570h-237zM636 1518h237v-194h-237v194z" />
    <glyph glyph-name="uni1E3B" unicode="&#x1e3b;" horiz-adv-x="491" 
d="M122 0v1570h237v-1570h-237zM-65 -219v90h614v-90h-614z" />
    <glyph glyph-name="lslash" unicode="&#x142;" horiz-adv-x="506" 
d="M1 408v189l127 87v886h237v-724l127 87v-189l-127 -87v-657h-237v495z" />
    <glyph glyph-name="m" unicode="m" horiz-adv-x="1794" 
d="M97 0v1185h226l8 -132c2 2 4 4 5 6c87 91 192 137 314 137c140 0 234 -45 283 -133c11 -20 21 -40 29 -62c14 19 30 38 48 57c86 92 191 138 314 138c139 0 233 -45 281 -133c49 -88 73 -199 73 -334v-729h-237v699c0 114 -15 198 -45 251c-30 54 -80 81 -150 81
c-71 0 -129 -30 -174 -89c-38 -50 -60 -119 -65 -207v-6v-729h-236v699c0 114 -16 198 -47 251c-30 54 -81 81 -151 81c-71 0 -129 -30 -174 -89c-37 -49 -59 -115 -65 -199v-743h-237z" />
    <glyph glyph-name="uni1E43" unicode="&#x1e43;" horiz-adv-x="1794" 
d="M97 0v1185h226l8 -132c2 2 4 4 5 6c87 91 192 137 314 137c140 0 234 -45 283 -133c11 -20 21 -40 29 -62c14 19 30 38 48 57c86 92 191 138 314 138c139 0 233 -45 281 -133c49 -88 73 -199 73 -334v-729h-237v699c0 114 -15 198 -45 251c-30 54 -80 81 -150 81
c-71 0 -129 -30 -174 -89c-38 -50 -60 -119 -65 -207v-6v-729h-236v699c0 114 -16 198 -47 251c-30 54 -81 81 -151 81c-71 0 -129 -30 -174 -89c-37 -49 -59 -115 -65 -199v-743h-237zM917 -284c-44 0 -80 35 -80 80c0 43 35 78 80 78c43 0 78 -35 78 -78
c0 -44 -35 -80 -78 -80z" />
    <glyph glyph-name="n" unicode="n" horiz-adv-x="1200" 
d="M97 0v1185h225l7 -141c5 6 11 12 17 17c89 90 205 136 349 136c141 0 242 -47 301 -139c59 -93 88 -221 88 -384v-674h-236v664c0 136 -20 231 -61 286c-40 54 -100 82 -179 82c-80 0 -147 -31 -201 -91c-37 -42 -62 -92 -73 -149v-792h-237z" />
    <glyph glyph-name="nacute" unicode="&#x144;" horiz-adv-x="1200" 
d="M97 0v1185h225l7 -141c5 6 11 12 17 17c89 90 205 136 349 136c141 0 242 -47 301 -139c59 -93 88 -221 88 -384v-674h-236v664c0 136 -20 231 -61 286c-40 54 -100 82 -179 82c-80 0 -147 -31 -201 -91c-37 -42 -62 -92 -73 -149v-792h-237zM433 1227l149 178h167
l-201 -178h-115z" />
    <glyph glyph-name="ncaron" unicode="&#x148;" horiz-adv-x="1200" 
d="M97 0v1185h225l7 -141c5 6 11 12 17 17c89 90 205 136 349 136c141 0 242 -47 301 -139c59 -93 88 -221 88 -384v-674h-236v664c0 136 -20 231 -61 286c-40 54 -100 82 -179 82c-80 0 -147 -31 -201 -91c-37 -42 -62 -92 -73 -149v-792h-237zM514 1231l-206 185h142
l142 -132l140 132h143l-207 -185h-154z" />
    <glyph glyph-name="uni0146" unicode="&#x146;" horiz-adv-x="1200" 
d="M97 0v1185h225l7 -141c5 6 11 12 17 17c89 90 205 136 349 136c141 0 242 -47 301 -139c59 -93 88 -221 88 -384v-674h-236v664c0 136 -20 231 -61 286c-40 54 -100 82 -179 82c-80 0 -147 -31 -201 -91c-37 -42 -62 -92 -73 -149v-792h-237zM456 -321l96 263h148
l-153 -263h-91z" />
    <glyph glyph-name="uni1E45" unicode="&#x1e45;" horiz-adv-x="1200" 
d="M97 0v1185h225l7 -141c5 6 11 12 17 17c89 90 205 136 349 136c141 0 242 -47 301 -139c59 -93 88 -221 88 -384v-674h-236v664c0 136 -20 231 -61 286c-40 54 -100 82 -179 82c-80 0 -147 -31 -201 -91c-37 -42 -62 -92 -73 -149v-792h-237zM592 1243
c-44 0 -80 35 -80 80c0 43 35 78 80 78c43 0 78 -35 78 -78c0 -44 -35 -80 -78 -80z" />
    <glyph glyph-name="uni1E47" unicode="&#x1e47;" horiz-adv-x="1200" 
d="M97 0v1185h225l7 -141c5 6 11 12 17 17c89 90 205 136 349 136c141 0 242 -47 301 -139c59 -93 88 -221 88 -384v-674h-236v664c0 136 -20 231 -61 286c-40 54 -100 82 -179 82c-80 0 -147 -31 -201 -91c-37 -42 -62 -92 -73 -149v-792h-237zM592 -284
c-44 0 -80 35 -80 80c0 43 35 78 80 78c43 0 78 -35 78 -78c0 -44 -35 -80 -78 -80z" />
    <glyph glyph-name="eng" unicode="&#x14b;" horiz-adv-x="1201" 
d="M553 -423v151c182 0 290 91 290 272h5v664c0 136 -20 231 -61 286c-40 54 -100 82 -179 82c-80 0 -147 -31 -201 -91c-37 -42 -62 -92 -73 -149v-792h-237v1185h225l7 -141c5 6 11 12 17 17c89 90 205 136 349 136c141 0 242 -47 301 -139c59 -93 88 -221 88 -384v-674
h-4c0 -318 -181 -423 -527 -423z" />
    <glyph glyph-name="uni01CC" unicode="&#x1cc;" horiz-adv-x="1732" 
d="M97 0v1185h225l7 -141c5 6 11 12 17 17c89 90 205 136 349 136c141 0 242 -47 301 -139c59 -93 88 -221 88 -384v-674h-236v664c0 136 -20 231 -61 286c-40 54 -100 82 -179 82c-80 0 -147 -31 -201 -91c-37 -42 -62 -92 -73 -149v-792h-237zM1070 -459v164
c88 0 156 20 203 60c48 39 72 114 72 224v1197h236v-1188c0 -177 -43 -298 -130 -362s-214 -95 -381 -95zM1345 1518h237v-194h-237v194z" />
    <glyph glyph-name="uni1E49" unicode="&#x1e49;" horiz-adv-x="1200" 
d="M97 0v1185h225l7 -141c5 6 11 12 17 17c89 90 205 136 349 136c141 0 242 -47 301 -139c59 -93 88 -221 88 -384v-674h-236v664c0 136 -20 231 -61 286c-40 54 -100 82 -179 82c-80 0 -147 -31 -201 -91c-37 -42 -62 -92 -73 -149v-792h-237zM284 -219v90h614v-90h-614z
" />
    <glyph glyph-name="ntilde" unicode="&#xf1;" horiz-adv-x="1200" 
d="M97 0v1185h225l7 -141c5 6 11 12 17 17c89 90 205 136 349 136c141 0 242 -47 301 -139c59 -93 88 -221 88 -384v-674h-236v664c0 136 -20 231 -61 286c-40 54 -100 82 -179 82c-80 0 -147 -31 -201 -91c-37 -42 -62 -92 -73 -149v-792h-237zM710 1261
c-110 0 -143 74 -214 74c-55 0 -75 -39 -77 -63h-118c2 50 31 158 182 158c104 0 130 -73 212 -73c49 0 72 39 73 63h119c-2 -46 -28 -159 -177 -159z" />
    <glyph glyph-name="o" unicode="o" horiz-adv-x="1237" 
d="M605 -9c-191 0 -329 49 -415 149c-85 99 -128 251 -128 456s43 356 128 455c86 98 224 147 415 147c190 0 328 -49 413 -147c86 -99 129 -250 129 -455s-43 -357 -129 -456c-85 -100 -223 -149 -413 -149zM605 153c92 0 166 32 221 94c56 63 84 179 84 348
s-28 284 -84 347c-55 62 -129 94 -221 94c-93 0 -167 -32 -223 -94c-55 -63 -83 -178 -83 -347s28 -285 83 -348c56 -62 130 -94 223 -94z" />
    <glyph glyph-name="oacute" unicode="&#xf3;" horiz-adv-x="1237" 
d="M605 -9c-191 0 -329 49 -415 149c-85 99 -128 251 -128 456s43 356 128 455c86 98 224 147 415 147c190 0 328 -49 413 -147c86 -99 129 -250 129 -455s-43 -357 -129 -456c-85 -100 -223 -149 -413 -149zM605 153c92 0 166 32 221 94c56 63 84 179 84 348
s-28 284 -84 347c-55 62 -129 94 -221 94c-93 0 -167 -32 -223 -94c-55 -63 -83 -178 -83 -347s28 -285 83 -348c56 -62 130 -94 223 -94zM446 1228l149 178h168l-201 -178h-116z" />
    <glyph glyph-name="obreve" unicode="&#x14f;" horiz-adv-x="1237" 
d="M605 -9c-191 0 -329 49 -415 149c-85 99 -128 251 -128 456s43 356 128 455c86 98 224 147 415 147c190 0 328 -49 413 -147c86 -99 129 -250 129 -455s-43 -357 -129 -456c-85 -100 -223 -149 -413 -149zM605 153c92 0 166 32 221 94c56 63 84 179 84 348
s-28 284 -84 347c-55 62 -129 94 -221 94c-93 0 -167 -32 -223 -94c-55 -63 -83 -178 -83 -347s28 -285 83 -348c56 -62 130 -94 223 -94zM604 1234c-131 0 -212 78 -212 169h116c0 -51 30 -86 96 -86c73 0 97 36 97 86h116c0 -91 -76 -169 -213 -169z" />
    <glyph glyph-name="uni01D2" unicode="&#x1d2;" horiz-adv-x="1237" 
d="M605 -9c-191 0 -329 49 -415 149c-85 99 -128 251 -128 456s43 356 128 455c86 98 224 147 415 147c190 0 328 -49 413 -147c86 -99 129 -250 129 -455s-43 -357 -129 -456c-85 -100 -223 -149 -413 -149zM605 153c92 0 166 32 221 94c56 63 84 179 84 348
s-28 284 -84 347c-55 62 -129 94 -221 94c-93 0 -167 -32 -223 -94c-55 -63 -83 -178 -83 -347s28 -285 83 -348c56 -62 130 -94 223 -94zM527 1232l-206 185h142l142 -131l140 131h143l-207 -185h-154z" />
    <glyph glyph-name="ocircumflex" unicode="&#xf4;" horiz-adv-x="1237" 
d="M605 -9c-191 0 -329 49 -415 149c-85 99 -128 251 -128 456s43 356 128 455c86 98 224 147 415 147c190 0 328 -49 413 -147c86 -99 129 -250 129 -455s-43 -357 -129 -456c-85 -100 -223 -149 -413 -149zM605 153c92 0 166 32 221 94c56 63 84 179 84 348
s-28 284 -84 347c-55 62 -129 94 -221 94c-93 0 -167 -32 -223 -94c-55 -63 -83 -178 -83 -347s28 -285 83 -348c56 -62 130 -94 223 -94zM321 1237l206 185h154l207 -185h-143l-140 132l-142 -132h-142z" />
    <glyph glyph-name="uni1ED1" unicode="&#x1ed1;" horiz-adv-x="1237" 
d="M605 -9c-191 0 -329 49 -415 149c-85 99 -128 251 -128 456s43 356 128 455c86 98 224 147 415 147c190 0 328 -49 413 -147c86 -99 129 -250 129 -455s-43 -357 -129 -456c-85 -100 -223 -149 -413 -149zM605 153c92 0 166 32 221 94c56 63 84 179 84 348
s-28 284 -84 347c-55 62 -129 94 -221 94c-93 0 -167 -32 -223 -94c-55 -63 -83 -178 -83 -347s28 -285 83 -348c56 -62 130 -94 223 -94zM321 1237l206 185h154l207 -185h-143l-140 132l-142 -132h-142zM446 1464l149 178h168l-201 -178h-116z" />
    <glyph glyph-name="uni1ED9" unicode="&#x1ed9;" horiz-adv-x="1237" 
d="M605 -9c-191 0 -329 49 -415 149c-85 99 -128 251 -128 456s43 356 128 455c86 98 224 147 415 147c190 0 328 -49 413 -147c86 -99 129 -250 129 -455s-43 -357 -129 -456c-85 -100 -223 -149 -413 -149zM605 153c92 0 166 32 221 94c56 63 84 179 84 348
s-28 284 -84 347c-55 62 -129 94 -221 94c-93 0 -167 -32 -223 -94c-55 -63 -83 -178 -83 -347s28 -285 83 -348c56 -62 130 -94 223 -94zM321 1237l206 185h154l207 -185h-143l-140 132l-142 -132h-142zM610 -284c-44 0 -79 35 -79 80c0 43 35 78 79 78c43 0 79 -35 79 -78
c0 -44 -35 -80 -79 -80z" />
    <glyph glyph-name="uni1ED3" unicode="&#x1ed3;" horiz-adv-x="1237" 
d="M605 -9c-191 0 -329 49 -415 149c-85 99 -128 251 -128 456s43 356 128 455c86 98 224 147 415 147c190 0 328 -49 413 -147c86 -99 129 -250 129 -455s-43 -357 -129 -456c-85 -100 -223 -149 -413 -149zM605 153c92 0 166 32 221 94c56 63 84 179 84 348
s-28 284 -84 347c-55 62 -129 94 -221 94c-93 0 -167 -32 -223 -94c-55 -63 -83 -178 -83 -347s28 -285 83 -348c56 -62 130 -94 223 -94zM321 1237l206 185h154l207 -185h-143l-140 132l-142 -132h-142zM647 1474l-201 178h167l150 -178h-116z" />
    <glyph glyph-name="uni1ED5" unicode="&#x1ed5;" horiz-adv-x="1237" 
d="M605 -9c-191 0 -329 49 -415 149c-85 99 -128 251 -128 456s43 356 128 455c86 98 224 147 415 147c190 0 328 -49 413 -147c86 -99 129 -250 129 -455s-43 -357 -129 -456c-85 -100 -223 -149 -413 -149zM605 153c92 0 166 32 221 94c56 63 84 179 84 348
s-28 284 -84 347c-55 62 -129 94 -221 94c-93 0 -167 -32 -223 -94c-55 -63 -83 -178 -83 -347s28 -285 83 -348c56 -62 130 -94 223 -94zM480 1750c250 0 369 -19 369 -108c0 -82 -121 -107 -207 -107v-59h-88v120c102 0 178 9 178 39c0 35 -74 39 -252 39v76zM321 1237
l206 185h154l207 -185h-143l-140 132l-142 -132h-142z" />
    <glyph glyph-name="uni1ED7" unicode="&#x1ed7;" horiz-adv-x="1237" 
d="M605 -9c-191 0 -329 49 -415 149c-85 99 -128 251 -128 456s43 356 128 455c86 98 224 147 415 147c190 0 328 -49 413 -147c86 -99 129 -250 129 -455s-43 -357 -129 -456c-85 -100 -223 -149 -413 -149zM605 153c92 0 166 32 221 94c56 63 84 179 84 348
s-28 284 -84 347c-55 62 -129 94 -221 94c-93 0 -167 -32 -223 -94c-55 -63 -83 -178 -83 -347s28 -285 83 -348c56 -62 130 -94 223 -94zM723 1498c-110 0 -142 74 -214 74c-55 0 -75 -38 -76 -62h-119c2 49 32 157 182 157c105 0 130 -73 212 -73c50 0 72 39 74 63h118
c-1 -46 -28 -159 -177 -159zM321 1237l206 185h154l207 -185h-143l-140 132l-142 -132h-142z" />
    <glyph glyph-name="uni020D" unicode="&#x20d;" horiz-adv-x="1237" 
d="M605 -9c-191 0 -329 49 -415 149c-85 99 -128 251 -128 456s43 356 128 455c86 98 224 147 415 147c190 0 328 -49 413 -147c86 -99 129 -250 129 -455s-43 -357 -129 -456c-85 -100 -223 -149 -413 -149zM605 153c92 0 166 32 221 94c56 63 84 179 84 348
s-28 284 -84 347c-55 62 -129 94 -221 94c-93 0 -167 -32 -223 -94c-55 -63 -83 -178 -83 -347s28 -285 83 -348c56 -62 130 -94 223 -94zM520 1248l-202 178h168l149 -178h-115zM774 1248l-201 178h167l150 -178h-116z" />
    <glyph glyph-name="odieresis" unicode="&#xf6;" horiz-adv-x="1237" 
d="M605 -9c-191 0 -329 49 -415 149c-85 99 -128 251 -128 456s43 356 128 455c86 98 224 147 415 147c190 0 328 -49 413 -147c86 -99 129 -250 129 -455s-43 -357 -129 -456c-85 -100 -223 -149 -413 -149zM605 153c92 0 166 32 221 94c56 63 84 179 84 348
s-28 284 -84 347c-55 62 -129 94 -221 94c-93 0 -167 -32 -223 -94c-55 -63 -83 -178 -83 -347s28 -285 83 -348c56 -62 130 -94 223 -94zM437 1252c-43 0 -77 34 -77 77s34 77 77 77s77 -34 77 -77s-34 -77 -77 -77zM769 1252c-43 0 -77 34 -77 77s34 77 77 77
c42 0 77 -34 77 -77s-35 -77 -77 -77z" />
    <glyph glyph-name="uni022B" unicode="&#x22b;" horiz-adv-x="1237" 
d="M605 -9c-191 0 -329 49 -415 149c-85 99 -128 251 -128 456s43 356 128 455c86 98 224 147 415 147c190 0 328 -49 413 -147c86 -99 129 -250 129 -455s-43 -357 -129 -456c-85 -100 -223 -149 -413 -149zM605 153c92 0 166 32 221 94c56 63 84 179 84 348
s-28 284 -84 347c-55 62 -129 94 -221 94c-93 0 -167 -32 -223 -94c-55 -63 -83 -178 -83 -347s28 -285 83 -348c56 -62 130 -94 223 -94zM298 1504v90h613v-90h-613zM437 1252c-43 0 -77 34 -77 77s34 77 77 77s77 -34 77 -77s-34 -77 -77 -77zM769 1252
c-43 0 -77 34 -77 77s34 77 77 77c42 0 77 -34 77 -77s-35 -77 -77 -77z" />
    <glyph glyph-name="uni0231" unicode="&#x231;" horiz-adv-x="1237" 
d="M605 -9c-191 0 -329 49 -415 149c-85 99 -128 251 -128 456s43 356 128 455c86 98 224 147 415 147c190 0 328 -49 413 -147c86 -99 129 -250 129 -455s-43 -357 -129 -456c-85 -100 -223 -149 -413 -149zM605 153c92 0 166 32 221 94c56 63 84 179 84 348
s-28 284 -84 347c-55 62 -129 94 -221 94c-93 0 -167 -32 -223 -94c-55 -63 -83 -178 -83 -347s28 -285 83 -348c56 -62 130 -94 223 -94zM298 1499v91h613v-91h-613zM605 1244c-44 0 -80 35 -80 80c0 43 35 78 80 78c43 0 78 -35 78 -78c0 -44 -35 -80 -78 -80z" />
    <glyph glyph-name="uni1ECD" unicode="&#x1ecd;" horiz-adv-x="1237" 
d="M605 -9c-191 0 -329 49 -415 149c-85 99 -128 251 -128 456s43 356 128 455c86 98 224 147 415 147c190 0 328 -49 413 -147c86 -99 129 -250 129 -455s-43 -357 -129 -456c-85 -100 -223 -149 -413 -149zM605 153c92 0 166 32 221 94c56 63 84 179 84 348
s-28 284 -84 347c-55 62 -129 94 -221 94c-93 0 -167 -32 -223 -94c-55 -63 -83 -178 -83 -347s28 -285 83 -348c56 -62 130 -94 223 -94zM610 -284c-44 0 -79 35 -79 80c0 43 35 78 79 78c43 0 79 -35 79 -78c0 -44 -35 -80 -79 -80z" />
    <glyph glyph-name="ograve" unicode="&#xf2;" horiz-adv-x="1237" 
d="M605 -9c-191 0 -329 49 -415 149c-85 99 -128 251 -128 456s43 356 128 455c86 98 224 147 415 147c190 0 328 -49 413 -147c86 -99 129 -250 129 -455s-43 -357 -129 -456c-85 -100 -223 -149 -413 -149zM605 153c92 0 166 32 221 94c56 63 84 179 84 348
s-28 284 -84 347c-55 62 -129 94 -221 94c-93 0 -167 -32 -223 -94c-55 -63 -83 -178 -83 -347s28 -285 83 -348c56 -62 130 -94 223 -94zM647 1238l-201 178h167l150 -178h-116z" />
    <glyph glyph-name="uni1ECF" unicode="&#x1ecf;" horiz-adv-x="1237" 
d="M605 -9c-191 0 -329 49 -415 149c-85 99 -128 251 -128 456s43 356 128 455c86 98 224 147 415 147c190 0 328 -49 413 -147c86 -99 129 -250 129 -455s-43 -357 -129 -456c-85 -100 -223 -149 -413 -149zM605 153c92 0 166 32 221 94c56 63 84 179 84 348
s-28 284 -84 347c-55 62 -129 94 -221 94c-93 0 -167 -32 -223 -94c-55 -63 -83 -178 -83 -347s28 -285 83 -348c56 -62 130 -94 223 -94zM480 1514c250 0 369 -19 369 -108c0 -82 -121 -107 -207 -107v-59h-88v120c102 0 178 9 178 39c0 35 -74 39 -252 39v76z" />
    <glyph glyph-name="ohorn" unicode="&#x1a1;" horiz-adv-x="1366" 
d="M605 -9c-191 0 -329 49 -415 149c-85 99 -128 251 -128 456s43 356 128 455c86 98 224 147 415 147c179 0 312 -44 399 -132c151 4 202 49 202 160h138c0 -146 -96 -222 -281 -238c56 -96 84 -226 84 -392c0 -205 -43 -357 -129 -456c-85 -100 -223 -149 -413 -149z
M605 153c92 0 166 32 221 94c56 63 84 179 84 348s-28 284 -84 347c-55 62 -129 94 -221 94c-93 0 -167 -32 -223 -94c-55 -63 -83 -178 -83 -347s28 -285 83 -348c56 -62 130 -94 223 -94z" />
    <glyph glyph-name="uni1EDB" unicode="&#x1edb;" horiz-adv-x="1366" 
d="M605 -9c-191 0 -329 49 -415 149c-85 99 -128 251 -128 456s43 356 128 455c86 98 224 147 415 147c179 0 312 -44 399 -132c151 4 202 49 202 160h138c0 -146 -96 -222 -281 -238c56 -96 84 -226 84 -392c0 -205 -43 -357 -129 -456c-85 -100 -223 -149 -413 -149z
M605 153c92 0 166 32 221 94c56 63 84 179 84 348s-28 284 -84 347c-55 62 -129 94 -221 94c-93 0 -167 -32 -223 -94c-55 -63 -83 -178 -83 -347s28 -285 83 -348c56 -62 130 -94 223 -94zM446 1228l149 178h168l-201 -178h-116z" />
    <glyph glyph-name="uni1EE3" unicode="&#x1ee3;" horiz-adv-x="1366" 
d="M605 -9c-191 0 -329 49 -415 149c-85 99 -128 251 -128 456s43 356 128 455c86 98 224 147 415 147c179 0 312 -44 399 -132c151 4 202 49 202 160h138c0 -146 -96 -222 -281 -238c56 -96 84 -226 84 -392c0 -205 -43 -357 -129 -456c-85 -100 -223 -149 -413 -149z
M605 153c92 0 166 32 221 94c56 63 84 179 84 348s-28 284 -84 347c-55 62 -129 94 -221 94c-93 0 -167 -32 -223 -94c-55 -63 -83 -178 -83 -347s28 -285 83 -348c56 -62 130 -94 223 -94zM610 -284c-44 0 -79 35 -79 80c0 43 35 78 79 78c43 0 79 -35 79 -78
c0 -44 -35 -80 -79 -80z" />
    <glyph glyph-name="uni1EDD" unicode="&#x1edd;" horiz-adv-x="1366" 
d="M605 -9c-191 0 -329 49 -415 149c-85 99 -128 251 -128 456s43 356 128 455c86 98 224 147 415 147c179 0 312 -44 399 -132c151 4 202 49 202 160h138c0 -146 -96 -222 -281 -238c56 -96 84 -226 84 -392c0 -205 -43 -357 -129 -456c-85 -100 -223 -149 -413 -149z
M605 153c92 0 166 32 221 94c56 63 84 179 84 348s-28 284 -84 347c-55 62 -129 94 -221 94c-93 0 -167 -32 -223 -94c-55 -63 -83 -178 -83 -347s28 -285 83 -348c56 -62 130 -94 223 -94zM647 1238l-201 178h167l150 -178h-116z" />
    <glyph glyph-name="uni1EDF" unicode="&#x1edf;" horiz-adv-x="1366" 
d="M605 -9c-191 0 -329 49 -415 149c-85 99 -128 251 -128 456s43 356 128 455c86 98 224 147 415 147c179 0 312 -44 399 -132c151 4 202 49 202 160h138c0 -146 -96 -222 -281 -238c56 -96 84 -226 84 -392c0 -205 -43 -357 -129 -456c-85 -100 -223 -149 -413 -149z
M605 153c92 0 166 32 221 94c56 63 84 179 84 348s-28 284 -84 347c-55 62 -129 94 -221 94c-93 0 -167 -32 -223 -94c-55 -63 -83 -178 -83 -347s28 -285 83 -348c56 -62 130 -94 223 -94zM480 1514c250 0 369 -19 369 -108c0 -82 -121 -107 -207 -107v-59h-88v120
c102 0 178 9 178 39c0 35 -74 39 -252 39v76z" />
    <glyph glyph-name="uni1EE1" unicode="&#x1ee1;" horiz-adv-x="1366" 
d="M605 -9c-191 0 -329 49 -415 149c-85 99 -128 251 -128 456s43 356 128 455c86 98 224 147 415 147c179 0 312 -44 399 -132c151 4 202 49 202 160h138c0 -146 -96 -222 -281 -238c56 -96 84 -226 84 -392c0 -205 -43 -357 -129 -456c-85 -100 -223 -149 -413 -149z
M605 153c92 0 166 32 221 94c56 63 84 179 84 348s-28 284 -84 347c-55 62 -129 94 -221 94c-93 0 -167 -32 -223 -94c-55 -63 -83 -178 -83 -347s28 -285 83 -348c56 -62 130 -94 223 -94zM723 1262c-110 0 -142 74 -214 74c-55 0 -75 -38 -76 -62h-119
c2 49 32 157 182 157c105 0 130 -73 212 -73c50 0 72 39 74 63h118c-1 -46 -28 -159 -177 -159z" />
    <glyph glyph-name="ohungarumlaut" unicode="&#x151;" horiz-adv-x="1237" 
d="M605 -9c-191 0 -329 49 -415 149c-85 99 -128 251 -128 456s43 356 128 455c86 98 224 147 415 147c190 0 328 -49 413 -147c86 -99 129 -250 129 -455s-43 -357 -129 -456c-85 -100 -223 -149 -413 -149zM605 153c92 0 166 32 221 94c56 63 84 179 84 348
s-28 284 -84 347c-55 62 -129 94 -221 94c-93 0 -167 -32 -223 -94c-55 -63 -83 -178 -83 -347s28 -285 83 -348c56 -62 130 -94 223 -94zM539 1258l145 160h152l-185 -160h-112zM374 1258l143 160h147l-178 -160h-112z" />
    <glyph glyph-name="uni020F" unicode="&#x20f;" horiz-adv-x="1237" 
d="M605 -9c-191 0 -329 49 -415 149c-85 99 -128 251 -128 456s43 356 128 455c86 98 224 147 415 147c190 0 328 -49 413 -147c86 -99 129 -250 129 -455s-43 -357 -129 -456c-85 -100 -223 -149 -413 -149zM605 153c92 0 166 32 221 94c56 63 84 179 84 348
s-28 284 -84 347c-55 62 -129 94 -221 94c-93 0 -167 -32 -223 -94c-55 -63 -83 -178 -83 -347s28 -285 83 -348c56 -62 130 -94 223 -94zM604 1419c131 0 213 -78 213 -169h-116c0 51 -30 86 -97 86c-73 0 -97 -36 -97 -86h-116c0 91 77 169 213 169z" />
    <glyph glyph-name="omacron" unicode="&#x14d;" horiz-adv-x="1237" 
d="M605 -9c-191 0 -329 49 -415 149c-85 99 -128 251 -128 456s43 356 128 455c86 98 224 147 415 147c190 0 328 -49 413 -147c86 -99 129 -250 129 -455s-43 -357 -129 -456c-85 -100 -223 -149 -413 -149zM605 153c92 0 166 32 221 94c56 63 84 179 84 348
s-28 284 -84 347c-55 62 -129 94 -221 94c-93 0 -167 -32 -223 -94c-55 -63 -83 -178 -83 -347s28 -285 83 -348c56 -62 130 -94 223 -94zM298 1283v91h613v-91h-613z" />
    <glyph glyph-name="uni1E53" unicode="&#x1e53;" horiz-adv-x="1237" 
d="M605 -9c-191 0 -329 49 -415 149c-85 99 -128 251 -128 456s43 356 128 455c86 98 224 147 415 147c190 0 328 -49 413 -147c86 -99 129 -250 129 -455s-43 -357 -129 -456c-85 -100 -223 -149 -413 -149zM605 153c92 0 166 32 221 94c56 63 84 179 84 348
s-28 284 -84 347c-55 62 -129 94 -221 94c-93 0 -167 -32 -223 -94c-55 -63 -83 -178 -83 -347s28 -285 83 -348c56 -62 130 -94 223 -94zM298 1283v91h613v-91h-613zM446 1416l149 177h168l-201 -177h-116z" />
    <glyph glyph-name="uni1E51" unicode="&#x1e51;" horiz-adv-x="1237" 
d="M605 -9c-191 0 -329 49 -415 149c-85 99 -128 251 -128 456s43 356 128 455c86 98 224 147 415 147c190 0 328 -49 413 -147c86 -99 129 -250 129 -455s-43 -357 -129 -456c-85 -100 -223 -149 -413 -149zM605 153c92 0 166 32 221 94c56 63 84 179 84 348
s-28 284 -84 347c-55 62 -129 94 -221 94c-93 0 -167 -32 -223 -94c-55 -63 -83 -178 -83 -347s28 -285 83 -348c56 -62 130 -94 223 -94zM298 1283v91h613v-91h-613zM647 1426l-201 177h167l150 -177h-116z" />
    <glyph glyph-name="uni01EB" unicode="&#x1eb;" horiz-adv-x="1237" 
d="M592 -338c-92 0 -178 32 -178 133c0 85 52 168 79 202h1c-135 16 -236 64 -304 143c-85 99 -128 251 -128 456s43 356 128 455c86 98 224 147 415 147c190 0 328 -49 413 -147c86 -99 129 -250 129 -455s-43 -357 -129 -456c-85 -99 -222 -149 -411 -149
c-22 -35 -56 -107 -56 -151c0 -37 23 -59 76 -59c49 0 113 15 135 25l3 -120c-19 -8 -97 -24 -173 -24zM605 153c92 0 166 32 221 94c56 63 84 179 84 348s-28 284 -84 347c-55 62 -129 94 -221 94c-93 0 -167 -32 -223 -94c-55 -63 -83 -178 -83 -347s28 -285 83 -348
c56 -62 130 -94 223 -94z" />
    <glyph glyph-name="oslash" unicode="&#xf8;" horiz-adv-x="1233" 
d="M4 6l155 175c-65 98 -97 237 -97 415c0 205 43 356 128 455c86 98 224 147 415 147c158 0 280 -34 366 -102l133 150l81 -58l-145 -164c71 -98 107 -241 107 -428c0 -205 -43 -357 -129 -456c-85 -100 -223 -149 -413 -149c-167 0 -294 38 -380 114l-143 -161zM605 153
c92 0 166 32 221 94c56 63 84 179 84 348c0 102 -11 185 -31 248l-511 -577c4 -7 9 -13 14 -19c56 -62 130 -94 223 -94zM323 366l507 572c-1 1 -3 2 -4 4c-55 62 -129 94 -221 94c-93 0 -167 -32 -223 -94c-55 -63 -83 -178 -83 -347c0 -92 8 -168 24 -229z" />
    <glyph glyph-name="oslashacute" unicode="&#x1ff;" horiz-adv-x="1233" 
d="M4 6l155 175c-65 98 -97 237 -97 415c0 205 43 356 128 455c86 98 224 147 415 147c158 0 280 -34 366 -102l133 150l81 -58l-145 -164c71 -98 107 -241 107 -428c0 -205 -43 -357 -129 -456c-85 -100 -223 -149 -413 -149c-167 0 -294 38 -380 114l-143 -161zM605 153
c92 0 166 32 221 94c56 63 84 179 84 348c0 102 -11 185 -31 248l-511 -577c4 -7 9 -13 14 -19c56 -62 130 -94 223 -94zM323 366l507 572c-1 1 -3 2 -4 4c-55 62 -129 94 -221 94c-93 0 -167 -32 -223 -94c-55 -63 -83 -178 -83 -347c0 -92 8 -168 24 -229zM444 1234
l149 177h168l-201 -177h-116z" />
    <glyph glyph-name="otilde" unicode="&#xf5;" horiz-adv-x="1237" 
d="M605 -9c-191 0 -329 49 -415 149c-85 99 -128 251 -128 456s43 356 128 455c86 98 224 147 415 147c190 0 328 -49 413 -147c86 -99 129 -250 129 -455s-43 -357 -129 -456c-85 -100 -223 -149 -413 -149zM605 153c92 0 166 32 221 94c56 63 84 179 84 348
s-28 284 -84 347c-55 62 -129 94 -221 94c-93 0 -167 -32 -223 -94c-55 -63 -83 -178 -83 -347s28 -285 83 -348c56 -62 130 -94 223 -94zM723 1262c-110 0 -142 74 -214 74c-55 0 -75 -38 -76 -62h-119c2 49 32 157 182 157c105 0 130 -73 212 -73c50 0 72 39 74 63h118
c-1 -46 -28 -159 -177 -159z" />
    <glyph glyph-name="uni1E4D" unicode="&#x1e4d;" horiz-adv-x="1237" 
d="M605 -9c-191 0 -329 49 -415 149c-85 99 -128 251 -128 456s43 356 128 455c86 98 224 147 415 147c190 0 328 -49 413 -147c86 -99 129 -250 129 -455s-43 -357 -129 -456c-85 -100 -223 -149 -413 -149zM605 153c92 0 166 32 221 94c56 63 84 179 84 348
s-28 284 -84 347c-55 62 -129 94 -221 94c-93 0 -167 -32 -223 -94c-55 -63 -83 -178 -83 -347s28 -285 83 -348c56 -62 130 -94 223 -94zM723 1262c-110 0 -142 74 -214 74c-55 0 -75 -38 -76 -62h-119c2 49 32 157 182 157c105 0 130 -73 212 -73c50 0 72 39 74 63h118
c-1 -46 -28 -159 -177 -159zM446 1470l149 177h168l-201 -177h-116z" />
    <glyph glyph-name="uni1E4F" unicode="&#x1e4f;" horiz-adv-x="1237" 
d="M605 -9c-191 0 -329 49 -415 149c-85 99 -128 251 -128 456s43 356 128 455c86 98 224 147 415 147c190 0 328 -49 413 -147c86 -99 129 -250 129 -455s-43 -357 -129 -456c-85 -100 -223 -149 -413 -149zM605 153c92 0 166 32 221 94c56 63 84 179 84 348
s-28 284 -84 347c-55 62 -129 94 -221 94c-93 0 -167 -32 -223 -94c-55 -63 -83 -178 -83 -347s28 -285 83 -348c56 -62 130 -94 223 -94zM723 1262c-110 0 -142 74 -214 74c-55 0 -75 -38 -76 -62h-119c2 49 32 157 182 157c105 0 130 -73 212 -73c50 0 72 39 74 63h118
c-1 -46 -28 -159 -177 -159zM437 1493c-43 0 -77 35 -77 78c0 42 34 77 77 77s77 -35 77 -77c0 -43 -34 -78 -77 -78zM769 1493c-43 0 -77 35 -77 78c0 42 34 77 77 77c42 0 77 -35 77 -77c0 -43 -35 -78 -77 -78z" />
    <glyph glyph-name="uni022D" unicode="&#x22d;" horiz-adv-x="1237" 
d="M605 -9c-191 0 -329 49 -415 149c-85 99 -128 251 -128 456s43 356 128 455c86 98 224 147 415 147c190 0 328 -49 413 -147c86 -99 129 -250 129 -455s-43 -357 -129 -456c-85 -100 -223 -149 -413 -149zM605 153c92 0 166 32 221 94c56 63 84 179 84 348
s-28 284 -84 347c-55 62 -129 94 -221 94c-93 0 -167 -32 -223 -94c-55 -63 -83 -178 -83 -347s28 -285 83 -348c56 -62 130 -94 223 -94zM723 1262c-110 0 -142 74 -214 74c-55 0 -75 -38 -76 -62h-119c2 49 32 157 182 157c105 0 130 -73 212 -73c50 0 72 39 74 63h118
c-1 -46 -28 -159 -177 -159zM298 1525v90h613v-90h-613z" />
    <glyph glyph-name="oe" unicode="&#x153;" horiz-adv-x="2078" 
d="M605 -9c-191 0 -329 49 -415 149c-85 99 -128 251 -128 456s43 356 128 455c86 98 224 147 415 147c190 0 328 -49 413 -147c5 -5 9 -10 13 -16c2 3 4 6 7 9c84 101 221 152 410 152c194 0 332 -51 413 -153s121 -251 121 -446c0 -29 -1 -54 -4 -76h-834
c0 -7 0 -12 -1 -18c9 -116 36 -201 80 -255c56 -68 132 -102 230 -102c149 0 276 89 290 262l212 -69c-27 -242 -241 -350 -503 -350c-195 0 -334 53 -417 159c-1 2 -3 4 -5 6c-4 -5 -8 -10 -12 -14c-85 -100 -223 -149 -413 -149zM605 153c92 0 166 32 221 94
c56 63 84 179 84 348s-28 284 -84 347c-55 62 -129 94 -221 94c-93 0 -167 -32 -223 -94c-55 -63 -83 -178 -83 -347s28 -285 83 -348c56 -62 130 -94 223 -94zM1143 689c1 -6 1 -13 2 -20h601c-2 131 -29 225 -78 282c-53 60 -126 90 -219 90s-167 -31 -224 -95
c-45 -50 -73 -136 -82 -257z" />
    <glyph glyph-name="p" unicode="p" horiz-adv-x="1234" 
d="M97 -442v1627h226l6 -119c13 11 27 21 42 32c94 65 208 98 340 98c147 0 256 -51 327 -153c70 -102 105 -251 105 -448s-35 -346 -105 -449c-71 -102 -180 -154 -327 -154c-132 0 -246 33 -340 98c-13 9 -26 18 -37 28v-560h-237zM334 403c3 -64 32 -121 87 -170
c59 -51 129 -77 210 -77c85 0 152 31 200 92c49 62 73 177 73 346c0 168 -24 283 -73 345c-48 61 -115 92 -200 92c-81 0 -151 -26 -210 -78c-55 -49 -84 -105 -87 -168v-382z" />
    <glyph glyph-name="thorn" unicode="&#xfe;" horiz-adv-x="1241" 
d="M98 -400v1282h7v688h237v-500c11 9 23 19 36 28c94 65 208 98 341 98c147 0 255 -51 326 -153c70 -102 106 -251 106 -448s-36 -346 -106 -449c-71 -102 -179 -154 -326 -154c-133 0 -247 33 -341 98c-16 11 -30 22 -43 33l-2 -12v-511h-235zM342 793v-398
c4 -61 33 -115 87 -162c58 -51 128 -77 209 -77c85 0 152 31 201 92c48 62 72 177 72 346c0 168 -24 283 -72 345c-49 61 -116 92 -201 92c-81 0 -151 -26 -209 -78c-54 -47 -83 -100 -87 -160z" />
    <glyph glyph-name="q" unicode="q" horiz-adv-x="1230" 
d="M869 -442v557c-11 -8 -22 -17 -34 -25c-93 -65 -206 -98 -339 -98c-147 0 -256 51 -327 153c-72 102 -107 252 -107 450c0 199 35 348 107 449c71 101 180 152 327 152c133 0 246 -33 339 -98c14 -10 27 -19 38 -29l6 116h226v-1627h-236zM869 809c-9 54 -37 102 -84 144
c-58 52 -127 78 -208 78c-86 0 -153 -30 -202 -91s-74 -176 -74 -346s25 -286 74 -347s116 -91 202 -91c81 0 150 26 208 78c47 43 75 91 84 145v430z" />
    <glyph glyph-name="r" unicode="r" horiz-adv-x="1171" 
d="M818 624c0 159 -19 267 -56 323c-38 56 -93 84 -165 84c-82 0 -147 -28 -194 -84c-41 -48 -64 -103 -69 -163v-784h-237v1185h227l5 -132c10 12 21 23 33 34c81 72 188 109 322 109c141 0 238 -46 291 -138c53 -91 80 -236 80 -434h-237z" />
    <glyph glyph-name="r.ss01" horiz-adv-x="887" 
d="M76 0v1185h227l8 -201c41 34 104 70 188 108c96 44 198 78 305 102v-203c-92 -12 -190 -38 -293 -78c-92 -36 -158 -70 -198 -103v-810h-237z" />
    <glyph glyph-name="racute" unicode="&#x155;" horiz-adv-x="1171" 
d="M818 624c0 159 -19 267 -56 323c-38 56 -93 84 -165 84c-82 0 -147 -28 -194 -84c-41 -48 -64 -103 -69 -163v-784h-237v1185h227l5 -132c10 12 21 23 33 34c81 72 188 109 322 109c141 0 238 -46 291 -138c53 -91 80 -236 80 -434h-237zM454 1227l149 178h167l-201 -178
h-115z" />
    <glyph glyph-name="rcaron" unicode="&#x159;" horiz-adv-x="1171" 
d="M818 624c0 159 -19 267 -56 323c-38 56 -93 84 -165 84c-82 0 -147 -28 -194 -84c-41 -48 -64 -103 -69 -163v-784h-237v1185h227l5 -132c10 12 21 23 33 34c81 72 188 109 322 109c141 0 238 -46 291 -138c53 -91 80 -236 80 -434h-237zM534 1231l-206 185h143l141 -132
l141 132h142l-206 -185h-155z" />
    <glyph glyph-name="uni0157" unicode="&#x157;" horiz-adv-x="1171" 
d="M818 624c0 159 -19 267 -56 323c-38 56 -93 84 -165 84c-82 0 -147 -28 -194 -84c-41 -48 -64 -103 -69 -163v-784h-237v1185h227l5 -132c10 12 21 23 33 34c81 72 188 109 322 109c141 0 238 -46 291 -138c53 -91 80 -236 80 -434h-237zM348 -321l96 263h148l-153 -263
h-91z" />
    <glyph glyph-name="uni0211" unicode="&#x211;" horiz-adv-x="1171" 
d="M818 624c0 159 -19 267 -56 323c-38 56 -93 84 -165 84c-82 0 -147 -28 -194 -84c-41 -48 -64 -103 -69 -163v-784h-237v1185h227l5 -132c10 12 21 23 33 34c81 72 188 109 322 109c141 0 238 -46 291 -138c53 -91 80 -236 80 -434h-237zM527 1247l-201 177h167l150 -177
h-116zM782 1247l-202 177h168l149 -177h-115z" />
    <glyph glyph-name="uni1E5B" unicode="&#x1e5b;" horiz-adv-x="1171" 
d="M818 624c0 159 -19 267 -56 323c-38 56 -93 84 -165 84c-82 0 -147 -28 -194 -84c-41 -48 -64 -103 -69 -163v-784h-237v1185h227l5 -132c10 12 21 23 33 34c81 72 188 109 322 109c141 0 238 -46 291 -138c53 -91 80 -236 80 -434h-237zM604 -284c-44 0 -80 35 -80 80
c0 43 35 78 80 78c43 0 78 -35 78 -78c0 -44 -35 -80 -78 -80z" />
    <glyph glyph-name="uni0213" unicode="&#x213;" horiz-adv-x="1171" 
d="M818 624c0 159 -19 267 -56 323c-38 56 -93 84 -165 84c-82 0 -147 -28 -194 -84c-41 -48 -64 -103 -69 -163v-784h-237v1185h227l5 -132c10 12 21 23 33 34c81 72 188 109 322 109c141 0 238 -46 291 -138c53 -91 80 -236 80 -434h-237zM612 1417
c131 0 212 -77 212 -169h-116c0 52 -30 87 -96 87c-73 0 -97 -36 -97 -87h-116c0 92 76 169 213 169z" />
    <glyph glyph-name="uni1E5F" unicode="&#x1e5f;" horiz-adv-x="1171" 
d="M818 624c0 159 -19 267 -56 323c-38 56 -93 84 -165 84c-82 0 -147 -28 -194 -84c-41 -48 -64 -103 -69 -163v-784h-237v1185h227l5 -132c10 12 21 23 33 34c81 72 188 109 322 109c141 0 238 -46 291 -138c53 -91 80 -236 80 -434h-237zM296 -219v90h614v-90h-614z" />
    <glyph glyph-name="s" unicode="s" horiz-adv-x="1201" 
d="M602 -9c-149 0 -269 25 -360 77c-90 51 -145 140 -166 266l209 74c9 -95 42 -162 99 -200c56 -39 127 -58 214 -58c93 0 163 14 208 42c45 29 67 70 67 124c0 64 -26 109 -78 133c-53 23 -137 46 -253 68c-162 26 -278 62 -350 107c-71 45 -107 124 -107 238
c0 110 46 193 136 249c91 56 215 84 373 84c155 0 273 -26 353 -78c80 -51 129 -135 148 -252l-203 -72c-9 84 -39 146 -89 185c-51 39 -122 59 -213 59c-88 0 -155 -17 -201 -49c-47 -33 -70 -74 -70 -124c0 -62 28 -102 82 -122c55 -21 138 -41 249 -61
c160 -27 276 -64 349 -112c72 -48 109 -129 109 -242c0 -118 -44 -204 -132 -257c-87 -53 -212 -79 -374 -79z" />
    <glyph glyph-name="sacute" unicode="&#x15b;" horiz-adv-x="1201" 
d="M602 -9c-149 0 -269 25 -360 77c-90 51 -145 140 -166 266l209 74c9 -95 42 -162 99 -200c56 -39 127 -58 214 -58c93 0 163 14 208 42c45 29 67 70 67 124c0 64 -26 109 -78 133c-53 23 -137 46 -253 68c-162 26 -278 62 -350 107c-71 45 -107 124 -107 238
c0 110 46 193 136 249c91 56 215 84 373 84c155 0 273 -26 353 -78c80 -51 129 -135 148 -252l-203 -72c-9 84 -39 146 -89 185c-51 39 -122 59 -213 59c-88 0 -155 -17 -201 -49c-47 -33 -70 -74 -70 -124c0 -62 28 -102 82 -122c55 -21 138 -41 249 -61
c160 -27 276 -64 349 -112c72 -48 109 -129 109 -242c0 -118 -44 -204 -132 -257c-87 -53 -212 -79 -374 -79zM437 1227l149 177h168l-201 -177h-116z" />
    <glyph glyph-name="uni1E65" unicode="&#x1e65;" horiz-adv-x="1201" 
d="M602 -9c-149 0 -269 25 -360 77c-90 51 -145 140 -166 266l209 74c9 -95 42 -162 99 -200c56 -39 127 -58 214 -58c93 0 163 14 208 42c45 29 67 70 67 124c0 64 -26 109 -78 133c-53 23 -137 46 -253 68c-162 26 -278 62 -350 107c-71 45 -107 124 -107 238
c0 110 46 193 136 249c91 56 215 84 373 84c155 0 273 -26 353 -78c80 -51 129 -135 148 -252l-203 -72c-9 84 -39 146 -89 185c-51 39 -122 59 -213 59c-88 0 -155 -17 -201 -49c-47 -33 -70 -74 -70 -124c0 -62 28 -102 82 -122c55 -21 138 -41 249 -61
c160 -27 276 -64 349 -112c72 -48 109 -129 109 -242c0 -118 -44 -204 -132 -257c-87 -53 -212 -79 -374 -79zM437 1227l149 177h168l-201 -177h-116zM596 1462c-44 0 -80 35 -80 80c0 43 35 78 80 78c43 0 78 -35 78 -78c0 -44 -35 -80 -78 -80z" />
    <glyph glyph-name="scaron" unicode="&#x161;" horiz-adv-x="1201" 
d="M602 -9c-149 0 -269 25 -360 77c-90 51 -145 140 -166 266l209 74c9 -95 42 -162 99 -200c56 -39 127 -58 214 -58c93 0 163 14 208 42c45 29 67 70 67 124c0 64 -26 109 -78 133c-53 23 -137 46 -253 68c-162 26 -278 62 -350 107c-71 45 -107 124 -107 238
c0 110 46 193 136 249c91 56 215 84 373 84c155 0 273 -26 353 -78c80 -51 129 -135 148 -252l-203 -72c-9 84 -39 146 -89 185c-51 39 -122 59 -213 59c-88 0 -155 -17 -201 -49c-47 -33 -70 -74 -70 -124c0 -62 28 -102 82 -122c55 -21 138 -41 249 -61
c160 -27 276 -64 349 -112c72 -48 109 -129 109 -242c0 -118 -44 -204 -132 -257c-87 -53 -212 -79 -374 -79zM518 1231l-206 185h142l142 -132l140 132h143l-207 -185h-154z" />
    <glyph glyph-name="uni1E67" unicode="&#x1e67;" horiz-adv-x="1201" 
d="M602 -9c-149 0 -269 25 -360 77c-90 51 -145 140 -166 266l209 74c9 -95 42 -162 99 -200c56 -39 127 -58 214 -58c93 0 163 14 208 42c45 29 67 70 67 124c0 64 -26 109 -78 133c-53 23 -137 46 -253 68c-162 26 -278 62 -350 107c-71 45 -107 124 -107 238
c0 110 46 193 136 249c91 56 215 84 373 84c155 0 273 -26 353 -78c80 -51 129 -135 148 -252l-203 -72c-9 84 -39 146 -89 185c-51 39 -122 59 -213 59c-88 0 -155 -17 -201 -49c-47 -33 -70 -74 -70 -124c0 -62 28 -102 82 -122c55 -21 138 -41 249 -61
c160 -27 276 -64 349 -112c72 -48 109 -129 109 -242c0 -118 -44 -204 -132 -257c-87 -53 -212 -79 -374 -79zM518 1231l-206 185h142l142 -132l140 132h143l-207 -185h-154zM596 1474c-44 0 -80 35 -80 79s35 79 80 79c43 0 78 -35 78 -79s-35 -79 -78 -79z" />
    <glyph glyph-name="scedilla" unicode="&#x15f;" horiz-adv-x="1201" 
d="M615 -312c-52 0 -107 7 -155 18l33 101c31 -8 75 -15 124 -15c77 0 116 19 116 55c0 25 -20 35 -52 35c-29 0 -62 -11 -84 -24l-88 12l37 122c-124 6 -225 31 -304 76c-90 51 -145 140 -166 266l209 74c9 -95 42 -162 99 -200c56 -39 127 -58 214 -58c93 0 163 14 208 42
c45 29 67 70 67 124c0 64 -26 109 -78 133c-53 23 -137 46 -253 68c-162 26 -278 62 -350 107c-71 45 -107 124 -107 238c0 110 46 193 136 249c91 56 215 84 373 84c155 0 273 -26 353 -78c80 -51 129 -135 148 -252l-203 -72c-9 84 -39 146 -89 185
c-51 39 -122 59 -213 59c-88 0 -155 -17 -201 -49c-47 -33 -70 -74 -70 -124c0 -62 28 -102 82 -122c55 -21 138 -41 249 -61c160 -27 276 -64 349 -112c72 -48 109 -129 109 -242c0 -118 -44 -204 -132 -257c-80 -48 -191 -75 -333 -79l-27 -77c29 19 76 33 128 33
c78 0 132 -34 132 -103c0 -104 -130 -156 -261 -156z" />
    <glyph glyph-name="scircumflex" unicode="&#x15d;" horiz-adv-x="1201" 
d="M602 -9c-149 0 -269 25 -360 77c-90 51 -145 140 -166 266l209 74c9 -95 42 -162 99 -200c56 -39 127 -58 214 -58c93 0 163 14 208 42c45 29 67 70 67 124c0 64 -26 109 -78 133c-53 23 -137 46 -253 68c-162 26 -278 62 -350 107c-71 45 -107 124 -107 238
c0 110 46 193 136 249c91 56 215 84 373 84c155 0 273 -26 353 -78c80 -51 129 -135 148 -252l-203 -72c-9 84 -39 146 -89 185c-51 39 -122 59 -213 59c-88 0 -155 -17 -201 -49c-47 -33 -70 -74 -70 -124c0 -62 28 -102 82 -122c55 -21 138 -41 249 -61
c160 -27 276 -64 349 -112c72 -48 109 -129 109 -242c0 -118 -44 -204 -132 -257c-87 -53 -212 -79 -374 -79zM312 1236l206 185h154l207 -185h-143l-140 131l-142 -131h-142z" />
    <glyph glyph-name="uni0219" unicode="&#x219;" horiz-adv-x="1201" 
d="M602 -9c-149 0 -269 25 -360 77c-90 51 -145 140 -166 266l209 74c9 -95 42 -162 99 -200c56 -39 127 -58 214 -58c93 0 163 14 208 42c45 29 67 70 67 124c0 64 -26 109 -78 133c-53 23 -137 46 -253 68c-162 26 -278 62 -350 107c-71 45 -107 124 -107 238
c0 110 46 193 136 249c91 56 215 84 373 84c155 0 273 -26 353 -78c80 -51 129 -135 148 -252l-203 -72c-9 84 -39 146 -89 185c-51 39 -122 59 -213 59c-88 0 -155 -17 -201 -49c-47 -33 -70 -74 -70 -124c0 -62 28 -102 82 -122c55 -21 138 -41 249 -61
c160 -27 276 -64 349 -112c72 -48 109 -129 109 -242c0 -118 -44 -204 -132 -257c-87 -53 -212 -79 -374 -79zM457 -321l96 263h148l-153 -263h-91z" />
    <glyph glyph-name="uni1E61" unicode="&#x1e61;" horiz-adv-x="1201" 
d="M602 -9c-149 0 -269 25 -360 77c-90 51 -145 140 -166 266l209 74c9 -95 42 -162 99 -200c56 -39 127 -58 214 -58c93 0 163 14 208 42c45 29 67 70 67 124c0 64 -26 109 -78 133c-53 23 -137 46 -253 68c-162 26 -278 62 -350 107c-71 45 -107 124 -107 238
c0 110 46 193 136 249c91 56 215 84 373 84c155 0 273 -26 353 -78c80 -51 129 -135 148 -252l-203 -72c-9 84 -39 146 -89 185c-51 39 -122 59 -213 59c-88 0 -155 -17 -201 -49c-47 -33 -70 -74 -70 -124c0 -62 28 -102 82 -122c55 -21 138 -41 249 -61
c160 -27 276 -64 349 -112c72 -48 109 -129 109 -242c0 -118 -44 -204 -132 -257c-87 -53 -212 -79 -374 -79zM596 1243c-44 0 -80 35 -80 79s35 79 80 79c43 0 78 -35 78 -79s-35 -79 -78 -79z" />
    <glyph glyph-name="uni1E63" unicode="&#x1e63;" horiz-adv-x="1201" 
d="M602 -9c-149 0 -269 25 -360 77c-90 51 -145 140 -166 266l209 74c9 -95 42 -162 99 -200c56 -39 127 -58 214 -58c93 0 163 14 208 42c45 29 67 70 67 124c0 64 -26 109 -78 133c-53 23 -137 46 -253 68c-162 26 -278 62 -350 107c-71 45 -107 124 -107 238
c0 110 46 193 136 249c91 56 215 84 373 84c155 0 273 -26 353 -78c80 -51 129 -135 148 -252l-203 -72c-9 84 -39 146 -89 185c-51 39 -122 59 -213 59c-88 0 -155 -17 -201 -49c-47 -33 -70 -74 -70 -124c0 -62 28 -102 82 -122c55 -21 138 -41 249 -61
c160 -27 276 -64 349 -112c72 -48 109 -129 109 -242c0 -118 -44 -204 -132 -257c-87 -53 -212 -79 -374 -79zM593 -284c-44 0 -80 35 -80 80c0 43 35 78 80 78c43 0 78 -35 78 -78c0 -44 -35 -80 -78 -80z" />
    <glyph glyph-name="uni1E69" unicode="&#x1e69;" horiz-adv-x="1201" 
d="M602 -9c-149 0 -269 25 -360 77c-90 51 -145 140 -166 266l209 74c9 -95 42 -162 99 -200c56 -39 127 -58 214 -58c93 0 163 14 208 42c45 29 67 70 67 124c0 64 -26 109 -78 133c-53 23 -137 46 -253 68c-162 26 -278 62 -350 107c-71 45 -107 124 -107 238
c0 110 46 193 136 249c91 56 215 84 373 84c155 0 273 -26 353 -78c80 -51 129 -135 148 -252l-203 -72c-9 84 -39 146 -89 185c-51 39 -122 59 -213 59c-88 0 -155 -17 -201 -49c-47 -33 -70 -74 -70 -124c0 -62 28 -102 82 -122c55 -21 138 -41 249 -61
c160 -27 276 -64 349 -112c72 -48 109 -129 109 -242c0 -118 -44 -204 -132 -257c-87 -53 -212 -79 -374 -79zM593 -284c-44 0 -80 35 -80 80c0 43 35 78 80 78c43 0 78 -35 78 -78c0 -44 -35 -80 -78 -80zM596 1243c-44 0 -80 35 -80 79s35 79 80 79c43 0 78 -35 78 -79
s-35 -79 -78 -79z" />
    <glyph glyph-name="germandbls" unicode="&#xdf;" horiz-adv-x="1261" 
d="M83 0v968c0 319 174 504 523 504c320 0 467 -143 467 -332c0 -185 -120 -263 -120 -356c0 -96 215 -162 215 -400c0 -282 -237 -384 -692 -384v163c298 0 437 71 437 240c0 177 -191 244 -191 379c0 133 113 208 113 343c0 117 -72 186 -226 186
c-182 0 -289 -110 -289 -331v-980h-237z" />
    <glyph glyph-name="t" unicode="t" horiz-adv-x="998" 
d="M622 -13c-97 0 -175 19 -233 59c-58 39 -87 113 -87 220v754h-276v165h276v269h237v-269h384v-165h-384v-699c0 -71 13 -117 40 -140c26 -22 66 -34 120 -33c45 0 95 4 150 13v-159c-84 -10 -160 -15 -227 -15z" />
    <glyph glyph-name="t.ss01" horiz-adv-x="1012" 
d="M369 0v1030h-341v155h341v269h237v-269h339v-155h-339v-1030h-237z" />
    <glyph glyph-name="tbar" unicode="&#x167;" horiz-adv-x="998" 
d="M82 575v130h220v315h-276v165h276v269h237v-269h384v-165h-384v-315h226v-130h-226v-254c0 -71 13 -117 40 -140c26 -22 66 -34 120 -33c45 0 95 4 150 13v-159c-84 -10 -160 -15 -227 -15c-97 0 -175 19 -233 59c-58 39 -87 113 -87 220v309h-220z" />
    <glyph glyph-name="tcaron" unicode="&#x165;" horiz-adv-x="1103" 
d="M622 -13c-97 0 -175 19 -233 59c-58 39 -87 113 -87 220v754h-276v165h276v269h237v-269h384v-165h-384v-699c0 -71 13 -117 40 -140c26 -22 66 -34 120 -33c45 0 95 4 150 13v-159c-84 -10 -160 -15 -227 -15zM943 1211l36 239h124l-48 -239h-112z" />
    <glyph glyph-name="uni0163" unicode="&#x163;" horiz-adv-x="1014" 
d="M613 -311c-53 0 -108 7 -156 18l34 101c30 -8 74 -15 123 -15c77 0 117 19 117 55c0 25 -21 35 -53 35c-29 0 -62 -11 -84 -24l-87 12l36 120c-61 8 -113 27 -154 55c-58 39 -87 113 -87 220v754h-276v165h276v269h237v-269h384v-165h-384v-699c0 -71 13 -117 40 -140
c26 -22 66 -34 120 -33c45 0 95 4 150 13v-159c-77 -9 -147 -15 -211 -15l-25 -72c30 19 77 33 129 33c77 0 132 -34 132 -103c0 -104 -131 -156 -261 -156z" />
    <glyph glyph-name="uni021B" unicode="&#x21b;" horiz-adv-x="998" 
d="M622 -13c-97 0 -175 19 -233 59c-58 39 -87 113 -87 220v754h-276v165h276v269h237v-269h384v-165h-384v-699c0 -71 13 -117 40 -140c26 -22 66 -34 120 -33c45 0 95 4 150 13v-159c-84 -10 -160 -15 -227 -15zM475 -321l97 263h148l-154 -263h-91z" />
    <glyph glyph-name="uni1E97" unicode="&#x1e97;" horiz-adv-x="998" 
d="M622 -13c-97 0 -175 19 -233 59c-58 39 -87 113 -87 220v754h-276v165h276v269h237v-269h384v-165h-384v-699c0 -71 13 -117 40 -140c26 -22 66 -34 120 -33c45 0 95 4 150 13v-159c-84 -10 -160 -15 -227 -15zM258 1517c-43 0 -78 34 -78 77s35 77 78 77
c42 0 77 -34 77 -77s-35 -77 -77 -77zM589 1517c-42 0 -77 34 -77 77s35 77 77 77c43 0 77 -34 77 -77s-34 -77 -77 -77z" />
    <glyph glyph-name="uni1E6D" unicode="&#x1e6d;" horiz-adv-x="998" 
d="M622 -13c-97 0 -175 19 -233 59c-58 39 -87 113 -87 220v754h-276v165h276v269h237v-269h384v-165h-384v-699c0 -71 13 -117 40 -140c26 -22 66 -34 120 -33c45 0 95 4 150 13v-159c-84 -10 -160 -15 -227 -15zM611 -284c-44 0 -79 35 -79 80c0 43 35 78 79 78
c43 0 79 -35 79 -78c0 -44 -35 -80 -79 -80z" />
    <glyph glyph-name="uni1E6F" unicode="&#x1e6f;" horiz-adv-x="998" 
d="M622 -13c-97 0 -175 19 -233 59c-58 39 -87 113 -87 220v754h-276v165h276v269h237v-269h384v-165h-384v-699c0 -71 13 -117 40 -140c26 -22 66 -34 120 -33c45 0 95 4 150 13v-159c-84 -10 -160 -15 -227 -15zM304 -219v90h614v-90h-614z" />
    <glyph glyph-name="u" unicode="u" horiz-adv-x="1203" 
d="M854 0l-8 148c-7 -8 -14 -16 -22 -23c-89 -90 -205 -135 -349 -135c-142 0 -242 46 -301 139c-59 92 -88 220 -88 384v673h236v-664c0 -136 20 -231 61 -286c40 -54 100 -81 179 -81c80 0 147 30 201 90c48 54 74 120 80 199v741h236v-1185h-225z" />
    <glyph glyph-name="uacute" unicode="&#xfa;" horiz-adv-x="1203" 
d="M854 0l-8 148c-7 -8 -14 -16 -22 -23c-89 -90 -205 -135 -349 -135c-142 0 -242 46 -301 139c-59 92 -88 220 -88 384v673h236v-664c0 -136 20 -231 61 -286c40 -54 100 -81 179 -81c80 0 147 30 201 90c48 54 74 120 80 199v741h236v-1185h-225zM430 1227l149 178h168
l-201 -178h-116z" />
    <glyph glyph-name="ubreve" unicode="&#x16d;" horiz-adv-x="1203" 
d="M854 0l-8 148c-7 -8 -14 -16 -22 -23c-89 -90 -205 -135 -349 -135c-142 0 -242 46 -301 139c-59 92 -88 220 -88 384v673h236v-664c0 -136 20 -231 61 -286c40 -54 100 -81 179 -81c80 0 147 30 201 90c48 54 74 120 80 199v741h236v-1185h-225zM588 1233
c-131 0 -212 78 -212 169h116c0 -51 30 -86 96 -86c73 0 97 36 97 86h116c0 -91 -76 -169 -213 -169z" />
    <glyph glyph-name="uni01D4" unicode="&#x1d4;" horiz-adv-x="1203" 
d="M854 0l-8 148c-7 -8 -14 -16 -22 -23c-89 -90 -205 -135 -349 -135c-142 0 -242 46 -301 139c-59 92 -88 220 -88 384v673h236v-664c0 -136 20 -231 61 -286c40 -54 100 -81 179 -81c80 0 147 30 201 90c48 54 74 120 80 199v741h236v-1185h-225zM511 1231l-206 185h142
l142 -132l140 132h143l-207 -185h-154z" />
    <glyph glyph-name="ucircumflex" unicode="&#xfb;" horiz-adv-x="1203" 
d="M854 0l-8 148c-7 -8 -14 -16 -22 -23c-89 -90 -205 -135 -349 -135c-142 0 -242 46 -301 139c-59 92 -88 220 -88 384v673h236v-664c0 -136 20 -231 61 -286c40 -54 100 -81 179 -81c80 0 147 30 201 90c48 54 74 120 80 199v741h236v-1185h-225zM305 1236l206 185h154
l207 -185h-143l-140 132l-142 -132h-142z" />
    <glyph glyph-name="uni0215" unicode="&#x215;" horiz-adv-x="1203" 
d="M854 0l-8 148c-7 -8 -14 -16 -22 -23c-89 -90 -205 -135 -349 -135c-142 0 -242 46 -301 139c-59 92 -88 220 -88 384v673h236v-664c0 -136 20 -231 61 -286c40 -54 100 -81 179 -81c80 0 147 30 201 90c48 54 74 120 80 199v741h236v-1185h-225zM504 1247l-202 177h168
l149 -177h-115zM758 1247l-201 177h167l150 -177h-116z" />
    <glyph glyph-name="udieresis" unicode="&#xfc;" horiz-adv-x="1203" 
d="M854 0l-8 148c-7 -8 -14 -16 -22 -23c-89 -90 -205 -135 -349 -135c-142 0 -242 46 -301 139c-59 92 -88 220 -88 384v673h236v-664c0 -136 20 -231 61 -286c40 -54 100 -81 179 -81c80 0 147 30 201 90c48 54 74 120 80 199v741h236v-1185h-225zM421 1251
c-43 0 -77 34 -77 77c0 42 34 77 77 77s77 -35 77 -77c0 -43 -34 -77 -77 -77zM753 1251c-43 0 -77 34 -77 77c0 42 34 77 77 77c42 0 77 -35 77 -77c0 -43 -35 -77 -77 -77z" />
    <glyph glyph-name="uni01D8" unicode="&#x1d8;" horiz-adv-x="1203" 
d="M854 0l-8 148c-7 -8 -14 -16 -22 -23c-89 -90 -205 -135 -349 -135c-142 0 -242 46 -301 139c-59 92 -88 220 -88 384v673h236v-664c0 -136 20 -231 61 -286c40 -54 100 -81 179 -81c80 0 147 30 201 90c48 54 74 120 80 199v741h236v-1185h-225zM479 1420l149 178h168
l-201 -178h-116zM421 1251c-43 0 -77 34 -77 77c0 42 34 77 77 77s77 -35 77 -77c0 -43 -34 -77 -77 -77zM753 1251c-43 0 -77 34 -77 77c0 42 34 77 77 77c42 0 77 -35 77 -77c0 -43 -35 -77 -77 -77z" />
    <glyph glyph-name="uni01DA" unicode="&#x1da;" horiz-adv-x="1203" 
d="M854 0l-8 148c-7 -8 -14 -16 -22 -23c-89 -90 -205 -135 -349 -135c-142 0 -242 46 -301 139c-59 92 -88 220 -88 384v673h236v-664c0 -136 20 -231 61 -286c40 -54 100 -81 179 -81c80 0 147 30 201 90c48 54 74 120 80 199v741h236v-1185h-225zM511 1452l-206 185h142
l142 -132l140 132h143l-207 -185h-154zM421 1251c-43 0 -77 34 -77 77c0 42 34 77 77 77s77 -35 77 -77c0 -43 -34 -77 -77 -77zM753 1251c-43 0 -77 34 -77 77c0 42 34 77 77 77c42 0 77 -35 77 -77c0 -43 -35 -77 -77 -77z" />
    <glyph glyph-name="uni01DC" unicode="&#x1dc;" horiz-adv-x="1203" 
d="M854 0l-8 148c-7 -8 -14 -16 -22 -23c-89 -90 -205 -135 -349 -135c-142 0 -242 46 -301 139c-59 92 -88 220 -88 384v673h236v-664c0 -136 20 -231 61 -286c40 -54 100 -81 179 -81c80 0 147 30 201 90c48 54 74 120 80 199v741h236v-1185h-225zM587 1429l-201 177h167
l150 -177h-116zM421 1251c-43 0 -77 34 -77 77c0 42 34 77 77 77s77 -35 77 -77c0 -43 -34 -77 -77 -77zM753 1251c-43 0 -77 34 -77 77c0 42 34 77 77 77c42 0 77 -35 77 -77c0 -43 -35 -77 -77 -77z" />
    <glyph glyph-name="uni01D6" unicode="&#x1d6;" horiz-adv-x="1203" 
d="M854 0l-8 148c-7 -8 -14 -16 -22 -23c-89 -90 -205 -135 -349 -135c-142 0 -242 46 -301 139c-59 92 -88 220 -88 384v673h236v-664c0 -136 20 -231 61 -286c40 -54 100 -81 179 -81c80 0 147 30 201 90c48 54 74 120 80 199v741h236v-1185h-225zM282 1503v90h613v-90
h-613zM421 1251c-43 0 -77 34 -77 77c0 42 34 77 77 77s77 -35 77 -77c0 -43 -34 -77 -77 -77zM753 1251c-43 0 -77 34 -77 77c0 42 34 77 77 77c42 0 77 -35 77 -77c0 -43 -35 -77 -77 -77z" />
    <glyph glyph-name="uni1EE5" unicode="&#x1ee5;" horiz-adv-x="1203" 
d="M854 0l-8 148c-7 -8 -14 -16 -22 -23c-89 -90 -205 -135 -349 -135c-142 0 -242 46 -301 139c-59 92 -88 220 -88 384v673h236v-664c0 -136 20 -231 61 -286c40 -54 100 -81 179 -81c80 0 147 30 201 90c48 54 74 120 80 199v741h236v-1185h-225zM589 -284
c-44 0 -79 35 -79 80c0 43 35 78 79 78c43 0 79 -35 79 -78c0 -44 -35 -80 -79 -80z" />
    <glyph glyph-name="ugrave" unicode="&#xf9;" horiz-adv-x="1203" 
d="M854 0l-8 148c-7 -8 -14 -16 -22 -23c-89 -90 -205 -135 -349 -135c-142 0 -242 46 -301 139c-59 92 -88 220 -88 384v673h236v-664c0 -136 20 -231 61 -286c40 -54 100 -81 179 -81c80 0 147 30 201 90c48 54 74 120 80 199v741h236v-1185h-225zM631 1237l-201 178h167
l150 -178h-116z" />
    <glyph glyph-name="uni1EE7" unicode="&#x1ee7;" horiz-adv-x="1203" 
d="M854 0l-8 148c-7 -8 -14 -16 -22 -23c-89 -90 -205 -135 -349 -135c-142 0 -242 46 -301 139c-59 92 -88 220 -88 384v673h236v-664c0 -136 20 -231 61 -286c40 -54 100 -81 179 -81c80 0 147 30 201 90c48 54 74 120 80 199v741h236v-1185h-225zM464 1513
c250 0 369 -19 369 -109c0 -81 -121 -106 -207 -106v-59h-88v120c102 0 178 9 178 38c0 36 -74 40 -252 40v76z" />
    <glyph glyph-name="uhorn" unicode="&#x1b0;" horiz-adv-x="1433" 
d="M854 0l-8 148c-7 -8 -14 -16 -22 -23c-89 -90 -205 -135 -349 -135c-142 0 -242 46 -301 139c-59 92 -88 220 -88 384v673h236v-664c0 -136 20 -231 61 -286c40 -54 100 -81 179 -81c80 0 147 30 201 90c48 54 74 120 80 199v741h230c166 0 222 44 222 160h138
c0 -164 -122 -240 -354 -241v-1104h-225z" />
    <glyph glyph-name="uni1EE9" unicode="&#x1ee9;" horiz-adv-x="1433" 
d="M854 0l-8 148c-7 -8 -14 -16 -22 -23c-89 -90 -205 -135 -349 -135c-142 0 -242 46 -301 139c-59 92 -88 220 -88 384v673h236v-664c0 -136 20 -231 61 -286c40 -54 100 -81 179 -81c80 0 147 30 201 90c48 54 74 120 80 199v741h230c166 0 222 44 222 160h138
c0 -164 -122 -240 -354 -241v-1104h-225zM430 1227l149 178h168l-201 -178h-116z" />
    <glyph glyph-name="uni1EF1" unicode="&#x1ef1;" horiz-adv-x="1433" 
d="M854 0l-8 148c-7 -8 -14 -16 -22 -23c-89 -90 -205 -135 -349 -135c-142 0 -242 46 -301 139c-59 92 -88 220 -88 384v673h236v-664c0 -136 20 -231 61 -286c40 -54 100 -81 179 -81c80 0 147 30 201 90c48 54 74 120 80 199v741h230c166 0 222 44 222 160h138
c0 -164 -122 -240 -354 -241v-1104h-225zM589 -284c-44 0 -79 35 -79 80c0 43 35 78 79 78c43 0 79 -35 79 -78c0 -44 -35 -80 -79 -80z" />
    <glyph glyph-name="uni1EEB" unicode="&#x1eeb;" horiz-adv-x="1433" 
d="M854 0l-8 148c-7 -8 -14 -16 -22 -23c-89 -90 -205 -135 -349 -135c-142 0 -242 46 -301 139c-59 92 -88 220 -88 384v673h236v-664c0 -136 20 -231 61 -286c40 -54 100 -81 179 -81c80 0 147 30 201 90c48 54 74 120 80 199v741h230c166 0 222 44 222 160h138
c0 -164 -122 -240 -354 -241v-1104h-225zM631 1237l-201 178h167l150 -178h-116z" />
    <glyph glyph-name="uni1EED" unicode="&#x1eed;" horiz-adv-x="1433" 
d="M854 0l-8 148c-7 -8 -14 -16 -22 -23c-89 -90 -205 -135 -349 -135c-142 0 -242 46 -301 139c-59 92 -88 220 -88 384v673h236v-664c0 -136 20 -231 61 -286c40 -54 100 -81 179 -81c80 0 147 30 201 90c48 54 74 120 80 199v741h230c166 0 222 44 222 160h138
c0 -164 -122 -240 -354 -241v-1104h-225zM464 1513c250 0 369 -19 369 -109c0 -81 -121 -106 -207 -106v-59h-88v120c102 0 178 9 178 38c0 36 -74 40 -252 40v76z" />
    <glyph glyph-name="uni1EEF" unicode="&#x1eef;" horiz-adv-x="1433" 
d="M854 0l-8 148c-7 -8 -14 -16 -22 -23c-89 -90 -205 -135 -349 -135c-142 0 -242 46 -301 139c-59 92 -88 220 -88 384v673h236v-664c0 -136 20 -231 61 -286c40 -54 100 -81 179 -81c80 0 147 30 201 90c48 54 74 120 80 199v741h230c166 0 222 44 222 160h138
c0 -164 -122 -240 -354 -241v-1104h-225zM707 1261c-110 0 -142 74 -214 74c-55 0 -75 -39 -76 -63h-119c2 50 32 158 182 158c105 0 130 -73 212 -73c50 0 72 39 74 63h118c-1 -46 -28 -159 -177 -159z" />
    <glyph glyph-name="uhungarumlaut" unicode="&#x171;" horiz-adv-x="1203" 
d="M854 0l-8 148c-7 -8 -14 -16 -22 -23c-89 -90 -205 -135 -349 -135c-142 0 -242 46 -301 139c-59 92 -88 220 -88 384v673h236v-664c0 -136 20 -231 61 -286c40 -54 100 -81 179 -81c80 0 147 30 201 90c48 54 74 120 80 199v741h236v-1185h-225zM523 1257l145 160h152
l-185 -160h-112zM358 1257l143 160h147l-178 -160h-112z" />
    <glyph glyph-name="uni0217" unicode="&#x217;" horiz-adv-x="1203" 
d="M854 0l-8 148c-7 -8 -14 -16 -22 -23c-89 -90 -205 -135 -349 -135c-142 0 -242 46 -301 139c-59 92 -88 220 -88 384v673h236v-664c0 -136 20 -231 61 -286c40 -54 100 -81 179 -81c80 0 147 30 201 90c48 54 74 120 80 199v741h236v-1185h-225zM588 1417
c131 0 213 -77 213 -169h-116c0 52 -30 87 -97 87c-73 0 -97 -36 -97 -87h-116c0 92 77 169 213 169z" />
    <glyph glyph-name="umacron" unicode="&#x16b;" horiz-adv-x="1203" 
d="M854 0l-8 148c-7 -8 -14 -16 -22 -23c-89 -90 -205 -135 -349 -135c-142 0 -242 46 -301 139c-59 92 -88 220 -88 384v673h236v-664c0 -136 20 -231 61 -286c40 -54 100 -81 179 -81c80 0 147 30 201 90c48 54 74 120 80 199v741h236v-1185h-225zM282 1282v91h613v-91
h-613z" />
    <glyph glyph-name="uni1E7B" unicode="&#x1e7b;" horiz-adv-x="1203" 
d="M854 0l-8 148c-7 -8 -14 -16 -22 -23c-89 -90 -205 -135 -349 -135c-142 0 -242 46 -301 139c-59 92 -88 220 -88 384v673h236v-664c0 -136 20 -231 61 -286c40 -54 100 -81 179 -81c80 0 147 30 201 90c48 54 74 120 80 199v741h236v-1185h-225zM282 1282v91h613v-91
h-613zM421 1438c-43 0 -77 35 -77 77c0 43 34 77 77 77s77 -34 77 -77c0 -42 -34 -77 -77 -77zM753 1438c-43 0 -77 35 -77 77c0 43 34 77 77 77c42 0 77 -34 77 -77c0 -42 -35 -77 -77 -77z" />
    <glyph glyph-name="uogonek" unicode="&#x173;" horiz-adv-x="1203" 
d="M854 0l-8 148c-7 -8 -14 -16 -22 -23c-89 -90 -205 -135 -349 -135c-142 0 -242 46 -301 139c-59 92 -88 220 -88 384v673h236v-664c0 -136 20 -231 61 -286c40 -54 100 -81 179 -81c80 0 147 30 201 90c48 54 74 120 80 199v741h236v-1185c-21 -31 -60 -110 -60 -157
c0 -37 23 -59 76 -59c49 0 113 15 135 25l3 -120c-19 -8 -97 -24 -173 -24c-92 0 -178 32 -178 133c0 85 52 168 79 202h-107z" />
    <glyph glyph-name="uring" unicode="&#x16f;" horiz-adv-x="1203" 
d="M854 0l-8 148c-7 -8 -14 -16 -22 -23c-89 -90 -205 -135 -349 -135c-142 0 -242 46 -301 139c-59 92 -88 220 -88 384v673h236v-664c0 -136 20 -231 61 -286c40 -54 100 -81 179 -81c80 0 147 30 201 90c48 54 74 120 80 199v741h236v-1185h-225zM588 1223
c-76 0 -133 59 -133 135c0 75 57 134 133 134s133 -59 133 -134c0 -76 -57 -135 -133 -135zM588 1311c25 0 45 20 45 47c0 26 -20 45 -45 45c-24 0 -44 -19 -44 -45c0 -27 20 -47 44 -47z" />
    <glyph glyph-name="utilde" unicode="&#x169;" horiz-adv-x="1203" 
d="M854 0l-8 148c-7 -8 -14 -16 -22 -23c-89 -90 -205 -135 -349 -135c-142 0 -242 46 -301 139c-59 92 -88 220 -88 384v673h236v-664c0 -136 20 -231 61 -286c40 -54 100 -81 179 -81c80 0 147 30 201 90c48 54 74 120 80 199v741h236v-1185h-225zM707 1261
c-110 0 -142 74 -214 74c-55 0 -75 -39 -76 -63h-119c2 50 32 158 182 158c105 0 130 -73 212 -73c50 0 72 39 74 63h118c-1 -46 -28 -159 -177 -159z" />
    <glyph glyph-name="uni1E79" unicode="&#x1e79;" horiz-adv-x="1203" 
d="M854 0l-8 148c-7 -8 -14 -16 -22 -23c-89 -90 -205 -135 -349 -135c-142 0 -242 46 -301 139c-59 92 -88 220 -88 384v673h236v-664c0 -136 20 -231 61 -286c40 -54 100 -81 179 -81c80 0 147 30 201 90c48 54 74 120 80 199v741h236v-1185h-225zM707 1261
c-110 0 -142 74 -214 74c-55 0 -75 -39 -76 -63h-119c2 50 32 158 182 158c105 0 130 -73 212 -73c50 0 72 39 74 63h118c-1 -46 -28 -159 -177 -159zM430 1469l149 177h168l-201 -177h-116z" />
    <glyph glyph-name="v" unicode="v" horiz-adv-x="1169" 
d="M406 0l-367 1186h249l288 -1038l288 1038h248l-366 -1186h-340z" />
    <glyph glyph-name="w" unicode="w" horiz-adv-x="1700" 
d="M304 0l-240 1185h244l169 -1021l236 1021h261l238 -1020l167 1020h243l-238 -1185h-338l-202 912l-199 -912h-341z" />
    <glyph glyph-name="wacute" unicode="&#x1e83;" horiz-adv-x="1700" 
d="M304 0l-240 1185h244l169 -1021l236 1021h261l238 -1020l167 1020h243l-238 -1185h-338l-202 912l-199 -912h-341zM685 1227l149 178h167l-201 -178h-115z" />
    <glyph glyph-name="wcircumflex" unicode="&#x175;" horiz-adv-x="1700" 
d="M304 0l-240 1185h244l169 -1021l236 1021h261l238 -1020l167 1020h243l-238 -1185h-338l-202 912l-199 -912h-341zM559 1236l206 185h155l206 -185h-142l-141 132l-141 -132h-143z" />
    <glyph glyph-name="wdieresis" unicode="&#x1e85;" horiz-adv-x="1700" 
d="M304 0l-240 1185h244l169 -1021l236 1021h261l238 -1020l167 1020h243l-238 -1185h-338l-202 912l-199 -912h-341zM676 1251c-43 0 -78 34 -78 77c0 42 35 77 78 77c42 0 77 -35 77 -77c0 -43 -35 -77 -77 -77zM1007 1251c-42 0 -77 34 -77 77c0 42 35 77 77 77
c43 0 77 -35 77 -77c0 -43 -34 -77 -77 -77z" />
    <glyph glyph-name="wgrave" unicode="&#x1e81;" horiz-adv-x="1700" 
d="M304 0l-240 1185h244l169 -1021l236 1021h261l238 -1020l167 1020h243l-238 -1185h-338l-202 912l-199 -912h-341zM886 1237l-202 178h168l149 -178h-115z" />
    <glyph glyph-name="x" unicode="x" horiz-adv-x="1188" 
d="M26 0l390 593l-376 592h269l281 -495l277 495h267l-378 -592l387 -593h-270l-293 495l-287 -495h-267z" />
    <glyph glyph-name="y" unicode="y" horiz-adv-x="1129" 
d="M374 0l-342 1185h248l276 -1000l273 1000h248l-340 -1185c-50 -170 -126 -289 -228 -359c-103 -69 -242 -104 -419 -104v165c115 0 207 22 275 65c68 44 118 121 152 233h-143z" />
    <glyph glyph-name="y.ss01" horiz-adv-x="1156" 
d="M579 -464c-329 0 -473 128 -473 391h234c0 -161 86 -236 240 -236c153 0 258 85 258 355v96c-5 -6 -11 -12 -17 -18c-89 -90 -206 -135 -350 -135c-141 0 -241 46 -300 139c-59 92 -89 220 -89 384v673h237v-664c0 -136 20 -231 60 -286c40 -54 100 -81 179 -81
c80 0 147 30 201 90c46 51 72 115 79 190v751h238v-1149c0 -367 -165 -500 -497 -500z" />
    <glyph glyph-name="yacute" unicode="&#xfd;" horiz-adv-x="1129" 
d="M374 0l-342 1185h248l276 -1000l273 1000h248l-340 -1185c-50 -170 -126 -289 -228 -359c-103 -69 -242 -104 -419 -104v165c115 0 207 22 275 65c68 44 118 121 152 233h-143zM396 1227l149 178h167l-201 -178h-115z" />
    <glyph glyph-name="ycircumflex" unicode="&#x177;" horiz-adv-x="1129" 
d="M374 0l-342 1185h248l276 -1000l273 1000h248l-340 -1185c-50 -170 -126 -289 -228 -359c-103 -69 -242 -104 -419 -104v165c115 0 207 22 275 65c68 44 118 121 152 233h-143zM270 1236l206 185h155l206 -185h-142l-141 132l-141 -132h-143z" />
    <glyph glyph-name="ydieresis" unicode="&#xff;" horiz-adv-x="1129" 
d="M374 0l-342 1185h248l276 -1000l273 1000h248l-340 -1185c-50 -170 -126 -289 -228 -359c-103 -69 -242 -104 -419 -104v165c115 0 207 22 275 65c68 44 118 121 152 233h-143zM387 1251c-43 0 -78 34 -78 77c0 42 35 77 78 77c42 0 77 -35 77 -77c0 -43 -35 -77 -77 -77
zM718 1251c-42 0 -77 34 -77 77c0 42 35 77 77 77c43 0 77 -35 77 -77c0 -43 -34 -77 -77 -77z" />
    <glyph glyph-name="uni1E8F" unicode="&#x1e8f;" horiz-adv-x="1129" 
d="M374 0l-342 1185h248l276 -1000l273 1000h248l-340 -1185c-50 -170 -126 -289 -228 -359c-103 -69 -242 -104 -419 -104v165c115 0 207 22 275 65c68 44 118 121 152 233h-143zM554 1243c-44 0 -79 35 -79 80c0 43 35 78 79 78c43 0 79 -35 79 -78c0 -44 -35 -80 -79 -80
z" />
    <glyph glyph-name="uni1EF5" unicode="&#x1ef5;" horiz-adv-x="1129" 
d="M374 0l-342 1185h248l276 -1000l273 1000h248l-340 -1185c-50 -170 -126 -289 -228 -359c-103 -69 -242 -104 -419 -104v165c115 0 207 22 275 65c68 44 118 121 152 233h-143zM739 -517c-44 0 -79 35 -79 80c0 43 35 78 79 78c43 0 79 -35 79 -78c0 -44 -35 -80 -79 -80
z" />
    <glyph glyph-name="ygrave" unicode="&#x1ef3;" horiz-adv-x="1129" 
d="M374 0l-342 1185h248l276 -1000l273 1000h248l-340 -1185c-50 -170 -126 -289 -228 -359c-103 -69 -242 -104 -419 -104v165c115 0 207 22 275 65c68 44 118 121 152 233h-143zM597 1237l-202 178h168l149 -178h-115z" />
    <glyph glyph-name="uni1EF7" unicode="&#x1ef7;" horiz-adv-x="1129" 
d="M374 0l-342 1185h248l276 -1000l273 1000h248l-340 -1185c-50 -170 -126 -289 -228 -359c-103 -69 -242 -104 -419 -104v165c115 0 207 22 275 65c68 44 118 121 152 233h-143zM429 1513c250 0 370 -19 370 -109c0 -81 -121 -106 -207 -106v-59h-88v120
c101 0 178 9 178 38c0 36 -74 40 -253 40v76z" />
    <glyph glyph-name="uni0233" unicode="&#x233;" horiz-adv-x="1129" 
d="M374 0l-342 1185h248l276 -1000l273 1000h248l-340 -1185c-50 -170 -126 -289 -228 -359c-103 -69 -242 -104 -419 -104v165c115 0 207 22 275 65c68 44 118 121 152 233h-143zM247 1282v91h614v-91h-614z" />
    <glyph glyph-name="uni1EF9" unicode="&#x1ef9;" horiz-adv-x="1129" 
d="M374 0l-342 1185h248l276 -1000l273 1000h248l-340 -1185c-50 -170 -126 -289 -228 -359c-103 -69 -242 -104 -419 -104v165c115 0 207 22 275 65c68 44 118 121 152 233h-143zM673 1261c-111 0 -143 74 -215 74c-54 0 -75 -39 -76 -63h-119c3 50 32 158 182 158
c105 0 130 -73 212 -73c50 0 73 39 74 63h118c-1 -46 -27 -159 -176 -159z" />
    <glyph glyph-name="z" unicode="z" horiz-adv-x="1014" 
d="M70 0v164l587 857h-581v164h835v-164l-578 -857h589v-164h-852z" />
    <glyph glyph-name="zacute" unicode="&#x17a;" horiz-adv-x="1014" 
d="M70 0v164l587 857h-581v164h835v-164l-578 -857h589v-164h-852zM340 1227l149 178h167l-201 -178h-115z" />
    <glyph glyph-name="zcaron" unicode="&#x17e;" horiz-adv-x="1014" 
d="M70 0v164l587 857h-581v164h835v-164l-578 -857h589v-164h-852zM420 1231l-206 185h143l141 -132l141 132h142l-206 -185h-155z" />
    <glyph glyph-name="zdotaccent" unicode="&#x17c;" horiz-adv-x="1014" 
d="M70 0v164l587 857h-581v164h835v-164l-578 -857h589v-164h-852zM498 1243c-44 0 -79 35 -79 80c0 43 35 78 79 78c43 0 79 -35 79 -78c0 -44 -35 -80 -79 -80z" />
    <glyph glyph-name="uni1E93" unicode="&#x1e93;" horiz-adv-x="1014" 
d="M70 0v164l587 857h-581v164h835v-164l-578 -857h589v-164h-852zM502 -284c-44 0 -79 35 -79 80c0 43 35 78 79 78c43 0 79 -35 79 -78c0 -44 -35 -80 -79 -80z" />
    <glyph glyph-name="a.sc" horiz-adv-x="1359" 
d="M62 0l436 1189h363l436 -1189h-248l-105 256h-529l-105 -256h-248zM470 418h420l-206 629h-7z" />
    <glyph glyph-name="a.ss01.sc" horiz-adv-x="1359" 
d="M62 0l436 1189h363l436 -1189h-248l-105 256h-529l-105 -256h-248zM470 418h420l-206 629h-7z" />
    <glyph glyph-name="aacute.sc" horiz-adv-x="1359" 
d="M62 0l436 1189h363l436 -1189h-248l-105 256h-529l-105 -256h-248zM470 418h420l-206 629h-7zM520 1231l149 177h167l-201 -177h-115z" />
    </font>
</defs>
</svg>
