<?xml version="1.0" standalone="no"?>
<!DOCTYPE svg PUBLIC "-//W3C//DTD SVG 1.1//EN" "http://www.w3.org/Graphics/SVG/1.1/DTD/svg11.dtd" >
<svg xmlns="http://www.w3.org/2000/svg" xmlns:xlink="http://www.w3.org/1999/xlink" version="1.1">
<metadata>
Created by FontForge 20201107 at Wed Jul 29 18:55:25 2020
 By Jimmy Wärting
Copyright 2020 The Anybody Project Authors https:github.comEtcetera-Type-CoAnybody
</metadata>
<defs>
<font id="Anybody-Light" horiz-adv-x="1255" >
  <font-face 
    font-family="Anybody"
    font-weight="300"
    font-stretch="normal"
    units-per-em="2000"
    panose-1="0 0 0 0 0 0 0 0 0 0"
    ascent="1600"
    descent="-400"
    x-height="1185"
    cap-height="1350"
    bbox="-243 -482 2227 1858"
    underline-thickness="75"
    underline-position="-247"
    stemh="93"
    stemv="132"
    unicode-range="U+000D-FB02"
  />
<missing-glyph horiz-adv-x="634" 
d="M100 146v1042h348v-1042h-348zM126 172h296v990h-296v-990zM202 564l-20 20l75 76l-75 76l20 20l75 -76l75 76l20 -20l-75 -76l75 -76l-20 -20l-75 76zM202 902l-20 20l75 76l-75 76l20 20l75 -76l75 76l20 -20l-75 -76l75 -76l-20 -20l-75 76zM202 226l-20 20l75 76
l-75 76l20 20l75 -76l75 76l20 -20l-75 -76l75 -76l-20 -20l-75 76z" />
    <glyph glyph-name="f_f" unicode="ff" horiz-adv-x="1722" 
d="M275 0v1092h-242v93h243l-1 90c0 103 42 179 125 228s213 74 388 74h47v-90h-46c-136 0 -235 -17 -295 -50c-60 -34 -90 -88 -90 -164v-88h349v-93h-349v-1092h-129zM1111 0v1092h-242v93h243l-1 90c0 103 41 179 125 228c83 49 212 74 388 74h47v-90h-46
c-136 0 -235 -17 -295 -50c-60 -34 -90 -88 -90 -164l-1 -88h349v-93h-348v-1092h-129z" />
    <glyph glyph-name="f_f_i" unicode="ffi" horiz-adv-x="2124" 
d="M275 0v1092h-242v93h243l-1 90c0 103 42 179 125 228s213 74 388 74h47v-90h-46c-136 0 -235 -17 -295 -50c-60 -34 -90 -88 -90 -164v-88h349v-93h-349v-1092h-129zM1111 0v1092h-242v93h243l-1 90c0 103 41 179 125 228c83 49 212 74 388 74h47v-90h-46
c-136 0 -235 -17 -295 -50c-60 -34 -90 -88 -90 -164l-1 -88h349v-93h-348v-1092h-129zM1826 0v1186h130v-1186h-130zM1826 1492h130v-149h-130v149z" />
    <glyph glyph-name="f_f_l" unicode="ffl" horiz-adv-x="2108" 
d="M275 0v1092h-242v93h243l-1 90c0 103 42 179 125 228s213 74 388 74h47v-90h-46c-136 0 -235 -17 -295 -50c-60 -34 -90 -88 -90 -164v-88h349v-93h-349v-1092h-129zM1111 0v1092h-242v93h243l-1 90c0 103 41 179 125 228c83 49 212 74 388 74h47v-90h-46
c-136 0 -235 -17 -295 -50c-60 -34 -90 -88 -90 -164l-1 -88h349v-93h-348v-1092h-129zM1836 0v1570h129v-1570h-129z" />
    <glyph glyph-name="fi" unicode="fi" horiz-adv-x="1288" 
d="M275 0v1092h-242v93h243l-1 90c0 103 42 179 125 228s213 74 388 74h47v-90h-46c-136 0 -235 -17 -295 -50c-60 -34 -90 -88 -90 -164v-88h349v-93h-349v-1092h-129zM990 0v1186h130v-1186h-130zM990 1492h130v-149h-130v149z" />
    <glyph glyph-name="fl" unicode="fl" horiz-adv-x="1272" 
d="M275 0v1092h-242v93h243l-1 90c0 103 42 179 125 228s213 74 388 74h47v-90h-46c-136 0 -235 -17 -295 -50c-60 -34 -90 -88 -90 -164v-88h349v-93h-349v-1092h-129zM1000 0v1570h129v-1570h-129z" />
    <glyph glyph-name=".notdef" horiz-adv-x="634" 
d="M100 146v1042h348v-1042h-348zM126 172h296v990h-296v-990zM202 564l-20 20l75 76l-75 76l20 20l75 -76l75 76l20 -20l-75 -76l75 -76l-20 -20l-75 76zM202 902l-20 20l75 76l-75 76l20 20l75 -76l75 76l20 -20l-75 -76l75 -76l-20 -20l-75 76zM202 226l-20 20l75 76
l-75 76l20 20l75 -76l75 76l20 -20l-75 -76l75 -76l-20 -20l-75 76z" />
    <glyph glyph-name="A" unicode="A" horiz-adv-x="1252" 
d="M66 0l458 1353h203l457 -1353h-136l-133 400h-579l-133 -400h-137zM360 491h531l-262 782h-6z" />
    <glyph glyph-name="Aacute" unicode="&#xc1;" horiz-adv-x="1252" 
d="M66 0l458 1353h203l457 -1353h-136l-133 400h-579l-133 -400h-137zM360 491h531l-262 782h-6zM505 1392l136 144h103l-165 -144h-74z" />
    <glyph glyph-name="Abreve" unicode="&#x102;" horiz-adv-x="1252" 
d="M66 0l458 1353h203l457 -1353h-136l-133 400h-579l-133 -400h-137zM360 491h531l-262 782h-6zM624 1400c-106 0 -170 66 -170 140h70c0 -48 29 -88 100 -88c77 0 100 40 100 88h71c0 -74 -59 -140 -171 -140z" />
    <glyph glyph-name="uni1EAE" unicode="&#x1eae;" horiz-adv-x="1252" 
d="M66 0l458 1353h203l457 -1353h-136l-133 400h-579l-133 -400h-137zM360 491h531l-262 782h-6zM624 1400c-106 0 -170 66 -170 140h70c0 -48 29 -88 100 -88c77 0 100 40 100 88h71c0 -74 -59 -140 -171 -140zM505 1582l136 143h103l-165 -143h-74z" />
    <glyph glyph-name="uni1EB6" unicode="&#x1eb6;" horiz-adv-x="1252" 
d="M66 0l458 1353h203l457 -1353h-136l-133 400h-579l-133 -400h-137zM360 491h531l-262 782h-6zM624 1400c-106 0 -170 66 -170 140h70c0 -48 29 -88 100 -88c77 0 100 40 100 88h71c0 -74 -59 -140 -171 -140zM625 -246c-32 0 -59 26 -59 59c0 32 26 57 59 57
c31 0 57 -25 57 -57c0 -33 -25 -59 -57 -59z" />
    <glyph glyph-name="uni1EB0" unicode="&#x1eb0;" horiz-adv-x="1252" 
d="M66 0l458 1353h203l457 -1353h-136l-133 400h-579l-133 -400h-137zM360 491h531l-262 782h-6zM624 1400c-106 0 -170 66 -170 140h70c0 -48 29 -88 100 -88c77 0 100 40 100 88h71c0 -74 -59 -140 -171 -140zM670 1597l-165 143h103l136 -143h-74z" />
    <glyph glyph-name="uni1EB2" unicode="&#x1eb2;" horiz-adv-x="1252" 
d="M66 0l458 1353h203l457 -1353h-136l-133 400h-579l-133 -400h-137zM360 491h531l-262 782h-6zM525 1836c198 0 312 -13 312 -94c0 -72 -121 -92 -188 -92v-60h-55v101c88 0 173 11 173 47c0 44 -83 50 -242 50v48zM624 1400c-106 0 -170 66 -170 140h70
c0 -48 29 -88 100 -88c77 0 100 40 100 88h71c0 -74 -59 -140 -171 -140z" />
    <glyph glyph-name="uni1EB4" unicode="&#x1eb4;" horiz-adv-x="1252" 
d="M66 0l458 1353h203l457 -1353h-136l-133 400h-579l-133 -400h-137zM360 491h531l-262 782h-6zM724 1628c-97 0 -118 64 -187 64c-51 0 -74 -32 -76 -52h-71c3 38 35 109 142 109c89 0 102 -63 186 -63c47 0 71 32 72 53h71c-2 -34 -27 -111 -137 -111zM624 1400
c-106 0 -170 66 -170 140h70c0 -48 29 -88 100 -88c77 0 100 40 100 88h71c0 -74 -59 -140 -171 -140z" />
    <glyph glyph-name="uni01CD" unicode="&#x1cd;" horiz-adv-x="1252" 
d="M66 0l458 1353h203l457 -1353h-136l-133 400h-579l-133 -400h-137zM360 491h531l-262 782h-6zM579 1398l-191 161h87l150 -124l149 124h87l-192 -161h-90z" />
    <glyph glyph-name="Acircumflex" unicode="&#xc2;" horiz-adv-x="1252" 
d="M66 0l458 1353h203l457 -1353h-136l-133 400h-579l-133 -400h-137zM360 491h531l-262 782h-6zM388 1400l191 161h90l192 -161h-87l-149 123l-150 -123h-87z" />
    <glyph glyph-name="uni1EA4" unicode="&#x1ea4;" horiz-adv-x="1252" 
d="M66 0l458 1353h203l457 -1353h-136l-133 400h-579l-133 -400h-137zM360 491h531l-262 782h-6zM388 1400l191 161h90l192 -161h-87l-149 123l-150 -123h-87zM505 1603l136 144h103l-165 -144h-74z" />
    <glyph glyph-name="uni1EAC" unicode="&#x1eac;" horiz-adv-x="1252" 
d="M66 0l458 1353h203l457 -1353h-136l-133 400h-579l-133 -400h-137zM360 491h531l-262 782h-6zM388 1400l191 161h90l192 -161h-87l-149 123l-150 -123h-87zM625 -246c-32 0 -59 26 -59 59c0 32 26 57 59 57c31 0 57 -25 57 -57c0 -33 -25 -59 -57 -59z" />
    <glyph glyph-name="uni1EA6" unicode="&#x1ea6;" horiz-adv-x="1252" 
d="M66 0l458 1353h203l457 -1353h-136l-133 400h-579l-133 -400h-137zM360 491h531l-262 782h-6zM388 1400l191 161h90l192 -161h-87l-149 123l-150 -123h-87zM670 1618l-165 144h103l136 -144h-74z" />
    <glyph glyph-name="uni1EA8" unicode="&#x1ea8;" horiz-adv-x="1252" 
d="M66 0l458 1353h203l457 -1353h-136l-133 400h-579l-133 -400h-137zM360 491h531l-262 782h-6zM525 1858c198 0 312 -14 312 -95c0 -71 -121 -91 -188 -91v-61h-55v102c88 0 173 11 173 47c0 44 -83 49 -242 49v49zM388 1400l191 161h90l192 -161h-87l-149 123l-150 -123
h-87z" />
    <glyph glyph-name="uni1EAA" unicode="&#x1eaa;" horiz-adv-x="1252" 
d="M66 0l458 1353h203l457 -1353h-136l-133 400h-579l-133 -400h-137zM360 491h531l-262 782h-6zM724 1649c-97 0 -118 64 -187 64c-51 0 -74 -31 -76 -52h-71c3 39 35 110 142 110c89 0 102 -64 186 -64c47 0 71 33 72 53h71c-2 -34 -27 -111 -137 -111zM388 1400l191 161
h90l192 -161h-87l-149 123l-150 -123h-87z" />
    <glyph glyph-name="uni0200" unicode="&#x200;" horiz-adv-x="1252" 
d="M66 0l458 1353h203l457 -1353h-136l-133 400h-579l-133 -400h-137zM360 491h531l-262 782h-6zM568 1411l-165 144h103l136 -144h-74zM771 1411l-165 144h103l136 -144h-74z" />
    <glyph glyph-name="Adieresis" unicode="&#xc4;" horiz-adv-x="1252" 
d="M66 0l458 1353h203l457 -1353h-136l-133 400h-579l-133 -400h-137zM360 491h531l-262 782h-6zM493 1421c-32 0 -58 26 -58 58s26 58 58 58s57 -26 57 -58s-25 -58 -57 -58zM755 1421c-32 0 -58 26 -58 58s26 58 58 58s58 -26 58 -58s-26 -58 -58 -58z" />
    <glyph glyph-name="uni1EA0" unicode="&#x1ea0;" horiz-adv-x="1252" 
d="M66 0l458 1353h203l457 -1353h-136l-133 400h-579l-133 -400h-137zM360 491h531l-262 782h-6zM625 -246c-32 0 -59 26 -59 59c0 32 26 57 59 57c31 0 57 -25 57 -57c0 -33 -25 -59 -57 -59z" />
    <glyph glyph-name="Agrave" unicode="&#xc0;" horiz-adv-x="1252" 
d="M66 0l458 1353h203l457 -1353h-136l-133 400h-579l-133 -400h-137zM360 491h531l-262 782h-6zM670 1407l-165 144h103l136 -144h-74z" />
    <glyph glyph-name="uni1EA2" unicode="&#x1ea2;" horiz-adv-x="1252" 
d="M66 0l458 1353h203l457 -1353h-136l-133 400h-579l-133 -400h-137zM360 491h531l-262 782h-6zM525 1647c198 0 312 -14 312 -95c0 -71 -121 -91 -188 -91v-61h-55v102c88 0 173 11 173 47c0 44 -83 49 -242 49v49z" />
    <glyph glyph-name="uni0202" unicode="&#x202;" horiz-adv-x="1252" 
d="M66 0l458 1353h203l457 -1353h-136l-133 400h-579l-133 -400h-137zM360 491h531l-262 782h-6zM625 1551c105 0 169 -66 169 -139h-70c0 47 -29 87 -99 87c-77 0 -101 -40 -101 -87h-70c0 73 58 139 171 139z" />
    <glyph glyph-name="Amacron" unicode="&#x100;" horiz-adv-x="1252" 
d="M66 0l458 1353h203l457 -1353h-136l-133 400h-579l-133 -400h-137zM360 491h531l-262 782h-6zM354 1452v56h540v-56h-540z" />
    <glyph glyph-name="Aogonek" unicode="&#x104;" horiz-adv-x="1252" 
d="M66 0l458 1353h203l457 -1353h11c-18 -30 -57 -110 -57 -160c0 -39 23 -60 73 -60c41 0 92 11 111 21l5 -72c-17 -8 -77 -21 -134 -21c-73 0 -135 28 -135 109c0 73 46 153 67 183h-77l-133 400h-579l-133 -400h-137zM360 491h531l-262 782h-6z" />
    <glyph glyph-name="Aring" unicode="&#xc5;" horiz-adv-x="1252" 
d="M66 0l458 1353h203l457 -1353h-136l-133 400h-579l-133 -400h-137zM360 491h531l-262 782h-6zM624 1385c-55 0 -97 43 -97 100c0 53 41 97 97 97s98 -44 98 -97c0 -56 -42 -100 -98 -100zM624 1440c24 0 43 19 43 45c0 24 -19 42 -43 42c-23 0 -42 -18 -42 -42
c0 -26 19 -45 42 -45z" />
    <glyph glyph-name="Aringacute" unicode="&#x1fa;" horiz-adv-x="1252" 
d="M66 0l458 1353h203l457 -1353h-136l-133 400h-579l-133 -400h-137zM360 491h531l-262 782h-6zM624 1378c-55 0 -97 43 -97 100c0 53 41 97 97 97s98 -44 98 -97c0 -56 -42 -100 -98 -100zM505 1617l136 144h103l-165 -144h-74zM624 1433c24 0 43 19 43 45
c0 24 -19 42 -43 42c-23 0 -42 -18 -42 -42c0 -26 19 -45 42 -45z" />
    <glyph glyph-name="Atilde" unicode="&#xc3;" horiz-adv-x="1252" 
d="M66 0l458 1353h203l457 -1353h-136l-133 400h-579l-133 -400h-137zM360 491h531l-262 782h-6zM724 1438c-97 0 -118 64 -187 64c-51 0 -74 -31 -76 -52h-71c3 39 35 110 142 110c89 0 102 -64 186 -64c47 0 71 33 72 53h71c-2 -34 -27 -111 -137 -111z" />
    <glyph glyph-name="AE" unicode="&#xc6;" horiz-adv-x="1812" 
d="M66 0l704 1350h925v-93h-712v-518h674v-90h-674v-555h712v-94h-843v341h-469l-178 -341h-139zM431 433h421v808z" />
    <glyph glyph-name="AEacute" unicode="&#x1fc;" horiz-adv-x="1812" 
d="M66 0l704 1350h925v-93h-712v-518h674v-90h-674v-555h712v-94h-843v341h-469l-178 -341h-139zM431 433h421v808zM794 1392l136 144h102l-165 -144h-73z" />
    <glyph glyph-name="B" unicode="B" horiz-adv-x="1173" 
d="M86 0v1350h653c115 0 191 -30 228 -89c36 -59 54 -130 54 -213c0 -87 -18 -161 -55 -220c-36 -59 -86 -91 -148 -94c67 -4 122 -38 164 -101s63 -145 63 -247c0 -115 -19 -207 -57 -279c-38 -71 -111 -107 -220 -107h-682zM217 94h519c63 0 108 26 136 79
c28 52 42 127 42 224c0 91 -18 162 -52 214c-35 52 -94 78 -177 78h-468v-595zM217 774h460c78 0 133 24 165 72c31 48 47 110 47 186c0 69 -13 124 -38 165c-26 40 -74 60 -144 60h-490v-483z" />
    <glyph glyph-name="C" unicode="C" horiz-adv-x="1188" 
d="M574 -9c-181 0 -311 53 -392 157c-80 105 -121 281 -121 530c0 247 41 422 121 526s211 156 391 156c178 0 304 -48 378 -144s111 -227 111 -391h-133c0 153 -29 265 -89 336c-59 70 -149 106 -267 106c-122 0 -215 -40 -281 -119c-65 -78 -98 -235 -98 -470
c0 -236 33 -394 99 -474c66 -79 159 -119 280 -119c118 0 207 36 267 109c59 73 89 185 89 335h133c0 -162 -37 -292 -111 -390c-74 -99 -199 -148 -377 -148z" />
    <glyph glyph-name="Cacute" unicode="&#x106;" horiz-adv-x="1188" 
d="M574 -9c-181 0 -311 53 -392 157c-80 105 -121 281 -121 530c0 247 41 422 121 526s211 156 391 156c178 0 304 -48 378 -144s111 -227 111 -391h-133c0 153 -29 265 -89 336c-59 70 -149 106 -267 106c-122 0 -215 -40 -281 -119c-65 -78 -98 -235 -98 -470
c0 -236 33 -394 99 -474c66 -79 159 -119 280 -119c118 0 207 36 267 109c59 73 89 185 89 335h133c0 -162 -37 -292 -111 -390c-74 -99 -199 -148 -377 -148zM446 1392l136 144h103l-165 -144h-74z" />
    <glyph glyph-name="Ccaron" unicode="&#x10c;" horiz-adv-x="1188" 
d="M574 -9c-181 0 -311 53 -392 157c-80 105 -121 281 -121 530c0 247 41 422 121 526s211 156 391 156c178 0 304 -48 378 -144s111 -227 111 -391h-133c0 153 -29 265 -89 336c-59 70 -149 106 -267 106c-122 0 -215 -40 -281 -119c-65 -78 -98 -235 -98 -470
c0 -236 33 -394 99 -474c66 -79 159 -119 280 -119c118 0 207 36 267 109c59 73 89 185 89 335h133c0 -162 -37 -292 -111 -390c-74 -99 -199 -148 -377 -148zM520 1398l-191 161h87l150 -124l149 124h87l-191 -161h-91z" />
    <glyph glyph-name="Ccedilla" unicode="&#xc7;" horiz-adv-x="1188" 
d="M592 -265c-46 0 -90 5 -127 14l21 61c27 -7 65 -13 108 -13c73 0 111 20 111 60c0 28 -23 41 -56 41c-30 0 -65 -11 -92 -24l-53 11l32 107c-161 7 -279 59 -354 156c-80 105 -121 281 -121 530c0 247 41 422 121 526s211 156 391 156c178 0 304 -48 378 -144
s111 -227 111 -391h-133c0 153 -29 265 -89 336c-59 70 -149 106 -267 106c-122 0 -215 -40 -281 -119c-65 -78 -98 -235 -98 -470c0 -236 33 -394 99 -474c66 -79 159 -119 280 -119c118 0 207 36 267 109c59 73 89 185 89 335h133c0 -162 -37 -292 -111 -390
c-71 -94 -189 -144 -355 -147l-26 -79c25 15 68 27 111 27c61 0 107 -25 107 -83c0 -86 -94 -122 -196 -122z" />
    <glyph glyph-name="uni1E08" unicode="&#x1e08;" horiz-adv-x="1188" 
d="M592 -265c-46 0 -90 5 -127 14l21 61c27 -7 65 -13 108 -13c73 0 111 20 111 60c0 28 -23 41 -56 41c-30 0 -65 -11 -92 -24l-53 11l32 107c-161 7 -279 59 -354 156c-80 105 -121 281 -121 530c0 247 41 422 121 526s211 156 391 156c178 0 304 -48 378 -144
s111 -227 111 -391h-133c0 153 -29 265 -89 336c-59 70 -149 106 -267 106c-122 0 -215 -40 -281 -119c-65 -78 -98 -235 -98 -470c0 -236 33 -394 99 -474c66 -79 159 -119 280 -119c118 0 207 36 267 109c59 73 89 185 89 335h133c0 -162 -37 -292 -111 -390
c-71 -94 -189 -144 -355 -147l-26 -79c25 15 68 27 111 27c61 0 107 -25 107 -83c0 -86 -94 -122 -196 -122zM446 1392l136 144h103l-165 -144h-74z" />
    <glyph glyph-name="Ccircumflex" unicode="&#x108;" horiz-adv-x="1188" 
d="M574 -9c-181 0 -311 53 -392 157c-80 105 -121 281 -121 530c0 247 41 422 121 526s211 156 391 156c178 0 304 -48 378 -144s111 -227 111 -391h-133c0 153 -29 265 -89 336c-59 70 -149 106 -267 106c-122 0 -215 -40 -281 -119c-65 -78 -98 -235 -98 -470
c0 -236 33 -394 99 -474c66 -79 159 -119 280 -119c118 0 207 36 267 109c59 73 89 185 89 335h133c0 -162 -37 -292 -111 -390c-74 -99 -199 -148 -377 -148zM329 1400l191 161h91l191 -161h-87l-149 123l-150 -123h-87z" />
    <glyph glyph-name="Cdotaccent" unicode="&#x10a;" horiz-adv-x="1188" 
d="M574 -9c-181 0 -311 53 -392 157c-80 105 -121 281 -121 530c0 247 41 422 121 526s211 156 391 156c178 0 304 -48 378 -144s111 -227 111 -391h-133c0 153 -29 265 -89 336c-59 70 -149 106 -267 106c-122 0 -215 -40 -281 -119c-65 -78 -98 -235 -98 -470
c0 -236 33 -394 99 -474c66 -79 159 -119 280 -119c118 0 207 36 267 109c59 73 89 185 89 335h133c0 -162 -37 -292 -111 -390c-74 -99 -199 -148 -377 -148zM566 1416c-32 0 -58 26 -58 59c0 32 25 57 58 57c31 0 58 -25 58 -57c0 -33 -26 -59 -58 -59z" />
    <glyph glyph-name="D" unicode="D" horiz-adv-x="1143" 
d="M86 0v1350h499c161 0 278 -48 351 -143c74 -96 111 -273 111 -532c0 -258 -37 -436 -111 -531c-73 -96 -190 -144 -351 -144h-499zM216 94h335c121 0 212 37 273 112c61 74 91 231 91 469c0 239 -30 395 -91 470c-61 74 -152 112 -273 112h-335v-1163z" />
    <glyph glyph-name="uni01C4" unicode="&#x1c4;" horiz-adv-x="2199" 
d="M86 0v1350h499c161 0 278 -48 351 -143c74 -96 111 -273 111 -532c0 -258 -37 -436 -111 -531c-73 -96 -190 -144 -351 -144h-499zM216 94h335c121 0 212 37 273 112c61 74 91 231 91 469c0 239 -30 395 -91 470c-61 74 -152 112 -273 112h-335v-1163zM1214 0v99
l695 1158h-686v93h831v-95l-694 -1161h730v-94h-876zM1625 1398l-191 161h87l150 -124l149 124h87l-191 -161h-91z" />
    <glyph glyph-name="Eth" unicode="&#xd0;" horiz-adv-x="1166" 
d="M-24 632v90h133v628h499c161 0 278 -48 352 -143c73 -96 110 -273 110 -532c0 -258 -37 -436 -110 -531c-74 -96 -191 -144 -352 -144h-499v632h-133zM240 94h334c121 0 213 37 273 112c61 74 92 231 92 469c0 239 -31 395 -92 470c-60 74 -152 112 -273 112h-334v-535
h222v-90h-222v-538z" />
    <glyph glyph-name="Dcaron" unicode="&#x10e;" horiz-adv-x="1143" 
d="M86 0v1350h499c161 0 278 -48 351 -143c74 -96 111 -273 111 -532c0 -258 -37 -436 -111 -531c-73 -96 -190 -144 -351 -144h-499zM216 94h335c121 0 212 37 273 112c61 74 91 231 91 469c0 239 -30 395 -91 470c-61 74 -152 112 -273 112h-335v-1163zM492 1398l-192 161
h88l150 -124l149 124h87l-192 -161h-90z" />
    <glyph glyph-name="Dcroat" unicode="&#x110;" horiz-adv-x="1166" 
d="M109 0v632h-133v90h133v628h499c161 0 278 -48 352 -143c73 -96 110 -273 110 -532c0 -258 -37 -436 -110 -531c-74 -96 -191 -144 -352 -144h-499zM240 94h334c121 0 213 37 273 112c61 74 92 231 92 469c0 239 -31 395 -92 470c-60 74 -152 112 -273 112h-334v-535h222
v-90h-222v-538z" />
    <glyph glyph-name="uni1E0C" unicode="&#x1e0c;" horiz-adv-x="1143" 
d="M86 0v1350h499c161 0 278 -48 351 -143c74 -96 111 -273 111 -532c0 -258 -37 -436 -111 -531c-73 -96 -190 -144 -351 -144h-499zM216 94h335c121 0 212 37 273 112c61 74 91 231 91 469c0 239 -30 395 -91 470c-61 74 -152 112 -273 112h-335v-1163zM556 -210
c-32 0 -58 25 -58 58c0 32 25 58 58 58c31 0 58 -26 58 -58s-26 -58 -58 -58z" />
    <glyph glyph-name="uni1E0E" unicode="&#x1e0e;" horiz-adv-x="1143" 
d="M86 0v1350h499c161 0 278 -48 351 -143c74 -96 111 -273 111 -532c0 -258 -37 -436 -111 -531c-73 -96 -190 -144 -351 -144h-499zM216 94h335c121 0 212 37 273 112c61 74 91 231 91 469c0 239 -30 395 -91 470c-61 74 -152 112 -273 112h-335v-1163zM286 -201v56h540
v-56h-540z" />
    <glyph glyph-name="uni01C5" unicode="&#x1c5;" horiz-adv-x="2067" 
d="M86 0v1350h499c161 0 278 -48 351 -143c74 -96 111 -273 111 -532c0 -258 -37 -436 -111 -531c-73 -96 -190 -144 -351 -144h-499zM216 94h335c121 0 212 37 273 112c61 74 91 231 91 469c0 239 -30 395 -91 470c-61 74 -152 112 -273 112h-335v-1163zM1212 0v96l608 996
h-598v93h734v-98l-602 -994h614v-93h-756zM1548 1232l-191 161h87l150 -124l149 124h87l-191 -161h-91z" />
    <glyph glyph-name="E" unicode="E" horiz-adv-x="1047" 
d="M87 0v1350h843v-93h-712v-518h674v-90h-674v-555h712v-94h-843z" />
    <glyph glyph-name="Eacute" unicode="&#xc9;" horiz-adv-x="1047" 
d="M87 0v1350h843v-93h-712v-518h674v-90h-674v-555h712v-94h-843zM401 1392l136 144h103l-165 -144h-74z" />
    <glyph glyph-name="Ebreve" unicode="&#x114;" horiz-adv-x="1047" 
d="M87 0v1350h843v-93h-712v-518h674v-90h-674v-555h712v-94h-843zM520 1400c-105 0 -170 66 -170 140h70c0 -48 30 -88 100 -88c77 0 101 40 101 88h70c0 -74 -58 -140 -171 -140z" />
    <glyph glyph-name="Ecaron" unicode="&#x11a;" horiz-adv-x="1047" 
d="M87 0v1350h843v-93h-712v-518h674v-90h-674v-555h712v-94h-843zM475 1398l-191 161h87l150 -124l149 124h87l-191 -161h-91z" />
    <glyph glyph-name="uni1E1C" unicode="&#x1e1c;" horiz-adv-x="1047" 
d="M87 0v1350h843v-93h-712v-518h674v-90h-674v-555h712v-94h-377l-28 -87c25 15 68 27 111 27c61 0 107 -25 107 -83c0 -86 -94 -122 -196 -122c-46 0 -90 5 -127 14l21 61c27 -7 65 -13 108 -13c73 0 111 20 111 60c0 28 -23 41 -56 41c-30 0 -65 -11 -92 -24l-53 11
l35 115h-407zM520 1400c-105 0 -170 66 -170 140h70c0 -48 30 -88 100 -88c77 0 101 40 101 88h70c0 -74 -58 -140 -171 -140z" />
    <glyph glyph-name="Ecircumflex" unicode="&#xca;" horiz-adv-x="1047" 
d="M87 0v1350h843v-93h-712v-518h674v-90h-674v-555h712v-94h-843zM284 1400l191 161h91l191 -161h-87l-149 123l-150 -123h-87z" />
    <glyph glyph-name="uni1EBE" unicode="&#x1ebe;" horiz-adv-x="1047" 
d="M87 0v1350h843v-93h-712v-518h674v-90h-674v-555h712v-94h-843zM284 1400l191 161h91l191 -161h-87l-149 123l-150 -123h-87zM401 1603l136 144h103l-165 -144h-74z" />
    <glyph glyph-name="uni1EC6" unicode="&#x1ec6;" horiz-adv-x="1047" 
d="M87 0v1350h843v-93h-712v-518h674v-90h-674v-555h712v-94h-843zM284 1400l191 161h91l191 -161h-87l-149 123l-150 -123h-87zM521 -246c-32 0 -58 26 -58 59c0 32 25 57 58 57c31 0 58 -25 58 -57c0 -33 -26 -59 -58 -59z" />
    <glyph glyph-name="uni1EC0" unicode="&#x1ec0;" horiz-adv-x="1047" 
d="M87 0v1350h843v-93h-712v-518h674v-90h-674v-555h712v-94h-843zM284 1400l191 161h91l191 -161h-87l-149 123l-150 -123h-87zM566 1618l-165 144h103l136 -144h-74z" />
    <glyph glyph-name="uni1EC2" unicode="&#x1ec2;" horiz-adv-x="1047" 
d="M87 0v1350h843v-93h-712v-518h674v-90h-674v-555h712v-94h-843zM422 1858c197 0 311 -14 311 -95c0 -71 -121 -91 -188 -91v-61h-55v102c88 0 173 11 173 47c0 44 -83 49 -241 49v49zM284 1400l191 161h91l191 -161h-87l-149 123l-150 -123h-87z" />
    <glyph glyph-name="uni1EC4" unicode="&#x1ec4;" horiz-adv-x="1047" 
d="M87 0v1350h843v-93h-712v-518h674v-90h-674v-555h712v-94h-843zM621 1649c-98 0 -119 64 -188 64c-50 0 -74 -31 -76 -52h-71c4 39 36 110 142 110c90 0 102 -64 187 -64c47 0 70 33 72 53h70c-1 -34 -26 -111 -136 -111zM284 1400l191 161h91l191 -161h-87l-149 123
l-150 -123h-87z" />
    <glyph glyph-name="uni0204" unicode="&#x204;" horiz-adv-x="1047" 
d="M87 0v1350h843v-93h-712v-518h674v-90h-674v-555h712v-94h-843zM464 1411l-165 144h103l136 -144h-74zM668 1411l-166 144h103l136 -144h-73z" />
    <glyph glyph-name="Edieresis" unicode="&#xcb;" horiz-adv-x="1047" 
d="M87 0v1350h843v-93h-712v-518h674v-90h-674v-555h712v-94h-843zM389 1421c-32 0 -58 26 -58 58s26 58 58 58s58 -26 58 -58s-26 -58 -58 -58zM652 1421c-32 0 -58 26 -58 58s26 58 58 58s57 -26 57 -58s-25 -58 -57 -58z" />
    <glyph glyph-name="Edotaccent" unicode="&#x116;" horiz-adv-x="1047" 
d="M87 0v1350h843v-93h-712v-518h674v-90h-674v-555h712v-94h-843zM521 1416c-32 0 -58 26 -58 59c0 32 25 57 58 57c31 0 58 -25 58 -57c0 -33 -26 -59 -58 -59z" />
    <glyph glyph-name="uni1EB8" unicode="&#x1eb8;" horiz-adv-x="1047" 
d="M87 0v1350h843v-93h-712v-518h674v-90h-674v-555h712v-94h-843zM521 -246c-32 0 -58 26 -58 59c0 32 25 57 58 57c31 0 58 -25 58 -57c0 -33 -26 -59 -58 -59z" />
    <glyph glyph-name="Egrave" unicode="&#xc8;" horiz-adv-x="1047" 
d="M87 0v1350h843v-93h-712v-518h674v-90h-674v-555h712v-94h-843zM566 1407l-165 144h103l136 -144h-74z" />
    <glyph glyph-name="uni1EBA" unicode="&#x1eba;" horiz-adv-x="1047" 
d="M87 0v1350h843v-93h-712v-518h674v-90h-674v-555h712v-94h-843zM422 1647c197 0 311 -14 311 -95c0 -71 -121 -91 -188 -91v-61h-55v102c88 0 173 11 173 47c0 44 -83 49 -241 49v49z" />
    <glyph glyph-name="uni0206" unicode="&#x206;" horiz-adv-x="1047" 
d="M87 0v1350h843v-93h-712v-518h674v-90h-674v-555h712v-94h-843zM521 1551c105 0 170 -66 170 -139h-70c0 47 -30 87 -100 87c-77 0 -101 -40 -101 -87h-70c0 73 58 139 171 139z" />
    <glyph glyph-name="Emacron" unicode="&#x112;" horiz-adv-x="1047" 
d="M87 0v1350h843v-93h-712v-518h674v-90h-674v-555h712v-94h-843zM251 1452v56h540v-56h-540z" />
    <glyph glyph-name="uni1E16" unicode="&#x1e16;" horiz-adv-x="1047" 
d="M87 0v1350h843v-93h-712v-518h674v-90h-674v-555h712v-94h-843zM251 1452v56h540v-56h-540zM401 1550l136 143h103l-165 -143h-74z" />
    <glyph glyph-name="uni1E14" unicode="&#x1e14;" horiz-adv-x="1047" 
d="M87 0v1350h843v-93h-712v-518h674v-90h-674v-555h712v-94h-843zM251 1452v56h540v-56h-540zM566 1567l-165 144h103l136 -144h-74z" />
    <glyph glyph-name="Eogonek" unicode="&#x118;" horiz-adv-x="1047" 
d="M87 0v1350h843v-93h-712v-518h674v-90h-674v-555h712v-94h-310c-18 -30 -58 -110 -58 -160c0 -39 23 -60 74 -60c41 0 91 11 111 21l5 -72c-18 -8 -78 -21 -135 -21c-72 0 -135 28 -135 109c0 73 47 153 68 183h-463z" />
    <glyph glyph-name="uni1EBC" unicode="&#x1ebc;" horiz-adv-x="1047" 
d="M87 0v1350h843v-93h-712v-518h674v-90h-674v-555h712v-94h-843zM621 1438c-98 0 -119 64 -188 64c-50 0 -74 -31 -76 -52h-71c4 39 36 110 142 110c90 0 102 -64 187 -64c47 0 70 33 72 53h70c-1 -34 -26 -111 -136 -111z" />
    <glyph glyph-name="F" unicode="F" horiz-adv-x="982" 
d="M95 0v1350h806v-93h-675v-569h621v-89h-621v-599h-131z" />
    <glyph glyph-name="G" unicode="G" horiz-adv-x="1211" 
d="M571 -8c-178 0 -305 53 -381 160c-77 106 -115 282 -115 527s39 420 116 525c78 104 208 156 392 156c176 0 301 -48 374 -145c74 -98 111 -222 111 -372h-131c-1 136 -30 241 -86 314s-145 110 -268 110c-127 0 -221 -40 -283 -120s-92 -237 -92 -472
c0 -226 30 -380 92 -464s156 -126 282 -126c119 0 207 26 263 77c57 51 85 138 87 260v124h-327v84h463v-630h-87l-6 217c-49 -150 -183 -225 -404 -225z" />
    <glyph glyph-name="Gbreve" unicode="&#x11e;" horiz-adv-x="1211" 
d="M571 -8c-178 0 -305 53 -381 160c-77 106 -115 282 -115 527s39 420 116 525c78 104 208 156 392 156c176 0 301 -48 374 -145c74 -98 111 -222 111 -372h-131c-1 136 -30 241 -86 314s-145 110 -268 110c-127 0 -221 -40 -283 -120s-92 -237 -92 -472
c0 -226 30 -380 92 -464s156 -126 282 -126c119 0 207 26 263 77c57 51 85 138 87 260v124h-327v84h463v-630h-87l-6 217c-49 -150 -183 -225 -404 -225zM595 1400c-105 0 -170 66 -170 140h70c0 -48 30 -88 100 -88c77 0 101 40 101 88h70c0 -74 -58 -140 -171 -140z" />
    <glyph glyph-name="Gcaron" unicode="&#x1e6;" horiz-adv-x="1211" 
d="M571 -8c-178 0 -305 53 -381 160c-77 106 -115 282 -115 527s39 420 116 525c78 104 208 156 392 156c176 0 301 -48 374 -145c74 -98 111 -222 111 -372h-131c-1 136 -30 241 -86 314s-145 110 -268 110c-127 0 -221 -40 -283 -120s-92 -237 -92 -472
c0 -226 30 -380 92 -464s156 -126 282 -126c119 0 207 26 263 77c57 51 85 138 87 260v124h-327v84h463v-630h-87l-6 217c-49 -150 -183 -225 -404 -225zM550 1398l-191 161h87l150 -124l149 124h87l-191 -161h-91z" />
    <glyph glyph-name="Gcircumflex" unicode="&#x11c;" horiz-adv-x="1211" 
d="M571 -8c-178 0 -305 53 -381 160c-77 106 -115 282 -115 527s39 420 116 525c78 104 208 156 392 156c176 0 301 -48 374 -145c74 -98 111 -222 111 -372h-131c-1 136 -30 241 -86 314s-145 110 -268 110c-127 0 -221 -40 -283 -120s-92 -237 -92 -472
c0 -226 30 -380 92 -464s156 -126 282 -126c119 0 207 26 263 77c57 51 85 138 87 260v124h-327v84h463v-630h-87l-6 217c-49 -150 -183 -225 -404 -225zM359 1400l191 161h91l191 -161h-87l-149 123l-150 -123h-87z" />
    <glyph glyph-name="uni0122" unicode="&#x122;" horiz-adv-x="1211" 
d="M571 -8c-178 0 -305 53 -381 160c-77 106 -115 282 -115 527s39 420 116 525c78 104 208 156 392 156c176 0 301 -48 374 -145c74 -98 111 -222 111 -372h-131c-1 136 -30 241 -86 314s-145 110 -268 110c-127 0 -221 -40 -283 -120s-92 -237 -92 -472
c0 -226 30 -380 92 -464s156 -126 282 -126c119 0 207 26 263 77c57 51 85 138 87 260v124h-327v84h463v-630h-87l-6 217c-49 -150 -183 -225 -404 -225zM491 -294l96 227h93l-132 -227h-57z" />
    <glyph glyph-name="Gdotaccent" unicode="&#x120;" horiz-adv-x="1211" 
d="M571 -8c-178 0 -305 53 -381 160c-77 106 -115 282 -115 527s39 420 116 525c78 104 208 156 392 156c176 0 301 -48 374 -145c74 -98 111 -222 111 -372h-131c-1 136 -30 241 -86 314s-145 110 -268 110c-127 0 -221 -40 -283 -120s-92 -237 -92 -472
c0 -226 30 -380 92 -464s156 -126 282 -126c119 0 207 26 263 77c57 51 85 138 87 260v124h-327v84h463v-630h-87l-6 217c-49 -150 -183 -225 -404 -225zM596 1416c-32 0 -58 26 -58 59c0 32 25 57 58 57c31 0 58 -25 58 -57c0 -33 -26 -59 -58 -59z" />
    <glyph glyph-name="uni1E20" unicode="&#x1e20;" horiz-adv-x="1211" 
d="M571 -8c-178 0 -305 53 -381 160c-77 106 -115 282 -115 527s39 420 116 525c78 104 208 156 392 156c176 0 301 -48 374 -145c74 -98 111 -222 111 -372h-131c-1 136 -30 241 -86 314s-145 110 -268 110c-127 0 -221 -40 -283 -120s-92 -237 -92 -472
c0 -226 30 -380 92 -464s156 -126 282 -126c119 0 207 26 263 77c57 51 85 138 87 260v124h-327v84h463v-630h-87l-6 217c-49 -150 -183 -225 -404 -225zM326 1452v56h540v-56h-540z" />
    <glyph glyph-name="H" unicode="H" horiz-adv-x="1155" 
d="M86 0v1350h131v-601h664v601h131v-1350h-131v656h-664v-656h-131z" />
    <glyph glyph-name="Hbar" unicode="&#x126;" horiz-adv-x="1110" 
d="M26 1043v56h64v251h131v-251h664v251h131v-251h63v-56h-63v-1043h-131v656h-664v-656h-131v1043h-64zM885 1043h-664v-294h664v294z" />
    <glyph glyph-name="uni1E2A" unicode="&#x1e2a;" horiz-adv-x="1155" 
d="M86 0v1350h131v-601h664v601h131v-1350h-131v656h-664v-656h-131zM574 -264c-105 0 -170 65 -170 139h70c0 -48 30 -88 100 -88c77 0 101 41 101 88h70c0 -74 -58 -139 -171 -139z" />
    <glyph glyph-name="Hcircumflex" unicode="&#x124;" horiz-adv-x="1155" 
d="M86 0v1350h131v-601h664v601h131v-1350h-131v656h-664v-656h-131zM338 1400l192 161h90l192 -161h-88l-149 123l-150 -123h-87z" />
    <glyph glyph-name="uni1E24" unicode="&#x1e24;" horiz-adv-x="1155" 
d="M86 0v1350h131v-601h664v601h131v-1350h-131v656h-664v-656h-131zM576 -210c-33 0 -59 25 -59 58c0 32 25 58 59 58c31 0 57 -26 57 -58s-26 -58 -57 -58z" />
    <glyph glyph-name="I" unicode="I" horiz-adv-x="474" 
d="M148 0v1350h130v-1350h-130z" />
    <glyph glyph-name="Iacute" unicode="&#xcd;" horiz-adv-x="474" 
d="M148 0v1350h130v-1350h-130zM94 1392l136 144h102l-165 -144h-73z" />
    <glyph glyph-name="Ibreve" unicode="&#x12c;" horiz-adv-x="474" 
d="M148 0v1350h130v-1350h-130zM212 1400c-105 0 -169 66 -169 140h70c0 -48 29 -88 99 -88c77 0 101 40 101 88h70c0 -74 -58 -140 -171 -140z" />
    <glyph glyph-name="uni01CF" unicode="&#x1cf;" horiz-adv-x="474" 
d="M148 0v1350h130v-1350h-130zM168 1398l-192 161h88l150 -124l149 124h87l-192 -161h-90z" />
    <glyph glyph-name="Icircumflex" unicode="&#xce;" horiz-adv-x="474" 
d="M148 0v1350h130v-1350h-130zM-24 1400l192 161h90l192 -161h-87l-150 123l-149 -123h-88z" />
    <glyph glyph-name="uni0208" unicode="&#x208;" horiz-adv-x="474" 
d="M148 0v1350h130v-1350h-130zM157 1411l-165 144h102l137 -144h-74zM360 1411l-165 144h102l137 -144h-74z" />
    <glyph glyph-name="Idieresis" unicode="&#xcf;" horiz-adv-x="474" 
d="M148 0v1350h130v-1350h-130zM81 1421c-32 0 -57 26 -57 58s25 58 57 58s58 -26 58 -58s-26 -58 -58 -58zM344 1421c-32 0 -58 26 -58 58s26 58 58 58s58 -26 58 -58s-26 -58 -58 -58z" />
    <glyph glyph-name="uni1E2E" unicode="&#x1e2e;" horiz-adv-x="474" 
d="M148 0v1350h130v-1350h-130zM94 1578l136 144h102l-165 -144h-73zM81 1421c-32 0 -57 26 -57 58s25 58 57 58s58 -26 58 -58s-26 -58 -58 -58zM344 1421c-32 0 -58 26 -58 58s26 58 58 58s58 -26 58 -58s-26 -58 -58 -58z" />
    <glyph glyph-name="Idotaccent" unicode="&#x130;" horiz-adv-x="474" 
d="M148 0v1350h130v-1350h-130zM214 1416c-33 0 -59 26 -59 59c0 32 26 57 59 57c31 0 57 -25 57 -57c0 -33 -25 -59 -57 -59z" />
    <glyph glyph-name="uni1ECA" unicode="&#x1eca;" horiz-adv-x="474" 
d="M148 0v1350h130v-1350h-130zM214 -246c-32 0 -59 26 -59 59c0 32 26 57 59 57c31 0 57 -25 57 -57c0 -33 -25 -59 -57 -59z" />
    <glyph glyph-name="Igrave" unicode="&#xcc;" horiz-adv-x="474" 
d="M148 0v1350h130v-1350h-130zM259 1407l-165 144h102l137 -144h-74z" />
    <glyph glyph-name="uni1EC8" unicode="&#x1ec8;" horiz-adv-x="474" 
d="M148 0v1350h130v-1350h-130zM114 1647c198 0 311 -14 311 -95c0 -71 -120 -91 -187 -91v-61h-55v102c87 0 172 11 172 47c0 44 -83 49 -241 49v49z" />
    <glyph glyph-name="uni020A" unicode="&#x20a;" horiz-adv-x="474" 
d="M148 0v1350h130v-1350h-130zM213 1551c106 0 170 -66 170 -139h-70c0 47 -29 87 -100 87c-77 0 -100 -40 -100 -87h-71c0 73 59 139 171 139z" />
    <glyph glyph-name="Imacron" unicode="&#x12a;" horiz-adv-x="474" 
d="M148 0v1350h130v-1350h-130zM-57 1452v56h540v-56h-540z" />
    <glyph glyph-name="Iogonek" unicode="&#x12e;" horiz-adv-x="474" 
d="M148 0v1350h130v-1350c-18 -30 -57 -110 -57 -160c0 -39 23 -60 73 -60c41 0 92 11 112 21l5 -72c-18 -8 -78 -21 -135 -21c-72 0 -135 28 -135 109c0 73 46 153 68 183h-61z" />
    <glyph glyph-name="Itilde" unicode="&#x128;" horiz-adv-x="474" 
d="M148 0v1350h130v-1350h-130zM313 1438c-98 0 -119 64 -187 64c-51 0 -74 -31 -76 -52h-71c3 39 35 110 141 110c90 0 103 -64 187 -64c47 0 70 33 72 53h71c-2 -34 -27 -111 -137 -111z" />
    <glyph glyph-name="J" unicode="J" horiz-adv-x="1115" 
d="M514 -12c-150 0 -261 31 -334 95c-72 63 -109 164 -109 302v225h131v-209c0 -112 24 -194 73 -245c49 -50 129 -76 238 -76c110 0 189 26 239 79c49 52 74 137 74 254v937h130v-955c0 -140 -36 -243 -109 -309c-73 -65 -184 -98 -333 -98z" />
    <glyph glyph-name="J.ss01" horiz-adv-x="1115" 
d="M77 1350h879v-955c0 -140 -36 -243 -109 -309c-73 -65 -184 -98 -333 -98c-150 0 -261 31 -334 95c-72 63 -109 164 -109 302v225h131v-209c0 -112 24 -194 73 -245c49 -50 129 -76 238 -76c110 0 189 26 239 79c49 52 74 137 74 254v844h-749v93z" />
    <glyph glyph-name="Jcircumflex" unicode="&#x134;" horiz-adv-x="1115" 
d="M514 -12c-150 0 -261 31 -334 95c-72 63 -109 164 -109 302v225h131v-209c0 -112 24 -194 73 -245c49 -50 129 -76 238 -76c110 0 189 26 239 79c49 52 74 137 74 254v937h130v-955c0 -140 -36 -243 -109 -309c-73 -65 -184 -98 -333 -98zM658 1400l191 161h90l192 -161
h-87l-149 123l-150 -123h-87z" />
    <glyph glyph-name="K" unicode="K" horiz-adv-x="1034" 
d="M86 0v1350h130v-640l593 640h153l-624 -676l627 -674h-153l-596 639v-639h-130z" />
    <glyph glyph-name="uni0136" unicode="&#x136;" horiz-adv-x="1034" 
d="M86 0v1350h130v-640l593 640h153l-624 -676l627 -674h-153l-596 639v-639h-130zM401 -294l96 227h93l-132 -227h-57z" />
    <glyph glyph-name="L" unicode="L" horiz-adv-x="928" 
d="M86 0v1350h131v-1257h615v-93h-746z" />
    <glyph glyph-name="uni01C7" unicode="&#x1c7;" horiz-adv-x="2042" 
d="M1441 -12c-149 0 -260 31 -333 95c-73 63 -109 164 -109 302v225h130v-209c0 -112 25 -194 74 -245c49 -50 128 -76 238 -76c109 0 189 26 238 79c50 52 75 137 75 254v937h130v-955c0 -140 -36 -243 -109 -309c-73 -65 -184 -98 -334 -98zM86 0v1350h131v-1257h615v-93
h-746z" />
    <glyph glyph-name="Lacute" unicode="&#x139;" horiz-adv-x="928" 
d="M86 0v1350h131v-1257h615v-93h-746zM345 1392l136 144h103l-165 -144h-74z" />
    <glyph glyph-name="Lcaron" unicode="&#x13d;" horiz-adv-x="893" 
d="M86 0v1350h131v-1257h615v-93h-746zM785 1089l69 259h92l-77 -259h-84z" />
    <glyph glyph-name="uni013B" unicode="&#x13b;" horiz-adv-x="928" 
d="M86 0v1350h131v-1257h615v-93h-746zM360 -294l96 227h93l-132 -227h-57z" />
    <glyph glyph-name="Ldot" unicode="&#x13f;" horiz-adv-x="971" 
d="M86 0v1350h131v-1257h615v-93h-746zM576 780h123v-152h-123v152z" />
    <glyph glyph-name="uni1E36" unicode="&#x1e36;" horiz-adv-x="928" 
d="M86 0v1350h131v-1257h615v-93h-746zM465 -210c-32 0 -58 25 -58 58c0 32 25 58 58 58c31 0 58 -26 58 -58s-26 -58 -58 -58z" />
    <glyph glyph-name="uni01C8" unicode="&#x1c8;" horiz-adv-x="1377" 
d="M86 0v1350h131v-1257h615v-93h-746zM799 -459v92c90 0 159 23 208 68c48 44 73 124 73 240v1245h129v-1241c0 -153 -35 -258 -105 -317c-70 -58 -172 -87 -305 -87zM1080 1492h129v-149h-129v149z" />
    <glyph glyph-name="uni1E3A" unicode="&#x1e3a;" horiz-adv-x="928" 
d="M86 0v1350h131v-1257h615v-93h-746zM195 -201v56h539v-56h-539z" />
    <glyph glyph-name="Lslash" unicode="&#x141;" horiz-adv-x="1039" 
d="M36 415l-38 68l169 140v727h130v-618l240 199l37 -67l-277 -231v-540h616v-93h-746v524z" />
    <glyph glyph-name="M" unicode="M" horiz-adv-x="1475" 
d="M86 0v1350h216l406 -1165h2l405 1165h217v-1350h-130v1257h-4l-408 -1163h-162l-409 1163h-4v-1257h-129z" />
    <glyph glyph-name="uni1E42" unicode="&#x1e42;" horiz-adv-x="1475" 
d="M86 0v1350h216l406 -1165h2l405 1165h217v-1350h-130v1257h-4l-408 -1163h-162l-409 1163h-4v-1257h-129zM713 -210c-33 0 -59 25 -59 58c0 32 25 58 59 58c31 0 57 -26 57 -58s-26 -58 -57 -58z" />
    <glyph glyph-name="N" unicode="N" horiz-adv-x="1271" 
d="M86 0v1350h216l695 -1256l1 1256h130v-1350h-215l-697 1262v-1262h-130z" />
    <glyph glyph-name="uni01CA" unicode="&#x1ca;" horiz-adv-x="2385" 
d="M86 0v1350h216l695 -1256l1 1256h130v-1350h-215l-697 1262v-1262h-130zM1784 -12c-149 0 -260 31 -333 95c-73 63 -109 164 -109 302v225h130v-209c0 -112 25 -194 74 -245c49 -50 128 -76 238 -76c109 0 189 26 238 79c50 52 75 137 75 254v937h130v-955
c0 -140 -36 -243 -109 -309c-73 -65 -184 -98 -334 -98z" />
    <glyph glyph-name="Nacute" unicode="&#x143;" horiz-adv-x="1271" 
d="M86 0v1350h216l695 -1256l1 1256h130v-1350h-215l-697 1262v-1262h-130zM505 1392l136 144h103l-165 -144h-74z" />
    <glyph glyph-name="Ncaron" unicode="&#x147;" horiz-adv-x="1271" 
d="M86 0v1350h216l695 -1256l1 1256h130v-1350h-215l-697 1262v-1262h-130zM579 1398l-191 161h87l150 -124l149 124h87l-192 -161h-90z" />
    <glyph glyph-name="uni0145" unicode="&#x145;" horiz-adv-x="1271" 
d="M86 0v1350h216l695 -1256l1 1256h130v-1350h-215l-697 1262v-1262h-130zM520 -294l96 227h93l-132 -227h-57z" />
    <glyph glyph-name="uni1E44" unicode="&#x1e44;" horiz-adv-x="1271" 
d="M86 0v1350h216l695 -1256l1 1256h130v-1350h-215l-697 1262v-1262h-130zM625 1416c-32 0 -59 26 -59 59c0 32 26 57 59 57c31 0 57 -25 57 -57c0 -33 -25 -59 -57 -59z" />
    <glyph glyph-name="uni1E46" unicode="&#x1e46;" horiz-adv-x="1271" 
d="M86 0v1350h216l695 -1256l1 1256h130v-1350h-215l-697 1262v-1262h-130zM625 -210c-32 0 -59 25 -59 58c0 32 26 58 59 58c31 0 57 -26 57 -58s-25 -58 -57 -58z" />
    <glyph glyph-name="Eng" unicode="&#x14a;" horiz-adv-x="1274" 
d="M676 -439v90c267 0 321 144 320 349h-83l-697 1262v-1262h-130v1350h216l695 -1256l1 1256h130v-1350h3c0 -291 -152 -439 -455 -439z" />
    <glyph glyph-name="uni01CB" unicode="&#x1cb;" horiz-adv-x="1720" 
d="M86 0v1350h216l695 -1256l1 1256h130v-1350h-215l-697 1262v-1262h-130zM1142 -459v92c90 0 159 23 208 68c48 44 73 124 73 240v1245h129v-1241c0 -153 -35 -258 -105 -317c-70 -58 -172 -87 -305 -87zM1423 1492h129v-149h-129v149z" />
    <glyph glyph-name="uni1E48" unicode="&#x1e48;" horiz-adv-x="1271" 
d="M86 0v1350h216l695 -1256l1 1256h130v-1350h-215l-697 1262v-1262h-130zM355 -201v56h539v-56h-539z" />
    <glyph glyph-name="Ntilde" unicode="&#xd1;" horiz-adv-x="1271" 
d="M86 0v1350h216l695 -1256l1 1256h130v-1350h-215l-697 1262v-1262h-130zM724 1438c-97 0 -118 64 -187 64c-50 0 -74 -31 -76 -52h-71c4 39 36 110 142 110c89 0 102 -64 186 -64c48 0 71 33 73 53h70c-2 -34 -27 -111 -137 -111z" />
    <glyph glyph-name="O" unicode="O" 
d="M617 -9c-183 0 -318 51 -408 154c-89 103 -134 279 -134 530c0 250 45 427 134 530s225 155 408 155c182 0 318 -52 407 -155c89 -104 134 -280 134 -530c0 -251 -45 -427 -134 -530s-225 -154 -407 -154zM617 85c126 0 225 40 299 120c74 81 111 237 111 470
s-37 390 -111 471c-74 80 -173 121 -299 121s-226 -41 -300 -121c-74 -81 -111 -238 -111 -471s37 -389 111 -470c74 -80 174 -120 300 -120z" />
    <glyph glyph-name="Oacute" unicode="&#xd3;" 
d="M617 -9c-183 0 -318 51 -408 154c-89 103 -134 279 -134 530c0 250 45 427 134 530s225 155 408 155c182 0 318 -52 407 -155c89 -104 134 -280 134 -530c0 -251 -45 -427 -134 -530s-225 -154 -407 -154zM617 85c126 0 225 40 299 120c74 81 111 237 111 470
s-37 390 -111 471c-74 80 -173 121 -299 121s-226 -41 -300 -121c-74 -81 -111 -238 -111 -471s37 -389 111 -470c74 -80 174 -120 300 -120zM500 1392l136 144h102l-165 -144h-73z" />
    <glyph glyph-name="Obreve" unicode="&#x14e;" 
d="M617 -9c-183 0 -318 51 -408 154c-89 103 -134 279 -134 530c0 250 45 427 134 530s225 155 408 155c182 0 318 -52 407 -155c89 -104 134 -280 134 -530c0 -251 -45 -427 -134 -530s-225 -154 -407 -154zM617 85c126 0 225 40 299 120c74 81 111 237 111 470
s-37 390 -111 471c-74 80 -173 121 -299 121s-226 -41 -300 -121c-74 -81 -111 -238 -111 -471s37 -389 111 -470c74 -80 174 -120 300 -120zM618 1400c-105 0 -169 66 -169 140h70c0 -48 29 -88 99 -88c77 0 101 40 101 88h70c0 -74 -58 -140 -171 -140z" />
    <glyph glyph-name="uni01D1" unicode="&#x1d1;" 
d="M617 -9c-183 0 -318 51 -408 154c-89 103 -134 279 -134 530c0 250 45 427 134 530s225 155 408 155c182 0 318 -52 407 -155c89 -104 134 -280 134 -530c0 -251 -45 -427 -134 -530s-225 -154 -407 -154zM617 85c126 0 225 40 299 120c74 81 111 237 111 470
s-37 390 -111 471c-74 80 -173 121 -299 121s-226 -41 -300 -121c-74 -81 -111 -238 -111 -471s37 -389 111 -470c74 -80 174 -120 300 -120zM574 1398l-192 161h88l150 -124l149 124h87l-192 -161h-90z" />
    <glyph glyph-name="Ocircumflex" unicode="&#xd4;" 
d="M617 -9c-183 0 -318 51 -408 154c-89 103 -134 279 -134 530c0 250 45 427 134 530s225 155 408 155c182 0 318 -52 407 -155c89 -104 134 -280 134 -530c0 -251 -45 -427 -134 -530s-225 -154 -407 -154zM617 85c126 0 225 40 299 120c74 81 111 237 111 470
s-37 390 -111 471c-74 80 -173 121 -299 121s-226 -41 -300 -121c-74 -81 -111 -238 -111 -471s37 -389 111 -470c74 -80 174 -120 300 -120zM382 1400l192 161h90l192 -161h-87l-150 123l-149 -123h-88z" />
    <glyph glyph-name="uni1ED0" unicode="&#x1ed0;" 
d="M617 -9c-183 0 -318 51 -408 154c-89 103 -134 279 -134 530c0 250 45 427 134 530s225 155 408 155c182 0 318 -52 407 -155c89 -104 134 -280 134 -530c0 -251 -45 -427 -134 -530s-225 -154 -407 -154zM617 85c126 0 225 40 299 120c74 81 111 237 111 470
s-37 390 -111 471c-74 80 -173 121 -299 121s-226 -41 -300 -121c-74 -81 -111 -238 -111 -471s37 -389 111 -470c74 -80 174 -120 300 -120zM382 1400l192 161h90l192 -161h-87l-150 123l-149 -123h-88zM500 1603l136 144h102l-165 -144h-73z" />
    <glyph glyph-name="uni1ED8" unicode="&#x1ed8;" 
d="M617 -9c-183 0 -318 51 -408 154c-89 103 -134 279 -134 530c0 250 45 427 134 530s225 155 408 155c182 0 318 -52 407 -155c89 -104 134 -280 134 -530c0 -251 -45 -427 -134 -530s-225 -154 -407 -154zM617 85c126 0 225 40 299 120c74 81 111 237 111 470
s-37 390 -111 471c-74 80 -173 121 -299 121s-226 -41 -300 -121c-74 -81 -111 -238 -111 -471s37 -389 111 -470c74 -80 174 -120 300 -120zM382 1400l192 161h90l192 -161h-87l-150 123l-149 -123h-88zM620 -246c-33 0 -59 26 -59 59c0 32 25 57 59 57c31 0 57 -25 57 -57
c0 -33 -26 -59 -57 -59z" />
    <glyph glyph-name="uni1ED2" unicode="&#x1ed2;" 
d="M617 -9c-183 0 -318 51 -408 154c-89 103 -134 279 -134 530c0 250 45 427 134 530s225 155 408 155c182 0 318 -52 407 -155c89 -104 134 -280 134 -530c0 -251 -45 -427 -134 -530s-225 -154 -407 -154zM617 85c126 0 225 40 299 120c74 81 111 237 111 470
s-37 390 -111 471c-74 80 -173 121 -299 121s-226 -41 -300 -121c-74 -81 -111 -238 -111 -471s37 -389 111 -470c74 -80 174 -120 300 -120zM382 1400l192 161h90l192 -161h-87l-150 123l-149 -123h-88zM665 1618l-166 144h103l136 -144h-73z" />
    <glyph glyph-name="uni1ED4" unicode="&#x1ed4;" 
d="M617 -9c-183 0 -318 51 -408 154c-89 103 -134 279 -134 530c0 250 45 427 134 530s225 155 408 155c182 0 318 -52 407 -155c89 -104 134 -280 134 -530c0 -251 -45 -427 -134 -530s-225 -154 -407 -154zM617 85c126 0 225 40 299 120c74 81 111 237 111 470
s-37 390 -111 471c-74 80 -173 121 -299 121s-226 -41 -300 -121c-74 -81 -111 -238 -111 -471s37 -389 111 -470c74 -80 174 -120 300 -120zM520 1858c198 0 311 -14 311 -95c0 -71 -121 -91 -188 -91v-61h-55v102c88 0 173 11 173 47c0 44 -83 49 -241 49v49zM382 1400
l192 161h90l192 -161h-87l-150 123l-149 -123h-88z" />
    <glyph glyph-name="uni1ED6" unicode="&#x1ed6;" 
d="M617 -9c-183 0 -318 51 -408 154c-89 103 -134 279 -134 530c0 250 45 427 134 530s225 155 408 155c182 0 318 -52 407 -155c89 -104 134 -280 134 -530c0 -251 -45 -427 -134 -530s-225 -154 -407 -154zM617 85c126 0 225 40 299 120c74 81 111 237 111 470
s-37 390 -111 471c-74 80 -173 121 -299 121s-226 -41 -300 -121c-74 -81 -111 -238 -111 -471s37 -389 111 -470c74 -80 174 -120 300 -120zM719 1649c-98 0 -119 64 -188 64c-50 0 -74 -31 -75 -52h-71c3 39 35 110 141 110c90 0 103 -64 187 -64c47 0 70 33 72 53h71
c-2 -34 -27 -111 -137 -111zM382 1400l192 161h90l192 -161h-87l-150 123l-149 -123h-88z" />
    <glyph glyph-name="uni020C" unicode="&#x20c;" 
d="M617 -9c-183 0 -318 51 -408 154c-89 103 -134 279 -134 530c0 250 45 427 134 530s225 155 408 155c182 0 318 -52 407 -155c89 -104 134 -280 134 -530c0 -251 -45 -427 -134 -530s-225 -154 -407 -154zM617 85c126 0 225 40 299 120c74 81 111 237 111 470
s-37 390 -111 471c-74 80 -173 121 -299 121s-226 -41 -300 -121c-74 -81 -111 -238 -111 -471s37 -389 111 -470c74 -80 174 -120 300 -120zM563 1411l-166 144h103l136 -144h-73zM766 1411l-165 144h102l137 -144h-74z" />
    <glyph glyph-name="Odieresis" unicode="&#xd6;" 
d="M617 -9c-183 0 -318 51 -408 154c-89 103 -134 279 -134 530c0 250 45 427 134 530s225 155 408 155c182 0 318 -52 407 -155c89 -104 134 -280 134 -530c0 -251 -45 -427 -134 -530s-225 -154 -407 -154zM617 85c126 0 225 40 299 120c74 81 111 237 111 470
s-37 390 -111 471c-74 80 -173 121 -299 121s-226 -41 -300 -121c-74 -81 -111 -238 -111 -471s37 -389 111 -470c74 -80 174 -120 300 -120zM487 1421c-32 0 -58 26 -58 58s26 58 58 58s58 -26 58 -58s-26 -58 -58 -58zM750 1421c-32 0 -58 26 -58 58s26 58 58 58
s58 -26 58 -58s-26 -58 -58 -58z" />
    <glyph glyph-name="uni022A" unicode="&#x22a;" 
d="M617 -9c-183 0 -318 51 -408 154c-89 103 -134 279 -134 530c0 250 45 427 134 530s225 155 408 155c182 0 318 -52 407 -155c89 -104 134 -280 134 -530c0 -251 -45 -427 -134 -530s-225 -154 -407 -154zM617 85c126 0 225 40 299 120c74 81 111 237 111 470
s-37 390 -111 471c-74 80 -173 121 -299 121s-226 -41 -300 -121c-74 -81 -111 -238 -111 -471s37 -389 111 -470c74 -80 174 -120 300 -120zM349 1639v55h540v-55h-540zM487 1421c-32 0 -58 26 -58 58s26 58 58 58s58 -26 58 -58s-26 -58 -58 -58zM750 1421
c-32 0 -58 26 -58 58s26 58 58 58s58 -26 58 -58s-26 -58 -58 -58z" />
    <glyph glyph-name="uni0230" unicode="&#x230;" 
d="M617 -9c-183 0 -318 51 -408 154c-89 103 -134 279 -134 530c0 250 45 427 134 530s225 155 408 155c182 0 318 -52 407 -155c89 -104 134 -280 134 -530c0 -251 -45 -427 -134 -530s-225 -154 -407 -154zM617 85c126 0 225 40 299 120c74 81 111 237 111 470
s-37 390 -111 471c-74 80 -173 121 -299 121s-226 -41 -300 -121c-74 -81 -111 -238 -111 -471s37 -389 111 -470c74 -80 174 -120 300 -120zM349 1634v56h540v-56h-540zM620 1416c-33 0 -59 26 -59 59c0 32 25 57 59 57c31 0 57 -25 57 -57c0 -33 -26 -59 -57 -59z" />
    <glyph glyph-name="uni1ECC" unicode="&#x1ecc;" 
d="M617 -9c-183 0 -318 51 -408 154c-89 103 -134 279 -134 530c0 250 45 427 134 530s225 155 408 155c182 0 318 -52 407 -155c89 -104 134 -280 134 -530c0 -251 -45 -427 -134 -530s-225 -154 -407 -154zM617 85c126 0 225 40 299 120c74 81 111 237 111 470
s-37 390 -111 471c-74 80 -173 121 -299 121s-226 -41 -300 -121c-74 -81 -111 -238 -111 -471s37 -389 111 -470c74 -80 174 -120 300 -120zM620 -246c-33 0 -59 26 -59 59c0 32 25 57 59 57c31 0 57 -25 57 -57c0 -33 -26 -59 -57 -59z" />
    <glyph glyph-name="Ograve" unicode="&#xd2;" 
d="M617 -9c-183 0 -318 51 -408 154c-89 103 -134 279 -134 530c0 250 45 427 134 530s225 155 408 155c182 0 318 -52 407 -155c89 -104 134 -280 134 -530c0 -251 -45 -427 -134 -530s-225 -154 -407 -154zM617 85c126 0 225 40 299 120c74 81 111 237 111 470
s-37 390 -111 471c-74 80 -173 121 -299 121s-226 -41 -300 -121c-74 -81 -111 -238 -111 -471s37 -389 111 -470c74 -80 174 -120 300 -120zM665 1407l-166 144h103l136 -144h-73z" />
    <glyph glyph-name="uni1ECE" unicode="&#x1ece;" 
d="M617 -9c-183 0 -318 51 -408 154c-89 103 -134 279 -134 530c0 250 45 427 134 530s225 155 408 155c182 0 318 -52 407 -155c89 -104 134 -280 134 -530c0 -251 -45 -427 -134 -530s-225 -154 -407 -154zM617 85c126 0 225 40 299 120c74 81 111 237 111 470
s-37 390 -111 471c-74 80 -173 121 -299 121s-226 -41 -300 -121c-74 -81 -111 -238 -111 -471s37 -389 111 -470c74 -80 174 -120 300 -120zM520 1647c198 0 311 -14 311 -95c0 -71 -121 -91 -188 -91v-61h-55v102c88 0 173 11 173 47c0 44 -83 49 -241 49v49z" />
    <glyph glyph-name="Ohorn" unicode="&#x1a0;" 
d="M617 -9c-183 0 -318 51 -408 154c-89 103 -134 279 -134 530c0 250 45 427 134 530s225 155 408 155c175 0 307 -48 396 -143c136 6 176 46 176 143h81c0 -119 -67 -178 -219 -191c71 -106 107 -271 107 -494c0 -251 -45 -427 -134 -530s-225 -154 -407 -154zM617 85
c126 0 225 40 299 120c74 81 111 237 111 470s-37 390 -111 471c-74 80 -173 121 -299 121s-226 -41 -300 -121c-74 -81 -111 -238 -111 -471s37 -389 111 -470c74 -80 174 -120 300 -120z" />
    <glyph glyph-name="uni1EDA" unicode="&#x1eda;" 
d="M617 -9c-183 0 -318 51 -408 154c-89 103 -134 279 -134 530c0 250 45 427 134 530s225 155 408 155c175 0 307 -48 396 -143c136 6 176 46 176 143h81c0 -119 -67 -178 -219 -191c71 -106 107 -271 107 -494c0 -251 -45 -427 -134 -530s-225 -154 -407 -154zM617 85
c126 0 225 40 299 120c74 81 111 237 111 470s-37 390 -111 471c-74 80 -173 121 -299 121s-226 -41 -300 -121c-74 -81 -111 -238 -111 -471s37 -389 111 -470c74 -80 174 -120 300 -120zM500 1392l136 144h102l-165 -144h-73z" />
    <glyph glyph-name="uni1EE2" unicode="&#x1ee2;" 
d="M617 -9c-183 0 -318 51 -408 154c-89 103 -134 279 -134 530c0 250 45 427 134 530s225 155 408 155c175 0 307 -48 396 -143c136 6 176 46 176 143h81c0 -119 -67 -178 -219 -191c71 -106 107 -271 107 -494c0 -251 -45 -427 -134 -530s-225 -154 -407 -154zM617 85
c126 0 225 40 299 120c74 81 111 237 111 470s-37 390 -111 471c-74 80 -173 121 -299 121s-226 -41 -300 -121c-74 -81 -111 -238 -111 -471s37 -389 111 -470c74 -80 174 -120 300 -120zM620 -246c-33 0 -59 26 -59 59c0 32 25 57 59 57c31 0 57 -25 57 -57
c0 -33 -26 -59 -57 -59z" />
    <glyph glyph-name="uni1EDC" unicode="&#x1edc;" 
d="M617 -9c-183 0 -318 51 -408 154c-89 103 -134 279 -134 530c0 250 45 427 134 530s225 155 408 155c175 0 307 -48 396 -143c136 6 176 46 176 143h81c0 -119 -67 -178 -219 -191c71 -106 107 -271 107 -494c0 -251 -45 -427 -134 -530s-225 -154 -407 -154zM617 85
c126 0 225 40 299 120c74 81 111 237 111 470s-37 390 -111 471c-74 80 -173 121 -299 121s-226 -41 -300 -121c-74 -81 -111 -238 -111 -471s37 -389 111 -470c74 -80 174 -120 300 -120zM665 1407l-166 144h103l136 -144h-73z" />
    <glyph glyph-name="uni1EDE" unicode="&#x1ede;" 
d="M617 -9c-183 0 -318 51 -408 154c-89 103 -134 279 -134 530c0 250 45 427 134 530s225 155 408 155c175 0 307 -48 396 -143c136 6 176 46 176 143h81c0 -119 -67 -178 -219 -191c71 -106 107 -271 107 -494c0 -251 -45 -427 -134 -530s-225 -154 -407 -154zM617 85
c126 0 225 40 299 120c74 81 111 237 111 470s-37 390 -111 471c-74 80 -173 121 -299 121s-226 -41 -300 -121c-74 -81 -111 -238 -111 -471s37 -389 111 -470c74 -80 174 -120 300 -120zM520 1647c198 0 311 -14 311 -95c0 -71 -121 -91 -188 -91v-61h-55v102
c88 0 173 11 173 47c0 44 -83 49 -241 49v49z" />
    <glyph glyph-name="uni1EE0" unicode="&#x1ee0;" 
d="M617 -9c-183 0 -318 51 -408 154c-89 103 -134 279 -134 530c0 250 45 427 134 530s225 155 408 155c175 0 307 -48 396 -143c136 6 176 46 176 143h81c0 -119 -67 -178 -219 -191c71 -106 107 -271 107 -494c0 -251 -45 -427 -134 -530s-225 -154 -407 -154zM617 85
c126 0 225 40 299 120c74 81 111 237 111 470s-37 390 -111 471c-74 80 -173 121 -299 121s-226 -41 -300 -121c-74 -81 -111 -238 -111 -471s37 -389 111 -470c74 -80 174 -120 300 -120zM719 1438c-98 0 -119 64 -188 64c-50 0 -74 -31 -75 -52h-71c3 39 35 110 141 110
c90 0 103 -64 187 -64c47 0 70 33 72 53h71c-2 -34 -27 -111 -137 -111z" />
    <glyph glyph-name="Ohungarumlaut" unicode="&#x150;" 
d="M617 -9c-183 0 -318 51 -408 154c-89 103 -134 279 -134 530c0 250 45 427 134 530s225 155 408 155c182 0 318 -52 407 -155c89 -104 134 -280 134 -530c0 -251 -45 -427 -134 -530s-225 -154 -407 -154zM617 85c126 0 225 40 299 120c74 81 111 237 111 470
s-37 390 -111 471c-74 80 -173 121 -299 121s-226 -41 -300 -121c-74 -81 -111 -238 -111 -471s37 -389 111 -470c74 -80 174 -120 300 -120zM597 1424l122 131h96l-148 -131h-70zM423 1424l120 131h93l-144 -131h-69z" />
    <glyph glyph-name="uni020E" unicode="&#x20e;" 
d="M617 -9c-183 0 -318 51 -408 154c-89 103 -134 279 -134 530c0 250 45 427 134 530s225 155 408 155c182 0 318 -52 407 -155c89 -104 134 -280 134 -530c0 -251 -45 -427 -134 -530s-225 -154 -407 -154zM617 85c126 0 225 40 299 120c74 81 111 237 111 470
s-37 390 -111 471c-74 80 -173 121 -299 121s-226 -41 -300 -121c-74 -81 -111 -238 -111 -471s37 -389 111 -470c74 -80 174 -120 300 -120zM619 1551c106 0 170 -66 170 -139h-70c0 47 -30 87 -100 87c-77 0 -100 -40 -100 -87h-71c0 73 58 139 171 139z" />
    <glyph glyph-name="Omacron" unicode="&#x14c;" 
d="M617 -9c-183 0 -318 51 -408 154c-89 103 -134 279 -134 530c0 250 45 427 134 530s225 155 408 155c182 0 318 -52 407 -155c89 -104 134 -280 134 -530c0 -251 -45 -427 -134 -530s-225 -154 -407 -154zM617 85c126 0 225 40 299 120c74 81 111 237 111 470
s-37 390 -111 471c-74 80 -173 121 -299 121s-226 -41 -300 -121c-74 -81 -111 -238 -111 -471s37 -389 111 -470c74 -80 174 -120 300 -120zM349 1452v56h540v-56h-540z" />
    <glyph glyph-name="uni1E52" unicode="&#x1e52;" 
d="M617 -9c-183 0 -318 51 -408 154c-89 103 -134 279 -134 530c0 250 45 427 134 530s225 155 408 155c182 0 318 -52 407 -155c89 -104 134 -280 134 -530c0 -251 -45 -427 -134 -530s-225 -154 -407 -154zM617 85c126 0 225 40 299 120c74 81 111 237 111 470
s-37 390 -111 471c-74 80 -173 121 -299 121s-226 -41 -300 -121c-74 -81 -111 -238 -111 -471s37 -389 111 -470c74 -80 174 -120 300 -120zM349 1452v56h540v-56h-540zM500 1550l136 143h102l-165 -143h-73z" />
    <glyph glyph-name="uni1E50" unicode="&#x1e50;" 
d="M617 -9c-183 0 -318 51 -408 154c-89 103 -134 279 -134 530c0 250 45 427 134 530s225 155 408 155c182 0 318 -52 407 -155c89 -104 134 -280 134 -530c0 -251 -45 -427 -134 -530s-225 -154 -407 -154zM617 85c126 0 225 40 299 120c74 81 111 237 111 470
s-37 390 -111 471c-74 80 -173 121 -299 121s-226 -41 -300 -121c-74 -81 -111 -238 -111 -471s37 -389 111 -470c74 -80 174 -120 300 -120zM349 1452v56h540v-56h-540zM665 1567l-166 144h103l136 -144h-73z" />
    <glyph glyph-name="uni01EA" unicode="&#x1ea;" 
d="M630 -292c-73 0 -135 28 -135 109c0 68 40 142 63 176c-153 10 -269 61 -349 152c-89 103 -134 279 -134 530c0 250 45 427 134 530s225 155 408 155c182 0 318 -52 407 -155c89 -104 134 -280 134 -530c0 -251 -45 -427 -134 -530c-88 -101 -220 -152 -397 -154
c-20 -35 -52 -106 -52 -151c0 -39 23 -60 73 -60c41 0 92 11 111 21l6 -72c-18 -8 -78 -21 -135 -21zM617 85c126 0 225 40 299 120c74 81 111 237 111 470s-37 390 -111 471c-74 80 -173 121 -299 121s-226 -41 -300 -121c-74 -81 -111 -238 -111 -471s37 -389 111 -470
c74 -80 174 -120 300 -120z" />
    <glyph glyph-name="Oslash" unicode="&#xd8;" horiz-adv-x="1114" 
d="M77 0l115 167c-78 105 -117 274 -117 508c0 250 45 427 134 530s225 155 408 155c139 0 251 -30 336 -91l54 79h77l-82 -119c7 -8 15 -16 22 -24c89 -104 134 -280 134 -530c0 -251 -45 -427 -134 -530s-225 -154 -407 -154c-165 0 -292 42 -381 126l-80 -117h-79z
M617 85c126 0 225 40 299 120c74 81 111 237 111 470c0 217 -32 367 -95 452l-626 -909c4 -4 7 -9 11 -13c74 -80 174 -120 300 -120zM269 279l618 895c-70 62 -160 93 -270 93c-126 0 -226 -41 -300 -121c-74 -81 -111 -238 -111 -471c0 -175 21 -307 63 -396z" />
    <glyph glyph-name="Oslashacute" unicode="&#x1fe;" horiz-adv-x="1114" 
d="M77 0l115 167c-78 105 -117 274 -117 508c0 250 45 427 134 530s225 155 408 155c139 0 251 -30 336 -91l54 79h77l-82 -119c7 -8 15 -16 22 -24c89 -104 134 -280 134 -530c0 -251 -45 -427 -134 -530s-225 -154 -407 -154c-165 0 -292 42 -381 126l-80 -117h-79z
M617 85c126 0 225 40 299 120c74 81 111 237 111 470c0 217 -32 367 -95 452l-626 -909c4 -4 7 -9 11 -13c74 -80 174 -120 300 -120zM269 279l618 895c-70 62 -160 93 -270 93c-126 0 -226 -41 -300 -121c-74 -81 -111 -238 -111 -471c0 -175 21 -307 63 -396zM484 1392
l136 144h102l-165 -144h-73z" />
    <glyph glyph-name="Otilde" unicode="&#xd5;" 
d="M617 -9c-183 0 -318 51 -408 154c-89 103 -134 279 -134 530c0 250 45 427 134 530s225 155 408 155c182 0 318 -52 407 -155c89 -104 134 -280 134 -530c0 -251 -45 -427 -134 -530s-225 -154 -407 -154zM617 85c126 0 225 40 299 120c74 81 111 237 111 470
s-37 390 -111 471c-74 80 -173 121 -299 121s-226 -41 -300 -121c-74 -81 -111 -238 -111 -471s37 -389 111 -470c74 -80 174 -120 300 -120zM719 1438c-98 0 -119 64 -188 64c-50 0 -74 -31 -75 -52h-71c3 39 35 110 141 110c90 0 103 -64 187 -64c47 0 70 33 72 53h71
c-2 -34 -27 -111 -137 -111z" />
    <glyph glyph-name="uni1E4C" unicode="&#x1e4c;" 
d="M617 -9c-183 0 -318 51 -408 154c-89 103 -134 279 -134 530c0 250 45 427 134 530s225 155 408 155c182 0 318 -52 407 -155c89 -104 134 -280 134 -530c0 -251 -45 -427 -134 -530s-225 -154 -407 -154zM617 85c126 0 225 40 299 120c74 81 111 237 111 470
s-37 390 -111 471c-74 80 -173 121 -299 121s-226 -41 -300 -121c-74 -81 -111 -238 -111 -471s37 -389 111 -470c74 -80 174 -120 300 -120zM719 1438c-98 0 -119 64 -188 64c-50 0 -74 -31 -75 -52h-71c3 39 35 110 141 110c90 0 103 -64 187 -64c47 0 70 33 72 53h71
c-2 -34 -27 -111 -137 -111zM500 1600l136 144h102l-165 -144h-73z" />
    <glyph glyph-name="uni1E4E" unicode="&#x1e4e;" 
d="M617 -9c-183 0 -318 51 -408 154c-89 103 -134 279 -134 530c0 250 45 427 134 530s225 155 408 155c182 0 318 -52 407 -155c89 -104 134 -280 134 -530c0 -251 -45 -427 -134 -530s-225 -154 -407 -154zM617 85c126 0 225 40 299 120c74 81 111 237 111 470
s-37 390 -111 471c-74 80 -173 121 -299 121s-226 -41 -300 -121c-74 -81 -111 -238 -111 -471s37 -389 111 -470c74 -80 174 -120 300 -120zM719 1438c-98 0 -119 64 -188 64c-50 0 -74 -31 -75 -52h-71c3 39 35 110 141 110c90 0 103 -64 187 -64c47 0 70 33 72 53h71
c-2 -34 -27 -111 -137 -111zM487 1629c-32 0 -58 26 -58 58s26 58 58 58s58 -26 58 -58s-26 -58 -58 -58zM750 1629c-32 0 -58 26 -58 58s26 58 58 58s58 -26 58 -58s-26 -58 -58 -58z" />
    <glyph glyph-name="uni022C" unicode="&#x22c;" 
d="M617 -9c-183 0 -318 51 -408 154c-89 103 -134 279 -134 530c0 250 45 427 134 530s225 155 408 155c182 0 318 -52 407 -155c89 -104 134 -280 134 -530c0 -251 -45 -427 -134 -530s-225 -154 -407 -154zM617 85c126 0 225 40 299 120c74 81 111 237 111 470
s-37 390 -111 471c-74 80 -173 121 -299 121s-226 -41 -300 -121c-74 -81 -111 -238 -111 -471s37 -389 111 -470c74 -80 174 -120 300 -120zM719 1438c-98 0 -119 64 -188 64c-50 0 -74 -31 -75 -52h-71c3 39 35 110 141 110c90 0 103 -64 187 -64c47 0 70 33 72 53h71
c-2 -34 -27 -111 -137 -111zM349 1661v55h540v-55h-540z" />
    <glyph glyph-name="OE" unicode="&#x152;" horiz-adv-x="1991" 
d="M617 -9c-183 0 -318 51 -408 154c-89 103 -134 279 -134 530c0 250 45 427 134 530s225 155 408 155c182 0 318 -52 407 -155c2 -3 4 -5 7 -8v153h843v-93h-713v-518h674v-90h-674v-555h713v-94h-843v153c-3 -3 -5 -5 -7 -8c-89 -103 -225 -154 -407 -154zM617 85
c126 0 225 40 299 120c74 81 111 237 111 470s-37 390 -111 471c-74 80 -173 121 -299 121s-226 -41 -300 -121c-74 -81 -111 -238 -111 -471s37 -389 111 -470c74 -80 174 -120 300 -120z" />
    <glyph glyph-name="P" unicode="P" horiz-adv-x="1079" 
d="M86 0v1350h530c138 0 233 -44 284 -133c51 -88 77 -200 77 -336s-26 -248 -77 -336s-146 -132 -284 -132h-399v-413h-131zM217 506h359c100 0 170 33 210 100c40 66 61 158 61 275s-20 209 -60 276c-40 66 -110 100 -211 100h-359v-751z" />
    <glyph glyph-name="Thorn" unicode="&#xde;" horiz-adv-x="1055" 
d="M98 0v1350h130v-218h438c205 0 278 -127 278 -315v-276c0 -192 -70 -313 -278 -313h-438v-228h-130zM228 317h390c148 0 196 96 196 248v229c0 152 -45 247 -196 247h-390v-724z" />
    <glyph glyph-name="Q" unicode="Q" horiz-adv-x="1268" 
d="M1051 -190l-171 230c-73 -33 -161 -49 -263 -49c-183 0 -318 51 -408 154c-89 103 -134 279 -134 530c0 250 45 427 134 530s225 155 408 155c182 0 318 -52 407 -155c89 -104 134 -280 134 -530c0 -251 -45 -427 -134 -530c-16 -18 -33 -34 -51 -49l172 -232zM617 85
c126 0 225 40 299 120c74 81 111 237 111 470s-37 390 -111 471c-74 80 -173 121 -299 121s-226 -41 -300 -121c-74 -81 -111 -238 -111 -471s37 -389 111 -470c74 -80 174 -120 300 -120z" />
    <glyph glyph-name="R" unicode="R" horiz-adv-x="1103" 
d="M86 0v1350h600c120 0 201 -36 244 -109c42 -72 63 -161 63 -266c0 -104 -22 -192 -65 -263c-35 -58 -95 -92 -181 -103l251 -609h-142l-245 605h-394v-605h-131zM217 691h426c83 0 141 26 172 78c31 53 46 121 46 205s-15 152 -46 204c-32 52 -89 79 -172 79h-426v-566z
" />
    <glyph glyph-name="Racute" unicode="&#x154;" horiz-adv-x="1103" 
d="M86 0v1350h600c120 0 201 -36 244 -109c42 -72 63 -161 63 -266c0 -104 -22 -192 -65 -263c-35 -58 -95 -92 -181 -103l251 -609h-142l-245 605h-394v-605h-131zM217 691h426c83 0 141 26 172 78c31 53 46 121 46 205s-15 152 -46 204c-32 52 -89 79 -172 79h-426v-566z
M416 1392l136 144h103l-165 -144h-74z" />
    <glyph glyph-name="Rcaron" unicode="&#x158;" horiz-adv-x="1103" 
d="M86 0v1350h600c120 0 201 -36 244 -109c42 -72 63 -161 63 -266c0 -104 -22 -192 -65 -263c-35 -58 -95 -92 -181 -103l251 -609h-142l-245 605h-394v-605h-131zM217 691h426c83 0 141 26 172 78c31 53 46 121 46 205s-15 152 -46 204c-32 52 -89 79 -172 79h-426v-566z
M490 1398l-192 161h88l150 -124l149 124h87l-192 -161h-90z" />
    <glyph glyph-name="uni0156" unicode="&#x156;" horiz-adv-x="1103" 
d="M86 0v1350h600c120 0 201 -36 244 -109c42 -72 63 -161 63 -266c0 -104 -22 -192 -65 -263c-35 -58 -95 -92 -181 -103l251 -609h-142l-245 605h-394v-605h-131zM217 691h426c83 0 141 26 172 78c31 53 46 121 46 205s-15 152 -46 204c-32 52 -89 79 -172 79h-426v-566z
M431 -294l95 227h93l-132 -227h-56z" />
    <glyph glyph-name="uni0210" unicode="&#x210;" horiz-adv-x="1103" 
d="M86 0v1350h600c120 0 201 -36 244 -109c42 -72 63 -161 63 -266c0 -104 -22 -192 -65 -263c-35 -58 -95 -92 -181 -103l251 -609h-142l-245 605h-394v-605h-131zM217 691h426c83 0 141 26 172 78c31 53 46 121 46 205s-15 152 -46 204c-32 52 -89 79 -172 79h-426v-566z
M479 1411l-165 144h102l137 -144h-74zM682 1411l-165 144h103l136 -144h-74z" />
    <glyph glyph-name="uni1E5A" unicode="&#x1e5a;" horiz-adv-x="1103" 
d="M86 0v1350h600c120 0 201 -36 244 -109c42 -72 63 -161 63 -266c0 -104 -22 -192 -65 -263c-35 -58 -95 -92 -181 -103l251 -609h-142l-245 605h-394v-605h-131zM217 691h426c83 0 141 26 172 78c31 53 46 121 46 205s-15 152 -46 204c-32 52 -89 79 -172 79h-426v-566z
M536 -210c-33 0 -59 25 -59 58c0 32 26 58 59 58c31 0 57 -26 57 -58s-25 -58 -57 -58z" />
    <glyph glyph-name="uni0212" unicode="&#x212;" horiz-adv-x="1103" 
d="M86 0v1350h600c120 0 201 -36 244 -109c42 -72 63 -161 63 -266c0 -104 -22 -192 -65 -263c-35 -58 -95 -92 -181 -103l251 -609h-142l-245 605h-394v-605h-131zM217 691h426c83 0 141 26 172 78c31 53 46 121 46 205s-15 152 -46 204c-32 52 -89 79 -172 79h-426v-566z
M535 1551c106 0 170 -66 170 -139h-70c0 47 -29 87 -100 87c-77 0 -100 -40 -100 -87h-71c0 73 59 139 171 139z" />
    <glyph glyph-name="uni1E5E" unicode="&#x1e5e;" horiz-adv-x="1103" 
d="M86 0v1350h600c120 0 201 -36 244 -109c42 -72 63 -161 63 -266c0 -104 -22 -192 -65 -263c-35 -58 -95 -92 -181 -103l251 -609h-142l-245 605h-394v-605h-131zM217 691h426c83 0 141 26 172 78c31 53 46 121 46 205s-15 152 -46 204c-32 52 -89 79 -172 79h-426v-566z
M265 -201v56h540v-56h-540z" />
    <glyph glyph-name="S" unicode="S" horiz-adv-x="1143" 
d="M549 -9c-180 0 -305 38 -377 115c-71 76 -107 210 -107 402h132c0 -174 29 -288 87 -342c58 -55 146 -82 264 -82c117 0 205 23 265 69c59 46 89 107 89 182c0 91 -35 155 -103 193c-69 38 -166 73 -293 106c-153 41 -264 87 -334 137c-71 49 -106 129 -106 240
c0 97 38 179 112 247s198 102 370 102c178 0 303 -39 375 -116c72 -78 108 -208 108 -390h-132c0 168 -30 279 -89 333c-60 53 -147 80 -263 80s-204 -23 -264 -69c-59 -46 -89 -104 -89 -174c0 -87 34 -150 103 -189c68 -39 165 -76 289 -109c156 -41 269 -86 340 -133
c70 -47 105 -128 105 -242c0 -102 -36 -187 -109 -256c-74 -70 -198 -104 -373 -104z" />
    <glyph glyph-name="Sacute" unicode="&#x15a;" horiz-adv-x="1143" 
d="M549 -9c-180 0 -305 38 -377 115c-71 76 -107 210 -107 402h132c0 -174 29 -288 87 -342c58 -55 146 -82 264 -82c117 0 205 23 265 69c59 46 89 107 89 182c0 91 -35 155 -103 193c-69 38 -166 73 -293 106c-153 41 -264 87 -334 137c-71 49 -106 129 -106 240
c0 97 38 179 112 247s198 102 370 102c178 0 303 -39 375 -116c72 -78 108 -208 108 -390h-132c0 168 -30 279 -89 333c-60 53 -147 80 -263 80s-204 -23 -264 -69c-59 -46 -89 -104 -89 -174c0 -87 34 -150 103 -189c68 -39 165 -76 289 -109c156 -41 269 -86 340 -133
c70 -47 105 -128 105 -242c0 -102 -36 -187 -109 -256c-74 -70 -198 -104 -373 -104zM436 1467l136 144h103l-165 -144h-74z" />
    <glyph glyph-name="uni1E64" unicode="&#x1e64;" horiz-adv-x="1143" 
d="M549 -9c-180 0 -305 38 -377 115c-71 76 -107 210 -107 402h132c0 -174 29 -288 87 -342c58 -55 146 -82 264 -82c117 0 205 23 265 69c59 46 89 107 89 182c0 91 -35 155 -103 193c-69 38 -166 73 -293 106c-153 41 -264 87 -334 137c-71 49 -106 129 -106 240
c0 97 38 179 112 247s198 102 370 102c178 0 303 -39 375 -116c72 -78 108 -208 108 -390h-132c0 168 -30 279 -89 333c-60 53 -147 80 -263 80s-204 -23 -264 -69c-59 -46 -89 -104 -89 -174c0 -87 34 -150 103 -189c68 -39 165 -76 289 -109c156 -41 269 -86 340 -133
c70 -47 105 -128 105 -242c0 -102 -36 -187 -109 -256c-74 -70 -198 -104 -373 -104zM434 1392l136 144h103l-165 -144h-74zM554 1602c-32 0 -58 25 -58 59c0 31 25 57 58 57c31 0 58 -26 58 -57c0 -33 -26 -59 -58 -59z" />
    <glyph glyph-name="Scaron" unicode="&#x160;" horiz-adv-x="1143" 
d="M549 -9c-180 0 -305 38 -377 115c-71 76 -107 210 -107 402h132c0 -174 29 -288 87 -342c58 -55 146 -82 264 -82c117 0 205 23 265 69c59 46 89 107 89 182c0 91 -35 155 -103 193c-69 38 -166 73 -293 106c-153 41 -264 87 -334 137c-71 49 -106 129 -106 240
c0 97 38 179 112 247s198 102 370 102c178 0 303 -39 375 -116c72 -78 108 -208 108 -390h-132c0 168 -30 279 -89 333c-60 53 -147 80 -263 80s-204 -23 -264 -69c-59 -46 -89 -104 -89 -174c0 -87 34 -150 103 -189c68 -39 165 -76 289 -109c156 -41 269 -86 340 -133
c70 -47 105 -128 105 -242c0 -102 -36 -187 -109 -256c-74 -70 -198 -104 -373 -104zM497 1458l-191 161h87l150 -124l149 124h87l-192 -161h-90z" />
    <glyph glyph-name="uni1E66" unicode="&#x1e66;" horiz-adv-x="1143" 
d="M549 -9c-180 0 -305 38 -377 115c-71 76 -107 210 -107 402h132c0 -174 29 -288 87 -342c58 -55 146 -82 264 -82c117 0 205 23 265 69c59 46 89 107 89 182c0 91 -35 155 -103 193c-69 38 -166 73 -293 106c-153 41 -264 87 -334 137c-71 49 -106 129 -106 240
c0 97 38 179 112 247s198 102 370 102c178 0 303 -39 375 -116c72 -78 108 -208 108 -390h-132c0 168 -30 279 -89 333c-60 53 -147 80 -263 80s-204 -23 -264 -69c-59 -46 -89 -104 -89 -174c0 -87 34 -150 103 -189c68 -39 165 -76 289 -109c156 -41 269 -86 340 -133
c70 -47 105 -128 105 -242c0 -102 -36 -187 -109 -256c-74 -70 -198 -104 -373 -104zM508 1398l-191 161h87l150 -124l149 124h87l-191 -161h-91zM554 1625c-32 0 -58 25 -58 58c0 32 25 58 58 58c31 0 58 -26 58 -58s-26 -58 -58 -58z" />
    <glyph glyph-name="Scedilla" unicode="&#x15e;" horiz-adv-x="1144" 
d="M556 -268c-47 0 -91 6 -128 15l22 61c26 -7 64 -13 107 -13c73 0 112 20 112 60c0 28 -24 41 -57 41c-30 0 -65 -11 -92 -24l-53 11l33 109c-154 6 -263 44 -328 114c-71 76 -107 210 -107 402h132c0 -174 29 -288 87 -342c58 -55 146 -82 264 -82c117 0 205 23 265 69
c59 46 89 107 89 182c0 91 -35 155 -103 193c-69 38 -166 73 -293 106c-153 41 -264 87 -334 137c-71 49 -106 129 -106 240c0 97 38 179 112 247s198 102 370 102c178 0 303 -39 375 -116c72 -78 108 -208 108 -390h-132c0 168 -30 279 -89 333c-60 53 -147 80 -263 80
s-204 -23 -264 -69c-59 -46 -89 -104 -89 -174c0 -87 34 -150 103 -189c68 -39 165 -76 289 -109c156 -41 269 -86 340 -133c70 -47 105 -128 105 -242c0 -102 -36 -187 -109 -256c-72 -68 -193 -103 -363 -104l-26 -80c25 15 68 27 111 27c61 0 108 -26 108 -84
c0 -85 -95 -122 -196 -122z" />
    <glyph glyph-name="Scircumflex" unicode="&#x15c;" horiz-adv-x="1143" 
d="M549 -9c-180 0 -305 38 -377 115c-71 76 -107 210 -107 402h132c0 -174 29 -288 87 -342c58 -55 146 -82 264 -82c117 0 205 23 265 69c59 46 89 107 89 182c0 91 -35 155 -103 193c-69 38 -166 73 -293 106c-153 41 -264 87 -334 137c-71 49 -106 129 -106 240
c0 97 38 179 112 247s198 102 370 102c178 0 303 -39 375 -116c72 -78 108 -208 108 -390h-132c0 168 -30 279 -89 333c-60 53 -147 80 -263 80s-204 -23 -264 -69c-59 -46 -89 -104 -89 -174c0 -87 34 -150 103 -189c68 -39 165 -76 289 -109c156 -41 269 -86 340 -133
c70 -47 105 -128 105 -242c0 -102 -36 -187 -109 -256c-74 -70 -198 -104 -373 -104zM317 1400l191 161h91l191 -161h-87l-149 123l-150 -123h-87z" />
    <glyph glyph-name="uni0218" unicode="&#x218;" horiz-adv-x="1143" 
d="M549 -9c-180 0 -305 38 -377 115c-71 76 -107 210 -107 402h132c0 -174 29 -288 87 -342c58 -55 146 -82 264 -82c117 0 205 23 265 69c59 46 89 107 89 182c0 91 -35 155 -103 193c-69 38 -166 73 -293 106c-153 41 -264 87 -334 137c-71 49 -106 129 -106 240
c0 97 38 179 112 247s198 102 370 102c178 0 303 -39 375 -116c72 -78 108 -208 108 -390h-132c0 168 -30 279 -89 333c-60 53 -147 80 -263 80s-204 -23 -264 -69c-59 -46 -89 -104 -89 -174c0 -87 34 -150 103 -189c68 -39 165 -76 289 -109c156 -41 269 -86 340 -133
c70 -47 105 -128 105 -242c0 -102 -36 -187 -109 -256c-74 -70 -198 -104 -373 -104zM426 -296l96 227h93l-132 -227h-57z" />
    <glyph glyph-name="uni1E60" unicode="&#x1e60;" horiz-adv-x="1143" 
d="M549 -9c-180 0 -305 38 -377 115c-71 76 -107 210 -107 402h132c0 -174 29 -288 87 -342c58 -55 146 -82 264 -82c117 0 205 23 265 69c59 46 89 107 89 182c0 91 -35 155 -103 193c-69 38 -166 73 -293 106c-153 41 -264 87 -334 137c-71 49 -106 129 -106 240
c0 97 38 179 112 247s198 102 370 102c178 0 303 -39 375 -116c72 -78 108 -208 108 -390h-132c0 168 -30 279 -89 333c-60 53 -147 80 -263 80s-204 -23 -264 -69c-59 -46 -89 -104 -89 -174c0 -87 34 -150 103 -189c68 -39 165 -76 289 -109c156 -41 269 -86 340 -133
c70 -47 105 -128 105 -242c0 -102 -36 -187 -109 -256c-74 -70 -198 -104 -373 -104zM554 1416c-32 0 -58 26 -58 59c0 32 25 57 58 57c31 0 58 -25 58 -57c0 -33 -26 -59 -58 -59z" />
    <glyph glyph-name="uni1E62" unicode="&#x1e62;" horiz-adv-x="1143" 
d="M549 -9c-180 0 -305 38 -377 115c-71 76 -107 210 -107 402h132c0 -174 29 -288 87 -342c58 -55 146 -82 264 -82c117 0 205 23 265 69c59 46 89 107 89 182c0 91 -35 155 -103 193c-69 38 -166 73 -293 106c-153 41 -264 87 -334 137c-71 49 -106 129 -106 240
c0 97 38 179 112 247s198 102 370 102c178 0 303 -39 375 -116c72 -78 108 -208 108 -390h-132c0 168 -30 279 -89 333c-60 53 -147 80 -263 80s-204 -23 -264 -69c-59 -46 -89 -104 -89 -174c0 -87 34 -150 103 -189c68 -39 165 -76 289 -109c156 -41 269 -86 340 -133
c70 -47 105 -128 105 -242c0 -102 -36 -187 -109 -256c-74 -70 -198 -104 -373 -104zM554 -210c-32 0 -58 25 -58 58c0 32 25 58 58 58c31 0 58 -26 58 -58s-26 -58 -58 -58z" />
    <glyph glyph-name="uni1E68" unicode="&#x1e68;" horiz-adv-x="1143" 
d="M549 -9c-180 0 -305 38 -377 115c-71 76 -107 210 -107 402h132c0 -174 29 -288 87 -342c58 -55 146 -82 264 -82c117 0 205 23 265 69c59 46 89 107 89 182c0 91 -35 155 -103 193c-69 38 -166 73 -293 106c-153 41 -264 87 -334 137c-71 49 -106 129 -106 240
c0 97 38 179 112 247s198 102 370 102c178 0 303 -39 375 -116c72 -78 108 -208 108 -390h-132c0 168 -30 279 -89 333c-60 53 -147 80 -263 80s-204 -23 -264 -69c-59 -46 -89 -104 -89 -174c0 -87 34 -150 103 -189c68 -39 165 -76 289 -109c156 -41 269 -86 340 -133
c70 -47 105 -128 105 -242c0 -102 -36 -187 -109 -256c-74 -70 -198 -104 -373 -104zM554 1416c-32 0 -58 26 -58 59c0 32 25 57 58 57c31 0 58 -25 58 -57c0 -33 -26 -59 -58 -59zM554 -210c-32 0 -58 25 -58 58c0 32 25 58 58 58c31 0 58 -26 58 -58s-26 -58 -58 -58z" />
    <glyph glyph-name="uni1E9E" unicode="&#x1e9e;" horiz-adv-x="1079" 
d="M86 0v1350h832v-88l-431 -493c364 -32 480 -145 480 -394c0 -273 -127 -392 -595 -375v91c354 -17 462 67 462 286c0 224 -115 309 -462 337v84l395 457h-551v-1255h-130z" />
    <glyph glyph-name="uni018F" unicode="&#x18f;" horiz-adv-x="1109" 
d="M542 -10c-161 0 -279 53 -354 159s-113 280 -113 520c0 17 1 33 3 47h808c-3 190 -33 328 -88 415c-59 93 -145 139 -258 139c-179 0 -324 -119 -330 -335l-118 34c13 261 203 391 448 391c163 0 283 -57 359 -171c76 -113 114 -285 114 -514c0 -243 -39 -418 -118 -525
s-197 -160 -353 -160zM886 630h-681c1 -206 31 -349 90 -429c60 -82 143 -122 247 -122c105 0 189 41 251 125c59 79 90 221 93 426z" />
    <glyph glyph-name="T" unicode="T" horiz-adv-x="1113" 
d="M487 0v1257h-420v93h971v-93h-420v-1257h-131z" />
    <glyph glyph-name="Tbar" unicode="&#x166;" horiz-adv-x="1113" 
d="M139 814v83h348v360h-420v93h971v-93h-420v-360h348v-83h-348v-814h-131v814h-348z" />
    <glyph glyph-name="Tcaron" unicode="&#x164;" horiz-adv-x="1113" 
d="M487 0v1257h-420v93h971v-93h-420v-1257h-131zM510 1398l-191 161h87l150 -124l149 124h87l-192 -161h-90z" />
    <glyph glyph-name="uni0162" unicode="&#x162;" horiz-adv-x="1113" 
d="M487 0v1257h-420v93h971v-93h-420v-1257h-33l-29 -87c25 15 68 27 111 27c61 0 108 -25 108 -83c0 -86 -95 -122 -196 -122c-47 0 -91 5 -128 14l22 61c26 -7 64 -13 107 -13c73 0 112 20 112 60c0 28 -24 41 -57 41c-30 0 -65 -11 -92 -24l-53 11l35 115h-38z" />
    <glyph glyph-name="uni021A" unicode="&#x21a;" horiz-adv-x="1113" 
d="M487 0v1257h-420v93h971v-93h-420v-1257h-131zM452 -294l96 227h93l-133 -227h-56z" />
    <glyph glyph-name="uni1E6C" unicode="&#x1e6c;" horiz-adv-x="1113" 
d="M487 0v1257h-420v93h971v-93h-420v-1257h-131zM553 -210c-33 0 -59 25 -59 58c0 32 25 58 59 58c31 0 57 -26 57 -58s-26 -58 -57 -58z" />
    <glyph glyph-name="uni1E6E" unicode="&#x1e6e;" horiz-adv-x="1113" 
d="M487 0v1257h-420v93h971v-93h-420v-1257h-131zM282 -201v56h540v-56h-540z" />
    <glyph glyph-name="U" unicode="U" horiz-adv-x="1225" 
d="M594 -9c-157 0 -278 32 -362 95c-83 63 -125 170 -125 320v943h130v-924c0 -124 31 -211 91 -263s149 -78 266 -78c118 0 206 26 267 78c60 51 90 139 90 263v924h131v-943c0 -150 -42 -257 -126 -320c-83 -63 -204 -95 -362 -95z" />
    <glyph glyph-name="Uacute" unicode="&#xda;" horiz-adv-x="1225" 
d="M594 -9c-157 0 -278 32 -362 95c-83 63 -125 170 -125 320v943h130v-924c0 -124 31 -211 91 -263s149 -78 266 -78c118 0 206 26 267 78c60 51 90 139 90 263v924h131v-943c0 -150 -42 -257 -126 -320c-83 -63 -204 -95 -362 -95zM479 1392l136 144h103l-165 -144h-74z
" />
    <glyph glyph-name="Ubreve" unicode="&#x16c;" horiz-adv-x="1225" 
d="M594 -9c-157 0 -278 32 -362 95c-83 63 -125 170 -125 320v943h130v-924c0 -124 31 -211 91 -263s149 -78 266 -78c118 0 206 26 267 78c60 51 90 139 90 263v924h131v-943c0 -150 -42 -257 -126 -320c-83 -63 -204 -95 -362 -95zM598 1400c-106 0 -170 66 -170 140h70
c0 -48 30 -88 100 -88c77 0 100 40 100 88h71c0 -74 -58 -140 -171 -140z" />
    <glyph glyph-name="uni01D3" unicode="&#x1d3;" horiz-adv-x="1225" 
d="M594 -9c-157 0 -278 32 -362 95c-83 63 -125 170 -125 320v943h130v-924c0 -124 31 -211 91 -263s149 -78 266 -78c118 0 206 26 267 78c60 51 90 139 90 263v924h131v-943c0 -150 -42 -257 -126 -320c-83 -63 -204 -95 -362 -95zM553 1398l-191 161h87l150 -124l149 124
h87l-191 -161h-91z" />
    <glyph glyph-name="Ucircumflex" unicode="&#xdb;" horiz-adv-x="1225" 
d="M594 -9c-157 0 -278 32 -362 95c-83 63 -125 170 -125 320v943h130v-924c0 -124 31 -211 91 -263s149 -78 266 -78c118 0 206 26 267 78c60 51 90 139 90 263v924h131v-943c0 -150 -42 -257 -126 -320c-83 -63 -204 -95 -362 -95zM362 1400l191 161h91l191 -161h-87
l-149 123l-150 -123h-87z" />
    <glyph glyph-name="uni0214" unicode="&#x214;" horiz-adv-x="1225" 
d="M594 -9c-157 0 -278 32 -362 95c-83 63 -125 170 -125 320v943h130v-924c0 -124 31 -211 91 -263s149 -78 266 -78c118 0 206 26 267 78c60 51 90 139 90 263v924h131v-943c0 -150 -42 -257 -126 -320c-83 -63 -204 -95 -362 -95zM542 1411l-165 144h103l136 -144h-74z
M745 1411l-165 144h103l136 -144h-74z" />
    <glyph glyph-name="Udieresis" unicode="&#xdc;" horiz-adv-x="1225" 
d="M594 -9c-157 0 -278 32 -362 95c-83 63 -125 170 -125 320v943h130v-924c0 -124 31 -211 91 -263s149 -78 266 -78c118 0 206 26 267 78c60 51 90 139 90 263v924h131v-943c0 -150 -42 -257 -126 -320c-83 -63 -204 -95 -362 -95zM467 1421c-32 0 -58 26 -58 58
s26 58 58 58s58 -26 58 -58s-26 -58 -58 -58zM730 1421c-33 0 -58 26 -58 58s25 58 58 58c32 0 57 -26 57 -58s-25 -58 -57 -58z" />
    <glyph glyph-name="uni01D7" unicode="&#x1d7;" horiz-adv-x="1225" 
d="M594 -9c-157 0 -278 32 -362 95c-83 63 -125 170 -125 320v943h130v-924c0 -124 31 -211 91 -263s149 -78 266 -78c118 0 206 26 267 78c60 51 90 139 90 263v924h131v-943c0 -150 -42 -257 -126 -320c-83 -63 -204 -95 -362 -95zM487 1652l136 144h103l-165 -144h-74z
M467 1421c-32 0 -58 26 -58 58s26 58 58 58s58 -26 58 -58s-26 -58 -58 -58zM730 1421c-33 0 -58 26 -58 58s25 58 58 58c32 0 57 -26 57 -58s-25 -58 -57 -58z" />
    <glyph glyph-name="uni01D9" unicode="&#x1d9;" horiz-adv-x="1225" 
d="M594 -9c-157 0 -278 32 -362 95c-83 63 -125 170 -125 320v943h130v-924c0 -124 31 -211 91 -263s149 -78 266 -78c118 0 206 26 267 78c60 51 90 139 90 263v924h131v-943c0 -150 -42 -257 -126 -320c-83 -63 -204 -95 -362 -95zM552 1636l-191 161h87l150 -123l149 123
h87l-192 -161h-90zM467 1421c-32 0 -58 26 -58 58s26 58 58 58s58 -26 58 -58s-26 -58 -58 -58zM730 1421c-33 0 -58 26 -58 58s25 58 58 58c32 0 57 -26 57 -58s-25 -58 -57 -58z" />
    <glyph glyph-name="uni01DB" unicode="&#x1db;" horiz-adv-x="1225" 
d="M594 -9c-157 0 -278 32 -362 95c-83 63 -125 170 -125 320v943h130v-924c0 -124 31 -211 91 -263s149 -78 266 -78c118 0 206 26 267 78c60 51 90 139 90 263v924h131v-943c0 -150 -42 -257 -126 -320c-83 -63 -204 -95 -362 -95zM601 1644l-165 143h103l136 -143h-74z
M467 1421c-32 0 -58 26 -58 58s26 58 58 58s58 -26 58 -58s-26 -58 -58 -58zM730 1421c-33 0 -58 26 -58 58s25 58 58 58c32 0 57 -26 57 -58s-25 -58 -57 -58z" />
    <glyph glyph-name="uni01D5" unicode="&#x1d5;" horiz-adv-x="1225" 
d="M594 -9c-157 0 -278 32 -362 95c-83 63 -125 170 -125 320v943h130v-924c0 -124 31 -211 91 -263s149 -78 266 -78c118 0 206 26 267 78c60 51 90 139 90 263v924h131v-943c0 -150 -42 -257 -126 -320c-83 -63 -204 -95 -362 -95zM322 1666v55h539v-55h-539zM467 1421
c-32 0 -58 26 -58 58s26 58 58 58s58 -26 58 -58s-26 -58 -58 -58zM730 1421c-33 0 -58 26 -58 58s25 58 58 58c32 0 57 -26 57 -58s-25 -58 -57 -58z" />
    <glyph glyph-name="uni1EE4" unicode="&#x1ee4;" horiz-adv-x="1225" 
d="M594 -9c-157 0 -278 32 -362 95c-83 63 -125 170 -125 320v943h130v-924c0 -124 31 -211 91 -263s149 -78 266 -78c118 0 206 26 267 78c60 51 90 139 90 263v924h131v-943c0 -150 -42 -257 -126 -320c-83 -63 -204 -95 -362 -95zM599 -246c-32 0 -58 26 -58 59
c0 32 25 57 58 57c31 0 58 -25 58 -57c0 -33 -26 -59 -58 -59z" />
    <glyph glyph-name="Ugrave" unicode="&#xd9;" horiz-adv-x="1225" 
d="M594 -9c-157 0 -278 32 -362 95c-83 63 -125 170 -125 320v943h130v-924c0 -124 31 -211 91 -263s149 -78 266 -78c118 0 206 26 267 78c60 51 90 139 90 263v924h131v-943c0 -150 -42 -257 -126 -320c-83 -63 -204 -95 -362 -95zM644 1407l-165 144h103l136 -144h-74z
" />
    <glyph glyph-name="uni1EE6" unicode="&#x1ee6;" horiz-adv-x="1225" 
d="M594 -9c-157 0 -278 32 -362 95c-83 63 -125 170 -125 320v943h130v-924c0 -124 31 -211 91 -263s149 -78 266 -78c118 0 206 26 267 78c60 51 90 139 90 263v924h131v-943c0 -150 -42 -257 -126 -320c-83 -63 -204 -95 -362 -95zM499 1647c198 0 312 -14 312 -95
c0 -71 -121 -91 -188 -91v-61h-55v102c88 0 173 11 173 47c0 44 -83 49 -242 49v49z" />
    <glyph glyph-name="Uhorn" unicode="&#x1af;" horiz-adv-x="1225" 
d="M594 -9c-157 0 -278 32 -362 95c-83 63 -125 170 -125 320v943h130v-924c0 -124 31 -211 91 -263s149 -78 266 -78c118 0 206 26 267 78c60 51 90 139 90 263v924h131v-108c162 0 208 39 208 143h82c0 -135 -88 -193 -290 -193v-785c0 -150 -42 -257 -126 -320
c-83 -63 -204 -95 -362 -95z" />
    <glyph glyph-name="uni1EE8" unicode="&#x1ee8;" horiz-adv-x="1225" 
d="M594 -9c-157 0 -278 32 -362 95c-83 63 -125 170 -125 320v943h130v-924c0 -124 31 -211 91 -263s149 -78 266 -78c118 0 206 26 267 78c60 51 90 139 90 263v924h131v-108c162 0 208 39 208 143h82c0 -135 -88 -193 -290 -193v-785c0 -150 -42 -257 -126 -320
c-83 -63 -204 -95 -362 -95zM479 1392l136 144h103l-165 -144h-74z" />
    <glyph glyph-name="uni1EF0" unicode="&#x1ef0;" horiz-adv-x="1225" 
d="M594 -9c-157 0 -278 32 -362 95c-83 63 -125 170 -125 320v943h130v-924c0 -124 31 -211 91 -263s149 -78 266 -78c118 0 206 26 267 78c60 51 90 139 90 263v924h131v-108c162 0 208 39 208 143h82c0 -135 -88 -193 -290 -193v-785c0 -150 -42 -257 -126 -320
c-83 -63 -204 -95 -362 -95zM599 -246c-32 0 -58 26 -58 59c0 32 25 57 58 57c31 0 58 -25 58 -57c0 -33 -26 -59 -58 -59z" />
    <glyph glyph-name="uni1EEA" unicode="&#x1eea;" horiz-adv-x="1225" 
d="M594 -9c-157 0 -278 32 -362 95c-83 63 -125 170 -125 320v943h130v-924c0 -124 31 -211 91 -263s149 -78 266 -78c118 0 206 26 267 78c60 51 90 139 90 263v924h131v-108c162 0 208 39 208 143h82c0 -135 -88 -193 -290 -193v-785c0 -150 -42 -257 -126 -320
c-83 -63 -204 -95 -362 -95zM644 1407l-165 144h103l136 -144h-74z" />
    <glyph glyph-name="uni1EEC" unicode="&#x1eec;" horiz-adv-x="1225" 
d="M594 -9c-157 0 -278 32 -362 95c-83 63 -125 170 -125 320v943h130v-924c0 -124 31 -211 91 -263s149 -78 266 -78c118 0 206 26 267 78c60 51 90 139 90 263v924h131v-108c162 0 208 39 208 143h82c0 -135 -88 -193 -290 -193v-785c0 -150 -42 -257 -126 -320
c-83 -63 -204 -95 -362 -95zM499 1647c198 0 312 -14 312 -95c0 -71 -121 -91 -188 -91v-61h-55v102c88 0 173 11 173 47c0 44 -83 49 -242 49v49z" />
    <glyph glyph-name="uni1EEE" unicode="&#x1eee;" horiz-adv-x="1225" 
d="M594 -9c-157 0 -278 32 -362 95c-83 63 -125 170 -125 320v943h130v-924c0 -124 31 -211 91 -263s149 -78 266 -78c118 0 206 26 267 78c60 51 90 139 90 263v924h131v-108c162 0 208 39 208 143h82c0 -135 -88 -193 -290 -193v-785c0 -150 -42 -257 -126 -320
c-83 -63 -204 -95 -362 -95zM699 1438c-98 0 -119 64 -188 64c-50 0 -74 -31 -76 -52h-71c4 39 36 110 142 110c89 0 102 -64 187 -64c47 0 70 33 72 53h70c-2 -34 -27 -111 -136 -111z" />
    <glyph glyph-name="Uhungarumlaut" unicode="&#x170;" horiz-adv-x="1225" 
d="M594 -9c-157 0 -278 32 -362 95c-83 63 -125 170 -125 320v943h130v-924c0 -124 31 -211 91 -263s149 -78 266 -78c118 0 206 26 267 78c60 51 90 139 90 263v924h131v-943c0 -150 -42 -257 -126 -320c-83 -63 -204 -95 -362 -95zM577 1424l122 131h96l-148 -131h-70z
M403 1424l120 131h93l-144 -131h-69z" />
    <glyph glyph-name="uni0216" unicode="&#x216;" horiz-adv-x="1225" 
d="M594 -9c-157 0 -278 32 -362 95c-83 63 -125 170 -125 320v943h130v-924c0 -124 31 -211 91 -263s149 -78 266 -78c118 0 206 26 267 78c60 51 90 139 90 263v924h131v-943c0 -150 -42 -257 -126 -320c-83 -63 -204 -95 -362 -95zM599 1551c105 0 170 -66 170 -139h-70
c0 47 -30 87 -100 87c-77 0 -101 -40 -101 -87h-70c0 73 58 139 171 139z" />
    <glyph glyph-name="Umacron" unicode="&#x16a;" horiz-adv-x="1225" 
d="M594 -9c-157 0 -278 32 -362 95c-83 63 -125 170 -125 320v943h130v-924c0 -124 31 -211 91 -263s149 -78 266 -78c118 0 206 26 267 78c60 51 90 139 90 263v924h131v-943c0 -150 -42 -257 -126 -320c-83 -63 -204 -95 -362 -95zM329 1452v56h539v-56h-539z" />
    <glyph glyph-name="uni1E7A" unicode="&#x1e7a;" horiz-adv-x="1225" 
d="M594 -9c-157 0 -278 32 -362 95c-83 63 -125 170 -125 320v943h130v-924c0 -124 31 -211 91 -263s149 -78 266 -78c118 0 206 26 267 78c60 51 90 139 90 263v924h131v-943c0 -150 -42 -257 -126 -320c-83 -63 -204 -95 -362 -95zM329 1452v56h539v-56h-539zM467 1579
c-32 0 -58 25 -58 57s26 58 58 58s58 -26 58 -58s-26 -57 -58 -57zM730 1579c-33 0 -58 25 -58 57s25 58 58 58c32 0 57 -26 57 -58s-25 -57 -57 -57z" />
    <glyph glyph-name="Uogonek" unicode="&#x172;" horiz-adv-x="1225" 
d="M594 -9h-2c-20 -35 -52 -106 -52 -151c0 -39 23 -60 73 -60c41 0 92 11 112 21l5 -72c-18 -8 -78 -21 -135 -21c-72 0 -135 28 -135 109c0 68 40 142 63 176c-123 9 -220 40 -291 93c-83 63 -125 170 -125 320v943h130v-924c0 -124 31 -211 91 -263s149 -78 266 -78
c118 0 206 26 267 78c60 51 90 139 90 263v924h131v-943c0 -150 -42 -257 -126 -320c-83 -63 -204 -95 -362 -95z" />
    <glyph glyph-name="Uring" unicode="&#x16e;" horiz-adv-x="1225" 
d="M594 -9c-157 0 -278 32 -362 95c-83 63 -125 170 -125 320v943h130v-924c0 -124 31 -211 91 -263s149 -78 266 -78c118 0 206 26 267 78c60 51 90 139 90 263v924h131v-943c0 -150 -42 -257 -126 -320c-83 -63 -204 -95 -362 -95zM599 1385c-56 0 -98 43 -98 100
c0 53 41 97 98 97c56 0 97 -44 97 -97c0 -56 -41 -100 -97 -100zM599 1440c23 0 42 19 42 45c0 24 -19 42 -42 42c-24 0 -43 -18 -43 -42c0 -26 19 -45 43 -45z" />
    <glyph glyph-name="Utilde" unicode="&#x168;" horiz-adv-x="1225" 
d="M594 -9c-157 0 -278 32 -362 95c-83 63 -125 170 -125 320v943h130v-924c0 -124 31 -211 91 -263s149 -78 266 -78c118 0 206 26 267 78c60 51 90 139 90 263v924h131v-943c0 -150 -42 -257 -126 -320c-83 -63 -204 -95 -362 -95zM699 1438c-98 0 -119 64 -188 64
c-50 0 -74 -31 -76 -52h-71c4 39 36 110 142 110c89 0 102 -64 187 -64c47 0 70 33 72 53h70c-2 -34 -27 -111 -136 -111z" />
    <glyph glyph-name="uni1E78" unicode="&#x1e78;" horiz-adv-x="1225" 
d="M594 -9c-157 0 -278 32 -362 95c-83 63 -125 170 -125 320v943h130v-924c0 -124 31 -211 91 -263s149 -78 266 -78c118 0 206 26 267 78c60 51 90 139 90 263v924h131v-943c0 -150 -42 -257 -126 -320c-83 -63 -204 -95 -362 -95zM699 1438c-98 0 -119 64 -188 64
c-50 0 -74 -31 -76 -52h-71c4 39 36 110 142 110c89 0 102 -64 187 -64c47 0 70 33 72 53h70c-2 -34 -27 -111 -136 -111zM479 1600l136 144h103l-165 -144h-74z" />
    <glyph glyph-name="V" unicode="V" horiz-adv-x="1166" 
d="M466 0l-410 1350h134l378 -1272l380 1272h133l-411 -1350h-204z" />
    <glyph glyph-name="V.ss01" horiz-adv-x="1167" 
d="M465 0l-409 966v384h132v-360l381 -913l381 913v360h132v-384l-411 -966h-206z" />
    <glyph glyph-name="W" unicode="W" horiz-adv-x="1708" 
d="M340 0l-274 1350h142l240 -1253l304 1253h177l304 -1253l242 1253h142l-276 -1350h-202l-299 1261l-298 -1261h-202z" />
    <glyph glyph-name="Wacute" unicode="&#x1e82;" horiz-adv-x="1708" 
d="M340 0l-274 1350h142l240 -1253l304 1253h177l304 -1253l242 1253h142l-276 -1350h-202l-299 1261l-298 -1261h-202zM735 1392l136 144h103l-165 -144h-74z" />
    <glyph glyph-name="Wcircumflex" unicode="&#x174;" horiz-adv-x="1708" 
d="M340 0l-274 1350h142l240 -1253l304 1253h177l304 -1253l242 1253h142l-276 -1350h-202l-299 1261l-298 -1261h-202zM617 1400l192 161h90l192 -161h-87l-149 123l-150 -123h-88z" />
    <glyph glyph-name="Wdieresis" unicode="&#x1e84;" horiz-adv-x="1708" 
d="M340 0l-274 1350h142l240 -1253l304 1253h177l304 -1253l242 1253h142l-276 -1350h-202l-299 1261l-298 -1261h-202zM723 1421c-33 0 -58 26 -58 58s25 58 58 58c32 0 57 -26 57 -58s-25 -58 -57 -58zM985 1421c-32 0 -58 26 -58 58s26 58 58 58s58 -26 58 -58
s-26 -58 -58 -58z" />
    <glyph glyph-name="Wgrave" unicode="&#x1e80;" horiz-adv-x="1708" 
d="M340 0l-274 1350h142l240 -1253l304 1253h177l304 -1253l242 1253h142l-276 -1350h-202l-299 1261l-298 -1261h-202zM900 1407l-165 144h102l137 -144h-74z" />
    <glyph glyph-name="X" unicode="X" horiz-adv-x="1163" 
d="M41 0l420 668l-407 682h153l356 -627l357 627h153l-409 -682l421 -668h-153l-369 613l-369 -613h-153z" />
    <glyph glyph-name="Y" unicode="Y" horiz-adv-x="1181" 
d="M514 0v522l-463 828h145l383 -711l382 711h145l-462 -829v-521h-130z" />
    <glyph glyph-name="Y.ss01" horiz-adv-x="1201" 
d="M513 497l-464 853h143l391 -718l391 718h143l-464 -853h-5v-497h-130v497h-5z" />
    <glyph glyph-name="Yacute" unicode="&#xdd;" horiz-adv-x="1181" 
d="M514 0v522l-463 828h145l383 -711l382 711h145l-462 -829v-521h-130zM461 1392l136 144h103l-165 -144h-74z" />
    <glyph glyph-name="Ycircumflex" unicode="&#x176;" horiz-adv-x="1181" 
d="M514 0v522l-463 828h145l383 -711l382 711h145l-462 -829v-521h-130zM344 1400l192 161h90l192 -161h-88l-149 123l-150 -123h-87z" />
    <glyph glyph-name="Ydieresis" unicode="&#x178;" horiz-adv-x="1181" 
d="M514 0v522l-463 828h145l383 -711l382 711h145l-462 -829v-521h-130zM449 1421c-32 0 -58 26 -58 58s26 58 58 58s58 -26 58 -58s-26 -58 -58 -58zM712 1421c-32 0 -58 26 -58 58s26 58 58 58s58 -26 58 -58s-26 -58 -58 -58z" />
    <glyph glyph-name="uni1E8E" unicode="&#x1e8e;" horiz-adv-x="1181" 
d="M514 0v522l-463 828h145l383 -711l382 711h145l-462 -829v-521h-130zM582 1416c-33 0 -59 26 -59 59c0 32 25 57 59 57c31 0 57 -25 57 -57c0 -33 -26 -59 -57 -59z" />
    <glyph glyph-name="uni1EF4" unicode="&#x1ef4;" horiz-adv-x="1181" 
d="M514 0v522l-463 828h145l383 -711l382 711h145l-462 -829v-521h-130zM597 -246c-33 0 -59 26 -59 59c0 32 25 57 59 57c31 0 57 -25 57 -57c0 -33 -26 -59 -57 -59z" />
    <glyph glyph-name="Ygrave" unicode="&#x1ef2;" horiz-adv-x="1181" 
d="M514 0v522l-463 828h145l383 -711l382 711h145l-462 -829v-521h-130zM627 1407l-166 144h103l136 -144h-73z" />
    <glyph glyph-name="uni1EF6" unicode="&#x1ef6;" horiz-adv-x="1181" 
d="M514 0v522l-463 828h145l383 -711l382 711h145l-462 -829v-521h-130zM482 1647c198 0 311 -14 311 -95c0 -71 -121 -91 -188 -91v-61h-55v102c88 0 173 11 173 47c0 44 -83 49 -241 49v49z" />
    <glyph glyph-name="uni0232" unicode="&#x232;" horiz-adv-x="1181" 
d="M514 0v522l-463 828h145l383 -711l382 711h145l-462 -829v-521h-130zM311 1452v56h540v-56h-540z" />
    <glyph glyph-name="uni1EF8" unicode="&#x1ef8;" horiz-adv-x="1181" 
d="M514 0v522l-463 828h145l383 -711l382 711h145l-462 -829v-521h-130zM681 1438c-98 0 -119 64 -188 64c-50 0 -74 -31 -76 -52h-70c3 39 35 110 141 110c90 0 103 -64 187 -64c47 0 70 33 72 53h71c-2 -34 -27 -111 -137 -111z" />
    <glyph glyph-name="Z" unicode="Z" horiz-adv-x="1056" 
d="M71 0v99l695 1158h-686v93h832v-95l-695 -1161h730v-94h-876z" />
    <glyph glyph-name="Zacute" unicode="&#x179;" horiz-adv-x="1056" 
d="M71 0v99l695 1158h-686v93h832v-95l-695 -1161h730v-94h-876zM408 1392l136 144h103l-165 -144h-74z" />
    <glyph glyph-name="Zcaron" unicode="&#x17d;" horiz-adv-x="1056" 
d="M71 0v99l695 1158h-686v93h832v-95l-695 -1161h730v-94h-876zM483 1398l-192 161h87l151 -124l148 124h88l-192 -161h-90z" />
    <glyph glyph-name="Zdotaccent" unicode="&#x17b;" horiz-adv-x="1056" 
d="M71 0v99l695 1158h-686v93h832v-95l-695 -1161h730v-94h-876zM529 1416c-33 0 -59 26 -59 59c0 32 25 57 59 57c31 0 57 -25 57 -57c0 -33 -26 -59 -57 -59z" />
    <glyph glyph-name="uni1E92" unicode="&#x1e92;" horiz-adv-x="1056" 
d="M71 0v99l695 1158h-686v93h832v-95l-695 -1161h730v-94h-876zM529 -210c-33 0 -59 25 -59 58c0 32 25 58 59 58c31 0 57 -26 57 -58s-26 -58 -57 -58z" />
    <glyph glyph-name="a" unicode="a" horiz-adv-x="1103" 
d="M867 0l-12 116c-19 -20 -43 -39 -73 -57c-76 -46 -178 -69 -306 -69c-132 0 -231 31 -297 93c-67 61 -100 151 -100 267c0 115 34 199 102 255c68 55 182 83 343 83h326v62c0 116 -25 204 -77 264c-51 60 -129 90 -235 90c-179 0 -311 -113 -318 -302l-127 32
c13 236 188 361 439 361c166 0 281 -41 348 -125c67 -83 100 -199 100 -349v-721h-113zM850 246v359h-304c-121 0 -207 -20 -258 -61s-77 -105 -77 -192c0 -82 24 -149 71 -200c48 -50 122 -75 224 -75c99 0 181 18 246 55c66 37 98 75 98 114z" />
    <glyph glyph-name="a.ss01" horiz-adv-x="1101" 
d="M863 0l-8 156c-18 -22 -42 -45 -70 -67c-82 -65 -184 -97 -307 -97c-132 0 -233 48 -303 144s-105 249 -105 459s35 363 105 458c70 96 171 143 303 143c123 0 225 -32 307 -97c27 -21 50 -43 68 -64v150h130v-1185h-120zM853 355v479c-5 65 -37 125 -97 180
c-65 59 -144 89 -237 89c-97 0 -174 -37 -231 -110c-58 -73 -87 -206 -87 -399s29 -326 87 -399c57 -73 134 -110 231 -110c93 0 172 30 237 89c60 56 92 116 97 181z" />
    <glyph glyph-name="aacute" unicode="&#xe1;" horiz-adv-x="1103" 
d="M867 0l-12 116c-19 -20 -43 -39 -73 -57c-76 -46 -178 -69 -306 -69c-132 0 -231 31 -297 93c-67 61 -100 151 -100 267c0 115 34 199 102 255c68 55 182 83 343 83h326v62c0 116 -25 204 -77 264c-51 60 -129 90 -235 90c-179 0 -311 -113 -318 -302l-127 32
c13 236 188 361 439 361c166 0 281 -41 348 -125c67 -83 100 -199 100 -349v-721h-113zM850 246v359h-304c-121 0 -207 -20 -258 -61s-77 -105 -77 -192c0 -82 24 -149 71 -200c48 -50 122 -75 224 -75c99 0 181 18 246 55c66 37 98 75 98 114zM415 1227l136 144h102
l-165 -144h-73z" />
    <glyph glyph-name="abreve" unicode="&#x103;" horiz-adv-x="1103" 
d="M867 0l-12 116c-19 -20 -43 -39 -73 -57c-76 -46 -178 -69 -306 -69c-132 0 -231 31 -297 93c-67 61 -100 151 -100 267c0 115 34 199 102 255c68 55 182 83 343 83h326v62c0 116 -25 204 -77 264c-51 60 -129 90 -235 90c-179 0 -311 -113 -318 -302l-127 32
c13 236 188 361 439 361c166 0 281 -41 348 -125c67 -83 100 -199 100 -349v-721h-113zM850 246v359h-304c-121 0 -207 -20 -258 -61s-77 -105 -77 -192c0 -82 24 -149 71 -200c48 -50 122 -75 224 -75c99 0 181 18 246 55c66 37 98 75 98 114zM533 1235
c-105 0 -169 66 -169 139h70c0 -47 29 -87 99 -87c77 0 101 40 101 87h70c0 -73 -58 -139 -171 -139z" />
    <glyph glyph-name="uni1EAF" unicode="&#x1eaf;" horiz-adv-x="1103" 
d="M867 0l-12 116c-19 -20 -43 -39 -73 -57c-76 -46 -178 -69 -306 -69c-132 0 -231 31 -297 93c-67 61 -100 151 -100 267c0 115 34 199 102 255c68 55 182 83 343 83h326v62c0 116 -25 204 -77 264c-51 60 -129 90 -235 90c-179 0 -311 -113 -318 -302l-127 32
c13 236 188 361 439 361c166 0 281 -41 348 -125c67 -83 100 -199 100 -349v-721h-113zM850 246v359h-304c-121 0 -207 -20 -258 -61s-77 -105 -77 -192c0 -82 24 -149 71 -200c48 -50 122 -75 224 -75c99 0 181 18 246 55c66 37 98 75 98 114zM533 1235
c-105 0 -169 66 -169 139h70c0 -47 29 -87 99 -87c77 0 101 40 101 87h70c0 -73 -58 -139 -171 -139zM415 1416l136 144h102l-165 -144h-73z" />
    <glyph glyph-name="uni1EB7" unicode="&#x1eb7;" horiz-adv-x="1103" 
d="M867 0l-12 116c-19 -20 -43 -39 -73 -57c-76 -46 -178 -69 -306 -69c-132 0 -231 31 -297 93c-67 61 -100 151 -100 267c0 115 34 199 102 255c68 55 182 83 343 83h326v62c0 116 -25 204 -77 264c-51 60 -129 90 -235 90c-179 0 -311 -113 -318 -302l-127 32
c13 236 188 361 439 361c166 0 281 -41 348 -125c67 -83 100 -199 100 -349v-721h-113zM850 246v359h-304c-121 0 -207 -20 -258 -61s-77 -105 -77 -192c0 -82 24 -149 71 -200c48 -50 122 -75 224 -75c99 0 181 18 246 55c66 37 98 75 98 114zM533 1235
c-105 0 -169 66 -169 139h70c0 -47 29 -87 99 -87c77 0 101 40 101 87h70c0 -73 -58 -139 -171 -139zM544 -246c-32 0 -59 26 -59 59c0 32 26 57 59 57c31 0 57 -25 57 -57c0 -33 -25 -59 -57 -59z" />
    <glyph glyph-name="uni1EB1" unicode="&#x1eb1;" horiz-adv-x="1103" 
d="M867 0l-12 116c-19 -20 -43 -39 -73 -57c-76 -46 -178 -69 -306 -69c-132 0 -231 31 -297 93c-67 61 -100 151 -100 267c0 115 34 199 102 255c68 55 182 83 343 83h326v62c0 116 -25 204 -77 264c-51 60 -129 90 -235 90c-179 0 -311 -113 -318 -302l-127 32
c13 236 188 361 439 361c166 0 281 -41 348 -125c67 -83 100 -199 100 -349v-721h-113zM850 246v359h-304c-121 0 -207 -20 -258 -61s-77 -105 -77 -192c0 -82 24 -149 71 -200c48 -50 122 -75 224 -75c99 0 181 18 246 55c66 37 98 75 98 114zM533 1235
c-105 0 -169 66 -169 139h70c0 -47 29 -87 99 -87c77 0 101 40 101 87h70c0 -73 -58 -139 -171 -139zM580 1431l-166 144h103l136 -144h-73z" />
    <glyph glyph-name="uni1EB3" unicode="&#x1eb3;" horiz-adv-x="1103" 
d="M867 0l-12 116c-19 -20 -43 -39 -73 -57c-76 -46 -178 -69 -306 -69c-132 0 -231 31 -297 93c-67 61 -100 151 -100 267c0 115 34 199 102 255c68 55 182 83 343 83h326v62c0 116 -25 204 -77 264c-51 60 -129 90 -235 90c-179 0 -311 -113 -318 -302l-127 32
c13 236 188 361 439 361c166 0 281 -41 348 -125c67 -83 100 -199 100 -349v-721h-113zM850 246v359h-304c-121 0 -207 -20 -258 -61s-77 -105 -77 -192c0 -82 24 -149 71 -200c48 -50 122 -75 224 -75c99 0 181 18 246 55c66 37 98 75 98 114zM435 1671
c198 0 311 -13 311 -94c0 -72 -121 -92 -188 -92v-60h-55v101c88 0 173 11 173 47c0 44 -83 50 -241 50v48zM533 1235c-105 0 -169 66 -169 139h70c0 -47 29 -87 99 -87c77 0 101 40 101 87h70c0 -73 -58 -139 -171 -139z" />
    <glyph glyph-name="uni1EB5" unicode="&#x1eb5;" horiz-adv-x="1103" 
d="M867 0l-12 116c-19 -20 -43 -39 -73 -57c-76 -46 -178 -69 -306 -69c-132 0 -231 31 -297 93c-67 61 -100 151 -100 267c0 115 34 199 102 255c68 55 182 83 343 83h326v62c0 116 -25 204 -77 264c-51 60 -129 90 -235 90c-179 0 -311 -113 -318 -302l-127 32
c13 236 188 361 439 361c166 0 281 -41 348 -125c67 -83 100 -199 100 -349v-721h-113zM850 246v359h-304c-121 0 -207 -20 -258 -61s-77 -105 -77 -192c0 -82 24 -149 71 -200c48 -50 122 -75 224 -75c99 0 181 18 246 55c66 37 98 75 98 114zM634 1463
c-98 0 -119 64 -188 64c-50 0 -74 -32 -75 -52h-71c3 38 35 109 141 109c90 0 103 -63 187 -63c47 0 70 32 72 53h71c-2 -34 -27 -111 -137 -111zM533 1235c-105 0 -169 66 -169 139h70c0 -47 29 -87 99 -87c77 0 101 40 101 87h70c0 -73 -58 -139 -171 -139z" />
    <glyph glyph-name="uni01CE" unicode="&#x1ce;" horiz-adv-x="1103" 
d="M867 0l-12 116c-19 -20 -43 -39 -73 -57c-76 -46 -178 -69 -306 -69c-132 0 -231 31 -297 93c-67 61 -100 151 -100 267c0 115 34 199 102 255c68 55 182 83 343 83h326v62c0 116 -25 204 -77 264c-51 60 -129 90 -235 90c-179 0 -311 -113 -318 -302l-127 32
c13 236 188 361 439 361c166 0 281 -41 348 -125c67 -83 100 -199 100 -349v-721h-113zM850 246v359h-304c-121 0 -207 -20 -258 -61s-77 -105 -77 -192c0 -82 24 -149 71 -200c48 -50 122 -75 224 -75c99 0 181 18 246 55c66 37 98 75 98 114zM489 1232l-192 161h88
l150 -123l149 123h87l-192 -161h-90z" />
    <glyph glyph-name="acircumflex" unicode="&#xe2;" horiz-adv-x="1103" 
d="M867 0l-12 116c-19 -20 -43 -39 -73 -57c-76 -46 -178 -69 -306 -69c-132 0 -231 31 -297 93c-67 61 -100 151 -100 267c0 115 34 199 102 255c68 55 182 83 343 83h326v62c0 116 -25 204 -77 264c-51 60 -129 90 -235 90c-179 0 -311 -113 -318 -302l-127 32
c13 236 188 361 439 361c166 0 281 -41 348 -125c67 -83 100 -199 100 -349v-721h-113zM850 246v359h-304c-121 0 -207 -20 -258 -61s-77 -105 -77 -192c0 -82 24 -149 71 -200c48 -50 122 -75 224 -75c99 0 181 18 246 55c66 37 98 75 98 114zM297 1235l192 161h90
l192 -161h-87l-150 123l-149 -123h-88z" />
    <glyph glyph-name="uni1EA5" unicode="&#x1ea5;" horiz-adv-x="1103" 
d="M867 0l-12 116c-19 -20 -43 -39 -73 -57c-76 -46 -178 -69 -306 -69c-132 0 -231 31 -297 93c-67 61 -100 151 -100 267c0 115 34 199 102 255c68 55 182 83 343 83h326v62c0 116 -25 204 -77 264c-51 60 -129 90 -235 90c-179 0 -311 -113 -318 -302l-127 32
c13 236 188 361 439 361c166 0 281 -41 348 -125c67 -83 100 -199 100 -349v-721h-113zM850 246v359h-304c-121 0 -207 -20 -258 -61s-77 -105 -77 -192c0 -82 24 -149 71 -200c48 -50 122 -75 224 -75c99 0 181 18 246 55c66 37 98 75 98 114zM297 1235l192 161h90
l192 -161h-87l-150 123l-149 -123h-88zM415 1438l136 144h102l-165 -144h-73z" />
    <glyph glyph-name="uni1EAD" unicode="&#x1ead;" horiz-adv-x="1103" 
d="M867 0l-12 116c-19 -20 -43 -39 -73 -57c-76 -46 -178 -69 -306 -69c-132 0 -231 31 -297 93c-67 61 -100 151 -100 267c0 115 34 199 102 255c68 55 182 83 343 83h326v62c0 116 -25 204 -77 264c-51 60 -129 90 -235 90c-179 0 -311 -113 -318 -302l-127 32
c13 236 188 361 439 361c166 0 281 -41 348 -125c67 -83 100 -199 100 -349v-721h-113zM850 246v359h-304c-121 0 -207 -20 -258 -61s-77 -105 -77 -192c0 -82 24 -149 71 -200c48 -50 122 -75 224 -75c99 0 181 18 246 55c66 37 98 75 98 114zM297 1235l192 161h90
l192 -161h-87l-150 123l-149 -123h-88zM544 -246c-32 0 -59 26 -59 59c0 32 26 57 59 57c31 0 57 -25 57 -57c0 -33 -25 -59 -57 -59z" />
    <glyph glyph-name="uni1EA7" unicode="&#x1ea7;" horiz-adv-x="1103" 
d="M867 0l-12 116c-19 -20 -43 -39 -73 -57c-76 -46 -178 -69 -306 -69c-132 0 -231 31 -297 93c-67 61 -100 151 -100 267c0 115 34 199 102 255c68 55 182 83 343 83h326v62c0 116 -25 204 -77 264c-51 60 -129 90 -235 90c-179 0 -311 -113 -318 -302l-127 32
c13 236 188 361 439 361c166 0 281 -41 348 -125c67 -83 100 -199 100 -349v-721h-113zM850 246v359h-304c-121 0 -207 -20 -258 -61s-77 -105 -77 -192c0 -82 24 -149 71 -200c48 -50 122 -75 224 -75c99 0 181 18 246 55c66 37 98 75 98 114zM297 1235l192 161h90
l192 -161h-87l-150 123l-149 -123h-88zM580 1453l-166 144h103l136 -144h-73z" />
    <glyph glyph-name="uni1EA9" unicode="&#x1ea9;" horiz-adv-x="1103" 
d="M867 0l-12 116c-19 -20 -43 -39 -73 -57c-76 -46 -178 -69 -306 -69c-132 0 -231 31 -297 93c-67 61 -100 151 -100 267c0 115 34 199 102 255c68 55 182 83 343 83h326v62c0 116 -25 204 -77 264c-51 60 -129 90 -235 90c-179 0 -311 -113 -318 -302l-127 32
c13 236 188 361 439 361c166 0 281 -41 348 -125c67 -83 100 -199 100 -349v-721h-113zM850 246v359h-304c-121 0 -207 -20 -258 -61s-77 -105 -77 -192c0 -82 24 -149 71 -200c48 -50 122 -75 224 -75c99 0 181 18 246 55c66 37 98 75 98 114zM435 1693
c198 0 311 -14 311 -95c0 -71 -121 -91 -188 -91v-61h-55v102c88 0 173 11 173 47c0 44 -83 49 -241 49v49zM297 1235l192 161h90l192 -161h-87l-150 123l-149 -123h-88z" />
    <glyph glyph-name="uni1EAB" unicode="&#x1eab;" horiz-adv-x="1103" 
d="M867 0l-12 116c-19 -20 -43 -39 -73 -57c-76 -46 -178 -69 -306 -69c-132 0 -231 31 -297 93c-67 61 -100 151 -100 267c0 115 34 199 102 255c68 55 182 83 343 83h326v62c0 116 -25 204 -77 264c-51 60 -129 90 -235 90c-179 0 -311 -113 -318 -302l-127 32
c13 236 188 361 439 361c166 0 281 -41 348 -125c67 -83 100 -199 100 -349v-721h-113zM850 246v359h-304c-121 0 -207 -20 -258 -61s-77 -105 -77 -192c0 -82 24 -149 71 -200c48 -50 122 -75 224 -75c99 0 181 18 246 55c66 37 98 75 98 114zM634 1484
c-98 0 -119 64 -188 64c-50 0 -74 -31 -75 -52h-71c3 39 35 110 141 110c90 0 103 -64 187 -64c47 0 70 33 72 53h71c-2 -34 -27 -111 -137 -111zM297 1235l192 161h90l192 -161h-87l-150 123l-149 -123h-88z" />
    <glyph glyph-name="uni0201" unicode="&#x201;" horiz-adv-x="1103" 
d="M867 0l-12 116c-19 -20 -43 -39 -73 -57c-76 -46 -178 -69 -306 -69c-132 0 -231 31 -297 93c-67 61 -100 151 -100 267c0 115 34 199 102 255c68 55 182 83 343 83h326v62c0 116 -25 204 -77 264c-51 60 -129 90 -235 90c-179 0 -311 -113 -318 -302l-127 32
c13 236 188 361 439 361c166 0 281 -41 348 -125c67 -83 100 -199 100 -349v-721h-113zM850 246v359h-304c-121 0 -207 -20 -258 -61s-77 -105 -77 -192c0 -82 24 -149 71 -200c48 -50 122 -75 224 -75c99 0 181 18 246 55c66 37 98 75 98 114zM478 1246l-166 144h103
l136 -144h-73zM681 1246l-165 144h102l137 -144h-74z" />
    <glyph glyph-name="adieresis" unicode="&#xe4;" horiz-adv-x="1103" 
d="M867 0l-12 116c-19 -20 -43 -39 -73 -57c-76 -46 -178 -69 -306 -69c-132 0 -231 31 -297 93c-67 61 -100 151 -100 267c0 115 34 199 102 255c68 55 182 83 343 83h326v62c0 116 -25 204 -77 264c-51 60 -129 90 -235 90c-179 0 -311 -113 -318 -302l-127 32
c13 236 188 361 439 361c166 0 281 -41 348 -125c67 -83 100 -199 100 -349v-721h-113zM850 246v359h-304c-121 0 -207 -20 -258 -61s-77 -105 -77 -192c0 -82 24 -149 71 -200c48 -50 122 -75 224 -75c99 0 181 18 246 55c66 37 98 75 98 114zM402 1256
c-32 0 -58 26 -58 58s26 58 58 58s58 -26 58 -58s-26 -58 -58 -58zM665 1256c-32 0 -58 26 -58 58s26 58 58 58s58 -26 58 -58s-26 -58 -58 -58z" />
    <glyph glyph-name="uni1EA1" unicode="&#x1ea1;" horiz-adv-x="1103" 
d="M867 0l-12 116c-19 -20 -43 -39 -73 -57c-76 -46 -178 -69 -306 -69c-132 0 -231 31 -297 93c-67 61 -100 151 -100 267c0 115 34 199 102 255c68 55 182 83 343 83h326v62c0 116 -25 204 -77 264c-51 60 -129 90 -235 90c-179 0 -311 -113 -318 -302l-127 32
c13 236 188 361 439 361c166 0 281 -41 348 -125c67 -83 100 -199 100 -349v-721h-113zM850 246v359h-304c-121 0 -207 -20 -258 -61s-77 -105 -77 -192c0 -82 24 -149 71 -200c48 -50 122 -75 224 -75c99 0 181 18 246 55c66 37 98 75 98 114zM544 -246
c-32 0 -59 26 -59 59c0 32 26 57 59 57c31 0 57 -25 57 -57c0 -33 -25 -59 -57 -59z" />
    <glyph glyph-name="agrave" unicode="&#xe0;" horiz-adv-x="1103" 
d="M867 0l-12 116c-19 -20 -43 -39 -73 -57c-76 -46 -178 -69 -306 -69c-132 0 -231 31 -297 93c-67 61 -100 151 -100 267c0 115 34 199 102 255c68 55 182 83 343 83h326v62c0 116 -25 204 -77 264c-51 60 -129 90 -235 90c-179 0 -311 -113 -318 -302l-127 32
c13 236 188 361 439 361c166 0 281 -41 348 -125c67 -83 100 -199 100 -349v-721h-113zM850 246v359h-304c-121 0 -207 -20 -258 -61s-77 -105 -77 -192c0 -82 24 -149 71 -200c48 -50 122 -75 224 -75c99 0 181 18 246 55c66 37 98 75 98 114zM580 1242l-166 144h103
l136 -144h-73z" />
    <glyph glyph-name="uni1EA3" unicode="&#x1ea3;" horiz-adv-x="1103" 
d="M867 0l-12 116c-19 -20 -43 -39 -73 -57c-76 -46 -178 -69 -306 -69c-132 0 -231 31 -297 93c-67 61 -100 151 -100 267c0 115 34 199 102 255c68 55 182 83 343 83h326v62c0 116 -25 204 -77 264c-51 60 -129 90 -235 90c-179 0 -311 -113 -318 -302l-127 32
c13 236 188 361 439 361c166 0 281 -41 348 -125c67 -83 100 -199 100 -349v-721h-113zM850 246v359h-304c-121 0 -207 -20 -258 -61s-77 -105 -77 -192c0 -82 24 -149 71 -200c48 -50 122 -75 224 -75c99 0 181 18 246 55c66 37 98 75 98 114zM435 1482
c198 0 311 -14 311 -95c0 -71 -121 -91 -188 -91v-61h-55v102c88 0 173 11 173 47c0 44 -83 49 -241 49v49z" />
    <glyph glyph-name="uni0203" unicode="&#x203;" horiz-adv-x="1103" 
d="M867 0l-12 116c-19 -20 -43 -39 -73 -57c-76 -46 -178 -69 -306 -69c-132 0 -231 31 -297 93c-67 61 -100 151 -100 267c0 115 34 199 102 255c68 55 182 83 343 83h326v62c0 116 -25 204 -77 264c-51 60 -129 90 -235 90c-179 0 -311 -113 -318 -302l-127 32
c13 236 188 361 439 361c166 0 281 -41 348 -125c67 -83 100 -199 100 -349v-721h-113zM850 246v359h-304c-121 0 -207 -20 -258 -61s-77 -105 -77 -192c0 -82 24 -149 71 -200c48 -50 122 -75 224 -75c99 0 181 18 246 55c66 37 98 75 98 114zM534 1386
c106 0 170 -66 170 -139h-70c0 47 -30 87 -100 87c-77 0 -100 -40 -100 -87h-71c0 73 58 139 171 139z" />
    <glyph glyph-name="amacron" unicode="&#x101;" horiz-adv-x="1103" 
d="M867 0l-12 116c-19 -20 -43 -39 -73 -57c-76 -46 -178 -69 -306 -69c-132 0 -231 31 -297 93c-67 61 -100 151 -100 267c0 115 34 199 102 255c68 55 182 83 343 83h326v62c0 116 -25 204 -77 264c-51 60 -129 90 -235 90c-179 0 -311 -113 -318 -302l-127 32
c13 236 188 361 439 361c166 0 281 -41 348 -125c67 -83 100 -199 100 -349v-721h-113zM850 246v359h-304c-121 0 -207 -20 -258 -61s-77 -105 -77 -192c0 -82 24 -149 71 -200c48 -50 122 -75 224 -75c99 0 181 18 246 55c66 37 98 75 98 114zM264 1287v55h540v-55h-540z
" />
    <glyph glyph-name="aogonek" unicode="&#x105;" horiz-adv-x="1103" 
d="M867 0l-12 116c-19 -20 -43 -39 -73 -57c-76 -46 -178 -69 -306 -69c-132 0 -231 31 -297 93c-67 61 -100 151 -100 267c0 115 34 199 102 255c68 55 182 83 343 83h326v62c0 116 -25 204 -77 264c-51 60 -129 90 -235 90c-179 0 -311 -113 -318 -302l-127 32
c13 236 188 361 439 361c166 0 281 -41 348 -125c67 -83 100 -199 100 -349v-721c-18 -30 -57 -110 -57 -160c0 -39 23 -60 73 -60c41 0 92 11 111 21l6 -72c-18 -8 -78 -21 -135 -21c-73 0 -135 28 -135 109c0 73 46 153 68 183h-44zM850 605h-304
c-121 0 -207 -20 -258 -61s-77 -105 -77 -192c0 -82 24 -149 71 -200c48 -50 122 -75 224 -75c99 0 181 18 246 55c66 37 98 75 98 114v359z" />
    <glyph glyph-name="aring" unicode="&#xe5;" horiz-adv-x="1103" 
d="M867 0l-12 116c-19 -20 -43 -39 -73 -57c-76 -46 -178 -69 -306 -69c-132 0 -231 31 -297 93c-67 61 -100 151 -100 267c0 115 34 199 102 255c68 55 182 83 343 83h326v62c0 116 -25 204 -77 264c-51 60 -129 90 -235 90c-179 0 -311 -113 -318 -302l-127 32
c13 236 188 361 439 361c166 0 281 -41 348 -125c67 -83 100 -199 100 -349v-721h-113zM850 246v359h-304c-121 0 -207 -20 -258 -61s-77 -105 -77 -192c0 -82 24 -149 71 -200c48 -50 122 -75 224 -75c99 0 181 18 246 55c66 37 98 75 98 114zM534 1220
c-56 0 -98 43 -98 99c0 54 42 98 98 98s97 -44 97 -98c0 -55 -41 -99 -97 -99zM534 1275c24 0 42 19 42 44s-18 43 -42 43s-42 -18 -42 -43s18 -44 42 -44z" />
    <glyph glyph-name="aringacute" unicode="&#x1fb;" horiz-adv-x="1103" 
d="M867 0l-12 116c-19 -20 -43 -39 -73 -57c-76 -46 -178 -69 -306 -69c-132 0 -231 31 -297 93c-67 61 -100 151 -100 267c0 115 34 199 102 255c68 55 182 83 343 83h326v62c0 116 -25 204 -77 264c-51 60 -129 90 -235 90c-179 0 -311 -113 -318 -302l-127 32
c13 236 188 361 439 361c166 0 281 -41 348 -125c67 -83 100 -199 100 -349v-721h-113zM850 246v359h-304c-121 0 -207 -20 -258 -61s-77 -105 -77 -192c0 -82 24 -149 71 -200c48 -50 122 -75 224 -75c99 0 181 18 246 55c66 37 98 75 98 114zM534 1220
c-56 0 -98 43 -98 99c0 54 42 98 98 98s97 -44 97 -98c0 -55 -41 -99 -97 -99zM415 1459l136 144h102l-165 -144h-73zM534 1275c24 0 42 19 42 44s-18 43 -42 43s-42 -18 -42 -43s18 -44 42 -44z" />
    <glyph glyph-name="atilde" unicode="&#xe3;" horiz-adv-x="1103" 
d="M867 0l-12 116c-19 -20 -43 -39 -73 -57c-76 -46 -178 -69 -306 -69c-132 0 -231 31 -297 93c-67 61 -100 151 -100 267c0 115 34 199 102 255c68 55 182 83 343 83h326v62c0 116 -25 204 -77 264c-51 60 -129 90 -235 90c-179 0 -311 -113 -318 -302l-127 32
c13 236 188 361 439 361c166 0 281 -41 348 -125c67 -83 100 -199 100 -349v-721h-113zM850 246v359h-304c-121 0 -207 -20 -258 -61s-77 -105 -77 -192c0 -82 24 -149 71 -200c48 -50 122 -75 224 -75c99 0 181 18 246 55c66 37 98 75 98 114zM634 1273
c-98 0 -119 64 -188 64c-50 0 -74 -31 -75 -52h-71c3 39 35 110 141 110c90 0 103 -64 187 -64c47 0 70 33 72 53h71c-2 -34 -27 -111 -137 -111z" />
    <glyph glyph-name="ae" unicode="&#xe6;" horiz-adv-x="1876" 
d="M447 -10c-125 0 -217 28 -277 83c-61 56 -91 134 -91 235c0 119 30 202 91 250c60 49 162 73 304 73h352v8v92c0 125 -26 220 -76 282c-51 63 -123 94 -218 94c-101 0 -177 -29 -229 -87s-80 -145 -85 -261l-126 32c9 122 47 220 111 293c65 74 175 111 328 111
c146 0 252 -41 317 -124c21 -26 38 -55 52 -87c13 24 27 46 43 66c79 97 197 145 353 145c162 0 280 -48 355 -144c74 -97 112 -247 112 -451c0 -17 -1 -32 -2 -47h-809c5 -153 35 -269 90 -347c61 -84 146 -126 257 -126c179 0 323 117 330 333l118 -35
c-14 -260 -203 -388 -449 -388c-163 0 -283 53 -359 158c-20 28 -37 59 -52 93c-20 -74 -56 -129 -110 -166c-82 -57 -192 -85 -330 -85zM952 639h681c-2 167 -31 286 -89 357c-59 74 -142 111 -247 111c-104 0 -187 -38 -251 -114c-58 -70 -90 -188 -94 -354zM826 375v176
h-315c-112 0 -190 -17 -233 -52s-64 -99 -64 -192c0 -71 20 -128 60 -170c41 -42 111 -63 210 -63c103 0 186 23 249 70c57 43 88 120 93 231z" />
    <glyph glyph-name="aeacute" unicode="&#x1fd;" horiz-adv-x="1876" 
d="M447 -10c-125 0 -217 28 -277 83c-61 56 -91 134 -91 235c0 119 30 202 91 250c60 49 162 73 304 73h352v8v92c0 125 -26 220 -76 282c-51 63 -123 94 -218 94c-101 0 -177 -29 -229 -87s-80 -145 -85 -261l-126 32c9 122 47 220 111 293c65 74 175 111 328 111
c146 0 252 -41 317 -124c21 -26 38 -55 52 -87c13 24 27 46 43 66c79 97 197 145 353 145c162 0 280 -48 355 -144c74 -97 112 -247 112 -451c0 -17 -1 -32 -2 -47h-809c5 -153 35 -269 90 -347c61 -84 146 -126 257 -126c179 0 323 117 330 333l118 -35
c-14 -260 -203 -388 -449 -388c-163 0 -283 53 -359 158c-20 28 -37 59 -52 93c-20 -74 -56 -129 -110 -166c-82 -57 -192 -85 -330 -85zM952 639h681c-2 167 -31 286 -89 357c-59 74 -142 111 -247 111c-104 0 -187 -38 -251 -114c-58 -70 -90 -188 -94 -354zM826 375v176
h-315c-112 0 -190 -17 -233 -52s-64 -99 -64 -192c0 -71 20 -128 60 -170c41 -42 111 -63 210 -63c103 0 186 23 249 70c57 43 88 120 93 231zM787 1228l136 144h102l-165 -144h-73z" />
    <glyph glyph-name="b" unicode="b" horiz-adv-x="1127" 
d="M109 0v1570h130v-536c18 22 41 44 69 65c83 65 186 97 309 97c132 0 233 -48 302 -145c68 -96 103 -249 103 -456c0 -208 -35 -360 -103 -457c-69 -97 -170 -146 -302 -146c-123 0 -226 32 -309 97c-29 23 -53 45 -72 68l-8 -157h-119zM239 835v-482
c4 -65 37 -124 98 -179c67 -59 146 -89 239 -89c97 0 173 37 230 112c56 74 84 206 84 397c0 190 -28 323 -84 397c-57 75 -133 112 -230 112c-93 0 -172 -30 -239 -89c-61 -55 -94 -114 -98 -179z" />
    <glyph glyph-name="c" unicode="c" horiz-adv-x="1084" 
d="M533 -10c-162 0 -281 52 -359 155c-78 104 -117 252 -117 447c0 207 39 360 117 457s197 146 359 146c150 0 259 -43 326 -128s102 -182 107 -292l-118 -35c-1 103 -29 189 -83 258s-131 103 -232 103c-105 0 -188 -38 -250 -115c-62 -76 -93 -208 -93 -394
c0 -173 31 -301 93 -384c63 -83 146 -124 250 -124c101 0 178 37 232 112s82 158 83 248l118 -37c-5 -96 -40 -189 -108 -280c-67 -91 -175 -137 -325 -137z" />
    <glyph glyph-name="cacute" unicode="&#x107;" horiz-adv-x="1084" 
d="M533 -10c-162 0 -281 52 -359 155c-78 104 -117 252 -117 447c0 207 39 360 117 457s197 146 359 146c150 0 259 -43 326 -128s102 -182 107 -292l-118 -35c-1 103 -29 189 -83 258s-131 103 -232 103c-105 0 -188 -38 -250 -115c-62 -76 -93 -208 -93 -394
c0 -173 31 -301 93 -384c63 -83 146 -124 250 -124c101 0 178 37 232 112s82 158 83 248l118 -37c-5 -96 -40 -189 -108 -280c-67 -91 -175 -137 -325 -137zM413 1227l136 143h102l-165 -143h-73z" />
    <glyph glyph-name="ccaron" unicode="&#x10d;" horiz-adv-x="1084" 
d="M533 -10c-162 0 -281 52 -359 155c-78 104 -117 252 -117 447c0 207 39 360 117 457s197 146 359 146c150 0 259 -43 326 -128s102 -182 107 -292l-118 -35c-1 103 -29 189 -83 258s-131 103 -232 103c-105 0 -188 -38 -250 -115c-62 -76 -93 -208 -93 -394
c0 -173 31 -301 93 -384c63 -83 146 -124 250 -124c101 0 178 37 232 112s82 158 83 248l118 -37c-5 -96 -40 -189 -108 -280c-67 -91 -175 -137 -325 -137zM487 1232l-192 161h88l150 -124l149 124h87l-192 -161h-90z" />
    <glyph glyph-name="ccedilla" unicode="&#xe7;" horiz-adv-x="1084" 
d="M573 -265c-47 0 -91 5 -128 14l22 61c26 -7 64 -13 107 -13c73 0 112 20 112 60c0 28 -24 41 -57 41c-30 0 -65 -11 -92 -24l-53 11l32 106c-153 3 -267 55 -342 154c-78 104 -117 252 -117 447c0 207 39 360 117 457s197 146 359 146c150 0 259 -43 326 -128
s102 -182 107 -292l-118 -35c-1 103 -29 189 -83 258s-131 103 -232 103c-105 0 -188 -38 -250 -115c-62 -76 -93 -208 -93 -394c0 -173 31 -301 93 -384c63 -83 146 -124 250 -124c101 0 178 37 232 112s82 158 83 248l118 -37c-5 -96 -40 -189 -108 -280
c-60 -82 -154 -127 -282 -135l-26 -79c25 15 68 27 111 27c61 0 108 -25 108 -83c0 -86 -95 -122 -196 -122z" />
    <glyph glyph-name="uni1E09" unicode="&#x1e09;" horiz-adv-x="1084" 
d="M573 -265c-47 0 -91 5 -128 14l22 61c26 -7 64 -13 107 -13c73 0 112 20 112 60c0 28 -24 41 -57 41c-30 0 -65 -11 -92 -24l-53 11l32 106c-153 3 -267 55 -342 154c-78 104 -117 252 -117 447c0 207 39 360 117 457s197 146 359 146c150 0 259 -43 326 -128
s102 -182 107 -292l-118 -35c-1 103 -29 189 -83 258s-131 103 -232 103c-105 0 -188 -38 -250 -115c-62 -76 -93 -208 -93 -394c0 -173 31 -301 93 -384c63 -83 146 -124 250 -124c101 0 178 37 232 112s82 158 83 248l118 -37c-5 -96 -40 -189 -108 -280
c-60 -82 -154 -127 -282 -135l-26 -79c25 15 68 27 111 27c61 0 108 -25 108 -83c0 -86 -95 -122 -196 -122zM413 1227l136 143h102l-165 -143h-73z" />
    <glyph glyph-name="ccircumflex" unicode="&#x109;" horiz-adv-x="1084" 
d="M533 -10c-162 0 -281 52 -359 155c-78 104 -117 252 -117 447c0 207 39 360 117 457s197 146 359 146c150 0 259 -43 326 -128s102 -182 107 -292l-118 -35c-1 103 -29 189 -83 258s-131 103 -232 103c-105 0 -188 -38 -250 -115c-62 -76 -93 -208 -93 -394
c0 -173 31 -301 93 -384c63 -83 146 -124 250 -124c101 0 178 37 232 112s82 158 83 248l118 -37c-5 -96 -40 -189 -108 -280c-67 -91 -175 -137 -325 -137zM295 1235l192 161h90l192 -161h-87l-150 123l-149 -123h-88z" />
    <glyph glyph-name="cdotaccent" unicode="&#x10b;" horiz-adv-x="1084" 
d="M533 -10c-162 0 -281 52 -359 155c-78 104 -117 252 -117 447c0 207 39 360 117 457s197 146 359 146c150 0 259 -43 326 -128s102 -182 107 -292l-118 -35c-1 103 -29 189 -83 258s-131 103 -232 103c-105 0 -188 -38 -250 -115c-62 -76 -93 -208 -93 -394
c0 -173 31 -301 93 -384c63 -83 146 -124 250 -124c101 0 178 37 232 112s82 158 83 248l118 -37c-5 -96 -40 -189 -108 -280c-67 -91 -175 -137 -325 -137zM533 1251c-33 0 -59 25 -59 58c0 32 26 58 59 58c31 0 57 -26 57 -58s-25 -58 -57 -58z" />
    <glyph glyph-name="d" unicode="d" horiz-adv-x="1100" 
d="M861 0l-6 155c-19 -22 -42 -44 -70 -66c-82 -65 -184 -97 -307 -97c-132 0 -233 48 -303 144s-105 249 -105 459s35 363 105 458c70 96 171 143 303 143c123 0 225 -32 307 -97c27 -21 50 -42 68 -64v535h129v-1570h-121zM853 353v483c-5 64 -37 123 -97 178
c-65 59 -144 89 -237 89c-97 0 -174 -37 -231 -110c-58 -73 -87 -206 -87 -399s29 -326 87 -399c57 -73 134 -110 231 -110c93 0 172 30 237 89c60 55 92 115 97 179z" />
    <glyph glyph-name="eth" unicode="&#xf0;" horiz-adv-x="1123" 
d="M536 -9c-162 0 -278 51 -348 151c-70 101 -105 251 -105 450c0 198 34 348 103 449c68 101 183 151 345 151c129 0 231 -37 306 -113c-51 198 -155 299 -297 349l-49 -97l-74 19l51 98c-53 12 -111 18 -172 21l28 80c67 -4 128 -12 182 -27l32 61l72 -18l-33 -65
c153 -60 251 -178 307 -383c73 -108 104 -265 104 -411l-5 1c4 -36 5 -74 5 -114c0 -202 -35 -353 -105 -452c-70 -100 -186 -150 -347 -150zM536 85c106 0 186 39 241 117c54 78 81 208 81 390s-27 312 -81 391c-55 79 -135 118 -241 118c-107 0 -187 -40 -242 -120
c-54 -80 -81 -210 -81 -389c0 -180 27 -309 81 -388c55 -80 135 -119 242 -119z" />
    <glyph glyph-name="dcaron" unicode="&#x10f;" horiz-adv-x="1177" 
d="M861 0l-6 155c-19 -22 -42 -44 -70 -66c-82 -65 -184 -97 -307 -97c-132 0 -233 48 -303 144s-105 249 -105 459s35 363 105 458c70 96 171 143 303 143c123 0 225 -32 307 -97c27 -21 50 -42 68 -64v535h129v-1570h-121zM853 353v483c-5 64 -37 123 -97 178
c-65 59 -144 89 -237 89c-97 0 -174 -37 -231 -110c-58 -73 -87 -206 -87 -399s29 -326 87 -399c57 -73 134 -110 231 -110c93 0 172 30 237 89c60 55 92 115 97 179zM1053 1306l35 264h93l-44 -264h-84z" />
    <glyph glyph-name="dcroat" unicode="&#x111;" horiz-adv-x="1100" 
d="M533 1365v70h320v135h129v-135h122v-70h-122v-1365h-121l-6 155c-19 -22 -42 -44 -70 -66c-82 -65 -184 -97 -307 -97c-132 0 -233 48 -303 144s-105 249 -105 459s35 363 105 458c70 96 171 143 303 143c123 0 225 -32 307 -97c27 -21 50 -42 68 -64v330h-320zM853 353
v483c-5 64 -37 123 -97 178c-65 59 -144 89 -237 89c-97 0 -174 -37 -231 -110c-58 -73 -87 -206 -87 -399s29 -326 87 -399c57 -73 134 -110 231 -110c93 0 172 30 237 89c60 55 92 115 97 179z" />
    <glyph glyph-name="uni1E0D" unicode="&#x1e0d;" horiz-adv-x="1100" 
d="M861 0l-6 155c-19 -22 -42 -44 -70 -66c-82 -65 -184 -97 -307 -97c-132 0 -233 48 -303 144s-105 249 -105 459s35 363 105 458c70 96 171 143 303 143c123 0 225 -32 307 -97c27 -21 50 -42 68 -64v535h129v-1570h-121zM853 353v483c-5 64 -37 123 -97 178
c-65 59 -144 89 -237 89c-97 0 -174 -37 -231 -110c-58 -73 -87 -206 -87 -399s29 -326 87 -399c57 -73 134 -110 231 -110c93 0 172 30 237 89c60 55 92 115 97 179zM581 -246c-33 0 -59 26 -59 59c0 32 26 57 59 57c31 0 57 -25 57 -57c0 -33 -25 -59 -57 -59z" />
    <glyph glyph-name="uni1E0F" unicode="&#x1e0f;" horiz-adv-x="1100" 
d="M861 0l-6 155c-19 -22 -42 -44 -70 -66c-82 -65 -184 -97 -307 -97c-132 0 -233 48 -303 144s-105 249 -105 459s35 363 105 458c70 96 171 143 303 143c123 0 225 -32 307 -97c27 -21 50 -42 68 -64v535h129v-1570h-121zM853 353v483c-5 64 -37 123 -97 178
c-65 59 -144 89 -237 89c-97 0 -174 -37 -231 -110c-58 -73 -87 -206 -87 -399s29 -326 87 -399c57 -73 134 -110 231 -110c93 0 172 30 237 89c60 55 92 115 97 179zM310 -201v56h540v-56h-540z" />
    <glyph glyph-name="uni01C6" unicode="&#x1c6;" horiz-adv-x="2024" 
d="M861 0l-6 155c-19 -22 -42 -44 -70 -66c-82 -65 -184 -97 -307 -97c-132 0 -233 48 -303 144s-105 249 -105 459s35 363 105 458c70 96 171 143 303 143c123 0 225 -32 307 -97c27 -21 50 -42 68 -64v535h129v-1570h-121zM853 353v483c-5 64 -37 123 -97 178
c-65 59 -144 89 -237 89c-97 0 -174 -37 -231 -110c-58 -73 -87 -206 -87 -399s29 -326 87 -399c57 -73 134 -110 231 -110c93 0 172 30 237 89c60 55 92 115 97 179zM1169 0v96l607 996h-597v93h734v-98l-602 -994h613v-93h-755zM1505 1232l-191 161h87l150 -124l149 124
h87l-192 -161h-90z" />
    <glyph glyph-name="e" unicode="e" horiz-adv-x="1123" 
d="M546 -10c-163 0 -283 53 -359 158c-76 106 -114 254 -114 447c0 206 39 357 118 455c79 97 197 145 353 145c161 0 279 -48 354 -144c75 -97 113 -247 113 -451c0 -17 -1 -32 -2 -47h-809c5 -153 35 -269 90 -347c61 -84 146 -126 256 -126c180 0 324 117 331 333
l117 -35c-13 -260 -203 -388 -448 -388zM200 639h681c-2 167 -31 286 -89 357c-59 74 -142 111 -247 111c-104 0 -188 -38 -251 -114c-58 -70 -90 -188 -94 -354z" />
    <glyph glyph-name="eacute" unicode="&#xe9;" horiz-adv-x="1123" 
d="M546 -10c-163 0 -283 53 -359 158c-76 106 -114 254 -114 447c0 206 39 357 118 455c79 97 197 145 353 145c161 0 279 -48 354 -144c75 -97 113 -247 113 -451c0 -17 -1 -32 -2 -47h-809c5 -153 35 -269 90 -347c61 -84 146 -126 256 -126c180 0 324 117 331 333
l117 -35c-13 -260 -203 -388 -448 -388zM200 639h681c-2 167 -31 286 -89 357c-59 74 -142 111 -247 111c-104 0 -188 -38 -251 -114c-58 -70 -90 -188 -94 -354zM425 1227l136 143h103l-165 -143h-74z" />
    <glyph glyph-name="ebreve" unicode="&#x115;" horiz-adv-x="1123" 
d="M546 -10c-163 0 -283 53 -359 158c-76 106 -114 254 -114 447c0 206 39 357 118 455c79 97 197 145 353 145c161 0 279 -48 354 -144c75 -97 113 -247 113 -451c0 -17 -1 -32 -2 -47h-809c5 -153 35 -269 90 -347c61 -84 146 -126 256 -126c180 0 324 117 331 333
l117 -35c-13 -260 -203 -388 -448 -388zM200 639h681c-2 167 -31 286 -89 357c-59 74 -142 111 -247 111c-104 0 -188 -38 -251 -114c-58 -70 -90 -188 -94 -354zM544 1235c-106 0 -170 65 -170 139h70c0 -48 30 -88 100 -88c77 0 100 41 100 88h71
c0 -74 -58 -139 -171 -139z" />
    <glyph glyph-name="ecaron" unicode="&#x11b;" horiz-adv-x="1123" 
d="M546 -10c-163 0 -283 53 -359 158c-76 106 -114 254 -114 447c0 206 39 357 118 455c79 97 197 145 353 145c161 0 279 -48 354 -144c75 -97 113 -247 113 -451c0 -17 -1 -32 -2 -47h-809c5 -153 35 -269 90 -347c61 -84 146 -126 256 -126c180 0 324 117 331 333
l117 -35c-13 -260 -203 -388 -448 -388zM200 639h681c-2 167 -31 286 -89 357c-59 74 -142 111 -247 111c-104 0 -188 -38 -251 -114c-58 -70 -90 -188 -94 -354zM499 1232l-191 161h87l150 -124l149 124h87l-191 -161h-91z" />
    <glyph glyph-name="uni1E1D" unicode="&#x1e1d;" horiz-adv-x="1123" 
d="M546 80c180 0 324 117 331 333l117 -35c-13 -249 -187 -377 -418 -387l-26 -78c26 15 69 27 112 27c60 0 107 -25 107 -83c0 -86 -95 -122 -196 -122c-47 0 -91 5 -127 14l21 61c27 -7 64 -13 107 -13c74 0 112 20 112 60c0 28 -24 41 -57 41c-29 0 -64 -11 -92 -24
l-52 11l32 106c-149 6 -258 58 -330 157c-76 106 -114 254 -114 447c0 206 39 357 118 455c79 97 197 145 353 145c161 0 279 -48 354 -144c75 -97 113 -247 113 -451c0 -17 -1 -32 -2 -47h-809c5 -153 35 -269 90 -347c61 -84 146 -126 256 -126zM200 639h681
c-2 167 -31 286 -89 357c-59 74 -142 111 -247 111c-104 0 -188 -38 -251 -114c-58 -70 -90 -188 -94 -354zM544 1235c-106 0 -170 65 -170 139h70c0 -48 30 -88 100 -88c77 0 100 41 100 88h71c0 -74 -58 -139 -171 -139z" />
    <glyph glyph-name="ecircumflex" unicode="&#xea;" horiz-adv-x="1123" 
d="M546 -10c-163 0 -283 53 -359 158c-76 106 -114 254 -114 447c0 206 39 357 118 455c79 97 197 145 353 145c161 0 279 -48 354 -144c75 -97 113 -247 113 -451c0 -17 -1 -32 -2 -47h-809c5 -153 35 -269 90 -347c61 -84 146 -126 256 -126c180 0 324 117 331 333
l117 -35c-13 -260 -203 -388 -448 -388zM200 639h681c-2 167 -31 286 -89 357c-59 74 -142 111 -247 111c-104 0 -188 -38 -251 -114c-58 -70 -90 -188 -94 -354zM308 1235l191 161h91l191 -161h-87l-149 123l-150 -123h-87z" />
    <glyph glyph-name="uni1EBF" unicode="&#x1ebf;" horiz-adv-x="1123" 
d="M546 -10c-163 0 -283 53 -359 158c-76 106 -114 254 -114 447c0 206 39 357 118 455c79 97 197 145 353 145c161 0 279 -48 354 -144c75 -97 113 -247 113 -451c0 -17 -1 -32 -2 -47h-809c5 -153 35 -269 90 -347c61 -84 146 -126 256 -126c180 0 324 117 331 333
l117 -35c-13 -260 -203 -388 -448 -388zM200 639h681c-2 167 -31 286 -89 357c-59 74 -142 111 -247 111c-104 0 -188 -38 -251 -114c-58 -70 -90 -188 -94 -354zM308 1235l191 161h91l191 -161h-87l-149 123l-150 -123h-87zM425 1438l136 143h103l-165 -143h-74z" />
    <glyph glyph-name="uni1EC7" unicode="&#x1ec7;" horiz-adv-x="1123" 
d="M546 -10c-163 0 -283 53 -359 158c-76 106 -114 254 -114 447c0 206 39 357 118 455c79 97 197 145 353 145c161 0 279 -48 354 -144c75 -97 113 -247 113 -451c0 -17 -1 -32 -2 -47h-809c5 -153 35 -269 90 -347c61 -84 146 -126 256 -126c180 0 324 117 331 333
l117 -35c-13 -260 -203 -388 -448 -388zM200 639h681c-2 167 -31 286 -89 357c-59 74 -142 111 -247 111c-104 0 -188 -38 -251 -114c-58 -70 -90 -188 -94 -354zM308 1235l191 161h91l191 -161h-87l-149 123l-150 -123h-87zM547 -246c-32 0 -59 26 -59 59c0 32 26 57 59 57
c31 0 57 -25 57 -57c0 -33 -25 -59 -57 -59z" />
    <glyph glyph-name="uni1EC1" unicode="&#x1ec1;" horiz-adv-x="1123" 
d="M546 -10c-163 0 -283 53 -359 158c-76 106 -114 254 -114 447c0 206 39 357 118 455c79 97 197 145 353 145c161 0 279 -48 354 -144c75 -97 113 -247 113 -451c0 -17 -1 -32 -2 -47h-809c5 -153 35 -269 90 -347c61 -84 146 -126 256 -126c180 0 324 117 331 333
l117 -35c-13 -260 -203 -388 -448 -388zM200 639h681c-2 167 -31 286 -89 357c-59 74 -142 111 -247 111c-104 0 -188 -38 -251 -114c-58 -70 -90 -188 -94 -354zM308 1235l191 161h91l191 -161h-87l-149 123l-150 -123h-87zM590 1453l-165 143h103l136 -143h-74z" />
    <glyph glyph-name="uni1EC3" unicode="&#x1ec3;" horiz-adv-x="1123" 
d="M546 -10c-163 0 -283 53 -359 158c-76 106 -114 254 -114 447c0 206 39 357 118 455c79 97 197 145 353 145c161 0 279 -48 354 -144c75 -97 113 -247 113 -451c0 -17 -1 -32 -2 -47h-809c5 -153 35 -269 90 -347c61 -84 146 -126 256 -126c180 0 324 117 331 333
l117 -35c-13 -260 -203 -388 -448 -388zM200 639h681c-2 167 -31 286 -89 357c-59 74 -142 111 -247 111c-104 0 -188 -38 -251 -114c-58 -70 -90 -188 -94 -354zM445 1692c198 0 312 -13 312 -94c0 -72 -121 -92 -188 -92v-60h-55v101c88 0 173 11 173 47
c0 44 -83 50 -242 50v48zM308 1235l191 161h91l191 -161h-87l-149 123l-150 -123h-87z" />
    <glyph glyph-name="uni1EC5" unicode="&#x1ec5;" horiz-adv-x="1123" 
d="M546 -10c-163 0 -283 53 -359 158c-76 106 -114 254 -114 447c0 206 39 357 118 455c79 97 197 145 353 145c161 0 279 -48 354 -144c75 -97 113 -247 113 -451c0 -17 -1 -32 -2 -47h-809c5 -153 35 -269 90 -347c61 -84 146 -126 256 -126c180 0 324 117 331 333
l117 -35c-13 -260 -203 -388 -448 -388zM200 639h681c-2 167 -31 286 -89 357c-59 74 -142 111 -247 111c-104 0 -188 -38 -251 -114c-58 -70 -90 -188 -94 -354zM645 1484c-98 0 -119 64 -188 64c-50 0 -74 -32 -76 -52h-71c4 38 36 109 142 109c89 0 102 -63 187 -63
c47 0 70 32 72 53h70c-2 -34 -27 -111 -136 -111zM308 1235l191 161h91l191 -161h-87l-149 123l-150 -123h-87z" />
    <glyph glyph-name="uni0205" unicode="&#x205;" horiz-adv-x="1123" 
d="M546 -10c-163 0 -283 53 -359 158c-76 106 -114 254 -114 447c0 206 39 357 118 455c79 97 197 145 353 145c161 0 279 -48 354 -144c75 -97 113 -247 113 -451c0 -17 -1 -32 -2 -47h-809c5 -153 35 -269 90 -347c61 -84 146 -126 256 -126c180 0 324 117 331 333
l117 -35c-13 -260 -203 -388 -448 -388zM200 639h681c-2 167 -31 286 -89 357c-59 74 -142 111 -247 111c-104 0 -188 -38 -251 -114c-58 -70 -90 -188 -94 -354zM488 1246l-165 143h103l136 -143h-74zM691 1246l-165 143h103l136 -143h-74z" />
    <glyph glyph-name="edieresis" unicode="&#xeb;" horiz-adv-x="1123" 
d="M546 -10c-163 0 -283 53 -359 158c-76 106 -114 254 -114 447c0 206 39 357 118 455c79 97 197 145 353 145c161 0 279 -48 354 -144c75 -97 113 -247 113 -451c0 -17 -1 -32 -2 -47h-809c5 -153 35 -269 90 -347c61 -84 146 -126 256 -126c180 0 324 117 331 333
l117 -35c-13 -260 -203 -388 -448 -388zM200 639h681c-2 167 -31 286 -89 357c-59 74 -142 111 -247 111c-104 0 -188 -38 -251 -114c-58 -70 -90 -188 -94 -354zM413 1256c-32 0 -58 25 -58 57s26 58 58 58s58 -26 58 -58s-26 -57 -58 -57zM676 1256c-33 0 -58 25 -58 57
s25 58 58 58c32 0 57 -26 57 -58s-25 -57 -57 -57z" />
    <glyph glyph-name="edotaccent" unicode="&#x117;" horiz-adv-x="1123" 
d="M546 -10c-163 0 -283 53 -359 158c-76 106 -114 254 -114 447c0 206 39 357 118 455c79 97 197 145 353 145c161 0 279 -48 354 -144c75 -97 113 -247 113 -451c0 -17 -1 -32 -2 -47h-809c5 -153 35 -269 90 -347c61 -84 146 -126 256 -126c180 0 324 117 331 333
l117 -35c-13 -260 -203 -388 -448 -388zM200 639h681c-2 167 -31 286 -89 357c-59 74 -142 111 -247 111c-104 0 -188 -38 -251 -114c-58 -70 -90 -188 -94 -354zM545 1251c-32 0 -58 25 -58 58c0 32 25 58 58 58c31 0 58 -26 58 -58s-26 -58 -58 -58z" />
    <glyph glyph-name="uni1EB9" unicode="&#x1eb9;" horiz-adv-x="1123" 
d="M546 -10c-163 0 -283 53 -359 158c-76 106 -114 254 -114 447c0 206 39 357 118 455c79 97 197 145 353 145c161 0 279 -48 354 -144c75 -97 113 -247 113 -451c0 -17 -1 -32 -2 -47h-809c5 -153 35 -269 90 -347c61 -84 146 -126 256 -126c180 0 324 117 331 333
l117 -35c-13 -260 -203 -388 -448 -388zM200 639h681c-2 167 -31 286 -89 357c-59 74 -142 111 -247 111c-104 0 -188 -38 -251 -114c-58 -70 -90 -188 -94 -354zM547 -246c-32 0 -59 26 -59 59c0 32 26 57 59 57c31 0 57 -25 57 -57c0 -33 -25 -59 -57 -59z" />
    <glyph glyph-name="egrave" unicode="&#xe8;" horiz-adv-x="1123" 
d="M546 -10c-163 0 -283 53 -359 158c-76 106 -114 254 -114 447c0 206 39 357 118 455c79 97 197 145 353 145c161 0 279 -48 354 -144c75 -97 113 -247 113 -451c0 -17 -1 -32 -2 -47h-809c5 -153 35 -269 90 -347c61 -84 146 -126 256 -126c180 0 324 117 331 333
l117 -35c-13 -260 -203 -388 -448 -388zM200 639h681c-2 167 -31 286 -89 357c-59 74 -142 111 -247 111c-104 0 -188 -38 -251 -114c-58 -70 -90 -188 -94 -354zM590 1242l-165 143h103l136 -143h-74z" />
    <glyph glyph-name="uni1EBB" unicode="&#x1ebb;" horiz-adv-x="1123" 
d="M546 -10c-163 0 -283 53 -359 158c-76 106 -114 254 -114 447c0 206 39 357 118 455c79 97 197 145 353 145c161 0 279 -48 354 -144c75 -97 113 -247 113 -451c0 -17 -1 -32 -2 -47h-809c5 -153 35 -269 90 -347c61 -84 146 -126 256 -126c180 0 324 117 331 333
l117 -35c-13 -260 -203 -388 -448 -388zM200 639h681c-2 167 -31 286 -89 357c-59 74 -142 111 -247 111c-104 0 -188 -38 -251 -114c-58 -70 -90 -188 -94 -354zM445 1481c198 0 312 -13 312 -94c0 -72 -121 -92 -188 -92v-60h-55v101c88 0 173 11 173 47
c0 44 -83 50 -242 50v48z" />
    <glyph glyph-name="uni0207" unicode="&#x207;" horiz-adv-x="1123" 
d="M546 -10c-163 0 -283 53 -359 158c-76 106 -114 254 -114 447c0 206 39 357 118 455c79 97 197 145 353 145c161 0 279 -48 354 -144c75 -97 113 -247 113 -451c0 -17 -1 -32 -2 -47h-809c5 -153 35 -269 90 -347c61 -84 146 -126 256 -126c180 0 324 117 331 333
l117 -35c-13 -260 -203 -388 -448 -388zM200 639h681c-2 167 -31 286 -89 357c-59 74 -142 111 -247 111c-104 0 -188 -38 -251 -114c-58 -70 -90 -188 -94 -354zM545 1386c105 0 170 -66 170 -140h-70c0 48 -30 88 -100 88c-77 0 -101 -41 -101 -88h-70
c0 74 58 140 171 140z" />
    <glyph glyph-name="emacron" unicode="&#x113;" horiz-adv-x="1123" 
d="M546 -10c-163 0 -283 53 -359 158c-76 106 -114 254 -114 447c0 206 39 357 118 455c79 97 197 145 353 145c161 0 279 -48 354 -144c75 -97 113 -247 113 -451c0 -17 -1 -32 -2 -47h-809c5 -153 35 -269 90 -347c61 -84 146 -126 256 -126c180 0 324 117 331 333
l117 -35c-13 -260 -203 -388 -448 -388zM200 639h681c-2 167 -31 286 -89 357c-59 74 -142 111 -247 111c-104 0 -188 -38 -251 -114c-58 -70 -90 -188 -94 -354zM275 1287v55h539v-55h-539z" />
    <glyph glyph-name="uni1E17" unicode="&#x1e17;" horiz-adv-x="1123" 
d="M546 -10c-163 0 -283 53 -359 158c-76 106 -114 254 -114 447c0 206 39 357 118 455c79 97 197 145 353 145c161 0 279 -48 354 -144c75 -97 113 -247 113 -451c0 -17 -1 -32 -2 -47h-809c5 -153 35 -269 90 -347c61 -84 146 -126 256 -126c180 0 324 117 331 333
l117 -35c-13 -260 -203 -388 -448 -388zM200 639h681c-2 167 -31 286 -89 357c-59 74 -142 111 -247 111c-104 0 -188 -38 -251 -114c-58 -70 -90 -188 -94 -354zM275 1287v55h539v-55h-539zM425 1384l136 144h103l-165 -144h-74z" />
    <glyph glyph-name="uni1E15" unicode="&#x1e15;" horiz-adv-x="1123" 
d="M546 -10c-163 0 -283 53 -359 158c-76 106 -114 254 -114 447c0 206 39 357 118 455c79 97 197 145 353 145c161 0 279 -48 354 -144c75 -97 113 -247 113 -451c0 -17 -1 -32 -2 -47h-809c5 -153 35 -269 90 -347c61 -84 146 -126 256 -126c180 0 324 117 331 333
l117 -35c-13 -260 -203 -388 -448 -388zM200 639h681c-2 167 -31 286 -89 357c-59 74 -142 111 -247 111c-104 0 -188 -38 -251 -114c-58 -70 -90 -188 -94 -354zM275 1287v55h539v-55h-539zM590 1399l-165 144h103l136 -144h-74z" />
    <glyph glyph-name="eogonek" unicode="&#x119;" horiz-adv-x="1123" 
d="M546 80c180 0 324 117 331 333l117 -35c-13 -259 -201 -387 -445 -388c-20 -35 -52 -105 -52 -150c0 -39 23 -60 73 -60c41 0 92 11 112 21l5 -72c-18 -8 -78 -21 -135 -21c-72 0 -135 28 -135 109c0 68 40 142 63 176c-130 13 -227 65 -293 155
c-76 106 -114 254 -114 447c0 206 39 357 118 455c79 97 197 145 353 145c161 0 279 -48 354 -144c75 -97 113 -247 113 -451c0 -17 -1 -32 -2 -47h-809c5 -153 35 -269 90 -347c61 -84 146 -126 256 -126zM200 639h681c-2 167 -31 286 -89 357c-59 74 -142 111 -247 111
c-104 0 -188 -38 -251 -114c-58 -70 -90 -188 -94 -354z" />
    <glyph glyph-name="uni1EBD" unicode="&#x1ebd;" horiz-adv-x="1123" 
d="M546 -10c-163 0 -283 53 -359 158c-76 106 -114 254 -114 447c0 206 39 357 118 455c79 97 197 145 353 145c161 0 279 -48 354 -144c75 -97 113 -247 113 -451c0 -17 -1 -32 -2 -47h-809c5 -153 35 -269 90 -347c61 -84 146 -126 256 -126c180 0 324 117 331 333
l117 -35c-13 -260 -203 -388 -448 -388zM200 639h681c-2 167 -31 286 -89 357c-59 74 -142 111 -247 111c-104 0 -188 -38 -251 -114c-58 -70 -90 -188 -94 -354zM645 1273c-98 0 -119 64 -188 64c-50 0 -74 -32 -76 -52h-71c4 38 36 109 142 109c89 0 102 -63 187 -63
c47 0 70 32 72 53h70c-2 -34 -27 -111 -136 -111z" />
    <glyph glyph-name="uni0259" unicode="&#x259;" horiz-adv-x="1123" 
d="M577 1106c-179 0 -323 -116 -330 -332l-118 34c14 260 203 388 448 388c164 0 283 -53 359 -158c76 -106 114 -254 114 -447c0 -206 -39 -357 -118 -455c-79 -97 -196 -145 -353 -145c-161 0 -279 48 -354 144c-75 97 -112 247 -112 451c0 17 0 33 2 47h808
c-4 153 -34 269 -90 347c-60 84 -146 126 -256 126zM924 547h-682c2 -167 32 -286 89 -357c60 -74 142 -111 248 -111c103 0 187 38 250 114c59 70 90 188 95 354z" />
    <glyph glyph-name="f" unicode="f" horiz-adv-x="886" 
d="M275 0v1092h-242v93h243l-1 90c0 103 42 179 125 228s213 74 388 74h47v-90h-46c-136 0 -235 -17 -295 -50c-60 -34 -90 -88 -90 -164v-88h349v-93h-349v-1092h-129z" />
    <glyph glyph-name="g" unicode="g" horiz-adv-x="1119" 
d="M525 -461c-279 0 -431 118 -431 376h128c0 -196 124 -289 303 -289s328 98 328 373v154c-18 -21 -41 -43 -68 -64c-82 -65 -184 -97 -307 -97c-132 0 -233 48 -303 144s-105 249 -105 459s35 363 105 458c70 96 171 143 303 143c123 0 225 -32 307 -97
c28 -22 52 -44 70 -67l3 153h125v-1185c0 -339 -181 -461 -458 -461zM853 832c-4 65 -36 126 -97 182c-65 59 -144 89 -237 89c-97 0 -174 -37 -231 -110c-58 -73 -87 -206 -87 -399s29 -326 87 -399c57 -73 134 -110 231 -110c93 0 172 30 237 89c61 56 93 117 97 183v475z
" />
    <glyph glyph-name="gbreve" unicode="&#x11f;" horiz-adv-x="1119" 
d="M525 -461c-279 0 -431 118 -431 376h128c0 -196 124 -289 303 -289s328 98 328 373v154c-18 -21 -41 -43 -68 -64c-82 -65 -184 -97 -307 -97c-132 0 -233 48 -303 144s-105 249 -105 459s35 363 105 458c70 96 171 143 303 143c123 0 225 -32 307 -97
c28 -22 52 -44 70 -67l3 153h125v-1185c0 -339 -181 -461 -458 -461zM853 832c-4 65 -36 126 -97 182c-65 59 -144 89 -237 89c-97 0 -174 -37 -231 -110c-58 -73 -87 -206 -87 -399s29 -326 87 -399c57 -73 134 -110 231 -110c93 0 172 30 237 89c61 56 93 117 97 183v475z
M543 1235c-106 0 -170 65 -170 139h70c0 -48 30 -88 100 -88c77 0 100 41 100 88h71c0 -74 -58 -139 -171 -139z" />
    <glyph glyph-name="gcaron" unicode="&#x1e7;" horiz-adv-x="1119" 
d="M525 -461c-279 0 -431 118 -431 376h128c0 -196 124 -289 303 -289s328 98 328 373v154c-18 -21 -41 -43 -68 -64c-82 -65 -184 -97 -307 -97c-132 0 -233 48 -303 144s-105 249 -105 459s35 363 105 458c70 96 171 143 303 143c123 0 225 -32 307 -97
c28 -22 52 -44 70 -67l3 153h125v-1185c0 -339 -181 -461 -458 -461zM853 832c-4 65 -36 126 -97 182c-65 59 -144 89 -237 89c-97 0 -174 -37 -231 -110c-58 -73 -87 -206 -87 -399s29 -326 87 -399c57 -73 134 -110 231 -110c93 0 172 30 237 89c61 56 93 117 97 183v475z
M498 1232l-191 161h87l150 -124l149 124h87l-191 -161h-91z" />
    <glyph glyph-name="gcircumflex" unicode="&#x11d;" horiz-adv-x="1119" 
d="M525 -461c-279 0 -431 118 -431 376h128c0 -196 124 -289 303 -289s328 98 328 373v154c-18 -21 -41 -43 -68 -64c-82 -65 -184 -97 -307 -97c-132 0 -233 48 -303 144s-105 249 -105 459s35 363 105 458c70 96 171 143 303 143c123 0 225 -32 307 -97
c28 -22 52 -44 70 -67l3 153h125v-1185c0 -339 -181 -461 -458 -461zM853 832c-4 65 -36 126 -97 182c-65 59 -144 89 -237 89c-97 0 -174 -37 -231 -110c-58 -73 -87 -206 -87 -399s29 -326 87 -399c57 -73 134 -110 231 -110c93 0 172 30 237 89c61 56 93 117 97 183v475z
M307 1235l191 161h91l191 -161h-87l-149 123l-150 -123h-87z" />
    <glyph glyph-name="uni0123" unicode="&#x123;" horiz-adv-x="1119" 
d="M525 -461c-279 0 -431 118 -431 376h128c0 -196 124 -289 303 -289s328 98 328 373v154c-18 -21 -41 -43 -68 -64c-82 -65 -184 -97 -307 -97c-132 0 -233 48 -303 144s-105 249 -105 459s35 363 105 458c70 96 171 143 303 143c123 0 225 -32 307 -97
c28 -22 52 -44 70 -67l3 153h125v-1185c0 -339 -181 -461 -458 -461zM853 832c-4 65 -36 126 -97 182c-65 59 -144 89 -237 89c-97 0 -174 -37 -231 -110c-58 -73 -87 -206 -87 -399s29 -326 87 -399c57 -73 134 -110 231 -110c93 0 172 30 237 89c61 56 93 117 97 183v475z
M653 1489l-100 -261h-97l138 261h59z" />
    <glyph glyph-name="gdotaccent" unicode="&#x121;" horiz-adv-x="1119" 
d="M525 -461c-279 0 -431 118 -431 376h128c0 -196 124 -289 303 -289s328 98 328 373v154c-18 -21 -41 -43 -68 -64c-82 -65 -184 -97 -307 -97c-132 0 -233 48 -303 144s-105 249 -105 459s35 363 105 458c70 96 171 143 303 143c123 0 225 -32 307 -97
c28 -22 52 -44 70 -67l3 153h125v-1185c0 -339 -181 -461 -458 -461zM853 832c-4 65 -36 126 -97 182c-65 59 -144 89 -237 89c-97 0 -174 -37 -231 -110c-58 -73 -87 -206 -87 -399s29 -326 87 -399c57 -73 134 -110 231 -110c93 0 172 30 237 89c61 56 93 117 97 183v475z
M544 1251c-32 0 -58 25 -58 58c0 32 25 58 58 58c31 0 58 -26 58 -58s-26 -58 -58 -58z" />
    <glyph glyph-name="uni1E21" unicode="&#x1e21;" horiz-adv-x="1119" 
d="M525 -461c-279 0 -431 118 -431 376h128c0 -196 124 -289 303 -289s328 98 328 373v154c-18 -21 -41 -43 -68 -64c-82 -65 -184 -97 -307 -97c-132 0 -233 48 -303 144s-105 249 -105 459s35 363 105 458c70 96 171 143 303 143c123 0 225 -32 307 -97
c28 -22 52 -44 70 -67l3 153h125v-1185c0 -339 -181 -461 -458 -461zM853 832c-4 65 -36 126 -97 182c-65 59 -144 89 -237 89c-97 0 -174 -37 -231 -110c-58 -73 -87 -206 -87 -399s29 -326 87 -399c57 -73 134 -110 231 -110c93 0 172 30 237 89c61 56 93 117 97 183v475z
M274 1287v55h539v-55h-539z" />
    <glyph glyph-name="h" unicode="h" horiz-adv-x="1088" 
d="M109 0v1570h130v-552c15 21 33 42 53 63c79 77 180 116 306 116c129 0 223 -42 281 -127c59 -85 88 -206 88 -364v-706h-129v703c0 141 -24 243 -73 306c-48 63 -118 95 -211 95c-91 0 -167 -32 -227 -97c-51 -54 -81 -120 -88 -197v-810h-130z" />
    <glyph glyph-name="hbar" unicode="&#x127;" horiz-adv-x="1008" 
d="M-4 1365v70h109v135h130v-135h333v-70h-333v-347c15 21 33 42 53 63c78 77 180 116 306 116c129 0 223 -42 281 -127c59 -85 88 -206 88 -364v-706h-129v703c0 141 -24 243 -73 306c-48 63 -118 95 -211 95c-91 0 -167 -32 -227 -97c-51 -54 -81 -120 -88 -197v-810h-130
v1365h-109z" />
    <glyph glyph-name="uni1E2B" unicode="&#x1e2b;" horiz-adv-x="1088" 
d="M109 0v1570h130v-552c15 21 33 42 53 63c79 77 180 116 306 116c129 0 223 -42 281 -127c59 -85 88 -206 88 -364v-706h-129v703c0 141 -24 243 -73 306c-48 63 -118 95 -211 95c-91 0 -167 -32 -227 -97c-51 -54 -81 -120 -88 -197v-810h-130zM556 -264
c-106 0 -170 65 -170 139h70c0 -48 29 -88 100 -88c77 0 100 41 100 88h71c0 -74 -59 -139 -171 -139z" />
    <glyph glyph-name="hcircumflex" unicode="&#x125;" horiz-adv-x="1088" 
d="M109 0v1570h130v-552c15 21 33 42 53 63c79 77 180 116 306 116c129 0 223 -42 281 -127c59 -85 88 -206 88 -364v-706h-129v703c0 141 -24 243 -73 306c-48 63 -118 95 -211 95c-91 0 -167 -32 -227 -97c-51 -54 -81 -120 -88 -197v-810h-130zM327 1541l192 161h90
l192 -161h-88l-149 124l-150 -124h-87z" />
    <glyph glyph-name="uni1E25" unicode="&#x1e25;" horiz-adv-x="1088" 
d="M109 0v1570h130v-552c15 21 33 42 53 63c79 77 180 116 306 116c129 0 223 -42 281 -127c59 -85 88 -206 88 -364v-706h-129v703c0 141 -24 243 -73 306c-48 63 -118 95 -211 95c-91 0 -167 -32 -227 -97c-51 -54 -81 -120 -88 -197v-810h-130zM557 -246
c-32 0 -59 26 -59 59c0 32 26 57 59 57c31 0 57 -25 57 -57c0 -33 -25 -59 -57 -59z" />
    <glyph glyph-name="i" unicode="i" horiz-adv-x="438" 
d="M140 0v1186h130v-1186h-130zM140 1492h130v-149h-130v149z" />
    <glyph glyph-name="dotlessi" unicode="&#x131;" horiz-adv-x="395" 
d="M111 0v1186h130v-1186h-130z" />
    <glyph glyph-name="iacute" unicode="&#xed;" horiz-adv-x="395" 
d="M111 0v1186h130v-1186h-130zM56 1227l136 143h103l-165 -143h-74z" />
    <glyph glyph-name="ibreve" unicode="&#x12d;" horiz-adv-x="395" 
d="M111 0v1186h130v-1186h-130zM175 1235c-106 0 -170 65 -170 139h70c0 -48 30 -88 100 -88c77 0 100 41 100 88h71c0 -74 -58 -139 -171 -139z" />
    <glyph glyph-name="uni01D0" unicode="&#x1d0;" horiz-adv-x="395" 
d="M111 0v1186h130v-1186h-130zM130 1232l-191 161h87l150 -124l149 124h87l-191 -161h-91z" />
    <glyph glyph-name="icircumflex" unicode="&#xee;" horiz-adv-x="395" 
d="M111 0v1186h130v-1186h-130zM-61 1235l191 161h91l191 -161h-87l-149 123l-150 -123h-87z" />
    <glyph glyph-name="uni0209" unicode="&#x209;" horiz-adv-x="395" 
d="M111 0v1186h130v-1186h-130zM119 1246l-165 143h103l136 -143h-74zM322 1246l-165 143h103l136 -143h-74z" />
    <glyph glyph-name="idieresis" unicode="&#xef;" horiz-adv-x="395" 
d="M111 0v1186h130v-1186h-130zM44 1256c-32 0 -58 25 -58 57s26 58 58 58s58 -26 58 -58s-26 -57 -58 -57zM307 1256c-33 0 -58 25 -58 57s25 58 58 58c32 0 57 -26 57 -58s-25 -57 -57 -57z" />
    <glyph glyph-name="uni1E2F" unicode="&#x1e2f;" horiz-adv-x="395" 
d="M111 0v1186h130v-1186h-130zM56 1413l136 144h103l-165 -144h-74zM44 1256c-32 0 -58 25 -58 57s26 58 58 58s58 -26 58 -58s-26 -57 -58 -57zM307 1256c-33 0 -58 25 -58 57s25 58 58 58c32 0 57 -26 57 -58s-25 -57 -57 -57z" />
    <glyph glyph-name="i.loclTRK" horiz-adv-x="395" 
d="M111 0v1186h130v-1186h-130zM176 1251c-32 0 -58 25 -58 58c0 32 25 58 58 58c31 0 58 -26 58 -58s-26 -58 -58 -58z" />
    <glyph glyph-name="uni1ECB" unicode="&#x1ecb;" horiz-adv-x="438" 
d="M140 0v1186h130v-1186h-130zM140 1492h130v-149h-130v149zM211 -246c-32 0 -58 26 -58 59c0 32 25 57 58 57c31 0 58 -25 58 -57c0 -33 -26 -59 -58 -59z" />
    <glyph glyph-name="igrave" unicode="&#xec;" horiz-adv-x="395" 
d="M111 0v1186h130v-1186h-130zM221 1242l-165 143h103l136 -143h-74z" />
    <glyph glyph-name="uni1EC9" unicode="&#x1ec9;" horiz-adv-x="395" 
d="M111 0v1186h130v-1186h-130zM76 1481c198 0 312 -13 312 -94c0 -72 -121 -92 -188 -92v-60h-55v101c88 0 173 11 173 47c0 44 -83 50 -242 50v48z" />
    <glyph glyph-name="uni020B" unicode="&#x20b;" horiz-adv-x="395" 
d="M111 0v1186h130v-1186h-130zM176 1386c105 0 170 -66 170 -140h-70c0 48 -30 88 -100 88c-77 0 -101 -41 -101 -88h-70c0 74 58 140 171 140z" />
    <glyph glyph-name="imacron" unicode="&#x12b;" horiz-adv-x="395" 
d="M111 0v1186h130v-1186h-130zM-13 1287v55h463v-55h-463z" />
    <glyph glyph-name="iogonek" unicode="&#x12f;" horiz-adv-x="395" 
d="M111 0v1186h130v-1186c-19 -30 -58 -110 -58 -160c0 -39 23 -60 74 -60c40 0 91 11 111 21l5 -72c-18 -8 -78 -21 -135 -21c-72 0 -135 28 -135 109c0 73 47 153 68 183h-60zM111 1492h129v-149h-129v149z" />
    <glyph glyph-name="itilde" unicode="&#x129;" horiz-adv-x="395" 
d="M111 0v1186h130v-1186h-130zM276 1273c-98 0 -119 64 -188 64c-50 0 -74 -32 -76 -52h-71c4 38 36 109 142 109c89 0 102 -63 187 -63c47 0 70 32 72 53h70c-2 -34 -27 -111 -136 -111z" />
    <glyph glyph-name="j" unicode="j" horiz-adv-x="449" 
d="M-129 -459v92c90 0 159 23 208 68c49 44 73 124 73 240v1245h129v-1241c0 -153 -35 -258 -104 -317c-70 -58 -172 -87 -306 -87zM152 1492h130v-149h-130v149z" />
    <glyph glyph-name="uni0237" unicode="&#x237;" horiz-adv-x="449" 
d="M-129 -459v92c90 0 159 23 208 68c49 44 73 124 73 240v1245h129v-1241c0 -153 -35 -258 -104 -317c-70 -58 -172 -87 -306 -87z" />
    <glyph glyph-name="jcircumflex" unicode="&#x135;" horiz-adv-x="449" 
d="M-129 -459v92c90 0 159 23 208 68c49 44 73 124 73 240v1245h129v-1241c0 -153 -35 -258 -104 -317c-70 -58 -172 -87 -306 -87zM-18 1236l191 161h91l191 -161h-87l-149 123l-150 -123h-87z" />
    <glyph glyph-name="k" unicode="k" horiz-adv-x="1041" 
d="M109 0v1570h130v-968l554 584h154l-403 -433l423 -753h-141l-372 666l-215 -227v-439h-130z" />
    <glyph glyph-name="uni0137" unicode="&#x137;" horiz-adv-x="1041" 
d="M109 0v1570h130v-968l554 584h154l-403 -433l423 -753h-141l-372 666l-215 -227v-439h-130zM435 -294l95 227h93l-132 -227h-56z" />
    <glyph glyph-name="kgreenlandic" unicode="&#x138;" horiz-adv-x="1053" 
d="M105 0v1186h130v-572l592 572h154l-623 -593l626 -593h-154l-595 572v-572h-130z" />
    <glyph glyph-name="l" unicode="l" horiz-adv-x="405" 
d="M133 0v1570h129v-1570h-129z" />
    <glyph glyph-name="l.ss01" horiz-adv-x="617" 
d="M396 -11c-85 0 -152 18 -201 56c-49 37 -73 103 -73 200v1325h129v-1297c0 -78 15 -130 45 -157s74 -41 132 -40c46 0 95 4 145 12v-87c-62 -8 -121 -12 -177 -12z" />
    <glyph glyph-name="lacute" unicode="&#x13a;" horiz-adv-x="405" 
d="M133 0v1570h129v-1570h-129zM79 1612l136 144h103l-165 -144h-74z" />
    <glyph glyph-name="lcaron" unicode="&#x13e;" horiz-adv-x="405" 
d="M133 0v1570h129v-1570h-129zM153 1618l-192 161h88l150 -124l149 124h87l-192 -161h-90z" />
    <glyph glyph-name="uni013C" unicode="&#x13c;" horiz-adv-x="405" 
d="M133 0v1570h129v-1570h-129zM95 -294l96 227h93l-132 -227h-57z" />
    <glyph glyph-name="ldot" unicode="&#x140;" horiz-adv-x="516" 
d="M133 0v1570h129v-1570h-129zM337 788h123v-153h-123v153z" />
    <glyph glyph-name="uni1E37" unicode="&#x1e37;" horiz-adv-x="405" 
d="M133 0v1570h129v-1570h-129zM200 -246c-32 0 -58 26 -58 59c0 32 25 57 58 57c31 0 58 -25 58 -57c0 -33 -26 -59 -58 -59z" />
    <glyph glyph-name="uni01C9" unicode="&#x1c9;" horiz-adv-x="854" 
d="M276 -459v92c90 0 159 23 208 68c49 44 73 124 73 240v1245h129v-1241c0 -153 -35 -258 -105 -317c-69 -58 -171 -87 -305 -87zM133 0v1570h129v-1570h-129zM557 1492h129v-149h-129v149z" />
    <glyph glyph-name="uni1E3B" unicode="&#x1e3b;" horiz-adv-x="405" 
d="M133 0v1570h129v-1570h-129zM-70 -201v56h539v-56h-539z" />
    <glyph glyph-name="lslash" unicode="&#x142;" horiz-adv-x="414" 
d="M6 462v112l124 108v888h130v-774l127 112v-112l-127 -112v-684h-130v570z" />
    <glyph glyph-name="m" unicode="m" horiz-adv-x="1639" 
d="M109 0v1185h124l4 -164c13 19 26 37 42 53c73 81 166 122 277 122c123 0 208 -41 254 -124c16 -30 30 -63 41 -100c17 37 40 70 68 102c74 81 166 122 277 122c123 0 207 -41 253 -123s69 -190 69 -324v-749h-129v736c0 119 -18 210 -54 273c-35 62 -95 93 -178 93
c-84 0 -151 -33 -202 -100c-47 -61 -72 -141 -76 -240v-13v-749h-129v736c0 119 -18 210 -54 273c-36 62 -96 93 -180 93c-83 0 -150 -33 -201 -100c-46 -59 -71 -137 -76 -232v-770h-130z" />
    <glyph glyph-name="uni1E43" unicode="&#x1e43;" horiz-adv-x="1639" 
d="M109 0v1185h124l4 -164c13 19 26 37 42 53c73 81 166 122 277 122c123 0 208 -41 254 -124c16 -30 30 -63 41 -100c17 37 40 70 68 102c74 81 166 122 277 122c123 0 207 -41 253 -123s69 -190 69 -324v-749h-129v736c0 119 -18 210 -54 273c-35 62 -95 93 -178 93
c-84 0 -151 -33 -202 -100c-47 -61 -72 -141 -76 -240v-13v-749h-129v736c0 119 -18 210 -54 273c-36 62 -96 93 -180 93c-83 0 -150 -33 -201 -100c-46 -59 -71 -137 -76 -232v-770h-130zM829 -246c-33 0 -59 26 -59 59c0 32 26 57 59 57c31 0 57 -25 57 -57
c0 -33 -25 -59 -57 -59z" />
    <glyph glyph-name="n" unicode="n" horiz-adv-x="1086" 
d="M109 0v1185h124l3 -167c16 21 34 42 54 63c79 77 180 116 306 116c129 0 223 -42 281 -127c59 -85 88 -206 88 -364v-706h-129v703c0 141 -24 243 -73 306c-48 63 -118 95 -211 95c-91 0 -167 -32 -227 -97c-48 -51 -77 -112 -87 -182v-825h-129z" />
    <glyph glyph-name="nacute" unicode="&#x144;" horiz-adv-x="1086" 
d="M109 0v1185h124l3 -167c16 21 34 42 54 63c79 77 180 116 306 116c129 0 223 -42 281 -127c59 -85 88 -206 88 -364v-706h-129v703c0 141 -24 243 -73 306c-48 63 -118 95 -211 95c-91 0 -167 -32 -227 -97c-48 -51 -77 -112 -87 -182v-825h-129zM411 1227l136 143h103
l-165 -143h-74z" />
    <glyph glyph-name="ncaron" unicode="&#x148;" horiz-adv-x="1086" 
d="M109 0v1185h124l3 -167c16 21 34 42 54 63c79 77 180 116 306 116c129 0 223 -42 281 -127c59 -85 88 -206 88 -364v-706h-129v703c0 141 -24 243 -73 306c-48 63 -118 95 -211 95c-91 0 -167 -32 -227 -97c-48 -51 -77 -112 -87 -182v-825h-129zM486 1232l-192 161h87
l151 -124l148 124h88l-192 -161h-90z" />
    <glyph glyph-name="uni0146" unicode="&#x146;" horiz-adv-x="1086" 
d="M109 0v1185h124l3 -167c16 21 34 42 54 63c79 77 180 116 306 116c129 0 223 -42 281 -127c59 -85 88 -206 88 -364v-706h-129v703c0 141 -24 243 -73 306c-48 63 -118 95 -211 95c-91 0 -167 -32 -227 -97c-48 -51 -77 -112 -87 -182v-825h-129zM426 -294l96 227h93
l-132 -227h-57z" />
    <glyph glyph-name="uni1E45" unicode="&#x1e45;" horiz-adv-x="1086" 
d="M109 0v1185h124l3 -167c16 21 34 42 54 63c79 77 180 116 306 116c129 0 223 -42 281 -127c59 -85 88 -206 88 -364v-706h-129v703c0 141 -24 243 -73 306c-48 63 -118 95 -211 95c-91 0 -167 -32 -227 -97c-48 -51 -77 -112 -87 -182v-825h-129zM532 1251
c-33 0 -59 25 -59 58c0 32 25 58 59 58c31 0 57 -26 57 -58s-26 -58 -57 -58z" />
    <glyph glyph-name="uni1E47" unicode="&#x1e47;" horiz-adv-x="1086" 
d="M109 0v1185h124l3 -167c16 21 34 42 54 63c79 77 180 116 306 116c129 0 223 -42 281 -127c59 -85 88 -206 88 -364v-706h-129v703c0 141 -24 243 -73 306c-48 63 -118 95 -211 95c-91 0 -167 -32 -227 -97c-48 -51 -77 -112 -87 -182v-825h-129zM532 -246
c-33 0 -59 26 -59 59c0 32 25 57 59 57c31 0 57 -25 57 -57c0 -33 -26 -59 -57 -59z" />
    <glyph glyph-name="eng" unicode="&#x14b;" horiz-adv-x="1087" 
d="M508 -411v86c210 0 321 117 321 325h7v703c0 141 -24 243 -73 306c-48 63 -118 95 -211 95c-91 0 -167 -32 -227 -97c-48 -51 -77 -112 -87 -182v-825h-129v1185h124l3 -167c16 21 34 42 54 63c79 77 180 116 306 116c129 0 223 -42 281 -127c59 -85 88 -206 88 -364
v-706h-7c0 -312 -151 -411 -450 -411z" />
    <glyph glyph-name="uni01CC" unicode="&#x1cc;" horiz-adv-x="1536" 
d="M109 0v1185h124l3 -167c16 21 34 42 54 63c79 77 180 116 306 116c129 0 223 -42 281 -127c59 -85 88 -206 88 -364v-706h-129v703c0 141 -24 243 -73 306c-48 63 -118 95 -211 95c-91 0 -167 -32 -227 -97c-48 -51 -77 -112 -87 -182v-825h-129zM957 -459v92
c90 0 159 23 208 68c49 44 73 124 73 240v1245h129v-1241c0 -153 -35 -258 -104 -317c-70 -58 -172 -87 -306 -87zM1238 1492h130v-149h-130v149z" />
    <glyph glyph-name="uni1E49" unicode="&#x1e49;" horiz-adv-x="1086" 
d="M109 0v1185h124l3 -167c16 21 34 42 54 63c79 77 180 116 306 116c129 0 223 -42 281 -127c59 -85 88 -206 88 -364v-706h-129v703c0 141 -24 243 -73 306c-48 63 -118 95 -211 95c-91 0 -167 -32 -227 -97c-48 -51 -77 -112 -87 -182v-825h-129zM261 -201v56h540v-56
h-540z" />
    <glyph glyph-name="ntilde" unicode="&#xf1;" horiz-adv-x="1086" 
d="M109 0v1185h124l3 -167c16 21 34 42 54 63c79 77 180 116 306 116c129 0 223 -42 281 -127c59 -85 88 -206 88 -364v-706h-129v703c0 141 -24 243 -73 306c-48 63 -118 95 -211 95c-91 0 -167 -32 -227 -97c-48 -51 -77 -112 -87 -182v-825h-129zM631 1273
c-98 0 -119 64 -188 64c-50 0 -74 -32 -76 -52h-70c3 38 35 109 141 109c90 0 103 -63 187 -63c47 0 70 32 72 53h71c-2 -34 -27 -111 -137 -111z" />
    <glyph glyph-name="o" unicode="o" horiz-adv-x="1130" 
d="M547 -9c-160 0 -280 48 -359 144c-79 95 -118 249 -118 459c0 212 39 365 118 460s199 143 359 143s280 -48 359 -143s118 -248 118 -460c0 -210 -39 -364 -118 -459c-79 -96 -199 -144 -359 -144zM547 83c106 0 190 38 253 113c63 76 94 208 94 398s-31 323 -94 398
s-147 113 -253 113s-190 -38 -253 -113s-94 -208 -94 -398s31 -322 94 -398c63 -75 147 -113 253 -113z" />
    <glyph glyph-name="oacute" unicode="&#xf3;" horiz-adv-x="1130" 
d="M547 -9c-160 0 -280 48 -359 144c-79 95 -118 249 -118 459c0 212 39 365 118 460s199 143 359 143s280 -48 359 -143s118 -248 118 -460c0 -210 -39 -364 -118 -459c-79 -96 -199 -144 -359 -144zM547 83c106 0 190 38 253 113c63 76 94 208 94 398s-31 323 -94 398
s-147 113 -253 113s-190 -38 -253 -113s-94 -208 -94 -398s31 -322 94 -398c63 -75 147 -113 253 -113zM428 1228l136 144h103l-165 -144h-74z" />
    <glyph glyph-name="obreve" unicode="&#x14f;" horiz-adv-x="1130" 
d="M547 -9c-160 0 -280 48 -359 144c-79 95 -118 249 -118 459c0 212 39 365 118 460s199 143 359 143s280 -48 359 -143s118 -248 118 -460c0 -210 -39 -364 -118 -459c-79 -96 -199 -144 -359 -144zM547 83c106 0 190 38 253 113c63 76 94 208 94 398s-31 323 -94 398
s-147 113 -253 113s-190 -38 -253 -113s-94 -208 -94 -398s31 -322 94 -398c63 -75 147 -113 253 -113zM547 1236c-106 0 -170 66 -170 140h70c0 -48 29 -88 100 -88c77 0 100 40 100 88h71c0 -74 -59 -140 -171 -140z" />
    <glyph glyph-name="uni01D2" unicode="&#x1d2;" horiz-adv-x="1130" 
d="M547 -9c-160 0 -280 48 -359 144c-79 95 -118 249 -118 459c0 212 39 365 118 460s199 143 359 143s280 -48 359 -143s118 -248 118 -460c0 -210 -39 -364 -118 -459c-79 -96 -199 -144 -359 -144zM547 83c106 0 190 38 253 113c63 76 94 208 94 398s-31 323 -94 398
s-147 113 -253 113s-190 -38 -253 -113s-94 -208 -94 -398s31 -322 94 -398c63 -75 147 -113 253 -113zM502 1234l-192 161h88l150 -124l149 124h87l-192 -161h-90z" />
    <glyph glyph-name="ocircumflex" unicode="&#xf4;" horiz-adv-x="1130" 
d="M547 -9c-160 0 -280 48 -359 144c-79 95 -118 249 -118 459c0 212 39 365 118 460s199 143 359 143s280 -48 359 -143s118 -248 118 -460c0 -210 -39 -364 -118 -459c-79 -96 -199 -144 -359 -144zM547 83c106 0 190 38 253 113c63 76 94 208 94 398s-31 323 -94 398
s-147 113 -253 113s-190 -38 -253 -113s-94 -208 -94 -398s31 -322 94 -398c63 -75 147 -113 253 -113zM310 1236l192 161h90l192 -161h-87l-149 123l-150 -123h-88z" />
    <glyph glyph-name="uni1ED1" unicode="&#x1ed1;" horiz-adv-x="1130" 
d="M547 -9c-160 0 -280 48 -359 144c-79 95 -118 249 -118 459c0 212 39 365 118 460s199 143 359 143s280 -48 359 -143s118 -248 118 -460c0 -210 -39 -364 -118 -459c-79 -96 -199 -144 -359 -144zM547 83c106 0 190 38 253 113c63 76 94 208 94 398s-31 323 -94 398
s-147 113 -253 113s-190 -38 -253 -113s-94 -208 -94 -398s31 -322 94 -398c63 -75 147 -113 253 -113zM310 1236l192 161h90l192 -161h-87l-149 123l-150 -123h-88zM428 1439l136 144h103l-165 -144h-74z" />
    <glyph glyph-name="uni1ED9" unicode="&#x1ed9;" horiz-adv-x="1130" 
d="M547 -9c-160 0 -280 48 -359 144c-79 95 -118 249 -118 459c0 212 39 365 118 460s199 143 359 143s280 -48 359 -143s118 -248 118 -460c0 -210 -39 -364 -118 -459c-79 -96 -199 -144 -359 -144zM547 83c106 0 190 38 253 113c63 76 94 208 94 398s-31 323 -94 398
s-147 113 -253 113s-190 -38 -253 -113s-94 -208 -94 -398s31 -322 94 -398c63 -75 147 -113 253 -113zM310 1236l192 161h90l192 -161h-87l-149 123l-150 -123h-88zM552 -246c-32 0 -59 26 -59 59c0 32 26 57 59 57c31 0 57 -25 57 -57c0 -33 -25 -59 -57 -59z" />
    <glyph glyph-name="uni1ED3" unicode="&#x1ed3;" horiz-adv-x="1130" 
d="M547 -9c-160 0 -280 48 -359 144c-79 95 -118 249 -118 459c0 212 39 365 118 460s199 143 359 143s280 -48 359 -143s118 -248 118 -460c0 -210 -39 -364 -118 -459c-79 -96 -199 -144 -359 -144zM547 83c106 0 190 38 253 113c63 76 94 208 94 398s-31 323 -94 398
s-147 113 -253 113s-190 -38 -253 -113s-94 -208 -94 -398s31 -322 94 -398c63 -75 147 -113 253 -113zM310 1236l192 161h90l192 -161h-87l-149 123l-150 -123h-88zM593 1454l-165 144h102l137 -144h-74z" />
    <glyph glyph-name="uni1ED5" unicode="&#x1ed5;" horiz-adv-x="1130" 
d="M547 -9c-160 0 -280 48 -359 144c-79 95 -118 249 -118 459c0 212 39 365 118 460s199 143 359 143s280 -48 359 -143s118 -248 118 -460c0 -210 -39 -364 -118 -459c-79 -96 -199 -144 -359 -144zM547 83c106 0 190 38 253 113c63 76 94 208 94 398s-31 323 -94 398
s-147 113 -253 113s-190 -38 -253 -113s-94 -208 -94 -398s31 -322 94 -398c63 -75 147 -113 253 -113zM448 1694c198 0 311 -14 311 -94c0 -72 -120 -92 -187 -92v-61h-55v102c87 0 172 11 172 47c0 44 -82 49 -241 49v49zM310 1236l192 161h90l192 -161h-87l-149 123
l-150 -123h-88z" />
    <glyph glyph-name="uni1ED7" unicode="&#x1ed7;" horiz-adv-x="1130" 
d="M547 -9c-160 0 -280 48 -359 144c-79 95 -118 249 -118 459c0 212 39 365 118 460s199 143 359 143s280 -48 359 -143s118 -248 118 -460c0 -210 -39 -364 -118 -459c-79 -96 -199 -144 -359 -144zM547 83c106 0 190 38 253 113c63 76 94 208 94 398s-31 323 -94 398
s-147 113 -253 113s-190 -38 -253 -113s-94 -208 -94 -398s31 -322 94 -398c63 -75 147 -113 253 -113zM647 1485c-98 0 -118 65 -187 65c-51 0 -74 -32 -76 -53h-71c3 39 35 110 141 110c90 0 103 -63 187 -63c47 0 70 32 72 53h71c-2 -35 -27 -112 -137 -112zM310 1236
l192 161h90l192 -161h-87l-149 123l-150 -123h-88z" />
    <glyph glyph-name="uni020D" unicode="&#x20d;" horiz-adv-x="1130" 
d="M547 -9c-160 0 -280 48 -359 144c-79 95 -118 249 -118 459c0 212 39 365 118 460s199 143 359 143s280 -48 359 -143s118 -248 118 -460c0 -210 -39 -364 -118 -459c-79 -96 -199 -144 -359 -144zM547 83c106 0 190 38 253 113c63 76 94 208 94 398s-31 323 -94 398
s-147 113 -253 113s-190 -38 -253 -113s-94 -208 -94 -398s31 -322 94 -398c63 -75 147 -113 253 -113zM491 1247l-165 144h102l137 -144h-74zM694 1247l-165 144h103l136 -144h-74z" />
    <glyph glyph-name="odieresis" unicode="&#xf6;" horiz-adv-x="1130" 
d="M547 -9c-160 0 -280 48 -359 144c-79 95 -118 249 -118 459c0 212 39 365 118 460s199 143 359 143s280 -48 359 -143s118 -248 118 -460c0 -210 -39 -364 -118 -459c-79 -96 -199 -144 -359 -144zM547 83c106 0 190 38 253 113c63 76 94 208 94 398s-31 323 -94 398
s-147 113 -253 113s-190 -38 -253 -113s-94 -208 -94 -398s31 -322 94 -398c63 -75 147 -113 253 -113zM416 1257c-33 0 -58 26 -58 58s25 58 58 58c32 0 57 -26 57 -58s-25 -58 -57 -58zM678 1257c-32 0 -58 26 -58 58s26 58 58 58s58 -26 58 -58s-26 -58 -58 -58z" />
    <glyph glyph-name="uni022B" unicode="&#x22b;" horiz-adv-x="1130" 
d="M547 -9c-160 0 -280 48 -359 144c-79 95 -118 249 -118 459c0 212 39 365 118 460s199 143 359 143s280 -48 359 -143s118 -248 118 -460c0 -210 -39 -364 -118 -459c-79 -96 -199 -144 -359 -144zM547 83c106 0 190 38 253 113c63 76 94 208 94 398s-31 323 -94 398
s-147 113 -253 113s-190 -38 -253 -113s-94 -208 -94 -398s31 -322 94 -398c63 -75 147 -113 253 -113zM277 1475v55h540v-55h-540zM416 1257c-33 0 -58 26 -58 58s25 58 58 58c32 0 57 -26 57 -58s-25 -58 -57 -58zM678 1257c-32 0 -58 26 -58 58s26 58 58 58
s58 -26 58 -58s-26 -58 -58 -58z" />
    <glyph glyph-name="uni0231" unicode="&#x231;" horiz-adv-x="1130" 
d="M547 -9c-160 0 -280 48 -359 144c-79 95 -118 249 -118 459c0 212 39 365 118 460s199 143 359 143s280 -48 359 -143s118 -248 118 -460c0 -210 -39 -364 -118 -459c-79 -96 -199 -144 -359 -144zM547 83c106 0 190 38 253 113c63 76 94 208 94 398s-31 323 -94 398
s-147 113 -253 113s-190 -38 -253 -113s-94 -208 -94 -398s31 -322 94 -398c63 -75 147 -113 253 -113zM277 1470v56h540v-56h-540zM548 1252c-33 0 -59 26 -59 59c0 32 26 57 59 57c31 0 57 -25 57 -57c0 -33 -25 -59 -57 -59z" />
    <glyph glyph-name="uni1ECD" unicode="&#x1ecd;" horiz-adv-x="1130" 
d="M547 -9c-160 0 -280 48 -359 144c-79 95 -118 249 -118 459c0 212 39 365 118 460s199 143 359 143s280 -48 359 -143s118 -248 118 -460c0 -210 -39 -364 -118 -459c-79 -96 -199 -144 -359 -144zM547 83c106 0 190 38 253 113c63 76 94 208 94 398s-31 323 -94 398
s-147 113 -253 113s-190 -38 -253 -113s-94 -208 -94 -398s31 -322 94 -398c63 -75 147 -113 253 -113zM552 -246c-32 0 -59 26 -59 59c0 32 26 57 59 57c31 0 57 -25 57 -57c0 -33 -25 -59 -57 -59z" />
    <glyph glyph-name="ograve" unicode="&#xf2;" horiz-adv-x="1130" 
d="M547 -9c-160 0 -280 48 -359 144c-79 95 -118 249 -118 459c0 212 39 365 118 460s199 143 359 143s280 -48 359 -143s118 -248 118 -460c0 -210 -39 -364 -118 -459c-79 -96 -199 -144 -359 -144zM547 83c106 0 190 38 253 113c63 76 94 208 94 398s-31 323 -94 398
s-147 113 -253 113s-190 -38 -253 -113s-94 -208 -94 -398s31 -322 94 -398c63 -75 147 -113 253 -113zM593 1243l-165 144h102l137 -144h-74z" />
    <glyph glyph-name="uni1ECF" unicode="&#x1ecf;" horiz-adv-x="1130" 
d="M547 -9c-160 0 -280 48 -359 144c-79 95 -118 249 -118 459c0 212 39 365 118 460s199 143 359 143s280 -48 359 -143s118 -248 118 -460c0 -210 -39 -364 -118 -459c-79 -96 -199 -144 -359 -144zM547 83c106 0 190 38 253 113c63 76 94 208 94 398s-31 323 -94 398
s-147 113 -253 113s-190 -38 -253 -113s-94 -208 -94 -398s31 -322 94 -398c63 -75 147 -113 253 -113zM448 1483c198 0 311 -14 311 -94c0 -72 -120 -92 -187 -92v-61h-55v102c87 0 172 11 172 47c0 44 -82 49 -241 49v49z" />
    <glyph glyph-name="ohorn" unicode="&#x1a1;" horiz-adv-x="1200" 
d="M547 -9c-160 0 -280 48 -359 144c-79 95 -118 249 -118 459c0 212 39 365 118 460s199 143 359 143c150 0 264 -42 343 -125c153 2 197 42 197 143h81c0 -123 -73 -182 -240 -191c64 -97 96 -240 96 -430c0 -210 -39 -364 -118 -459c-79 -96 -199 -144 -359 -144zM547 83
c106 0 190 38 253 113c63 76 94 208 94 398s-31 323 -94 398s-147 113 -253 113s-190 -38 -253 -113s-94 -208 -94 -398s31 -322 94 -398c63 -75 147 -113 253 -113z" />
    <glyph glyph-name="uni1EDB" unicode="&#x1edb;" horiz-adv-x="1200" 
d="M547 -9c-160 0 -280 48 -359 144c-79 95 -118 249 -118 459c0 212 39 365 118 460s199 143 359 143c150 0 264 -42 343 -125c153 2 197 42 197 143h81c0 -123 -73 -182 -240 -191c64 -97 96 -240 96 -430c0 -210 -39 -364 -118 -459c-79 -96 -199 -144 -359 -144zM547 83
c106 0 190 38 253 113c63 76 94 208 94 398s-31 323 -94 398s-147 113 -253 113s-190 -38 -253 -113s-94 -208 -94 -398s31 -322 94 -398c63 -75 147 -113 253 -113zM428 1228l136 144h103l-165 -144h-74z" />
    <glyph glyph-name="uni1EE3" unicode="&#x1ee3;" horiz-adv-x="1200" 
d="M547 -9c-160 0 -280 48 -359 144c-79 95 -118 249 -118 459c0 212 39 365 118 460s199 143 359 143c150 0 264 -42 343 -125c153 2 197 42 197 143h81c0 -123 -73 -182 -240 -191c64 -97 96 -240 96 -430c0 -210 -39 -364 -118 -459c-79 -96 -199 -144 -359 -144zM547 83
c106 0 190 38 253 113c63 76 94 208 94 398s-31 323 -94 398s-147 113 -253 113s-190 -38 -253 -113s-94 -208 -94 -398s31 -322 94 -398c63 -75 147 -113 253 -113zM552 -246c-32 0 -59 26 -59 59c0 32 26 57 59 57c31 0 57 -25 57 -57c0 -33 -25 -59 -57 -59z" />
    <glyph glyph-name="uni1EDD" unicode="&#x1edd;" horiz-adv-x="1200" 
d="M547 -9c-160 0 -280 48 -359 144c-79 95 -118 249 -118 459c0 212 39 365 118 460s199 143 359 143c150 0 264 -42 343 -125c153 2 197 42 197 143h81c0 -123 -73 -182 -240 -191c64 -97 96 -240 96 -430c0 -210 -39 -364 -118 -459c-79 -96 -199 -144 -359 -144zM547 83
c106 0 190 38 253 113c63 76 94 208 94 398s-31 323 -94 398s-147 113 -253 113s-190 -38 -253 -113s-94 -208 -94 -398s31 -322 94 -398c63 -75 147 -113 253 -113zM593 1243l-165 144h102l137 -144h-74z" />
    <glyph glyph-name="uni1EDF" unicode="&#x1edf;" horiz-adv-x="1200" 
d="M547 -9c-160 0 -280 48 -359 144c-79 95 -118 249 -118 459c0 212 39 365 118 460s199 143 359 143c150 0 264 -42 343 -125c153 2 197 42 197 143h81c0 -123 -73 -182 -240 -191c64 -97 96 -240 96 -430c0 -210 -39 -364 -118 -459c-79 -96 -199 -144 -359 -144zM547 83
c106 0 190 38 253 113c63 76 94 208 94 398s-31 323 -94 398s-147 113 -253 113s-190 -38 -253 -113s-94 -208 -94 -398s31 -322 94 -398c63 -75 147 -113 253 -113zM448 1483c198 0 311 -14 311 -94c0 -72 -120 -92 -187 -92v-61h-55v102c87 0 172 11 172 47
c0 44 -82 49 -241 49v49z" />
    <glyph glyph-name="uni1EE1" unicode="&#x1ee1;" horiz-adv-x="1200" 
d="M547 -9c-160 0 -280 48 -359 144c-79 95 -118 249 -118 459c0 212 39 365 118 460s199 143 359 143c150 0 264 -42 343 -125c153 2 197 42 197 143h81c0 -123 -73 -182 -240 -191c64 -97 96 -240 96 -430c0 -210 -39 -364 -118 -459c-79 -96 -199 -144 -359 -144zM547 83
c106 0 190 38 253 113c63 76 94 208 94 398s-31 323 -94 398s-147 113 -253 113s-190 -38 -253 -113s-94 -208 -94 -398s31 -322 94 -398c63 -75 147 -113 253 -113zM647 1274c-98 0 -118 65 -187 65c-51 0 -74 -32 -76 -53h-71c3 39 35 110 141 110c90 0 103 -63 187 -63
c47 0 70 32 72 53h71c-2 -35 -27 -112 -137 -112z" />
    <glyph glyph-name="ohungarumlaut" unicode="&#x151;" horiz-adv-x="1130" 
d="M547 -9c-160 0 -280 48 -359 144c-79 95 -118 249 -118 459c0 212 39 365 118 460s199 143 359 143s280 -48 359 -143s118 -248 118 -460c0 -210 -39 -364 -118 -459c-79 -96 -199 -144 -359 -144zM547 83c106 0 190 38 253 113c63 76 94 208 94 398s-31 323 -94 398
s-147 113 -253 113s-190 -38 -253 -113s-94 -208 -94 -398s31 -322 94 -398c63 -75 147 -113 253 -113zM525 1260l123 131h96l-149 -131h-70zM351 1260l121 131h93l-144 -131h-70z" />
    <glyph glyph-name="uni020F" unicode="&#x20f;" horiz-adv-x="1130" 
d="M547 -9c-160 0 -280 48 -359 144c-79 95 -118 249 -118 459c0 212 39 365 118 460s199 143 359 143s280 -48 359 -143s118 -248 118 -460c0 -210 -39 -364 -118 -459c-79 -96 -199 -144 -359 -144zM547 83c106 0 190 38 253 113c63 76 94 208 94 398s-31 323 -94 398
s-147 113 -253 113s-190 -38 -253 -113s-94 -208 -94 -398s31 -322 94 -398c63 -75 147 -113 253 -113zM547 1387c106 0 170 -65 170 -139h-70c0 48 -29 88 -100 88c-77 0 -100 -41 -100 -88h-71c0 74 59 139 171 139z" />
    <glyph glyph-name="omacron" unicode="&#x14d;" horiz-adv-x="1130" 
d="M547 -9c-160 0 -280 48 -359 144c-79 95 -118 249 -118 459c0 212 39 365 118 460s199 143 359 143s280 -48 359 -143s118 -248 118 -460c0 -210 -39 -364 -118 -459c-79 -96 -199 -144 -359 -144zM547 83c106 0 190 38 253 113c63 76 94 208 94 398s-31 323 -94 398
s-147 113 -253 113s-190 -38 -253 -113s-94 -208 -94 -398s31 -322 94 -398c63 -75 147 -113 253 -113zM277 1288v56h540v-56h-540z" />
    <glyph glyph-name="uni1E53" unicode="&#x1e53;" horiz-adv-x="1130" 
d="M547 -9c-160 0 -280 48 -359 144c-79 95 -118 249 -118 459c0 212 39 365 118 460s199 143 359 143s280 -48 359 -143s118 -248 118 -460c0 -210 -39 -364 -118 -459c-79 -96 -199 -144 -359 -144zM547 83c106 0 190 38 253 113c63 76 94 208 94 398s-31 323 -94 398
s-147 113 -253 113s-190 -38 -253 -113s-94 -208 -94 -398s31 -322 94 -398c63 -75 147 -113 253 -113zM277 1288v56h540v-56h-540zM428 1386l136 143h103l-165 -143h-74z" />
    <glyph glyph-name="uni1E51" unicode="&#x1e51;" horiz-adv-x="1130" 
d="M547 -9c-160 0 -280 48 -359 144c-79 95 -118 249 -118 459c0 212 39 365 118 460s199 143 359 143s280 -48 359 -143s118 -248 118 -460c0 -210 -39 -364 -118 -459c-79 -96 -199 -144 -359 -144zM547 83c106 0 190 38 253 113c63 76 94 208 94 398s-31 323 -94 398
s-147 113 -253 113s-190 -38 -253 -113s-94 -208 -94 -398s31 -322 94 -398c63 -75 147 -113 253 -113zM277 1288v56h540v-56h-540zM593 1401l-165 143h102l137 -143h-74z" />
    <glyph glyph-name="uni01EB" unicode="&#x1eb;" horiz-adv-x="1130" 
d="M549 -296c-73 0 -135 27 -135 109c0 71 45 150 67 181c-128 12 -225 59 -293 141c-79 95 -118 249 -118 459c0 212 39 365 118 460s199 143 359 143s280 -48 359 -143s118 -248 118 -460c0 -210 -39 -364 -118 -459c-79 -96 -198 -144 -358 -144
c-19 -32 -54 -108 -54 -155c0 -40 23 -61 73 -61c41 0 92 12 111 21l6 -71c-18 -8 -78 -21 -135 -21zM547 83c106 0 190 38 253 113c63 76 94 208 94 398s-31 323 -94 398s-147 113 -253 113s-190 -38 -253 -113s-94 -208 -94 -398s31 -322 94 -398
c63 -75 147 -113 253 -113z" />
    <glyph glyph-name="oslash" unicode="&#xf8;" horiz-adv-x="1124" 
d="M22 -4l139 176c-61 96 -91 237 -91 422c0 212 39 365 118 460s199 143 359 143c146 0 259 -40 337 -119l121 152l50 -35l-131 -164c67 -96 100 -242 100 -437c0 -210 -39 -364 -118 -459c-79 -96 -199 -144 -359 -144c-153 0 -269 44 -348 131l-129 -162zM547 83
c106 0 190 38 253 113c63 76 94 208 94 398c0 143 -18 254 -54 333l-563 -708c5 -8 11 -16 17 -23c63 -75 147 -113 253 -113zM246 278l562 704c-3 3 -5 7 -8 10c-63 75 -147 113 -253 113s-190 -38 -253 -113s-94 -208 -94 -398c0 -134 15 -239 46 -316z" />
    <glyph glyph-name="oslashacute" unicode="&#x1ff;" horiz-adv-x="1124" 
d="M22 -4l139 176c-61 96 -91 237 -91 422c0 212 39 365 118 460s199 143 359 143c146 0 259 -40 337 -119l121 152l50 -35l-131 -164c67 -96 100 -242 100 -437c0 -210 -39 -364 -118 -459c-79 -96 -199 -144 -359 -144c-153 0 -269 44 -348 131l-129 -162zM547 83
c106 0 190 38 253 113c63 76 94 208 94 398c0 143 -18 254 -54 333l-563 -708c5 -8 11 -16 17 -23c63 -75 147 -113 253 -113zM246 278l562 704c-3 3 -5 7 -8 10c-63 75 -147 113 -253 113s-190 -38 -253 -113s-94 -208 -94 -398c0 -134 15 -239 46 -316zM425 1233l136 144
h103l-165 -144h-74z" />
    <glyph glyph-name="otilde" unicode="&#xf5;" horiz-adv-x="1130" 
d="M547 -9c-160 0 -280 48 -359 144c-79 95 -118 249 -118 459c0 212 39 365 118 460s199 143 359 143s280 -48 359 -143s118 -248 118 -460c0 -210 -39 -364 -118 -459c-79 -96 -199 -144 -359 -144zM547 83c106 0 190 38 253 113c63 76 94 208 94 398s-31 323 -94 398
s-147 113 -253 113s-190 -38 -253 -113s-94 -208 -94 -398s31 -322 94 -398c63 -75 147 -113 253 -113zM647 1274c-98 0 -118 65 -187 65c-51 0 -74 -32 -76 -53h-71c3 39 35 110 141 110c90 0 103 -63 187 -63c47 0 70 32 72 53h71c-2 -35 -27 -112 -137 -112z" />
    <glyph glyph-name="uni1E4D" unicode="&#x1e4d;" horiz-adv-x="1130" 
d="M547 -9c-160 0 -280 48 -359 144c-79 95 -118 249 -118 459c0 212 39 365 118 460s199 143 359 143s280 -48 359 -143s118 -248 118 -460c0 -210 -39 -364 -118 -459c-79 -96 -199 -144 -359 -144zM547 83c106 0 190 38 253 113c63 76 94 208 94 398s-31 323 -94 398
s-147 113 -253 113s-190 -38 -253 -113s-94 -208 -94 -398s31 -322 94 -398c63 -75 147 -113 253 -113zM647 1274c-98 0 -118 65 -187 65c-51 0 -74 -32 -76 -53h-71c3 39 35 110 141 110c90 0 103 -63 187 -63c47 0 70 32 72 53h71c-2 -35 -27 -112 -137 -112zM428 1436
l136 144h103l-165 -144h-74z" />
    <glyph glyph-name="uni1E4F" unicode="&#x1e4f;" horiz-adv-x="1130" 
d="M547 -9c-160 0 -280 48 -359 144c-79 95 -118 249 -118 459c0 212 39 365 118 460s199 143 359 143s280 -48 359 -143s118 -248 118 -460c0 -210 -39 -364 -118 -459c-79 -96 -199 -144 -359 -144zM547 83c106 0 190 38 253 113c63 76 94 208 94 398s-31 323 -94 398
s-147 113 -253 113s-190 -38 -253 -113s-94 -208 -94 -398s31 -322 94 -398c63 -75 147 -113 253 -113zM647 1274c-98 0 -118 65 -187 65c-51 0 -74 -32 -76 -53h-71c3 39 35 110 141 110c90 0 103 -63 187 -63c47 0 70 32 72 53h71c-2 -35 -27 -112 -137 -112zM416 1465
c-33 0 -58 26 -58 58s25 58 58 58c32 0 57 -26 57 -58s-25 -58 -57 -58zM678 1465c-32 0 -58 26 -58 58s26 58 58 58s58 -26 58 -58s-26 -58 -58 -58z" />
    <glyph glyph-name="uni022D" unicode="&#x22d;" horiz-adv-x="1130" 
d="M547 -9c-160 0 -280 48 -359 144c-79 95 -118 249 -118 459c0 212 39 365 118 460s199 143 359 143s280 -48 359 -143s118 -248 118 -460c0 -210 -39 -364 -118 -459c-79 -96 -199 -144 -359 -144zM547 83c106 0 190 38 253 113c63 76 94 208 94 398s-31 323 -94 398
s-147 113 -253 113s-190 -38 -253 -113s-94 -208 -94 -398s31 -322 94 -398c63 -75 147 -113 253 -113zM647 1274c-98 0 -118 65 -187 65c-51 0 -74 -32 -76 -53h-71c3 39 35 110 141 110c90 0 103 -63 187 -63c47 0 70 32 72 53h71c-2 -35 -27 -112 -137 -112zM277 1497v55
h540v-55h-540z" />
    <glyph glyph-name="oe" unicode="&#x153;" horiz-adv-x="1945" 
d="M547 -9c-160 0 -280 48 -359 144c-79 95 -118 249 -118 459c0 212 39 365 118 460s199 143 359 143s280 -48 359 -143c21 -26 39 -55 55 -89c15 32 32 60 52 85c79 97 197 145 353 145c161 0 279 -48 354 -144c75 -97 113 -247 113 -451c0 -17 -1 -32 -2 -47h-807
c0 -8 -1 -16 -1 -25c7 -141 37 -248 89 -322c61 -84 146 -126 256 -126c180 0 324 117 331 333l117 -35c-13 -260 -203 -388 -448 -388c-163 0 -283 53 -359 158c-17 25 -33 51 -46 80c-16 -36 -35 -67 -57 -93c-79 -96 -199 -144 -359 -144zM547 83c106 0 190 38 253 113
c63 76 94 208 94 398s-31 323 -94 398s-147 113 -253 113s-190 -38 -253 -113s-94 -208 -94 -398s31 -322 94 -398c63 -75 147 -113 253 -113zM1023 664c0 -8 0 -17 1 -25h679c-2 167 -31 286 -89 357c-59 74 -142 111 -247 111c-104 0 -188 -38 -251 -114
c-55 -66 -86 -176 -93 -329z" />
    <glyph glyph-name="p" unicode="p" horiz-adv-x="1127" 
d="M109 -441v1626h124l4 -153c19 22 42 45 71 67c83 65 186 97 309 97c132 0 233 -48 302 -145c68 -96 103 -249 103 -456c0 -208 -35 -360 -103 -457c-69 -97 -170 -146 -302 -146c-123 0 -226 32 -309 97c-28 22 -51 44 -70 65v-595h-129zM238 357c4 -66 37 -127 99 -183
c67 -59 146 -89 239 -89c97 0 173 37 230 112c56 74 84 206 84 397c0 190 -28 323 -84 397c-57 75 -133 112 -230 112c-93 0 -172 -30 -239 -89c-62 -56 -95 -117 -99 -182v-475z" />
    <glyph glyph-name="thorn" unicode="&#xfe;" horiz-adv-x="1136" 
d="M110 -400v1268h8v702h129v-536c19 22 42 44 70 65c83 65 186 97 309 97c132 0 232 -48 301 -145c69 -96 103 -249 103 -456c0 -208 -34 -360 -103 -457s-169 -146 -301 -146c-123 0 -226 32 -309 97c-29 23 -53 45 -72 68l-6 -118v-439h-129zM247 835v-482
c5 -65 38 -124 99 -179c66 -59 146 -89 239 -89c96 0 173 37 229 112c57 74 85 206 85 397c0 190 -28 323 -85 397c-56 75 -133 112 -229 112c-93 0 -173 -30 -239 -89c-61 -55 -94 -114 -99 -179z" />
    <glyph glyph-name="q" unicode="q" horiz-adv-x="1118" 
d="M852 -441v593c-18 -21 -40 -42 -67 -63c-82 -65 -184 -97 -307 -97c-132 0 -233 48 -303 144s-105 249 -105 459s35 363 105 458c70 96 171 143 303 143c123 0 225 -32 307 -97c27 -21 50 -43 68 -64l4 150h124v-1626h-129zM852 846c-8 60 -40 116 -96 168
c-65 59 -144 89 -237 89c-97 0 -174 -37 -231 -110c-58 -73 -87 -206 -87 -399s29 -326 87 -399c57 -73 134 -110 231 -110c93 0 172 30 237 89c56 52 88 108 96 169v503z" />
    <glyph glyph-name="r" unicode="r" horiz-adv-x="1041" 
d="M790 649c0 170 -21 288 -62 354c-42 66 -105 99 -189 99c-94 0 -168 -31 -221 -93c-49 -57 -76 -121 -80 -192v-817h-129v1185h124l4 -162c15 24 34 48 56 69c71 69 168 103 290 103c124 0 211 -43 261 -129c51 -87 76 -225 76 -417h-130z" />
    <glyph glyph-name="r.ss01" horiz-adv-x="799" 
d="M88 0v1185h124l5 -194c39 34 102 69 188 106c94 41 193 72 297 93v-116c-94 -14 -190 -41 -288 -80c-90 -37 -156 -73 -197 -109v-885h-129z" />
    <glyph glyph-name="racute" unicode="&#x155;" horiz-adv-x="1041" 
d="M790 649c0 170 -21 288 -62 354c-42 66 -105 99 -189 99c-94 0 -168 -31 -221 -93c-49 -57 -76 -121 -80 -192v-817h-129v1185h124l4 -162c15 24 34 48 56 69c71 69 168 103 290 103c124 0 211 -43 261 -129c51 -87 76 -225 76 -417h-130zM430 1227l136 143h103
l-165 -143h-74z" />
    <glyph glyph-name="rcaron" unicode="&#x159;" horiz-adv-x="1041" 
d="M790 649c0 170 -21 288 -62 354c-42 66 -105 99 -189 99c-94 0 -168 -31 -221 -93c-49 -57 -76 -121 -80 -192v-817h-129v1185h124l4 -162c15 24 34 48 56 69c71 69 168 103 290 103c124 0 211 -43 261 -129c51 -87 76 -225 76 -417h-130zM504 1232l-191 161h87l150 -124
l149 124h87l-191 -161h-91z" />
    <glyph glyph-name="uni0157" unicode="&#x157;" horiz-adv-x="1041" 
d="M790 649c0 170 -21 288 -62 354c-42 66 -105 99 -189 99c-94 0 -168 -31 -221 -93c-49 -57 -76 -121 -80 -192v-817h-129v1185h124l4 -162c15 24 34 48 56 69c71 69 168 103 290 103c124 0 211 -43 261 -129c51 -87 76 -225 76 -417h-130zM326 -294l96 227h93l-132 -227
h-57z" />
    <glyph glyph-name="uni0211" unicode="&#x211;" horiz-adv-x="1041" 
d="M790 649c0 170 -21 288 -62 354c-42 66 -105 99 -189 99c-94 0 -168 -31 -221 -93c-49 -57 -76 -121 -80 -192v-817h-129v1185h124l4 -162c15 24 34 48 56 69c71 69 168 103 290 103c124 0 211 -43 261 -129c51 -87 76 -225 76 -417h-130zM493 1246l-165 143h103
l136 -143h-74zM697 1246l-166 143h103l136 -143h-73z" />
    <glyph glyph-name="uni1E5B" unicode="&#x1e5b;" horiz-adv-x="1041" 
d="M790 649c0 170 -21 288 -62 354c-42 66 -105 99 -189 99c-94 0 -168 -31 -221 -93c-49 -57 -76 -121 -80 -192v-817h-129v1185h124l4 -162c15 24 34 48 56 69c71 69 168 103 290 103c124 0 211 -43 261 -129c51 -87 76 -225 76 -417h-130zM547 -246c-32 0 -58 26 -58 59
c0 32 25 57 58 57c31 0 58 -25 58 -57c0 -33 -26 -59 -58 -59z" />
    <glyph glyph-name="uni0213" unicode="&#x213;" horiz-adv-x="1041" 
d="M790 649c0 170 -21 288 -62 354c-42 66 -105 99 -189 99c-94 0 -168 -31 -221 -93c-49 -57 -76 -121 -80 -192v-817h-129v1185h124l4 -162c15 24 34 48 56 69c71 69 168 103 290 103c124 0 211 -43 261 -129c51 -87 76 -225 76 -417h-130zM550 1386
c105 0 170 -66 170 -140h-70c0 48 -30 88 -100 88c-77 0 -101 -41 -101 -88h-70c0 74 58 140 171 140z" />
    <glyph glyph-name="uni1E5F" unicode="&#x1e5f;" horiz-adv-x="1041" 
d="M790 649c0 170 -21 288 -62 354c-42 66 -105 99 -189 99c-94 0 -168 -31 -221 -93c-49 -57 -76 -121 -80 -192v-817h-129v1185h124l4 -162c15 24 34 48 56 69c71 69 168 103 290 103c124 0 211 -43 261 -129c51 -87 76 -225 76 -417h-130zM277 -201v56h539v-56h-539z" />
    <glyph glyph-name="s" unicode="s" horiz-adv-x="1083" 
d="M535 -9c-136 0 -243 27 -321 82s-121 152 -132 293l117 36c4 -119 36 -202 96 -249c59 -48 139 -71 238 -71c111 0 191 18 240 54s73 88 73 157c0 81 -27 138 -82 171s-142 62 -262 88c-141 30 -245 65 -311 107c-67 41 -100 115 -100 222c0 97 38 173 114 229
c76 57 185 85 327 85s247 -28 317 -84c69 -56 109 -147 118 -273l-113 -36c-5 105 -34 181 -87 230c-53 48 -132 73 -237 73c-104 0 -181 -22 -233 -64c-51 -43 -77 -97 -77 -160c0 -76 29 -128 85 -156c57 -28 143 -54 257 -79c145 -32 251 -70 316 -116s98 -124 98 -233
c0 -104 -37 -182 -109 -231c-72 -50 -183 -75 -332 -75z" />
    <glyph glyph-name="sacute" unicode="&#x15b;" horiz-adv-x="1083" 
d="M535 -9c-136 0 -243 27 -321 82s-121 152 -132 293l117 36c4 -119 36 -202 96 -249c59 -48 139 -71 238 -71c111 0 191 18 240 54s73 88 73 157c0 81 -27 138 -82 171s-142 62 -262 88c-141 30 -245 65 -311 107c-67 41 -100 115 -100 222c0 97 38 173 114 229
c76 57 185 85 327 85s247 -28 317 -84c69 -56 109 -147 118 -273l-113 -36c-5 105 -34 181 -87 230c-53 48 -132 73 -237 73c-104 0 -181 -22 -233 -64c-51 -43 -77 -97 -77 -160c0 -76 29 -128 85 -156c57 -28 143 -54 257 -79c145 -32 251 -70 316 -116s98 -124 98 -233
c0 -104 -37 -182 -109 -231c-72 -50 -183 -75 -332 -75zM413 1226l136 144h103l-165 -144h-74z" />
    <glyph glyph-name="uni1E65" unicode="&#x1e65;" horiz-adv-x="1083" 
d="M535 -9c-136 0 -243 27 -321 82s-121 152 -132 293l117 36c4 -119 36 -202 96 -249c59 -48 139 -71 238 -71c111 0 191 18 240 54s73 88 73 157c0 81 -27 138 -82 171s-142 62 -262 88c-141 30 -245 65 -311 107c-67 41 -100 115 -100 222c0 97 38 173 114 229
c76 57 185 85 327 85s247 -28 317 -84c69 -56 109 -147 118 -273l-113 -36c-5 105 -34 181 -87 230c-53 48 -132 73 -237 73c-104 0 -181 -22 -233 -64c-51 -43 -77 -97 -77 -160c0 -76 29 -128 85 -156c57 -28 143 -54 257 -79c145 -32 251 -70 316 -116s98 -124 98 -233
c0 -104 -37 -182 -109 -231c-72 -50 -183 -75 -332 -75zM413 1226l136 144h103l-165 -144h-74zM533 1436c-33 0 -59 25 -59 59c0 31 26 57 59 57c31 0 57 -26 57 -57c0 -33 -25 -59 -57 -59z" />
    <glyph glyph-name="scaron" unicode="&#x161;" horiz-adv-x="1083" 
d="M535 -9c-136 0 -243 27 -321 82s-121 152 -132 293l117 36c4 -119 36 -202 96 -249c59 -48 139 -71 238 -71c111 0 191 18 240 54s73 88 73 157c0 81 -27 138 -82 171s-142 62 -262 88c-141 30 -245 65 -311 107c-67 41 -100 115 -100 222c0 97 38 173 114 229
c76 57 185 85 327 85s247 -28 317 -84c69 -56 109 -147 118 -273l-113 -36c-5 105 -34 181 -87 230c-53 48 -132 73 -237 73c-104 0 -181 -22 -233 -64c-51 -43 -77 -97 -77 -160c0 -76 29 -128 85 -156c57 -28 143 -54 257 -79c145 -32 251 -70 316 -116s98 -124 98 -233
c0 -104 -37 -182 -109 -231c-72 -50 -183 -75 -332 -75zM487 1232l-192 161h88l150 -124l149 124h87l-192 -161h-90z" />
    <glyph glyph-name="uni1E67" unicode="&#x1e67;" horiz-adv-x="1083" 
d="M535 -9c-136 0 -243 27 -321 82s-121 152 -132 293l117 36c4 -119 36 -202 96 -249c59 -48 139 -71 238 -71c111 0 191 18 240 54s73 88 73 157c0 81 -27 138 -82 171s-142 62 -262 88c-141 30 -245 65 -311 107c-67 41 -100 115 -100 222c0 97 38 173 114 229
c76 57 185 85 327 85s247 -28 317 -84c69 -56 109 -147 118 -273l-113 -36c-5 105 -34 181 -87 230c-53 48 -132 73 -237 73c-104 0 -181 -22 -233 -64c-51 -43 -77 -97 -77 -160c0 -76 29 -128 85 -156c57 -28 143 -54 257 -79c145 -32 251 -70 316 -116s98 -124 98 -233
c0 -104 -37 -182 -109 -231c-72 -50 -183 -75 -332 -75zM487 1232l-192 161h88l150 -124l149 124h87l-192 -161h-90zM533 1459c-33 0 -59 25 -59 58c0 32 26 58 59 58c31 0 57 -26 57 -58s-25 -58 -57 -58z" />
    <glyph glyph-name="scedilla" unicode="&#x15f;" horiz-adv-x="1083" 
d="M557 -265c-47 0 -91 5 -127 14l21 61c27 -7 64 -13 107 -13c74 0 112 20 112 60c0 28 -24 41 -57 41c-29 0 -64 -11 -92 -24l-53 11l33 107c-120 4 -216 31 -287 81c-78 55 -121 152 -132 293l117 36c4 -119 36 -202 96 -249c59 -48 139 -71 238 -71c111 0 191 18 240 54
s73 88 73 157c0 81 -27 138 -82 171s-142 62 -262 88c-141 30 -245 65 -311 107c-67 41 -100 115 -100 222c0 97 38 173 114 229c76 57 185 85 327 85s247 -28 317 -84c69 -56 109 -147 118 -273l-113 -36c-5 105 -34 181 -87 230c-53 48 -132 73 -237 73
c-104 0 -181 -22 -233 -64c-51 -43 -77 -97 -77 -160c0 -76 29 -128 85 -156c57 -28 143 -54 257 -79c145 -32 251 -70 316 -116s98 -124 98 -233c0 -104 -37 -182 -109 -231c-68 -47 -170 -72 -307 -75l-26 -78c25 15 68 27 111 27c61 0 108 -25 108 -83
c0 -86 -95 -122 -196 -122z" />
    <glyph glyph-name="scircumflex" unicode="&#x15d;" horiz-adv-x="1083" 
d="M535 -9c-136 0 -243 27 -321 82s-121 152 -132 293l117 36c4 -119 36 -202 96 -249c59 -48 139 -71 238 -71c111 0 191 18 240 54s73 88 73 157c0 81 -27 138 -82 171s-142 62 -262 88c-141 30 -245 65 -311 107c-67 41 -100 115 -100 222c0 97 38 173 114 229
c76 57 185 85 327 85s247 -28 317 -84c69 -56 109 -147 118 -273l-113 -36c-5 105 -34 181 -87 230c-53 48 -132 73 -237 73c-104 0 -181 -22 -233 -64c-51 -43 -77 -97 -77 -160c0 -76 29 -128 85 -156c57 -28 143 -54 257 -79c145 -32 251 -70 316 -116s98 -124 98 -233
c0 -104 -37 -182 -109 -231c-72 -50 -183 -75 -332 -75zM295 1234l192 161h90l192 -161h-87l-149 123l-150 -123h-88z" />
    <glyph glyph-name="uni0219" unicode="&#x219;" horiz-adv-x="1083" 
d="M535 -9c-136 0 -243 27 -321 82s-121 152 -132 293l117 36c4 -119 36 -202 96 -249c59 -48 139 -71 238 -71c111 0 191 18 240 54s73 88 73 157c0 81 -27 138 -82 171s-142 62 -262 88c-141 30 -245 65 -311 107c-67 41 -100 115 -100 222c0 97 38 173 114 229
c76 57 185 85 327 85s247 -28 317 -84c69 -56 109 -147 118 -273l-113 -36c-5 105 -34 181 -87 230c-53 48 -132 73 -237 73c-104 0 -181 -22 -233 -64c-51 -43 -77 -97 -77 -160c0 -76 29 -128 85 -156c57 -28 143 -54 257 -79c145 -32 251 -70 316 -116s98 -124 98 -233
c0 -104 -37 -182 -109 -231c-72 -50 -183 -75 -332 -75zM426 -294l95 227h93l-132 -227h-56z" />
    <glyph glyph-name="uni1E61" unicode="&#x1e61;" horiz-adv-x="1083" 
d="M535 -9c-136 0 -243 27 -321 82s-121 152 -132 293l117 36c4 -119 36 -202 96 -249c59 -48 139 -71 238 -71c111 0 191 18 240 54s73 88 73 157c0 81 -27 138 -82 171s-142 62 -262 88c-141 30 -245 65 -311 107c-67 41 -100 115 -100 222c0 97 38 173 114 229
c76 57 185 85 327 85s247 -28 317 -84c69 -56 109 -147 118 -273l-113 -36c-5 105 -34 181 -87 230c-53 48 -132 73 -237 73c-104 0 -181 -22 -233 -64c-51 -43 -77 -97 -77 -160c0 -76 29 -128 85 -156c57 -28 143 -54 257 -79c145 -32 251 -70 316 -116s98 -124 98 -233
c0 -104 -37 -182 -109 -231c-72 -50 -183 -75 -332 -75zM533 1250c-33 0 -59 26 -59 59c0 32 26 57 59 57c31 0 57 -25 57 -57c0 -33 -25 -59 -57 -59z" />
    <glyph glyph-name="uni1E63" unicode="&#x1e63;" horiz-adv-x="1083" 
d="M535 -9c-136 0 -243 27 -321 82s-121 152 -132 293l117 36c4 -119 36 -202 96 -249c59 -48 139 -71 238 -71c111 0 191 18 240 54s73 88 73 157c0 81 -27 138 -82 171s-142 62 -262 88c-141 30 -245 65 -311 107c-67 41 -100 115 -100 222c0 97 38 173 114 229
c76 57 185 85 327 85s247 -28 317 -84c69 -56 109 -147 118 -273l-113 -36c-5 105 -34 181 -87 230c-53 48 -132 73 -237 73c-104 0 -181 -22 -233 -64c-51 -43 -77 -97 -77 -160c0 -76 29 -128 85 -156c57 -28 143 -54 257 -79c145 -32 251 -70 316 -116s98 -124 98 -233
c0 -104 -37 -182 -109 -231c-72 -50 -183 -75 -332 -75zM531 -246c-33 0 -59 26 -59 59c0 32 26 57 59 57c31 0 57 -25 57 -57c0 -33 -25 -59 -57 -59z" />
    <glyph glyph-name="uni1E69" unicode="&#x1e69;" horiz-adv-x="1083" 
d="M535 -9c-136 0 -243 27 -321 82s-121 152 -132 293l117 36c4 -119 36 -202 96 -249c59 -48 139 -71 238 -71c111 0 191 18 240 54s73 88 73 157c0 81 -27 138 -82 171s-142 62 -262 88c-141 30 -245 65 -311 107c-67 41 -100 115 -100 222c0 97 38 173 114 229
c76 57 185 85 327 85s247 -28 317 -84c69 -56 109 -147 118 -273l-113 -36c-5 105 -34 181 -87 230c-53 48 -132 73 -237 73c-104 0 -181 -22 -233 -64c-51 -43 -77 -97 -77 -160c0 -76 29 -128 85 -156c57 -28 143 -54 257 -79c145 -32 251 -70 316 -116s98 -124 98 -233
c0 -104 -37 -182 -109 -231c-72 -50 -183 -75 -332 -75zM533 1250c-33 0 -59 26 -59 59c0 32 26 57 59 57c31 0 57 -25 57 -57c0 -33 -25 -59 -57 -59zM531 -246c-33 0 -59 26 -59 59c0 32 26 57 59 57c31 0 57 -25 57 -57c0 -33 -25 -59 -57 -59z" />
    <glyph glyph-name="germandbls" unicode="&#xdf;" horiz-adv-x="1140" 
d="M86 0v997c0 328 176 477 454 477c251 0 383 -112 383 -297c0 -187 -121 -278 -121 -376c0 -102 230 -173 230 -427c0 -279 -235 -374 -642 -374v92c325 0 503 81 503 291c0 218 -218 286 -218 417c0 126 118 212 118 369c0 142 -86 214 -251 214
c-187 0 -326 -107 -326 -383v-1000h-130z" />
    <glyph glyph-name="t" unicode="t" horiz-adv-x="930" 
d="M577 -12c-80 0 -145 18 -193 52c-49 35 -73 101 -73 199v852h-282v94h282v266h129v-266h406v-94h-406v-818c0 -78 15 -130 45 -155c30 -26 74 -38 132 -38c47 0 95 4 145 12v-91c-65 -8 -126 -13 -185 -13z" />
    <glyph glyph-name="t.ss01" horiz-adv-x="926" 
d="M376 0v1096h-343v89h343v267h130v-267h342v-89h-342v-1096h-130z" />
    <glyph glyph-name="tbar" unicode="&#x167;" horiz-adv-x="930" 
d="M73 630v75h238v386h-282v94h282v266h129v-266h406v-94h-406v-386h242v-75h-242v-357c0 -78 15 -130 45 -155c30 -26 74 -38 132 -38c47 0 95 4 145 12v-91c-65 -8 -126 -13 -185 -13c-80 0 -145 18 -193 52c-49 35 -73 101 -73 199v391h-238z" />
    <glyph glyph-name="tcaron" unicode="&#x165;" horiz-adv-x="969" 
d="M577 -12c-80 0 -145 18 -193 52c-49 35 -73 101 -73 199v852h-282v94h282v266h129v-266h406v-94h-406v-818c0 -78 15 -130 45 -155c30 -26 74 -38 132 -38c47 0 95 4 145 12v-91c-65 -8 -126 -13 -185 -13zM866 1236l29 208h74l-38 -208h-65z" />
    <glyph glyph-name="uni0163" unicode="&#x163;" horiz-adv-x="938" 
d="M577 -12h-7l-24 -73c25 15 68 27 111 27c61 0 107 -26 107 -84c0 -85 -94 -122 -196 -122c-46 0 -90 6 -127 15l21 61c27 -7 65 -13 108 -13c73 0 111 20 111 60c0 28 -23 41 -56 41c-30 0 -65 -11 -92 -24l-53 11l32 105c-51 8 -94 23 -128 48c-49 35 -73 101 -73 199
v852h-282v94h282v266h129v-266h406v-94h-406v-818c0 -78 15 -130 45 -155c30 -26 74 -38 132 -38c47 0 95 4 145 12v-91c-65 -8 -126 -13 -185 -13z" />
    <glyph glyph-name="uni021B" unicode="&#x21b;" horiz-adv-x="930" 
d="M577 -12c-80 0 -145 18 -193 52c-49 35 -73 101 -73 199v852h-282v94h282v266h129v-266h406v-94h-406v-818c0 -78 15 -130 45 -155c30 -26 74 -38 132 -38c47 0 95 4 145 12v-91c-65 -8 -126 -13 -185 -13zM462 -294l96 227h93l-132 -227h-57z" />
    <glyph glyph-name="uni1E97" unicode="&#x1e97;" horiz-adv-x="930" 
d="M577 -12c-80 0 -145 18 -193 52c-49 35 -73 101 -73 199v852h-282v94h282v266h129v-266h406v-94h-406v-818c0 -78 15 -130 45 -155c30 -26 74 -38 132 -38c47 0 95 4 145 12v-91c-65 -8 -126 -13 -185 -13zM249 1521c-32 0 -58 26 -58 58s26 58 58 58s58 -26 58 -58
s-26 -58 -58 -58zM512 1521c-32 0 -58 26 -58 58s26 58 58 58s57 -26 57 -58s-25 -58 -57 -58z" />
    <glyph glyph-name="uni1E6D" unicode="&#x1e6d;" horiz-adv-x="930" 
d="M577 -12c-80 0 -145 18 -193 52c-49 35 -73 101 -73 199v852h-282v94h282v266h129v-266h406v-94h-406v-818c0 -78 15 -130 45 -155c30 -26 74 -38 132 -38c47 0 95 4 145 12v-91c-65 -8 -126 -13 -185 -13zM567 -246c-32 0 -58 26 -58 59c0 32 25 57 58 57
c31 0 58 -25 58 -57c0 -33 -26 -59 -58 -59z" />
    <glyph glyph-name="uni1E6F" unicode="&#x1e6f;" horiz-adv-x="930" 
d="M577 -12c-80 0 -145 18 -193 52c-49 35 -73 101 -73 199v852h-282v94h282v266h129v-266h406v-94h-406v-818c0 -78 15 -130 45 -155c30 -26 74 -38 132 -38c47 0 95 4 145 12v-91c-65 -8 -126 -13 -185 -13zM297 -201v56h540v-56h-540z" />
    <glyph glyph-name="u" unicode="u" horiz-adv-x="1092" 
d="M832 0l-5 172c-15 -23 -34 -45 -56 -67c-78 -77 -180 -116 -306 -116c-129 0 -222 42 -281 127c-58 85 -88 206 -88 364v706h130v-703c0 -141 24 -243 72 -306s119 -95 211 -95s167 32 227 97c56 59 86 132 90 217v789h130v-1185h-124z" />
    <glyph glyph-name="uacute" unicode="&#xfa;" horiz-adv-x="1092" 
d="M832 0l-5 172c-15 -23 -34 -45 -56 -67c-78 -77 -180 -116 -306 -116c-129 0 -222 42 -281 127c-58 85 -88 206 -88 364v706h130v-703c0 -141 24 -243 72 -306s119 -95 211 -95s167 32 227 97c56 59 86 132 90 217v789h130v-1185h-124zM410 1227l136 143h102l-165 -143
h-73z" />
    <glyph glyph-name="ubreve" unicode="&#x16d;" horiz-adv-x="1092" 
d="M832 0l-5 172c-15 -23 -34 -45 -56 -67c-78 -77 -180 -116 -306 -116c-129 0 -222 42 -281 127c-58 85 -88 206 -88 364v706h130v-703c0 -141 24 -243 72 -306s119 -95 211 -95s167 32 227 97c56 59 86 132 90 217v789h130v-1185h-124zM528 1235c-105 0 -169 65 -169 139
h70c0 -48 29 -88 99 -88c77 0 101 41 101 88h70c0 -74 -58 -139 -171 -139z" />
    <glyph glyph-name="uni01D4" unicode="&#x1d4;" horiz-adv-x="1092" 
d="M832 0l-5 172c-15 -23 -34 -45 -56 -67c-78 -77 -180 -116 -306 -116c-129 0 -222 42 -281 127c-58 85 -88 206 -88 364v706h130v-703c0 -141 24 -243 72 -306s119 -95 211 -95s167 32 227 97c56 59 86 132 90 217v789h130v-1185h-124zM484 1232l-192 161h88l150 -124
l149 124h87l-192 -161h-90z" />
    <glyph glyph-name="ucircumflex" unicode="&#xfb;" horiz-adv-x="1092" 
d="M832 0l-5 172c-15 -23 -34 -45 -56 -67c-78 -77 -180 -116 -306 -116c-129 0 -222 42 -281 127c-58 85 -88 206 -88 364v706h130v-703c0 -141 24 -243 72 -306s119 -95 211 -95s167 32 227 97c56 59 86 132 90 217v789h130v-1185h-124zM292 1235l192 161h90l192 -161h-87
l-150 123l-149 -123h-88z" />
    <glyph glyph-name="uni0215" unicode="&#x215;" horiz-adv-x="1092" 
d="M832 0l-5 172c-15 -23 -34 -45 -56 -67c-78 -77 -180 -116 -306 -116c-129 0 -222 42 -281 127c-58 85 -88 206 -88 364v706h130v-703c0 -141 24 -243 72 -306s119 -95 211 -95s167 32 227 97c56 59 86 132 90 217v789h130v-1185h-124zM473 1246l-166 143h103l136 -143
h-73zM676 1246l-165 143h102l137 -143h-74z" />
    <glyph glyph-name="udieresis" unicode="&#xfc;" horiz-adv-x="1092" 
d="M832 0l-5 172c-15 -23 -34 -45 -56 -67c-78 -77 -180 -116 -306 -116c-129 0 -222 42 -281 127c-58 85 -88 206 -88 364v706h130v-703c0 -141 24 -243 72 -306s119 -95 211 -95s167 32 227 97c56 59 86 132 90 217v789h130v-1185h-124zM397 1256c-32 0 -58 25 -58 57
s26 58 58 58s58 -26 58 -58s-26 -57 -58 -57zM660 1256c-32 0 -58 25 -58 57s26 58 58 58s58 -26 58 -58s-26 -57 -58 -57z" />
    <glyph glyph-name="uni01D8" unicode="&#x1d8;" horiz-adv-x="1092" 
d="M832 0l-5 172c-15 -23 -34 -45 -56 -67c-78 -77 -180 -116 -306 -116c-129 0 -222 42 -281 127c-58 85 -88 206 -88 364v706h130v-703c0 -141 24 -243 72 -306s119 -95 211 -95s167 32 227 97c56 59 86 132 90 217v789h130v-1185h-124zM439 1394l136 144h103l-165 -144
h-74zM397 1256c-32 0 -58 25 -58 57s26 58 58 58s58 -26 58 -58s-26 -57 -58 -57zM660 1256c-32 0 -58 25 -58 57s26 58 58 58s58 -26 58 -58s-26 -57 -58 -57z" />
    <glyph glyph-name="uni01DA" unicode="&#x1da;" horiz-adv-x="1092" 
d="M832 0l-5 172c-15 -23 -34 -45 -56 -67c-78 -77 -180 -116 -306 -116c-129 0 -222 42 -281 127c-58 85 -88 206 -88 364v706h130v-703c0 -141 24 -243 72 -306s119 -95 211 -95s167 32 227 97c56 59 86 132 90 217v789h130v-1185h-124zM484 1418l-192 161h88l150 -123
l149 123h87l-192 -161h-90zM397 1256c-32 0 -58 25 -58 57s26 58 58 58s58 -26 58 -58s-26 -57 -58 -57zM660 1256c-32 0 -58 25 -58 57s26 58 58 58s58 -26 58 -58s-26 -57 -58 -57z" />
    <glyph glyph-name="uni01DC" unicode="&#x1dc;" horiz-adv-x="1092" 
d="M832 0l-5 172c-15 -23 -34 -45 -56 -67c-78 -77 -180 -116 -306 -116c-129 0 -222 42 -281 127c-58 85 -88 206 -88 364v706h130v-703c0 -141 24 -243 72 -306s119 -95 211 -95s167 32 227 97c56 59 86 132 90 217v789h130v-1185h-124zM552 1404l-165 144h102l137 -144
h-74zM397 1256c-32 0 -58 25 -58 57s26 58 58 58s58 -26 58 -58s-26 -57 -58 -57zM660 1256c-32 0 -58 25 -58 57s26 58 58 58s58 -26 58 -58s-26 -57 -58 -57z" />
    <glyph glyph-name="uni01D6" unicode="&#x1d6;" horiz-adv-x="1092" 
d="M832 0l-5 172c-15 -23 -34 -45 -56 -67c-78 -77 -180 -116 -306 -116c-129 0 -222 42 -281 127c-58 85 -88 206 -88 364v706h130v-703c0 -141 24 -243 72 -306s119 -95 211 -95s167 32 227 97c56 59 86 132 90 217v789h130v-1185h-124zM259 1473v55h540v-55h-540z
M397 1256c-32 0 -58 25 -58 57s26 58 58 58s58 -26 58 -58s-26 -57 -58 -57zM660 1256c-32 0 -58 25 -58 57s26 58 58 58s58 -26 58 -58s-26 -57 -58 -57z" />
    <glyph glyph-name="uni1EE5" unicode="&#x1ee5;" horiz-adv-x="1092" 
d="M832 0l-5 172c-15 -23 -34 -45 -56 -67c-78 -77 -180 -116 -306 -116c-129 0 -222 42 -281 127c-58 85 -88 206 -88 364v706h130v-703c0 -141 24 -243 72 -306s119 -95 211 -95s167 32 227 97c56 59 86 132 90 217v789h130v-1185h-124zM528 -246c-33 0 -59 26 -59 59
c0 32 26 57 59 57c31 0 57 -25 57 -57c0 -33 -25 -59 -57 -59z" />
    <glyph glyph-name="ugrave" unicode="&#xf9;" horiz-adv-x="1092" 
d="M832 0l-5 172c-15 -23 -34 -45 -56 -67c-78 -77 -180 -116 -306 -116c-129 0 -222 42 -281 127c-58 85 -88 206 -88 364v706h130v-703c0 -141 24 -243 72 -306s119 -95 211 -95s167 32 227 97c56 59 86 132 90 217v789h130v-1185h-124zM575 1242l-166 143h103l136 -143
h-73z" />
    <glyph glyph-name="uni1EE7" unicode="&#x1ee7;" horiz-adv-x="1092" 
d="M832 0l-5 172c-15 -23 -34 -45 -56 -67c-78 -77 -180 -116 -306 -116c-129 0 -222 42 -281 127c-58 85 -88 206 -88 364v706h130v-703c0 -141 24 -243 72 -306s119 -95 211 -95s167 32 227 97c56 59 86 132 90 217v789h130v-1185h-124zM430 1481c198 0 311 -13 311 -94
c0 -72 -121 -92 -188 -92v-60h-55v101c88 0 173 11 173 47c0 44 -83 50 -241 50v48z" />
    <glyph glyph-name="uhorn" unicode="&#x1b0;" horiz-adv-x="1238" 
d="M832 0l-5 172c-15 -23 -34 -45 -56 -67c-78 -77 -180 -116 -306 -116c-129 0 -222 42 -281 127c-58 85 -88 206 -88 364v706h130v-703c0 -141 24 -243 72 -306s119 -95 211 -95s167 32 227 97c56 59 86 132 90 217v789h122c163 0 210 38 210 143h81
c0 -134 -86 -192 -283 -193v-1135h-124z" />
    <glyph glyph-name="uni1EE9" unicode="&#x1ee9;" horiz-adv-x="1238" 
d="M832 0l-5 172c-15 -23 -34 -45 -56 -67c-78 -77 -180 -116 -306 -116c-129 0 -222 42 -281 127c-58 85 -88 206 -88 364v706h130v-703c0 -141 24 -243 72 -306s119 -95 211 -95s167 32 227 97c56 59 86 132 90 217v789h122c163 0 210 38 210 143h81
c0 -134 -86 -192 -283 -193v-1135h-124zM410 1227l136 143h102l-165 -143h-73z" />
    <glyph glyph-name="uni1EF1" unicode="&#x1ef1;" horiz-adv-x="1238" 
d="M832 0l-5 172c-15 -23 -34 -45 -56 -67c-78 -77 -180 -116 -306 -116c-129 0 -222 42 -281 127c-58 85 -88 206 -88 364v706h130v-703c0 -141 24 -243 72 -306s119 -95 211 -95s167 32 227 97c56 59 86 132 90 217v789h122c163 0 210 38 210 143h81
c0 -134 -86 -192 -283 -193v-1135h-124zM528 -246c-33 0 -59 26 -59 59c0 32 26 57 59 57c31 0 57 -25 57 -57c0 -33 -25 -59 -57 -59z" />
    <glyph glyph-name="uni1EEB" unicode="&#x1eeb;" horiz-adv-x="1238" 
d="M832 0l-5 172c-15 -23 -34 -45 -56 -67c-78 -77 -180 -116 -306 -116c-129 0 -222 42 -281 127c-58 85 -88 206 -88 364v706h130v-703c0 -141 24 -243 72 -306s119 -95 211 -95s167 32 227 97c56 59 86 132 90 217v789h122c163 0 210 38 210 143h81
c0 -134 -86 -192 -283 -193v-1135h-124zM575 1242l-166 143h103l136 -143h-73z" />
    <glyph glyph-name="uni1EED" unicode="&#x1eed;" horiz-adv-x="1238" 
d="M832 0l-5 172c-15 -23 -34 -45 -56 -67c-78 -77 -180 -116 -306 -116c-129 0 -222 42 -281 127c-58 85 -88 206 -88 364v706h130v-703c0 -141 24 -243 72 -306s119 -95 211 -95s167 32 227 97c56 59 86 132 90 217v789h122c163 0 210 38 210 143h81
c0 -134 -86 -192 -283 -193v-1135h-124zM430 1481c198 0 311 -13 311 -94c0 -72 -121 -92 -188 -92v-60h-55v101c88 0 173 11 173 47c0 44 -83 50 -241 50v48z" />
    <glyph glyph-name="uni1EEF" unicode="&#x1eef;" horiz-adv-x="1238" 
d="M832 0l-5 172c-15 -23 -34 -45 -56 -67c-78 -77 -180 -116 -306 -116c-129 0 -222 42 -281 127c-58 85 -88 206 -88 364v706h130v-703c0 -141 24 -243 72 -306s119 -95 211 -95s167 32 227 97c56 59 86 132 90 217v789h122c163 0 210 38 210 143h81
c0 -134 -86 -192 -283 -193v-1135h-124zM629 1273c-98 0 -119 64 -188 64c-50 0 -74 -32 -75 -52h-71c3 38 35 109 141 109c90 0 103 -63 187 -63c47 0 70 32 72 53h71c-2 -34 -27 -111 -137 -111z" />
    <glyph glyph-name="uhungarumlaut" unicode="&#x171;" horiz-adv-x="1092" 
d="M832 0l-5 172c-15 -23 -34 -45 -56 -67c-78 -77 -180 -116 -306 -116c-129 0 -222 42 -281 127c-58 85 -88 206 -88 364v706h130v-703c0 -141 24 -243 72 -306s119 -95 211 -95s167 32 227 97c56 59 86 132 90 217v789h130v-1185h-124zM507 1259l122 130h96l-148 -130
h-70zM333 1259l120 130h93l-144 -130h-69z" />
    <glyph glyph-name="uni0217" unicode="&#x217;" horiz-adv-x="1092" 
d="M832 0l-5 172c-15 -23 -34 -45 -56 -67c-78 -77 -180 -116 -306 -116c-129 0 -222 42 -281 127c-58 85 -88 206 -88 364v706h130v-703c0 -141 24 -243 72 -306s119 -95 211 -95s167 32 227 97c56 59 86 132 90 217v789h130v-1185h-124zM529 1386c106 0 170 -66 170 -140
h-70c0 48 -30 88 -100 88c-77 0 -100 -41 -100 -88h-71c0 74 58 140 171 140z" />
    <glyph glyph-name="umacron" unicode="&#x16b;" horiz-adv-x="1092" 
d="M832 0l-5 172c-15 -23 -34 -45 -56 -67c-78 -77 -180 -116 -306 -116c-129 0 -222 42 -281 127c-58 85 -88 206 -88 364v706h130v-703c0 -141 24 -243 72 -306s119 -95 211 -95s167 32 227 97c56 59 86 132 90 217v789h130v-1185h-124zM259 1287v55h540v-55h-540z" />
    <glyph glyph-name="uni1E7B" unicode="&#x1e7b;" horiz-adv-x="1092" 
d="M832 0l-5 172c-15 -23 -34 -45 -56 -67c-78 -77 -180 -116 -306 -116c-129 0 -222 42 -281 127c-58 85 -88 206 -88 364v706h130v-703c0 -141 24 -243 72 -306s119 -95 211 -95s167 32 227 97c56 59 86 132 90 217v789h130v-1185h-124zM259 1287v55h540v-55h-540z
M397 1413c-32 0 -58 26 -58 58s26 58 58 58s58 -26 58 -58s-26 -58 -58 -58zM660 1413c-32 0 -58 26 -58 58s26 58 58 58s58 -26 58 -58s-26 -58 -58 -58z" />
    <glyph glyph-name="uogonek" unicode="&#x173;" horiz-adv-x="1092" 
d="M832 0l-5 172c-15 -23 -34 -45 -56 -67c-78 -77 -180 -116 -306 -116c-129 0 -222 42 -281 127c-58 85 -88 206 -88 364v706h130v-703c0 -141 24 -243 72 -306s119 -95 211 -95s167 32 227 97c56 59 86 132 90 217v789h130v-1185c-19 -30 -58 -110 -58 -160
c0 -39 23 -60 74 -60c40 0 91 11 111 21l5 -72c-18 -8 -78 -21 -135 -21c-72 0 -135 28 -135 109c0 73 47 153 68 183h-54z" />
    <glyph glyph-name="uring" unicode="&#x16f;" horiz-adv-x="1092" 
d="M832 0l-5 172c-15 -23 -34 -45 -56 -67c-78 -77 -180 -116 -306 -116c-129 0 -222 42 -281 127c-58 85 -88 206 -88 364v706h130v-703c0 -141 24 -243 72 -306s119 -95 211 -95s167 32 227 97c56 59 86 132 90 217v789h130v-1185h-124zM529 1220c-56 0 -98 43 -98 99
c0 54 42 98 98 98s97 -44 97 -98c0 -55 -41 -99 -97 -99zM529 1275c24 0 42 18 42 44c0 25 -18 43 -42 43s-42 -18 -42 -43c0 -26 18 -44 42 -44z" />
    <glyph glyph-name="utilde" unicode="&#x169;" horiz-adv-x="1092" 
d="M832 0l-5 172c-15 -23 -34 -45 -56 -67c-78 -77 -180 -116 -306 -116c-129 0 -222 42 -281 127c-58 85 -88 206 -88 364v706h130v-703c0 -141 24 -243 72 -306s119 -95 211 -95s167 32 227 97c56 59 86 132 90 217v789h130v-1185h-124zM629 1273c-98 0 -119 64 -188 64
c-50 0 -74 -32 -75 -52h-71c3 38 35 109 141 109c90 0 103 -63 187 -63c47 0 70 32 72 53h71c-2 -34 -27 -111 -137 -111z" />
    <glyph glyph-name="uni1E79" unicode="&#x1e79;" horiz-adv-x="1092" 
d="M832 0l-5 172c-15 -23 -34 -45 -56 -67c-78 -77 -180 -116 -306 -116c-129 0 -222 42 -281 127c-58 85 -88 206 -88 364v706h130v-703c0 -141 24 -243 72 -306s119 -95 211 -95s167 32 227 97c56 59 86 132 90 217v789h130v-1185h-124zM629 1273c-98 0 -119 64 -188 64
c-50 0 -74 -32 -75 -52h-71c3 38 35 109 141 109c90 0 103 -63 187 -63c47 0 70 32 72 53h71c-2 -34 -27 -111 -137 -111zM410 1435l136 144h102l-165 -144h-73z" />
    <glyph glyph-name="v" unicode="v" horiz-adv-x="1058" 
d="M428 0l-374 1186h137l331 -1101l330 1101h136l-373 -1186h-187z" />
    <glyph glyph-name="w" unicode="w" horiz-adv-x="1501" 
d="M312 0l-239 1185h134l202 -1094l259 1094h148l264 -1093l197 1093h134l-235 -1185h-190l-244 1044l-239 -1044h-191z" />
    <glyph glyph-name="wacute" unicode="&#x1e83;" horiz-adv-x="1501" 
d="M312 0l-239 1185h134l202 -1094l259 1094h148l264 -1093l197 1093h134l-235 -1185h-190l-244 1044l-239 -1044h-191zM622 1227l136 143h103l-165 -143h-74z" />
    <glyph glyph-name="wcircumflex" unicode="&#x175;" horiz-adv-x="1501" 
d="M312 0l-239 1185h134l202 -1094l259 1094h148l264 -1093l197 1093h134l-235 -1185h-190l-244 1044l-239 -1044h-191zM505 1235l191 161h90l192 -161h-87l-149 123l-150 -123h-87z" />
    <glyph glyph-name="wdieresis" unicode="&#x1e85;" horiz-adv-x="1501" 
d="M312 0l-239 1185h134l202 -1094l259 1094h148l264 -1093l197 1093h134l-235 -1185h-190l-244 1044l-239 -1044h-191zM610 1256c-32 0 -58 25 -58 57s26 58 58 58s58 -26 58 -58s-26 -57 -58 -57zM872 1256c-32 0 -57 25 -57 57s25 58 57 58s58 -26 58 -58
s-26 -57 -58 -57z" />
    <glyph glyph-name="wgrave" unicode="&#x1e81;" horiz-adv-x="1501" 
d="M312 0l-239 1185h134l202 -1094l259 1094h148l264 -1093l197 1093h134l-235 -1185h-190l-244 1044l-239 -1044h-191zM787 1242l-165 143h103l136 -143h-74z" />
    <glyph glyph-name="x" unicode="x" horiz-adv-x="1064" 
d="M30 0l396 592l-381 593h149l329 -537l327 537h148l-382 -593l394 -592h-149l-343 537l-340 -537h-148z" />
    <glyph glyph-name="y" unicode="y" horiz-adv-x="997" 
d="M391 0l-351 1185h136l315 -1077l311 1077h136l-349 -1185c-50 -174 -117 -294 -200 -360c-84 -67 -191 -100 -322 -100v94c98 0 179 26 243 78c63 51 116 147 158 288h-77z" />
    <glyph glyph-name="y.ss01" horiz-adv-x="1017" 
d="M518 -461c-279 0 -408 120 -408 376h128c0 -196 101 -289 280 -289s290 99 290 380v162c-15 -22 -33 -43 -54 -64c-78 -78 -180 -117 -306 -117c-129 0 -223 43 -281 128c-59 85 -88 206 -88 364v706h129v-703c0 -141 24 -243 73 -306c48 -64 119 -95 211 -95
c91 0 167 32 227 96c54 57 83 126 89 207v801h130v-1185c0 -337 -140 -461 -420 -461z" />
    <glyph glyph-name="yacute" unicode="&#xfd;" horiz-adv-x="997" 
d="M391 0l-351 1185h136l315 -1077l311 1077h136l-349 -1185c-50 -174 -117 -294 -200 -360c-84 -67 -191 -100 -322 -100v94c98 0 179 26 243 78c63 51 116 147 158 288h-77zM370 1227l136 143h102l-165 -143h-73z" />
    <glyph glyph-name="ycircumflex" unicode="&#x177;" horiz-adv-x="997" 
d="M391 0l-351 1185h136l315 -1077l311 1077h136l-349 -1185c-50 -174 -117 -294 -200 -360c-84 -67 -191 -100 -322 -100v94c98 0 179 26 243 78c63 51 116 147 158 288h-77zM252 1235l192 161h90l192 -161h-87l-150 123l-149 -123h-88z" />
    <glyph glyph-name="ydieresis" unicode="&#xff;" horiz-adv-x="997" 
d="M391 0l-351 1185h136l315 -1077l311 1077h136l-349 -1185c-50 -174 -117 -294 -200 -360c-84 -67 -191 -100 -322 -100v94c98 0 179 26 243 78c63 51 116 147 158 288h-77zM357 1256c-32 0 -58 25 -58 57s26 58 58 58s58 -26 58 -58s-26 -57 -58 -57zM620 1256
c-32 0 -58 25 -58 57s26 58 58 58s58 -26 58 -58s-26 -57 -58 -57z" />
    <glyph glyph-name="uni1E8F" unicode="&#x1e8f;" horiz-adv-x="997" 
d="M391 0l-351 1185h136l315 -1077l311 1077h136l-349 -1185c-50 -174 -117 -294 -200 -360c-84 -67 -191 -100 -322 -100v94c98 0 179 26 243 78c63 51 116 147 158 288h-77zM490 1251c-33 0 -59 25 -59 58c0 32 25 58 59 58c31 0 57 -26 57 -58s-26 -58 -57 -58z" />
    <glyph glyph-name="uni1EF5" unicode="&#x1ef5;" horiz-adv-x="997" 
d="M391 0l-351 1185h136l315 -1077l311 1077h136l-349 -1185c-50 -174 -117 -294 -200 -360c-84 -67 -191 -100 -322 -100v94c98 0 179 26 243 78c63 51 116 147 158 288h-77zM593 -482c-33 0 -59 25 -59 59c0 31 25 57 59 57c31 0 57 -26 57 -57c0 -33 -26 -59 -57 -59z
" />
    <glyph glyph-name="ygrave" unicode="&#x1ef3;" horiz-adv-x="997" 
d="M391 0l-351 1185h136l315 -1077l311 1077h136l-349 -1185c-50 -174 -117 -294 -200 -360c-84 -67 -191 -100 -322 -100v94c98 0 179 26 243 78c63 51 116 147 158 288h-77zM535 1242l-166 143h103l136 -143h-73z" />
    <glyph glyph-name="uni1EF7" unicode="&#x1ef7;" horiz-adv-x="997" 
d="M391 0l-351 1185h136l315 -1077l311 1077h136l-349 -1185c-50 -174 -117 -294 -200 -360c-84 -67 -191 -100 -322 -100v94c98 0 179 26 243 78c63 51 116 147 158 288h-77zM390 1481c198 0 311 -13 311 -94c0 -72 -121 -92 -188 -92v-60h-55v101c88 0 173 11 173 47
c0 44 -83 50 -241 50v48z" />
    <glyph glyph-name="uni0233" unicode="&#x233;" horiz-adv-x="997" 
d="M391 0l-351 1185h136l315 -1077l311 1077h136l-349 -1185c-50 -174 -117 -294 -200 -360c-84 -67 -191 -100 -322 -100v94c98 0 179 26 243 78c63 51 116 147 158 288h-77zM219 1287v55h540v-55h-540z" />
    <glyph glyph-name="uni1EF9" unicode="&#x1ef9;" horiz-adv-x="997" 
d="M391 0l-351 1185h136l315 -1077l311 1077h136l-349 -1185c-50 -174 -117 -294 -200 -360c-84 -67 -191 -100 -322 -100v94c98 0 179 26 243 78c63 51 116 147 158 288h-77zM589 1273c-98 0 -119 64 -188 64c-50 0 -74 -32 -75 -52h-71c3 38 35 109 141 109
c90 0 103 -63 187 -63c47 0 70 32 72 53h71c-2 -34 -27 -111 -137 -111z" />
    <glyph glyph-name="z" unicode="z" horiz-adv-x="924" 
d="M69 0v96l608 996h-598v93h735v-98l-603 -994h614v-93h-756z" />
    <glyph glyph-name="zacute" unicode="&#x17a;" horiz-adv-x="924" 
d="M69 0v96l608 996h-598v93h735v-98l-603 -994h614v-93h-756zM331 1227l136 143h103l-165 -143h-74z" />
    <glyph glyph-name="zcaron" unicode="&#x17e;" horiz-adv-x="924" 
d="M69 0v96l608 996h-598v93h735v-98l-603 -994h614v-93h-756zM405 1232l-191 161h87l150 -124l149 124h87l-191 -161h-91z" />
    <glyph glyph-name="zdotaccent" unicode="&#x17c;" horiz-adv-x="924" 
d="M69 0v96l608 996h-598v93h735v-98l-603 -994h614v-93h-756zM451 1251c-32 0 -58 25 -58 58c0 32 25 58 58 58c31 0 58 -26 58 -58s-26 -58 -58 -58z" />
    <glyph glyph-name="uni1E93" unicode="&#x1e93;" horiz-adv-x="924" 
d="M69 0v96l608 996h-598v93h735v-98l-603 -994h614v-93h-756zM455 -246c-32 0 -58 26 -58 59c0 32 25 57 58 57c31 0 58 -25 58 -57c0 -33 -26 -59 -58 -59z" />
    <glyph glyph-name="a.sc" horiz-adv-x="1252" 
d="M66 0l458 1190h203l457 -1190h-136l-128 293h-589l-128 -293h-137zM364 386h523l-258 724h-6z" />
    <glyph glyph-name="a.ss01.sc" horiz-adv-x="1252" 
d="M66 0l458 1190h203l457 -1190h-136l-128 293h-589l-128 -293h-137zM364 386h523l-258 724h-6z" />
    <glyph glyph-name="aacute.sc" horiz-adv-x="1252" 
d="M66 0l458 1190h203l457 -1190h-136l-128 293h-589l-128 -293h-137zM364 386h523l-258 724h-6zM505 1231l136 143h103l-165 -143h-74z" />
    <glyph glyph-name="abreve.sc" horiz-adv-x="1252" 
d="M66 0l458 1190h203l457 -1190h-136l-128 293h-589l-128 -293h-137zM364 386h523l-258 724h-6zM624 1239c-106 0 -170 65 -170 139h70c0 -48 29 -88 100 -88c77 0 100 41 100 88h71c0 -74 -59 -139 -171 -139z" />
    <glyph glyph-name="uni1EAF.sc" horiz-adv-x="1252" 
d="M66 0l458 1190h203l457 -1190h-136l-128 293h-589l-128 -293h-137zM364 386h523l-258 724h-6zM624 1239c-106 0 -170 65 -170 139h70c0 -48 29 -88 100 -88c77 0 100 41 100 88h71c0 -74 -59 -139 -171 -139zM505 1420l136 144h103l-165 -144h-74z" />
    </font>
</defs>
</svg>
